<svg width="24" height="24" viewBox="0 0 24 24" fill="none" xmlns="http://www.w3.org/2000/svg">
<path d="M23.5861 19.8621H0.413812C0.185297 19.8621 0 19.6768 0 19.4483V4.55175C0 4.32324 0.185297 4.13794 0.413812 4.13794H23.5862C23.8147 4.13794 24 4.32324 24 4.55175V19.4483C24 19.6768 23.8147 19.8621 23.5861 19.8621Z" fill="#73AF00"/>
<path d="M16.4554 10.5459C16.4443 10.4752 16.3418 10.4788 16.3338 10.5499C16.0869 12.725 14.2419 14.4148 12.0001 14.4148C9.75895 14.4148 7.91329 12.725 7.6664 10.55C7.65834 10.4789 7.55582 10.4753 7.54476 10.546C7.51045 10.7648 7.4917 10.9886 7.4917 11.217C7.49165 13.7046 9.51056 15.7241 12.0001 15.7241C14.4905 15.7241 16.5085 13.7046 16.5085 11.217C16.5084 10.9886 16.4896 10.7648 16.4554 10.5459Z" fill="#FFE15A"/>
<path d="M11.9442 8.68441L11.6182 9.66194L10.5877 9.66991C10.5313 9.67033 10.5078 9.74242 10.5533 9.77599L11.3823 10.3881L11.0714 11.3706C11.0544 11.4245 11.1157 11.4691 11.1617 11.4362L12 10.837L12.8383 11.4362C12.8843 11.4691 12.9456 11.4245 12.9286 11.3706L12.6178 10.3881L13.4468 9.77599C13.4923 9.74242 13.4688 9.67033 13.4123 9.66991L12.3819 9.66194L12.0559 8.68441C12.0379 8.63083 11.9621 8.63083 11.9442 8.68441Z" fill="#FFE15A"/>
</svg>
