<svg width="24" height="24" viewBox="0 0 24 24" fill="none" xmlns="http://www.w3.org/2000/svg">
<path d="M23.5861 19.862H0.413812C0.185297 19.862 0 19.6767 0 19.4482V4.55175C0 4.32324 0.185297 4.13794 0.413812 4.13794H23.5862C23.8147 4.13794 24 4.32324 24 4.55175V19.4482C24 19.6768 23.8147 19.862 23.5861 19.862Z" fill="#F5F5F5"/>
<path d="M24 10.3448H13.6551V4.13794H10.3448V10.3448H0V13.6551H10.3448V19.862H13.6551V13.6551H24V10.3448Z" fill="#FF4B55"/>
<path d="M16.9654 13.2414V10.7586L16.3447 11.3793H7.65509L7.03442 10.7586V13.2414L7.65509 12.6207H16.3447L16.9654 13.2414Z" fill="#FFE15A"/>
<path d="M10.7585 16.9655H13.2413L12.6206 16.3448V7.6552L13.2413 7.03448H10.7585L11.3792 7.6552V16.3448L10.7585 16.9655Z" fill="#FFE15A"/>
</svg>
