<svg width="24" height="24" viewBox="0 0 24 24" fill="none" xmlns="http://www.w3.org/2000/svg">
<path d="M24 9.37935H0V4.55175C0 4.32324 0.185297 4.13794 0.413812 4.13794H23.5862C23.8147 4.13794 24 4.32324 24 4.55175L24 9.37935Z" fill="#F5F5F5"/>
<path d="M23.5861 19.8621H0.413812C0.185297 19.8621 0 19.6768 0 19.4483V14.6207H24V19.4483C24 19.6768 23.8147 19.8621 23.5861 19.8621Z" fill="#FF4B55"/>
<path d="M24 9.37927H0V14.6204H24V9.37927Z" fill="#41479B"/>
<path d="M6.10423 15.904C5.98175 15.8336 3.10339 14.1595 3.10339 11.5862V8.06897H9.31029V11.5862C9.31029 14.1595 6.43193 15.8336 6.30945 15.904L6.20684 15.9625L6.10423 15.904Z" fill="#FF4B55"/>
<path d="M7.83254 10.9656L6.85712 11.0941H6.53205V10.512H6.72709L7.50737 10.6404L7.40172 10.1868L7.50737 9.73323L6.72709 9.86166H6.53205V9.66507L6.66048 8.6897L6.20692 8.82184L5.75336 8.6897L5.8818 9.66507V9.86166H5.68666L4.90642 9.73323L5.01208 10.1868L4.90642 10.6404L5.68666 10.512H5.8818V11.0941H5.55667L4.5813 10.9656L4.71339 11.4191L4.5813 11.8727L5.55667 11.7443H5.8818V13.2414H6.53205V11.7443H6.85712L7.83254 11.8727L7.70045 11.4191L7.83254 10.9656Z" fill="#F5F5F5"/>
<path d="M6.20684 12.6207C5.77943 12.6207 5.41287 12.88 5.25518 13.2497C5.22734 13.2474 5.20072 13.2413 5.17236 13.2413C4.62153 13.2413 4.17551 13.6731 4.14392 14.2159C4.98181 15.2473 6.03129 15.862 6.10423 15.9039L6.20684 15.9625L6.30945 15.9039C6.38239 15.862 7.43187 15.2474 8.26976 14.2159C8.23816 13.6731 7.79215 13.2413 7.24132 13.2413C7.21296 13.2413 7.18634 13.2474 7.15849 13.2497C7.00081 12.88 6.63424 12.6207 6.20684 12.6207Z" fill="#41479B"/>
<path d="M9.10338 8.27593C9.10338 8.27593 9.10338 10.7587 9.10338 11.5863C9.10338 14.0691 6.20684 15.7242 6.20684 15.7242C6.20684 15.7242 3.3103 14.0691 3.3103 11.5863C3.3103 10.7587 3.3103 8.27593 3.3103 8.27593H9.10338ZM9.51714 7.86212H9.10333H3.3103H2.89648V8.27593V11.5863C2.89648 14.2782 5.87478 16.011 6.00153 16.0835L6.20684 16.2008L6.41215 16.0835C6.53895 16.011 9.51719 14.2782 9.51719 11.5863V8.27593V7.86212H9.51714Z" fill="#F5F5F5"/>
</svg>
