<svg width="24" height="24" viewBox="0 0 24 24" fill="none" xmlns="http://www.w3.org/2000/svg">
<path d="M0 14.6207H24V19.4482C24 19.6767 23.8147 19.862 23.5861 19.862H0.413812C0.185297 19.862 0 19.6767 0 19.4482V14.6207Z" fill="#73AF00"/>
<path d="M0.413812 4.13794H23.5862C23.8147 4.13794 24 4.32324 24 4.55175V9.3793H0V4.5517C0 4.32319 0.185297 4.13794 0.413812 4.13794Z" fill="#464655"/>
<path d="M24 9.37921H0V14.6203H24V9.37921Z" fill="#FF4B55"/>
<path d="M15.2149 8.88506C14.5691 7.77942 13.3729 7.03448 12 7.03448C10.6272 7.03448 9.431 7.77942 8.78516 8.88506H15.2149Z" fill="#FF4B55"/>
<path d="M12.2137 5.27588C12.2137 5.46156 11.9999 6.62073 11.9999 6.62073C11.9999 6.62073 11.7861 5.4616 11.7861 5.27588C11.7861 5.09021 11.8819 4.9397 11.9999 4.9397C12.118 4.9397 12.2137 5.09017 12.2137 5.27588Z" fill="#FF4B55"/>
<path d="M16.0189 7.02907C15.8876 7.16037 14.9169 7.82886 14.9169 7.82886C14.9169 7.82886 15.5854 6.85803 15.7166 6.72678C15.8479 6.59548 16.0221 6.55672 16.1056 6.64025C16.189 6.72364 16.1502 6.89783 16.0189 7.02907Z" fill="#FF4B55"/>
<path d="M8.28335 6.72678C8.41464 6.85807 9.08313 7.82885 9.08313 7.82885C9.08313 7.82885 8.1123 7.16037 7.98105 7.02907C7.84975 6.89777 7.81099 6.72363 7.89452 6.64015C7.97791 6.55667 8.15205 6.59543 8.28335 6.72678Z" fill="#FF4B55"/>
<path d="M10.1043 5.61042C10.1753 5.78198 10.4214 6.93473 10.4214 6.93473C10.4214 6.93473 9.78025 5.94562 9.70924 5.7741C9.63822 5.60259 9.66902 5.4269 9.77809 5.38167C9.88713 5.33643 10.0331 5.43885 10.1043 5.61042Z" fill="#FF4B55"/>
<path d="M14.2906 5.77407C14.2196 5.94563 13.5785 6.93469 13.5785 6.93469C13.5785 6.93469 13.8245 5.78199 13.8956 5.61038C13.9667 5.43882 14.1127 5.3364 14.2218 5.38159C14.3308 5.42677 14.3617 5.60251 14.2906 5.77407Z" fill="#FF4B55"/>
<path d="M11.1222 5.34252C11.1591 5.52449 11.18 6.70302 11.18 6.70302C11.18 6.70302 10.74 5.60952 10.7031 5.4275C10.6662 5.24553 10.7301 5.07899 10.8458 5.0555C10.9616 5.03202 11.0853 5.1605 11.1222 5.34252Z" fill="#FF4B55"/>
<path d="M15.1999 6.30444C15.0974 6.45922 14.2788 7.30733 14.2788 7.30733C14.2788 7.30733 14.7409 6.22302 14.8435 6.06824C14.9461 5.91346 15.109 5.84085 15.2074 5.9061C15.3059 5.97135 15.3025 6.14966 15.1999 6.30444Z" fill="#FF4B55"/>
<path d="M7.55865 7.54571C7.71344 7.64828 8.56154 8.46685 8.56154 8.46685C8.56154 8.46685 7.47723 8.00471 7.32245 7.90215C7.16767 7.79959 7.09506 7.63665 7.16031 7.53821C7.22556 7.43982 7.40392 7.44315 7.55865 7.54571Z" fill="#FF4B55"/>
<path d="M9.12129 6.08965C9.22507 6.24364 9.69532 7.32448 9.69532 7.32448C9.69532 7.32448 8.87042 6.48256 8.76668 6.32858C8.6629 6.17459 8.65821 5.99623 8.75618 5.93028C8.85406 5.86433 9.01756 5.93567 9.12129 6.08965Z" fill="#FF4B55"/>
<path d="M16.656 7.86702C16.502 7.9708 15.4211 8.44105 15.4211 8.44105C15.4211 8.44105 16.2631 7.61614 16.417 7.51241C16.571 7.40863 16.7494 7.40394 16.8153 7.50191C16.8813 7.59983 16.81 7.76333 16.656 7.86702Z" fill="#FF4B55"/>
<path d="M13.2568 5.41791C13.2212 5.60012 12.7896 6.69694 12.7896 6.69694C12.7896 6.69694 12.8016 5.51832 12.8371 5.33607C12.8727 5.15387 12.9954 5.0244 13.1113 5.04699C13.2272 5.06959 13.2923 5.23567 13.2568 5.41791Z" fill="#FF4B55"/>
<path d="M13.3842 5.4496C13.3302 5.62726 13.1981 6.79857 13.1981 6.79857C13.1981 6.79857 13.7393 5.75152 13.7933 5.57377C13.8472 5.39612 13.7993 5.22427 13.6864 5.18996C13.5734 5.15565 13.4381 5.27195 13.3842 5.4496Z" fill="#FF4B55"/>
<path d="M9.2339 6.02201C9.32141 6.1858 10.0562 7.1074 10.0562 7.1074C10.0562 7.1074 9.69857 5.98428 9.61105 5.8205C9.52354 5.65672 9.3682 5.56906 9.26404 5.6247C9.15984 5.68039 9.14638 5.85819 9.2339 6.02201Z" fill="#FF4B55"/>
<path d="M16.7236 7.97955C16.5598 8.06707 15.6382 8.80188 15.6382 8.80188C15.6382 8.80188 16.7613 8.44422 16.9251 8.35671C17.0888 8.26919 17.1765 8.11385 17.1209 8.00969C17.0653 7.90553 16.8874 7.89203 16.7236 7.97955Z" fill="#FF4B55"/>
<path d="M15.3055 6.38244C15.1877 6.52597 14.6174 7.5575 14.6174 7.5575C14.6174 7.5575 15.5182 6.79728 15.636 6.6537C15.7539 6.51017 15.7754 6.33313 15.6841 6.25817C15.5929 6.18327 15.4234 6.23891 15.3055 6.38244Z" fill="#FF4B55"/>
<path d="M7.63672 7.44013C7.78025 7.55798 8.81178 8.12821 8.81178 8.12821C8.81178 8.12821 8.05156 7.22741 7.90799 7.10962C7.76441 6.99182 7.58741 6.97026 7.51246 7.06152C7.43755 7.15283 7.49314 7.32234 7.63672 7.44013Z" fill="#FF4B55"/>
<path d="M11.2521 5.32302C11.2702 5.50785 11.5964 6.64049 11.5964 6.64049C11.5964 6.64049 11.6958 5.46599 11.6776 5.28117C11.6595 5.09634 11.5494 4.95595 11.432 4.96753C11.3145 4.97906 11.2339 5.1382 11.2521 5.32302Z" fill="#FF4B55"/>
<path d="M12.3309 5.28171C12.3125 5.46649 12.41 6.64113 12.41 6.64113C12.41 6.64113 12.7379 5.509 12.7564 5.32422C12.7748 5.13944 12.6945 4.98016 12.577 4.9684C12.4596 4.95668 12.3494 5.09697 12.3309 5.28171Z" fill="#FF4B55"/>
<path d="M8.37044 6.64807C8.48805 6.79174 9.38758 7.55341 9.38758 7.55341C9.38758 7.55341 8.81894 6.52094 8.70138 6.37727C8.58377 6.2336 8.41436 6.17772 8.323 6.25244C8.2316 6.32721 8.25283 6.50435 8.37044 6.64807Z" fill="#FF4B55"/>
<path d="M16.0976 7.11609C15.9539 7.2337 15.1923 8.13323 15.1923 8.13323C15.1923 8.13323 16.2247 7.56459 16.3684 7.44702C16.5121 7.32946 16.5679 7.16001 16.4932 7.06865C16.4185 6.97729 16.2414 6.99848 16.0976 7.11609Z" fill="#FF4B55"/>
<path d="M14.3966 5.82431C14.3089 5.98795 13.9495 7.11047 13.9495 7.11047C13.9495 7.11047 14.6857 6.18999 14.7735 6.02639C14.8613 5.86275 14.848 5.68486 14.744 5.62903C14.6399 5.57321 14.4844 5.66063 14.3966 5.82431Z" fill="#FF4B55"/>
<path d="M7.07856 8.34896C7.2422 8.43676 8.36472 8.79615 8.36472 8.79615C8.36472 8.79615 7.44424 8.05993 7.28064 7.97214C7.117 7.88434 6.93911 7.89761 6.88328 8.00167C6.8275 8.10568 6.91492 8.26117 7.07856 8.34896Z" fill="#FF4B55"/>
<path d="M10.2148 5.57097C10.2684 5.74877 10.8081 6.79666 10.8081 6.79666C10.8081 6.79666 10.6779 5.62516 10.6242 5.44746C10.5705 5.26966 10.4354 5.15327 10.3223 5.1874C10.2093 5.22148 10.1611 5.39322 10.2148 5.57097Z" fill="#FF4B55"/>
</svg>
