<svg width="24" height="24" viewBox="0 0 24 24" fill="none" xmlns="http://www.w3.org/2000/svg">
<path d="M23.5861 19.8621H0.413812C0.185297 19.8621 0 19.6768 0 19.4483V4.55174C0 4.32322 0.185297 4.13792 0.413812 4.13792H23.5862C23.8147 4.13792 24 4.32322 24 4.55174V19.4483C24 19.6768 23.8147 19.8621 23.5861 19.8621Z" fill="#73AF00"/>
<path d="M11.7848 6.33792L3.06341 11.6465C2.79852 11.8077 2.79852 12.1922 3.06341 12.3535L11.7848 17.6621C11.9169 17.7426 12.0829 17.7426 12.2151 17.6621L20.9365 12.3535C21.2014 12.1923 21.2014 11.8078 20.9365 11.6466L12.2151 6.33792C12.0829 6.25748 11.9169 6.25748 11.7848 6.33792Z" fill="#FFE15A"/>
<path d="M12 15.3103C13.8282 15.3103 15.3103 13.8283 15.3103 12C15.3103 10.1718 13.8282 8.68971 12 8.68971C10.1718 8.68971 8.6897 10.1718 8.6897 12C8.6897 13.8283 10.1718 15.3103 12 15.3103Z" fill="#41479B"/>
<path d="M9.15946 10.3066C9.00327 10.568 8.88267 10.8522 8.80298 11.1539C10.6381 11.0158 13.3528 11.5292 15.0806 13.2058C15.1933 12.9179 15.2678 12.6113 15.2957 12.2907C13.5116 10.7892 11.0451 10.2552 9.15946 10.3066Z" fill="#F5F5F5"/>
<path d="M12.1372 13.1297L12.2253 13.3939L12.5039 13.3961C12.5399 13.3964 12.5549 13.4424 12.5259 13.4638L12.3018 13.6294L12.3859 13.8949C12.3967 13.9294 12.3575 13.9578 12.3283 13.9368L12.1016 13.7748L11.875 13.9368C11.8456 13.9578 11.8065 13.9294 11.8174 13.8949L11.9014 13.6294L11.6773 13.4638C11.6483 13.4424 11.6632 13.3964 11.6993 13.3961L11.9779 13.3939L12.066 13.1297C12.0774 13.0954 12.1258 13.0954 12.1372 13.1297Z" fill="#F5F5F5"/>
<path d="M13.2199 13.8133L13.2578 13.9271L13.3777 13.928C13.3932 13.9281 13.3997 13.9479 13.3872 13.9571L13.2907 14.0284L13.3269 14.1427C13.3315 14.1575 13.3147 14.1697 13.3021 14.1607L13.2045 14.091L13.107 14.1607C13.0944 14.1697 13.0775 14.1575 13.0822 14.1427L13.1183 14.0284L13.0218 13.9571C13.0094 13.948 13.0158 13.9281 13.0313 13.928L13.1512 13.9271L13.1891 13.8133C13.1941 13.7986 13.215 13.7986 13.2199 13.8133Z" fill="#F5F5F5"/>
<path d="M11.669 12.6276L11.7069 12.7413L11.8268 12.7423C11.8423 12.7424 11.8488 12.7622 11.8363 12.7714L11.7398 12.8426L11.776 12.957C11.7806 12.9718 11.7638 12.984 11.7512 12.975L11.6536 12.9053L11.5561 12.975C11.5435 12.984 11.5266 12.9718 11.5313 12.957L11.5674 12.8426L11.4709 12.7714C11.4585 12.7623 11.4649 12.7424 11.4804 12.7423L11.6003 12.7413L11.6382 12.6276C11.6432 12.6129 11.6641 12.6129 11.669 12.6276Z" fill="#F5F5F5"/>
<path d="M9.56864 12.4897L9.60656 12.6034L9.72647 12.6044C9.74198 12.6045 9.74845 12.6243 9.73594 12.6335L9.63947 12.7047L9.67561 12.8191C9.6803 12.8339 9.66347 12.8461 9.65081 12.8371L9.55326 12.7674L9.45572 12.8371C9.44311 12.8461 9.42623 12.8339 9.43092 12.8191L9.46706 12.7047L9.37059 12.6335C9.35812 12.6243 9.36455 12.6045 9.38006 12.6044L9.49997 12.6034L9.53789 12.4897C9.54291 12.475 9.56372 12.475 9.56864 12.4897Z" fill="#F5F5F5"/>
<path d="M11.3257 13.7741L11.3636 13.8878L11.4835 13.8887C11.4991 13.8888 11.5055 13.9086 11.493 13.9179L11.3965 13.9891L11.4327 14.1034C11.4374 14.1182 11.4205 14.1304 11.4079 14.1214L11.3103 14.0517L11.2128 14.1214C11.2002 14.1304 11.1833 14.1182 11.188 14.1034L11.2241 13.9891L11.1277 13.9179C11.1152 13.9087 11.1216 13.8888 11.1371 13.8887L11.257 13.8878L11.295 13.7741C11.3 13.7594 11.3208 13.7594 11.3257 13.7741Z" fill="#F5F5F5"/>
<path d="M10.3589 12.4104L10.39 12.5034L10.488 12.5042C10.5007 12.5043 10.506 12.5205 10.4958 12.528L10.4169 12.5862L10.4465 12.6797C10.4503 12.6918 10.4366 12.7018 10.4262 12.6944L10.3464 12.6374L10.2666 12.6944C10.2563 12.7018 10.2425 12.6918 10.2463 12.6797L10.2759 12.5862L10.197 12.528C10.1869 12.5205 10.1921 12.5043 10.2048 12.5042L10.3029 12.5034L10.3339 12.4104C10.3379 12.3983 10.3549 12.3983 10.3589 12.4104Z" fill="#F5F5F5"/>
<path d="M13.3041 10.4903L13.3429 10.6067L13.4655 10.6076C13.4814 10.6077 13.488 10.628 13.4752 10.6374L13.3766 10.7103L13.4136 10.8272C13.4184 10.8424 13.4011 10.8549 13.3882 10.8456L13.2884 10.7743L13.1886 10.8456C13.1757 10.8549 13.1585 10.8423 13.1632 10.8272L13.2002 10.7103L13.1016 10.6374C13.0888 10.628 13.0954 10.6077 13.1113 10.6076L13.2339 10.6067L13.2727 10.4903C13.2778 10.4752 13.2991 10.4752 13.3041 10.4903Z" fill="#F5F5F5"/>
<path d="M9.70378 11.8414L9.73481 11.9344L9.83287 11.9352C9.84553 11.9353 9.85083 11.9515 9.84065 11.9591L9.76176 12.0173L9.79134 12.1107C9.79519 12.1228 9.7814 12.1329 9.77104 12.1255L9.69126 12.0685L9.61148 12.1255C9.60112 12.1329 9.58739 12.1228 9.59119 12.1107L9.62076 12.0173L9.54187 11.9591C9.5317 11.9515 9.5369 11.9353 9.54965 11.9352L9.64772 11.9344L9.67875 11.8414C9.68273 11.8294 9.69975 11.8294 9.70378 11.8414Z" fill="#F5F5F5"/>
<path d="M10.1771 13.1522L10.2241 13.2931L10.3726 13.2942C10.3918 13.2944 10.3998 13.3189 10.3843 13.3303L10.2648 13.4185L10.3096 13.5601C10.3154 13.5784 10.2946 13.5936 10.2789 13.5824L10.1581 13.4961L10.0372 13.5824C10.0216 13.5936 10.0007 13.5784 10.0065 13.5601L10.0514 13.4185L9.93187 13.3303C9.9164 13.3189 9.92437 13.2944 9.94359 13.2942L10.0921 13.2931L10.1391 13.1522C10.1453 13.134 10.1711 13.134 10.1771 13.1522Z" fill="#F5F5F5"/>
<path d="M13.8236 13.8429L13.8531 13.9315L13.9466 13.9322C13.9587 13.9323 13.9637 13.9477 13.954 13.9549L13.8788 14.0104L13.907 14.0995C13.9107 14.111 13.8975 14.1205 13.8876 14.1135L13.8117 14.0591L13.7356 14.1135C13.7258 14.1205 13.7127 14.111 13.7163 14.0995L13.7444 14.0104L13.6693 13.9549C13.6596 13.9477 13.6646 13.9323 13.6767 13.9322L13.7701 13.9315L13.7997 13.8429C13.8035 13.8314 13.8198 13.8314 13.8236 13.8429Z" fill="#F5F5F5"/>
<path d="M14.1505 13.1665L14.1885 13.2802L14.3084 13.2811C14.3239 13.2812 14.3304 13.301 14.3178 13.3103L14.2214 13.3815L14.2575 13.4958C14.2622 13.5106 14.2454 13.5228 14.2327 13.5138L14.1352 13.4441L14.0376 13.5138C14.025 13.5228 14.0081 13.5106 14.0128 13.4958L14.049 13.3815L13.9525 13.3103C13.94 13.3011 13.9465 13.2813 13.962 13.2811L14.0819 13.2802L14.1198 13.1665C14.1248 13.1517 14.1456 13.1517 14.1505 13.1665Z" fill="#F5F5F5"/>
</svg>
