<svg width="24" height="24" viewBox="0 0 24 24" fill="none" xmlns="http://www.w3.org/2000/svg">
<path d="M23.5861 19.8621H0.413812C0.185297 19.8621 0 19.6768 0 19.4483V4.55175C0 4.32324 0.185297 4.13794 0.413812 4.13794H23.5862C23.8147 4.13794 24 4.32324 24 4.55175V19.4483C24 19.6768 23.8147 19.8621 23.5861 19.8621Z" fill="#F5F5F5"/>
<path d="M9.79049 15.1006C8.83518 14.8825 7.98351 14.3893 7.32458 13.7078V15.1654C8.0436 15.6899 8.88252 16.0574 9.79049 16.2254V15.1006Z" fill="#FFECD7"/>
<path d="M14.207 15.1006C15.1623 14.8825 16.014 14.3893 16.6729 13.7078V15.1654C15.9539 15.6899 15.115 16.0574 14.207 16.2254V15.1006Z" fill="#FFECD7"/>
<path d="M9.36731 11.9412C9.32133 11.9503 9.25687 12.07 9.2385 12.2724C9.22008 12.4748 9.09131 13.3305 8.81522 13.2385C8.53917 13.1465 8.35519 12.7416 8.35519 12.7416L7.96875 13.3029C7.96875 13.3029 8.22637 13.2017 8.49323 13.3213C8.76009 13.4409 8.82445 13.5053 8.89809 13.4317C8.97169 13.3581 9.14653 13.1373 9.28453 13.1557L9.44095 12.0423L9.36731 11.9412Z" fill="#FFE15A"/>
<path d="M7.83993 13.7722C7.83993 13.7722 7.77553 14.3059 7.81232 14.3703C7.84917 14.4347 8.86124 14.6739 8.86124 14.6739C8.86124 14.6739 8.56682 14.9131 8.55763 15.042C8.55763 15.042 8.19876 15.1064 8.06999 15.2168L7.59154 14.4255L7.57312 13.7722H7.83993Z" fill="#FFE15A"/>
<path d="M7.52011 8.91858L7.527 8.64254C7.527 8.64254 7.20262 8.60804 7.16128 9.33952L7.04395 9.01514C7.04395 9.01514 6.80241 9.33952 6.94734 9.86395L6.88523 9.91228C6.88523 9.91228 6.5678 9.49135 6.37458 8.94619C6.37458 8.94619 6.0502 9.20152 6.42975 9.92611L5.96053 9.33263C5.96053 9.33263 5.72592 9.8295 6.42975 10.423L5.76727 9.95377C5.76727 9.95377 5.72588 10.4921 6.36764 10.8371L5.72583 10.492C5.72583 10.492 5.7465 11.0096 6.49181 11.265L5.78789 11.1338C5.78789 11.1338 5.96611 11.557 6.48661 11.6712C6.3773 11.7932 6.27633 11.9572 6.25022 12.169L6.7747 11.8791C6.7747 11.8791 6.52627 12.1344 6.59527 12.4864L7.40269 11.679L7.29234 11.6296C7.90317 11.5151 7.77534 11.472 7.77534 11.472C7.77534 11.472 7.32445 10.3126 7.62815 9.51211C7.93176 8.71163 8.19862 8.60119 8.19862 8.56439C8.19867 8.5275 7.87204 8.48382 7.52011 8.91858Z" fill="#FFECD7"/>
<path d="M8.14349 9.38324C8.14349 9.38324 9.19241 10.4874 9.21083 10.5886C9.22926 10.6898 9.1004 10.6715 9.1004 10.6715C9.1004 10.6715 8.84277 10.3402 8.49309 10.2114C8.14345 10.0826 7.91343 9.67775 7.77543 9.58579C7.63743 9.49368 8.14349 9.38324 8.14349 9.38324Z" fill="#FFE15A"/>
<path d="M7.79394 9.65007C7.93194 9.69605 8.24483 9.63164 8.2356 9.34646C8.22641 9.06118 7.94118 8.95083 7.72954 9.01524C7.51794 9.07964 7.12223 9.37411 7.37066 9.94458C7.6191 10.515 7.98716 10.7267 8.06076 11.2144C8.06076 11.2144 7.72954 11.265 7.55469 11.2236C7.40441 11.188 7.14984 11.0671 7.20505 10.7359C7.26023 10.4047 7.38908 10.2114 7.27865 10.0274C7.16821 9.84338 6.81862 9.52135 6.81862 9.52135C6.81862 9.52135 6.06412 11.4536 7.42593 11.9597C7.42593 11.9597 6.78187 12.5762 6.45984 13.1742L6.65306 13.2294C6.65306 13.2294 6.3126 13.5974 6.11938 13.7354C6.11938 13.7354 6.75426 13.9563 7.37994 13.2386C7.37994 13.2386 7.53637 13.4962 7.57316 13.7722H7.84002C7.84002 13.7722 7.93204 13.3306 8.35532 12.9626C8.7786 12.5945 9.20816 12.0697 9.16499 11.5916C9.11441 11.0303 8.69169 10.7778 8.25177 10.4299C7.65819 9.96061 7.79394 9.65007 7.79394 9.65007Z" fill="#FFF5E1"/>
<path d="M14.6327 11.9412C14.6787 11.9503 14.7431 12.07 14.7615 12.2724C14.7799 12.4748 14.9087 13.3305 15.1848 13.2385C15.4608 13.1465 15.6448 12.7416 15.6448 12.7416L16.0313 13.3029C16.0313 13.3029 15.7737 13.2017 15.5068 13.3213C15.2399 13.4409 15.1756 13.5053 15.1019 13.4317C15.0283 13.3581 14.8535 13.1373 14.7155 13.1557L14.5591 12.0423L14.6327 11.9412Z" fill="#FFE15A"/>
<path d="M16.1601 13.7722C16.1601 13.7722 16.2245 14.3059 16.1877 14.3703C16.1509 14.4347 15.1388 14.6739 15.1388 14.6739C15.1388 14.6739 15.4332 14.9131 15.4424 15.042C15.4424 15.042 15.8013 15.1064 15.93 15.2168L16.4085 14.4255L16.4269 13.7722H16.1601Z" fill="#FFE15A"/>
<path d="M16.4798 8.91858L16.4729 8.64254C16.4729 8.64254 16.7973 8.60804 16.8386 9.33952L16.9559 9.01514C16.9559 9.01514 17.1975 9.33952 17.0525 9.86395L17.1147 9.91228C17.1147 9.91228 17.4321 9.49135 17.6253 8.94619C17.6253 8.94619 17.9497 9.20152 17.5701 9.92611L18.0394 9.33263C18.0394 9.33263 18.274 9.8295 17.5701 10.423L18.2326 9.95377C18.2326 9.95377 18.2741 10.4921 17.6323 10.8371L18.2741 10.492C18.2741 10.492 18.2534 11.0096 17.5081 11.265L18.212 11.1338C18.212 11.1338 18.0338 11.557 17.5133 11.6712C17.6226 11.7932 17.7236 11.9572 17.7497 12.169L17.2252 11.8791C17.2252 11.8791 17.4736 12.1344 17.4046 12.4864L16.5972 11.679L16.7075 11.6296C16.0967 11.5151 16.2245 11.472 16.2245 11.472C16.2245 11.472 16.6754 10.3126 16.3717 9.51211C16.0681 8.71163 15.8013 8.60119 15.8013 8.56439C15.8012 8.5275 16.1278 8.48382 16.4798 8.91858Z" fill="#FFECD7"/>
<path d="M15.8564 9.38324C15.8564 9.38324 14.8075 10.4874 14.789 10.5886C14.7706 10.6898 14.8995 10.6715 14.8995 10.6715C14.8995 10.6715 15.1571 10.3402 15.5068 10.2114C15.8564 10.0826 16.0864 9.67775 16.2244 9.58579C16.3624 9.49382 15.8564 9.38324 15.8564 9.38324Z" fill="#FFE15A"/>
<path d="M16.2061 9.65007C16.0681 9.69605 15.7552 9.63164 15.7644 9.34646C15.7736 9.06118 16.0588 8.95083 16.2705 9.01524C16.4821 9.07964 16.8778 9.37411 16.6294 9.94458C16.3809 10.515 16.0129 10.7267 15.9393 11.2144C15.9393 11.2144 16.2705 11.265 16.4453 11.2236C16.5956 11.188 16.8502 11.0671 16.795 10.7359C16.7398 10.4047 16.6109 10.2114 16.7214 10.0274C16.8318 9.84338 17.1814 9.52135 17.1814 9.52135C17.1814 9.52135 17.9359 11.4536 16.5741 11.9597C16.5741 11.9597 17.2182 12.5762 17.5402 13.1742L17.347 13.2294C17.347 13.2294 17.6874 13.5974 17.8806 13.7354C17.8806 13.7354 17.2458 13.9563 16.6201 13.2386C16.6201 13.2386 16.4637 13.4962 16.4269 13.7722H16.16C16.16 13.7722 16.068 13.3306 15.6447 12.9626C15.2214 12.5945 14.7919 12.0697 14.835 11.5916C14.8856 11.0303 15.3083 10.7778 15.7483 10.4299C16.3418 9.96061 16.2061 9.65007 16.2061 9.65007Z" fill="#FFF5E1"/>
<path d="M14.6489 7.78271H9.34924V8.85006H14.6489V7.78271Z" fill="#464655"/>
<path d="M11.9988 8.62872H9.34888C9.34888 8.62872 9.34888 11.4995 9.34888 12.162C9.34888 12.8245 9.79053 14.5911 11.9988 15.2536C14.2071 14.5911 14.6487 12.8245 14.6487 12.162C14.6487 11.4995 14.6487 8.62872 14.6487 8.62872H11.9988Z" fill="#41479B"/>
<path d="M9.34888 12.162C9.34888 12.3262 9.3763 12.5584 9.45069 12.8245H14.547C14.6214 12.5584 14.6488 12.3262 14.6488 12.162V10.837H9.34888V12.162Z" fill="#FF4B55"/>
<path d="M11.9989 11.8308L11.6897 12.6036L11.9989 12.4491L12.308 12.6036L11.9989 11.8308Z" fill="#F5F5F5"/>
<path d="M11.9989 11.8308L12.308 11.0579L11.9989 11.2124L11.6897 11.0579L11.9989 11.8308Z" fill="#F5F5F5"/>
<path d="M11.9989 11.8308L11.226 11.5215L11.3805 11.8308L11.226 12.1399L11.9989 11.8308Z" fill="#F5F5F5"/>
<path d="M11.9989 11.8308L12.7717 12.1399L12.6172 11.8308L12.7717 11.5215L11.9989 11.8308Z" fill="#F5F5F5"/>
<path d="M12.346 9.40958C12.2944 9.41787 12.2491 9.42444 12.2081 9.44595C12.2546 9.32975 12.2874 9.22067 12.2586 9.14431C12.188 8.95751 12.0524 8.99094 12.0001 8.85476V8.84961C11.9997 8.85064 11.9992 8.8512 11.9988 8.85219C11.9984 8.85116 11.9978 8.85059 11.9975 8.84961V8.85476C11.9453 8.99094 11.8095 8.95756 11.739 9.14431C11.7101 9.22072 11.7429 9.3297 11.7894 9.44595C11.7485 9.42444 11.7031 9.41783 11.6515 9.40958C11.5463 9.3927 11.3863 9.5022 11.42 9.71272C11.4536 9.92323 11.6978 9.94011 11.6978 9.94011C11.6642 9.90645 11.6347 9.8517 11.6515 9.79273C11.6684 9.73376 11.7905 9.68328 11.8536 9.88114C11.9168 10.079 11.7021 10.3611 11.7021 10.3611C11.7756 10.3572 11.8292 10.3343 11.868 10.3111C11.817 10.4773 11.9838 10.6059 11.9974 10.616V10.618L11.9987 10.617C11.9989 10.6171 12 10.618 12 10.618V10.616C12.0137 10.6059 12.1804 10.4773 12.1295 10.3112C12.1682 10.3344 12.2219 10.3572 12.2954 10.3611C12.2954 10.3611 12.0807 10.079 12.1439 9.88114C12.207 9.68323 12.3292 9.73376 12.3459 9.79273C12.3628 9.8517 12.3333 9.9064 12.2996 9.94011C12.2996 9.94011 12.5438 9.92323 12.5775 9.71272C12.6113 9.50215 12.4513 9.3927 12.346 9.40958Z" fill="#FFE15A"/>
<path d="M13.971 9.40958C13.9194 9.41787 13.8741 9.42444 13.8331 9.44595C13.8796 9.32975 13.9124 9.22067 13.8836 9.14431C13.813 8.95751 13.6774 8.99094 13.6251 8.85476V8.84961C13.6247 8.85064 13.6242 8.8512 13.6238 8.85219C13.6234 8.85116 13.6228 8.85059 13.6225 8.84961V8.85476C13.5703 8.99094 13.4345 8.95756 13.364 9.14431C13.3351 9.22072 13.3679 9.3297 13.4144 9.44595C13.3735 9.42444 13.3281 9.41783 13.2765 9.40958C13.1713 9.3927 13.0113 9.5022 13.045 9.71272C13.0786 9.92323 13.3228 9.94011 13.3228 9.94011C13.2892 9.90645 13.2597 9.8517 13.2765 9.79273C13.2934 9.73376 13.4155 9.68328 13.4786 9.88114C13.5418 10.079 13.3271 10.3611 13.3271 10.3611C13.4006 10.3572 13.4542 10.3343 13.493 10.3111C13.4421 10.4773 13.6088 10.6059 13.6224 10.616V10.618L13.6237 10.617C13.6239 10.6171 13.625 10.618 13.625 10.618V10.616C13.6387 10.6059 13.8054 10.4773 13.7545 10.3112C13.7932 10.3344 13.8469 10.3572 13.9204 10.3611C13.9204 10.3611 13.7057 10.079 13.7689 9.88114C13.832 9.68323 13.9542 9.73376 13.9709 9.79273C13.9878 9.8517 13.9583 9.9064 13.9246 9.94011C13.9246 9.94011 14.1688 9.92323 14.2025 9.71272C14.2362 9.50215 14.0763 9.3927 13.971 9.40958Z" fill="#FFE15A"/>
<path d="M10.721 9.40958C10.6694 9.41787 10.6241 9.42444 10.5831 9.44595C10.6296 9.32975 10.6624 9.22067 10.6336 9.14431C10.563 8.95751 10.4274 8.99094 10.3751 8.85476V8.84961C10.3747 8.85064 10.3742 8.8512 10.3738 8.85219C10.3734 8.85116 10.3728 8.85059 10.3725 8.84961V8.85476C10.3203 8.99094 10.1845 8.95756 10.114 9.14431C10.0851 9.22072 10.1179 9.3297 10.1644 9.44595C10.1235 9.42444 10.0781 9.41783 10.0265 9.40958C9.92125 9.3927 9.76132 9.5022 9.79497 9.71272C9.82863 9.92323 10.0728 9.94011 10.0728 9.94011C10.0392 9.90645 10.0097 9.8517 10.0265 9.79273C10.0434 9.73376 10.1655 9.68328 10.2286 9.88114C10.2918 10.079 10.0771 10.3611 10.0771 10.3611C10.1506 10.3572 10.2042 10.3343 10.243 10.3111C10.192 10.4773 10.3588 10.6059 10.3724 10.616V10.618L10.3737 10.617C10.3739 10.6171 10.375 10.618 10.375 10.618V10.616C10.3887 10.6059 10.5554 10.4773 10.5045 10.3112C10.5432 10.3344 10.5969 10.3572 10.6704 10.3611C10.6704 10.3611 10.4557 10.079 10.5189 9.88114C10.582 9.68323 10.7042 9.73376 10.7209 9.79273C10.7378 9.8517 10.7083 9.9064 10.6746 9.94011C10.6746 9.94011 10.9188 9.92323 10.9525 9.71272C10.9863 9.50215 10.8263 9.3927 10.721 9.40958Z" fill="#FFE15A"/>
<path d="M12.5171 13.9595C12.5171 13.9595 12.399 13.941 12.3896 14.0599C12.3896 14.0599 12.3896 14.0735 12.389 14.0924C12.3744 14.0855 12.3585 14.081 12.3413 14.081C12.2789 14.081 12.2284 14.1316 12.2284 14.194C12.2284 14.2564 12.2789 14.307 12.3413 14.307C12.3463 14.307 12.3505 14.3048 12.3553 14.3041C12.3385 14.358 12.3117 14.407 12.2742 14.4424H12.1234C12.0837 14.3985 12.0717 14.3126 12.069 14.2503C12.0715 14.2504 12.0733 14.2522 12.0758 14.2522C12.127 14.2522 12.1685 14.2107 12.1685 14.1595C12.1685 14.1089 12.1279 14.0682 12.0776 14.0672C12.0856 14.0535 12.0914 14.0383 12.0914 14.0213C12.0914 13.9701 12.05 13.9286 11.9988 13.9286C11.9476 13.9286 11.9061 13.9702 11.9061 14.0213C11.9061 14.0383 11.912 14.0534 11.92 14.0672C11.8696 14.0682 11.829 14.109 11.829 14.1595C11.829 14.2107 11.8706 14.2522 11.9217 14.2522C11.9242 14.2522 11.9261 14.2505 11.9285 14.2503C11.926 14.3126 11.9139 14.3985 11.8742 14.4424H11.7233C11.6858 14.407 11.659 14.3579 11.6422 14.3041C11.6471 14.3047 11.6512 14.307 11.6562 14.307C11.7186 14.307 11.7692 14.2564 11.7692 14.194C11.7692 14.1316 11.7186 14.081 11.6562 14.081C11.639 14.081 11.6231 14.0855 11.6085 14.0924C11.608 14.0735 11.608 14.0599 11.608 14.0599C11.5985 13.941 11.4805 13.9595 11.4805 13.9595C11.5539 14.1836 11.5346 14.4425 11.5346 14.4425V14.6703H12.4617V14.443L12.463 14.4425C12.463 14.4425 12.4437 14.1835 12.5171 13.9595Z" fill="#FFE15A"/>
<path d="M11.4337 13.0761C11.4337 13.0761 11.3156 13.0576 11.3062 13.1766C11.3062 13.1766 11.3062 13.1902 11.3056 13.2091C11.291 13.2022 11.2752 13.1976 11.258 13.1976C11.1956 13.1976 11.145 13.2482 11.145 13.3106C11.145 13.373 11.1956 13.4236 11.258 13.4236C11.2629 13.4236 11.2671 13.4214 11.2719 13.4208C11.2551 13.4746 11.2284 13.5236 11.1908 13.5591H11.04C11.0003 13.5152 10.9883 13.4292 10.9857 13.3669C10.9881 13.3671 10.99 13.3688 10.9925 13.3688C11.0436 13.3688 11.0851 13.3273 11.0851 13.2761C11.0851 13.2256 11.0445 13.1848 10.9942 13.1838C11.0022 13.1701 11.0081 13.155 11.0081 13.138C11.0081 13.0868 10.9666 13.0453 10.9154 13.0453C10.8642 13.0453 10.8227 13.0868 10.8227 13.138C10.8227 13.155 10.8286 13.1701 10.8366 13.1838C10.7863 13.1848 10.7457 13.2256 10.7457 13.2761C10.7457 13.3273 10.7872 13.3688 10.8383 13.3688C10.8408 13.3688 10.8427 13.3672 10.8451 13.3669C10.8426 13.4292 10.8305 13.5152 10.7908 13.5591H10.64C10.6024 13.5236 10.5756 13.4746 10.5589 13.4208C10.5637 13.4214 10.5679 13.4236 10.5728 13.4236C10.6352 13.4236 10.6858 13.373 10.6858 13.3106C10.6858 13.2482 10.6352 13.1976 10.5728 13.1976C10.5556 13.1976 10.5397 13.2021 10.5252 13.2091C10.5246 13.1902 10.5246 13.1766 10.5246 13.1766C10.5152 13.0576 10.3971 13.0761 10.3971 13.0761C10.4705 13.3002 10.4512 13.5591 10.4512 13.5591V13.7869H11.3783V13.5596L11.3796 13.5591C11.3796 13.5591 11.3603 13.3002 11.4337 13.0761Z" fill="#FFE15A"/>
<path d="M13.6006 13.0761C13.6006 13.0761 13.4825 13.0576 13.4731 13.1766C13.4731 13.1766 13.4731 13.1902 13.4725 13.2091C13.4579 13.2022 13.442 13.1976 13.4248 13.1976C13.3624 13.1976 13.3118 13.2482 13.3118 13.3106C13.3118 13.373 13.3624 13.4236 13.4248 13.4236C13.4298 13.4236 13.434 13.4214 13.4388 13.4208C13.422 13.4746 13.3952 13.5236 13.3577 13.5591H13.2069C13.1672 13.5152 13.1552 13.4292 13.1525 13.3669C13.155 13.3671 13.1568 13.3688 13.1593 13.3688C13.2105 13.3688 13.252 13.3273 13.252 13.2761C13.252 13.2256 13.2114 13.1848 13.1611 13.1838C13.1691 13.1701 13.1749 13.155 13.1749 13.138C13.1749 13.0868 13.1334 13.0453 13.0823 13.0453C13.0311 13.0453 12.9896 13.0868 12.9896 13.138C12.9896 13.155 12.9954 13.1701 13.0035 13.1838C12.9531 13.1848 12.9125 13.2256 12.9125 13.2761C12.9125 13.3273 12.9541 13.3688 13.0052 13.3688C13.0077 13.3688 13.0096 13.3672 13.012 13.3669C13.0095 13.4292 12.9974 13.5152 12.9577 13.5591H12.8068C12.7693 13.5236 12.7425 13.4746 12.7257 13.4208C12.7306 13.4214 12.7347 13.4236 12.7397 13.4236C12.8021 13.4236 12.8527 13.373 12.8527 13.3106C12.8527 13.2482 12.8021 13.1976 12.7397 13.1976C12.7225 13.1976 12.7066 13.2021 12.692 13.2091C12.6915 13.1902 12.6915 13.1766 12.6915 13.1766C12.682 13.0576 12.564 13.0761 12.564 13.0761C12.6374 13.3002 12.6181 13.5591 12.6181 13.5591V13.7869H13.5451V13.5596L13.5465 13.5591C13.5465 13.5591 13.5271 13.3002 13.6006 13.0761Z" fill="#FFE15A"/>
<path d="M15.4283 7.27463C15.3012 7.22415 15.1733 7.17662 15.0446 7.13199C15.0086 7.23634 14.9727 7.34063 14.9367 7.44502C14.8746 7.42355 14.8124 7.4026 14.75 7.38249C14.7837 7.27735 14.8174 7.17231 14.8511 7.06712C14.7218 7.0254 14.5917 6.98654 14.461 6.95068C14.4319 7.05718 14.4029 7.16363 14.3738 7.27013C14.3108 7.25279 14.2476 7.2362 14.1843 7.22026C14.2111 7.11315 14.2378 7.00609 14.2646 6.89893C14.1334 6.86593 14.0016 6.83584 13.8694 6.80865C13.8253 7.02498 13.781 7.24131 13.7368 7.45763C13.8187 7.47451 13.9004 7.49251 13.9819 7.51173C13.9651 7.58335 13.9483 7.65502 13.9315 7.7267C13.455 7.6142 12.971 7.54384 12.4852 7.51576C12.4894 7.44226 12.4937 7.3688 12.4978 7.29526C12.5809 7.30009 12.664 7.30613 12.7469 7.31331C12.7659 7.09332 12.7849 6.87334 12.8039 6.65331C12.67 6.64168 12.5359 6.63292 12.4016 6.6271C12.3969 6.73745 12.3921 6.8477 12.3873 6.95804C12.3227 6.95523 12.2579 6.95312 12.1931 6.95171C12.1955 6.84132 12.1979 6.73088 12.2003 6.62059C12.066 6.61768 11.9317 6.61768 11.7974 6.62059C11.7998 6.73098 11.8022 6.84137 11.8045 6.95171C11.7397 6.95312 11.675 6.95523 11.6103 6.95804C11.6055 6.8477 11.6008 6.73745 11.596 6.6271C11.4618 6.63292 11.3277 6.64163 11.1937 6.65331C11.2128 6.87329 11.2318 7.09332 11.2508 7.31331C11.3337 7.30613 11.4168 7.30009 11.4998 7.29526C11.504 7.36876 11.5083 7.44226 11.5125 7.51576C11.0266 7.54388 10.5427 7.6142 10.0661 7.7267C10.0493 7.65507 10.0325 7.5834 10.0157 7.51173C10.0972 7.49241 10.1789 7.47441 10.2608 7.45763C10.2166 7.24131 10.1724 7.02498 10.1282 6.80865C9.99602 6.83579 9.86421 6.86593 9.73301 6.89893C9.75982 7.00604 9.78654 7.11315 9.81335 7.22026C9.75002 7.2362 9.68688 7.25279 9.62388 7.27013C9.59482 7.16363 9.56571 7.05713 9.5366 6.95068C9.40596 6.98663 9.27588 7.0254 9.14651 7.06712C9.18021 7.17226 9.21391 7.27731 9.24762 7.38249C9.18523 7.4026 9.12302 7.42351 9.06096 7.44502C9.02496 7.34068 8.98901 7.23638 8.95301 7.13199C8.82434 7.17666 8.69641 7.2242 8.56934 7.27463C8.65038 7.47995 8.73143 7.68526 8.81248 7.89062C8.89118 7.8594 8.9703 7.82926 9.04966 7.80048C9.14969 8.07732 9.24968 8.35407 9.34971 8.63091C9.56365 8.5531 9.78016 8.48508 9.99855 8.42682C10.0714 8.40741 10.1444 8.38894 10.2176 8.37174C10.6568 8.2681 11.1029 8.20323 11.5506 8.1773C11.8491 8.16001 12.1484 8.1601 12.4469 8.1773C12.8947 8.20318 13.3408 8.26801 13.78 8.37174C13.8532 8.38908 13.9262 8.40737 13.999 8.42682C14.2174 8.48518 14.4339 8.55319 14.6478 8.63091C14.7479 8.35402 14.8479 8.07732 14.9479 7.80048C15.0273 7.82935 15.1064 7.8594 15.1851 7.89062C15.2662 7.6853 15.3473 7.47995 15.4283 7.27463Z" fill="#FFE15A"/>
<path d="M11.9989 17.7931C13.3162 17.7931 14.5359 17.3701 15.5322 16.6547V15.2093C14.6308 16.122 13.38 16.6889 11.9989 16.6889C10.5987 16.6889 9.33282 16.1058 8.42883 15.1707V16.6284C9.43163 17.36 10.6653 17.7931 11.9989 17.7931Z" fill="#FFE1CD"/>
</svg>
