<svg width="24" height="24" viewBox="0 0 24 24" fill="none" xmlns="http://www.w3.org/2000/svg">
<path d="M23.5861 19.8621H0.413812C0.185297 19.8621 0 19.6768 0 19.4483V4.55175C0 4.32324 0.185297 4.13794 0.413812 4.13794H23.5862C23.8147 4.13794 24 4.32324 24 4.55175V19.4483C24 19.6768 23.8147 19.8621 23.5861 19.8621Z" fill="#FF4B55"/>
<path d="M16.5517 10.3449H13.6552V7.44836C13.6552 7.21984 13.4699 7.03455 13.2414 7.03455H10.7586C10.5301 7.03455 10.3448 7.21984 10.3448 7.44836V10.3449H7.44824C7.21972 10.3449 7.03442 10.5302 7.03442 10.7587V13.2415C7.03442 13.47 7.21972 13.6553 7.44824 13.6553H10.3448V16.5518C10.3448 16.7804 10.5301 16.9657 10.7586 16.9657H13.2414C13.4699 16.9657 13.6552 16.7804 13.6552 16.5518V13.6552H16.5517C16.7802 13.6552 16.9655 13.4699 16.9655 13.2414V10.7586C16.9655 10.5301 16.7802 10.3449 16.5517 10.3449Z" fill="#F5F5F5"/>
</svg>
