<svg width="24" height="24" viewBox="0 0 24 24" fill="none" xmlns="http://www.w3.org/2000/svg">
<path d="M0 6.38427H24V4.55174C24 4.32323 23.8147 4.13793 23.5861 4.13793H0.413812C0.185297 4.13793 0 4.32323 0 4.55174V6.38427Z" fill="#73AF00"/>
<path d="M24 6.38436H0V8.63075H24V6.38436Z" fill="#F5F5F5"/>
<path d="M24 8.63061H0V10.877H24V8.63061Z" fill="#73AF00"/>
<path d="M24 10.8769H0V13.1232H24V10.8769Z" fill="#F5F5F5"/>
<path d="M24 13.1236H0V15.37H24V13.1236Z" fill="#73AF00"/>
<path d="M24 15.3693H0V17.6157H24V15.3693Z" fill="#F5F5F5"/>
<path d="M0.413812 19.862H23.5862C23.8147 19.862 24 19.6767 24 19.4482V17.6157H0V19.4482C0 19.6768 0.185297 19.862 0.413812 19.862Z" fill="#73AF00"/>
<path d="M0.413812 10.8769H11.5862C11.8147 10.8769 12 10.6916 12 10.463V4.55174C12 4.32323 11.8147 4.13793 11.5862 4.13793H0.413812C0.185297 4.13793 0 4.32323 0 4.55174V10.463C0 10.6916 0.185297 10.8769 0.413812 10.8769Z" fill="#FF4B55"/>
<path d="M6.36322 10.3448H5.69605C5.63539 10.3448 5.58106 10.307 5.56002 10.2501L5.34519 9.6702C5.26133 9.4438 5.22369 9.20286 5.23447 8.96169L5.30928 7.28661C5.3112 7.2441 5.33848 7.20692 5.37847 7.19239C5.44709 7.16741 5.51975 7.21827 5.51975 7.29135V8.05414C5.51975 8.07547 5.53705 8.09277 5.55838 8.09277C5.57895 8.09277 5.59592 8.07664 5.59695 8.05606L5.65691 6.83975C5.65934 6.79035 5.69647 6.74966 5.74541 6.74267C5.80606 6.734 5.86091 6.7798 5.8632 6.84111L5.90459 7.97506C5.90544 7.99784 5.92559 8.015 5.94819 8.01214C5.96731 8.00975 5.9818 7.99367 5.98217 7.97436L6.00706 6.71432C6.00842 6.6455 6.07611 6.59774 6.14141 6.61949C6.18139 6.63285 6.20905 6.66932 6.21106 6.71141L6.27256 7.985C6.27322 7.99916 6.28151 8.01186 6.29417 8.01819C6.31976 8.03103 6.35005 8.01299 6.35089 7.9843L6.38173 6.99749C6.38408 6.92296 6.46212 6.87538 6.52944 6.90744C6.56342 6.92361 6.58592 6.95703 6.58812 6.99463L6.65994 8.20578L6.85208 8.76627C6.8629 8.79777 6.90711 8.79833 6.91854 8.76711C6.97297 8.61856 7.09648 8.34116 7.29467 8.219C7.32978 8.19739 7.37478 8.20016 7.40778 8.22491C7.45629 8.26133 7.46197 8.3315 7.42048 8.3757C7.32387 8.47855 7.18301 8.69469 7.19318 9.0747C7.1945 9.12308 7.18048 9.17061 7.15189 9.20966L6.61048 9.94925C6.5563 10.0233 6.52151 10.1098 6.50937 10.2008L6.50694 10.2189C6.49747 10.291 6.43597 10.3448 6.36322 10.3448Z" fill="#F5F5F5"/>
<path d="M6.03141 4.70465L6.14012 5.03062L6.48371 5.03324C6.51034 5.03343 6.52135 5.06741 6.49993 5.08326L6.22351 5.28735L6.32715 5.61496C6.33516 5.64037 6.30629 5.66137 6.28463 5.64585L6.00507 5.44602L5.72551 5.64585C5.70385 5.66132 5.67498 5.64032 5.68299 5.61496L5.78663 5.28735L5.51021 5.08326C5.48879 5.06741 5.49981 5.03343 5.52643 5.03324L5.87002 5.03062L5.97873 4.70465C5.98721 4.67938 6.02298 4.67938 6.03141 4.70465Z" fill="#F5F5F5"/>
<path d="M4.41508 5.17368L4.52378 5.49965L4.86738 5.50227C4.894 5.50246 4.90502 5.53644 4.8836 5.55229L4.60717 5.75638L4.71082 6.08399C4.71883 6.1094 4.68996 6.13039 4.6683 6.11488L4.38874 5.91505L4.10918 6.11488C4.08752 6.13035 4.05864 6.10935 4.06666 6.08399L4.1703 5.75638L3.89388 5.55229C3.87246 5.53644 3.88347 5.50246 3.9101 5.50227L4.25369 5.49965L4.36239 5.17368C4.37097 5.14837 4.40664 5.14837 4.41508 5.17368Z" fill="#F5F5F5"/>
<path d="M7.68705 5.17368L7.79576 5.49965L8.13935 5.50227C8.16598 5.50246 8.17699 5.53644 8.15557 5.55229L7.87915 5.75638L7.98279 6.08399C7.9908 6.1094 7.96193 6.13039 7.94027 6.11488L7.66071 5.91505L7.38115 6.11488C7.35949 6.13035 7.33062 6.10935 7.33863 6.08399L7.44227 5.75638L7.16585 5.55229C7.14443 5.53644 7.15545 5.50246 7.18207 5.50227L7.52566 5.49965L7.63437 5.17368C7.64294 5.14837 7.67862 5.14837 7.68705 5.17368Z" fill="#F5F5F5"/>
<path d="M8.77116 6.40621L8.87986 6.73218L9.22346 6.7348C9.25008 6.73499 9.2611 6.76897 9.23968 6.78482L8.96325 6.98891L9.06689 7.31652C9.07491 7.34193 9.04604 7.36293 9.02438 7.34741L8.74482 7.14758L8.46525 7.34741C8.4436 7.36288 8.41472 7.34188 8.42274 7.31652L8.52638 6.98891L8.24996 6.78482C8.22854 6.76897 8.23955 6.73499 8.26618 6.7348L8.60977 6.73218L8.71847 6.40621C8.72705 6.38094 8.76272 6.38094 8.77116 6.40621Z" fill="#F5F5F5"/>
<path d="M3.24089 6.40621L3.34959 6.73218L3.69318 6.7348C3.71981 6.73499 3.73082 6.76897 3.7094 6.78482L3.43298 6.98891L3.53662 7.31652C3.54464 7.34193 3.51576 7.36293 3.49411 7.34741L3.21454 7.14758L2.93498 7.34741C2.91332 7.36288 2.88445 7.34188 2.89247 7.31652L2.99611 6.98891L2.71968 6.78482C2.69826 6.76897 2.70928 6.73499 2.7359 6.7348L3.0795 6.73218L3.1882 6.40621C3.19668 6.38094 3.23245 6.38094 3.24089 6.40621Z" fill="#F5F5F5"/>
<path d="M9.08293 8.02297L9.19163 8.34894L9.53522 8.35156C9.56185 8.35175 9.57286 8.38573 9.55144 8.40158L9.27502 8.60567L9.37866 8.93328C9.38668 8.95869 9.3578 8.97969 9.33615 8.96417L9.05658 8.76434L8.77702 8.96417C8.75537 8.97964 8.72649 8.95864 8.73451 8.93328L8.83815 8.60567L8.56173 8.40158C8.5403 8.38573 8.55132 8.35175 8.57794 8.35156L8.92154 8.34894L9.03024 8.02297C9.03872 7.9977 9.07449 7.9977 9.08293 8.02297Z" fill="#F5F5F5"/>
<path d="M2.81962 8.02297L2.92833 8.34894L3.27192 8.35156C3.29854 8.35175 3.30956 8.38573 3.28814 8.40158L3.01172 8.60567L3.11536 8.93328C3.12337 8.95869 3.0945 8.97969 3.07284 8.96417L2.79328 8.76434L2.51372 8.96417C2.49206 8.97964 2.46319 8.95864 2.4712 8.93328L2.57484 8.60567L2.29842 8.40158C2.277 8.38573 2.28801 8.35175 2.31464 8.35156L2.65823 8.34894L2.76693 8.02297C2.77547 7.9977 2.81118 7.9977 2.81962 8.02297Z" fill="#F5F5F5"/>
</svg>
