<svg width="24" height="24" viewBox="0 0 24 24" fill="none" xmlns="http://www.w3.org/2000/svg">
<path d="M24 7.28282H0V4.55175C0 4.32324 0.185297 4.13794 0.413812 4.13794H23.5862C23.8147 4.13794 24 4.32324 24 4.55175L24 7.28282Z" fill="#73AF00"/>
<path d="M24 10.4279H0V13.5727H24V10.4279Z" fill="#73AF00"/>
<path d="M24 7.28302H0V10.4279H24V7.28302Z" fill="#FFE15A"/>
<path d="M23.5861 19.8621H0.413812C0.185297 19.8621 0 19.6768 0 19.4482V16.7172H24V19.4482C24 19.6768 23.8147 19.8621 23.5861 19.8621Z" fill="#73AF00"/>
<path d="M24 13.5727H0V16.7175H24V13.5727Z" fill="#FFE15A"/>
<path d="M9.10344 13.5725H0.413812C0.185297 13.5725 0 13.3872 0 13.1586V4.55175C0 4.32324 0.185297 4.13794 0.413812 4.13794H9.10344C9.33195 4.13794 9.51725 4.32324 9.51725 4.55175V13.1586C9.5172 13.3872 9.33195 13.5725 9.10344 13.5725Z" fill="#FF4B55"/>
<path d="M4.65634 6.35799L4.05831 8.15105L2.16822 8.16568C2.06463 8.16652 2.02165 8.29871 2.10504 8.36025L3.62557 9.4831L3.05543 11.2852C3.02421 11.3841 3.13671 11.4658 3.22094 11.4055L4.75872 10.3064L6.2965 11.4055C6.38083 11.4658 6.49333 11.3841 6.46201 11.2852L5.89187 9.48314L7.4124 8.3603C7.49579 8.29875 7.45281 8.16647 7.34921 8.16572L5.45912 8.1511L4.86095 6.35804C4.82814 6.25965 4.68911 6.25965 4.65634 6.35799Z" fill="#F5F5F5"/>
</svg>
