<svg width="24" height="24" viewBox="0 0 24 24" fill="none" xmlns="http://www.w3.org/2000/svg">
<path d="M23.5861 19.862H0.413812C0.185297 19.862 0 19.6767 0 19.4482V4.55174C0 4.32323 0.185297 4.13793 0.413812 4.13793H23.5862C23.8147 4.13793 24 4.32323 24 4.55174V19.4482C24 19.6768 23.8147 19.862 23.5861 19.862Z" fill="#4173CD"/>
<path d="M24 14.8964H0V15.724H24V14.8964Z" fill="#FFE15A"/>
<path d="M24 16.5515H0V17.3791H24V16.5515Z" fill="#FFE15A"/>
<path d="M3.05769 8.24726L1.51794 7.72147L3.05769 7.19572L3.58349 5.65616L4.10924 7.19572L5.64898 7.72147L4.10924 8.24726L3.58349 9.78687L3.05769 8.24726Z" fill="#FF4B55"/>
<path d="M3.58348 5.93282L4.03883 7.26617L5.37218 7.72152L4.03883 8.17686L3.58348 9.51022L3.12814 8.17686L1.79479 7.72152L3.12814 7.26617L3.58348 5.93282ZM3.58348 5.37932L3.41417 5.87497L2.98724 7.12527L1.73699 7.5522L1.24133 7.72152L1.73699 7.89074L2.98724 8.31767L3.41417 9.56792L3.58348 10.0636L3.7528 9.56792L4.17973 8.31767L5.42998 7.89074L5.92564 7.72152L5.42998 7.5523L4.17973 7.12536L3.7528 5.87511L3.58348 5.37932Z" fill="#F5F5F5"/>
</svg>
