<svg width="24" height="24" viewBox="0 0 24 24" fill="none" xmlns="http://www.w3.org/2000/svg">
<path d="M0 16.1379V4.55169C0 4.32318 0.185297 4.13788 0.413812 4.13788H18.2069L0 16.1379Z" fill="#41479B"/>
<path d="M24 7.86206V19.4482C24 19.6768 23.8147 19.8621 23.5862 19.8621H5.79309L24 7.86206Z" fill="#73AF00"/>
<path d="M24 8.09539V4.55169C24 4.32318 23.8147 4.13788 23.5862 4.13788H17.9596L0 15.9046V19.4482C0 19.6768 0.185297 19.8621 0.413813 19.8621H6.04036L24 8.09539Z" fill="#F5F5F5"/>
<path d="M24 6.61157V4.55169C24 4.32318 23.8147 4.13788 23.5862 4.13788H20.2244L0 17.3884V19.4483C0 19.6768 0.185297 19.8621 0.413813 19.8621H3.77559L24 6.61157Z" fill="#FF4B55"/>
<path d="M4.22843 6.83879C4.63582 6.83879 5.00454 7.00383 5.27159 7.27069L5.41807 6.25416L4.61018 6.88983L4.22838 5.93536L3.84659 6.88983L3.0387 6.25416L3.18518 7.27069C3.45232 7.00379 3.82104 6.83879 4.22843 6.83879Z" fill="#FFE15A"/>
<path d="M3.18445 9.35784C2.91759 9.0908 2.75254 8.72198 2.75254 8.31469C2.75254 7.9073 2.91759 7.53858 3.18445 7.27153L2.16792 7.125L2.80359 7.93289L1.84912 8.31469L2.80359 8.69648L2.16792 9.50437L3.18445 9.35784Z" fill="#FFE15A"/>
<path d="M6.60779 8.31464L5.65332 7.93284L6.28899 7.125L5.27246 7.27148C5.53932 7.53853 5.70437 7.90734 5.70437 8.31464C5.70437 8.72198 5.53932 9.09075 5.27246 9.3578L6.28899 9.50428L5.65332 8.69639L6.60779 8.31464Z" fill="#FFE15A"/>
<path d="M4.22846 9.79055C3.82107 9.79055 3.45235 9.6255 3.1853 9.35864L3.03882 10.3752L3.84671 9.7395L4.22851 10.694L4.6103 9.7395L5.41819 10.3752L5.27171 9.35864C5.00457 9.62555 4.63585 9.79055 4.22846 9.79055Z" fill="#FFE15A"/>
<path d="M4.22855 9.51978C4.89411 9.51978 5.43366 8.98023 5.43366 8.31467C5.43366 7.6491 4.89411 7.10956 4.22855 7.10956C3.56298 7.10956 3.02344 7.6491 3.02344 8.31467C3.02344 8.98023 3.56298 9.51978 4.22855 9.51978Z" fill="#FFE15A"/>
</svg>
