<svg width="24" height="24" viewBox="0 0 24 24" fill="none" xmlns="http://www.w3.org/2000/svg">
<path d="M24 9.37935H0V4.55175C0 4.32324 0.185297 4.13794 0.413812 4.13794H23.5862C23.8147 4.13794 24 4.32324 24 4.55175L24 9.37935Z" fill="#73AF00"/>
<path d="M23.5861 19.8621H0.413812C0.185297 19.8621 0 19.6768 0 19.4483V14.6207H24V19.4483C24 19.6768 23.8147 19.8621 23.5861 19.8621Z" fill="#FF4B55"/>
<path d="M24 9.37924H0V14.6203H24V9.37924Z" fill="#F5F5F5"/>
<path d="M6.00444 12.2564C6.12313 12.1061 6.12313 11.8939 6.00444 11.7436L0.109453 4.27658C0.0431249 4.34999 0 4.44505 0 4.55174V19.4483C0 19.5549 0.0431249 19.6501 0.109453 19.7234L6.00444 12.2564Z" fill="#4173CD"/>
<path d="M11.9006 12.3702C11.9006 12.3803 11.8973 13.353 11.6485 13.8316H12.3476C12.0988 13.3531 12.0955 12.3803 12.0955 12.3702C12.0955 12.035 12.4429 11.7687 12.4464 11.766L12.3293 11.6103C12.3202 11.6172 12.2045 11.7059 12.0955 11.85V11.5908H11.9007V11.85C11.7917 11.7059 11.676 11.6171 11.6669 11.6103L11.5498 11.766C11.5533 11.7687 11.9006 12.035 11.9006 12.3702Z" fill="#B46446"/>
<path d="M12.9725 11.2011C12.9665 11.2011 12.961 11.2026 12.9551 11.203C12.9154 11.0887 12.8079 11.0062 12.6801 11.0062C12.6341 11.0062 12.5911 11.0178 12.5523 11.0368C12.511 10.9609 12.4316 10.9088 12.3392 10.9088C12.3126 10.9088 12.2875 10.9141 12.2636 10.922C12.2117 10.7997 12.0906 10.7139 11.9495 10.7139C11.776 10.7139 11.6344 10.844 11.6129 11.0115C11.5955 11.0088 11.578 11.0062 11.5598 11.0062C11.3715 11.0062 11.2188 11.1589 11.2188 11.3472C11.2188 11.3693 11.2213 11.3908 11.2253 11.4118C11.139 11.4402 11.0712 11.5069 11.0414 11.5925C11.0355 11.592 11.0299 11.5907 11.024 11.5907C10.9163 11.5907 10.8291 11.678 10.8291 11.7856C10.8291 11.8932 10.9164 11.9804 11.024 11.9804C11.0736 11.9804 11.1186 11.9613 11.153 11.9306C11.1996 11.962 11.2558 11.9804 11.3163 11.9804C11.3698 11.9804 11.4193 11.965 11.4624 11.9399C11.5055 11.965 11.555 11.9804 11.6085 11.9804C11.7699 11.9804 11.9008 11.8496 11.9008 11.6881C11.9008 11.6758 11.8986 11.664 11.8972 11.6521C11.9426 11.6744 11.9929 11.6881 12.047 11.6881C12.1148 11.6881 12.1775 11.6678 12.2306 11.6337C12.2804 11.7238 12.3752 11.7855 12.4854 11.7855C12.5091 11.7855 12.5319 11.782 12.5539 11.7766C12.6075 11.8411 12.6873 11.883 12.7777 11.883C12.865 11.883 12.9426 11.8439 12.9961 11.7832C13.1463 11.7711 13.2649 11.6466 13.2649 11.4933C13.2647 11.3319 13.1339 11.2011 12.9725 11.2011Z" fill="#73AF00"/>
<path d="M12.6801 11.4446C12.6801 11.4345 12.6822 11.4249 12.6831 11.415C12.631 11.4632 12.5619 11.4934 12.4853 11.4934C12.3834 11.4934 12.294 11.4412 12.2417 11.3623C12.1893 11.4412 12.0999 11.4934 11.9981 11.4934C11.9198 11.4934 11.8492 11.4622 11.7967 11.4121C11.7663 11.5693 11.6283 11.6882 11.4623 11.6882C11.4454 11.6882 11.4293 11.6856 11.4131 11.6832C11.4131 11.6849 11.4136 11.6865 11.4136 11.6882C11.4136 11.8156 11.3316 11.9228 11.2179 11.9628C11.2487 11.9738 11.2816 11.9804 11.3162 11.9804C11.3697 11.9804 11.4192 11.965 11.4623 11.9399C11.5054 11.965 11.5549 11.9804 11.6084 11.9804C11.7698 11.9804 11.9007 11.8496 11.9007 11.6881C11.9007 11.6758 11.8986 11.664 11.8971 11.6521C11.9425 11.6744 11.9928 11.6881 12.0469 11.6881C12.1147 11.6881 12.1774 11.6678 12.2305 11.6337C12.2803 11.7238 12.3751 11.7855 12.4853 11.7855C12.509 11.7855 12.5318 11.782 12.5538 11.7766C12.6075 11.8411 12.6872 11.883 12.7776 11.883C12.8649 11.883 12.9424 11.8439 12.996 11.7832L12.9966 11.7831C12.8199 11.7703 12.6801 11.6245 12.6801 11.4446Z" fill="#5FA000"/>
<path d="M11.9981 14.4526C11.9825 14.4526 11.9686 14.4426 11.9635 14.4279C11.9598 14.4169 11.8681 14.1604 11.511 14.1604H11.0239C10.7351 14.1604 10.5002 13.9255 10.5002 13.6368V10.4217C10.5002 10.4016 10.5166 10.3852 10.5368 10.3852H13.557C13.5771 10.3852 13.5935 10.4016 13.5935 10.4217V13.6368C13.5935 13.9256 13.3585 14.1604 13.0698 14.1604H12.4853C12.1261 14.1604 12.0337 14.425 12.0328 14.4277C12.0278 14.4426 12.0139 14.4526 11.9982 14.4526L11.9981 14.4526ZM10.5732 10.4581V13.6367C10.5732 13.8851 10.7754 14.0873 11.0238 14.0873H11.511C11.8001 14.0873 11.9401 14.2426 11.9981 14.3359C12.0561 14.2425 12.196 14.0873 12.4852 14.0873H13.0698C13.3183 14.0873 13.5204 13.8851 13.5204 13.6367V10.4581H10.5732Z" fill="#464655"/>
<path d="M11.6242 9.55292L11.7168 9.70109L11.8914 9.70714L11.8094 9.8614L11.8914 10.0157L11.7168 10.0217L11.6242 10.1699L11.5317 10.0217L11.3571 10.0157L11.4391 9.8614L11.3571 9.70714L11.5317 9.70109L11.6242 9.55292Z" fill="#FFE15A"/>
<path d="M10.8012 9.68732L10.9259 9.80975L11.0971 9.77488L11.0533 9.944L11.1691 10.0749L11.0007 10.1215L10.9454 10.2872L10.8207 10.1647L10.6496 10.1997L10.6933 10.0305L10.5775 9.89966L10.7459 9.85302L10.8012 9.68732Z" fill="#FFE15A"/>
<path d="M10.0115 9.92099L10.1596 10.0137L10.3192 9.94265L10.3131 10.1173L10.4544 10.22L10.3001 10.3019L10.2817 10.4757L10.1336 10.383L9.97401 10.4541L9.9802 10.2794L9.83887 10.1767L9.99318 10.0948L10.0115 9.92099Z" fill="#FFE15A"/>
<path d="M12.3759 9.55292L12.2833 9.70109L12.1086 9.70714L12.1907 9.8614L12.1086 10.0157L12.2833 10.0217L12.3759 10.1699L12.4684 10.0217L12.643 10.0157L12.561 9.8614L12.643 9.70714L12.4684 9.70109L12.3759 9.55292Z" fill="#FFE15A"/>
<path d="M13.1988 9.68732L13.0742 9.80975L12.903 9.77488L12.9468 9.944L12.8309 10.0749L12.9993 10.1215L13.0547 10.2872L13.1793 10.1647L13.3505 10.1997L13.3068 10.0305L13.4225 9.89966L13.2542 9.85302L13.1988 9.68732Z" fill="#FFE15A"/>
<path d="M13.9885 9.92099L13.8404 10.0137L13.6808 9.94265L13.687 10.1173L13.5457 10.22L13.7 10.3019L13.7183 10.4757L13.8664 10.383L14.026 10.4541L14.0198 10.2794L14.1612 10.1767L14.0069 10.0948L13.9885 9.92099Z" fill="#FFE15A"/>
</svg>
