<svg width="24" height="24" viewBox="0 0 24 24" fill="none" xmlns="http://www.w3.org/2000/svg">
<path d="M23.5861 19.862H0.413812C0.185297 19.862 0 19.6767 0 19.4482V4.55175C0 4.32324 0.185297 4.13794 0.413812 4.13794H23.5862C23.8147 4.13794 24 4.32324 24 4.55175V19.4482C24 19.6768 23.8147 19.862 23.5861 19.862Z" fill="#FFE15A"/>
<path d="M11.5862 12H0.413812C0.185297 12 0 11.8147 0 11.5862V4.55175C0 4.32324 0.185297 4.13794 0.413812 4.13794H11.5862C11.8147 4.13794 12 4.32324 12 4.55175V11.5862C11.9999 11.8148 11.8147 12 11.5862 12Z" fill="#41479B"/>
<path d="M11.5862 4.13794H10.8674L7.03447 6.64917V4.13794H4.96551V6.64917L1.13254 4.13794H0.413812C0.185297 4.13794 0 4.32324 0 4.55175V4.87997L3.28851 7.03448H0V9.10345H3.28851L0 11.258V11.5862C0 11.8147 0.185297 12 0.413812 12H1.13254L4.96551 9.48876V12H7.03447V9.48876L10.8674 12H11.5861C11.8146 12 11.9999 11.8147 11.9999 11.5862V11.258L8.71147 9.10345H11.9999V7.03448H8.71142L11.9999 4.87997V4.55175C11.9999 4.32324 11.8147 4.13794 11.5862 4.13794Z" fill="#F5F5F5"/>
<path d="M11.9999 7.44829H6.62066V4.13794H5.37927V7.44829H0V8.68963H5.37927V12H6.62066V8.68963H11.9999V7.44829Z" fill="#FF4B55"/>
<path d="M4.55169 7.03449L0.197203 4.20789C0.081328 4.28124 0 4.40443 0 4.55176V4.57323L3.79166 7.03449H4.55169Z" fill="#FF4B55"/>
<path d="M7.79445 7.03448L11.937 4.34545C11.865 4.22363 11.7379 4.13794 11.5861 4.13794H11.4966L7.03442 7.03448H7.79445Z" fill="#FF4B55"/>
<path d="M4.19405 9.10345L0.0594482 11.7873C0.130745 11.9121 0.259745 12 0.413776 12H0.491822L4.95408 9.10345H4.19405Z" fill="#FF4B55"/>
<path d="M11.9933 11.6188L8.11838 9.10352H7.3584L11.7587 11.9598C11.8905 11.8986 11.9809 11.7704 11.9933 11.6188Z" fill="#FF4B55"/>
<path d="M5.99993 9.31041C6.68553 9.31041 7.24132 8.75462 7.24132 8.06903C7.24132 7.38343 6.68553 6.82764 5.99993 6.82764C5.31433 6.82764 4.75854 7.38343 4.75854 8.06903C4.75854 8.75462 5.31433 9.31041 5.99993 9.31041Z" fill="#41479B"/>
<path d="M6.08374 7.0626L6.29116 7.68444L6.94666 7.6895C7.03155 7.69016 7.0667 7.79848 6.99845 7.84888L6.47111 8.23826L6.66883 8.86325C6.69442 8.94415 6.60231 9.01109 6.53327 8.96173L5.99997 8.58059L5.46668 8.96173C5.39763 9.01109 5.30552 8.94415 5.33111 8.86325L5.52883 8.23826L5.00149 7.84888C4.93319 7.79844 4.9684 7.69016 5.05329 7.6895L5.70879 7.68444L5.91621 7.0626C5.94302 6.98206 6.05693 6.98206 6.08374 7.0626Z" fill="#FFE15A"/>
<path d="M2.64845 7.56907L2.75997 7.90343L3.11242 7.90615C3.15803 7.90652 3.17697 7.96474 3.14026 7.99183L2.85677 8.20123L2.96308 8.53722C2.97686 8.58072 2.92727 8.61672 2.89019 8.59019L2.6035 8.38526L2.31681 8.59019C2.27969 8.61672 2.23019 8.58072 2.24392 8.53722L2.35024 8.20123L2.06674 7.99183C2.03003 7.96474 2.04892 7.90648 2.09458 7.90615L2.44703 7.90343L2.55855 7.56907C2.57284 7.5258 2.63402 7.5258 2.64845 7.56907Z" fill="#FFE15A"/>
<path d="M9.47267 7.56907L9.58419 7.90343L9.93664 7.90615C9.98225 7.90652 10.0012 7.96474 9.96448 7.99183L9.68098 8.20123L9.7873 8.53722C9.80108 8.58072 9.75148 8.61672 9.71441 8.59019L9.42772 8.38526L9.14103 8.59019C9.10391 8.61672 9.05441 8.58072 9.06814 8.53722L9.17445 8.20123L8.89095 7.99183C8.85425 7.96474 8.87314 7.90648 8.9188 7.90615L9.27125 7.90343L9.38277 7.56907C9.39706 7.5258 9.45823 7.5258 9.47267 7.56907Z" fill="#FFE15A"/>
<path d="M6.05036 5.05754L6.16187 5.3919L6.51432 5.39462C6.55993 5.39499 6.57887 5.45321 6.54217 5.48031L6.25862 5.68965L6.36493 6.02565C6.37871 6.06915 6.32912 6.10515 6.29204 6.07862L6.00536 5.87368L5.71867 6.07862C5.68154 6.10515 5.63204 6.06915 5.64578 6.02565L5.75209 5.68965L5.46859 5.48026C5.43189 5.45316 5.45078 5.3949 5.49643 5.39457L5.84889 5.39185L5.9604 5.05749C5.9747 5.01427 6.03597 5.01427 6.05036 5.05754Z" fill="#FFE15A"/>
<path d="M6.05036 10.1398L6.16187 10.4742L6.51432 10.4769C6.55993 10.4773 6.57887 10.5355 6.54217 10.5626L6.25862 10.7719L6.36493 11.1079C6.37871 11.1514 6.32912 11.1874 6.29204 11.1609L6.00536 10.956L5.71867 11.1609C5.68154 11.1874 5.63204 11.1514 5.64578 11.1079L5.75209 10.7719L5.46859 10.5625C5.43189 10.5354 5.45078 10.4772 5.49643 10.4768L5.84889 10.4741L5.9604 10.1398C5.9747 10.0966 6.03597 10.0966 6.05036 10.1398Z" fill="#FFE15A"/>
</svg>
