<svg width="24" height="24" viewBox="0 0 24 24" fill="none" xmlns="http://www.w3.org/2000/svg">
<path d="M23.5861 19.862H0.413812C0.185297 19.862 0 19.6767 0 19.4482V4.55175C0 4.32324 0.185297 4.13794 0.413812 4.13794H23.5862C23.8147 4.13794 24 4.32324 24 4.55175V19.4482C24 19.6768 23.8147 19.862 23.5861 19.862Z" fill="#41479B"/>
<path d="M11.5862 4.13794H10.8674L7.03447 6.64917V4.13794H4.96551V6.64917L1.13254 4.13794H0.413812C0.185297 4.13794 0 4.32324 0 4.55175V4.87997L3.28851 7.03448H0V9.10345H3.28851L0 11.258V11.5862C0 11.8147 0.185297 12 0.413812 12H1.13254L4.96551 9.48876V12H7.03447V9.48876L10.8674 12H11.5861C11.8146 12 11.9999 11.8147 11.9999 11.5862V11.258L8.71147 9.10345H11.9999V7.03448H8.71142L11.9999 4.87997V4.55175C11.9999 4.32324 11.8147 4.13794 11.5862 4.13794Z" fill="#F5F5F5"/>
<path d="M11.9999 7.44829H6.62066V4.13794H5.37927V7.44829H0V8.68963H5.37927V12H6.62066V8.68963H11.9999V7.44829Z" fill="#FF4B55"/>
<path d="M4.55169 7.03449L0.197203 4.20789C0.081328 4.28124 0 4.40443 0 4.55176V4.57323L3.79166 7.03449H4.55169Z" fill="#FF4B55"/>
<path d="M7.79445 7.03448L11.937 4.34545C11.865 4.22363 11.7379 4.13794 11.5861 4.13794H11.4966L7.03442 7.03448H7.79445Z" fill="#FF4B55"/>
<path d="M4.19405 9.10345L0.0594482 11.7873C0.130745 11.9121 0.259745 12 0.413776 12H0.491822L4.95408 9.10345H4.19405Z" fill="#FF4B55"/>
<path d="M11.9933 11.6188L8.11838 9.10352H7.3584L11.7587 11.9598C11.8905 11.8986 11.9809 11.7704 11.9933 11.6188Z" fill="#FF4B55"/>
<path d="M16.1283 9.65515C16.0784 9.65515 16.038 9.6956 16.038 9.74553V11.2818C16.038 14.3543 18.2068 14.8965 18.2068 14.8965C18.2068 14.8965 20.3757 14.3543 20.3757 11.2818V9.74553C20.3757 9.6956 20.3352 9.65515 20.2853 9.65515H16.1283Z" fill="#FFE15A"/>
<path d="M20.1498 9.88109V11.2818C20.1498 13.8951 18.5344 14.5542 18.2069 14.6609C17.8776 14.5535 16.2639 13.8936 16.2639 11.2818V9.88109H20.1498ZM20.2853 9.65515H16.1283C16.0784 9.65515 16.038 9.6956 16.038 9.74553V11.2818C16.038 14.3543 18.2068 14.8965 18.2068 14.8965C18.2068 14.8965 20.3757 14.3543 20.3757 11.2818V9.74553C20.3757 9.6956 20.3352 9.65515 20.2853 9.65515Z" fill="#F5F5F5"/>
<path d="M18.4494 12.5175H17.9871C17.9871 12.5175 17.6143 12.8903 17.5288 13.7093C17.526 13.7354 17.5366 13.7618 17.5573 13.7781C17.6357 13.8396 17.8559 13.9815 18.2182 13.9815C18.5805 13.9815 18.8008 13.8396 18.8792 13.7781C18.8999 13.7619 18.9104 13.7355 18.9077 13.7093C18.8223 12.8903 18.4494 12.5175 18.4494 12.5175Z" fill="#73AF00"/>
<path d="M18.4494 12.4404H17.9871V12.0552C17.9871 11.9281 18.0911 11.824 18.2182 11.824C18.3453 11.824 18.4493 11.9281 18.4493 12.0552V12.4404H18.4494Z" fill="#FF4B55"/>
<path d="M18.4494 12.5945H17.9871C17.9445 12.5945 17.91 12.56 17.91 12.5174C17.91 12.4749 17.9445 12.4404 17.9871 12.4404H18.4494C18.492 12.4404 18.5265 12.4749 18.5265 12.5174C18.5264 12.56 18.4919 12.5945 18.4494 12.5945Z" fill="#FF4B55"/>
<path d="M19.9904 10.8908C19.9767 10.8908 19.7757 10.8918 19.5666 10.9277V10.8073C19.743 10.7267 19.916 10.6851 19.9189 10.6844C19.9396 10.6795 19.9525 10.6588 19.9476 10.638C19.9427 10.6174 19.922 10.6044 19.9013 10.6094C19.8897 10.612 19.7344 10.6494 19.5652 10.723C19.5624 10.6769 19.5464 10.6345 19.5203 10.5995C19.6584 10.4926 19.776 10.4247 19.7782 10.4235C19.7967 10.413 19.8032 10.3895 19.7927 10.371C19.7821 10.3524 19.7586 10.346 19.7401 10.3565C19.7308 10.3619 19.6074 10.433 19.4642 10.5449C19.4273 10.5201 19.383 10.5056 19.3354 10.5056C19.2858 10.5056 19.2401 10.5216 19.2024 10.5482C19.2419 10.3499 19.3231 10.2641 19.3243 10.263C19.3392 10.248 19.3391 10.2236 19.3241 10.2087C19.3091 10.1936 19.2847 10.1936 19.2697 10.2087C19.2651 10.2133 19.1902 10.2906 19.1428 10.4642C19.0953 10.2905 19.0205 10.2132 19.0159 10.2087C19.0009 10.1937 18.9767 10.1937 18.9616 10.2086C18.9465 10.2235 18.9464 10.2479 18.9612 10.263C18.9623 10.2641 19.0435 10.35 19.083 10.5482C19.0454 10.5216 18.9997 10.5056 18.9501 10.5056C18.9025 10.5056 18.8581 10.5202 18.8213 10.545C18.6781 10.433 18.5547 10.3619 18.5453 10.3566C18.5268 10.346 18.5033 10.3525 18.4928 10.371C18.4822 10.3895 18.4887 10.413 18.5072 10.4235C18.5094 10.4248 18.627 10.4926 18.7652 10.5995C18.7391 10.6345 18.7231 10.6769 18.7203 10.7231C18.5512 10.6494 18.3958 10.6121 18.3842 10.6094C18.3634 10.6044 18.3427 10.6174 18.3379 10.6381C18.333 10.6588 18.3459 10.6796 18.3666 10.6844C18.3695 10.6851 18.5424 10.7267 18.7189 10.8073V10.9278C18.5098 10.8918 18.3088 10.8909 18.2951 10.8909C18.2738 10.8909 18.2566 10.9081 18.2566 10.9294C18.2566 10.9507 18.2738 10.968 18.2951 10.968C18.2985 10.968 18.5091 10.9688 18.7189 11.006V11.1307C18.6033 11.1272 18.4744 11.1434 18.3549 11.2032C18.3359 11.2127 18.3282 11.2358 18.3377 11.2548C18.3445 11.2683 18.3581 11.2762 18.3722 11.2762C18.378 11.2762 18.3839 11.2748 18.3894 11.2721C18.4957 11.219 18.6129 11.2051 18.7189 11.2087V11.6854C18.7189 11.7435 18.7131 11.802 18.7017 11.8592L18.6426 12.1547C18.6384 12.1756 18.652 12.1958 18.6728 12.2C18.6753 12.2005 18.6779 12.2008 18.6804 12.2008C18.6984 12.2008 18.7145 12.1882 18.7182 12.1698L18.7773 11.8743C18.7897 11.8122 18.796 11.7487 18.796 11.6854V11.2144C18.8538 11.2209 18.9057 11.2313 18.9474 11.2417L18.9768 11.6233C18.9805 11.6709 19.0043 11.712 19.039 11.7398L18.9141 11.9272C18.8471 12.0277 18.9191 12.1622 19.0398 12.1622H19.2456C19.3663 12.1622 19.4383 12.0277 19.3713 11.9272L19.2464 11.7398C19.2811 11.712 19.3049 11.6708 19.3086 11.6233L19.3379 11.2417C19.3796 11.2313 19.4316 11.2209 19.4894 11.2144V11.6854C19.4894 11.7487 19.4956 11.8122 19.5081 11.8743L19.5672 12.1698C19.5708 12.1881 19.5869 12.2008 19.6049 12.2008C19.6074 12.2008 19.61 12.2006 19.6125 12.2C19.6334 12.1958 19.6469 12.1755 19.6427 12.1546L19.5836 11.8591C19.5722 11.802 19.5665 11.7436 19.5665 11.6853V11.2085C19.6724 11.205 19.7896 11.2188 19.8959 11.2719C19.9015 11.2747 19.9073 11.276 19.9131 11.276C19.9272 11.276 19.9408 11.2682 19.9476 11.2547C19.9571 11.2357 19.9494 11.2125 19.9304 11.203C19.811 11.1434 19.6821 11.1271 19.5664 11.1306V11.0059C19.7763 10.9687 19.9869 10.9678 19.9902 10.9678C20.0115 10.9678 20.0287 10.9505 20.0287 10.9293C20.0289 10.908 20.0116 10.8908 19.9904 10.8908ZM19.4895 10.9425C19.4435 10.9525 19.3981 10.9643 19.3554 10.9785C19.3546 10.9634 19.3524 10.9486 19.3486 10.9344C19.3913 10.9014 19.4393 10.8714 19.4895 10.8449L19.4895 10.9425ZM19.4895 10.7367V10.758C19.4285 10.7884 19.3684 10.8235 19.3146 10.8634C19.3034 10.8481 19.2905 10.8344 19.2757 10.8226C19.3333 10.7587 19.3974 10.6996 19.4604 10.6474C19.4786 10.6726 19.4895 10.7033 19.4895 10.7367ZM19.3354 10.5826C19.3584 10.5826 19.38 10.588 19.3996 10.597C19.333 10.653 19.2655 10.7166 19.2051 10.7856C19.1972 10.7831 19.1895 10.7807 19.1812 10.7792V10.7752C19.1812 10.7576 19.1819 10.741 19.1825 10.7244C19.1889 10.6453 19.2546 10.5826 19.3354 10.5826ZM18.9502 10.5826C19.031 10.5826 19.0967 10.6453 19.103 10.7245C19.1036 10.741 19.1042 10.7576 19.1042 10.7752V10.7793C19.096 10.7808 19.0882 10.7832 19.0804 10.7856C19.0199 10.7166 18.9524 10.653 18.8859 10.5971C18.9056 10.588 18.9272 10.5826 18.9502 10.5826ZM18.7961 10.7367C18.7961 10.7033 18.807 10.6726 18.8251 10.6473C18.8882 10.6995 18.9522 10.7587 19.0098 10.8225C18.995 10.8343 18.9822 10.8481 18.971 10.8634C18.9172 10.8235 18.8571 10.7883 18.796 10.758L18.7961 10.7367ZM18.7961 10.845C18.8462 10.8715 18.8942 10.9014 18.937 10.9344C18.9331 10.9487 18.9309 10.9634 18.9302 10.9785C18.8874 10.9643 18.8422 10.9525 18.7961 10.9425V10.845H18.7961ZM18.7961 11.136V11.0216C18.8444 11.0325 18.8909 11.0457 18.9337 11.0616L18.9412 11.1603C18.8993 11.1505 18.8501 11.1416 18.7961 11.136ZM19.4895 11.136C19.4354 11.1417 19.3862 11.1506 19.3443 11.1603L19.3519 11.0617C19.3946 11.0458 19.4413 11.0326 19.4895 11.0216V11.136Z" fill="#D35A10"/>
<path d="M17.5562 11.931H17.3832L16.7218 11.3431C16.6495 11.279 16.619 11.1799 16.6424 11.0861L16.8268 10.3485C16.8431 10.2832 16.9244 10.2607 16.9719 10.3083L17.2712 10.6076C17.2874 10.6238 17.3094 10.6329 17.3324 10.6329H17.5561V11.9311L17.5562 11.931Z" fill="#FFA033"/>
<path d="M17.4322 10.4555L17.3261 10.9335C17.3069 11.0201 17.3101 11.1103 17.3356 11.1953L17.5563 11.931H17.7293L17.95 11.1953C17.9755 11.1103 17.9789 11.0202 17.9595 10.9335L17.8534 10.4555C17.8314 10.3569 17.744 10.2868 17.643 10.2868H17.6425C17.5416 10.2868 17.4541 10.3569 17.4322 10.4555Z" fill="#FF9480"/>
<path d="M17.6428 10.4598C17.595 10.4598 17.5563 10.4986 17.5563 10.5464V11.931H17.7293V10.5464C17.7293 10.4986 17.6906 10.4598 17.6428 10.4598Z" fill="#FFA0E4"/>
</svg>
