<svg width="24" height="24" viewBox="0 0 24 24" fill="none" xmlns="http://www.w3.org/2000/svg">
<path d="M23.5861 19.862H0.413812C0.185297 19.862 0 19.6767 0 19.4482V4.55175C0 4.32324 0.185297 4.13794 0.413812 4.13794H23.5862C23.8147 4.13794 24 4.32324 24 4.55175V19.4482C24 19.6768 23.8147 19.862 23.5861 19.862Z" fill="#73AF00"/>
<path d="M24 7.86188H0V16.1376H24V7.86188Z" fill="#FFE15A"/>
<path d="M0.124969 19.7433L8.27581 12L0.124969 4.25665C0.0481405 4.33175 0 4.43581 0 4.55173V19.4482C0 19.5641 0.0481405 19.6682 0.124969 19.7433Z" fill="#FF4B55"/>
<path d="M13.0452 10.1141L13.4693 11.3856L14.8096 11.396C14.9832 11.3974 15.0551 11.6188 14.9155 11.7219L13.8373 12.5181L14.2417 13.7961C14.294 13.9616 14.1056 14.0984 13.9644 13.9975L12.874 13.2181L11.7835 13.9975C11.6424 14.0984 11.454 13.9616 11.5063 13.7961L11.9107 12.5181L10.8324 11.7219C10.6928 11.6188 10.7648 11.3974 10.9383 11.396L12.2787 11.3856L12.7028 10.1141C12.7575 9.94944 12.9903 9.94944 13.0452 10.1141Z" fill="#464655"/>
<path d="M19.2327 10.1141L19.6568 11.3856L20.9971 11.396C21.1707 11.3974 21.2426 11.6188 21.103 11.7219L20.0248 12.5181L20.4292 13.7961C20.4815 13.9616 20.2931 14.0984 20.1519 13.9975L19.0615 13.2181L17.971 13.9975C17.8299 14.0984 17.6415 13.9616 17.6938 13.7961L18.0982 12.5181L17.0199 11.7219C16.8803 11.6188 16.9523 11.3974 17.1258 11.396L18.4662 11.3856L18.8903 10.1141C18.9449 9.94944 19.1778 9.94944 19.2327 10.1141Z" fill="#464655"/>
</svg>
