<svg width="24" height="24" viewBox="0 0 24 24" fill="none" xmlns="http://www.w3.org/2000/svg">
<path d="M24 12H0V4.55169C0 4.32317 0.185297 4.13788 0.413812 4.13788H23.5862C23.8147 4.13788 24 4.32317 24 4.55169L24 12Z" fill="#41479B"/>
<path d="M0 12H24V19.4483C24 19.6768 23.8147 19.8621 23.5861 19.8621H0.413812C0.185297 19.8621 0 19.6768 0 19.4483V12Z" fill="#FF4B55"/>
<path d="M7.68885 8.8447C7.68346 8.82881 7.67132 8.81587 7.65566 8.80959C7.65407 8.80898 7.62159 8.7966 7.56946 8.78193C7.59238 8.7509 7.60856 8.71452 7.60856 8.67309C7.60856 8.63756 7.59595 8.6062 7.57865 8.57788C7.63593 8.54587 7.67629 8.48695 7.67629 8.41687C7.67629 8.36132 7.65079 8.31276 7.61216 8.27849C7.65848 8.24446 7.69054 8.1922 7.69054 8.13051C7.69054 8.06165 7.65135 8.00385 7.59571 7.97142C7.62491 7.93842 7.64413 7.89623 7.64413 7.84879C7.64413 7.76624 7.58943 7.69823 7.51499 7.67357C7.53196 7.64545 7.54438 7.61428 7.54438 7.57907C7.54438 7.47764 7.46287 7.39565 7.36195 7.39307C7.36612 7.37751 7.37156 7.36237 7.37156 7.3455C7.37156 7.24242 7.2877 7.15856 7.18457 7.15856C7.16718 7.15856 7.15153 7.16404 7.13554 7.1685C7.13582 7.16437 7.13793 7.16086 7.13793 7.15659C7.13793 7.05351 7.05407 6.96965 6.95099 6.96965C6.91556 6.96965 6.88434 6.98217 6.85603 6.99932C6.83423 6.92029 6.76476 6.86086 6.67893 6.86086C6.62742 6.86086 6.58073 6.88181 6.54689 6.91565C6.51524 6.85725 6.45548 6.81604 6.38451 6.81604C6.31973 6.81604 6.2654 6.85115 6.23184 6.90126C6.19771 6.86498 6.15014 6.84168 6.09651 6.84168C6.02732 6.84168 5.9692 6.8812 5.9369 6.93717C5.90268 6.89882 5.85426 6.87361 5.7989 6.87361C5.73047 6.87361 5.67309 6.91232 5.64051 6.96726C5.60868 6.94223 5.57039 6.92489 5.52689 6.92489C5.44832 6.92489 5.38153 6.97392 5.35392 7.04278C5.32026 7.01025 5.27484 6.98972 5.2244 6.98972C5.15311 6.98972 5.09306 7.03125 5.06156 7.09007C5.04778 7.08154 5.03372 7.07479 5.01792 7.07006C5.05734 7.01184 5.08036 6.94162 5.08036 6.86615C5.08036 6.71967 4.99308 6.59395 4.86825 6.53587L4.92065 6.43101C4.92876 6.41484 4.92876 6.39562 4.92065 6.3794L4.85756 6.25322C4.86215 6.24904 4.86651 6.24469 4.87069 6.24009L4.99701 6.30319C5.00512 6.30722 5.01389 6.30919 5.0227 6.30919C5.03151 6.30919 5.04033 6.30708 5.04839 6.30304L5.35561 6.14944C5.3752 6.13964 5.38748 6.11976 5.38748 6.09797C5.38748 6.07617 5.37515 6.0563 5.35561 6.0465L5.04839 5.89289C5.03222 5.88478 5.01309 5.88478 4.99692 5.89289L4.87073 5.95598C4.86651 5.95134 4.86211 5.94694 4.85751 5.94267L4.92061 5.81648C4.92872 5.80031 4.92872 5.78109 4.92061 5.76487L4.767 5.45766C4.7475 5.41866 4.68342 5.41866 4.66392 5.45766L4.51031 5.76487C4.5022 5.78105 4.5022 5.80031 4.51031 5.81648L4.5734 5.94267C4.56881 5.94684 4.56445 5.9512 4.56028 5.9558L4.43395 5.8927C4.41778 5.88459 4.39865 5.88473 4.38248 5.89284L4.07527 6.04645C4.05567 6.05625 4.04339 6.07612 4.04339 6.09792C4.04339 6.11972 4.05572 6.13959 4.07527 6.14939L4.38248 6.303C4.39059 6.30703 4.39936 6.30914 4.40817 6.30914C4.41703 6.30914 4.4258 6.30703 4.43386 6.303L4.56005 6.2399C4.56426 6.24454 4.56867 6.24895 4.57326 6.25322L4.51017 6.3794C4.50206 6.39558 4.50206 6.41484 4.51017 6.43101L4.56258 6.53587C4.43775 6.5939 4.35047 6.71967 4.35047 6.86615C4.35047 6.94007 4.37292 7.0087 4.41084 7.06622C4.38801 7.07057 4.36734 7.07822 4.34822 7.09012C4.31672 7.03129 4.25667 6.98976 4.18537 6.98976C4.13498 6.98976 4.08952 7.01025 4.05586 7.04282C4.0283 6.97397 3.9615 6.92493 3.88289 6.92493C3.83934 6.92493 3.801 6.94228 3.76927 6.96731C3.73669 6.91237 3.67927 6.87365 3.61088 6.87365C3.55552 6.87365 3.50709 6.89887 3.47288 6.93722C3.44053 6.8812 3.38245 6.84173 3.31327 6.84173C3.25969 6.84173 3.21206 6.86507 3.17794 6.90131C3.14438 6.8512 3.09 6.81609 3.02527 6.81609C2.9543 6.81609 2.89458 6.85729 2.86289 6.9157C2.82905 6.88186 2.78236 6.8609 2.73085 6.8609C2.64497 6.8609 2.5755 6.92034 2.55375 6.99937C2.52553 6.98222 2.49422 6.9697 2.45878 6.9697C2.35571 6.9697 2.27185 7.05356 2.27185 7.15664C2.27185 7.16081 2.27396 7.16442 2.27424 7.16854C2.25825 7.16409 2.2426 7.15861 2.22521 7.15861C2.12208 7.15861 2.03822 7.24246 2.03822 7.34554C2.03822 7.36242 2.04366 7.37756 2.04783 7.39312C1.94691 7.3957 1.86539 7.47768 1.86539 7.57912C1.86539 7.61432 1.87782 7.64549 1.89478 7.67362C1.82035 7.69828 1.76564 7.76625 1.76564 7.84884C1.76564 7.89628 1.78482 7.93846 1.81407 7.97146C1.75847 8.0039 1.71924 8.06165 1.71924 8.13056C1.71924 8.19234 1.7513 8.24451 1.79761 8.27854C1.75899 8.31285 1.73349 8.36137 1.73349 8.41692C1.73349 8.48699 1.77389 8.54592 1.83113 8.57793C1.81383 8.60629 1.80122 8.6376 1.80122 8.67313C1.80122 8.71677 1.81861 8.75521 1.84374 8.78704C1.80211 8.79937 1.77657 8.80907 1.77516 8.80963C1.7595 8.81596 1.74732 8.82881 1.74197 8.84474C1.73658 8.86077 1.7385 8.87835 1.74713 8.89288C1.75168 8.90038 2.20463 9.66098 2.35458 10.4106C2.35828 10.4292 2.37174 10.4411 2.38758 10.4486C2.50275 10.6042 3.50067 10.7258 4.71539 10.7258C5.93011 10.7258 6.92798 10.6042 7.0432 10.4486C7.05904 10.4411 7.07254 10.4292 7.0762 10.4106C7.22601 9.66154 7.67906 8.90038 7.68365 8.89288C7.69232 8.87835 7.69424 8.86077 7.68885 8.8447Z" fill="#FFE15A"/>
<path d="M7.68885 8.8447C7.68346 8.82881 7.67132 8.81587 7.65566 8.80959C7.65407 8.80898 7.62159 8.7966 7.56946 8.78193C7.59238 8.7509 7.60856 8.71452 7.60856 8.67309C7.60856 8.63756 7.59595 8.6062 7.57865 8.57788C7.63593 8.54587 7.67629 8.48695 7.67629 8.41687C7.67629 8.36132 7.65079 8.31276 7.61216 8.27849C7.65848 8.24446 7.69054 8.1922 7.69054 8.13051C7.69054 8.06165 7.65135 8.00385 7.59571 7.97142C7.62491 7.93842 7.64413 7.89623 7.64413 7.84879C7.64413 7.76624 7.58943 7.69823 7.51499 7.67357C7.53196 7.64545 7.54438 7.61428 7.54438 7.57907C7.54438 7.47764 7.46287 7.39565 7.36195 7.39307C7.36612 7.37751 7.37156 7.36237 7.37156 7.3455C7.37156 7.24242 7.2877 7.15856 7.18457 7.15856C7.16718 7.15856 7.15153 7.16404 7.13554 7.1685C7.13582 7.16437 7.13793 7.16086 7.13793 7.15659C7.13793 7.05351 7.05407 6.96965 6.95099 6.96965C6.91556 6.96965 6.88434 6.98217 6.85603 6.99932C6.83423 6.92029 6.76476 6.86086 6.67893 6.86086C6.62742 6.86086 6.58073 6.88181 6.54689 6.91565C6.51524 6.85725 6.45548 6.81604 6.38451 6.81604C6.31973 6.81604 6.2654 6.85115 6.23184 6.90126C6.19771 6.86498 6.15014 6.84168 6.09651 6.84168C6.02732 6.84168 5.9692 6.8812 5.9369 6.93717C5.90268 6.89882 5.85426 6.87361 5.7989 6.87361C5.73047 6.87361 5.67309 6.91232 5.64051 6.96726C5.60868 6.94223 5.57039 6.92489 5.52689 6.92489C5.44832 6.92489 5.38153 6.97392 5.35392 7.04278C5.32026 7.01025 5.27484 6.98972 5.2244 6.98972C5.15311 6.98972 5.09306 7.03125 5.06156 7.09007C5.04778 7.08154 5.03372 7.07479 5.01792 7.07006C5.05734 7.01184 5.08036 6.94162 5.08036 6.86615C5.08036 6.71967 4.99308 6.59395 4.86825 6.53587L4.92065 6.43101C4.92876 6.41484 4.92876 6.39562 4.92065 6.3794L4.85756 6.25322C4.86215 6.24904 4.86651 6.24469 4.87069 6.24009L4.99701 6.30319C5.00512 6.30722 5.01389 6.30919 5.0227 6.30919C5.03151 6.30919 5.04033 6.30708 5.04839 6.30304L5.35561 6.14944C5.3752 6.13964 5.38748 6.11976 5.38748 6.09797C5.38748 6.07617 5.37515 6.0563 5.35561 6.0465L5.04839 5.89289C5.03222 5.88478 5.01309 5.88478 4.99692 5.89289L4.87073 5.95598C4.86651 5.95134 4.86211 5.94694 4.85751 5.94267L4.92061 5.81648C4.92872 5.80031 4.92872 5.78109 4.92061 5.76487L4.767 5.45766C4.7475 5.41866 4.68342 5.41866 4.66392 5.45766L4.51031 5.76487C4.5022 5.78105 4.5022 5.80031 4.51031 5.81648L4.5734 5.94267C4.56881 5.94684 4.56445 5.9512 4.56028 5.9558L4.43395 5.8927C4.41778 5.88459 4.39865 5.88473 4.38248 5.89284L4.07527 6.04645C4.05567 6.05625 4.04339 6.07612 4.04339 6.09792C4.04339 6.11972 4.05572 6.13959 4.07527 6.14939L4.38248 6.303C4.39059 6.30703 4.39936 6.30914 4.40817 6.30914C4.41703 6.30914 4.4258 6.30703 4.43386 6.303L4.56005 6.2399C4.56426 6.24454 4.56867 6.24895 4.57326 6.25322L4.51017 6.3794C4.50206 6.39558 4.50206 6.41484 4.51017 6.43101L4.56258 6.53587C4.43775 6.5939 4.35047 6.71967 4.35047 6.86615C4.35047 6.94007 4.37292 7.0087 4.41084 7.06622C4.38801 7.07057 4.36734 7.07822 4.34822 7.09012C4.31672 7.03129 4.25667 6.98976 4.18537 6.98976C4.13498 6.98976 4.08952 7.01025 4.05586 7.04282C4.0283 6.97397 3.9615 6.92493 3.88289 6.92493C3.83934 6.92493 3.801 6.94228 3.76927 6.96731C3.73669 6.91237 3.67927 6.87365 3.61088 6.87365C3.55552 6.87365 3.50709 6.89887 3.47288 6.93722C3.44053 6.8812 3.38245 6.84173 3.31327 6.84173C3.25969 6.84173 3.21206 6.86507 3.17794 6.90131C3.14438 6.8512 3.09 6.81609 3.02527 6.81609C2.9543 6.81609 2.89458 6.85729 2.86289 6.9157C2.82905 6.88186 2.78236 6.8609 2.73085 6.8609C2.64497 6.8609 2.5755 6.92034 2.55375 6.99937C2.52553 6.98222 2.49422 6.9697 2.45878 6.9697C2.35571 6.9697 2.27185 7.05356 2.27185 7.15664C2.27185 7.16081 2.27396 7.16442 2.27424 7.16854C2.25825 7.16409 2.2426 7.15861 2.22521 7.15861C2.12208 7.15861 2.03822 7.24246 2.03822 7.34554C2.03822 7.36242 2.04366 7.37756 2.04783 7.39312C1.94691 7.3957 1.86539 7.47768 1.86539 7.57912C1.86539 7.61432 1.87782 7.64549 1.89478 7.67362C1.82035 7.69828 1.76564 7.76625 1.76564 7.84884C1.76564 7.89628 1.78482 7.93846 1.81407 7.97146C1.75847 8.0039 1.71924 8.06165 1.71924 8.13056C1.71924 8.19234 1.7513 8.24451 1.79761 8.27854C1.75899 8.31285 1.73349 8.36137 1.73349 8.41692C1.73349 8.48699 1.77389 8.54592 1.83113 8.57793C1.81383 8.60629 1.80122 8.6376 1.80122 8.67313C1.80122 8.71677 1.81861 8.75521 1.84374 8.78704C1.80211 8.79937 1.77657 8.80907 1.77516 8.80963C1.7595 8.81596 1.74732 8.82881 1.74197 8.84474C1.73658 8.86077 1.7385 8.87835 1.74713 8.89288C1.75168 8.90038 2.20463 9.66098 2.35458 10.4106C2.35828 10.4292 2.37174 10.4411 2.38758 10.4486C2.50275 10.6042 3.50067 10.7258 4.71539 10.7258C5.93011 10.7258 6.92798 10.6042 7.0432 10.4486C7.05904 10.4411 7.07254 10.4292 7.0762 10.4106C7.22601 9.66154 7.67906 8.90038 7.68365 8.89288C7.69232 8.87835 7.69424 8.86077 7.68885 8.8447ZM6.06032 8.47363V7.57209C6.1334 7.56576 6.20446 7.56375 6.27281 7.56614V8.5027C6.20925 8.47199 6.13748 8.46304 6.06032 8.47363ZM5.39723 7.2457C5.39883 7.24725 5.40108 7.2479 5.40272 7.2494C5.40028 7.24992 5.39784 7.25043 5.39536 7.251C5.39615 7.24922 5.39658 7.24743 5.39723 7.2457ZM7.42157 8.60137C7.46109 8.60137 7.49324 8.63348 7.49324 8.67304C7.49324 8.71265 7.46109 8.74471 7.42157 8.74471C7.38206 8.74471 7.3499 8.7126 7.3499 8.67304C7.3499 8.63348 7.38206 8.60137 7.42157 8.60137ZM7.48921 8.48854C7.4497 8.48854 7.41754 8.45643 7.41754 8.41687C7.41754 8.37726 7.4497 8.3452 7.48921 8.3452C7.52882 8.3452 7.56102 8.37731 7.56102 8.41687C7.56102 8.45648 7.52887 8.48854 7.48921 8.48854ZM7.43188 8.13046C7.43188 8.09085 7.46404 8.05879 7.50356 8.05879C7.54307 8.05879 7.57523 8.0909 7.57523 8.13046C7.57523 8.17007 7.54307 8.20214 7.50356 8.20214C7.46404 8.20214 7.43188 8.17007 7.43188 8.13046ZM5.28965 8.8447C5.22084 8.58309 5.13154 8.18929 5.09386 7.79564C5.13347 7.78176 5.20153 7.75903 5.28965 7.73235V8.8447ZM4.32937 7.80032C4.28883 8.21924 4.18987 8.63887 4.12017 8.8972V7.73226C4.21898 7.76217 4.29309 7.78743 4.32937 7.80032ZM4.78715 7.32698C4.78715 7.36659 4.755 7.39865 4.71548 7.39865C4.67597 7.39865 4.64381 7.36654 4.64381 7.32698C4.64381 7.28737 4.67597 7.25531 4.71548 7.25531C4.755 7.25521 4.78715 7.28737 4.78715 7.32698ZM4.01264 7.24607L4.01217 7.24598C4.01217 7.24598 4.01245 7.24584 4.01255 7.2457C4.01259 7.24584 4.01259 7.24598 4.01264 7.24607ZM1.90622 8.05879C1.94574 8.05879 1.97789 8.0909 1.97789 8.13046C1.97789 8.17007 1.94574 8.20214 1.90622 8.20214C1.86671 8.20214 1.83455 8.17003 1.83455 8.13046C1.8345 8.09085 1.86671 8.05879 1.90622 8.05879ZM1.99224 8.41687C1.99224 8.45648 1.96008 8.48854 1.92057 8.48854C1.88096 8.48854 1.84875 8.45643 1.84875 8.41687C1.84875 8.37726 1.88091 8.3452 1.92057 8.3452C1.96008 8.34515 1.99224 8.37721 1.99224 8.41687ZM1.98821 8.60137C2.02772 8.60137 2.05988 8.63348 2.05988 8.67304C2.05988 8.71265 2.02772 8.74471 1.98821 8.74471C1.94869 8.74471 1.91653 8.7126 1.91653 8.67304C1.91649 8.63348 1.94869 8.60137 1.98821 8.60137ZM2.28403 7.63078C2.39682 7.44834 2.61694 7.23093 3.0256 7.23093C3.42459 7.23093 3.98756 7.35285 4.34812 7.44248C4.34826 7.52067 4.3447 7.60082 4.33917 7.68145C4.09317 7.59581 3.11475 7.28264 2.6986 7.56745C2.22764 7.89042 2.37647 8.50649 2.46446 8.76163C2.38955 8.74134 2.3138 8.73215 2.24128 8.7307C2.07118 8.3894 2.08824 7.9476 2.28403 7.63078ZM2.60855 8.81751C2.56805 8.72334 2.30907 8.07196 2.69405 7.7197V8.86898C2.66639 8.8492 2.63771 8.83246 2.60855 8.81751ZM2.80927 7.63856C2.87011 7.60701 2.94183 7.58657 3.02175 7.5757V8.60085C2.9062 8.71799 2.85483 8.8792 2.83219 9.00041C2.82488 8.99123 2.81681 8.98382 2.80922 8.97524L2.80927 7.63856ZM3.13702 7.56604C3.20536 7.56365 3.27642 7.56567 3.3495 7.572V8.4726C3.33694 8.47148 3.32381 8.46824 3.31153 8.46824C3.25491 8.46824 3.20175 8.4801 3.15347 8.50438C3.14752 8.50734 3.14269 8.51137 3.13697 8.51451V7.566L3.13702 7.56604ZM3.46472 7.58437C3.53611 7.59384 3.60736 7.60626 3.6772 7.62023V8.60634C3.60408 8.5559 3.53292 8.51943 3.46472 8.49717V7.58437ZM3.79247 7.64498C3.86798 7.66237 3.93928 7.6806 4.00495 7.69893V8.91824C3.94144 8.83785 3.86827 8.76182 3.79247 8.69568V7.64498ZM4.46283 7.47159C4.54945 7.49409 4.6178 7.51279 4.65787 7.52409V8.50115C4.50173 8.51695 4.38244 8.59668 4.29141 8.6947C4.3725 8.35692 4.45983 7.89595 4.46283 7.47159ZM4.77304 7.52409C4.81209 7.51312 4.87762 7.49512 4.96097 7.47346C4.96415 7.89351 5.04979 8.34895 5.13014 8.68546C5.04023 8.5919 4.92408 8.51648 4.77309 8.50124V7.52414L4.77304 7.52409ZM5.40487 7.69903C5.47059 7.68075 5.54184 7.66246 5.61736 7.64507V8.70473C5.61736 8.7074 5.61853 8.70974 5.6189 8.71237C5.54133 8.78245 5.46787 8.86284 5.40487 8.94623V7.69903ZM5.73257 7.62032C5.80246 7.60635 5.87367 7.59393 5.94506 7.58446V8.50256C5.87671 8.52763 5.80542 8.56743 5.73257 8.62007V7.62032ZM6.38803 7.57579C6.46799 7.58667 6.53967 7.60701 6.60051 7.6386V8.98804C6.60051 8.99104 6.60173 8.99366 6.6022 8.99652C6.60107 8.99798 6.59976 8.99905 6.59864 9.00046C6.57473 8.8724 6.51782 8.70056 6.38803 8.58238V7.57579ZM6.71573 7.71979C7.12818 8.09742 6.79963 8.82159 6.79607 8.82927C6.7957 8.83007 6.79579 8.83087 6.79551 8.83166C6.76814 8.84723 6.74165 8.86551 6.71573 8.88562V7.71979ZM6.71114 7.56745C6.30323 7.28807 5.35298 7.58432 5.08415 7.67676C5.07886 7.59834 5.07544 7.52043 5.07558 7.44431C5.43576 7.35445 6.00361 7.23093 6.40523 7.23093C6.81388 7.23093 7.03406 7.44834 7.14679 7.63078C7.34259 7.94765 7.3597 8.3894 7.18959 8.73074C7.10943 8.73234 7.02543 8.74363 6.94293 8.76871C7.03054 8.51788 7.18635 7.89332 6.71114 7.56745ZM7.45715 7.92046C7.41763 7.92046 7.38548 7.88835 7.38548 7.84879C7.38548 7.80918 7.41763 7.77712 7.45715 7.77712C7.49676 7.77712 7.52896 7.80923 7.52896 7.84879C7.52896 7.88835 7.49671 7.92046 7.45715 7.92046ZM7.42917 7.57898C7.42917 7.61859 7.39701 7.65084 7.35735 7.65084C7.31784 7.65084 7.28568 7.61854 7.28568 7.57898C7.28568 7.53937 7.31784 7.50731 7.35735 7.50731C7.39701 7.50731 7.42917 7.53937 7.42917 7.57898ZM7.25638 7.3454C7.25638 7.38501 7.22423 7.41707 7.18457 7.41707C7.14506 7.41707 7.1129 7.38496 7.1129 7.3454C7.1129 7.30579 7.14506 7.27373 7.18457 7.27373C7.22413 7.27368 7.25638 7.30584 7.25638 7.3454ZM6.95099 7.08482C6.99051 7.08482 7.02267 7.11693 7.02267 7.1565C7.02267 7.19611 6.99051 7.22836 6.95099 7.22836C6.91139 7.22836 6.87918 7.19606 6.87918 7.1565C6.87918 7.11693 6.91139 7.08482 6.95099 7.08482ZM6.67893 6.97603C6.71845 6.97603 6.7506 7.00814 6.7506 7.0477C6.7506 7.08731 6.71845 7.11937 6.67893 7.11937C6.63942 7.11937 6.60726 7.08726 6.60726 7.0477C6.60721 7.00814 6.63942 6.97603 6.67893 6.97603ZM6.38451 6.93117C6.42403 6.93117 6.45618 6.96328 6.45618 7.00284C6.45618 7.04245 6.42403 7.0747 6.38451 7.0747C6.3449 7.0747 6.3127 7.0424 6.3127 7.00284C6.3127 6.96332 6.3449 6.93117 6.38451 6.93117ZM6.09646 6.95686C6.13598 6.95686 6.16814 6.98897 6.16814 7.02853C6.16814 7.06809 6.13598 7.1002 6.09646 7.1002C6.05686 7.1002 6.02465 7.06809 6.02465 7.02853C6.02465 6.98897 6.05686 6.95686 6.09646 6.95686ZM5.79886 6.98882C5.83837 6.98882 5.87053 7.02093 5.87053 7.0605C5.87053 7.10011 5.83837 7.13236 5.79886 7.13236C5.75925 7.13236 5.72704 7.10006 5.72704 7.0605C5.72704 7.02093 5.7592 6.98882 5.79886 6.98882ZM5.52675 7.04011C5.56626 7.04011 5.59842 7.07222 5.59842 7.11178C5.59842 7.15134 5.56626 7.18345 5.52675 7.18345C5.48723 7.18345 5.45507 7.15134 5.45507 7.11178C5.45507 7.07222 5.48723 7.04011 5.52675 7.04011ZM5.22436 7.10493C5.26387 7.10493 5.29603 7.13704 5.29603 7.17661C5.29603 7.21617 5.26387 7.24828 5.22436 7.24828C5.18484 7.24828 5.15268 7.21617 5.15268 7.17661C5.15268 7.13704 5.18475 7.10493 5.22436 7.10493ZM4.96509 7.31793C4.92558 7.31793 4.89342 7.28582 4.89342 7.24626C4.89342 7.20665 4.92558 7.17459 4.96509 7.17459C5.00461 7.17459 5.03676 7.2067 5.03676 7.24626C5.03676 7.28587 5.00461 7.31793 4.96509 7.31793ZM4.61944 6.09797C4.61944 6.045 4.66247 6.00197 4.71544 6.00197C4.7684 6.00197 4.81144 6.045 4.81144 6.09797C4.81144 6.15094 4.7684 6.19397 4.71544 6.19397C4.66251 6.19401 4.61944 6.15094 4.61944 6.09797ZM5.02265 6.00872L5.20111 6.09801L5.02265 6.18731L4.92267 6.1373C4.92511 6.1245 4.92665 6.11147 4.92665 6.09801C4.92665 6.08456 4.92511 6.07148 4.92267 6.05869L5.02265 6.00872ZM4.62623 5.7907L4.71539 5.6123L4.80455 5.7907L4.75453 5.89069C4.74183 5.88825 4.72875 5.8867 4.71534 5.8867C4.70189 5.8867 4.68886 5.88825 4.67615 5.89069L4.62623 5.7907ZM4.40817 6.18722L4.22972 6.09792L4.40817 6.00862L4.50815 6.05864C4.50572 6.07144 4.50417 6.08447 4.50417 6.09792C4.50417 6.11137 4.50572 6.12445 4.50815 6.13725L4.40817 6.18722ZM4.62623 6.40519L4.67625 6.3052C4.68895 6.30764 4.70203 6.30919 4.71544 6.30919C4.72884 6.30919 4.74192 6.30764 4.75462 6.3052L4.80464 6.40519L4.75467 6.50517C4.74164 6.50376 4.72889 6.50119 4.71548 6.50119C4.70203 6.50119 4.68933 6.50372 4.6763 6.50517L4.62623 6.40519ZM4.71544 6.61645C4.85306 6.61645 4.96504 6.72839 4.96504 6.86606C4.96504 7.00378 4.85306 7.11567 4.71544 7.11567C4.57781 7.11567 4.46583 7.00373 4.46583 6.86606C4.46583 6.72839 4.57776 6.61645 4.71544 6.61645ZM4.44473 7.17454C4.48425 7.17454 4.5164 7.20665 4.5164 7.24621C4.5164 7.28582 4.48425 7.31789 4.44473 7.31789C4.40522 7.31789 4.37306 7.28578 4.37306 7.24621C4.37301 7.20661 4.40517 7.17454 4.44473 7.17454ZM4.18551 7.10493C4.22503 7.10493 4.25719 7.13704 4.25719 7.17661C4.25719 7.21617 4.22503 7.24828 4.18551 7.24828C4.146 7.24828 4.11384 7.21617 4.11384 7.17661C4.11384 7.13704 4.14595 7.10493 4.18551 7.10493ZM3.88303 7.04011C3.92255 7.04011 3.9547 7.07222 3.9547 7.11178C3.9547 7.15134 3.92255 7.18345 3.88303 7.18345C3.84352 7.18345 3.81136 7.15134 3.81136 7.11178C3.81136 7.07222 3.84352 7.04011 3.88303 7.04011ZM3.61102 6.98882C3.65063 6.98882 3.68283 7.02093 3.68283 7.0605C3.68283 7.10011 3.65067 7.13236 3.61102 7.13236C3.5715 7.13236 3.53934 7.10006 3.53934 7.0605C3.53925 7.02093 3.57145 6.98882 3.61102 6.98882ZM3.31336 6.95686C3.35297 6.95686 3.38517 6.98897 3.38517 7.02853C3.38517 7.06809 3.35302 7.1002 3.31336 7.1002C3.27384 7.1002 3.24169 7.06809 3.24169 7.02853C3.24169 6.98897 3.27384 6.95686 3.31336 6.95686ZM3.02527 6.93117C3.06488 6.93117 3.09708 6.96328 3.09708 7.00284C3.09708 7.04245 3.06492 7.0747 3.02527 7.0747C2.98575 7.0747 2.9536 7.0424 2.9536 7.00284C2.9536 6.96332 2.98575 6.93117 3.02527 6.93117ZM2.73089 6.97603C2.77041 6.97603 2.80256 7.00814 2.80256 7.0477C2.80256 7.08731 2.77041 7.11937 2.73089 7.11937C2.69138 7.11937 2.65922 7.08726 2.65922 7.0477C2.65917 7.00814 2.69138 6.97603 2.73089 6.97603ZM2.45883 7.08482C2.49844 7.08482 2.53064 7.11693 2.53064 7.1565C2.53064 7.19611 2.49849 7.22836 2.45883 7.22836C2.41932 7.22836 2.38716 7.19606 2.38716 7.1565C2.38711 7.11693 2.41927 7.08482 2.45883 7.08482ZM2.22525 7.27368C2.26477 7.27368 2.29692 7.30579 2.29692 7.34536C2.29692 7.38496 2.26477 7.41703 2.22525 7.41703C2.18564 7.41703 2.15344 7.38492 2.15344 7.34536C2.15349 7.30584 2.18564 7.27368 2.22525 7.27368ZM2.05243 7.50731C2.09194 7.50731 2.1241 7.53942 2.1241 7.57898C2.1241 7.61859 2.09194 7.65084 2.05243 7.65084C2.01282 7.65084 1.98061 7.61854 1.98061 7.57898C1.98061 7.53937 2.01286 7.50731 2.05243 7.50731ZM1.95263 7.77703C1.99214 7.77703 2.0243 7.80914 2.0243 7.8487C2.0243 7.88831 1.99214 7.92037 1.95263 7.92037C1.91302 7.92037 1.88082 7.88826 1.88082 7.8487C1.88091 7.80909 1.91307 7.77703 1.95263 7.77703ZM6.97396 10.3396C6.70832 10.2082 5.79928 10.1113 4.71548 10.1113C3.63169 10.1113 2.7226 10.2082 2.45696 10.3396C2.31957 9.70358 1.99107 9.08821 1.88157 8.89481C2.064 8.83884 2.58628 8.72784 2.82047 9.19621C2.83247 9.22007 2.85942 9.23268 2.88525 9.22654C2.91127 9.2204 2.92969 9.19715 2.92969 9.17043C2.92969 9.16626 2.93283 8.74359 3.20508 8.60742C3.47466 8.47331 3.91078 8.91852 4.04953 9.19626C4.04953 9.19626 4.04967 9.19635 4.04967 9.19645C4.05422 9.20549 4.06181 9.21248 4.07058 9.2181C4.07241 9.21923 4.07409 9.22026 4.07606 9.22115C4.07855 9.22237 4.08052 9.22429 4.08323 9.22518C4.08919 9.22715 4.09519 9.22804 4.10105 9.22804C4.10212 9.22804 4.10302 9.2271 4.10409 9.22705C4.10522 9.22705 4.10611 9.22776 4.10728 9.22771C4.11272 9.2271 4.1167 9.2234 4.12158 9.22138C4.12673 9.21932 4.13194 9.21834 4.1363 9.21491C4.14164 9.21074 4.14445 9.2047 4.14811 9.19884C4.1505 9.19495 4.15448 9.19265 4.15598 9.18815C4.15767 9.18285 4.16484 9.16049 4.17544 9.12562C4.22578 8.98007 4.3853 8.6136 4.71562 8.6136C4.99598 8.6136 5.15325 8.87765 5.22529 9.04659C5.24878 9.12773 5.26533 9.17971 5.26809 9.18815C5.27606 9.21262 5.29861 9.22804 5.32293 9.22804C5.32879 9.22804 5.33479 9.22715 5.34075 9.22518C5.34178 9.2248 5.34253 9.22401 5.34356 9.22363C5.35959 9.21955 5.37407 9.21154 5.38172 9.19626C5.52056 8.91838 5.95706 8.4742 6.22617 8.60742C6.24426 8.61646 6.261 8.62696 6.27675 8.63835C6.29235 8.65152 6.3029 8.66127 6.32071 8.67557C6.49814 8.84873 6.50156 9.16673 6.50156 9.17043C6.5016 9.1971 6.52003 9.2204 6.546 9.22654C6.57215 9.23254 6.59882 9.22007 6.61078 9.19621C6.84449 8.72887 7.36687 8.83916 7.54963 8.89499C7.43976 9.08854 7.11135 9.70377 6.97396 10.3396Z" fill="#464655"/>
<path d="M4.94263 9.07315C4.93518 9.07929 4.92791 9.08581 4.92069 9.09256C4.86482 9.14515 4.7729 9.10386 4.7729 9.02707V9.01672C4.7729 8.98489 4.74707 8.95911 4.71529 8.95911C4.68351 8.95911 4.65768 8.98493 4.65768 9.01672V9.02707C4.65768 9.10386 4.5658 9.14515 4.50988 9.09256C4.50276 9.08586 4.4954 9.07939 4.48795 9.07315C4.46348 9.05304 4.4271 9.05604 4.40685 9.08079C4.38651 9.10526 4.38988 9.14159 4.4144 9.16193C4.57181 9.29229 4.65759 9.60059 4.65759 9.72242V9.78485C4.65759 9.81668 4.68341 9.84246 4.7152 9.84246C4.74698 9.84246 4.7728 9.81664 4.7728 9.78485V9.72242C4.7728 9.60059 4.85863 9.29234 5.01599 9.16193C5.04051 9.14154 5.04388 9.10526 5.02354 9.08079C5.00343 9.05628 4.9671 9.05309 4.94263 9.07315Z" fill="#464655"/>
<path d="M6.24895 9.31516C6.24215 9.31464 6.23545 9.31445 6.22865 9.31464C6.1747 9.31834 6.12201 9.24175 6.14817 9.18231C6.14925 9.17983 6.15037 9.1773 6.1515 9.17477C6.16158 9.1518 6.15389 9.1142 6.13467 9.08978C6.1155 9.06541 6.09061 9.06672 6.0787 9.09372C6.07748 9.09663 6.07617 9.09944 6.07486 9.10239C6.04767 9.16417 5.96934 9.1457 5.95701 9.05491C5.95547 9.04324 5.95387 9.03138 5.95204 9.01956C5.946 8.98117 5.92392 8.95455 5.90039 8.96519C5.877 8.97541 5.8612 9.01849 5.86683 9.05749C5.90015 9.31502 5.86195 9.58661 5.81831 9.68537C5.81067 9.70281 5.80294 9.72025 5.79529 9.73773C5.78344 9.76464 5.79858 9.78545 5.82947 9.7832C5.8604 9.78086 5.89401 9.75962 5.90414 9.7367C5.91084 9.72152 5.91754 9.70628 5.9242 9.69105C5.96554 9.59683 6.13875 9.38791 6.28064 9.39873C6.30347 9.39859 6.31317 9.38373 6.30408 9.36142C6.29503 9.3393 6.27098 9.31703 6.24895 9.31516Z" fill="#464655"/>
<path d="M7.10358 9.49444C7.09795 9.49444 7.09237 9.49477 7.0867 9.49543C7.04142 9.50297 7.00303 9.43271 7.02918 9.37327C7.03026 9.37079 7.03139 9.36825 7.03251 9.36572C7.04259 9.34275 7.03893 9.3069 7.02468 9.28472C7.01048 9.26255 6.98962 9.2656 6.97772 9.29265C6.9765 9.29555 6.97518 9.29836 6.97387 9.30127C6.94668 9.36305 6.8827 9.35086 6.879 9.26391C6.87858 9.25271 6.87806 9.24136 6.87745 9.23007C6.87525 9.19336 6.85875 9.16918 6.83831 9.18122C6.81801 9.19285 6.80175 9.23569 6.80362 9.273C6.81262 9.5199 6.76097 9.78554 6.71733 9.8843C6.70969 9.90174 6.70195 9.91918 6.69431 9.93666C6.68245 9.96357 6.69361 9.9826 6.71953 9.97819C6.74554 9.97364 6.77512 9.95068 6.7852 9.92771C6.7919 9.91252 6.79861 9.89728 6.80526 9.88205C6.84661 9.78783 7.00636 9.573 7.12392 9.57314C7.143 9.57132 7.15214 9.55627 7.14623 9.53532C7.14032 9.51446 7.12186 9.49458 7.10358 9.49444Z" fill="#464655"/>
<path d="M3.61168 9.6855C3.56804 9.58678 3.52984 9.31514 3.56316 9.05761C3.56879 9.01865 3.55299 8.97562 3.5296 8.96531C3.50607 8.95467 3.48395 8.9813 3.47795 9.01969C3.47612 9.0315 3.47452 9.04326 3.47298 9.05503C3.4606 9.14583 3.38232 9.1642 3.35513 9.10251C3.35382 9.09961 3.3526 9.0967 3.35129 9.09384C3.33938 9.06679 3.31459 9.06553 3.29532 9.0899C3.27615 9.11433 3.26841 9.15187 3.27849 9.17489C3.27957 9.17742 3.2807 9.17995 3.28182 9.18244C3.30798 9.24187 3.25524 9.31847 3.20134 9.31476C3.19454 9.31458 3.18784 9.31476 3.18104 9.31528C3.15901 9.31715 3.13491 9.33937 3.12582 9.36159C3.11673 9.3839 3.12643 9.39872 3.14926 9.3989C3.29115 9.38803 3.46435 9.59695 3.5057 9.69122C3.51235 9.7064 3.5191 9.72164 3.52576 9.73687C3.53584 9.75984 3.56945 9.78103 3.60043 9.78337C3.63137 9.78567 3.64646 9.76486 3.6346 9.7379C3.62701 9.72037 3.61937 9.70293 3.61168 9.6855Z" fill="#464655"/>
<path d="M2.71261 9.88418C2.66901 9.78546 2.61731 9.51977 2.62631 9.27288C2.62818 9.23557 2.61182 9.19277 2.59162 9.1811C2.57118 9.16905 2.55468 9.19324 2.55248 9.22995C2.55182 9.24124 2.55136 9.25254 2.55093 9.26379C2.54728 9.35074 2.48329 9.36288 2.45606 9.30115C2.45475 9.29824 2.45353 9.29534 2.45222 9.29252C2.44031 9.26548 2.4195 9.26243 2.40525 9.2846C2.39104 9.30677 2.38729 9.34263 2.39742 9.3656C2.3985 9.36813 2.39962 9.37066 2.40075 9.37315C2.4269 9.43259 2.38847 9.50285 2.34323 9.4953C2.33756 9.49465 2.33193 9.49432 2.32636 9.49432C2.30808 9.49446 2.28965 9.51429 2.28365 9.53515C2.2777 9.55605 2.28693 9.57115 2.30597 9.57298C2.42353 9.57284 2.58332 9.78762 2.62462 9.88188C2.63128 9.89707 2.63803 9.9123 2.64468 9.92754C2.65476 9.95051 2.68439 9.97348 2.71036 9.97802C2.73632 9.98248 2.74743 9.96344 2.73557 9.93649C2.72798 9.9191 2.72029 9.90162 2.71261 9.88418Z" fill="#464655"/>
</svg>
