<svg width="24" height="24" viewBox="0 0 24 24" fill="none" xmlns="http://www.w3.org/2000/svg">
<path d="M24 12H0V4.55169C0 4.32317 0.185297 4.13788 0.413812 4.13788H23.5862C23.8147 4.13788 24 4.32317 24 4.55169L24 12Z" fill="#FF4B55"/>
<path d="M0 11.9999H24V19.4482C24 19.6767 23.8147 19.862 23.5861 19.862H0.413812C0.185297 19.862 0 19.6767 0 19.4482V11.9999Z" fill="#F5F5F5"/>
<path d="M3.40172 8.07478C3.40172 6.7141 4.40016 5.58615 5.70389 5.37751C5.77467 5.36616 5.77786 5.26881 5.70802 5.25268C5.38524 5.17848 5.04244 5.15734 4.68647 5.20581C3.28032 5.39734 2.19338 6.61421 2.17351 8.03321C2.15087 9.65348 3.45708 10.9728 5.06967 10.9728C5.28919 10.9728 5.50233 10.9472 5.70745 10.9C5.77725 10.884 5.77374 10.7864 5.70305 10.775C4.39983 10.5665 3.40172 9.44077 3.40172 8.07478Z" fill="#F5F5F5"/>
<path d="M5.7253 8.80286L5.60282 9.17017L5.21568 9.17317C5.16557 9.17359 5.14475 9.23753 5.18511 9.2673L5.49655 9.49731L5.37974 9.86645C5.36464 9.91426 5.41907 9.95378 5.4598 9.92462L5.7748 9.69948L6.0898 9.92462C6.13058 9.95378 6.18495 9.91422 6.16986 9.86645L6.05305 9.49731L6.36449 9.2673C6.40485 9.23748 6.38403 9.17359 6.33392 9.17317L5.94678 9.17017L5.8243 8.80286C5.80841 8.75533 5.74114 8.75533 5.7253 8.80286Z" fill="#F5F5F5"/>
<path d="M7.63912 8.80286L7.51663 9.17017L7.12949 9.17317C7.07938 9.17359 7.05857 9.23753 7.09893 9.2673L7.41037 9.49731L7.29356 9.86645C7.27846 9.91426 7.33288 9.95378 7.37362 9.92462L7.68862 9.69948L8.00362 9.92462C8.0444 9.95378 8.09877 9.91422 8.08368 9.86645L7.96687 9.49731L8.2783 9.2673C8.31866 9.23748 8.29785 9.17359 8.24774 9.17317L7.8606 9.17017L7.73812 8.80286C7.72223 8.75533 7.65501 8.75533 7.63912 8.80286Z" fill="#F5F5F5"/>
<path d="M6.69088 5.84949L6.56839 6.2168L6.18125 6.2198C6.13114 6.22022 6.11033 6.28416 6.15069 6.31393L6.46213 6.54394L6.34531 6.91308C6.33022 6.9609 6.38464 7.00041 6.42538 6.97125L6.74038 6.74611L7.05538 6.97125C7.09616 7.00041 7.15053 6.96085 7.13544 6.91308L7.01862 6.54394L7.33006 6.31393C7.37042 6.28412 7.34961 6.22022 7.2995 6.2198L6.91236 6.2168L6.78988 5.84949C6.77398 5.80196 6.70672 5.80196 6.69088 5.84949Z" fill="#F5F5F5"/>
<path d="M5.165 6.98096L5.04251 7.34827L4.65537 7.35127C4.60526 7.35169 4.58445 7.41563 4.62481 7.4454L4.93625 7.67541L4.81943 8.04455C4.80434 8.09237 4.85876 8.13188 4.8995 8.10272L5.2145 7.87758L5.5295 8.10272C5.57028 8.13188 5.62465 8.09232 5.60956 8.04455L5.49275 7.67541L5.80418 7.4454C5.84454 7.41559 5.82373 7.35169 5.77362 7.35127L5.38648 7.34827L5.264 6.98096C5.24811 6.93343 5.18089 6.93343 5.165 6.98096Z" fill="#F5F5F5"/>
<path d="M8.20382 6.98096L8.08133 7.34827L7.69419 7.35127C7.64408 7.35169 7.62327 7.41563 7.66363 7.4454L7.97507 7.67541L7.85825 8.04455C7.84316 8.09237 7.89758 8.13188 7.93832 8.10272L8.25332 7.87758L8.56831 8.10272C8.6091 8.13188 8.66347 8.09232 8.64838 8.04455L8.53156 7.67541L8.843 7.4454C8.88336 7.41559 8.86255 7.35169 8.81244 7.35127L8.4253 7.34827L8.30282 6.98096C8.28692 6.93343 8.21966 6.93343 8.20382 6.98096Z" fill="#F5F5F5"/>
</svg>
