<svg width="24" height="24" viewBox="0 0 24 24" fill="none" xmlns="http://www.w3.org/2000/svg">
<path d="M24 9.37935H0V4.55175C0 4.32324 0.185297 4.13794 0.413812 4.13794H23.5862C23.8147 4.13794 24 4.32324 24 4.55175L24 9.37935Z" fill="#464655"/>
<path d="M23.5861 19.862H0.413812C0.185297 19.862 0 19.6767 0 19.4482V14.6207H24V19.4482C24 19.6768 23.8147 19.862 23.5861 19.862Z" fill="#73AF00"/>
<path d="M24 9.37921H0V14.6203H24V9.37921Z" fill="#FF4B55"/>
<path d="M4.47175 10.9296L4.7177 11.463L5.28812 11.3227C5.32374 11.314 5.35323 11.3509 5.33677 11.3837L5.07306 11.9086L5.53843 12.2671C5.56749 12.2895 5.55695 12.3357 5.52104 12.3432L4.94621 12.4643L4.9561 13.0517C4.95671 13.0883 4.91406 13.1089 4.88579 13.0856L4.43275 12.7117L3.9797 13.0856C3.95139 13.1089 3.90878 13.0884 3.90939 13.0517L3.91928 12.4643L3.34445 12.3432C3.30854 12.3357 3.29804 12.2895 3.32706 12.2671L3.79243 11.9086L3.52872 11.3837C3.51226 11.3509 3.54175 11.3139 3.57737 11.3227L4.14779 11.463L4.39375 10.9296C4.40907 10.8963 4.45646 10.8963 4.47175 10.9296Z" fill="#F5F5F5"/>
<path d="M24 9.10358H0V9.80717H24V9.10358Z" fill="#F5F5F5"/>
<path d="M24 14.1932H0V14.8968H24V14.1932Z" fill="#F5F5F5"/>
<path d="M0.134859 19.75L10.9312 12.1693C11.0486 12.0869 11.0486 11.9131 10.9312 11.8307L0.134859 4.24994C0.0530155 4.3256 0 4.43149 0 4.55172V19.4482C0 19.5684 0.0530155 19.6744 0.134859 19.75Z" fill="#41479B"/>
<path d="M3.44823 10.071L4.3778 11.0224L5.57892 10.4509C5.73441 10.3769 5.89463 10.5434 5.8147 10.6959L5.19713 11.874L6.1118 12.8397C6.23025 12.9647 6.12136 13.1686 5.95158 13.1397L4.64035 12.9163L4.00454 14.0847C3.92222 14.2359 3.69469 14.1953 3.66976 14.025L3.47691 12.7089L2.16929 12.4653C1.99998 12.4337 1.96829 12.2048 2.12265 12.1284L3.31477 11.5384L3.14237 10.2194C3.12001 10.0486 3.32785 9.94782 3.44823 10.071Z" fill="#FFE15A"/>
</svg>
