<svg width="24" height="24" viewBox="0 0 24 24" fill="none" xmlns="http://www.w3.org/2000/svg">
<path d="M23.5861 19.8621H0.413812C0.185297 19.8621 0 19.6768 0 19.4483V4.55174C0 4.32322 0.185297 4.13792 0.413812 4.13792H23.5862C23.8147 4.13792 24 4.32322 24 4.55174V19.4483C24 19.6768 23.8147 19.8621 23.5861 19.8621Z" fill="#41479B"/>
<path d="M11.5862 4.13797H10.8674L7.03442 6.64925V4.13797H4.96546V6.64925L1.1325 4.13797H0.413812C0.185297 4.13797 0 4.32322 0 4.55173V4.87995L3.28851 7.03446H0V9.10343H3.28851L0 11.258V11.5862C0 11.8147 0.185297 12 0.413812 12H1.13259L4.96555 9.48874V12H7.03452V9.48874L10.8674 12H11.5862C11.8147 12 12 11.8147 12 11.5862V11.258L8.71151 9.10348H12V7.03451H8.71147L12 4.88V4.55178C12 4.32322 11.8147 4.13797 11.5862 4.13797Z" fill="#F5F5F5"/>
<path d="M12 7.44832H6.62066V4.13797H5.37932V7.44832H0V8.68966H5.37932V12H6.62066V8.68966H12V7.44832Z" fill="#FF4B55"/>
<path d="M4.55169 7.03451L0.197203 4.2079C0.081328 4.28121 0 4.40445 0 4.55173V4.5732L3.79166 7.03451H4.55169Z" fill="#FF4B55"/>
<path d="M7.79445 7.03451L11.937 4.34549C11.865 4.22366 11.7379 4.13797 11.5861 4.13797H11.4966L7.03442 7.03451H7.79445Z" fill="#FF4B55"/>
<path d="M4.19405 9.10347L0.0594482 11.7873C0.130745 11.9121 0.259745 12 0.413776 12H0.491822L4.95413 9.10347H4.19405Z" fill="#FF4B55"/>
<path d="M11.9934 11.6187L8.11843 9.10347H7.3584L11.7587 11.9598C11.8905 11.8986 11.981 11.7704 11.9934 11.6187Z" fill="#FF4B55"/>
<path d="M6.1252 14.2561L6.43753 15.2872L7.43844 14.8885C7.52385 14.8545 7.60148 14.9519 7.54935 15.0276L6.93791 15.9146L7.87363 16.4486C7.95346 16.4942 7.92576 16.6156 7.83407 16.622L6.75927 16.697L6.92526 17.7616C6.93941 17.8524 6.8272 17.9064 6.76504 17.8387L6.03623 17.0452L5.30742 17.8387C5.24526 17.9064 5.13304 17.8524 5.1472 17.7616L5.31318 16.697L4.23839 16.622C4.1467 16.6156 4.119 16.4942 4.19883 16.4486L5.13454 15.9146L4.52311 15.0276C4.47098 14.9519 4.54861 14.8545 4.63401 14.8885L5.63493 15.2872L5.94726 14.2561C5.97403 14.1681 6.09857 14.1681 6.1252 14.2561Z" fill="#F5F5F5"/>
<path d="M18.4349 6.92483L18.5875 7.4285L19.0764 7.23378C19.1181 7.21719 19.156 7.26472 19.1305 7.30171L18.8319 7.73506L19.289 7.99592C19.328 8.01814 19.3144 8.07749 19.2696 8.08058L18.7446 8.11724L18.8257 8.63722C18.8326 8.68161 18.7778 8.708 18.7474 8.67491L18.3914 8.2873L18.0354 8.67491C18.005 8.70795 17.9502 8.68156 17.9571 8.63722L18.0381 8.11724L17.5131 8.08058C17.4683 8.07749 17.4548 8.01814 17.4938 7.99592L17.9508 7.73506L17.6522 7.30171C17.6267 7.26472 17.6647 7.21719 17.7063 7.23378L18.1952 7.4285L18.3478 6.92483C18.361 6.88185 18.4219 6.88185 18.4349 6.92483Z" fill="#F5F5F5"/>
<path d="M15.0328 10.7909L15.1854 11.2946L15.6743 11.0998C15.716 11.0832 15.7539 11.1308 15.7284 11.1678L15.4298 11.6011L15.8869 11.862C15.9259 11.8842 15.9123 11.9435 15.8675 11.9466L15.3425 11.9833L15.4236 12.5033C15.4305 12.5477 15.3757 12.5741 15.3453 12.541L14.9893 12.1534L14.6333 12.541C14.6029 12.574 14.5481 12.5476 14.555 12.5033L14.636 11.9833L14.111 11.9466C14.0662 11.9435 14.0527 11.8842 14.0917 11.862L14.5487 11.6011L14.2501 11.1678C14.2246 11.1308 14.2626 11.0832 14.3042 11.0998L14.7932 11.2946L14.9457 10.7909C14.9589 10.7479 15.0198 10.7479 15.0328 10.7909Z" fill="#F5F5F5"/>
<path d="M21.6535 9.13569L21.8061 9.63936L22.295 9.44464C22.3367 9.42805 22.3746 9.47558 22.3491 9.51257L22.0505 9.94593L22.5076 10.2068C22.5466 10.229 22.533 10.2883 22.4882 10.2914L21.9632 10.3281L22.0443 10.8481C22.0512 10.8925 21.9963 10.9189 21.966 10.8858L21.61 10.4982L21.254 10.8858C21.2236 10.9188 21.1688 10.8924 21.1757 10.8481L21.2568 10.3281L20.7318 10.2914C20.6869 10.2883 20.6734 10.229 20.7124 10.2068L21.1695 9.94593L20.8708 9.51257C20.8453 9.47558 20.8833 9.42805 20.925 9.44464L21.4139 9.63936L21.5665 9.13569C21.5796 9.09271 21.6405 9.09271 21.6535 9.13569Z" fill="#F5F5F5"/>
<path d="M18.4349 15.7564L18.5875 16.2601L19.0764 16.0653C19.1181 16.0487 19.156 16.0962 19.1305 16.1332L18.8319 16.5666L19.289 16.8274C19.328 16.8497 19.3144 16.909 19.2696 16.9121L18.7446 16.9487L18.8257 17.4687C18.8326 17.5131 18.7778 17.5395 18.7474 17.5064L18.3914 17.1188L18.0354 17.5064C18.005 17.5395 17.9502 17.5131 17.9571 17.4687L18.0381 16.9487L17.5131 16.9121C17.4683 16.909 17.4548 16.8497 17.4938 16.8274L17.9508 16.5666L17.6522 16.1332C17.6267 16.0962 17.6647 16.0487 17.7063 16.0653L18.1952 16.2601L18.3478 15.7564C18.361 15.7134 18.4219 15.7134 18.4349 15.7564Z" fill="#F5F5F5"/>
<path d="M19.6153 11.6959L19.4928 12.0633L19.1057 12.0663C19.0556 12.0667 19.0348 12.1306 19.0751 12.1604L19.3866 12.3904L19.2698 12.7595C19.2547 12.8074 19.3091 12.8469 19.3498 12.8177L19.6648 12.5926L19.9798 12.8177C20.0206 12.8469 20.075 12.8073 20.0599 12.7595L19.9431 12.3904L20.2545 12.1604C20.2949 12.1306 20.274 12.0667 20.2239 12.0663L19.8368 12.0633L19.7143 11.6959C19.6984 11.6484 19.6312 11.6484 19.6153 11.6959Z" fill="#F5F5F5"/>
</svg>
