<svg width="24" height="24" viewBox="0 0 24 24" fill="none" xmlns="http://www.w3.org/2000/svg">
<path d="M24 15.9311H0V19.4483C0 19.6768 0.185297 19.8621 0.413812 19.8621H23.5862C23.8147 19.8621 24 19.6768 24 19.4483L24 15.9311Z" fill="#FF4B55"/>
<path d="M24 12H0V4.55175C0 4.32324 0.185297 4.13794 0.413812 4.13794H23.5862C23.8147 4.13794 24 4.32324 24 4.55175L24 12Z" fill="#FFE15A"/>
<path d="M24 12H0V15.931H24V12Z" fill="#41479B"/>
<path d="M11.5681 12.2322L14.5906 9.64151V13.3909C14.5906 14.0228 14.0783 14.535 13.4465 14.535C13.1638 14.535 12.8912 14.4304 12.6811 14.2413L11.5681 13.2397V12.2322Z" fill="#FFE15A"/>
<path d="M13.1625 13.7065L12.2878 12.9192V11.6154L13.871 10.2584V11.2063V13.3909C13.871 13.625 13.6806 13.8154 13.4465 13.8154C13.3415 13.8154 13.2406 13.7767 13.1625 13.7065Z" fill="#FF4B55"/>
<path d="M12.7196 11.2453V12.7274L13.4392 13.3772V11.1972V10.6285L13.871 10.2584V11.2063V13.391C13.871 13.625 13.6806 13.8155 13.4465 13.8155C13.3415 13.8155 13.2406 13.7768 13.1625 13.7065L12.2878 12.9193V11.6155L12.7196 11.2453Z" fill="#41479B"/>
<path d="M12.4318 12.2322L9.4093 9.64151V13.3909C9.4093 14.0228 9.9216 14.535 10.5534 14.535C10.8361 14.535 11.1088 14.4304 11.3188 14.2413L12.4318 13.2397V12.2322Z" fill="#FFE15A"/>
<path d="M10.8374 13.7065L11.7121 12.9192V11.6154L10.1289 10.2584V11.2063V13.3909C10.1289 13.625 10.3194 13.8154 10.5534 13.8154C10.6585 13.8154 10.7593 13.7767 10.8374 13.7065Z" fill="#FF4B55"/>
<path d="M11.2803 11.2454V12.7274L10.5607 13.3772V11.1973V10.6286L10.1289 10.2585V11.2063V13.391C10.1289 13.6251 10.3194 13.8155 10.5534 13.8155C10.6585 13.8155 10.7593 13.7768 10.8374 13.7065L11.7121 12.9193V11.6155L11.2803 11.2454Z" fill="#41479B"/>
<path d="M14.6931 9.65442H14.4862V10.8942H14.6931V9.65442Z" fill="#41479B"/>
<path d="M9.51208 9.65442H9.30518V10.8942H9.51208V9.65442Z" fill="#41479B"/>
<path d="M11.5681 9.06584C11.5681 9.06584 11.856 7.6985 10.8485 7.87841C9.84101 8.05831 9.84101 8.34612 8.68958 8.92189C8.68958 8.92189 9.98492 9.20975 10.5606 9.06584C10.5606 9.06584 10.9924 9.64151 11.4242 9.78546H11.856L11.5681 9.06584Z" fill="#5A4646"/>
<path d="M12.4317 9.06584C12.4317 9.06584 12.1438 7.6985 13.1513 7.87841C14.1588 8.05831 14.1588 8.34612 15.3102 8.92189C15.3102 8.92189 14.0149 9.20975 13.4392 9.06584C13.4392 9.06584 13.0074 9.64151 12.5756 9.78546H12.1438L12.4317 9.06584Z" fill="#5A4646"/>
<path d="M12.4317 9.78547H11.5681V9.0605C11.5681 8.82496 11.759 8.63403 11.9946 8.63403H12.0052C12.2408 8.63403 12.4317 8.82496 12.4317 9.0605V9.78547Z" fill="#5A4646"/>
<path d="M12 9.35352C12.159 9.35352 12.2879 9.22464 12.2879 9.06566C12.2879 8.90668 12.159 8.7778 12 8.7778C11.841 8.7778 11.7122 8.90668 11.7122 9.06566C11.7122 9.22464 11.841 9.35352 12 9.35352Z" fill="#E6E1CD"/>
<path d="M11.3823 8.87994L11.9235 9.16897C11.969 9.19325 12.0249 9.18491 12.0612 9.14849C12.1069 9.10283 12.1069 9.02886 12.0612 8.98316L11.7121 8.63403H11.6281C11.4924 8.63403 11.3823 8.7441 11.3823 8.87994Z" fill="#FFD0AF"/>
<path d="M11.57 8.92188H11.1365L11.3262 8.69978C11.3618 8.65811 11.4139 8.63406 11.4688 8.63406H11.7121V8.77975C11.7121 8.85822 11.6485 8.92188 11.57 8.92188Z" fill="#FFAF94"/>
<path d="M13.2274 9.78584C13.1303 9.67062 13.1096 9.51785 13.1569 9.38548C13.2954 9.36129 13.4424 9.40756 13.5395 9.52287C13.6225 9.62135 13.6465 9.74655 13.6231 9.86374C13.6519 9.91259 13.6871 9.9754 13.7258 10.0496C13.7277 10.039 13.7273 10.0286 13.7303 10.018C13.7642 9.89866 13.8588 9.81419 13.971 9.7856C14.0513 9.86894 14.0873 9.99058 14.0534 10.1099C14.0243 10.2125 13.949 10.2869 13.8575 10.3246C13.8936 10.4075 13.9294 10.497 13.9628 10.5913C13.9647 10.5858 13.9649 10.5802 13.9671 10.5747C14.014 10.4598 14.1174 10.3863 14.232 10.3702C14.3025 10.4619 14.325 10.5867 14.2782 10.7016C14.2372 10.8021 14.1521 10.8684 14.0549 10.8948C14.105 11.0923 14.1381 11.3018 14.1381 11.5128H13.9942C13.9942 11.3289 13.9659 11.1448 13.9233 10.9686C13.8345 10.9973 13.7353 10.9912 13.6493 10.9386C13.5445 10.8744 13.4892 10.7615 13.4918 10.6469C13.5928 10.5925 13.7184 10.5905 13.8233 10.6548C13.8271 10.6571 13.8296 10.6604 13.8332 10.6629C13.8024 10.5743 13.7696 10.4902 13.7359 10.4114C13.6495 10.4522 13.5478 10.4585 13.4545 10.4147C13.3433 10.3624 13.2759 10.2563 13.2658 10.1421C13.3598 10.0772 13.4841 10.0615 13.595 10.1131C13.5554 10.0369 13.5196 9.9731 13.4916 9.92548C13.3925 9.91404 13.297 9.86838 13.2274 9.78584Z" fill="#8CB400"/>
<path d="M10.7725 9.78584C10.8697 9.67062 10.8904 9.51785 10.843 9.38548C10.7046 9.36129 10.5575 9.40756 10.4604 9.52287C10.3775 9.62135 10.3534 9.74655 10.3768 9.86374C10.348 9.91259 10.3129 9.9754 10.2742 10.0496C10.2723 10.039 10.2727 10.0286 10.2697 10.018C10.2358 9.89866 10.1411 9.81419 10.029 9.7856C9.94871 9.86894 9.91262 9.99058 9.94655 10.1099C9.97571 10.2125 10.051 10.2869 10.1425 10.3246C10.1064 10.4075 10.0706 10.497 10.0372 10.5913C10.0352 10.5858 10.0351 10.5802 10.0329 10.5747C9.98598 10.4598 9.88257 10.3863 9.76801 10.3702C9.69741 10.4619 9.67491 10.5867 9.72179 10.7016C9.76281 10.8021 9.84788 10.8684 9.9451 10.8948C9.89504 11.0923 9.8619 11.3018 9.8619 11.5128H10.0059C10.0059 11.3289 10.0341 11.1448 10.0767 10.9686C10.1655 10.9973 10.2647 10.9912 10.3507 10.9386C10.4555 10.8744 10.5108 10.7615 10.5082 10.6469C10.4072 10.5925 10.2816 10.5905 10.1768 10.6548C10.173 10.6571 10.1704 10.6604 10.1668 10.6629C10.1976 10.5743 10.2304 10.4902 10.2641 10.4114C10.3505 10.4522 10.4522 10.4585 10.5455 10.4147C10.6568 10.3624 10.7241 10.2563 10.7342 10.1421C10.6402 10.0772 10.5159 10.0615 10.405 10.1131C10.4446 10.0369 10.4804 9.9731 10.5084 9.92548C10.6075 9.91404 10.703 9.86838 10.7725 9.78584Z" fill="#8CB400"/>
<path d="M12 12.9519L8.97754 10.3612V14.1106C8.97754 14.7425 9.48983 15.2547 10.1217 15.2547C10.4043 15.2547 10.677 15.1501 10.8871 14.961L12 13.9594V12.9519Z" fill="#FFE15A"/>
<path d="M10.4057 14.4261L11.2803 13.6389V12.335L9.69714 10.978V11.9259V14.1106C9.69714 14.3446 9.8876 14.5351 10.1216 14.5351C10.2267 14.5351 10.3276 14.4964 10.4057 14.4261Z" fill="#FF4B55"/>
<path d="M10.8486 11.965V13.447L10.129 14.0968V11.9169V11.3482L9.69714 10.9781V11.9259V14.1106C9.69714 14.3447 9.8876 14.5351 10.1216 14.5351C10.2267 14.5351 10.3276 14.4964 10.4057 14.4261L11.2803 13.6389V12.3351L10.8486 11.965Z" fill="#41479B"/>
<path d="M12 12.9519L15.0225 10.3612V14.1106C15.0225 14.7425 14.5102 15.2547 13.8784 15.2547C13.5957 15.2547 13.323 15.1501 13.113 14.961L12 13.9594V12.9519Z" fill="#FFE15A"/>
<path d="M13.5943 14.4261L12.7196 13.6389V12.335L14.3028 10.978V11.9259V14.1106C14.3028 14.3446 14.1124 14.5351 13.8783 14.5351C13.7732 14.5351 13.6724 14.4964 13.5943 14.4261Z" fill="#FF4B55"/>
<path d="M13.1514 11.965V13.447L13.871 14.0968V11.9169V11.3482L14.3028 10.9781V11.9259V14.1106C14.3028 14.3447 14.1124 14.5351 13.8783 14.5351C13.7733 14.5351 13.6724 14.4964 13.5943 14.4261L12.7196 13.6389V12.3351L13.1514 11.965Z" fill="#41479B"/>
<path d="M12 14.1033C12.7949 14.1033 13.4393 13.1367 13.4393 11.9442C13.4393 10.7518 12.7949 9.78519 12 9.78519C11.2051 9.78519 10.5607 10.7518 10.5607 11.9442C10.5607 13.1367 11.2051 14.1033 12 14.1033Z" fill="#69C3FF"/>
<path d="M10.7046 12.5201H13.2953L13.4392 11.9444L12.7833 12.0538C12.6517 12.0757 12.5171 12.0382 12.4159 11.9514L11.6713 11.3132C11.6048 11.2562 11.52 11.2248 11.4324 11.2248C11.335 11.2248 11.2416 11.2635 11.1728 11.3323L10.7046 11.8005V12.5201Z" fill="#009B64"/>
<path d="M11.8635 11.8477L12.1107 11.6897L11.6713 11.3131C11.6048 11.2561 11.52 11.2247 11.4324 11.2247C11.335 11.2247 11.2416 11.2634 11.1728 11.3322L10.7046 11.8004V11.9444L11.4242 11.8004L11.5514 11.864C11.6512 11.9139 11.7696 11.9076 11.8635 11.8477Z" fill="#F5F5F5"/>
<path d="M10.7046 12.5201L10.8485 13.3836L11.5681 14.1033H11.9999L12.5756 13.9594L13.1514 13.3836L13.2953 12.5201H10.7046Z" fill="#5AA0E6"/>
<path d="M11.9999 14.2472C11.1269 14.2472 10.4167 13.2141 10.4167 11.9444C10.4167 10.6746 11.1269 9.64148 11.9999 9.64148C12.8729 9.64148 13.5831 10.6746 13.5831 11.9444C13.5831 13.2141 12.8729 14.2472 11.9999 14.2472ZM11.9999 9.92943C11.2858 9.92943 10.7046 10.8334 10.7046 11.9444C10.7046 13.0555 11.2857 13.9595 11.9999 13.9595C12.7142 13.9595 13.2953 13.0555 13.2953 11.9444C13.2953 10.8334 12.7141 9.92943 11.9999 9.92943Z" fill="#FFC88C"/>
<path d="M10.9846 14.0904C10.864 13.9238 10.6843 13.8154 10.4809 13.8154C10.2775 13.8154 10.0978 13.9238 9.97717 14.0904C10.183 14.1474 10.3513 14.3145 10.4311 14.5347C10.4632 14.6234 10.4809 14.7207 10.4809 14.823C10.4809 14.4669 10.696 14.1704 10.9846 14.0904Z" fill="#E1E1E1"/>
<path d="M10.5952 14.5444C10.5952 14.5444 10.584 14.7363 10.4856 14.8263L10.4815 14.8229C10.3831 14.733 10.3718 14.541 10.3718 14.541L10.5952 14.5444Z" fill="#E1E1E1"/>
<path d="M13.8 14.607H10.2C10.1607 14.607 10.1289 14.5752 10.1289 14.5359V14.5342C10.1289 14.4949 10.1607 14.4631 10.2 14.4631H13.8C13.8392 14.4631 13.871 14.4949 13.871 14.5342V14.5359C13.871 14.5752 13.8392 14.607 13.8 14.607Z" fill="#966446"/>
<path d="M12.7231 14.8229H11.2768C11.1197 14.8229 10.9924 14.6956 10.9924 14.5386V14.5315C10.9924 14.3745 11.1197 14.2472 11.2768 14.2472H12.7231C12.8802 14.2472 13.0075 14.3745 13.0075 14.5315V14.5386C13.0074 14.6956 12.8801 14.8229 12.7231 14.8229Z" fill="#BE915A"/>
<path d="M10.7046 14.4631H10.2009C10.1612 14.4631 10.1289 14.4953 10.1289 14.5351C10.1289 14.5748 10.1611 14.607 10.2009 14.607H10.7046V14.4631Z" fill="#B9B9B9"/>
<path d="M12 14.8229V16.138L11.4243 15.9744L11.7121 14.8229H12Z" fill="#FF4B55"/>
<path d="M11.8561 14.8229L11.5682 15.8305L10.9926 15.6865L11.4244 14.8229H11.8561Z" fill="#41479B"/>
<path d="M11.2803 14.8229L10.8485 15.3987L11.2803 15.5426L11.5681 14.8229H11.2803Z" fill="#FFE15A"/>
<path d="M12 14.8229V16.138L12.5757 15.9744L12.2879 14.8229H12Z" fill="#FF4B55"/>
<path d="M12.1439 14.8229L12.4318 15.8305L13.0075 15.6865L12.5756 14.8229H12.1439Z" fill="#41479B"/>
<path d="M12.7196 14.8229L13.1514 15.3987L12.7196 15.5426L12.4318 14.8229H12.7196Z" fill="#FFE15A"/>
<path d="M9.08093 11.6008L8.87402 11.3923V10.3611H9.08093V11.6008Z" fill="#41479B"/>
<path d="M15.1239 11.3923L14.917 11.6008V10.3611H15.1239V11.3923Z" fill="#41479B"/>
</svg>
