<svg width="24" height="24" viewBox="0 0 24 24" fill="none" xmlns="http://www.w3.org/2000/svg">
<g clip-path="url(#clip0_2058_10768)">
<path d="M8.00002 19.8619H0.413813C0.185297 19.8619 0 19.6766 0 19.4481V4.55157C0 4.32305 0.185297 4.13776 0.413813 4.13776H8.00002V19.8619Z" fill="#73AF00"/>
<path d="M16.0003 4.138H8.00012V19.8622H16.0003V4.138Z" fill="#F5F5F5"/>
<path d="M23.5862 19.8619H16V4.13782H23.5862C23.8147 4.13782 24 4.32311 24 4.55163V19.4482C24 19.6767 23.8147 19.8619 23.5862 19.8619Z" fill="#FF4B55"/>
<path d="M12.7137 12.37L12 12.7269V13.0838H12.3569L12.7137 12.37Z" fill="#FFD250"/>
<path d="M12 13.9758C11.9014 13.9758 11.8215 13.896 11.8215 13.7973V13.0837C11.8215 12.985 11.9014 12.9052 12 12.9052C12.0986 12.9052 12.1784 12.985 12.1784 13.0837V13.7973C12.1784 13.896 12.0986 13.9758 12 13.9758Z" fill="#00C3A0"/>
<path d="M12 13.2621C11.2991 13.2621 10.6224 12.9917 10.0943 12.5007C10.0222 12.4336 10.018 12.3207 10.085 12.2486C10.1526 12.1766 10.2654 12.1728 10.3371 12.2393C10.799 12.6688 11.3896 12.9053 11.9999 12.9053C12.6103 12.9053 13.2008 12.6688 13.6627 12.2393C13.7347 12.1726 13.8474 12.1763 13.9148 12.2486C13.9819 12.3207 13.9777 12.4337 13.9055 12.5007C13.3775 12.9918 12.7008 13.2621 12 13.2621Z" fill="#00C3A0"/>
<path d="M12 13.9758C11.5426 13.9758 11.0995 13.8422 10.7186 13.5892L10.9162 13.2919C11.5602 13.7199 12.4398 13.7199 13.0838 13.2919L13.2813 13.5892C12.9005 13.8422 12.4574 13.9758 12 13.9758Z" fill="#00AADC"/>
<path d="M11.7175 11.5671L11.3235 12.1768L11.2566 12.3775L12.2825 12.1396L11.7175 11.5671Z" fill="#732D37"/>
<path d="M10.908 12.5736C10.4363 12.5736 9.87016 12.1766 9.71997 11.2922L10.072 11.2326C10.1967 11.9681 10.6492 12.2172 10.9209 12.2166C11.0042 12.2143 11.0911 12.1856 11.0979 12.1267C11.1059 12.0563 11.1078 12.0396 10.9212 11.9765C10.8198 11.9421 10.7048 11.9033 10.6241 11.811C10.2978 11.4383 10.7396 11.0438 10.9519 10.8543C10.9894 10.8208 11.0049 10.7924 11.0009 10.7816C10.9893 10.7511 10.9192 10.705 10.8403 10.705C10.6136 10.705 10.4416 10.5769 10.3916 10.3709C10.3397 10.1576 10.4378 9.93288 10.6246 9.83636L10.7884 10.1535C10.7447 10.1761 10.7273 10.2406 10.7384 10.2866C10.7428 10.3051 10.7534 10.3481 10.8404 10.3481C11.0589 10.3481 11.2668 10.4771 11.3343 10.6544C11.3633 10.73 11.4068 10.9266 11.1897 11.1205C10.9554 11.3298 10.8151 11.4873 10.8928 11.576C10.9104 11.596 10.9859 11.6216 11.0357 11.6384C11.1963 11.6928 11.4954 11.7938 11.4525 12.1676C11.4257 12.4026 11.2159 12.5657 10.9308 12.5734C10.9232 12.5734 10.9155 12.5736 10.908 12.5736Z" fill="#AAD264"/>
<path d="M12.3569 10.5858C12.3569 10.5858 12.7137 9.87214 12 9.51528C12 9.51528 14.4979 9.15842 14.1411 12.3701L14.1409 12.3699C13.9067 12.1826 13.559 11.8401 13.4348 11.5671L12.3569 10.9426V10.5858Z" fill="#874150"/>
<path d="M12 11.2994L13.7842 12.37C13.7842 12.37 13.7842 12.37 13.0705 12.7268L12 11.6563V11.2994Z" fill="#732D37"/>
<path d="M11.2864 10.2289C11.4834 10.2289 11.6432 10.3887 11.6432 10.5858L11.6429 10.5862C11.43 10.7991 11.3772 11.1243 11.5118 11.3936L11.5925 11.5549C11.6261 11.6221 11.6703 11.6835 11.7235 11.7366L12.7138 12.727V12.2338C12.7138 11.6194 12.5708 11.0134 12.296 10.4639C12.1147 10.1013 11.744 9.87213 11.3385 9.87213H11.2864V10.229H11.2864V10.2289Z" fill="#783C46"/>
<path d="M11.2863 9.87207L10.9294 10.2289V10.5858C10.9294 10.5858 11.3539 10.3706 11.497 10.302C11.597 10.2541 11.5788 10.1408 11.5214 10.0862C11.4768 10.0437 11.2863 9.87207 11.2863 9.87207Z" fill="#FFD250"/>
<path d="M12 14.6895C10.3274 14.6895 8.9668 13.3289 8.9668 11.6563H9.32366C9.32366 13.1322 10.5242 14.3327 12 14.3327C13.4759 14.3327 14.6764 13.1322 14.6764 11.6563H15.0333C15.0332 13.3289 13.6725 14.6895 12 14.6895Z" fill="#AAD264"/>
<path d="M9.34311 12.9574C9.47685 12.9574 9.58526 12.849 9.58526 12.7152C9.58526 12.5815 9.47685 12.4731 9.34311 12.4731C9.20937 12.4731 9.10095 12.5815 9.10095 12.7152C9.10095 12.849 9.20937 12.9574 9.34311 12.9574Z" fill="#FFE15A"/>
<path d="M9.87839 13.8124C10.0121 13.8124 10.1205 13.704 10.1205 13.5702C10.1205 13.4365 10.0121 13.3281 9.87839 13.3281C9.74465 13.3281 9.63623 13.4365 9.63623 13.5702C9.63623 13.704 9.74465 13.8124 9.87839 13.8124Z" fill="#FFE15A"/>
<path d="M10.7479 14.4588C10.8816 14.4588 10.99 14.3504 10.99 14.2166C10.99 14.0829 10.8816 13.9745 10.7479 13.9745C10.6142 13.9745 10.5057 14.0829 10.5057 14.2166C10.5057 14.3504 10.6142 14.4588 10.7479 14.4588Z" fill="#FFE15A"/>
<path d="M14.6826 12.9574C14.8163 12.9574 14.9247 12.849 14.9247 12.7152C14.9247 12.5815 14.8163 12.4731 14.6826 12.4731C14.5488 12.4731 14.4404 12.5815 14.4404 12.7152C14.4404 12.849 14.5488 12.9574 14.6826 12.9574Z" fill="#FFE15A"/>
<path d="M14.1468 13.8124C14.2806 13.8124 14.389 13.704 14.389 13.5702C14.389 13.4365 14.2806 13.3281 14.1468 13.3281C14.0131 13.3281 13.9047 13.4365 13.9047 13.5702C13.9047 13.704 14.0131 13.8124 14.1468 13.8124Z" fill="#FFE15A"/>
<path d="M13.2773 14.4588C13.4111 14.4588 13.5195 14.3504 13.5195 14.2166C13.5195 14.0829 13.4111 13.9745 13.2773 13.9745C13.1436 13.9745 13.0352 14.0829 13.0352 14.2166C13.0352 14.3504 13.1436 14.4588 13.2773 14.4588Z" fill="#FFE15A"/>
<path d="M12.1784 14.1542H11.8216C11.6245 14.1542 11.4647 13.9944 11.4647 13.7974C11.4647 13.6003 11.6245 13.4405 11.8216 13.4405H12.1784C12.3755 13.4405 12.5353 13.6003 12.5353 13.7974C12.5353 13.9945 12.3755 14.1542 12.1784 14.1542Z" fill="#FFB478"/>
<path d="M13.4348 11.5671C13.5538 11.9165 13.8066 12.2362 14.1409 12.3699L14.1411 12.37C14.4979 9.15846 12 9.51527 12 9.51527C13.7842 9.51527 13.4348 11.5671 13.4348 11.5671Z" fill="#9B4B5A"/>
</g>
<defs>
<clipPath id="clip0_2058_10768">
<rect width="24" height="24" fill="white"/>
</clipPath>
</defs>
</svg>
