<svg width="24" height="24" viewBox="0 0 24 24" fill="none" xmlns="http://www.w3.org/2000/svg">
<g clip-path="url(#clip0_2058_11953)">
<path d="M18.6206 4.138H5.37939V19.8622H18.6206V4.138Z" fill="#FFE15A"/>
<path d="M23.5862 19.8619H18.6207V4.13782H23.5862C23.8147 4.13782 24 4.32311 24 4.55163V19.4481C24 19.6767 23.8147 19.8619 23.5862 19.8619Z" fill="#73AF00"/>
<path d="M0.413812 4.13782H5.37932V19.8619H0.413812C0.185297 19.8619 0 19.6766 0 19.4481V4.55163C0 4.32311 0.185297 4.13782 0.413812 4.13782Z" fill="#4173CD"/>
<path d="M8.99463 11.7878L10.3369 14.4724L11.6792 11.7878L10.3369 9.10327L8.99463 11.7878Z" fill="#73AF00"/>
<path d="M12.3207 11.7878L13.663 14.4724L15.0053 11.7878L13.663 9.10327L12.3207 11.7878Z" fill="#73AF00"/>
<path d="M10.6577 15.0153L12 17.6998L13.3423 15.0153L12 12.3307L10.6577 15.0153Z" fill="#73AF00"/>
</g>
<defs>
<clipPath id="clip0_2058_11953">
<rect width="24" height="24" fill="white"/>
</clipPath>
</defs>
</svg>
