<svg width="24" height="24" viewBox="0 0 24 24" fill="none" xmlns="http://www.w3.org/2000/svg">
<path d="M24 12H0V4.55175C0 4.32324 0.185297 4.13794 0.413812 4.13794H23.5862C23.8147 4.13794 24 4.32324 24 4.55175L24 12Z" fill="#FF4B55"/>
<path d="M0 12H24V19.4482C24 19.6767 23.8147 19.862 23.5861 19.862H0.413812C0.185297 19.862 0 19.6767 0 19.4482V12Z" fill="#73AF00"/>
<path d="M12.1258 9.74323L12.6464 11.3042L14.2918 11.317C14.4193 11.3179 14.4721 11.4806 14.3696 11.5564L13.0459 12.5338L13.5423 14.1027C13.5807 14.2242 13.4424 14.3248 13.3387 14.2506L12 13.2938L10.6613 14.2506C10.5576 14.3247 10.4192 14.2242 10.4577 14.1027L10.9541 12.5338L9.63041 11.5564C9.52784 11.4806 9.58072 11.3179 9.70822 11.317L11.3536 11.3042L11.8742 9.74323C11.9144 9.62229 12.0855 9.62229 12.1258 9.74323Z" fill="#FFE15A"/>
</svg>
