<svg width="24" height="24" viewBox="0 0 24 24" fill="none" xmlns="http://www.w3.org/2000/svg">
<path d="M23.5861 19.8621H0.413812C0.185297 19.8621 0 19.6768 0 19.4483V4.55175C0 4.32324 0.185297 4.13794 0.413812 4.13794H23.5862C23.8147 4.13794 24 4.32324 24 4.55175V19.4483C24 19.6768 23.8147 19.8621 23.5861 19.8621Z" fill="#41479B"/>
<path d="M24 9.93105H10.7586V4.13797H6.62066V9.93105H0V14.069H6.62066V19.8621H10.7586V14.069H24V9.93105Z" fill="#F5F5F5"/>
<path d="M24 10.7586H9.93101V4.13797H7.44828V10.7586H0V13.2414H7.44828V19.8621H9.93101V13.2414H24V10.7586Z" fill="#FF4B55"/>
</svg>
