<svg width="24" height="24" viewBox="0 0 24 24" fill="none" xmlns="http://www.w3.org/2000/svg">
<g clip-path="url(#clip0_2058_10857)">
<path d="M16 4.13782H23.5862C23.8147 4.13782 24 4.32311 24 4.55163V19.4482C24 19.6767 23.8147 19.862 23.5862 19.862H16V4.13782Z" fill="#FF4B55"/>
<path d="M16.0003 4.138H8.00012V19.8622H16.0003V4.138Z" fill="#41479B"/>
<path d="M0.413813 4.13782H8.00002V19.8619H0.413813C0.185297 19.8619 0 19.6766 0 19.4481V4.55158C0 4.32307 0.185297 4.13782 0.413813 4.13782Z" fill="#FF4B55"/>
<path d="M4.01667 10.6418C3.39131 10.6418 2.85529 10.265 2.61914 9.72681C2.619 9.73501 2.6167 9.74265 2.6167 9.75085C2.6167 10.524 3.24351 11.1508 4.01667 11.1508C4.78982 11.1508 5.41659 10.524 5.41659 9.75085C5.41659 9.74265 5.41429 9.73501 5.41415 9.72685C5.178 10.265 4.64198 10.6418 4.01667 10.6418Z" fill="#F9CF02"/>
<path d="M4.01666 10.3873C4.57896 10.3873 5.03479 9.93149 5.03479 9.3692C5.03479 8.8069 4.57896 8.35107 4.01666 8.35107C3.45437 8.35107 2.99854 8.8069 2.99854 9.3692C2.99854 9.93149 3.45437 10.3873 4.01666 10.3873Z" fill="#F9CF02"/>
<path d="M3.38037 7.46015C3.38037 7.81157 3.66528 8.09648 4.0167 8.09648C4.36812 8.09648 4.65303 7.81157 4.65303 7.46015C4.65303 7.20562 4.49393 7.17379 4.49393 7.07835C4.49393 6.98292 4.58937 6.85565 4.3985 6.69656C4.49393 6.85565 4.33489 6.88748 4.33489 7.04652C4.33489 7.20557 4.3985 7.20562 4.3985 7.33288C4.3985 7.4032 4.3415 7.4601 4.27128 7.4601C4.20097 7.4601 4.14406 7.4031 4.14406 7.33288C4.14406 7.20567 4.27128 7.07835 4.27128 6.88743C4.27128 6.69651 4.23945 6.6329 4.14406 6.47381C4.04862 6.31471 3.88953 6.18745 4.01684 6.06018C3.82592 6.12379 3.9214 6.37832 3.9214 6.53746C3.9214 6.69656 3.79418 6.79199 3.79418 6.98291C3.79418 7.17384 3.88962 7.20562 3.88962 7.33288C3.88962 7.4032 3.83262 7.4601 3.7624 7.4601C3.69218 7.4601 3.63518 7.4031 3.63518 7.33288C3.63518 7.20567 3.69879 7.20567 3.69879 7.04652C3.69879 6.88738 3.5397 6.8556 3.63518 6.69656C3.44426 6.85565 3.53975 6.98292 3.53975 7.07835C3.53946 7.17379 3.38037 7.20557 3.38037 7.46015Z" fill="#F9CF02"/>
<path d="M1.2168 11.5105V17.4092C1.2168 17.4672 1.26386 17.5142 1.32184 17.5142H2.38436C2.44239 17.5142 2.48941 17.4671 2.48941 17.4092V11.5105C2.48941 11.4525 2.44234 11.4055 2.38436 11.4055H1.32184C1.26386 11.4054 1.2168 11.4525 1.2168 11.5105Z" fill="#F9CF02"/>
<path d="M5.54382 11.5105V17.4092C5.54382 17.4672 5.59089 17.5142 5.64887 17.5142H6.71139C6.76942 17.5142 6.81643 17.4671 6.81643 17.4092V11.5105C6.81643 11.4525 6.76937 11.4055 6.71139 11.4055H5.64887C5.59084 11.4054 5.54382 11.4525 5.54382 11.5105Z" fill="#F9CF02"/>
<path d="M2.74402 12.5286V12.8275C2.74402 12.8855 2.79108 12.9325 2.84907 12.9325H5.18424C5.24227 12.9325 5.28928 12.8855 5.28928 12.8275V12.5286C5.28928 12.4705 5.24222 12.4235 5.18424 12.4235H2.84907C2.79103 12.4235 2.74402 12.4706 2.74402 12.5286Z" fill="#F9CF02"/>
<path d="M2.74402 16.092V16.391C2.74402 16.449 2.79108 16.496 2.84907 16.496H5.18424C5.24227 16.496 5.28928 16.449 5.28928 16.391V16.092C5.28928 16.034 5.24222 15.987 5.18424 15.987H2.84907C2.79103 15.987 2.74402 16.034 2.74402 16.092Z" fill="#F9CF02"/>
<path d="M2.93359 11.4054H5.09959C5.15288 11.4054 5.17229 11.4756 5.12663 11.503L4.09773 12.1204C4.0478 12.1503 3.98541 12.1503 3.93559 12.1204L2.90659 11.503C2.86088 11.4756 2.88034 11.4054 2.93359 11.4054Z" fill="#F9CF02"/>
<path d="M2.9336 16.7506H5.0996C5.15289 16.7506 5.1723 16.8208 5.12664 16.8482L4.09764 17.4655C4.04772 17.4955 3.98533 17.4955 3.9355 17.4655L2.90655 16.8482C2.86089 16.8207 2.88035 16.7506 2.9336 16.7506Z" fill="#F9CF02"/>
<path d="M4.14096 13.197C4.10084 13.1932 4.06198 13.1849 4.02087 13.1849C3.32098 13.1849 2.75159 13.7543 2.75159 14.4542C2.75159 14.8696 2.95451 15.2352 3.26454 15.4659C3.30021 15.4924 3.34737 15.454 3.33002 15.413C3.29285 15.325 3.27195 15.2284 3.27195 15.1268C3.27195 14.7131 3.60912 14.3767 4.02317 14.378C4.24081 14.3786 4.44945 14.2712 4.54577 14.076C4.74504 13.6723 4.5019 13.2711 4.14096 13.197ZM4.02087 14.0353C3.88071 14.0353 3.76699 13.9217 3.76699 13.7814C3.76699 13.6412 3.88066 13.5276 4.02087 13.5276C4.16102 13.5276 4.2747 13.6412 4.2747 13.7814C4.27465 13.9217 4.16102 14.0353 4.02087 14.0353Z" fill="#F9CF02"/>
<path d="M4.77707 13.4424C4.7414 13.4159 4.69424 13.4543 4.71159 13.4952C4.74881 13.5833 4.76967 13.6798 4.76967 13.7814C4.76967 14.1951 4.43245 14.5316 4.01845 14.5303C3.80081 14.5296 3.59212 14.6371 3.49584 14.8323C3.29667 15.236 3.53981 15.6372 3.90074 15.7113C3.94087 15.7151 3.97973 15.7234 4.02084 15.7234C4.72068 15.7234 5.29012 15.154 5.29012 14.4541C5.29003 14.0388 5.0871 13.6731 4.77707 13.4424ZM4.02084 15.3807C3.88068 15.3807 3.76696 15.2671 3.76696 15.1268C3.76696 14.9867 3.88063 14.873 4.02084 14.873C4.16099 14.873 4.27467 14.9866 4.27467 15.1268C4.27462 15.267 4.16099 15.3807 4.02084 15.3807Z" fill="#F9CF02"/>
</g>
<defs>
<clipPath id="clip0_2058_10857">
<rect width="24" height="24" fill="white"/>
</clipPath>
</defs>
</svg>
