<svg width="24" height="24" viewBox="0 0 24 24" fill="none" xmlns="http://www.w3.org/2000/svg">
<g clip-path="url(#clip0_2058_11352)">
<path d="M11.1724 19.8621H0.413812C0.185297 19.8621 0 19.6768 0 19.4483V4.55175C0 4.32324 0.185297 4.13794 0.413812 4.13794H11.1724V19.8621Z" fill="#F5F5F5"/>
<path d="M23.5862 4.138H7.84558C7.8565 4.138 7.86738 4.13959 7.87788 4.14288L10.3803 4.9075C10.4845 4.93933 10.4845 5.08694 10.3802 5.11867L8.2083 5.77998C8.104 5.81176 8.10396 5.95932 8.20821 5.99115L10.3804 6.655C10.4846 6.68682 10.4845 6.83443 10.3803 6.86612L8.2083 7.52748C8.104 7.55926 8.10396 7.70682 8.20821 7.73865L10.3804 8.40249C10.4846 8.43432 10.4845 8.58193 10.3803 8.61362L8.20896 9.27469C8.10461 9.30652 8.10461 9.45418 8.20896 9.48591L10.3803 10.147C10.4846 10.1788 10.4846 10.3263 10.3804 10.3582L8.20821 11.022C8.104 11.0539 8.10405 11.2015 8.2083 11.2332L10.3803 11.8945C10.4846 11.9262 10.4846 12.0738 10.3804 12.1057L8.20821 12.7695C8.104 12.8014 8.10405 12.9489 8.2083 12.9807L10.3803 13.642C10.4846 13.6737 10.4846 13.8213 10.3804 13.8531L8.20821 14.5169C8.104 14.5488 8.10405 14.6964 8.2083 14.7281L10.3802 15.3895C10.4845 15.4212 10.4846 15.5688 10.3803 15.6006L8.20821 16.2644C8.104 16.2963 8.10405 16.4438 8.2083 16.4756L10.3796 17.1367C10.484 17.1684 10.484 17.3162 10.3796 17.3479L8.2083 18.009C8.104 18.0407 8.10396 18.1884 8.20821 18.2202L10.3804 18.884C10.4846 18.9158 10.4845 19.0634 10.3803 19.0951L7.87783 19.8571C7.86742 19.8603 7.85655 19.8619 7.84567 19.8619H23.5862C23.8147 19.8619 24 19.6766 24 19.4481V4.55177C24 4.32325 23.8147 4.138 23.5862 4.138Z" fill="#873250"/>
</g>
<defs>
<clipPath id="clip0_2058_11352">
<rect width="24" height="24" fill="white"/>
</clipPath>
</defs>
</svg>
