<svg width="24" height="24" viewBox="0 0 24 24" fill="none" xmlns="http://www.w3.org/2000/svg">
<path d="M0 14.6207H24V19.4482C24 19.6767 23.8147 19.862 23.5861 19.862H0.413812C0.185297 19.862 0 19.6767 0 19.4482V14.6207Z" fill="#73AF00"/>
<path d="M0.413812 4.13794H23.5862C23.8147 4.13794 24 4.32324 24 4.55175V9.3793H0V4.5517C0 4.32319 0.185297 4.13794 0.413812 4.13794Z" fill="#464655"/>
<path d="M24 9.37921H0V14.6203H24V9.37921Z" fill="#C8414B"/>
<path d="M24 9.10358H0V9.93115H24V9.10358Z" fill="#F5F5F5"/>
<path d="M24 14.0691H0V14.8967H24V14.0691Z" fill="#F5F5F5"/>
<path d="M14.2157 8.51333C14.5488 7.82629 14.8965 6.23474 14.8965 6.23474C14.8965 6.23474 13.8619 7.4931 13.5286 8.1801C13.4588 8.3241 13.4884 8.48971 13.5893 8.60174L9.79395 16.4268L10.0516 16.5517L13.8469 8.72671C13.9975 8.7366 14.1459 8.65733 14.2157 8.51333Z" fill="#F5F5F5"/>
<path d="M9.78425 8.51333C9.45106 7.82629 9.10339 6.23474 9.10339 6.23474C9.10339 6.23474 10.138 7.4931 10.4713 8.1801C10.5411 8.3241 10.5115 8.48971 10.4106 8.60174L14.206 16.4268L13.9483 16.5517L10.153 8.72671C10.0025 8.7366 9.85405 8.65733 9.78425 8.51333Z" fill="#F5F5F5"/>
<path d="M14.069 12C14.069 14.2853 12.3809 16.1379 12 16.1379C11.6191 16.1379 9.93103 14.2853 9.93103 12C9.93103 9.71465 11.6191 7.86206 12 7.86206C12.3809 7.86206 14.069 9.71465 14.069 12Z" fill="#C8414B"/>
<path d="M13.6551 13.9964C13.8988 13.4044 14.069 12.7243 14.069 12C14.069 11.2757 13.8989 10.5957 13.6551 10.0035C13.4114 10.5956 13.2413 11.2757 13.2413 12C13.2413 12.7243 13.4114 13.4044 13.6551 13.9964Z" fill="#464655"/>
<path d="M10.3448 10.0035C10.1011 10.5956 9.93103 11.2757 9.93103 12C9.93103 12.7243 10.1011 13.4043 10.3448 13.9964C10.5885 13.4044 10.7587 12.7243 10.7587 12C10.7587 11.2757 10.5885 10.5957 10.3448 10.0035Z" fill="#464655"/>
<path d="M12 12.6207C12.2285 12.6207 12.4138 12.3428 12.4138 12C12.4138 11.6572 12.2285 11.3793 12 11.3793C11.7715 11.3793 11.5862 11.6572 11.5862 12C11.5862 12.3428 11.7715 12.6207 12 12.6207Z" fill="#F5F5F5"/>
<path d="M12.062 7.86206V11.3793C12.1748 11.1444 12.3749 10.4504 12.3749 9.62067C12.3749 8.79084 12.1748 8.0969 12.062 7.86206Z" fill="#F5F5F5"/>
<path d="M11.9379 7.86206C11.8251 8.0969 11.625 8.79084 11.625 9.62067C11.625 10.4505 11.8251 11.1445 11.9379 11.3793V7.86206Z" fill="#F5F5F5"/>
<path d="M12.062 12.6207V16.1379C12.1748 15.903 12.3749 15.2091 12.3749 14.3793C12.3749 13.5494 12.1748 12.8555 12.062 12.6207Z" fill="#F5F5F5"/>
<path d="M11.9379 12.6207C11.8251 12.8555 11.625 13.5494 11.625 14.3793C11.625 15.2091 11.8251 15.9031 11.9379 16.1379V12.6207Z" fill="#F5F5F5"/>
</svg>
