<svg width="24" height="24" viewBox="0 0 24 24" fill="none" xmlns="http://www.w3.org/2000/svg">
<path d="M23.5861 19.8621H0.413812C0.185297 19.8621 0 19.6768 0 19.4483V4.55175C0 4.32324 0.185297 4.13794 0.413812 4.13794H23.5862C23.8147 4.13794 24 4.32324 24 4.55175V19.4483C24 19.6768 23.8147 19.8621 23.5861 19.8621Z" fill="#FFE15A"/>
<path d="M23.5862 4.138H0.41385C0.313257 4.138 0.224429 4.17831 0.15271 4.23803L23.8474 19.7621C23.9385 19.6862 24 19.5763 24 19.4483V4.55177C24 4.32325 23.8147 4.138 23.5862 4.138Z" fill="#FF4B55"/>
<path d="M12.7885 10.8915C12.8348 10.8543 12.8731 10.8082 12.8585 10.7694C12.8464 10.7373 12.7867 10.7074 12.7234 10.6758C12.6059 10.6171 12.449 10.5366 12.397 10.3438C12.3908 10.3431 12.385 10.3437 12.3786 10.3425C12.327 10.333 12.2949 10.3507 12.2576 10.4719C12.2507 10.4939 12.2362 10.5294 12.2169 10.57C12.2555 10.5956 12.352 10.6551 12.446 10.6765C12.6322 10.7187 12.7468 10.7906 12.7885 10.8915Z" fill="#FFBE55"/>
<path d="M12.0659 10.8095C12.1215 10.8602 12.1726 10.9178 12.2228 10.982C12.2257 10.9858 12.2288 10.9895 12.2317 10.9931C12.3564 10.8975 12.5149 10.8969 12.6253 10.915C12.5933 10.8818 12.531 10.8493 12.4128 10.8223C12.3033 10.7975 12.1972 10.7355 12.1447 10.7018C12.1204 10.7406 12.0939 10.7775 12.0659 10.8095Z" fill="#FFBE55"/>
<path d="M12.698 11.3584C12.7564 11.3922 12.8738 11.4682 12.9755 11.5779C12.9905 11.4935 12.986 11.3815 12.9068 11.2829C12.839 11.3204 12.7666 11.3441 12.698 11.3584Z" fill="#FFBE55"/>
<path d="M11.7259 10.3726L11.7063 10.3964C11.6088 10.5157 11.4981 10.6457 11.3923 10.7517C11.4567 10.7214 11.5325 10.6991 11.6112 10.6873C11.6393 10.6422 11.725 10.5227 11.8303 10.3788C11.8049 10.3626 11.7545 10.3379 11.7259 10.3726Z" fill="#FFBE55"/>
<path d="M11.3434 10.9771C11.3439 10.9779 11.3505 10.9861 11.3692 10.9931C11.4016 11.0056 11.4616 11.0099 11.5242 10.981C11.7066 10.8962 11.8907 10.9426 12.0717 11.1177C12.0722 11.1182 12.072 11.1191 12.0725 11.1196C12.073 11.1201 12.0739 11.1199 12.0744 11.1205C12.0754 11.1215 12.1363 11.1826 12.2461 11.2386C12.1934 11.1831 12.146 11.1266 12.105 11.0742C12.0394 10.9903 11.9826 10.918 11.9151 10.8749C11.7436 10.766 11.4451 10.8614 11.3606 10.9505C11.3467 10.9652 11.3434 10.9748 11.3434 10.9771Z" fill="#FFBE55"/>
<path d="M12.7612 11.0854C12.7612 11.0854 12.7608 11.0854 12.7606 11.0855C12.7512 11.0899 12.741 11.0921 12.7304 11.0923C12.73 11.0923 12.7295 11.0927 12.729 11.0927C12.7279 11.0927 12.727 11.0917 12.7259 11.0916C12.7182 11.0913 12.7105 11.0908 12.7029 11.088C12.7003 11.0871 12.4688 11.0055 12.3274 11.1079C12.367 11.1524 12.4118 11.1934 12.4618 11.2309C12.5313 11.2325 12.7718 11.2284 12.9088 11.1004C12.978 11.0358 12.9839 10.9652 12.9723 10.9097C12.9211 10.9897 12.8306 11.0524 12.7612 11.0854Z" fill="#FFBE55"/>
<path d="M10.6496 11.0092C10.6379 10.9923 10.6251 10.9776 10.6151 10.9576C10.5986 10.9246 10.5899 10.8897 10.5812 10.8548C10.528 10.9399 10.4719 11.0724 10.506 11.219C10.5461 11.1242 10.6066 11.0521 10.6496 11.0092Z" fill="#FFBE55"/>
<path d="M11.9427 10.7238C12.0101 10.6534 12.0931 10.4971 12.1144 10.4278C12.1349 10.3609 12.1973 10.1574 12.4053 10.1951C12.4516 10.2037 12.4859 10.1743 12.5069 10.1483C12.4563 10.0906 12.3902 10.0532 12.3327 10.0518C12.2898 10.0477 12.2406 10.075 12.2024 10.1263C12.0153 10.3784 11.8729 10.5732 11.7958 10.6818C11.8476 10.6878 11.8965 10.703 11.9427 10.7238Z" fill="#FFBE55"/>
<path d="M11.4596 10.2699C11.3436 10.4248 11.2217 10.5121 11.1328 10.5759C11.0156 10.66 10.9866 10.6885 10.9937 10.7536C10.9951 10.7668 11.0008 10.7766 11.0126 10.786C11.0282 10.7984 11.0506 10.8072 11.0761 10.8137C11.0777 10.8129 11.0786 10.8116 11.0803 10.8109C11.2202 10.7539 11.4989 10.4134 11.5906 10.3015L11.6104 10.2773C11.7075 10.1598 11.8442 10.2068 11.919 10.2578C11.9448 10.2228 11.9708 10.1875 11.9968 10.1524C11.8616 9.98939 11.6382 10.032 11.4596 10.2699Z" fill="#FFBE55"/>
<path d="M12.6395 10.2199C12.6174 10.2518 12.5857 10.2849 12.5453 10.3098C12.5825 10.4333 12.6864 10.49 12.7903 10.5418C12.8519 10.5725 12.91 10.6032 12.9518 10.6466C12.9869 10.5211 12.9823 10.4212 12.9338 10.3518C12.8626 10.2501 12.7113 10.2253 12.6395 10.2199Z" fill="#FFBE55"/>
<path d="M12.0925 14.7085L12.1088 14.727C12.3148 14.9615 12.5093 15.1879 12.6389 15.3786C12.635 15.2756 12.628 15.169 12.6156 15.0949C12.6151 15.0925 12.6149 15.09 12.6148 15.0876C12.5487 15.0022 12.4775 14.9226 12.4024 14.8553C12.1829 14.6591 12.0591 14.4623 11.9899 14.3106C11.9781 14.4411 11.993 14.5954 12.0925 14.7085Z" fill="#FFBE55"/>
<path d="M11.9872 13.9518C11.9697 13.921 11.9537 13.8878 11.9408 13.8508C11.9407 13.8505 11.9408 13.8502 11.9406 13.8499C11.9395 13.8494 11.9385 13.849 11.9373 13.8487C11.8925 13.9264 11.8103 13.98 11.7225 13.9802C11.7225 13.9802 11.7221 13.9802 11.722 13.9802C11.7152 13.9802 11.7092 13.9776 11.7026 13.977C11.6911 14.0275 11.6874 14.0846 11.7194 14.1151C11.7554 14.1498 11.8285 14.1493 11.8668 14.1396C11.8853 14.0605 11.9059 14.0044 11.9085 13.9979C11.9212 13.9663 11.9531 13.9479 11.9872 13.9518Z" fill="#FFBE55"/>
<path d="M11.8406 14.2939C11.8327 14.2944 11.8254 14.2957 11.8171 14.2957C11.7948 14.2957 11.7715 14.2927 11.7482 14.2881C11.7344 14.3397 11.7296 14.3981 11.764 14.4332C11.7855 14.4551 11.8169 14.4636 11.8426 14.4652C11.837 14.4061 11.8356 14.3479 11.8406 14.2939Z" fill="#FFBE55"/>
<path d="M9.05641 10.9596L9.05603 10.9598C8.90566 11.0101 8.72711 10.9978 8.57092 10.9672C8.662 11.1076 8.69683 11.2769 8.70091 11.4343C8.89708 11.1784 9.11425 11.0612 9.26973 11.0056C9.18977 10.9985 9.11762 10.9837 9.05641 10.9596Z" fill="#FFBE55"/>
<path d="M12.6015 14.682C12.5676 14.6793 12.491 14.6696 12.4001 14.642C12.4322 14.6759 12.4642 14.7097 12.5023 14.7438C12.7527 14.9677 12.9563 15.3086 13.0893 15.5715C13.1367 15.4019 13.2482 15.2564 13.368 15.146C13.0334 15.1239 12.7716 14.8908 12.6015 14.682Z" fill="#FFBE55"/>
<path d="M10.9082 11.9421C10.8534 11.93 10.7917 11.9073 10.7317 11.8704C10.6916 11.998 10.6636 12.1161 10.6482 12.224C10.7312 12.2163 10.7939 12.217 10.8366 12.2205C10.857 12.1061 10.8853 12.0081 10.9082 11.9421Z" fill="#FFBE55"/>
<path d="M8.54509 11.5772C8.56305 11.4002 8.55344 11.1177 8.35712 10.948C8.35652 10.9479 8.35595 10.9481 8.35525 10.948C8.3492 10.9472 7.78792 10.8663 7.4133 11.249C7.27239 11.3929 7.18075 11.5056 7.1072 11.5961C7.00741 11.7189 6.93578 11.8071 6.81958 11.8754C7.17114 12.0007 8.02342 12.2118 8.54509 11.5772Z" fill="#FFBE55"/>
<path d="M13.7597 9.30916C13.9165 9.39334 14.1813 9.49249 14.4129 9.37619C14.4132 9.37563 14.4132 9.37502 14.4135 9.37441C14.4164 9.36953 14.7057 8.88156 14.4956 8.38896C14.4165 8.20366 14.3474 8.07593 14.2918 7.97336C14.2165 7.83433 14.1623 7.73425 14.1436 7.60071C13.8937 7.87802 13.3726 8.58452 13.7597 9.30916Z" fill="#FFBE55"/>
<path d="M13.5456 15.1934C13.4045 15.3017 13.2053 15.502 13.2161 15.7611C13.2166 15.7618 13.2173 15.7621 13.2178 15.7628C13.221 15.7675 13.547 16.2317 14.0824 16.2424C14.2844 16.2465 14.4289 16.236 14.5453 16.2274C14.7032 16.2157 14.8164 16.2077 14.9456 16.2451C14.7955 15.9035 14.3651 15.1391 13.5456 15.1934Z" fill="#FFBE55"/>
<path d="M12.3794 14.3465C12.378 14.3436 12.3792 14.3404 12.3782 14.3374L12.2759 14.4247C12.3429 14.4664 12.4136 14.4919 12.4741 14.5078C12.4138 14.4154 12.3806 14.3491 12.3794 14.3465Z" fill="#FFBE55"/>
<path d="M11.9574 13.348C11.929 13.346 11.9008 13.343 11.873 13.3381C11.8515 13.3728 11.8045 13.4715 11.874 13.5961C11.8998 13.6425 11.9434 13.7006 12.0041 13.7149C12.0402 13.7231 12.0818 13.7109 12.1258 13.6874C12.0361 13.5422 11.982 13.4143 11.9574 13.348Z" fill="#FFBE55"/>
<path d="M13.4883 10.7137C13.5661 10.6554 13.708 10.546 13.8763 10.4022C13.9267 10.082 14.1135 9.78376 14.2807 9.57155C14.1107 9.59513 13.9363 9.55341 13.7893 9.4906C13.986 10.017 13.5602 10.6002 13.4803 10.7031C13.4829 10.7067 13.4858 10.7099 13.4883 10.7137Z" fill="#FFBE55"/>
<path d="M12.1652 14.3223L12.3007 14.2065C12.2126 14.1761 12.1281 14.1265 12.0591 14.051C12.0694 14.0987 12.0979 14.1968 12.1652 14.3223Z" fill="#FFBE55"/>
<path d="M10.4928 12.2457C10.51 12.1011 10.548 11.94 10.6071 11.7642C10.5692 11.7211 10.536 11.6685 10.5095 11.6058C10.4395 11.7677 10.3384 12.0326 10.2994 12.2893C10.3705 12.2705 10.435 12.2561 10.4928 12.2457Z" fill="#FFBE55"/>
<path d="M13.1152 10.4211C13.1322 10.5183 13.1211 10.6302 13.0743 10.7597C13.1025 10.8097 13.1262 10.8793 13.1263 10.9549C13.1856 10.9423 13.1899 10.9064 13.2083 10.7105L13.2161 10.6296C13.2235 10.5552 13.2102 10.4985 13.1763 10.4613C13.1589 10.4419 13.1371 10.4301 13.1152 10.4211Z" fill="#FFBE55"/>
<path d="M13.099 11.7009C13.1477 11.6909 13.2093 11.6697 13.2586 11.6243C13.3332 11.5554 13.4158 11.4096 13.4022 11.344C13.4006 11.3359 13.3985 11.3306 13.3843 11.3255C13.3302 11.3062 13.3139 11.3132 13.314 11.3134C13.3106 11.316 13.3045 11.3296 13.3009 11.3376C13.2915 11.3583 13.2789 11.3864 13.2505 11.4049C13.2074 11.4331 13.1666 11.4406 13.129 11.4407C13.14 11.5451 13.1193 11.6401 13.099 11.7009Z" fill="#FFBE55"/>
<path d="M10.3546 11.0445C10.3649 10.9758 10.3849 10.9117 10.412 10.8542C10.2758 10.8032 9.96794 10.7038 9.71646 10.7384C9.36124 10.7862 9.0911 10.7464 8.91968 10.7004C9.00176 10.785 9.14276 10.873 9.36349 10.8638C9.91094 10.8529 10.2248 10.9767 10.3546 11.0445Z" fill="#FFBE55"/>
<path d="M9.66734 11.023C9.53778 11.1245 9.44225 11.2465 9.37695 11.3506C9.57823 11.2462 9.83661 11.1421 10.0075 11.0767C9.91545 11.0534 9.8022 11.0342 9.66734 11.023Z" fill="#FFBE55"/>
<path d="M13.3539 11.1655C13.377 11.1683 13.4022 11.1733 13.4313 11.1834C13.4301 11.1776 13.4292 11.1725 13.4277 11.1655C13.4185 11.1233 13.4067 11.065 13.4097 10.9802C13.4097 10.9796 13.4094 10.9792 13.4094 10.9786C13.4094 10.9781 13.4096 10.9777 13.4096 10.9771C13.4097 10.9753 13.4094 10.9744 13.4095 10.9726C13.4131 10.8939 13.3866 10.8302 13.3518 10.7831C13.3416 10.8843 13.3284 10.9607 13.2924 11.0145C13.3137 11.0483 13.3389 11.1008 13.3539 11.1655Z" fill="#FFBE55"/>
<path d="M13.5471 10.8567C13.5496 10.8676 13.5519 10.8787 13.5536 10.8901C13.9923 10.8306 14.3039 10.3893 14.4835 10.0359C14.1017 10.4401 13.6727 10.7646 13.5471 10.8567Z" fill="#FFBE55"/>
<path d="M11.7221 13.8304H11.7222C11.7597 13.8302 11.7979 13.802 11.8142 13.7647C11.7884 13.7374 11.764 13.7067 11.7431 13.6691C11.7291 13.644 11.7199 13.6199 11.7115 13.5961C11.682 13.6141 11.6492 13.6397 11.6345 13.6726C11.6235 13.697 11.624 13.7225 11.6359 13.7529C11.6498 13.7882 11.6759 13.8304 11.7221 13.8304Z" fill="#FFBE55"/>
<path d="M10.1434 12.3349C10.1732 12.0654 10.2715 11.7863 10.3492 11.5999C10.3006 11.6368 10.24 11.6748 10.1651 11.7107C10.1567 11.7293 10.0055 12.0681 9.948 12.4036C10.0171 12.3773 10.0823 12.3545 10.1434 12.3349Z" fill="#FFBE55"/>
<path d="M12.7961 14.6796C12.8835 14.6888 12.9645 14.6847 13.0348 14.6748C12.9015 14.6293 12.7686 14.5691 12.6598 14.5148C12.6983 14.5675 12.7439 14.6243 12.7961 14.6796Z" fill="#FFBE55"/>
<path d="M11.7257 13.2971C11.3654 13.1603 11.0812 12.7726 10.9793 12.2795C10.9494 12.4709 10.9475 12.7079 11.0494 12.9206C11.1598 13.1511 11.3785 13.3131 11.6923 13.4085C11.6991 13.364 11.7118 13.3264 11.7257 13.2971Z" fill="#FFBE55"/>
<path d="M13.6425 11.0314C13.6346 11.0331 13.6259 11.033 13.6179 11.0345C13.718 11.144 14.1203 11.631 14.2292 12.4807C14.3041 12.5094 14.3738 12.5387 14.4329 12.5686C14.3938 12.2228 14.2373 11.3482 13.6425 11.0314Z" fill="#FFBE55"/>
<path d="M9.78784 12.4679C9.81906 12.2093 9.91 11.9434 9.97187 11.7858C9.90925 11.8054 9.83955 11.8227 9.76291 11.8372C9.62791 12.0635 9.54606 12.4027 9.50842 12.5943C9.60784 12.546 9.70005 12.5049 9.78784 12.4679Z" fill="#FFBE55"/>
<path d="M12.2116 13.8135C12.1741 13.8354 12.1391 13.8496 12.1069 13.8574C12.1905 14.0228 12.3456 14.0792 12.4774 14.0938C12.3709 14.0095 12.2841 13.9114 12.2116 13.8135Z" fill="#FFBE55"/>
<path d="M11.1341 11.0121C11.1526 11.0035 11.1756 10.9969 11.1967 10.9894C11.1963 10.9855 11.1953 10.9819 11.1953 10.9779C11.1076 10.9761 10.9929 10.9619 10.9192 10.9032C10.8763 10.8688 10.8505 10.8229 10.8448 10.77C10.8273 10.6107 10.9333 10.5346 11.0454 10.4543C11.0911 10.4215 11.143 10.3835 11.1969 10.3352C11.0328 10.324 10.8856 10.379 10.7943 10.4978C10.7038 10.6152 10.6866 10.7658 10.749 10.8906C10.8342 11.0614 11.018 11.0442 11.1341 11.0121Z" fill="#FFBE55"/>
<path d="M10.9317 11.1786C10.8881 11.1736 10.8457 11.16 10.8049 11.1417C10.7985 11.2273 10.8038 11.3435 10.8594 11.4117C10.8608 11.3734 10.8655 11.3345 10.8768 11.2962C10.8875 11.2596 10.9046 11.219 10.9317 11.1786Z" fill="#FFBE55"/>
<path d="M11.4928 11.2301C11.671 11.2441 11.8078 11.1988 11.8892 11.1604C11.7525 11.0629 11.6531 11.0861 11.5873 11.1168C11.4816 11.166 11.3633 11.1629 11.2833 11.1168C11.2538 11.1302 11.2218 11.1435 11.1844 11.1543C11.1009 11.1962 11.0465 11.2558 11.0225 11.3323C11.0149 11.3563 11.0136 11.3801 11.0118 11.4037C11.0134 11.4024 11.0134 11.4 11.0151 11.3988C11.1866 11.2759 11.3472 11.2207 11.4928 11.2301Z" fill="#FFBE55"/>
<path d="M12.3067 13.2936C12.2455 13.3177 12.1823 13.3355 12.1172 13.3443C12.1603 13.4472 12.2455 13.6223 12.3804 13.7866C12.4507 13.6682 12.3679 13.4135 12.3067 13.2936Z" fill="#FFBE55"/>
<path d="M10.8843 11.6005C10.7253 11.5536 10.6638 11.4077 10.6525 11.257C10.6183 11.3285 10.6 11.418 10.6343 11.5175C10.7033 11.717 10.854 11.7752 10.9426 11.7936C10.9435 11.7704 10.9446 11.7473 10.9464 11.7242C10.9459 11.7237 10.9452 11.7236 10.9447 11.723C10.924 11.7002 10.9014 11.656 10.8843 11.6005Z" fill="#FFBE55"/>
<path d="M10.3519 11.212C10.3464 11.2096 10.3404 11.2101 10.3355 11.2065C10.3346 11.2059 10.3002 11.1831 10.2363 11.154C10.0111 11.2755 9.8847 11.5234 9.8269 11.671C10.2349 11.5722 10.3642 11.3866 10.3894 11.3432C10.3709 11.2991 10.3583 11.2552 10.3519 11.212Z" fill="#FFBE55"/>
<path d="M12.9878 12.8581C13.0635 12.6942 13.0798 12.5065 13.0398 12.2986C12.9493 12.7153 12.728 13.0548 12.4413 13.2276C12.4544 13.2538 12.4688 13.2864 12.4839 13.325C12.5965 13.2757 12.8594 13.1361 12.9878 12.8581Z" fill="#FFBE55"/>
<path d="M13.1685 11.2796C13.1776 11.2552 13.1911 11.2299 13.2109 11.2088C13.2021 11.1621 13.1836 11.123 13.1679 11.0978C13.1456 11.1037 13.1206 11.108 13.0921 11.1109C13.0901 11.111 13.0882 11.1111 13.0862 11.1112C13.0712 11.1391 13.0513 11.1666 13.0256 11.1932C13.0485 11.222 13.0682 11.2509 13.0826 11.2807C13.0865 11.2828 13.0913 11.2815 13.0949 11.2844C13.101 11.2887 13.129 11.3054 13.1685 11.2796Z" fill="#FFBE55"/>
<path d="M13.3815 11.7124C13.4589 11.9156 13.5071 12.1005 13.5263 12.2638C13.5872 12.2797 13.6522 12.2971 13.7196 12.3161C13.681 12.0285 13.56 11.726 13.4885 11.5658C13.4567 11.6228 13.4182 11.6741 13.3815 11.7124Z" fill="#FFBE55"/>
<path d="M13.3691 12.224C13.3492 12.0979 13.3112 11.9577 13.2555 11.8052C13.192 11.8362 13.1298 11.8494 13.0839 11.8553C13.084 11.8632 13.0847 11.8709 13.0847 11.8789C13.0847 11.8979 13.0832 11.9165 13.0826 11.9353C13.0845 11.9384 13.087 11.9407 13.0885 11.9441C13.121 12.0234 13.1458 12.1004 13.1655 12.1759C13.1891 12.1812 13.2637 12.1981 13.3691 12.224Z" fill="#FFBE55"/>
<path d="M13.8758 12.3615C13.9398 12.3808 14.0039 12.4011 14.0663 12.4221C13.9717 11.8159 13.7235 11.413 13.585 11.2314C13.5837 11.2606 13.5775 11.2922 13.5599 11.3287C13.5579 11.3331 13.5536 11.3351 13.5509 11.3389C13.5516 11.3471 13.5529 11.3552 13.5527 11.3637C13.5583 11.3691 13.5637 11.3747 13.5674 11.382C13.5781 11.403 13.8329 11.9034 13.8758 12.3615Z" fill="#FFBE55"/>
<path d="M12.0112 13.202C12.5205 13.202 12.9348 12.6085 12.9348 11.8789C12.9348 11.8389 12.9335 11.7995 12.9311 11.7604C12.8321 11.6116 12.6591 11.5078 12.6078 11.4794C12.3024 11.4739 12.0987 11.3379 12.0118 11.266C11.9254 11.3161 11.7379 11.398 11.4814 11.3795C11.3774 11.3729 11.2583 11.4136 11.1254 11.5041C11.1003 11.6256 11.0875 11.7514 11.0875 11.8789C11.0875 12.6085 11.5019 13.202 12.0112 13.202Z" fill="#FFD7AA"/>
<path d="M8.39642 14.1367C8.41006 14.133 8.54745 14.0957 8.74859 14.0792C9.68013 13.8692 10.774 13.201 10.9711 13.0774C10.9518 13.0466 10.9296 13.0177 10.9137 12.9845C10.8157 12.7795 10.8001 12.5606 10.8164 12.3697C10.6761 12.3607 10.2481 12.3808 9.44295 12.7943C9.43212 12.7998 9.42044 12.8025 9.40873 12.8025C9.3934 12.8025 9.37821 12.7979 9.36532 12.7886C9.34249 12.7724 9.33063 12.7447 9.33462 12.717C9.33696 12.7004 9.37507 12.44 9.46207 12.163C8.99946 12.26 8.02278 13.2457 7.48512 13.7889C7.38354 13.8917 7.29204 13.9841 7.21461 14.0604C7.20392 14.0709 7.19257 14.0809 7.18114 14.091C7.11317 14.151 7.043 14.2131 7.09268 14.5707C7.13853 14.9008 7.568 14.9346 7.88754 14.9368H7.91093C8.01148 14.9368 8.25359 15.0204 8.67298 15.1684C9.08018 15.3121 9.54176 15.475 9.84059 15.5309C9.98355 15.5575 10.1177 15.5815 10.2415 15.6035C10.6192 15.671 10.8921 15.7195 11.035 15.7786C11.2084 15.8504 11.3996 16.2047 11.5653 16.5312L11.5971 16.5934C11.6947 16.7818 11.7131 17.0176 11.6448 17.2085C11.6117 17.3015 11.6353 17.3503 11.6471 17.367C11.6587 17.3834 11.6723 17.3892 11.6804 17.3892C11.719 17.3892 11.7468 17.3892 11.7775 17.2917C11.8165 17.1687 11.8262 17.1568 11.9898 16.9588L12.0346 16.9048C12.2032 16.7003 12.0342 16.2806 11.953 16.0787L11.9416 16.0504C11.8839 15.9061 11.935 15.7545 11.9845 15.6081C12.0181 15.5084 12.0528 15.4055 12.0528 15.307C12.0528 15.2855 12.0471 15.2711 12.0335 15.2582C11.9549 15.1837 11.6884 15.1979 11.4937 15.2078C11.4219 15.2117 11.3538 15.2152 11.2955 15.2152C10.994 15.2152 10.5102 14.9139 9.80669 14.4541C9.45785 14.2265 9.04432 14.2068 8.76368 14.2292C8.64748 14.2546 8.53334 14.2731 8.42328 14.2831C8.38535 14.2864 8.34982 14.2603 8.34284 14.2221C8.3359 14.1843 8.35906 14.147 8.39642 14.1367Z" fill="#FFD7AA"/>
<path d="M17.0019 9.2184C16.8753 9.24512 16.8601 9.24222 16.6055 9.19581L16.5384 9.18372C16.2768 9.13558 15.9943 9.48972 15.8582 9.65917L15.839 9.68298C15.7414 9.80392 15.5844 9.83336 15.4327 9.862C15.3292 9.8815 15.2222 9.90156 15.1363 9.94993C15.1177 9.96029 15.1079 9.97253 15.1033 9.99071C15.0767 10.0954 15.2195 10.3211 15.3238 10.4859C15.3622 10.5465 15.3986 10.6043 15.4271 10.6549C15.5746 10.9176 15.5486 11.4871 15.4921 12.3259C15.4627 12.7637 15.6699 13.151 15.8313 13.3819C15.8964 13.4554 15.9593 13.5331 16.0187 13.6144C16.0418 13.646 16.0367 13.69 16.0069 13.7154C15.9772 13.7411 15.9328 13.739 15.9053 13.7113C15.896 13.7019 15.8103 13.6146 15.7083 13.4695C15.2988 13.0134 14.7961 12.7119 14.587 12.5976C14.5924 12.6571 14.5945 12.6976 14.5949 12.7061C14.596 12.7354 14.58 12.7625 14.5539 12.7757C14.5432 12.781 14.5315 12.7838 14.5201 12.7838C14.5035 12.7838 14.487 12.7783 14.4735 12.7676C14.2749 12.6095 13.5454 12.4174 13.1992 12.3371C13.2297 12.5508 13.2045 12.7467 13.123 12.9224C13.0393 13.1027 12.9106 13.2295 12.7894 13.3188C13.4246 14.1036 14.9287 14.4389 15.8343 14.6398C16.0675 14.6915 16.269 14.7362 16.417 14.779C16.4316 14.7833 16.4458 14.7882 16.4601 14.7932C16.5458 14.8231 16.6341 14.8541 16.922 14.6355C17.1875 14.4338 17.0092 14.041 16.8519 13.7631L16.8405 13.7428C16.7914 13.6553 16.7458 13.4031 16.6696 12.965C16.5956 12.5395 16.5118 12.0571 16.4142 11.7691C16.3673 11.6308 16.3223 11.5015 16.2808 11.3824C16.155 11.0208 16.064 10.7595 16.0457 10.6064C16.0235 10.4201 16.2386 10.0802 16.442 9.77617L16.4811 9.71725C16.5978 9.53978 16.7944 9.40853 16.9942 9.37459C17.0914 9.35804 17.1224 9.31337 17.1312 9.29504C17.1398 9.2769 17.1383 9.26232 17.1344 9.25525C17.1156 9.22192 17.102 9.19712 17.0019 9.2184Z" fill="#FFD7AA"/>
<path d="M7.248 9.16765C7.33528 9.26304 7.34063 9.27748 7.43053 9.51851L7.45491 9.58362C7.54795 9.83224 7.99631 9.89547 8.2117 9.92566L8.24156 9.92997C8.39536 9.95201 8.50097 10.0718 8.60311 10.1878C8.67272 10.2668 8.74467 10.3483 8.83003 10.3975C8.84873 10.4081 8.86425 10.4105 8.88201 10.4051C8.98579 10.3744 9.10668 10.1365 9.19495 9.96274C9.22762 9.89862 9.25851 9.83772 9.28767 9.78724C9.43795 9.52652 9.94068 9.25774 10.6906 8.87763C11.1039 8.66801 11.334 8.26034 11.4436 8.00454C11.4688 7.92068 11.4971 7.84095 11.529 7.76642C11.5445 7.73032 11.5848 7.71335 11.6219 7.72489C11.659 7.73754 11.6801 7.77654 11.6704 7.81456C11.6675 7.82604 11.6414 7.92438 11.5824 8.06342C11.3818 8.74601 11.3908 9.71294 11.4042 10.1023C11.5554 9.93672 11.6991 9.89922 11.7982 9.89922C11.9076 9.89922 12.0076 9.94713 12.0876 10.0311C12.1714 9.92247 12.2669 9.90143 12.3366 9.90199C12.4629 9.90508 12.5676 9.98618 12.6343 10.0705C12.7074 10.0742 12.8724 10.0936 12.9926 10.1966C13.1582 9.38365 12.7775 8.22865 12.5205 7.45071C12.4401 7.20715 12.3705 6.99668 12.3269 6.82901C12.323 6.81439 12.3199 6.79957 12.3169 6.78453C12.2988 6.69575 12.28 6.60397 11.9455 6.4684C11.6361 6.34222 11.39 6.69696 11.2313 6.9739L11.2196 6.99439C11.1694 7.08153 10.9757 7.24971 10.6378 7.53931C10.3102 7.82014 9.93871 8.13865 9.74114 8.36951C9.64664 8.4799 9.55884 8.58406 9.47807 8.68015C9.23109 8.97382 9.05254 9.18607 8.92997 9.28024C8.78095 9.3949 8.37825 9.3836 8.01206 9.36391L7.9432 9.3604C7.8278 9.35533 7.71333 9.32088 7.61058 9.26735L7.60205 9.26524L7.59703 9.25915C7.51673 9.21527 7.44314 9.16113 7.38661 9.09462C7.34953 9.05098 7.31658 9.03265 7.2907 9.02421L7.20839 9.04249C7.19175 9.0723 7.18425 9.09813 7.248 9.16765Z" fill="#FFD7AA"/>
<path d="M17.265 9.18212C17.2054 9.07581 17.1146 9.04192 16.9713 9.07173C16.8733 9.09241 16.8733 9.09222 16.6324 9.04853L16.5651 9.0362C16.2156 8.97264 15.8955 9.37319 15.7414 9.56528L15.7223 9.58886C15.6594 9.66686 15.5415 9.68889 15.4049 9.71467C15.2896 9.73651 15.1703 9.75897 15.063 9.8192C15.009 9.84962 14.9725 9.89608 14.958 9.95378C14.9158 10.1211 15.0588 10.3472 15.1971 10.5658C15.234 10.6241 15.269 10.6794 15.2964 10.7282C15.4331 10.9718 15.387 11.655 15.3426 12.3158C15.3252 12.5749 15.3806 12.8152 15.4627 13.0208C15.0381 12.6553 14.6308 12.449 14.5648 12.4167C14.5062 12.0199 14.3324 11.3199 13.8263 10.9701C14.4844 10.6784 14.7972 9.68626 14.8121 9.63747C14.8228 9.60255 14.8068 9.56509 14.7742 9.54869C14.7418 9.53214 14.7019 9.54165 14.6803 9.57114C14.5083 9.80453 14.2873 10.0311 14.0786 10.2229C14.2063 9.862 14.49 9.54686 14.6131 9.42278C14.6348 9.40426 14.6559 9.38359 14.6765 9.36119C14.7034 9.33175 14.7025 9.28628 14.6744 9.25783C14.6643 9.2477 14.6508 9.24522 14.6378 9.24203C14.7143 9.03072 14.7854 8.68656 14.6333 8.33008C14.5516 8.13855 14.4806 8.0073 14.4236 7.90202C14.3213 7.71302 14.2746 7.62686 14.2886 7.42736C14.2907 7.39694 14.2743 7.3683 14.247 7.35499C14.2197 7.34135 14.187 7.34585 14.1642 7.3661C14.1538 7.37528 13.1883 8.24992 13.555 9.21822C13.5439 9.22211 13.5321 9.22436 13.5235 9.2335C13.4975 9.26158 13.4968 9.30489 13.5221 9.33372C13.9335 9.80308 13.4776 10.4593 13.3732 10.5969C13.3708 10.5953 13.3686 10.5933 13.3662 10.5918C13.3662 10.4981 13.3409 10.4199 13.2873 10.3607C13.2403 10.3087 13.1818 10.2812 13.13 10.2666C13.3254 9.41387 12.9447 8.25724 12.6627 7.40374C12.5831 7.16252 12.5142 6.95439 12.4717 6.79117C12.4686 6.77908 12.4662 6.76699 12.4636 6.75471C12.4347 6.61272 12.38 6.48283 12.0017 6.32955C11.5362 6.14116 11.2088 6.712 11.1013 6.8996L11.0899 6.91952C11.05 6.9888 10.7908 7.21089 10.5402 7.42558C10.2084 7.70992 9.83237 8.03228 9.6272 8.272C9.53251 8.38281 9.44457 8.48748 9.36339 8.58386C9.1314 8.85958 8.94831 9.07726 8.83857 9.16173C8.72106 9.2522 8.21158 9.22473 8.02004 9.21437L7.94987 9.21067C7.77803 9.20308 7.60595 9.12156 7.50067 8.99753C7.42375 8.90687 7.32681 8.86061 7.23466 8.8682C7.16922 8.87425 7.11226 8.90856 7.08245 8.96026C7.02161 9.06578 7.03867 9.16117 7.13776 9.26898C7.20531 9.3429 7.20531 9.3429 7.29034 9.5709L7.31481 9.63644C7.43903 9.96836 7.94687 10.0397 8.19095 10.0743L8.22039 10.0784C8.31953 10.0926 8.39893 10.1827 8.4909 10.287C8.55597 10.3607 8.62628 10.433 8.70901 10.4918C8.70395 10.4943 8.69804 10.4945 8.69354 10.4983C8.67006 10.5178 8.66059 10.5494 8.66964 10.5784C8.67048 10.581 8.72223 10.7209 8.86098 10.8417C8.64217 10.8524 8.39209 10.7687 8.29183 10.7302C8.27593 10.7231 8.25943 10.7165 8.24247 10.7102C8.20445 10.6962 8.1625 10.7155 8.1474 10.7528C8.14225 10.7656 8.14211 10.7788 8.14408 10.7916C7.91954 10.8021 7.57628 10.8688 7.30637 11.1442C7.16059 11.2932 7.06647 11.4088 6.991 11.5018C6.85548 11.6686 6.79352 11.7446 6.60391 11.808C6.57503 11.8176 6.55488 11.8437 6.55291 11.8741C6.55084 11.9045 6.56744 11.933 6.59486 11.9462C6.60255 11.9499 7.048 12.1616 7.5654 12.1616C7.89231 12.1616 8.24781 12.0766 8.53993 11.8019C8.54772 11.8103 8.55404 11.8202 8.56543 11.8244C8.57401 11.8275 8.58282 11.8291 8.59145 11.8291C8.61925 11.8291 8.64564 11.8134 8.65862 11.7873C8.87481 11.3498 9.17284 11.1924 9.34632 11.136C9.19168 11.3329 9.12367 11.5189 9.11987 11.5299C9.10876 11.5617 9.12034 11.5972 9.14828 11.6163C9.17621 11.6354 9.21348 11.6334 9.23917 11.6114C9.35209 11.5153 9.62706 11.3914 9.86021 11.2963C9.71921 11.4894 9.65804 11.6943 9.64515 11.7415C9.59607 11.8203 9.55374 11.9111 9.51737 12.0054C9.06189 12.0218 8.21195 12.8422 7.37898 13.6838C7.27787 13.7859 7.1868 13.8778 7.10978 13.9537C7.10087 13.9625 7.09164 13.9706 7.08217 13.979C6.97375 14.075 6.88839 14.1871 6.94459 14.5916C7.01387 15.0893 7.67223 15.0881 7.88828 15.0867H7.9112C7.99098 15.0867 8.3125 15.2002 8.62332 15.3098C9.03573 15.4555 9.50312 15.6203 9.81334 15.6782C9.95668 15.7051 10.0914 15.7291 10.2155 15.7511C10.57 15.8143 10.8501 15.8645 10.9779 15.9173C11.1148 15.9738 11.3452 16.428 11.432 16.5991L11.4644 16.6627C11.5435 16.8152 11.5588 17.0053 11.504 17.1585C11.464 17.2704 11.4716 17.3779 11.5249 17.4535C11.5628 17.5072 11.621 17.5394 11.6806 17.5394C11.8024 17.5394 11.8764 17.4769 11.9205 17.3373C11.9506 17.2419 11.9506 17.2419 12.1054 17.0548L12.1502 17.0003C12.3757 16.7272 12.1843 16.2517 12.0922 16.023L12.0809 15.995C12.0437 15.9019 12.082 15.7881 12.1265 15.6564C12.164 15.5453 12.2027 15.4304 12.2027 15.3073C12.2027 15.2453 12.1799 15.1909 12.1367 15.1497C12.0115 15.0309 11.7441 15.0454 11.4859 15.0586C11.4169 15.0623 11.3516 15.0659 11.2957 15.0659C11.0162 15.0659 10.443 14.6915 9.88876 14.3293C9.68078 14.1934 9.45531 14.1241 9.24414 14.0929C10.0836 13.8056 10.9027 13.2985 11.0602 13.1985C11.1831 13.3385 11.3472 13.4496 11.5581 13.5258C11.5346 13.5492 11.5133 13.5773 11.4982 13.6104C11.4706 13.6717 11.4699 13.7398 11.4964 13.8076C11.5129 13.8496 11.5371 13.8827 11.5647 13.9104C11.5167 14.0783 11.5638 14.1711 11.6132 14.2201C11.5593 14.3873 11.606 14.4856 11.657 14.538C11.7105 14.5928 11.7848 14.6162 11.8503 14.6162C11.859 14.6162 11.866 14.6135 11.8742 14.6127C11.8966 14.6811 11.9277 14.7481 11.98 14.8077L11.9963 14.826C12.2225 15.0832 12.6008 15.5137 12.6455 15.7145C12.6539 15.752 12.6891 15.7761 12.7264 15.7728C12.7643 15.7689 12.7931 15.7372 12.7935 15.6991C12.7936 15.688 12.7951 15.5151 12.7872 15.3387C12.9533 15.6083 13.0681 15.8756 13.1064 15.9697C13.1111 15.9823 13.1163 15.9952 13.1219 16.0081C13.134 16.0364 13.1617 16.0534 13.1906 16.0534C13.2 16.0534 13.2095 16.0516 13.2188 16.0479C13.2313 16.0428 13.2407 16.034 13.2485 16.024C13.4101 16.1804 13.6939 16.3845 14.0795 16.3922C14.2876 16.3956 14.4367 16.3854 14.5562 16.3768C14.7705 16.361 14.8682 16.354 15.0442 16.4486C15.0553 16.4547 15.0675 16.4576 15.0797 16.4576C15.0967 16.4576 15.1136 16.4517 15.1274 16.4404C15.1508 16.4211 15.1602 16.3893 15.1512 16.3605C15.147 16.3472 14.7457 15.1093 13.7128 15.0445C13.7138 15.0327 13.7166 15.0209 13.7117 15.0093C13.6968 14.9738 13.6577 14.9551 13.6209 14.9668C13.3653 15.045 13.143 14.9633 12.9665 14.8324C13.1949 14.8182 13.3535 14.7396 13.3618 14.7355C13.3914 14.7205 13.4078 14.6877 13.4017 14.6551C13.3958 14.6224 13.369 14.5976 13.3358 14.5941C13.0011 14.5588 12.4905 14.253 12.4854 14.2499C12.4834 14.2487 12.481 14.2494 12.4789 14.2485C12.4799 14.2473 12.4808 14.2461 12.4817 14.2449C12.5103 14.2476 12.5386 14.2489 12.5656 14.2489C12.6291 14.2489 12.6871 14.2423 12.7341 14.2324C12.7654 14.2258 12.789 14.2 12.7929 14.1684C12.7969 14.1366 12.7803 14.106 12.7517 14.0918C12.6496 14.0416 12.5612 13.9737 12.4842 13.8988C12.5764 13.7869 12.5678 13.6179 12.5295 13.4686C12.563 13.4547 12.6086 13.433 12.6635 13.4018C13.3257 14.2352 14.813 14.5666 15.802 14.7863C16.0327 14.8373 16.232 14.8816 16.3757 14.9232C16.3876 14.9267 16.3992 14.9308 16.4111 14.9348C16.4582 14.9513 16.5056 14.9643 16.5607 14.9643C16.6658 14.9643 16.7993 14.9169 17.0127 14.755C17.4131 14.4508 17.0891 13.8778 16.9825 13.6896L16.9714 13.6696C16.9324 13.6002 16.874 13.2644 16.8175 12.9397C16.7425 12.5086 16.6576 12.0203 16.5562 11.7213C16.5092 11.5824 16.464 11.4528 16.4225 11.3334C16.3043 10.9939 16.211 10.7259 16.1947 10.5887C16.1771 10.442 16.4602 10.0188 16.5667 9.85965L16.6065 9.79975C16.7011 9.65579 16.8593 9.54972 17.0195 9.52262C17.1367 9.50256 17.2268 9.44322 17.2665 9.35959C17.2946 9.3003 17.2942 9.23397 17.265 9.18212ZM17.1313 9.29519C17.1224 9.31351 17.0915 9.35819 16.9942 9.37473C16.7944 9.40867 16.5979 9.53992 16.4812 9.71739L16.4421 9.77631C16.2386 10.0803 16.0236 10.4203 16.0457 10.6065C16.0641 10.7596 16.155 11.0209 16.2808 11.3825C16.3223 11.5017 16.3673 11.631 16.4142 11.7692C16.5118 12.0573 16.5957 12.5396 16.6697 12.9652C16.7458 13.4032 16.7914 13.6553 16.8405 13.743L16.852 13.7633C17.0093 14.0412 17.1875 14.4339 16.922 14.6356C16.6342 14.8542 16.5459 14.8232 16.4602 14.7934C16.4458 14.7883 16.4316 14.7834 16.4171 14.7792C16.269 14.7363 16.0675 14.6916 15.8344 14.64C14.9288 14.439 13.4247 14.1037 12.7895 13.3189C12.9106 13.2297 13.0393 13.1028 13.123 12.9226C13.2046 12.7469 13.2297 12.551 13.1992 12.3372C13.5454 12.4175 14.2749 12.6096 14.4735 12.7677C14.487 12.7784 14.5035 12.7839 14.5201 12.7839C14.5316 12.7839 14.5432 12.7812 14.5539 12.7759C14.58 12.7627 14.596 12.7355 14.5949 12.7063C14.5946 12.6977 14.5925 12.6572 14.587 12.5977C14.7961 12.7121 15.2989 13.0136 15.7083 13.4696C15.8103 13.6147 15.896 13.7021 15.9053 13.7115C15.9329 13.7391 15.9772 13.7413 16.007 13.7155C16.0367 13.6902 16.0419 13.6461 16.0188 13.6145C15.9594 13.5332 15.8965 13.4556 15.8314 13.3821C15.6699 13.1512 15.4627 12.7639 15.4921 12.326C15.5487 11.4872 15.5747 10.9177 15.4272 10.6551C15.3986 10.6044 15.3622 10.5467 15.3238 10.486C15.2196 10.3212 15.0768 10.0955 15.1033 9.99086C15.1079 9.97272 15.1178 9.96043 15.1364 9.95008C15.2223 9.9017 15.3292 9.88164 15.4327 9.86214C15.5844 9.8335 15.7414 9.80401 15.8391 9.68312L15.8582 9.65931C15.9944 9.48981 16.2768 9.13567 16.5384 9.18386L16.6055 9.19595C16.8601 9.24236 16.8753 9.24531 17.0019 9.21855C17.1021 9.19726 17.1156 9.22206 17.1344 9.25558C17.1383 9.26247 17.1398 9.27709 17.1313 9.29519ZM14.5453 16.2274C14.4289 16.236 14.2844 16.2465 14.0824 16.2424C13.547 16.2317 13.221 15.7675 13.2178 15.7628C13.2173 15.7621 13.2166 15.7618 13.2161 15.7611C13.2053 15.502 13.4045 15.3016 13.5456 15.1934C14.3651 15.1391 14.7955 15.9035 14.9457 16.2451C14.8164 16.2076 14.7031 16.2157 14.5453 16.2274ZM13.0893 15.5715C12.9563 15.3086 12.7527 14.9677 12.5023 14.7438C12.4642 14.7098 12.4321 14.6759 12.4001 14.642C12.491 14.6696 12.5676 14.6793 12.6015 14.682C12.7716 14.8908 13.0334 15.1238 13.368 15.146C13.2481 15.2564 13.1366 15.4019 13.0893 15.5715ZM11.7483 14.2881C11.7716 14.2927 11.7949 14.2957 11.8172 14.2957C11.8255 14.2957 11.8328 14.2943 11.8407 14.2938C11.8357 14.3479 11.8371 14.4061 11.8427 14.4652C11.8171 14.4636 11.7856 14.4551 11.7641 14.4332C11.7297 14.398 11.7345 14.3397 11.7483 14.2881ZM11.8668 14.1396C11.8286 14.1494 11.7554 14.1497 11.7194 14.1151C11.6875 14.0846 11.6912 14.0274 11.7026 13.977C11.7092 13.9776 11.7152 13.9801 11.722 13.9801C11.7221 13.9801 11.7222 13.9801 11.7222 13.9801C11.8102 13.98 11.8924 13.9265 11.9373 13.8487C11.9384 13.8491 11.9394 13.8495 11.9406 13.8498C11.9407 13.8502 11.9406 13.8504 11.9407 13.8508C11.9537 13.8878 11.9696 13.9209 11.9872 13.9518C11.9531 13.9479 11.9212 13.9663 11.9086 13.9978C11.9059 14.0044 11.8853 14.0604 11.8668 14.1396ZM8.4234 14.2834C8.53347 14.2734 8.64756 14.2549 8.76381 14.2295C9.04445 14.2071 9.45798 14.2268 9.80682 14.4544C10.5104 14.9143 10.9942 15.2155 11.2957 15.2155C11.354 15.2155 11.422 15.212 11.4938 15.2081C11.6885 15.1982 11.955 15.1839 12.0337 15.2585C12.0472 15.2714 12.053 15.2858 12.053 15.3073C12.053 15.4058 12.0183 15.5087 11.9846 15.6084C11.9351 15.7549 11.884 15.9064 11.9417 16.0507L11.9532 16.079C12.0344 16.2809 12.2034 16.7006 12.0347 16.9051L11.99 16.9591C11.8264 17.1571 11.8166 17.169 11.7777 17.292C11.7468 17.3895 11.7191 17.3895 11.6806 17.3895C11.6725 17.3895 11.6589 17.3837 11.6473 17.3673C11.6355 17.3505 11.6118 17.3018 11.6449 17.2088C11.7132 17.0179 11.6948 16.7821 11.5973 16.5937L11.5654 16.5315C11.3998 16.205 11.2085 15.8506 11.0351 15.7789C10.8923 15.7199 10.6193 15.6713 10.2416 15.6038C10.1179 15.5818 9.98368 15.5578 9.84071 15.5312C9.54184 15.4753 9.08031 15.3124 8.67311 15.1687C8.25372 15.0207 8.01161 14.937 7.91106 14.937H7.88767C7.56812 14.9349 7.13866 14.9011 7.09281 14.571C7.04312 14.2133 7.1133 14.1513 7.18126 14.0913C7.1927 14.0812 7.20395 14.0712 7.21473 14.0607C7.29217 13.9845 7.38362 13.892 7.48525 13.7892C8.0229 13.246 8.99959 12.2603 9.4622 12.1633C9.3752 12.4403 9.33709 12.7007 9.33474 12.7173C9.33076 12.745 9.34267 12.7727 9.36545 12.7889C9.37834 12.7981 9.39353 12.8028 9.40885 12.8028C9.42053 12.8028 9.43225 12.8001 9.44307 12.7946C10.2482 12.3811 10.6762 12.361 10.8166 12.37C10.8001 12.5609 10.8159 12.7798 10.9139 12.9848C10.9298 13.018 10.9519 13.0469 10.9712 13.0777C10.7741 13.2013 9.68026 13.8695 8.74871 14.0795C8.54757 14.096 8.41014 14.1333 8.39654 14.137C8.35918 14.1473 8.33598 14.1846 8.34301 14.2226C8.34995 14.2606 8.38543 14.2867 8.4234 14.2834ZM8.7009 11.4342C8.69682 11.2768 8.662 11.1076 8.57092 10.9672C8.72711 10.9978 8.9057 11.0101 9.05603 10.9598L9.0564 10.9596C9.11762 10.9837 9.18976 10.9985 9.26973 11.0056C9.11425 11.0612 8.89707 11.1784 8.7009 11.4342ZM7.10716 11.5961C7.18066 11.5057 7.27234 11.3929 7.41325 11.249C7.78787 10.8664 8.3492 10.9473 8.3552 10.9481C8.35581 10.9482 8.35637 10.9479 8.35708 10.948C8.55343 11.1178 8.563 11.4003 8.54504 11.5772C8.02337 12.2118 7.17109 12.0007 6.81948 11.8754C6.93569 11.8071 7.00741 11.719 7.10716 11.5961ZM14.4956 8.38895C14.7057 8.88156 14.4164 9.36953 14.4135 9.3744C14.4131 9.37497 14.4132 9.37558 14.4129 9.37619C14.1813 9.49248 13.9165 9.39339 13.7597 9.30915C13.3726 8.58452 13.8938 7.87802 14.1437 7.60066C14.1624 7.73425 14.2165 7.83428 14.2918 7.97331C14.3474 8.07592 14.4165 8.20366 14.4956 8.38895ZM13.7893 9.49061C13.9363 9.55342 14.1106 9.59514 14.2807 9.57156C14.1135 9.78386 13.9267 10.082 13.8762 10.4022C13.7079 10.546 13.566 10.6554 13.4882 10.7137C13.4858 10.7099 13.4828 10.7067 13.4803 10.7031C13.5601 10.6003 13.986 10.017 13.7893 9.49061ZM12.1651 14.3223C12.0979 14.1968 12.0693 14.0987 12.0591 14.0511C12.1281 14.1265 12.2126 14.1762 12.3007 14.2066L12.1651 14.3223ZM12.3781 14.3374C12.3792 14.3404 12.378 14.3437 12.3793 14.3465C12.3805 14.3491 12.4137 14.4154 12.474 14.5077C12.4135 14.4918 12.3428 14.4663 12.2758 14.4246L12.3781 14.3374ZM12.4024 14.8554C12.4775 14.9227 12.5487 15.0023 12.6148 15.0877C12.6149 15.0901 12.6152 15.0926 12.6156 15.0949C12.6279 15.169 12.635 15.2757 12.6389 15.3787C12.5093 15.1879 12.3148 14.9616 12.1088 14.7271L12.0925 14.7086C11.993 14.5955 11.9782 14.4413 11.99 14.3108C12.0591 14.4624 12.1829 14.6592 12.4024 14.8554ZM12.0039 13.7149C11.9433 13.7007 11.8997 13.6425 11.8739 13.5961C11.8043 13.4716 11.8514 13.3728 11.8729 13.3381C11.9007 13.343 11.9288 13.3461 11.9573 13.348C11.9819 13.4143 12.036 13.5423 12.1257 13.6874C12.0817 13.7109 12.0401 13.7231 12.0039 13.7149ZM12.3328 10.0517C12.3902 10.0531 12.4563 10.0905 12.5069 10.1482C12.486 10.1741 12.4516 10.2036 12.4053 10.195C12.1973 10.1574 12.1349 10.3608 12.1144 10.4277C12.0931 10.497 12.0101 10.6533 11.9427 10.7237C11.8966 10.7029 11.8477 10.6877 11.7958 10.6817C11.8729 10.5731 12.0153 10.3783 12.2025 10.1262C12.2406 10.075 12.2898 10.0476 12.3328 10.0517ZM11.9149 10.8749C11.9825 10.918 12.0393 10.9904 12.1049 11.0742C12.1458 11.1266 12.1933 11.1832 12.246 11.2386C12.1362 11.1826 12.0753 11.1215 12.0742 11.1205C12.0737 11.12 12.0729 11.1201 12.0724 11.1196C12.0719 11.1191 12.0721 11.1182 12.0715 11.1177C11.8906 10.9426 11.7065 10.8962 11.5241 10.981C11.4615 11.0099 11.4014 11.0056 11.369 10.9931C11.3504 10.9861 11.3438 10.9779 11.3432 10.9772C11.3432 10.9748 11.3466 10.9652 11.3603 10.9506C11.4449 10.8615 11.7435 10.7661 11.9149 10.8749ZM11.3923 10.7516C11.4981 10.6457 11.6087 10.5156 11.7062 10.3963L11.7258 10.3725C11.7544 10.3378 11.8048 10.3626 11.8302 10.3786C11.7249 10.5226 11.6392 10.642 11.6111 10.6871C11.5324 10.699 11.4566 10.7213 11.3923 10.7516ZM12.4128 10.8222C12.531 10.8491 12.5933 10.8817 12.6253 10.9149C12.5149 10.8968 12.3564 10.8974 12.2317 10.993C12.2288 10.9893 12.2257 10.9856 12.2228 10.9819C12.1726 10.9176 12.1216 10.8601 12.0659 10.8094C12.0939 10.7774 12.1204 10.7406 12.1446 10.7017C12.1971 10.7355 12.3032 10.7974 12.4128 10.8222ZM12.2169 10.5699C12.2362 10.5294 12.2508 10.4939 12.2575 10.4718C12.2948 10.3507 12.327 10.3329 12.3786 10.3425C12.385 10.3436 12.3907 10.343 12.3969 10.3437C12.449 10.5365 12.6059 10.6171 12.7234 10.6757C12.7867 10.7073 12.8464 10.7372 12.8585 10.7694C12.8731 10.8082 12.8347 10.8542 12.7884 10.8914C12.7468 10.7906 12.6323 10.7186 12.446 10.6763C12.352 10.655 12.2555 10.5956 12.2169 10.5699ZM11.1256 11.5041C11.2584 11.4136 11.3775 11.3728 11.4815 11.3795C11.738 11.398 11.9254 11.3161 12.0119 11.266C12.0988 11.3379 12.3025 11.4739 12.6079 11.4794C12.6592 11.5078 12.8323 11.6116 12.9312 11.7604C12.9337 11.7996 12.9349 11.839 12.9349 11.8789C12.9349 12.6085 12.5206 13.202 12.0113 13.202C11.502 13.202 11.0877 12.6085 11.0877 11.8789C11.0876 11.7514 11.1004 11.6256 11.1256 11.5041ZM12.9755 11.5779C12.8738 11.4682 12.7564 11.3921 12.698 11.3584C12.7665 11.3441 12.839 11.3204 12.9068 11.283C12.986 11.3815 12.9905 11.4936 12.9755 11.5779ZM12.9088 11.1002C12.7718 11.2282 12.5312 11.2323 12.4617 11.2307C12.4117 11.1933 12.3669 11.1522 12.3273 11.1077C12.4687 11.0053 12.7003 11.0869 12.7028 11.0878C12.7104 11.0907 12.7181 11.0912 12.7258 11.0914C12.7269 11.0915 12.7278 11.0925 12.729 11.0925C12.7294 11.0925 12.7299 11.0921 12.7304 11.0921C12.7409 11.0919 12.7512 11.0897 12.7606 11.0853C12.7607 11.0852 12.761 11.0853 12.761 11.0853C12.8306 11.0522 12.9211 10.9895 12.9722 10.9093C12.9838 10.965 12.978 11.0356 12.9088 11.1002ZM12.9518 10.6466C12.91 10.6032 12.852 10.5725 12.7903 10.5418C12.6864 10.4899 12.5825 10.4333 12.5453 10.3097C12.5857 10.2849 12.6173 10.2518 12.6395 10.2199C12.7113 10.2253 12.8626 10.2501 12.9339 10.3518C12.9823 10.4212 12.9869 10.5211 12.9518 10.6466ZM11.9188 10.2579C11.844 10.2069 11.7073 10.1599 11.6102 10.2774L11.5904 10.3015C11.4987 10.4135 11.22 10.754 11.0801 10.8109C11.0785 10.8116 11.0775 10.8129 11.0759 10.8137C11.0504 10.8072 11.028 10.7984 11.0124 10.786C11.0006 10.7767 10.995 10.7669 10.9935 10.7537C10.9864 10.6885 11.0154 10.66 11.1326 10.576C11.2215 10.5122 11.3434 10.4249 11.4594 10.27C11.638 10.032 11.8614 9.98945 11.9965 10.1525C11.9706 10.1876 11.9446 10.2229 11.9188 10.2579ZM11.2573 10.1881C11.0233 10.1561 10.8081 10.2342 10.6755 10.4063C10.6205 10.4778 10.5888 10.559 10.5739 10.6419C10.5649 10.6456 10.5547 10.6458 10.5474 10.6531C10.5286 10.6722 10.5088 10.6964 10.489 10.7231C10.3576 10.6716 10.002 10.5482 9.69629 10.5897C9.34281 10.6376 9.08176 10.5909 8.9296 10.5466C9.09245 10.4942 9.21254 10.2588 9.32856 10.0306C9.35987 9.96901 9.38949 9.91065 9.41739 9.86209C9.55674 9.62045 10.1675 9.31075 10.7583 9.01117C11.0068 8.88517 11.1938 8.69814 11.3316 8.50937C11.2241 9.18658 11.2451 9.92584 11.2573 10.1881ZM10.581 10.8549C10.5898 10.8897 10.5985 10.9247 10.6149 10.9577C10.625 10.9777 10.6378 10.9923 10.6494 11.0093C10.6065 11.0522 10.546 11.1242 10.5059 11.2191C10.4718 11.0725 10.5278 10.94 10.581 10.8549ZM10.5095 11.6058C10.5359 11.6685 10.5691 11.7212 10.6071 11.7643C10.548 11.9401 10.5099 12.1012 10.4928 12.2457C10.4349 12.2562 10.3704 12.2705 10.2993 12.2893C10.3384 12.0326 10.4395 11.7677 10.5095 11.6058ZM10.6481 12.2239C10.6635 12.1161 10.6915 11.998 10.7316 11.8704C10.7916 11.9073 10.8533 11.93 10.9081 11.9421C10.8852 12.008 10.8569 12.106 10.8365 12.2205C10.7938 12.217 10.7311 12.2163 10.6481 12.2239ZM10.3491 11.5998C10.2715 11.7863 10.1732 12.0654 10.1433 12.3349C10.0823 12.3545 10.0171 12.3773 9.94792 12.4035C10.0054 12.068 10.1566 11.7292 10.165 11.7106C10.2399 11.6748 10.3006 11.6369 10.3491 11.5998ZM9.82688 11.671C9.88468 11.5233 10.0111 11.2755 10.2362 11.154C10.3002 11.183 10.3346 11.2059 10.3354 11.2065C10.3404 11.2102 10.3464 11.2096 10.3518 11.2119C10.3583 11.2552 10.3709 11.299 10.3894 11.3432C10.3641 11.3866 10.2348 11.5721 9.82688 11.671ZM10.9425 11.7937C10.8539 11.7752 10.7032 11.7171 10.6342 11.5176C10.5998 11.4181 10.6182 11.3286 10.6524 11.257C10.6638 11.4077 10.7252 11.5536 10.8842 11.6005C10.9013 11.656 10.9239 11.7003 10.9446 11.7232C10.9451 11.7237 10.9457 11.7238 10.9463 11.7243C10.9445 11.7474 10.9434 11.7705 10.9425 11.7937ZM10.8048 11.1416C10.8457 11.16 10.888 11.1735 10.9317 11.1786C10.9046 11.2189 10.8874 11.2595 10.8767 11.2962C10.8656 11.3345 10.8608 11.3735 10.8594 11.4117C10.8037 11.3434 10.7984 11.2273 10.8048 11.1416ZM10.749 10.8905C10.6865 10.7657 10.7038 10.6151 10.7942 10.4977C10.8856 10.3788 11.0328 10.3239 11.1969 10.3352C11.143 10.3833 11.0911 10.4214 11.0454 10.4543C10.9333 10.5346 10.8273 10.6107 10.8447 10.77C10.8504 10.8228 10.8762 10.8689 10.9192 10.9031C10.9929 10.9618 11.1076 10.9761 11.1953 10.9778C11.1953 10.9818 11.1963 10.9854 11.1967 10.9893C11.1756 10.9968 11.1526 11.0034 11.1341 11.012C11.0179 11.0442 10.8341 11.0614 10.749 10.8905ZM11.0224 11.3322C11.0465 11.2558 11.1008 11.1961 11.1843 11.1542C11.2217 11.1435 11.2537 11.1302 11.2832 11.1167C11.3631 11.1628 11.4814 11.1659 11.5872 11.1167C11.653 11.0861 11.7525 11.0628 11.8891 11.1603C11.8077 11.1987 11.6708 11.244 11.4927 11.23C11.3471 11.2206 11.1865 11.2758 11.015 11.3987C11.0133 11.3998 11.0133 11.4023 11.0117 11.4036C11.0135 11.38 11.0148 11.3563 11.0224 11.3322ZM12.1172 13.3444C12.1823 13.3356 12.2455 13.3178 12.3067 13.2937C12.3679 13.4135 12.4508 13.6682 12.3805 13.7866C12.2455 13.6223 12.1604 13.4472 12.1172 13.3444ZM13.0396 12.2986C13.0797 12.5065 13.0634 12.6942 12.9877 12.8581C12.8593 13.1361 12.5963 13.2757 12.4838 13.3249C12.4687 13.2863 12.4542 13.2538 12.4411 13.2275C12.7279 13.0548 12.9492 12.7152 13.0396 12.2986ZM13.0826 11.9354C13.0831 11.9165 13.0846 11.898 13.0846 11.8789C13.0846 11.871 13.0838 11.8633 13.0838 11.8553C13.1297 11.8494 13.192 11.8362 13.2554 11.8052C13.3112 11.9577 13.3491 12.0978 13.369 12.224C13.2636 12.1981 13.189 12.1812 13.1654 12.176C13.1457 12.1005 13.1209 12.0235 13.0883 11.9441C13.087 11.9407 13.0844 11.9384 13.0826 11.9354ZM13.0825 11.2807C13.0681 11.251 13.0484 11.2221 13.0256 11.1932C13.0513 11.1666 13.0712 11.1391 13.0862 11.1112C13.0882 11.1112 13.0901 11.1111 13.0921 11.1109C13.1206 11.108 13.1456 11.1037 13.1679 11.0978C13.1835 11.123 13.202 11.1622 13.2109 11.2088C13.1911 11.2299 13.1775 11.2552 13.1684 11.2796C13.1289 11.3054 13.1009 11.2888 13.0949 11.2845C13.0913 11.2816 13.0865 11.2829 13.0825 11.2807ZM13.7195 12.3161C13.652 12.2971 13.587 12.2796 13.5261 12.2637C13.507 12.1006 13.4588 11.9156 13.3813 11.7124C13.4181 11.674 13.4566 11.6228 13.4883 11.5658C13.5599 11.726 13.6808 12.0285 13.7195 12.3161ZM13.5508 11.3389C13.5535 11.3352 13.5578 11.3331 13.5598 11.3288C13.5774 11.2922 13.5836 11.2607 13.5848 11.2314C13.7234 11.413 13.9715 11.8159 14.0662 12.4221C14.0037 12.4011 13.9397 12.3808 13.8757 12.3615C13.8328 11.9034 13.578 11.403 13.5672 11.382C13.5635 11.3747 13.5581 11.369 13.5525 11.3636C13.5528 11.3551 13.5515 11.3471 13.5508 11.3389ZM14.2291 12.4807C14.1202 11.6309 13.718 11.144 13.6178 11.0345C13.6259 11.033 13.6345 11.0331 13.6425 11.0314C14.2373 11.3482 14.3938 12.2227 14.4328 12.5685C14.3738 12.5387 14.304 12.5094 14.2291 12.4807ZM13.5535 10.8902C13.5518 10.8788 13.5495 10.8677 13.5471 10.8567C13.6726 10.7646 14.1016 10.4402 14.4835 10.0359C14.3038 10.3894 13.9923 10.8306 13.5535 10.8902ZM13.4093 10.9726C13.4092 10.9744 13.4095 10.9753 13.4094 10.9771C13.4094 10.9776 13.4092 10.9781 13.4092 10.9787C13.4092 10.9792 13.4095 10.9797 13.4095 10.9802C13.4066 11.065 13.4184 11.1233 13.4275 11.1655C13.429 11.1725 13.43 11.1776 13.4311 11.1834C13.402 11.1733 13.3768 11.1683 13.3537 11.1655C13.3386 11.1007 13.3135 11.0484 13.2921 11.0145C13.3281 10.9608 13.3413 10.8843 13.3516 10.7831C13.3864 10.8303 13.4129 10.894 13.4093 10.9726ZM13.3009 11.3375C13.3045 11.3295 13.3107 11.3159 13.314 11.3133C13.3139 11.3132 13.3301 11.3061 13.3843 11.3254C13.3985 11.3305 13.4006 11.3358 13.4022 11.3439C13.4158 11.4095 13.3332 11.5554 13.2586 11.6242C13.2093 11.6696 13.1476 11.6908 13.099 11.7009C13.1193 11.64 13.1399 11.545 13.1291 11.4405C13.1667 11.4404 13.2075 11.4329 13.2506 11.4047C13.2788 11.3862 13.2915 11.3582 13.3009 11.3375ZM13.2083 10.7105C13.1899 10.9064 13.1856 10.9423 13.1263 10.9549C13.1262 10.8793 13.1024 10.8097 13.0743 10.7597C13.1212 10.6302 13.1322 10.5183 13.1152 10.4211C13.1371 10.4302 13.1588 10.442 13.1763 10.4613C13.2102 10.4985 13.2235 10.5553 13.2161 10.6296L13.2083 10.7105ZM9.7164 10.7384C9.96793 10.7038 10.2758 10.8032 10.412 10.8542C10.3849 10.9117 10.3648 10.9758 10.3545 11.0445C10.2247 10.9767 9.91088 10.853 9.36339 10.8639C9.14275 10.873 9.00175 10.7851 8.91957 10.7004C9.09104 10.7464 9.36114 10.7862 9.7164 10.7384ZM9.66728 11.023C9.80218 11.0341 9.91538 11.0534 10.0074 11.0767C9.83649 11.1421 9.57812 11.2462 9.37689 11.3506C9.44214 11.2464 9.53767 11.1245 9.66728 11.023ZM9.97177 11.7858C9.9099 11.9434 9.81896 12.2093 9.78774 12.4679C9.69995 12.5049 9.60774 12.546 9.50832 12.5943C9.54601 12.4028 9.62781 12.0635 9.76281 11.8373C9.83945 11.8226 9.9091 11.8054 9.97177 11.7858ZM11.0493 12.9205C10.9473 12.7079 10.9493 12.4709 10.9793 12.2795C11.0811 12.7726 11.3653 13.1604 11.7256 13.2971C11.7117 13.3264 11.699 13.364 11.6922 13.4085C11.3784 13.3131 11.1597 13.1511 11.0493 12.9205ZM11.6345 13.6726C11.6491 13.6396 11.6819 13.6141 11.7115 13.5961C11.7198 13.6199 11.729 13.644 11.743 13.6691C11.764 13.7066 11.7884 13.7374 11.8141 13.7647C11.7978 13.802 11.7596 13.8301 11.7222 13.8303H11.7221C11.6759 13.8303 11.6497 13.7882 11.6359 13.7529C11.6239 13.7225 11.6235 13.6969 11.6345 13.6726ZM12.7961 14.6797C12.7439 14.6243 12.6982 14.5675 12.6598 14.5148C12.7686 14.569 12.9016 14.6293 13.0348 14.6748C12.9645 14.6847 12.8835 14.6888 12.7961 14.6797ZM12.1069 13.8574C12.1391 13.8496 12.1741 13.8353 12.2116 13.8135C12.2841 13.9114 12.3709 14.0095 12.4774 14.0938C12.3456 14.0792 12.1905 14.0228 12.1069 13.8574ZM7.24816 9.01731C7.2565 9.01661 7.27197 9.01811 7.29067 9.02416C7.31655 9.03259 7.34945 9.05087 7.38658 9.09456C7.44311 9.16108 7.5167 9.21522 7.597 9.25909C7.60164 9.26162 7.60586 9.26481 7.61054 9.2673C7.71325 9.32083 7.82772 9.35528 7.94317 9.36034L8.01203 9.36386C8.37817 9.38355 8.78092 9.39489 8.92993 9.28019C9.05251 9.18601 9.23106 8.97381 9.47804 8.68009C9.5589 8.58395 9.64665 8.4798 9.7411 8.36945C9.93868 8.13855 10.3101 7.82008 10.6377 7.53925C10.9757 7.24966 11.1693 7.08157 11.2196 6.99433L11.2313 6.97385C11.3899 6.69691 11.6362 6.34216 11.9454 6.46835C12.28 6.60386 12.2987 6.69574 12.3169 6.78447C12.3199 6.79947 12.323 6.81433 12.3268 6.82896C12.3705 6.99667 12.44 7.2071 12.5205 7.45066C12.7775 8.22859 13.1581 9.38359 12.9925 10.1965C12.8723 10.0936 12.7074 10.0741 12.6343 10.0704C12.5677 9.98612 12.4629 9.90503 12.3365 9.90194C12.2669 9.90137 12.1714 9.92242 12.0876 10.0311C12.0076 9.94708 11.9075 9.89917 11.7982 9.89917C11.6991 9.89917 11.5554 9.93667 11.4041 10.1022C11.3907 9.71284 11.3817 8.74595 11.5824 8.06336C11.6414 7.92433 11.6675 7.82599 11.6704 7.8145C11.6802 7.77649 11.6589 7.73749 11.6219 7.72483C11.5848 7.71335 11.5445 7.73031 11.529 7.76636C11.4971 7.84084 11.4688 7.92058 11.4436 8.00449C11.334 8.26038 11.1039 8.66795 10.6906 8.87758C9.94065 9.25769 9.43792 9.52642 9.28764 9.78719C9.25848 9.83772 9.22759 9.89856 9.19492 9.96268C9.1067 10.1364 8.98576 10.3743 8.88198 10.405C8.86426 10.4105 8.8487 10.4081 8.83 10.3974C8.74464 10.3483 8.67268 10.2668 8.60307 10.1878C8.50089 10.0718 8.39528 9.95195 8.24153 9.92992L8.21167 9.92561C7.99623 9.89542 7.54787 9.83218 7.45487 9.58356L7.4305 9.51845C7.34059 9.27742 7.3352 9.26298 7.24797 9.16759C7.18417 9.09808 7.19167 9.07215 7.20826 9.04239C7.20962 9.03991 7.21056 9.03751 7.21197 9.03498C7.21614 9.02805 7.22805 9.01923 7.24816 9.01731Z" fill="#464655"/>
</svg>
