<svg width="24" height="24" viewBox="0 0 24 24" fill="none" xmlns="http://www.w3.org/2000/svg">
<path d="M0.152625 19.762L12 12L0.152625 4.23798C0.0614531 4.31387 0 4.42384 0 4.55171V19.4483C0 19.5762 0.0614531 19.6861 0.152625 19.762Z" fill="#F5F5F5"/>
<path d="M0.152588 19.762C0.224307 19.8217 0.313135 19.8621 0.413729 19.8621H23.5861C23.8147 19.8621 24 19.6768 24 19.4482V12H12L0.152588 19.762Z" fill="#FF4B55"/>
<path d="M0.152588 4.23797C0.224307 4.17825 0.313135 4.13794 0.413729 4.13794H23.5861C23.8147 4.13794 24 4.32324 24 4.55175V12H12L0.152588 4.23797Z" fill="#41479B"/>
<path d="M4.34484 13.3448C5.08758 13.3448 5.68969 12.7427 5.68969 12C5.68969 11.2573 5.08758 10.6552 4.34484 10.6552C3.60211 10.6552 3 11.2573 3 12C3 12.7427 3.60211 13.3448 4.34484 13.3448Z" fill="#FFE15A"/>
<path d="M4.34478 12L3.84045 9.98279L4.34478 9.31036L4.84906 9.98279L4.34478 12Z" fill="#FFE15A"/>
<path d="M4.34478 12L4.84906 14.0172L4.34478 14.6896L3.84045 14.0172L4.34478 12Z" fill="#FFE15A"/>
<path d="M4.34484 12L2.32757 12.5043L1.65515 12L2.32757 11.4957L4.34484 12Z" fill="#FFE15A"/>
<path d="M4.34485 12L6.36207 11.4957L7.03449 12L6.36207 12.5043L4.34485 12Z" fill="#FFE15A"/>
<path d="M4.34485 12L5.41463 10.217L6.24671 10.0981L6.12783 10.9302L4.34485 12Z" fill="#FFE15A"/>
<path d="M4.34478 12L3.27495 13.783L2.44287 13.9019L2.56179 13.0698L4.34478 12Z" fill="#FFE15A"/>
<path d="M4.34478 12L2.56179 10.9302L2.44287 10.0981L3.27495 10.217L4.34478 12Z" fill="#FFE15A"/>
<path d="M4.34485 12L6.12783 13.0698L6.24671 13.9019L5.41463 13.783L4.34485 12Z" fill="#FFE15A"/>
<path d="M1.10894 6.17317L1.17906 6.69629L0.706748 6.93198C0.645623 6.96249 0.658467 7.05329 0.725732 7.06557L1.24492 7.16054L1.32311 7.68254C1.33323 7.75013 1.42356 7.76593 1.45604 7.70574L1.70683 7.24131L2.22742 7.32821C2.29483 7.33951 2.33776 7.25842 2.29061 7.20901L1.92639 6.82698L2.1699 6.3587C2.20145 6.29809 2.13761 6.23218 2.07601 6.26176L1.60014 6.49013L1.23006 6.11377C1.18225 6.06512 1.09989 6.10548 1.10894 6.17317Z" fill="#FFE15A"/>
<path d="M1.31726 16.355L1.22867 16.8753L0.707699 16.9599C0.640246 16.9709 0.625574 17.0614 0.686089 17.0931L1.15357 17.3381L1.07309 17.8597C1.06268 17.9273 1.1442 17.9692 1.19309 17.9214L1.57057 17.5525L2.04185 17.7903C2.10289 17.8211 2.16795 17.7565 2.13767 17.6953L1.90348 17.2222L2.2752 16.8476C2.32329 16.7991 2.28204 16.7172 2.21435 16.7271L1.69207 16.8037L1.45057 16.3343C1.41931 16.2736 1.32865 16.2876 1.31726 16.355Z" fill="#FFE15A"/>
<path d="M9.50317 11.2292L9.19937 11.6608L8.69265 11.5131C8.62707 11.494 8.57486 11.5694 8.61582 11.6241L8.93246 12.0464L8.63542 12.4827C8.59698 12.5392 8.65253 12.6121 8.71721 12.5901L9.21667 12.4194L9.53982 12.8368C9.58168 12.8908 9.66821 12.8604 9.66718 12.7921L9.65921 12.2644L10.156 12.086C10.2203 12.0629 10.2182 11.9712 10.1529 11.9511L9.64848 11.7956L9.63236 11.268C9.63039 11.1996 9.5425 11.1733 9.50317 11.2292Z" fill="#FFE15A"/>
</svg>
