<svg width="24" height="24" viewBox="0 0 24 24" fill="none" xmlns="http://www.w3.org/2000/svg">
<path d="M23.5861 19.862H0.413812C0.185297 19.862 0 19.6767 0 19.4482V4.55169C0 4.32317 0.185297 4.13788 0.413812 4.13788H23.5862C23.8147 4.13788 24 4.32317 24 4.55169V19.4482C24 19.6768 23.8147 19.862 23.5861 19.862Z" fill="#41479B"/>
<path d="M23.8473 4.23798L0.152588 19.762C0.224307 19.8217 0.313134 19.862 0.413728 19.862H23.5861C23.8146 19.862 23.9999 19.6767 23.9999 19.4482V4.55171C23.9999 4.42383 23.9385 4.31382 23.8473 4.23798Z" fill="#73AF00"/>
<path d="M24 4.55169C24 4.32317 23.8147 4.13788 23.5861 4.13788H22.8671L0 19.1199V19.4483C0 19.6768 0.185297 19.8621 0.413812 19.8621H1.13283L24 4.8801V4.55169Z" fill="#FFE15A"/>
<path d="M2.08266 5.42711L1.86113 6.09128L1.16101 6.09672C1.09389 6.09723 1.06604 6.18292 1.12004 6.22281L1.68324 6.63873L1.47207 7.30628C1.45178 7.37031 1.52471 7.42323 1.57937 7.38423L2.14899 6.97712L2.71862 7.38423C2.77323 7.42328 2.84612 7.37031 2.82591 7.30628L2.61474 6.63873L3.17794 6.22281C3.23194 6.18292 3.2041 6.09723 3.13698 6.09672L2.43685 6.09128L2.21532 5.42711C2.19404 5.36341 2.10395 5.36341 2.08266 5.42711Z" fill="#F5F5F5"/>
<path d="M7.41616 5.42711L7.19463 6.09128L6.49451 6.09672C6.42738 6.09723 6.39954 6.18292 6.45354 6.22281L7.01674 6.63873L6.80557 7.30628C6.78527 7.37031 6.85821 7.42323 6.91287 7.38423L7.48249 6.97712L8.05211 7.38423C8.10672 7.42328 8.17961 7.37031 8.15941 7.30628L7.94824 6.63873L8.51144 6.22281C8.56544 6.18292 8.5376 6.09723 8.47047 6.09672L7.77035 6.09128L7.54882 5.42711C7.52749 5.36341 7.4374 5.36341 7.41616 5.42711Z" fill="#F5F5F5"/>
<path d="M4.74941 7.80358L4.52788 8.46775L3.82776 8.47318C3.76063 8.4737 3.73279 8.55939 3.78679 8.59928L4.34999 9.0152L4.13882 9.68274C4.11852 9.74678 4.19146 9.7997 4.24612 9.7607L4.81574 9.35359L5.38536 9.7607C5.43997 9.79974 5.51286 9.74678 5.49266 9.68274L5.28149 9.0152L5.84469 8.59928C5.89869 8.55939 5.87085 8.4737 5.80372 8.47318L5.1036 8.46775L4.88207 7.80358C4.86069 7.73987 4.77065 7.73987 4.74941 7.80358Z" fill="#F5F5F5"/>
<path d="M2.08266 10.18L1.86113 10.8442L1.16101 10.8496C1.09389 10.8502 1.06604 10.9359 1.12004 10.9757L1.68324 11.3917L1.47207 12.0592C1.45178 12.1232 1.52471 12.1762 1.57937 12.1372L2.14899 11.7301L2.71862 12.1372C2.77323 12.1762 2.84612 12.1232 2.82591 12.0592L2.61474 11.3917L3.17794 10.9757C3.23194 10.9359 3.2041 10.8502 3.13698 10.8496L2.43685 10.8442L2.21532 10.18C2.19404 10.1163 2.10395 10.1163 2.08266 10.18Z" fill="#F5F5F5"/>
<path d="M7.41616 10.18L7.19463 10.8442L6.49451 10.8496C6.42738 10.8502 6.39954 10.9359 6.45354 10.9757L7.01674 11.3917L6.80557 12.0592C6.78527 12.1232 6.85821 12.1762 6.91287 12.1372L7.48249 11.7301L8.05211 12.1372C8.10672 12.1762 8.17961 12.1232 8.15941 12.0592L7.94824 11.3917L8.51144 10.9757C8.56544 10.9359 8.5376 10.8502 8.47047 10.8496L7.77035 10.8442L7.54882 10.18C7.52749 10.1163 7.4374 10.1163 7.41616 10.18Z" fill="#F5F5F5"/>
</svg>
