<svg width="24" height="24" viewBox="0 0 24 24" fill="none" xmlns="http://www.w3.org/2000/svg">
<path d="M24 9.37935H0V4.55175C0 4.32324 0.185297 4.13794 0.413812 4.13794H23.5862C23.8147 4.13794 24 4.32324 24 4.55175L24 9.37935Z" fill="#F5F5F5"/>
<path d="M23.5861 19.8621H0.413812C0.185297 19.8621 0 19.6768 0 19.4483V14.6207H24V19.4483C24 19.6768 23.8147 19.8621 23.5861 19.8621Z" fill="#73AF00"/>
<path d="M24 9.37927H0V14.6204H24V9.37927Z" fill="#FF4B55"/>
<path d="M6.20689 19.8621H0.413812C0.185297 19.8621 0 19.6768 0 19.4483V4.55175C0 4.32324 0.185297 4.13794 0.413812 4.13794H6.20689V19.8621Z" fill="#FF4B55"/>
<path d="M1.69012 7.56769C1.66696 7.57031 1.6446 7.57313 1.6228 7.57603V7.87073C1.64474 7.87631 1.6671 7.88184 1.69012 7.88728V7.56769Z" fill="#F5F5F5"/>
<path d="M2.7095 8.12938C2.64805 8.12446 2.55365 8.11499 2.44096 8.10126L1.73413 8.7299C1.82568 8.74387 1.93541 8.76243 1.98121 8.77701C2.16285 8.6181 2.40632 8.40159 2.7095 8.12938Z" fill="#F5F5F5"/>
<path d="M3.77304 7.12955V7.09861V7.06903H2.51904V7.09861V7.12955V7.15917H3.77304V7.12955Z" fill="#F5F5F5"/>
<path d="M2.8446 5.33611C2.8446 5.42442 2.97768 5.499 3.13523 5.499C3.29278 5.499 3.42585 5.42442 3.42585 5.33611C3.42585 5.2478 3.29278 5.17322 3.13523 5.17322C2.97768 5.17322 2.8446 5.24784 2.8446 5.33611Z" fill="#F5F5F5"/>
<path d="M2.57279 7.52784C2.28971 7.52643 2.0072 7.53684 1.77625 7.55868V7.90658C2.0476 7.9648 2.36373 8.00943 2.57279 8.03165V7.52784Z" fill="#F5F5F5"/>
<path d="M1.1145 9.24473C1.22639 9.24234 1.47216 9.19813 1.63856 9.06815C1.69013 9.02784 1.7782 8.95368 1.902 8.84615C1.81805 8.82895 1.67719 8.80804 1.60209 8.79773L1.1145 9.24473Z" fill="#F5F5F5"/>
<path d="M2.73427 6.98295V6.82479C2.71308 6.7932 2.69119 6.76062 2.66883 6.72748L2.47632 6.86749C2.51466 6.93335 2.53922 6.97521 2.54377 6.9829L2.73427 6.98295Z" fill="#F5F5F5"/>
<path d="M1.25291 7.69704C1.2523 7.69962 1.2508 7.70562 1.26045 7.71804C1.29617 7.76384 1.39953 7.80757 1.53678 7.84737V7.58881C1.37202 7.61613 1.26411 7.65223 1.25291 7.69704Z" fill="#F5F5F5"/>
<path d="M3.4555 7.57361V7.2453H2.82043V8.04724H2.98192C3.24301 8.04724 3.4555 7.83471 3.4555 7.57361Z" fill="#F5F5F5"/>
<path d="M2.43476 6.38101C2.09472 5.87983 1.73158 5.35305 1.64294 5.24866C1.65565 5.2953 1.6863 5.38295 1.75793 5.54706C1.85032 5.75884 2.07457 6.16473 2.26024 6.49155L2.43476 6.38101Z" fill="#F5F5F5"/>
<path d="M2.30298 6.56649C2.35135 6.65114 2.39565 6.72811 2.43301 6.79261L2.62084 6.65602C2.57617 6.58969 2.53018 6.52167 2.48326 6.45239L2.30298 6.56649Z" fill="#F5F5F5"/>
<path d="M2.73431 8.04567V7.52986C2.70923 7.52935 2.68415 7.52883 2.65894 7.5285V8.04005C2.68795 8.04258 2.71322 8.0445 2.73431 8.04567Z" fill="#F5F5F5"/>
<path d="M3.45554 6.54004H2.82043V6.63018H3.45554V6.54004Z" fill="#F5F5F5"/>
<path d="M4.33813 6.97754V6.98293H4.37043C4.39424 6.98293 4.41346 7.00215 4.41346 7.02596V7.20226C4.41346 7.22607 4.39424 7.24529 4.37043 7.24529H4.33813V7.25068C4.33813 7.27435 4.35745 7.29371 4.38117 7.29371H5.10773C5.13145 7.29371 5.15076 7.27435 5.15076 7.25068V6.97754C5.15076 6.95387 5.13145 6.93451 5.10773 6.93451H4.38121C4.35745 6.93446 4.33813 6.95377 4.33813 6.97754Z" fill="#F5F5F5"/>
<path d="M5.15104 9.24234L4.66612 8.79773C4.59102 8.80809 4.45021 8.8289 4.36621 8.84615C4.49226 8.95551 4.58029 9.02967 4.62965 9.06824C4.79348 9.19612 5.03423 9.24098 5.15104 9.24234Z" fill="#F5F5F5"/>
<path d="M4.15515 7.09861V7.12955V7.15917H4.32742V7.06903H4.15515V7.09861Z" fill="#F5F5F5"/>
<path d="M4.28689 8.77712C4.33269 8.76245 4.44256 8.74384 4.53429 8.72992L3.49302 7.80072C3.4648 7.8641 3.42542 7.92142 3.37695 7.96975L3.40437 7.99422C3.78158 8.33191 4.07647 8.59338 4.28689 8.77712Z" fill="#F5F5F5"/>
<path d="M1.95391 7.25068V7.24529H1.92156C1.89775 7.24529 1.87853 7.22607 1.87853 7.20226V7.02596C1.87853 7.00215 1.89775 6.98293 1.92156 6.98293H1.95386V6.97754C1.95386 6.95387 1.93455 6.93451 1.91083 6.93451H1.18427C1.16055 6.93451 1.14124 6.95387 1.14124 6.97754V7.25068C1.14124 7.27435 1.16055 7.29371 1.18427 7.29371H1.91083C1.93459 7.29371 1.95391 7.2744 1.95391 7.25068Z" fill="#F5F5F5"/>
<path d="M2.13687 7.12955V7.09861V7.06903H1.9646V7.15917H2.13687V7.12955Z" fill="#F5F5F5"/>
<path d="M3.79198 6.86749L3.59947 6.72748C3.57978 6.75677 3.56052 6.78542 3.54163 6.81349V6.9829H3.72453C3.72908 6.97521 3.75364 6.93335 3.79198 6.86749Z" fill="#F5F5F5"/>
<path d="M2.87805 6.27651H3.39813L3.28366 6.14948H2.99252L2.87805 6.27651Z" fill="#F5F5F5"/>
<path d="M3.45554 6.36658H2.82043V6.45405H3.45554V6.36658Z" fill="#F5F5F5"/>
<path d="M3.13525 5.5851C3.09339 5.5851 3.05416 5.57971 3.01685 5.57174V6.05845H3.25633V5.57123C3.21827 5.57957 3.17805 5.5851 3.13525 5.5851Z" fill="#F5F5F5"/>
<path d="M2.82043 6.80663H3.45278C3.45268 6.80124 3.45362 6.79599 3.45559 6.79079V6.71649H2.82043V6.80663Z" fill="#F5F5F5"/>
<path d="M3.64758 6.65602L3.83541 6.79261C3.87277 6.72816 3.91707 6.65114 3.96544 6.56649L3.78516 6.45239C3.73819 6.52167 3.6923 6.58969 3.64758 6.65602Z" fill="#F5F5F5"/>
<path d="M3.45554 6.89301H2.82043V6.98315H3.45554V6.89301Z" fill="#F5F5F5"/>
<path d="M4.00806 6.49152C4.19368 6.1648 4.41793 5.75882 4.51037 5.54704C4.58218 5.38255 4.61279 5.29485 4.62545 5.24835C4.5384 5.35049 4.17437 5.87849 3.8335 6.38099L4.00806 6.49152Z" fill="#F5F5F5"/>
<path d="M5.27108 9.23548L4.70956 8.72056C4.70014 8.71193 4.68744 8.70767 4.67469 8.70964C4.66991 8.71025 4.65908 8.71175 4.64469 8.71372C4.64389 8.71292 4.64361 8.71184 4.64272 8.71114L3.52349 7.71237C3.53493 7.66789 3.54158 7.62153 3.54158 7.57358V7.24526H3.81308C3.84805 7.29078 3.90243 7.32064 3.96407 7.32064C4.02575 7.32064 4.08013 7.29078 4.11505 7.24526H4.25202V7.25066C4.25202 7.32186 4.30996 7.3798 4.38116 7.3798H5.10772C5.17892 7.3798 5.23686 7.32186 5.23686 7.25066V6.97752C5.23686 6.90631 5.17892 6.84837 5.10772 6.84837H4.38125C4.31005 6.84837 4.25211 6.90631 4.25211 6.97752V6.98291H4.11514C4.08018 6.93739 4.0258 6.90753 3.96416 6.90753C3.91738 6.90753 3.8751 6.92506 3.84186 6.953C3.98699 6.70456 4.44294 5.91706 4.58938 5.58149C4.74646 5.22139 4.7338 5.17489 4.69667 5.14503C4.65749 5.11368 4.60789 5.14972 4.58919 5.16346C4.51714 5.21582 3.81857 6.24786 3.54163 6.65923V6.31958C3.54163 6.31864 3.54116 6.3178 3.54111 6.31691L3.54107 6.31681C3.54008 6.30224 3.53193 6.29009 3.52002 6.28311L3.3425 6.08624V5.54488C3.44516 5.50082 3.51205 5.42469 3.51205 5.3361C3.51205 5.1965 3.34654 5.0871 3.13527 5.0871C2.92401 5.0871 2.75849 5.1965 2.75849 5.3361C2.75849 5.42539 2.8266 5.50194 2.93071 5.54577V6.08933L2.75657 6.2825C2.74349 6.28991 2.73426 6.30341 2.73426 6.31949V6.67039C2.46271 6.26694 1.7518 5.21624 1.6792 5.16341C1.6604 5.14982 1.61076 5.11372 1.57166 5.14499C1.53449 5.17485 1.52184 5.22135 1.67896 5.58144C1.82076 5.90638 2.25262 6.65483 2.41166 6.92764C2.38626 6.91512 2.35808 6.90748 2.32794 6.90748C2.26626 6.90748 2.21188 6.93734 2.17696 6.98286H2.04004V6.97747C2.04004 6.90627 1.9821 6.84833 1.9109 6.84833H1.18424C1.11304 6.84833 1.0551 6.90627 1.0551 6.97747V7.25061C1.0551 7.32181 1.11304 7.37975 1.18424 7.37975H1.9108C1.98201 7.37975 2.03994 7.32181 2.03994 7.25061V7.24522H2.17691C2.21188 7.29073 2.26626 7.32059 2.3279 7.32059C2.38958 7.32059 2.44396 7.29073 2.47888 7.24522H2.73426V7.4435C2.33507 7.43497 1.2299 7.43366 1.16934 7.67614C1.16371 7.69859 1.16315 7.73342 1.19254 7.77101C1.30902 7.92022 1.89937 8.02911 2.32757 8.08667L1.62557 8.71104C1.62468 8.71184 1.6244 8.71292 1.62355 8.71372C1.60916 8.7117 1.59834 8.71025 1.59355 8.70964C1.58062 8.70776 1.56805 8.71193 1.55868 8.72056L0.997118 9.23548C0.98015 9.25095 0.978415 9.2771 0.993181 9.29478C1.01179 9.31714 1.05909 9.3281 1.12232 9.3281C1.27795 9.3281 1.53046 9.26173 1.69143 9.13606C1.82409 9.03246 2.19159 8.71025 2.7838 8.1784C2.80944 8.15539 2.82641 8.14011 2.83391 8.1334H2.98176C3.10461 8.1334 3.21791 8.09319 3.31035 8.02583L3.34682 8.0584C4.02866 8.66872 4.44238 9.03125 4.57667 9.13606C4.73764 9.26187 4.99006 9.3281 5.14569 9.3281C5.20897 9.3281 5.25622 9.31718 5.27488 9.29478C5.28983 9.2771 5.288 9.25095 5.27108 9.23548ZM2.82046 8.0472V7.24526H3.45557V7.57358C3.45557 7.83467 3.24308 8.0472 2.98194 8.0472H2.82046ZM1.53684 7.84737C1.39968 7.80753 1.29627 7.76384 1.26051 7.71804C1.25081 7.70558 1.25231 7.69962 1.25296 7.69705C1.26416 7.65223 1.37207 7.61614 1.53684 7.58886V7.84737ZM1.64301 5.24863C1.7316 5.35302 2.09479 5.87971 2.43482 6.38099L2.26026 6.49152C2.07463 6.1647 1.85038 5.75881 1.75795 5.54703C1.68637 5.38297 1.65566 5.29536 1.64301 5.24863ZM2.66891 6.72744C2.69122 6.76053 2.71307 6.79306 2.73435 6.82475V6.98291H2.54385C2.5393 6.97522 2.51474 6.93336 2.4764 6.8675L2.66891 6.72744ZM2.43294 6.79259C2.39558 6.72814 2.35129 6.65113 2.30291 6.56647L2.48319 6.45238C2.53016 6.5217 2.5761 6.58972 2.62077 6.656L2.43294 6.79259ZM2.73435 7.52989V8.0457C2.71335 8.04453 2.68804 8.04261 2.65897 8.04008V7.52853C2.68415 7.52886 2.70922 7.52933 2.73435 7.52989ZM1.77632 7.55862C2.00732 7.53678 2.28979 7.52642 2.57287 7.52778V8.03159C2.3638 8.00942 2.04768 7.96475 1.77632 7.90653V7.55862ZM1.6229 7.57601C1.6447 7.57311 1.66701 7.57034 1.69021 7.56767V7.88722C1.6672 7.88183 1.64484 7.8763 1.6229 7.87067V7.57601ZM2.44101 8.1012C2.55369 8.11498 2.6481 8.1244 2.70955 8.12933C2.40637 8.40153 2.1629 8.61804 1.98135 8.77695C1.93551 8.76232 1.82582 8.74381 1.73427 8.72984L2.44101 8.1012ZM1.90204 8.84609C1.77824 8.95362 1.69016 9.02778 1.6386 9.06809C1.4722 9.19812 1.22648 9.24237 1.11454 9.24467L1.60213 8.79762C1.67723 8.80803 1.81804 8.82889 1.90204 8.84609ZM2.51905 7.15916V7.12958V7.09864V7.06906H3.7731V7.09864V7.12958V7.15916H2.51905ZM3.42594 5.3361C3.42594 5.42441 3.29286 5.49899 3.13532 5.49899C2.97777 5.49899 2.84469 5.42441 2.84469 5.3361C2.84469 5.24778 2.97777 5.17321 3.13532 5.17321C3.29286 5.17321 3.42594 5.24783 3.42594 5.3361ZM2.82046 6.63036V6.54022H3.45557V6.63036H2.82046ZM3.45552 6.71647V6.79077C3.45355 6.79597 3.45261 6.80122 3.45271 6.80661H2.82046V6.71647H3.45552ZM2.82046 6.45406V6.36659H3.45557V6.45406H2.82046ZM3.28368 6.14947L3.39814 6.27645H2.87807L2.99254 6.14947H3.28368ZM3.01691 6.05849V5.57178C3.05422 5.57975 3.09346 5.58514 3.13532 5.58514C3.17816 5.58514 3.21833 5.57961 3.2564 5.57127V6.05849H3.01691ZM2.82046 6.89272H3.45557V6.98286H2.82046V6.89272ZM4.51044 5.54703C4.41805 5.75881 4.1938 6.1647 4.00813 6.49152L3.83357 6.38099C4.17444 5.87849 4.53847 5.35049 4.62552 5.24835C4.61286 5.29485 4.58221 5.38255 4.51044 5.54703ZM4.06907 7.09859V7.12953C4.06907 7.18742 4.022 7.23448 3.96411 7.23448C3.90622 7.23448 3.85916 7.18742 3.85916 7.12953V7.09859C3.85916 7.0407 3.90622 6.99364 3.96411 6.99364C4.022 6.99364 4.06907 7.0407 4.06907 7.09859ZM3.83544 6.79259L3.64761 6.656C3.69229 6.58967 3.73822 6.52166 3.78519 6.45238L3.96547 6.56647C3.9171 6.65113 3.87275 6.72809 3.83544 6.79259ZM3.54163 6.81345C3.56052 6.78533 3.57974 6.75673 3.59947 6.72744L3.79199 6.86745C3.75364 6.93331 3.72908 6.97517 3.72454 6.98291H3.54163V6.81345ZM3.49307 7.80059L4.53435 8.72979C4.44271 8.74381 4.33274 8.76237 4.28694 8.777C4.07647 8.5932 3.78163 8.33183 3.40438 7.99404L3.37696 7.96958C3.42547 7.92134 3.46485 7.86397 3.49307 7.80059ZM4.66625 8.79767L5.15117 9.24228C5.03431 9.24092 4.79361 9.19611 4.62978 9.06818C4.58042 9.02961 4.49239 8.9554 4.36635 8.84609C4.45035 8.82889 4.59116 8.80803 4.66625 8.79767ZM5.15094 6.97752V7.25066C5.15094 7.27433 5.13163 7.29369 5.10791 7.29369H4.38125C4.35753 7.29369 4.33822 7.27433 4.33822 7.25066V7.24526H4.37052C4.39433 7.24526 4.41355 7.22605 4.41355 7.20223V7.02594C4.41355 7.00212 4.39433 6.98291 4.37052 6.98291H4.33822V6.97752C4.33822 6.95384 4.35753 6.93448 4.38125 6.93448H5.10781C5.13158 6.93444 5.15094 6.95375 5.15094 6.97752ZM4.32744 7.15916H4.15522V7.12958V7.09864V7.06906H4.32744V7.15916ZM1.14116 7.25066V6.97752C1.14116 6.95384 1.16048 6.93448 1.1842 6.93448H1.91076C1.93448 6.93448 1.95379 6.95384 1.95379 6.97752V6.98291H1.92159C1.89777 6.98291 1.87855 7.00212 1.87855 7.02594V7.20223C1.87855 7.22605 1.89777 7.24526 1.92159 7.24526H1.95388V7.25066C1.95388 7.27433 1.93457 7.29369 1.91085 7.29369H1.18429C1.16052 7.29369 1.14116 7.27437 1.14116 7.25066ZM1.96466 7.06902H2.13688V7.09859V7.12953V7.15911H1.96466V7.06902ZM2.43294 7.12953C2.43294 7.18742 2.38588 7.23448 2.32799 7.23448C2.2701 7.23448 2.22304 7.18742 2.22304 7.12953V7.09859C2.22304 7.0407 2.2701 6.99364 2.32799 6.99364C2.38588 6.99364 2.43294 7.0407 2.43294 7.09859V7.12953Z" fill="#D23741"/>
</svg>
