<svg width="24" height="24" viewBox="0 0 24 24" fill="none" xmlns="http://www.w3.org/2000/svg">
<path d="M23.1724 4.96545H0.827637V19.0345H23.1724V4.96545Z" fill="#C8414B"/>
<path d="M23.5861 4.13794H0.413812C0.185297 4.13794 0 4.32319 0 4.5517V19.4482C0 19.6767 0.185297 19.862 0.413812 19.862H23.5862C23.8147 19.862 24 19.6767 24 19.4482V4.5517C24 4.32319 23.8147 4.13794 23.5861 4.13794ZM23.1724 19.0345H0.827577V4.96552H23.1724V19.0345Z" fill="#E6B432"/>
<path d="M15.3952 15.2251C15.7429 15.2251 16.0248 14.9432 16.0248 14.5954C16.0248 14.2477 15.7429 13.9658 15.3952 13.9658C15.0474 13.9658 14.7655 14.2477 14.7655 14.5954C14.7655 14.9432 15.0474 15.2251 15.3952 15.2251Z" fill="#41479B"/>
<path d="M16.5001 10.9801C16.0367 11.3696 15.7251 11.386 15.7251 11.386C16.5494 11.0498 16.4632 10.41 16.4632 10.41C16.0737 10.9226 15.6758 11.0662 15.6758 11.0662C16.5043 10.5043 16.373 9.74972 16.373 9.74972C16.1024 10.3485 15.7599 10.5822 15.7599 10.5822C16.4489 9.66563 16.1106 9.0751 16.1106 9.0751C15.8399 9.92401 15.6123 10.1701 15.6123 10.1701C16.1413 8.75523 15.6882 8.34718 15.6882 8.34718C15.6882 9.10585 15.4052 9.54057 15.4052 9.54057C15.7005 8.53993 15.237 7.96576 15.237 7.96576C15.237 7.96576 15.2327 8.78157 15.0756 9.20888C15.0379 9.1516 15.0156 9.15919 15.0156 9.15919C14.9357 9.68321 14.6541 10.0521 14.5325 10.1909C14.5055 10.0603 14.4243 10.0203 14.4243 10.0203C14.4243 10.0203 14.4097 10.1485 14.2946 10.3376C14.2193 10.4615 13.8632 10.7504 13.8058 11.0047C13.7597 11.2085 13.9616 11.3778 14.0272 11.4188C14.0928 11.4599 14.1625 11.5337 14.1338 11.6526C14.1051 11.7715 13.8918 11.7592 13.7401 11.7551C13.5884 11.751 13.5679 12.0011 13.3997 11.993L13.3712 12.1795L13.3053 12.1939C13.3053 12.1939 12.6164 13.5668 12.5577 14.034L12.0504 14.1009L11.5431 14.034C11.4844 13.5668 10.7955 12.1939 10.7955 12.1939L10.7296 12.1795L10.7011 11.993C10.533 12.0012 10.5125 11.751 10.3607 11.7551C10.2089 11.7592 9.99568 11.7715 9.967 11.6526C9.93831 11.5336 10.008 11.4598 10.0736 11.4188C10.1392 11.3778 10.3411 11.2085 10.295 11.0047C10.2376 10.7504 9.88154 10.4615 9.80617 10.3376C9.69114 10.1486 9.67651 10.0203 9.67651 10.0203C9.67651 10.0203 9.59532 10.0603 9.56832 10.1909C9.44678 10.052 9.16515 9.68321 9.08528 9.15919C9.08528 9.15919 9.06297 9.15165 9.02528 9.20888C8.86815 8.78152 8.86379 7.96576 8.86379 7.96576C8.86379 7.96576 8.40039 8.53988 8.69565 9.54057C8.69565 9.54057 8.41267 9.1059 8.41267 8.34718C8.41267 8.34718 7.95953 8.75523 8.48856 10.1701C8.48856 10.1701 8.26098 9.92405 7.99028 9.0751C7.99028 9.0751 7.65194 9.66563 8.3409 10.5822C8.3409 10.5822 7.99848 10.3485 7.72783 9.74972C7.72783 9.74972 7.59663 10.5043 8.425 11.0662C8.425 11.0662 8.02717 10.9226 7.63759 10.41C7.63759 10.41 7.55148 11.0498 8.37578 11.386C8.37578 11.386 8.06411 11.3696 7.6007 10.9801C7.6007 10.9801 7.51867 11.546 8.59314 11.8372C8.59314 11.8372 8.1543 11.829 7.7073 11.5296C7.7073 11.5296 7.69497 12.0873 8.61362 12.198C8.61362 12.198 8.31015 12.2431 7.96975 12.1201C7.96975 12.1201 7.98208 12.5712 8.78176 12.6286C8.78176 12.6286 8.46597 12.6533 8.26094 12.604C8.26094 12.604 8.28142 13.0674 8.91301 12.9895C8.91301 12.9895 8.69973 13.0592 8.63003 13.0797C8.63003 13.0797 8.64236 13.458 9.30053 13.3227C9.30053 13.3227 9.18362 13.3955 9.02369 13.4201C9.02369 13.4201 9.15901 13.7359 9.70857 13.5965L9.59579 13.7195C9.59579 13.7195 10.0202 13.9656 10.3463 13.6272L10.2294 13.8364C10.2294 13.8364 10.5062 13.941 10.6784 13.6703C10.6784 13.6703 10.6313 14.0763 10.0571 14.1502C10.0571 14.1502 10.0776 14.2363 10.1022 14.2691C10.1022 14.2691 10.0652 14.3388 9.73309 14.3962C9.73309 14.3962 9.80279 14.5028 9.87662 14.5357C9.87662 14.5357 9.73309 14.6587 9.65518 14.6833C9.65518 14.6833 9.77823 14.7448 9.85614 14.7571C9.85614 14.7571 9.68392 14.9252 9.47064 14.9293C9.25736 14.9334 8.87603 14.9088 8.87603 14.9088C8.87603 14.9088 8.87195 14.7037 8.77351 14.5274C8.67508 14.351 8.64231 14.3377 8.64231 14.3377C8.64231 14.3377 8.66383 14.1962 8.60233 14.1378C8.54083 14.0793 8.50698 14.0517 8.50698 14.0517C8.50698 14.0517 8.5398 13.7687 8.44956 13.5923C8.35937 13.416 8.03945 13.0305 8.02305 12.7434C8.00664 12.4564 8.01897 12.3497 8.01897 12.3497L7.92053 12.3743L7.85491 12.239L7.96562 12.2267L7.92053 12.0217L7.76875 12.0791L7.74822 11.9027L7.5678 11.9766L7.65798 12.1365L7.49805 12.1816L7.59241 12.3702L7.71545 12.2923L7.74827 12.4563C7.74827 12.4563 7.67444 12.4727 7.63342 12.5384C7.63342 12.5384 7.83634 12.673 7.89587 12.8337C7.99023 13.088 7.9615 13.6621 8.09683 13.8343C8.23215 14.0065 8.3388 14.1255 8.3388 14.1255C8.3388 14.1255 8.30087 14.2424 8.34391 14.3069C8.38698 14.3715 8.44848 14.39 8.44848 14.39C8.44848 14.39 8.41155 14.6514 8.50694 14.8237C8.60228 14.9959 8.65764 15.039 8.65764 15.039C8.65764 15.039 8.31006 15.2512 8.55615 15.4973C8.55615 15.4973 8.52334 15.7208 8.75711 15.7741C8.75711 15.7741 8.76944 15.9505 8.97039 15.93C8.97039 15.93 9.06883 15.9013 9.09343 15.9505C9.11804 15.9997 9.09343 16.2827 9.09343 16.2827C9.09343 16.2827 9.18362 16.2745 9.24104 16.2335L9.42147 16.3237L9.42554 16.1227L9.65111 16.0326C9.65111 16.0326 9.55267 16.049 9.35172 15.8603C9.35172 15.8603 9.38453 15.8398 9.40914 15.6799C9.40914 15.6799 9.56907 15.5527 9.60193 15.4502C9.63475 15.3477 9.86031 15.1222 10.1228 15.0483L10.1587 15.2083C10.1587 15.2083 10.5339 14.8761 10.6907 14.8576L10.8199 15.0278C10.8199 15.0278 11.3039 14.3101 11.5171 14.183C11.5007 14.2404 11.6196 14.2486 11.3551 14.5439C11.0906 14.8392 11.2546 15.0729 11.2546 15.0729C11.0906 15.2082 11.1234 15.3313 11.1028 15.4707C11.0823 15.6102 10.5369 15.9711 10.5369 15.9711C10.7091 16.1884 10.9019 16.1392 10.9019 16.1392C10.7952 16.2089 10.828 16.4427 10.828 16.4427C10.9839 16.4837 11.1397 16.414 11.1397 16.414C11.0864 16.5616 11.1684 16.6641 11.1684 16.6641C11.2668 16.6026 11.4924 16.5657 11.4924 16.5657C11.4637 16.82 11.6277 16.9552 11.6277 16.9552L11.7713 16.7994C11.7959 17.0864 12.0502 17.2505 12.0502 17.2505C12.0502 17.2505 12.3045 17.0864 12.3291 16.7994L12.4726 16.9552C12.4726 16.9552 12.6367 16.8199 12.6079 16.5657C12.6079 16.5657 12.8335 16.6026 12.9319 16.6641C12.9319 16.6641 13.014 16.5616 12.9606 16.414C12.9606 16.414 13.1165 16.4837 13.2723 16.4427C13.2723 16.4427 13.3051 16.2089 13.1985 16.1392C13.1985 16.1392 13.3913 16.1884 13.5635 15.9711C13.5635 15.9711 13.018 15.6102 12.9975 15.4707C12.977 15.3313 13.0098 15.2083 12.8457 15.0729C12.8457 15.0729 13.0097 14.8391 12.7452 14.5439C12.4807 14.2485 12.5996 14.2403 12.5832 14.183C12.7965 14.3101 13.2804 15.0278 13.2804 15.0278L13.4096 14.8576C13.5665 14.8761 13.9417 15.2083 13.9417 15.2083L13.9776 15.0483L13.9844 15.0409C14.18 15.1463 14.5032 15.2888 14.6338 15.3886C14.7732 15.4953 14.8881 15.5035 15.2243 15.3886C15.5606 15.2738 16.1863 15.0972 16.0937 14.8883C16.0887 14.8769 16.083 14.8693 16.0774 14.8604C16.0921 14.8064 16.0981 14.7122 15.9994 14.6299C15.9994 14.6299 16.0005 14.6528 15.9998 14.6823L15.6792 14.5628C15.6686 14.5344 15.6527 14.5066 15.6221 14.4823C15.6221 14.4823 15.6226 14.5069 15.6182 14.5401L15.536 14.5095L15.7001 14.0478C15.6877 14.0408 15.6737 14.037 15.6608 14.0309C15.6641 13.989 15.672 13.9312 15.6842 13.8708C15.7243 13.8848 15.7609 13.9021 15.7875 13.9238L15.8338 13.7548C15.8338 13.7548 15.7839 13.7515 15.7183 13.7392C15.7349 13.6882 15.7545 13.6425 15.7779 13.6129L15.5606 13.5472C15.5606 13.5472 15.5662 13.6131 15.5624 13.6953C15.5209 13.6785 15.4813 13.6571 15.4493 13.6297L15.3984 13.8173C15.4159 13.8183 15.4752 13.8234 15.544 13.8357C15.5316 13.8908 15.5097 13.9396 15.4783 13.9763C15.4706 13.9753 15.4634 13.9725 15.4555 13.9717L15.2962 14.4201L14.864 14.259C14.8455 14.2882 14.8312 14.3199 14.8178 14.3521C14.8201 14.3474 14.8222 14.3401 14.8246 14.3371C14.8246 14.3371 14.6574 14.4246 14.6597 14.5531C14.6289 14.5648 14.6019 14.5879 14.5867 14.6279C14.5375 14.7571 14.8388 15.0463 14.7651 15.0832C14.6926 15.1193 14.314 14.8075 14.2533 14.7552C14.3313 14.74 14.4452 14.6833 14.4452 14.6833C14.3672 14.6587 14.2238 14.5357 14.2238 14.5357C14.2976 14.5029 14.3673 14.3962 14.3673 14.3962C14.0351 14.3388 13.9982 14.2691 13.9982 14.2691C14.0228 14.2363 14.0433 14.1502 14.0433 14.1502C13.4692 14.0764 13.422 13.6703 13.422 13.6703C13.5942 13.941 13.871 13.8364 13.871 13.8364L13.7541 13.6273C14.0801 13.9656 14.5046 13.7196 14.5046 13.7196L14.3918 13.5965C14.9413 13.736 15.0767 13.4202 15.0767 13.4202C14.9168 13.3956 14.7998 13.3228 14.7998 13.3228C15.4581 13.4581 15.4703 13.0798 15.4703 13.0798C15.4006 13.0592 15.1874 12.9896 15.1874 12.9896C15.8189 13.0675 15.8394 12.6041 15.8394 12.6041C15.6344 12.6533 15.3186 12.6287 15.3186 12.6287C16.1183 12.5713 16.1306 12.1202 16.1306 12.1202C15.7902 12.2432 15.4868 12.1981 15.4868 12.1981C16.4054 12.0874 16.3931 11.5296 16.3931 11.5296C15.9461 11.829 15.5072 11.8372 15.5072 11.8372C16.5822 11.546 16.5001 10.9801 16.5001 10.9801ZM15.5682 15.037C15.5243 14.9658 15.6288 14.9022 15.6758 14.8344L15.8576 14.9021C15.7958 14.9758 15.6134 15.1103 15.5682 15.037ZM15.4467 14.7491C15.3878 14.8404 15.3467 14.9429 15.1652 14.9478C14.9377 14.9539 14.9007 14.7509 14.8515 14.6402C14.8372 14.6079 14.8125 14.5835 14.784 14.5668C14.784 14.5469 14.785 14.5251 14.7867 14.5031L15.4467 14.7491Z" fill="#E6B432"/>
<path d="M11.9829 10.4161C11.9829 10.4161 11.6907 10.167 11.6045 10.0317C11.6045 10.0317 11.703 9.99169 11.7521 9.93019C11.7521 9.93019 11.4876 9.78872 11.3462 9.64416C11.3462 9.64416 11.4385 9.62879 11.5092 9.57033C11.5092 9.57033 11.2716 9.5274 11.1512 9.33286C11.4258 9.23907 11.3339 8.98285 11.3339 8.98285C11.2785 9.05668 11.0509 9.14893 10.8048 9.04435C10.5588 8.93977 10.2881 9.01355 10.2881 9.14893C10.2881 9.14893 9.7345 8.98899 9.87293 9.52421C9.87293 9.52421 9.96208 9.32429 10.159 9.39811C10.3558 9.47194 10.5558 9.72413 10.5558 9.72413C10.5558 9.72413 10.4327 9.79177 10.2051 9.71799C10.2051 9.71799 10.2974 10.0717 10.7126 9.8933C10.7126 9.8933 10.8767 9.98147 10.8849 10.2398C10.8849 10.2398 10.9546 10.2029 10.9997 10.1209C10.9997 10.1209 11.0653 10.3711 10.9792 10.5761C10.9792 10.5761 11.0941 10.5556 11.131 10.5187C11.131 10.5187 11.1638 10.7361 11.0203 10.9124C11.0203 10.9124 11.6508 11.2128 12.0507 10.8837C12.0507 10.8837 11.9 10.7115 11.8508 10.5516C11.8506 10.5515 11.9336 10.5176 11.9829 10.4161Z" fill="#E6B432"/>
<path d="M13.813 9.14893C13.813 9.0136 13.5424 8.93977 13.2963 9.04435C13.0503 9.14893 12.8226 9.05668 12.7673 8.98285C12.7673 8.98285 12.6753 9.23907 12.95 9.33286C12.8295 9.5274 12.592 9.57033 12.592 9.57033C12.6628 9.62879 12.755 9.64416 12.755 9.64416C12.6135 9.78872 12.349 9.93019 12.349 9.93019C12.3982 9.99169 12.4966 10.0317 12.4966 10.0317C12.4105 10.167 12.1183 10.4161 12.1183 10.4161C12.1675 10.5176 12.2506 10.5515 12.2506 10.5515C12.2014 10.7114 12.0507 10.8836 12.0507 10.8836C12.4505 11.2127 13.0811 10.9123 13.0811 10.9123C12.9375 10.736 12.9703 10.5186 12.9703 10.5186C13.0073 10.5555 13.1221 10.576 13.1221 10.576C13.036 10.371 13.1016 10.1208 13.1016 10.1208C13.1467 10.2029 13.2165 10.2398 13.2165 10.2398C13.2247 9.98138 13.3887 9.89321 13.3887 9.89321C13.8039 10.0716 13.8962 9.71789 13.8962 9.71789C13.6686 9.79172 13.5456 9.72404 13.5456 9.72404C13.5456 9.72404 13.7455 9.47185 13.9424 9.39802C14.1393 9.32419 14.2284 9.52411 14.2284 9.52411C14.3666 8.98899 13.813 9.14893 13.813 9.14893Z" fill="#E6B432"/>
<path d="M13.5623 12.4164C13.5083 12.1021 13.4617 11.8306 13.5973 11.5195L13.6226 11.4614L13.0856 10.8447L13.0221 10.8659C13.0166 10.8677 12.4553 11.0513 12.0954 10.8713L12.0505 10.8488L12.0056 10.8713C11.6475 11.0507 11.0846 10.8677 11.0788 10.8658L11.0154 10.8448L10.4784 11.4614L10.5037 11.5195C10.6393 11.8306 10.5928 12.1021 10.5388 12.4164C10.4879 12.7132 10.4302 13.0497 10.5317 13.46C10.6419 13.9054 11.0131 14.0637 11.3403 14.2035C11.5927 14.3112 11.8309 14.4129 11.9656 14.6265L12.0505 14.761L12.1353 14.6265C12.2701 14.4129 12.5083 14.3113 12.7606 14.2035C13.088 14.0637 13.459 13.9054 13.5692 13.46C13.6708 13.0496 13.6131 12.7132 13.5623 12.4164ZM10.7119 11.4988L11.0805 11.0756C11.2475 11.1215 11.6988 11.2208 12.0505 11.0715C12.4021 11.2209 12.8535 11.1215 13.0205 11.0756L13.3891 11.4988C13.2596 11.8396 13.3106 12.1368 13.3644 12.4503C13.4047 12.6853 13.4447 12.9273 13.4111 13.206H10.6899C10.6563 12.9273 10.6964 12.6853 10.7366 12.4503C10.7904 12.1368 10.8414 11.8396 10.7119 11.4988ZM12.6819 14.019C12.4538 14.1164 12.2191 14.2165 12.0505 14.4066C11.8819 14.2165 11.6472 14.1164 11.4191 14.019C11.099 13.8823 10.8229 13.7629 10.7318 13.4275H13.3691C13.2781 13.7629 13.002 13.8824 12.6819 14.019Z" fill="#E6B432"/>
<path d="M10.712 11.4988L11.0805 11.0757C11.2475 11.1215 11.6988 11.2208 12.0505 11.0715C12.4022 11.2209 12.8535 11.1215 13.0205 11.0757L13.3891 11.4988C13.2597 11.8397 13.3106 12.1368 13.3644 12.4504C13.4047 12.6853 13.4448 12.9273 13.4111 13.206H10.6899C10.6563 12.9273 10.6964 12.6853 10.7366 12.4504C10.7904 12.1368 10.8414 11.8396 10.712 11.4988Z" fill="#41479B"/>
<path d="M10.7178 13.369C10.7209 13.3833 10.7229 13.3972 10.7266 13.4118C10.8128 13.7601 11.0938 13.8801 11.4192 14.019C11.6473 14.1164 11.882 14.2165 12.0506 14.4066C12.2192 14.2165 12.4539 14.1164 12.682 14.019C13.0074 13.88 13.2884 13.7601 13.3746 13.4118C13.3783 13.3972 13.3803 13.3833 13.3835 13.369H10.7178Z" fill="#73AF00"/>
<path d="M13.2545 12.2058C13.2545 12.0244 13.0821 11.9958 12.9253 11.9989C12.7685 12.002 12.5392 11.9734 12.5334 11.8515C12.5298 11.7755 12.6573 11.7684 12.7404 11.795C12.7885 11.8105 13.0883 11.864 13.1824 11.6634C13.1824 11.6634 13.0728 11.6669 12.9571 11.6409C12.8679 11.6209 12.502 11.6665 12.4362 11.8076C12.3703 11.9486 12.5827 12.0895 12.8272 12.0895C13.0718 12.0895 13.1053 12.1384 13.1034 12.198C13.1009 12.2764 12.9069 12.2986 12.7955 12.2975C12.62 12.2338 12.2106 12.2837 12.2086 12.276C12.2063 12.2665 12.1142 12.1084 12.1142 12.1084C12.1142 12.1084 12.2818 12.0966 12.3031 12.0659C12.3243 12.0352 12.1759 11.9173 12.1759 11.9173C12.1759 11.9173 12.3007 11.8676 12.3054 11.8322C12.3106 11.7932 12.2041 11.701 12.2041 11.701C12.2041 11.701 12.2453 11.6605 12.2762 11.5912C12.2983 11.5418 12.1226 11.5286 12.1226 11.5286C12.132 11.491 12.1284 11.4544 12.0818 11.4376C12.0458 11.4246 11.9125 11.4752 11.8216 11.4752C11.7307 11.4752 11.6962 11.5411 11.6962 11.5411C11.6962 11.5411 11.5363 11.5599 11.5143 11.5787C11.4924 11.5975 11.5206 11.7198 11.5206 11.7198C11.4391 11.7072 11.4015 11.6351 11.4015 11.6351C11.3607 11.8201 11.552 11.8389 11.552 11.8389L11.5833 11.9393C11.5833 11.9393 11.5833 11.9393 11.6617 11.9487C11.7401 11.9581 11.7025 12.0334 11.5802 12.0334C11.4579 12.0334 11.406 12.1792 11.406 12.1792C11.321 12.1816 11.2738 12.1131 11.2549 12.0258C11.2341 11.9296 11.2464 11.7819 11.262 11.6882C11.2809 11.5749 11.2242 11.5418 11.2242 11.5418L11.1864 11.6363C11.1841 11.5395 11.0991 11.5301 11.0991 11.5301L11.0849 11.6481C11.0424 11.5702 10.9693 11.6056 10.9693 11.6056C10.9693 11.6056 11.0401 11.8605 11.0378 11.8747C11.0354 11.8888 11.0118 11.9006 10.9787 11.8652C10.9457 11.8298 10.9221 11.8534 10.9221 11.8534C10.9576 12.1084 11.0942 12.0709 11.0942 12.0709C11.0942 12.0709 11.1003 12.1508 11.1416 12.313C11.1857 12.4861 11.367 12.4535 11.367 12.4535C11.367 12.5099 11.4109 12.5914 11.4234 12.7796C11.436 12.9677 11.2636 13.0994 11.2636 13.0994C11.1068 13.0962 11.1225 13.2499 11.1225 13.2499H11.5551C11.5551 12.8498 11.7271 12.7812 11.7271 12.7812C11.9821 12.7931 12.2276 12.6868 12.2276 12.6868C12.1898 12.8403 12.2559 12.904 12.2559 12.904C12.3598 12.8898 12.3079 13.0952 12.2772 13.0952C12.2465 13.0952 12.1827 13.0952 12.145 13.0952C12.1073 13.0952 11.9986 13.2132 11.9986 13.2132H12.4471C12.4471 13.2132 12.5156 13.1141 12.5392 13.0645C12.5628 13.0149 12.4873 12.9465 12.4826 12.8945C12.4779 12.8426 12.5605 12.8096 12.5605 12.8096C12.6479 12.9323 12.8485 12.9394 12.8485 12.9394L12.8438 12.8473C12.8438 12.8473 12.9477 12.8828 12.9713 12.9134C12.9949 12.9441 12.9902 13.0858 12.8651 13.1023C12.74 13.1188 12.7305 13.2085 12.7305 13.2085C12.7305 13.2085 13.0162 13.2085 13.0728 13.2085C13.1295 13.2085 13.1743 13.1023 13.1743 13.0621C13.1743 13.022 13.1743 12.76 13.1743 12.7032C13.1743 12.6466 13.1271 12.6537 13.0162 12.6418C12.9154 12.6311 12.925 12.5209 12.8835 12.3928C13.0292 12.388 13.2545 12.3561 13.2545 12.2058Z" fill="#E6B432"/>
<path d="M13.2279 7.91588C13.1999 7.66833 13.0025 7.3531 12.2509 7.20535C12.2484 7.12548 12.1993 7.05779 12.129 7.02929V6.89134H12.2521V6.74373H12.129V6.62073H11.9814V6.74377H11.8584V6.89138H11.9814V7.02934C11.9112 7.05784 11.862 7.12552 11.8595 7.2054C11.1079 7.35319 10.9105 7.66838 10.8825 7.91593C10.8475 8.2246 11.0685 8.51729 11.2678 8.62946V8.78607H12.8426V8.62946C13.0419 8.51729 13.2629 8.22455 13.2279 7.91588ZM12.4035 8.39236H12.1831V7.48444C12.3648 7.56652 12.4772 7.69238 12.5099 7.86526C12.5507 8.08051 12.4646 8.29997 12.4035 8.39236ZM11.6005 7.86512C11.6332 7.69224 11.7455 7.56643 11.9273 7.4844V8.39232H11.7068C11.6456 8.29997 11.5596 8.08041 11.6005 7.86512ZM11.4182 7.61583C11.3821 7.68835 11.359 7.76087 11.3472 7.82747C11.3116 8.02913 11.3524 8.23407 11.4199 8.39236H11.3682C11.2577 8.31633 11.1159 8.1293 11.1368 7.94476C11.1514 7.81562 11.2493 7.70485 11.4182 7.61583ZM12.7422 8.39236H12.6904C12.7579 8.23416 12.7988 8.02922 12.7632 7.82757C12.7514 7.76096 12.7283 7.68835 12.6921 7.61579C12.8611 7.7048 12.959 7.81566 12.9736 7.94471C12.9945 8.1293 12.8526 8.31633 12.7422 8.39236Z" fill="#E6B432"/>
</svg>
