<svg width="24" height="24" viewBox="0 0 24 24" fill="none" xmlns="http://www.w3.org/2000/svg">
<path d="M23.5861 19.8621H0.413812C0.185297 19.8621 0 19.6768 0 19.4483V4.55175C0 4.32324 0.185297 4.13794 0.413812 4.13794H23.5862C23.8147 4.13794 24 4.32324 24 4.55175V19.4483C24 19.6768 23.8147 19.8621 23.5861 19.8621Z" fill="#41479B"/>
<path d="M0.186468 19.7849L24 9.93109V7.03455L0 19.4483C0 19.591 0.0766405 19.7105 0.186468 19.7849Z" fill="#F5F5F5"/>
<path d="M23.8433 4.23523L0 19.0345V19.4483L24 7.03451V4.55173C24 4.42203 23.9366 4.31112 23.8433 4.23523Z" fill="#FF9B55"/>
<path d="M6.83913 9.85173L9.51715 9.51728L6.83913 9.18287L8.1964 8.35042L6.50764 8.76334L7.53541 7.36113L6.13324 8.3889L6.54612 6.70014L5.71372 8.05741L5.37926 5.37939L5.04481 8.05741L4.21236 6.70014L4.62528 8.3889L3.22306 7.36113L4.25084 8.76334L2.56208 8.35042L3.91934 9.18287L1.24133 9.51728L3.91934 9.85173L2.56208 10.6842L4.25084 10.2713L3.22306 11.6735L4.62528 10.6457L4.21236 12.3345L5.04481 10.9772L5.37926 13.6552L5.71372 10.9772L6.54612 12.3345L6.13324 10.6457L7.53541 11.6735L6.50764 10.2713L8.1964 10.6842L6.83913 9.85173Z" fill="#F5F5F5"/>
</svg>
