<svg width="24" height="24" viewBox="0 0 24 24" fill="none" xmlns="http://www.w3.org/2000/svg">
<path d="M24 12H0V4.55169C0 4.32317 0.185297 4.13788 0.413812 4.13788H23.5862C23.8147 4.13788 24 4.32317 24 4.55169L24 12Z" fill="#F5F5F5"/>
<path d="M0.827577 12V11.5862H0V12V12.4138V19.4482C0 19.6768 0.185297 19.8621 0.413812 19.8621H23.5862C23.8147 19.8621 24 19.6768 24 19.4482V12H0.827577Z" fill="#FF4B55"/>
<path d="M7.44828 12H0.413812C0.185297 12 0 11.8147 0 11.5862V4.55169C0 4.32317 0.185297 4.13788 0.413812 4.13788H7.44828C7.6768 4.13788 7.86209 4.32317 7.86209 4.55169V11.5862C7.86205 11.8147 7.6768 12 7.44828 12Z" fill="#41479B"/>
<path d="M4.09045 6.30406L4.48495 7.4869L5.73182 7.49656C5.89326 7.49777 5.96019 7.70384 5.8303 7.7997L4.82727 8.54037L5.20335 9.72921C5.25201 9.88315 5.07679 10.0104 4.94545 9.91657L3.93107 9.19155L2.91665 9.91661C2.78531 10.0105 2.61009 9.88315 2.65875 9.72925L3.03482 8.54041L2.0318 7.79974C1.90191 7.70384 1.96884 7.49782 2.13028 7.4966L3.37715 7.48695L3.77165 6.30411C3.82275 6.15092 4.0394 6.15092 4.09045 6.30406Z" fill="#F5F5F5"/>
</svg>
