<svg width="24" height="24" viewBox="0 0 24 24" fill="none" xmlns="http://www.w3.org/2000/svg">
<path d="M24 9.37935H0V4.55175C0 4.32324 0.185297 4.13794 0.413812 4.13794H23.5862C23.8147 4.13794 24 4.32324 24 4.55175L24 9.37935Z" fill="#464655"/>
<path d="M23.5861 19.8621H0.413812C0.185297 19.8621 0 19.6768 0 19.4483V14.6207H24V19.4483C24 19.6768 23.8147 19.8621 23.5861 19.8621Z" fill="#73AF00"/>
<path d="M24 9.37924H0V14.6203H24V9.37924Z" fill="#F5F5F5"/>
<path d="M0.152625 19.762L14.1735 12.1675C14.3065 12.0955 14.3065 11.9045 14.1735 11.8325L0.152625 4.23801C0.061453 4.3139 0 4.42387 0 4.55174V19.4483C0 19.5762 0.061453 19.6861 0.152625 19.762Z" fill="#FF4B55"/>
<path d="M4.47187 10.9296L4.71782 11.4631L5.28824 11.3227C5.32387 11.314 5.35335 11.351 5.3369 11.3838L5.07318 11.9087L5.53855 12.2672C5.56762 12.2896 5.55707 12.3357 5.52116 12.3432L4.94634 12.4643L4.95623 13.0517C4.95684 13.0884 4.91418 13.1089 4.88591 13.0856L4.43287 12.7117L3.97982 13.0856C3.95151 13.1089 3.9089 13.0884 3.90951 13.0517L3.9194 12.4643L3.34457 12.3432C3.30867 12.3357 3.29817 12.2896 3.32718 12.2672L3.79256 11.9087L3.52884 11.3838C3.51238 11.351 3.54187 11.314 3.57749 11.3227L4.14791 11.4631L4.39387 10.9296C4.40915 10.8963 4.45649 10.8963 4.47187 10.9296Z" fill="#F5F5F5"/>
</svg>
