<svg width="24" height="24" viewBox="0 0 24 24" fill="none" xmlns="http://www.w3.org/2000/svg">
<path d="M23.5861 19.8621H0.413812C0.185297 19.8621 0 19.6768 0 19.4483V4.55175C0 4.32324 0.185297 4.13794 0.413812 4.13794H23.5862C23.8147 4.13794 24 4.32324 24 4.55175V19.4483C24 19.6768 23.8147 19.8621 23.5861 19.8621Z" fill="#F5F5F5"/>
<path d="M0.537936 5.19734L9.11079 11.4621H3.70987H2.50509L3.30927 12.3592L9.55381 19.3242H0.537936V5.19734ZM0.144422 4.24353C0.0575624 4.31942 0 4.42742 0 4.55173V19.4483C0 19.6768 0.185297 19.8621 0.413812 19.8621H10.7586L3.70987 12H10.7586L0.144422 4.24353Z" fill="#41479B"/>
<path d="M0.537964 5.19733L9.11082 11.4621H3.7099H2.50512L3.3094 12.3591L9.55388 19.3241H0.537964V5.19733Z" fill="#FF4B55"/>
<path d="M3.1569 13.8937L3.48812 14.5773L4.11676 14.1509C4.14446 14.132 4.18173 14.1536 4.17929 14.187L4.1244 14.9446L4.88199 14.8897C4.91541 14.8872 4.93693 14.9245 4.91808 14.9522L4.49171 15.5809L5.17529 15.9121C5.20543 15.9267 5.20543 15.9696 5.17529 15.9843L4.49171 16.3155L4.91808 16.9441C4.93693 16.9718 4.91541 17.0091 4.88199 17.0066L4.1244 16.9518L4.17929 17.7093C4.18173 17.7428 4.14446 17.7643 4.11676 17.7454L3.48812 17.3191L3.1569 18.0026C3.14227 18.0328 3.09934 18.0328 3.08471 18.0026L2.75349 17.3191L2.12485 17.7454C2.09715 17.7643 2.05989 17.7428 2.06232 17.7093L2.11721 16.9518L1.35962 17.0066C1.3262 17.0091 1.30468 16.9718 1.32353 16.9441L1.7499 16.3155L1.06618 15.9844C1.03604 15.9698 1.03604 15.9268 1.06618 15.9122L1.74976 15.581L1.32339 14.9524C1.30454 14.9246 1.32606 14.8874 1.35948 14.8898L2.11707 14.9447L2.06218 14.1871C2.05975 14.1537 2.09701 14.1322 2.12471 14.151L2.75335 14.5774L3.08457 13.8938C3.09929 13.8635 3.14227 13.8635 3.1569 13.8937Z" fill="#F5F5F5"/>
<path d="M4.01695 9.94041L3.72937 9.74396L3.98254 9.4786L3.62174 9.41274L3.74512 9.06742L3.38873 9.15399L3.36093 8.78837L3.07059 9.01238L2.89654 8.6897L2.72245 9.01248L2.43211 8.78846L2.40431 9.15409L2.04792 9.06751L2.17129 9.41284L1.8105 9.4787L2.06367 9.74405L1.77609 9.94051C1.41323 9.7711 1.0942 9.52355 0.84314 9.21737C1.0118 10.1999 1.86572 10.9484 2.89645 10.9484C3.92718 10.9484 4.78105 10.1999 4.94976 9.21737C4.69884 9.52351 4.37976 9.77101 4.01695 9.94041Z" fill="#F5F5F5"/>
</svg>
