<svg width="24" height="24" viewBox="0 0 24 24" fill="none" xmlns="http://www.w3.org/2000/svg">
<path d="M23.5861 19.8619H0.413812C0.185297 19.8619 0 19.6766 0 19.4481V4.5516C0 4.32308 0.185297 4.13779 0.413812 4.13779H23.5862C23.8147 4.13779 24 4.32308 24 4.5516V19.4481C24 19.6767 23.8147 19.8619 23.5861 19.8619Z" fill="#F5F5F5"/>
<path d="M18.6206 4.13803H5.37939V19.8622H18.6206V4.13803Z" fill="#F5F5F5"/>
<path d="M0.413812 4.13785C0.185297 4.13785 0 4.3231 0 4.55161V19.4481C0 19.6766 0.185297 19.8619 0.413812 19.8619H5.37932V4.13785H0.413812Z" fill="#FF4B55"/>
<path d="M23.5861 4.13785H18.6206V19.8619H23.5861C23.8146 19.8619 23.9999 19.6766 23.9999 19.4481V4.55161C23.9999 4.3231 23.8146 4.13785 23.5861 4.13785Z" fill="#FF4B55"/>
<path d="M14.511 13.8168L16.9664 12.4137L16.403 12.132C16.245 12.0529 16.1545 11.8823 16.1779 11.7072L16.3612 10.3327L15.3217 10.6351C15.0921 10.702 14.8537 10.5607 14.8021 10.3272L14.7025 9.8772L13.7265 11.0195C13.5911 11.1779 13.3334 11.0569 13.3687 10.8516L13.7855 8.42783L13.1473 8.60239C12.9609 8.65339 12.764 8.56855 12.6731 8.39802L12.0011 7.13844V7.13657L12.0006 7.1375L12.0001 7.13657V7.13844L11.3281 8.39802C11.2371 8.5685 11.0402 8.65335 10.8538 8.60239L10.2155 8.42783L10.6324 10.8516C10.6677 11.0569 10.4099 11.1778 10.2745 11.0195L9.29846 9.8772L9.1989 10.3272C9.14725 10.5607 8.90893 10.7019 8.67929 10.6351L7.63975 10.3327L7.82308 11.7072C7.84647 11.8823 7.756 12.0529 7.59798 12.132L7.03455 12.4137L9.48999 13.8168C9.74434 13.9622 9.85581 14.2704 9.7532 14.5448L9.54329 15.1062L11.6473 14.9266C11.7637 14.9166 11.8628 15.0104 11.8594 15.1271L11.7931 17.3792H12.2069L12.1406 15.1271C12.1372 15.0102 12.2363 14.9165 12.3527 14.9265L14.4577 15.1062L14.2478 14.5448C14.1452 14.2704 14.2567 13.9621 14.511 13.8168Z" fill="#FF4B55"/>
</svg>
