<svg width="24" height="24" viewBox="0 0 24 24" fill="none" xmlns="http://www.w3.org/2000/svg">
<path d="M23.5861 19.8621H0.413812C0.185297 19.8621 0 19.6768 0 19.4483V4.55175C0 4.32324 0.185297 4.13794 0.413812 4.13794H23.5862C23.8147 4.13794 24 4.32324 24 4.55175V19.4483C24 19.6768 23.8147 19.8621 23.5861 19.8621Z" fill="#FF4B55"/>
<path d="M8.68962 4.138H0.413812C0.185297 4.138 0 4.32325 0 4.55177V19.4483C0 19.6768 0.185297 19.8621 0.413812 19.8621H8.68967V4.138H8.68962Z" fill="#73AF00"/>
<path d="M8.69298 15.721C10.748 15.721 12.4139 14.0551 12.4139 12C12.4139 9.94503 10.748 8.27911 8.69298 8.27911C6.63796 8.27911 4.97205 9.94503 4.97205 12C4.97205 14.0551 6.63796 15.721 8.69298 15.721Z" fill="#FFE15A"/>
<path d="M9.9343 10.7586V12.4138C9.9343 13.0983 9.37743 13.6551 8.69291 13.6551C8.0084 13.6551 7.45152 13.0983 7.45152 12.4138V10.7586H9.9343ZM10.3481 9.93103H7.03771C6.8092 9.93103 6.6239 10.1163 6.6239 10.3448V12.4138C6.6239 13.5564 7.55024 14.4828 8.69287 14.4828C9.83549 14.4828 10.7618 13.5564 10.7618 12.4138V10.3448C10.7619 10.1163 10.5766 9.93103 10.3481 9.93103Z" fill="#FF4B55"/>
<path d="M9.93431 10.7586V12.4138C9.93431 13.0983 9.37744 13.6551 8.69293 13.6551C8.00841 13.6551 7.45154 13.0983 7.45154 12.4138V10.7586H9.93431Z" fill="#F5F5F5"/>
<path d="M7.03454 10.5518C7.14881 10.5518 7.24145 10.4591 7.24145 10.3448C7.24145 10.2306 7.14881 10.1379 7.03454 10.1379C6.92027 10.1379 6.82764 10.2306 6.82764 10.3448C6.82764 10.4591 6.92027 10.5518 7.03454 10.5518Z" fill="#FFE15A"/>
<path d="M10.3448 10.5518C10.4591 10.5518 10.5518 10.4591 10.5518 10.3448C10.5518 10.2306 10.4591 10.1379 10.3448 10.1379C10.2306 10.1379 10.1379 10.2306 10.1379 10.3448C10.1379 10.4591 10.2306 10.5518 10.3448 10.5518Z" fill="#FFE15A"/>
<path d="M7.03454 12.2069C7.14881 12.2069 7.24145 12.1143 7.24145 12C7.24145 11.8857 7.14881 11.7931 7.03454 11.7931C6.92027 11.7931 6.82764 11.8857 6.82764 12C6.82764 12.1143 6.92027 12.2069 7.03454 12.2069Z" fill="#FFE15A"/>
<path d="M10.3448 12.2069C10.4591 12.2069 10.5518 12.1143 10.5518 12C10.5518 11.8857 10.4591 11.7931 10.3448 11.7931C10.2306 11.7931 10.1379 11.8857 10.1379 12C10.1379 12.1143 10.2306 12.2069 10.3448 12.2069Z" fill="#FFE15A"/>
<path d="M8.68969 10.5518C8.80396 10.5518 8.8966 10.4591 8.8966 10.3448C8.8966 10.2306 8.80396 10.1379 8.68969 10.1379C8.57542 10.1379 8.48279 10.2306 8.48279 10.3448C8.48279 10.4591 8.57542 10.5518 8.68969 10.5518Z" fill="#FFE15A"/>
<path d="M9.93188 13.7327C10.0462 13.7327 10.1388 13.64 10.1388 13.5258C10.1388 13.4115 10.0462 13.3188 9.93188 13.3188C9.81761 13.3188 9.72498 13.4115 9.72498 13.5258C9.72498 13.64 9.81761 13.7327 9.93188 13.7327Z" fill="#FFE15A"/>
<path d="M7.47192 13.7327C7.58619 13.7327 7.67883 13.64 7.67883 13.5258C7.67883 13.4115 7.58619 13.3188 7.47192 13.3188C7.35765 13.3188 7.26501 13.4115 7.26501 13.5258C7.26501 13.64 7.35765 13.7327 7.47192 13.7327Z" fill="#FFE15A"/>
<path d="M8.9601 11.8951V12.2515C8.9601 12.3989 8.84019 12.5188 8.69282 12.5188C8.54544 12.5188 8.42554 12.3989 8.42554 12.2515V11.8951H8.9601Z" fill="#41479B"/>
<path d="M8.9601 11.0504V11.4067C8.9601 11.5541 8.84019 11.674 8.69282 11.674C8.54544 11.674 8.42554 11.5541 8.42554 11.4067V11.0504H8.9601Z" fill="#41479B"/>
<path d="M8.9601 12.7486V13.1049C8.9601 13.2523 8.84019 13.3722 8.69282 13.3722C8.54544 13.3722 8.42554 13.2523 8.42554 13.1049V12.7486H8.9601Z" fill="#41479B"/>
<path d="M9.67995 11.8951V12.2515C9.67995 12.3989 9.56004 12.5188 9.41267 12.5188C9.26529 12.5188 9.14539 12.3989 9.14539 12.2515V11.8951H9.67995Z" fill="#41479B"/>
<path d="M8.24037 11.8951V12.2515C8.24037 12.3989 8.12047 12.5188 7.97309 12.5188C7.82572 12.5188 7.70581 12.3989 7.70581 12.2515V11.8951H8.24037Z" fill="#41479B"/>
</svg>
