<svg width="24" height="24" viewBox="0 0 24 24" fill="none" xmlns="http://www.w3.org/2000/svg">
<path d="M23.5861 19.862H0.413812C0.185297 19.862 0 19.6767 0 19.4482V4.55175C0 4.32324 0.185297 4.13794 0.413812 4.13794H23.5862C23.8147 4.13794 24 4.32324 24 4.55175V19.4482C24 19.6768 23.8147 19.862 23.5861 19.862Z" fill="#41479B"/>
<path d="M11.5862 4.13794H10.8674L7.03447 6.64917V4.13794H4.96551V6.64917L1.13254 4.13794H0.413812C0.185297 4.13794 0 4.32324 0 4.55175V4.87997L3.28851 7.03448H0V9.10345H3.28851L0 11.258V11.5862C0 11.8147 0.185297 12 0.413812 12H1.13254L4.96551 9.48876V12H7.03447V9.48876L10.8674 12H11.5861C11.8146 12 11.9999 11.8147 11.9999 11.5862V11.258L8.71147 9.10345H11.9999V7.03448H8.71142L11.9999 4.87997V4.55175C11.9999 4.32324 11.8147 4.13794 11.5862 4.13794Z" fill="#F5F5F5"/>
<path d="M11.9999 7.44829H6.62066V4.13794H5.37927V7.44829H0V8.68963H5.37927V12H6.62066V8.68963H11.9999V7.44829Z" fill="#FF4B55"/>
<path d="M4.55169 7.03449L0.197203 4.20789C0.081328 4.28124 0 4.40443 0 4.55176V4.57323L3.79166 7.03449H4.55169Z" fill="#FF4B55"/>
<path d="M7.79445 7.03448L11.937 4.34545C11.865 4.22363 11.7379 4.13794 11.5861 4.13794H11.4966L7.03442 7.03448H7.79445Z" fill="#FF4B55"/>
<path d="M4.19405 9.10345L0.0594482 11.7873C0.130745 11.9121 0.259745 12 0.413776 12H0.491822L4.95408 9.10345H4.19405Z" fill="#FF4B55"/>
<path d="M11.9933 11.6188L8.11838 9.10352H7.3584L11.7587 11.9598C11.8905 11.8986 11.9809 11.7704 11.9933 11.6188Z" fill="#FF4B55"/>
<path d="M18.1503 8.31394C18.141 8.31394 18.1315 8.31099 18.1234 8.30489C18.1169 8.29992 17.4747 7.79944 17.853 6.95119C17.863 6.92869 17.8894 6.91875 17.912 6.9286C17.9345 6.93872 17.9446 6.96502 17.9346 6.98761C17.5857 7.76982 18.1531 8.21527 18.1774 8.23383C18.197 8.24874 18.2008 8.27672 18.1859 8.29631C18.1771 8.30785 18.1638 8.31394 18.1503 8.31394Z" fill="#73AF00"/>
<path d="M17.7804 7.58127C17.7786 7.58127 17.7769 7.58118 17.7752 7.58099C17.7507 7.57808 17.7332 7.55596 17.736 7.53149C17.7546 7.37108 17.8149 7.25915 17.9155 7.19886C18.0771 7.10169 18.2792 7.17932 18.2877 7.18274C18.3106 7.19174 18.3219 7.21752 18.3129 7.24044C18.3039 7.26341 18.2779 7.2748 18.2552 7.2658C18.2534 7.26515 18.0846 7.20102 17.961 7.2756C17.8858 7.32102 17.8399 7.41055 17.8248 7.5418C17.8221 7.56454 17.8027 7.58127 17.7804 7.58127Z" fill="#73AF00"/>
<path d="M17.9017 7.00591C17.8978 6.99606 17.8013 6.76694 17.3651 6.86444C16.8711 6.97511 16.8654 7.62681 16.8654 7.63333C16.8654 7.65573 16.882 7.67476 16.9043 7.67762C16.9062 7.6779 16.9082 7.678 16.91 7.678C16.93 7.678 16.948 7.6645 16.9531 7.64467C17.1372 6.94333 17.823 7.06112 17.8521 7.06623C17.8686 7.06919 17.8844 7.06309 17.8946 7.05072C17.9049 7.03815 17.9077 7.02095 17.9017 7.00591Z" fill="#73AF00"/>
<path d="M17.7989 7.36921C17.7989 7.36921 17.5013 7.17955 17.3786 7.42129C17.2559 7.66307 17.3489 7.92341 17.3972 8.02752C17.3972 8.02752 17.5746 7.83144 17.7431 7.80435C17.9514 7.77088 18.0035 7.51049 17.8584 7.38032C17.6851 7.22483 17.7989 7.36921 17.7989 7.36921Z" fill="#73AF00"/>
<path d="M18.124 6.92487C18.1198 7.18521 18.2648 7.21933 18.2648 7.21933C18.3586 6.98032 18.124 6.92487 18.124 6.92487Z" fill="#73AF00"/>
<path d="M18.0785 7.47173C18.0805 7.2247 18.248 7.1969 18.248 7.1969C18.3495 7.42654 18.0785 7.47173 18.0785 7.47173Z" fill="#73AF00"/>
<path d="M19.0448 7.27251C19.0448 7.27251 18.8079 7.23749 18.717 7.19456C18.6414 7.15888 18.5427 7.07273 18.415 7.08956C18.3173 7.08956 18.2382 7.16868 18.2382 7.26637C18.2382 7.36406 18.3052 7.48101 18.6561 7.45504C18.8263 7.44243 18.9712 7.52015 18.9712 7.52015C18.9489 7.4272 19.0448 7.27251 19.0448 7.27251Z" fill="#FF4B55"/>
<path d="M18.799 7.35005C18.799 7.35005 18.4356 7.37522 18.3559 7.31644C18.2822 7.26216 18.3014 7.17572 18.3769 7.16733C18.4903 7.15472 18.799 7.35005 18.799 7.35005Z" fill="#FFE15A"/>
<path d="M19.5061 7.76158L18.7027 8.2637L18.6106 8.1744L19.0513 7.74756L19.1545 7.78942L19.255 7.6555L19.015 7.52997C19.015 7.52997 18.379 8.12969 17.8379 8.17994C17.6558 8.19686 17.4703 8.18495 17.3256 8.12537L17.001 8.59281L17.6816 9.17303L18.6803 9.13398L19.506 8.01255L19.651 8.07948L19.7737 7.93445L19.5061 7.76158Z" fill="#B49B91"/>
<path d="M17.2671 9.11363C17.0436 9.11363 16.8617 8.93176 16.8617 8.70835C16.8617 8.48485 17.0436 8.30298 17.2671 8.30298C17.4905 8.30298 17.6723 8.48485 17.6723 8.70835C17.6724 8.93181 17.4905 9.11363 17.2671 9.11363ZM17.2671 8.4369C17.1174 8.4369 16.9956 8.55868 16.9956 8.70835C16.9956 8.85802 17.1174 8.97976 17.2671 8.97976C17.4167 8.97976 17.5385 8.85807 17.5385 8.70835C17.5385 8.55863 17.4168 8.4369 17.2671 8.4369Z" fill="#9B8278"/>
<path d="M18.9555 9.48932C18.9555 9.48932 19.0299 9.44094 19.1043 9.21412L18.9518 9.23643C18.9518 9.23643 18.9815 9.10996 18.9481 9.01696L18.777 9.15088C18.777 9.15088 18.6989 8.98724 18.6655 8.96493C18.6655 8.96493 18.5464 9.13232 18.4795 9.15459C18.4795 9.15459 18.4126 8.9128 18.3456 8.86448L18.2303 9.02812L18.0592 8.8942C18.0592 8.8942 18.0592 9.00951 18.0555 9.03557C18.0518 9.06159 17.8323 8.80499 17.8323 8.80499C17.8323 8.80499 17.7356 8.84591 17.6054 9.05418L17.4418 8.88679L17.3748 9.10626L17.148 9.04673L17.1851 9.1769L16.988 9.16199C16.988 9.16199 17.0215 9.3554 17.1182 9.42238L18.9555 9.48932Z" fill="#73AF00"/>
<path d="M16.9843 10.3169C16.9843 10.3169 16.3706 11.098 15.2101 11.0087L16.471 11.1817L17.1181 10.568L16.9843 10.3169Z" fill="#73AF00"/>
<path d="M14.9813 10.8915C15.104 10.9808 15.8629 11.1984 16.4096 10.9361C16.4096 10.9361 16.4207 11.0645 16.3594 11.137C16.3594 11.137 16.761 10.9752 16.9787 10.6739C17.1963 10.3726 16.5267 11.3211 16.5267 11.3211L15.5002 11.5107L15.0817 11.1648L14.9813 10.8915Z" fill="#FFE15A"/>
<path d="M14.9007 8.07882C14.7644 8.09026 14.617 8.17234 14.5416 8.27204C14.5005 8.2546 14.4092 8.24687 14.3336 8.29721C14.2329 8.36434 14.0468 8.60677 13.8907 8.54265C13.8907 8.54265 13.8767 8.77135 14.1194 8.76305C14.1194 8.76305 14.0579 8.85793 14.0692 9.00854C14.0803 9.15915 13.9715 9.2596 13.9715 9.2596C13.9715 9.2596 14.4625 9.3293 14.482 8.94718C14.4844 8.90049 14.4868 8.85934 14.4891 8.82263C14.7453 8.96101 14.8461 8.76568 14.8461 8.76568C14.8461 8.76568 14.6921 8.62023 14.8488 8.41318C15.0055 8.20609 15.4363 8.69424 15.4363 8.69424C15.4447 8.49891 15.4272 8.03457 14.9007 8.07882Z" fill="#FFE15A"/>
<path d="M16.7983 9.36651C16.7983 9.36651 16.6569 9.46322 16.218 9.37397C16.218 9.37397 16.3147 9.15825 16.2701 9.03178C16.2701 9.03178 16.1511 9.14334 15.861 9.25495C15.5709 9.36656 15.2138 9.72361 15.1096 9.95418C15.1096 9.95418 15.7621 8.45006 15.238 8.29716C15.0582 8.2447 14.9035 8.32973 14.8488 8.41312C14.8753 8.44434 14.9007 8.48883 14.9032 8.54822C14.9088 8.67656 14.7805 9.54131 14.5908 10.1383C14.5908 10.1383 14.535 9.93182 14.4458 9.83137C14.3566 9.73092 14.2896 9.56915 14.2896 9.56915C14.2896 9.56915 14.139 9.66961 14.1613 9.85368C14.1613 9.85368 14.0776 9.78675 13.9158 9.83137C13.754 9.876 13.6926 9.76997 13.6926 9.76997C13.6926 9.76997 13.5587 10.127 13.9548 10.3111C13.9548 10.3111 13.8488 10.3613 13.7986 10.4004C13.7484 10.4395 13.6703 10.4395 13.6703 10.4395C13.6703 10.4395 13.8098 10.6961 14.1054 10.724C14.4011 10.7519 14.537 10.8362 14.6299 10.9881C14.9312 11.4809 15.5077 11.8547 16.4487 11.2782C16.4487 11.2782 15.1097 11.6947 15.0502 10.8393C14.9981 10.0909 15.8164 9.93918 15.8982 10.1028C15.98 10.2665 15.8908 10.4078 15.8908 10.4078C15.8908 10.4078 16.3371 10.3037 16.1213 9.89451C16.1213 9.8947 16.5602 9.96168 16.7983 9.36651Z" fill="#73AF00"/>
<path d="M21.0961 10.8915C20.9733 10.9808 20.1978 11.3155 19.6622 10.7799C19.1266 10.2443 18.9177 9.4402 18.9481 9.5302H18.4125L18.591 11.137L20.5772 11.5109L20.9957 11.1649L21.0961 10.8915Z" fill="#73AF00"/>
<path d="M21.1768 8.07882C21.3131 8.09026 21.4605 8.17234 21.536 8.27204C21.577 8.2546 21.6683 8.24687 21.7439 8.29721C21.8446 8.36434 22.0306 8.60677 22.1869 8.54265C22.1869 8.54265 22.2008 8.77135 21.9582 8.76305C21.9582 8.76305 22.0196 8.85793 22.0084 9.00854C21.9972 9.15915 22.106 9.2596 22.106 9.2596C22.106 9.2596 21.615 9.3293 21.5955 8.94718C21.5931 8.90049 21.5907 8.85934 21.5885 8.82263C21.3323 8.96101 21.2314 8.76568 21.2314 8.76568C21.2314 8.76568 21.3854 8.62023 21.2287 8.41318C21.072 8.20609 20.6412 8.69424 20.6412 8.69424C20.6328 8.49891 20.6503 8.03457 21.1768 8.07882Z" fill="#73AF00"/>
<path d="M19.2792 9.36657C19.2792 9.36657 19.4205 9.46328 19.8594 9.37403C19.8594 9.37403 19.7627 9.15831 19.8073 9.03184C19.8073 9.03184 19.9263 9.1434 20.2164 9.25501C20.5065 9.36662 20.8636 9.72367 20.9678 9.95424C20.9678 9.95424 20.3153 8.45012 20.8395 8.29722C21.0193 8.24476 21.1739 8.32979 21.2286 8.41319C21.2022 8.4444 21.1768 8.48889 21.1742 8.54828C21.1686 8.67662 21.2969 9.54137 21.4866 10.1383C21.4866 10.1383 21.5424 9.93189 21.6316 9.83143C21.7208 9.73098 21.7878 9.56921 21.7878 9.56921C21.7878 9.56921 21.9384 9.66967 21.9162 9.85374C21.9162 9.85374 21.9998 9.78681 22.1617 9.83143C22.3235 9.87606 22.3848 9.77003 22.3848 9.77003C22.3848 9.77003 22.5187 10.1271 22.1226 10.3112C22.1226 10.3112 22.2286 10.3614 22.2788 10.4005C22.329 10.4395 22.4071 10.4395 22.4071 10.4395C22.4071 10.4395 22.2676 10.6962 21.972 10.7241C21.6763 10.752 21.5404 10.8362 21.4476 10.9881C21.1462 11.481 20.5697 11.8547 19.6287 11.2782C19.6287 11.2782 20.9677 11.6948 21.0272 10.8393C21.0793 10.091 20.2611 9.93924 20.1792 10.1029C20.0974 10.2665 20.1867 10.4079 20.1867 10.4079C20.1867 10.4079 19.7403 10.3038 19.9561 9.89457C19.9561 9.89476 19.5172 9.96174 19.2792 9.36657Z" fill="#FFE15A"/>
<path d="M18.8998 10.6163C19.1193 10.9362 19.4242 11.2263 20.3095 11.5015C21.1947 11.7767 21.4313 11.8176 21.8952 12.1929C21.8952 12.1929 21.9833 12.2859 22.0171 12.4351C22.0567 12.6103 21.7865 13.1157 21.7865 13.1157C21.7865 13.1157 21.8125 12.9967 21.6489 12.7661C21.4852 12.5355 20.5181 12.119 20.0123 11.9925C19.5064 11.866 18.6324 11.2793 18.8742 10.8395L18.8998 10.6163Z" fill="#73AF00"/>
<path d="M21.8944 12.1915C21.8948 12.192 21.8949 12.1925 21.8953 12.1929C21.8947 12.1923 21.8942 12.1917 21.8937 12.1911L21.8944 12.1915Z" fill="#73AF00"/>
<path d="M21.872 13.2795C21.872 13.2795 21.8943 13.4413 21.7605 13.5808C21.6265 13.7203 21.5318 13.8207 21.5373 13.9378C21.5373 13.9378 21.3364 13.7928 21.3699 13.4692C21.3699 13.4692 21.1077 13.6868 20.7115 13.4747C20.7115 13.4747 20.7506 13.0786 21.2639 13.0284C21.2639 13.0284 21.0631 12.8722 21.3253 12.6323C21.3253 12.6323 21.3558 12.7396 21.5931 12.7941C21.7996 12.8416 22.1668 12.5827 21.8952 12.193C22.363 12.7215 22.1231 13.0841 21.872 13.2795Z" fill="#FFE15A"/>
<path d="M18.7083 10.3224C18.7083 10.3224 18.8214 10.5074 19.1155 10.6869C19.4689 10.9027 19.5005 11.0031 19.5005 11.0031L19.2606 10.9975C19.2606 10.9975 19.5675 11.1649 19.6512 11.3769C19.6512 11.3769 19.5228 11.3992 19.3778 11.3601C19.3778 11.3601 19.495 11.4661 19.4392 11.8065H18.8422L18.7083 10.3224Z" fill="#FFE15A"/>
<path d="M17.5198 11.8511V10.4229C17.5198 10.4229 17.0351 11.2523 16.6163 11.8511H17.5198Z" fill="#73AF00"/>
<path d="M17.1028 10.3931C16.9838 10.6088 16.6119 11.3192 15.7266 11.5945C14.8414 11.8697 14.6796 11.8177 14.2157 12.1929C14.2157 12.1929 14.1276 12.2859 14.0938 12.4351C14.0542 12.6103 14.3244 13.1157 14.3244 13.1157C14.3244 13.1157 14.2984 12.9967 14.462 12.7661C14.6257 12.5355 15.5872 12.0947 16.0986 11.9925C16.8057 11.8511 17.4454 11.0924 17.3413 10.6014C17.2372 10.1104 17.1028 10.3931 17.1028 10.3931Z" fill="#FFE15A"/>
<path d="M14.2166 12.1915C14.2162 12.192 14.2161 12.1925 14.2157 12.1929C14.2163 12.1923 14.2167 12.1917 14.2173 12.1911L14.2166 12.1915Z" fill="#73AF00"/>
<path d="M14.2389 13.2795C14.2389 13.2795 14.2166 13.4413 14.3505 13.5808C14.4844 13.7203 14.5792 13.8207 14.5737 13.9379C14.5737 13.9379 14.7745 13.7928 14.7411 13.4692C14.7411 13.4692 15.0033 13.6868 15.3994 13.4748C15.3994 13.4748 15.3604 13.0787 14.847 13.0285C14.847 13.0285 15.0479 12.8723 14.7857 12.6324C14.7857 12.6324 14.7552 12.7397 14.5179 12.7942C14.3114 12.8416 13.9442 12.5827 14.2158 12.1931C13.748 12.7216 13.9879 13.0842 14.2389 13.2795Z" fill="#73AF00"/>
<path d="M15.4742 15.6599C15.4742 15.6599 15.6007 16.2289 15.6082 16.8166C15.6082 16.8166 16.1624 16.8352 16.4302 16.4186C16.4302 16.4186 15.8946 16.1397 15.6082 15.6003L15.4742 15.6599Z" fill="#FFE15A"/>
<path d="M15.3552 14.4027C15.3329 14.1349 15.4519 13.458 15.9949 12.967L16.0082 12.3658C16.0082 12.3658 15.8464 12.3826 15.703 12.5082L15.3961 12.9837L15.1116 14.0605L15.3552 14.4027Z" fill="#73AF00"/>
<path d="M15.3701 14.5961C15.3701 14.5961 15.3701 15.1689 15.6081 15.6004L15.4742 15.6599C15.4742 15.6599 14.9944 15.2823 14.8939 14.5068C14.8939 14.5068 14.4643 14.7914 14.3063 14.2093C14.3063 14.2093 14.7675 14.3953 14.9163 13.9712C15.0505 13.5886 15.1862 12.8922 15.703 12.5082C15.4573 12.8858 15.0874 13.8522 15.3738 14.1944C15.4496 14.285 15.6676 14.3618 15.9062 14.2599C15.8907 14.4503 15.7999 14.7411 15.3701 14.5961Z" fill="#FFE15A"/>
<path d="M15.4396 15.7614L15.3612 15.6174C15.3475 15.5923 15.3568 15.5607 15.382 15.547L15.525 15.4693C15.5502 15.4556 15.5817 15.4649 15.5954 15.4901L15.6738 15.6341C15.6875 15.6593 15.6782 15.6908 15.653 15.7045L15.51 15.7823C15.4848 15.7959 15.4533 15.7867 15.4396 15.7614Z" fill="#FFCE5A"/>
<path d="M20.2798 15.6599C20.2798 15.6599 20.1533 16.2289 20.1459 16.8166C20.1459 16.8166 19.5916 16.8352 19.3239 16.4186C19.3239 16.4186 19.8594 16.1397 20.1459 15.6003L20.2798 15.6599Z" fill="#FFE15A"/>
<path d="M20.3987 14.4027C20.4211 14.1349 20.302 13.458 19.759 12.967L19.7457 12.3658C19.7457 12.3658 19.9075 12.3826 20.0509 12.5082L20.3578 12.9837L20.6424 14.0605L20.3987 14.4027Z" fill="#FFE15A"/>
<path d="M19.8478 14.2599C20.0864 14.3618 20.3044 14.285 20.3802 14.1944C20.6666 13.8522 20.2967 12.8858 20.051 12.5082C20.5679 12.8922 20.7035 13.5886 20.8377 13.9712C20.9865 14.3953 21.4477 14.2093 21.4477 14.2093C21.2897 14.7914 20.86 14.5068 20.86 14.5068C20.7596 15.2823 20.2798 15.6599 20.2798 15.6599L20.1459 15.6004C20.3839 15.1689 20.3839 14.5961 20.3839 14.5961C19.9541 14.7411 19.8633 14.4502 19.8478 14.2599Z" fill="#73AF00"/>
<path d="M20.3144 15.7614L20.3928 15.6174C20.4065 15.5923 20.3972 15.5607 20.372 15.547L20.229 15.4693C20.2038 15.4556 20.1723 15.4649 20.1585 15.4901L20.0802 15.6341C20.0665 15.6593 20.0758 15.6908 20.101 15.7045L20.244 15.7823C20.2692 15.7959 20.3007 15.7867 20.3144 15.7614Z" fill="#FFCE5A"/>
<path d="M16.0916 11.6726C15.9931 11.6726 15.9131 11.7525 15.9131 11.8512V13.815C15.9131 14.3506 16.0916 16.3145 17.877 17.0286C19.6623 16.3145 19.8408 14.3506 19.8408 13.815V11.8512C19.8408 11.7526 19.7609 11.6726 19.6623 11.6726H16.0916Z" fill="#4173CD"/>
<path d="M17.7687 11.6726L16.0756 14.9178C16.1179 15.0679 16.1708 15.2232 16.2371 15.3802L17.877 12.2371L19.5168 15.3802C19.5832 15.2232 19.636 15.0679 19.6784 14.9178L17.9852 11.6726H17.7687Z" fill="#FFE15A"/>
<path d="M19.5168 15.3802L17.8769 12.2371L16.2371 15.3802C16.5072 16.0196 16.9959 16.6763 17.8769 17.0287C18.758 16.6762 19.2468 16.0195 19.5168 15.3802Z" fill="#73AF00"/>
<path d="M18.5408 15.5836L18.6488 15.6354C18.6036 15.7023 18.5093 15.8106 18.329 15.9087C18.1928 15.9828 18.0612 16.0705 17.9661 16.1377V14.6643L18.4125 14.6184V14.4399L17.9661 14.394V14.1721C17.9661 14.1227 17.9262 14.0828 17.8768 14.0828C17.8348 14.0828 17.8012 14.1124 17.7917 14.1516C17.7621 14.1303 17.7276 14.1152 17.6885 14.1152C17.5886 14.1152 17.5073 14.1965 17.5073 14.2964C17.5073 14.3434 17.5264 14.3855 17.5559 14.4178L17.3413 14.4399V14.6184L17.7876 14.6643V16.1377C17.6926 16.0705 17.561 15.9828 17.4248 15.9087C17.2445 15.8107 17.1502 15.7023 17.105 15.6354L17.213 15.5836L16.8057 15.0647V15.7789L16.943 15.713C16.9973 15.8005 17.1121 15.9418 17.3395 16.0655C17.5298 16.169 17.7144 16.3036 17.7876 16.3586L17.8769 16.4278L17.9662 16.3586C18.0394 16.3036 18.2241 16.169 18.4143 16.0655C18.6417 15.9418 18.7565 15.8005 18.8108 15.713L18.9481 15.7789V15.0647L18.5408 15.5836ZM17.6885 14.3885C17.6378 14.3885 17.5965 14.3473 17.5965 14.2965C17.5965 14.2458 17.6377 14.2045 17.6885 14.2045C17.7392 14.2045 17.7805 14.2457 17.7805 14.2965C17.7805 14.3473 17.7393 14.3885 17.6885 14.3885Z" fill="#FFE15A"/>
<path d="M18.0149 13.9935H17.739C17.6673 13.9935 17.6091 13.9354 17.6091 13.8637V13.4092C17.6091 13.3375 17.6673 13.2794 17.739 13.2794H18.0149C18.0866 13.2794 18.1448 13.3375 18.1448 13.4092V13.8637C18.1448 13.9354 18.0866 13.9935 18.0149 13.9935Z" fill="#F5F5F5"/>
<path d="M19.1267 11.6726C18.7696 11.137 18.7696 10.0658 18.7696 10.0658C18.7696 10.0658 18.7696 9.35162 17.877 9.35162C17.4248 9.35162 17.2021 9.5349 17.092 9.7157C16.6636 9.88783 16.4487 10.2443 16.4487 10.2443C16.6314 10.3356 16.7927 10.3791 16.9392 10.3903C17.2302 10.7366 17.3271 11.0711 17.3528 11.3117C17.1852 11.4828 17.0922 11.8957 17.3414 12.2081C17.3414 12.2081 17.8696 12.0854 18.3154 11.6725H19.1266L19.1267 11.6726Z" fill="#B49B91"/>
<path d="M18.3154 11.6726H18.9818C18.9482 11.3435 18.6246 11.3965 18.3154 11.6726Z" fill="#9B8278"/>
<path d="M18.965 11.3356C18.7699 10.7816 18.7696 10.0658 18.7696 10.0658C18.7696 10.0658 18.7696 10.0542 18.7677 10.0342C18.5353 10.0026 18.2973 10.0197 17.8323 10.1997C17.3371 10.3914 17.0948 10.3968 16.9391 10.3904C17.2301 10.7367 17.327 11.0712 17.3527 11.3118L17.3599 11.6913C17.3599 11.6913 17.6388 11.7322 18.2525 11.3788C18.5587 11.2025 18.8182 11.1874 18.965 11.3356Z" fill="#9B8278"/>
<path d="M18.0146 9.98773C18.3767 9.89721 18.6077 9.90654 18.7566 9.95937C18.7167 9.76048 18.5528 9.35168 17.877 9.35168C17.4248 9.35168 17.2021 9.53497 17.092 9.71576L16.8207 10.0956C16.8207 10.0956 17.1601 10.2013 18.0146 9.98773Z" fill="#9B8278"/>
<path d="M17.287 9.27357C17.3221 9.30863 17.4271 9.56157 17.4054 9.59916C17.3915 9.6233 17.1121 9.69277 17.0669 9.65733C17.0265 9.62574 16.9792 9.3533 17.0063 9.32185C17.0308 9.29344 17.2576 9.24432 17.287 9.27357Z" fill="#FFE15A"/>
<path d="M17.6462 9.2601C17.6786 9.29727 17.7521 9.54454 17.723 9.57609C17.7043 9.59638 17.3929 9.62095 17.3496 9.58204C17.3111 9.54735 17.3026 9.29015 17.3366 9.26512C17.3673 9.24238 17.6191 9.22907 17.6462 9.2601Z" fill="#73AF00"/>
<path d="M17.9861 9.25069C18.0197 9.28571 18.0964 9.51821 18.0663 9.54774C18.047 9.56672 17.7249 9.58908 17.68 9.55238C17.6401 9.51966 17.6306 9.27807 17.6658 9.25458C17.6977 9.23335 17.9581 9.22149 17.9861 9.25069Z" fill="#FFE15A"/>
<path d="M18.3317 9.26689C18.3615 9.30509 18.4176 9.54903 18.3863 9.57734C18.3663 9.59548 18.054 9.59633 18.0136 9.55554C17.9776 9.51917 17.987 9.27054 18.0227 9.24889C18.0549 9.22929 18.3069 9.23497 18.3317 9.26689Z" fill="#73AF00"/>
<path d="M19.0448 9.41476C19.0679 9.45737 19.0657 9.68396 19.0302 9.70669C19.0073 9.72127 18.7262 9.67116 18.6931 9.62429C18.6636 9.58248 18.7139 9.33882 18.7527 9.3233C18.7876 9.30929 19.0256 9.37913 19.0448 9.41476Z" fill="#73AF00"/>
<path d="M18.7171 9.3181C18.7452 9.35691 18.7667 9.58439 18.7327 9.60844C18.7109 9.62391 18.3891 9.59747 18.3501 9.55542C18.3153 9.51788 18.3407 9.28341 18.3789 9.26597C18.4134 9.25013 18.6935 9.28575 18.7171 9.3181Z" fill="#FFE15A"/>
<path d="M17.2668 8.82985C17.3338 8.82985 17.3882 8.77549 17.3882 8.70844C17.3882 8.64139 17.3338 8.58704 17.2668 8.58704C17.1997 8.58704 17.1454 8.64139 17.1454 8.70844C17.1454 8.77549 17.1997 8.82985 17.2668 8.82985Z" fill="#9B8278"/>
</svg>
