<svg width="24" height="24" viewBox="0 0 24 24" fill="none" xmlns="http://www.w3.org/2000/svg">
<path d="M23.5861 19.8619H0.413812C0.185297 19.8619 0 19.6766 0 19.4481V4.55163C0 4.32311 0.185297 4.13782 0.413812 4.13782H23.5862C23.8147 4.13782 24 4.32311 24 4.55163V19.4481C24 19.6767 23.8147 19.8619 23.5861 19.8619Z" fill="#73AF00"/>
<path d="M7.44842 4.138H3.3103V19.8622H7.44842V4.138Z" fill="#FF4B55"/>
<path d="M7.03447 5.93087L6.2069 6.62054H4.5517L3.72412 5.93087V5.2412L4.5517 4.55157H6.2069L7.03447 5.2412V5.93087Z" fill="#F5F5F5"/>
<path d="M7.03447 11.724L6.2069 12.4137H4.5517L3.72412 11.724V11.0343L4.5517 10.3447H6.2069L7.03447 11.0343V11.724Z" fill="#73AF00"/>
<path d="M7.03447 8.82741L6.2069 9.51708H4.5517L3.72412 8.82741V8.13779L4.5517 7.44812H6.2069L7.03447 8.13779V8.82741Z" fill="#73AF00"/>
<path d="M7.03447 14.6205L6.2069 15.3102H4.5517L3.72412 14.6205V13.9309L4.5517 13.2412H6.2069L7.03447 13.9309V14.6205Z" fill="#73AF00"/>
<path d="M3.3103 6.20679L4.13788 7.03436L3.3103 7.86194V6.20679Z" fill="#FFB400"/>
<path d="M7.44818 7.86194L6.62061 7.03436L7.44818 6.20679V7.86194Z" fill="#FFB400"/>
<path d="M3.3103 9.10333L4.13788 9.93091L3.3103 10.7585V9.10333Z" fill="#FFB400"/>
<path d="M7.44818 10.7585L6.62061 9.93091L7.44818 9.10333V10.7585Z" fill="#FFB400"/>
<path d="M3.3103 11.9999L4.13788 12.8275L3.3103 13.655V11.9999Z" fill="#FFB400"/>
<path d="M7.44818 13.655L6.62061 12.8275L7.44818 11.9999V13.655Z" fill="#FFB400"/>
<path d="M3.3103 14.8964L4.13788 15.724L3.3103 16.5516V14.8964Z" fill="#FFB400"/>
<path d="M7.44818 16.5516L6.62061 15.724L7.44818 14.8964V16.5516Z" fill="#FFB400"/>
<path d="M3.3103 4.13782H4.13788L3.3103 4.96539V4.13782Z" fill="#FFB400"/>
<path d="M7.44818 4.96539L6.62061 4.13782H7.44818V4.96539Z" fill="#FFB400"/>
<path d="M5.58593 7.4483H5.17212V9.51736H5.58593V7.4483Z" fill="#FFB400"/>
<path d="M6.20667 8.27563H4.55151V8.68945H6.20667V8.27563Z" fill="#FF4B55"/>
<path d="M6.62067 7.79293L6.20691 7.44812V9.51708L6.62067 9.17223V7.79293Z" fill="#FFB400"/>
<path d="M4.13794 9.17224L4.5517 9.5171V7.44818L4.13794 7.79295V9.17224Z" fill="#FFB400"/>
<path d="M5.37927 4.55157H4.55174L3.72412 5.2412V5.58606H5.37927V4.55157Z" fill="#FFB400"/>
<path d="M5.37927 6.62054H6.2069L7.03447 5.93087V5.58606H5.37927V6.62054Z" fill="#FFB400"/>
<path d="M5.37921 6.20678L4.55164 5.58855L5.37921 4.96539L6.20684 5.58855L5.37921 6.20678Z" fill="#FF4B55"/>
<path d="M5.37927 6.20679L6.2069 5.58856L6.20366 5.58612H5.37927V6.20679Z" fill="#73AF00"/>
<path d="M5.37923 5.58611V4.96539L4.55493 5.58611H5.37923Z" fill="#73AF00"/>
<path d="M6.20667 10.7586H4.55151V12H6.20667V10.7586Z" fill="#FF4B55"/>
<path d="M6.62048 11.172H6.20667V11.5858H6.62048V11.172Z" fill="#FFB400"/>
<path d="M5.58593 11.172H5.17212V11.5858H5.58593V11.172Z" fill="#F5F5F5"/>
<path d="M5.58593 13.655H5.17212V14.0688H5.58593V13.655Z" fill="#FF4B55"/>
<path d="M6.20702 14.069H5.79321V14.4828H6.20702V14.069Z" fill="#FFB400"/>
<path d="M4.96533 14.069H4.55151V14.4828H4.96533V14.069Z" fill="#FFB400"/>
<path d="M5.58593 14.4824H5.17212V14.8962H5.58593V14.4824Z" fill="#FF4B55"/>
<path d="M4.55187 11.172H4.13806V11.5858H4.55187V11.172Z" fill="#FFB400"/>
<path d="M7.03447 17.517L6.2069 18.2067H4.5517L3.72412 17.517V16.8275L4.5517 16.1378H6.2069L7.03447 16.8275V17.517Z" fill="#F5F5F5"/>
<path d="M5.37927 16.1378H4.55174L3.72412 16.8274V17.1722H5.37927V16.1378Z" fill="#FFB400"/>
<path d="M5.37927 18.2067H6.2069L7.03447 17.5171V17.1722H5.37927V18.2067Z" fill="#FFB400"/>
<path d="M6.20684 17.3791L5.37921 17.7929L4.55164 17.3791V16.9653L5.37921 16.5515L6.20684 16.9653V17.3791Z" fill="#FF4B55"/>
<path d="M13.1253 6.39093C13.0813 6.36927 13.0414 6.4266 13.0772 6.46031C13.5454 6.9022 13.8414 7.52277 13.8414 8.21497C13.8414 9.57468 12.7484 10.6655 11.4045 10.6655C11.1565 10.6655 10.9175 10.6269 10.6922 10.5564C10.6455 10.5418 10.6152 10.6045 10.6555 10.6324C11.0484 10.9055 11.5219 11.0688 12.0389 11.0688C13.4006 11.0688 14.5133 9.9778 14.5133 8.59836C14.5133 7.6289 13.9443 6.79354 13.1253 6.39093Z" fill="#F5F5F5"/>
<path d="M9.75805 7.98746L9.65684 8.27382L9.89497 8.46231C9.92581 8.48673 9.90786 8.53632 9.86853 8.53529L9.56492 8.52746L9.45926 8.81218C9.44558 8.84907 9.39284 8.84729 9.38169 8.8096L9.2953 8.51846L8.99183 8.50595C8.9525 8.50435 8.93792 8.45364 8.97031 8.43137L9.22053 8.25925L9.13864 7.96675C9.12805 7.92887 9.17173 7.89929 9.20295 7.92325L9.44398 8.10803L9.69687 7.93975C9.7295 7.91795 9.77112 7.95039 9.75805 7.98746Z" fill="#F5F5F5"/>
<path d="M10.9878 8.60856L10.8866 8.89492L11.1247 9.0834C11.1555 9.10782 11.1376 9.15742 11.0983 9.15639L10.7947 9.14856L10.689 9.43328C10.6753 9.47017 10.6226 9.46839 10.6114 9.4307L10.525 9.13956L10.2216 9.12704C10.1822 9.12545 10.1677 9.07473 10.2 9.05246L10.4503 8.88034L10.3684 8.58784C10.3578 8.54996 10.4015 8.52039 10.4327 8.54434L10.6737 8.72912L10.9266 8.56084C10.9593 8.53909 11.0009 8.57153 10.9878 8.60856Z" fill="#F5F5F5"/>
<path d="M10.9753 7.32914L10.8741 7.6155L11.1123 7.80398C11.1431 7.8284 11.1251 7.878 11.0858 7.87697L10.7822 7.86914L10.6765 8.15386C10.6629 8.19075 10.6101 8.18897 10.599 8.15128L10.5126 7.86014L10.2091 7.84762C10.1698 7.84603 10.1552 7.79531 10.1876 7.77305L10.4378 7.60092L10.3559 7.30842C10.3453 7.27055 10.389 7.24097 10.4202 7.26492L10.6613 7.4497L10.9142 7.28142C10.9468 7.25967 10.9885 7.29211 10.9753 7.32914Z" fill="#F5F5F5"/>
<path d="M11.0172 6.09422L10.916 6.38057L11.1541 6.56906C11.185 6.59348 11.167 6.64307 11.1277 6.64204L10.8241 6.63421L10.7184 6.91893C10.7047 6.95582 10.652 6.95404 10.6408 6.91635L10.5545 6.62521L10.251 6.6127C10.2117 6.61111 10.1971 6.56039 10.2295 6.53812L10.4797 6.366L10.3978 6.0735C10.3872 6.03562 10.4309 6.00604 10.4621 6.03L10.7031 6.21478L10.956 6.0465C10.9887 6.0247 11.0303 6.05714 11.0172 6.09422Z" fill="#F5F5F5"/>
<path d="M12.2222 6.71531L12.121 7.00167L12.3591 7.19015C12.3899 7.21457 12.372 7.26417 12.3326 7.26314L12.029 7.25531L11.9234 7.54003C11.9097 7.57692 11.857 7.57514 11.8458 7.53745L11.7594 7.24631L11.4559 7.23379C11.4166 7.2322 11.402 7.18148 11.4344 7.15921L11.6846 6.98709L11.6028 6.69459C11.5922 6.65672 11.6358 6.62714 11.6671 6.65109L11.9081 6.83587L12.161 6.66759C12.1936 6.64579 12.2352 6.67823 12.2222 6.71531Z" fill="#F5F5F5"/>
</svg>
