<svg width="24" height="24" viewBox="0 0 24 24" fill="none" xmlns="http://www.w3.org/2000/svg">
<path d="M0 14.6207H24V19.4482C24 19.6767 23.8147 19.862 23.5861 19.862H0.413812C0.185297 19.862 0 19.6767 0 19.4482V14.6207Z" fill="#41479B"/>
<path d="M0.413812 4.13794H23.5862C23.8147 4.13794 24 4.32324 24 4.55175V9.3793H0V4.55175C0 4.32324 0.185297 4.13794 0.413812 4.13794Z" fill="#FF4B55"/>
<path d="M24 9.37921H0V14.6203H24V9.37921Z" fill="#F5F5F5"/>
<path d="M10.2621 9.517H9.10352V10.8412H10.2621V9.517Z" fill="#FF4B55"/>
<path d="M12.5791 9.517H11.4205V10.8412H12.5791V9.517Z" fill="#FF4B55"/>
<path d="M11.4204 10.8412H10.2618V12.1654H11.4204V10.8412Z" fill="#FF4B55"/>
<path d="M14.8962 9.517H13.7375V10.8412H14.8962V9.517Z" fill="#FF4B55"/>
<path d="M13.738 10.8412H12.5793V12.1654H13.738V10.8412Z" fill="#FF4B55"/>
<path d="M11.4204 9.517H10.2618V10.8412H11.4204V9.517Z" fill="#F5F5F5"/>
<path d="M13.738 9.517H12.5793V10.8412H13.738V9.517Z" fill="#F5F5F5"/>
<path d="M10.2621 10.8412H9.10352V12.1654H10.2621V10.8412Z" fill="#F5F5F5"/>
<path d="M12.5791 10.8412H11.4205V12.1654H12.5791V10.8412Z" fill="#F5F5F5"/>
<path d="M14.8962 10.8412H13.7375V12.1654H14.8962V10.8412Z" fill="#F5F5F5"/>
<path d="M12.5791 12.1654H11.4205V13.4897H12.5791V12.1654Z" fill="#FF4B55"/>
<path d="M11.4204 13.4897H10.2618V14.8139H11.4204V13.4897Z" fill="#FF4B55"/>
<path d="M13.738 13.4897H12.5793V14.8139H13.738V13.4897Z" fill="#FF4B55"/>
<path d="M11.4204 12.1654H10.2618V13.4897H11.4204V12.1654Z" fill="#F5F5F5"/>
<path d="M13.738 12.1654H12.5793V13.4897H13.738V12.1654Z" fill="#F5F5F5"/>
<path d="M12.5791 13.4897H11.4205V14.8139H12.5791V13.4897Z" fill="#F5F5F5"/>
<path d="M14.8965 9.51724V13.2414C14.8965 14.8411 13.5996 16.1379 11.9999 16.1379C10.4002 16.1379 9.10339 14.8411 9.10339 13.2414V9.51724H14.8965ZM15.1034 9.31033H14.8965H9.10339H8.89648V9.51724V13.2414C8.89648 14.9526 10.2887 16.3448 11.9999 16.3448C13.7112 16.3448 15.1034 14.9526 15.1034 13.2414V9.51724V9.31033Z" fill="#FF4B55"/>
<path d="M10.262 13.4896V12.1655H9.10339V13.2414C9.10339 13.3252 9.10892 13.4076 9.11591 13.4897H10.262V13.4896Z" fill="#FF4B55"/>
<path d="M14.884 13.4896H13.7379V14.8137H14.4304C14.6818 14.4261 14.8427 13.9753 14.884 13.4896Z" fill="#F5F5F5"/>
<path d="M9.56953 14.8138H10.2621V13.4897H9.11597C9.15726 13.9754 9.31823 14.4262 9.56953 14.8138Z" fill="#F5F5F5"/>
<path d="M13.7378 13.4896H14.8839C14.8909 13.4076 14.8964 13.3252 14.8964 13.2413V12.1654H13.7378V13.4896Z" fill="#FF4B55"/>
<path d="M10.262 15.5546V14.8137H9.56946C9.75504 15.1 9.99007 15.35 10.262 15.5546Z" fill="#FF4B55"/>
<path d="M14.4303 14.8137H13.7378V15.5546C14.0098 15.35 14.2448 15.1 14.4303 14.8137Z" fill="#FF4B55"/>
<path d="M10.2621 15.5547C10.5993 15.8085 10.9918 15.9927 11.4207 16.0797V14.8138H10.2621V15.5547Z" fill="#F5F5F5"/>
<path d="M12.5793 16.0797C13.0083 15.9927 13.4007 15.8084 13.738 15.5547V14.8138H12.5793V16.0797Z" fill="#F5F5F5"/>
<path d="M12.5793 14.8138H11.4207V16.0797C11.6078 16.1178 11.8016 16.1379 12 16.1379C12.1984 16.1379 12.3921 16.1178 12.5793 16.0797V14.8138H12.5793Z" fill="#FF4B55"/>
<path d="M9.90327 7.32619C9.65118 7.28719 9.39327 7.25906 9.13035 7.2428C8.92701 7.41019 8.73318 7.5847 8.54919 7.76545C8.73398 8.21147 8.91871 8.65748 9.1034 9.1035C9.47432 8.94989 9.85438 8.82694 10.24 8.73478C10.1278 8.26523 10.0155 7.79569 9.90327 7.32619Z" fill="#4173CD"/>
<path d="M12.7033 7.10648C12.4768 6.99187 12.2422 6.88588 12.0001 6.78937C11.758 6.88593 11.5234 6.99191 11.2969 7.10648C11.3345 7.58769 11.3722 8.06901 11.4098 8.55036C11.8027 8.51957 12.1975 8.51957 12.5904 8.55036C12.628 8.06905 12.6657 7.58779 12.7033 7.10648Z" fill="#4173CD"/>
<path d="M15.4508 7.76545C15.2668 7.58475 15.0729 7.41024 14.8696 7.2428C14.6067 7.25902 14.3488 7.28719 14.0967 7.32619C13.9845 7.79573 13.8722 8.26523 13.76 8.73473C14.1456 8.82694 14.5257 8.94984 14.8966 9.10345C15.0813 8.65744 15.2661 8.21142 15.4508 7.76545Z" fill="#4173CD"/>
<path d="M11.2967 7.10646C11.0551 7.02851 10.8066 6.9603 10.5517 6.90274C10.3268 7.03591 10.1106 7.17733 9.90332 7.32616C10.0155 7.79571 10.1278 8.26521 10.2401 8.73471C10.6257 8.6425 11.0168 8.5811 11.4097 8.55035C11.3721 8.06904 11.3344 7.58777 11.2967 7.10646Z" fill="#41479B"/>
<path d="M14.0967 7.32616C13.8895 7.17733 13.6732 7.03587 13.4483 6.90274C13.1934 6.9603 12.9448 7.0286 12.7033 7.10646C12.6657 7.58768 12.628 8.06899 12.5903 8.55035C12.9833 8.58105 13.3744 8.6425 13.76 8.73471C13.8722 8.26521 13.9845 7.79566 14.0967 7.32616Z" fill="#41479B"/>
<path d="M11.3419 7.68401C10.9038 7.71823 10.4678 7.78672 10.0379 7.88956C10.0155 7.79567 9.99303 7.70173 9.97058 7.60784C10.4152 7.50162 10.8661 7.43075 11.3192 7.39526C11.3268 7.49154 11.3344 7.58778 11.3419 7.68401Z" fill="#FF4B55"/>
<path d="M11.3871 8.26157C10.9791 8.29349 10.5731 8.35729 10.1727 8.45301C10.1502 8.35912 10.1278 8.26518 10.1053 8.17134C10.5204 8.07206 10.9415 8.00592 11.3645 7.97287C11.372 8.06901 11.3795 8.16534 11.3871 8.26157Z" fill="#FF4B55"/>
<path d="M13.3747 8.35877C13.2737 8.34081 13.1724 8.32483 13.0708 8.31086C12.9039 8.2878 12.7795 8.14605 12.794 7.98672C12.8084 7.82744 12.968 7.71189 13.1498 7.73702C13.2588 7.75202 13.3675 7.76913 13.476 7.78844C13.6569 7.82041 13.774 7.97978 13.7387 8.1356C13.7035 8.29174 13.541 8.38806 13.3747 8.35877Z" fill="#FFE15A"/>
<path d="M15.0073 8.83584C14.6223 8.67633 14.2275 8.54873 13.8273 8.45297C13.8498 8.35908 13.8722 8.26514 13.8946 8.1713C14.3097 8.27048 14.7189 8.40286 15.1182 8.56823C15.0813 8.65743 15.0443 8.74664 15.0073 8.83584Z" fill="#FF4B55"/>
<path d="M14.9041 7.96688C14.8632 8.0797 14.7252 8.13337 14.5947 8.09095C14.4644 8.04848 14.3846 7.92455 14.4176 7.80914C14.4506 7.69373 14.5904 7.63266 14.7287 7.67761C14.8671 7.72247 14.945 7.85405 14.9041 7.96688Z" fill="#FFE15A"/>
<path d="M9.58245 7.80918C9.61541 7.92468 9.53558 8.04866 9.40531 8.09099C9.27495 8.13318 9.13695 8.07951 9.09598 7.96691C9.05502 7.85404 9.13302 7.72251 9.27139 7.67769C9.40962 7.63284 9.54955 7.69382 9.58245 7.80918Z" fill="#FFE15A"/>
<path d="M11.934 7.61946C11.9343 7.71542 11.848 7.79356 11.7411 7.79684C11.6343 7.80026 11.5432 7.72742 11.5376 7.63184C11.532 7.53621 11.6182 7.45343 11.7303 7.44982C11.8424 7.44631 11.9335 7.52351 11.934 7.61946Z" fill="#FFE15A"/>
<path d="M12.4624 7.63185C12.4567 7.72766 12.3656 7.80027 12.2589 7.79685C12.1521 7.79357 12.0658 7.71542 12.066 7.61947C12.0665 7.52361 12.1576 7.44618 12.2697 7.44983C12.3818 7.45321 12.4679 7.53618 12.4624 7.63185Z" fill="#FFE15A"/>
<path d="M12.1878 8.06624C12.1851 8.16219 12.1011 8.23766 11.9999 8.23766C11.8989 8.23761 11.8148 8.16224 11.8121 8.06624C11.8094 7.97057 11.8935 7.89022 11.9999 7.8905C12.1064 7.89027 12.1904 7.97052 12.1878 8.06624Z" fill="#FFE15A"/>
</svg>
