<svg width="24" height="24" viewBox="0 0 24 24" fill="none" xmlns="http://www.w3.org/2000/svg">
<path d="M23.5861 19.8621H0.413812C0.185297 19.8621 0 19.6768 0 19.4483V4.55175C0 4.32324 0.185297 4.13794 0.413812 4.13794H23.5862C23.8147 4.13794 24 4.32324 24 4.55175V19.4483C24 19.6768 23.8147 19.8621 23.5861 19.8621Z" fill="#F5F5F5"/>
<path d="M9.93101 10.3449H0.413812C0.185297 10.3449 0 10.1596 0 9.93107V4.55175C0 4.32324 0.185297 4.13794 0.413812 4.13794H9.93101C10.1595 4.13794 10.3448 4.32324 10.3448 4.55175V9.93107C10.3448 10.1596 10.1595 10.3449 9.93101 10.3449Z" fill="#41479B"/>
<path d="M23.5862 19.8621H14.069C13.8404 19.8621 13.6552 19.6768 13.6552 19.4483V14.069C13.6552 13.8405 13.8404 13.6552 14.069 13.6552H23.5862C23.8147 13.6552 24 13.8405 24 14.069V19.4483C24 19.6768 23.8147 19.8621 23.5862 19.8621Z" fill="#41479B"/>
<path d="M23.5862 10.3449H14.069C13.8404 10.3449 13.6552 10.1596 13.6552 9.93107V4.55175C13.6552 4.32324 13.8404 4.13794 14.069 4.13794H23.5862C23.8147 4.13794 24 4.32324 24 4.55175V9.93107C24 10.1596 23.8147 10.3449 23.5862 10.3449Z" fill="#FF4B55"/>
<path d="M9.93101 19.8621H0.413812C0.185297 19.8621 0 19.6768 0 19.4483V14.069C0 13.8405 0.185297 13.6552 0.413812 13.6552H9.93101C10.1595 13.6552 10.3448 13.8405 10.3448 14.069V19.4483C10.3448 19.6768 10.1595 19.8621 9.93101 19.8621Z" fill="#FF4B55"/>
<path d="M11.7625 13.1799C11.7625 13.1799 12.0097 13.2704 11.9774 13.5808L12.0774 13.5789C12.0774 13.5789 12.0143 13.2203 11.9622 13.1773C11.9101 13.1343 11.7625 13.1799 11.7625 13.1799Z" fill="#64B496"/>
<path d="M12.0102 13.132C11.9053 13.132 11.7221 13.1319 11.5293 13.0798C11.5723 13.0351 11.6317 12.945 11.6317 12.7879C11.6317 12.5419 11.4622 12.6989 11.4622 12.6989C11.4622 12.6989 11.3507 12.7927 11.4181 13.0434C11.3524 13.0183 11.2872 12.986 11.2251 12.9445C11.2637 12.896 11.3409 12.7828 11.3857 12.6034C11.3857 12.6034 11.1032 12.5476 11.026 12.7603C10.9786 12.7002 10.9381 12.6327 10.9043 12.5579C10.9769 12.5588 11.0782 12.5109 11.0782 12.2344C11.0782 12.2344 10.8938 12.2348 10.8445 12.3947C10.8251 12.3279 10.8103 12.2562 10.7995 12.1804C10.8731 12.2018 11.0635 12.2171 11.0635 11.8039C11.0635 11.8039 10.8349 11.8044 10.782 12.0069C10.7791 11.9551 10.778 11.9015 10.7785 11.8463C10.8895 11.7883 11.0427 11.6605 11.0268 11.3982C11.0268 11.3982 10.9213 11.4221 10.8247 11.5031C10.8437 11.4037 10.8358 11.2582 10.6834 11.1367C10.6834 11.1367 10.5433 11.3847 10.7479 11.586C10.7301 11.611 10.7146 11.6395 10.7018 11.6712C10.6558 11.6012 10.5821 11.536 10.4633 11.4965C10.4633 11.4965 10.4086 11.8286 10.7187 11.9675C10.7261 12.1615 10.7564 12.3329 10.8085 12.4819C10.7197 12.4037 10.6478 12.2959 10.6478 12.2959C10.6478 11.9269 10.3454 11.9176 10.3454 11.9176C10.2889 12.3388 10.6003 12.3558 10.6003 12.3558L10.7708 12.5419C10.4018 12.4804 10.4018 12.7879 10.4018 12.7879C10.6478 12.8494 10.7708 12.7264 10.7708 12.7264L10.9039 12.7948C10.6679 12.8017 10.5863 13.0339 10.5863 13.0339C10.8829 13.0833 11.0998 13.0136 11.1735 12.9843C11.4722 13.1932 11.8403 13.1934 12.0103 13.1934V13.132H12.0102Z" fill="#64B496"/>
<path d="M11.9893 13.132C12.0941 13.132 12.2774 13.1319 12.4701 13.0798C12.4272 13.0351 12.3678 12.945 12.3678 12.7879C12.3678 12.5419 12.5373 12.6989 12.5373 12.6989C12.5373 12.6989 12.6487 12.7927 12.5813 13.0434C12.6471 13.0183 12.7123 12.986 12.7744 12.9445C12.7357 12.896 12.6586 12.7828 12.6138 12.6034C12.6138 12.6034 12.8962 12.5476 12.9735 12.7603C13.0208 12.7002 13.0613 12.6327 13.0951 12.5579C13.0225 12.5588 12.9212 12.5109 12.9212 12.2344C12.9212 12.2344 13.1057 12.2348 13.155 12.3947C13.1744 12.3279 13.1892 12.2562 13.2001 12.1804C13.1264 12.2018 12.936 12.2171 12.936 11.8039C12.936 11.8039 13.1646 11.8044 13.2176 12.0069C13.2205 11.9551 13.2216 11.9015 13.2211 11.8463C13.1101 11.7883 12.9569 11.6605 12.9728 11.3982C12.9728 11.3982 13.0782 11.4221 13.1749 11.5031C13.1558 11.4037 13.1637 11.2582 13.3162 11.1367C13.3162 11.1367 13.4563 11.3847 13.2516 11.586C13.2695 11.611 13.285 11.6395 13.2978 11.6712C13.3438 11.6012 13.4175 11.536 13.5363 11.4965C13.5363 11.4965 13.5909 11.8286 13.2808 11.9675C13.2735 12.1615 13.2432 12.3329 13.191 12.4819C13.2799 12.4037 13.3517 12.2959 13.3517 12.2959C13.3517 11.9269 13.6542 11.9176 13.6542 11.9176C13.7107 12.3388 13.3993 12.3558 13.3993 12.3558L13.2287 12.5419C13.5977 12.4804 13.5977 12.7879 13.5977 12.7879C13.3517 12.8494 13.2287 12.7264 13.2287 12.7264L13.0957 12.7948C13.3317 12.8017 13.4132 13.0339 13.4132 13.0339C13.1166 13.0833 12.8998 13.0136 12.8261 12.9843C12.5274 13.1932 12.1592 13.1934 11.9893 13.1934V13.132Z" fill="#64B496"/>
<path d="M10.9623 10.451C10.746 10.5897 10.5553 10.7661 10.4017 10.9745C10.4677 11.0232 10.5337 11.0719 10.5997 11.1205C10.7353 10.9366 10.9035 10.7809 11.0943 10.6585L10.9623 10.451Z" fill="#41479B"/>
<path d="M12.0007 12.05H12.8616V12.542C12.8616 12.6779 12.7515 12.788 12.6156 12.788H12.2466C12.1455 12.788 12.0567 12.8374 12.0006 12.9127L12.0007 12.05Z" fill="#FF6B71"/>
<path d="M12.1852 11.4965V10.82H13.1077L12.8617 11.066V11.7425H12.1852V11.4965Z" fill="#5F64B9"/>
<path d="M12.8616 11.7422H12.5541V12.0497H12.8616V11.7422Z" fill="#F5F5F5"/>
<path d="M12.0006 12.05H11.1396V12.542C11.1396 12.6779 11.2498 12.788 11.3856 12.788H11.7546C11.8557 12.788 11.9446 12.8374 12.0006 12.9127L12.0006 12.05Z" fill="#FF6B71"/>
<path d="M11.8469 12.8028C11.9083 12.8224 11.9613 12.8606 11.9993 12.911H12.0021C12.0402 12.8606 12.0931 12.8225 12.1545 12.8028V12.296H11.847L11.8469 12.8028Z" fill="#F5F5F5"/>
<path d="M11.8162 11.4965V10.82H10.8937L11.1397 11.066V11.7425H11.8162V11.4965Z" fill="#5F64B9"/>
<path d="M11.4473 11.7422H11.1398V12.0497H11.4473V11.7422Z" fill="#F5F5F5"/>
<path d="M11.4471 11.1275V11.312L11.6316 11.435V11.312L11.4471 11.1275Z" fill="#41479B"/>
<path d="M11.6317 11.312V11.4965L11.8777 11.6195V11.558L11.6317 11.312Z" fill="#F5F5F5"/>
<path d="M12.5541 11.1275V11.312L12.3696 11.435V11.312L12.5541 11.1275Z" fill="#41479B"/>
<path d="M12.3697 11.312V11.4965L12.1237 11.6195V11.558L12.3697 11.312Z" fill="#F5F5F5"/>
<path d="M12.3718 12.4804H11.6299C11.4612 12.4804 11.3245 12.3428 11.3245 12.1729V11.2218L12.0053 11.6809L12.6772 11.2218V12.1729C12.6772 12.3428 12.5405 12.4804 12.3718 12.4804Z" fill="#FF4B55"/>
<path d="M11.5702 11.3735L11.3242 11.189V11.8655L11.5702 11.9885V11.3735Z" fill="#41479B"/>
<path d="M12.4312 11.3735L12.6772 11.189V11.8655L12.4312 11.9885V11.3735Z" fill="#41479B"/>
<path d="M12.3696 11.9888H11.6316V12.2963H12.3696V11.9888Z" fill="#41479B"/>
<path d="M11.6317 11.435L12.0007 11.6195L12.3697 11.435V11.9885H11.6317V11.435Z" fill="#FF4B55"/>
<path d="M12.2775 11.4931V12.1115C12.2775 12.1624 12.2361 12.2037 12.1853 12.2037H11.8163C11.7654 12.2037 11.7241 12.1623 11.7241 12.1115V11.4957L11.5396 11.3721V12.1115C11.5396 12.2641 11.6637 12.3882 11.8163 12.3882H12.1853C12.3378 12.3882 12.462 12.2641 12.462 12.1115V11.3679L12.2775 11.4931Z" fill="#F5F5F5"/>
<path d="M12.3418 11.9227C12.2382 11.932 12.1217 11.9425 12.0007 11.9846C11.8797 11.9425 11.7631 11.932 11.6595 11.9227C11.4862 11.9071 11.3833 11.892 11.3245 11.7874V11.9649C11.4149 12.0237 11.5294 12.0345 11.6485 12.0452C11.7554 12.0548 11.866 12.0647 11.9789 12.1075L12.0007 12.1157L12.0225 12.1075C12.1354 12.0647 12.246 12.0549 12.3529 12.0452C12.4721 12.0345 12.5869 12.0239 12.6773 11.965V11.787C12.6184 11.892 12.5154 11.9071 12.3418 11.9227Z" fill="#F5F5F5"/>
<path d="M12.1236 11.3427H12.0314V11.2505H11.9699V11.3427H11.8777V11.4042H11.9699V11.681H12.0314V11.4042H12.1236V11.3427Z" fill="#FFE15A"/>
<path d="M11.4282 11.0637L11.3944 11.0975L11.9348 11.6379L11.9686 11.6041L11.4282 11.0637Z" fill="#464655"/>
<path d="M11.3099 10.9791L11.3775 11.1142L11.445 11.0466L11.3099 10.9791Z" fill="#FFE15A"/>
<path d="M11.5523 10.9761L11.5137 11.0042L11.9637 11.622L12.0023 11.5939L11.5523 10.9761Z" fill="#464655"/>
<path d="M11.4481 10.8742L11.4939 11.0182L11.5711 10.9619L11.4481 10.8742Z" fill="#FFE15A"/>
<path d="M11.3208 11.1765L11.2935 11.2156L11.9201 11.6532L11.9474 11.614L11.3208 11.1765Z" fill="#464655"/>
<path d="M11.1895 11.1145L11.2796 11.2356L11.3343 11.1574L11.1895 11.1145Z" fill="#FFE15A"/>
<path d="M12.0327 11.6037L12.0664 11.6375L12.6068 11.0971L12.5731 11.0633L12.0327 11.6037Z" fill="#464655"/>
<path d="M12.6911 10.9791L12.6236 11.1142L12.556 11.0466L12.6911 10.9791Z" fill="#FFE15A"/>
<path d="M11.9992 11.5934L12.0378 11.6215L12.4879 11.0037L12.4492 10.9756L11.9992 11.5934Z" fill="#464655"/>
<path d="M12.5529 10.8742L12.5071 11.0182L12.4299 10.9619L12.5529 10.8742Z" fill="#FFE15A"/>
<path d="M12.0545 11.6147L12.0818 11.6538L12.7084 11.2163L12.6811 11.1772L12.0545 11.6147Z" fill="#464655"/>
<path d="M12.8115 11.1145L12.7213 11.2356L12.6666 11.1574L12.8115 11.1145Z" fill="#FFE15A"/>
<path d="M11.9695 12.7705C11.9695 12.7705 11.7316 12.515 11.7778 12.2806C11.8149 12.092 11.9274 11.8841 12.0155 11.8335C12.0155 11.8335 12.14 11.8258 12.1088 11.934C12.0776 12.0422 12.0395 12.0701 12.0507 12.1767C12.0699 12.3613 12.0996 12.5801 11.9695 12.7705Z" fill="#F5F5F5"/>
<path d="M12.0416 11.8349C12.0268 11.8329 12.0155 11.8336 12.0155 11.8336C11.9274 11.8841 11.8149 12.092 11.7778 12.2806C11.7568 12.3873 11.7947 12.498 11.8421 12.5873C11.8121 12.2007 11.925 12.0635 12.0416 11.8349Z" fill="#41479B"/>
<path d="M12.0506 12.1768C12.0394 12.0702 12.0775 12.0423 12.1087 11.9341C12.1306 11.8584 12.0762 11.8395 12.0416 11.8349C12.0416 11.8349 11.9622 12.0174 11.957 12.1398C11.9525 12.2474 11.9801 12.6856 11.9694 12.7706C12.0996 12.5801 12.0698 12.3613 12.0506 12.1768Z" fill="#FF4B55"/>
<path d="M11.8893 11.9261C11.9388 11.8778 12.0085 11.8562 12.0767 11.8679C12.0444 11.7638 12.012 11.6597 11.9797 11.5555C11.9115 11.5438 11.8418 11.5654 11.7922 11.6137C11.8245 11.7179 11.8569 11.822 11.8893 11.9261Z" fill="#F5F0F0"/>
<path d="M12.0768 11.8679C12.1263 11.8195 12.196 11.7979 12.2642 11.8097C12.2319 11.7055 12.1995 11.6014 12.1672 11.4973C12.099 11.4856 12.0293 11.5072 11.9797 11.5555C12.012 11.6596 12.0444 11.7637 12.0768 11.8679Z" fill="#F5F5F5"/>
<path d="M11.7197 10.5166C11.3859 10.5089 11.0561 10.591 10.7649 10.7543C10.7248 10.6828 10.6847 10.6112 10.6445 10.5397C10.9742 10.3549 11.3475 10.262 11.7254 10.2707C11.7235 10.3527 11.7215 10.4346 11.7197 10.5166Z" fill="#5F64B9"/>
<path d="M13.039 10.451C13.2553 10.5897 13.4459 10.7661 13.5996 10.9745C13.5336 11.0232 13.4676 11.0719 13.4016 11.1205C13.266 10.9366 13.0978 10.7809 12.907 10.6585L13.039 10.451Z" fill="#41479B"/>
<path d="M12.2816 10.5166C12.6154 10.5089 12.9451 10.591 13.2364 10.7543C13.2765 10.6828 13.3166 10.6112 13.3567 10.5397C13.0271 10.3549 12.6538 10.262 12.2759 10.2707C12.2778 10.3527 12.2797 10.4346 12.2816 10.5166Z" fill="#5F64B9"/>
<path d="M12.4926 10.451C12.1705 10.3629 11.8307 10.3629 11.5086 10.451C11.487 10.372 11.4653 10.2929 11.4437 10.2138C11.8083 10.1141 12.1929 10.1141 12.5575 10.2138C12.5359 10.2928 12.5143 10.3719 12.4926 10.451Z" fill="#41479B"/>
<path d="M11.1765 13.2074C10.9111 13.2767 10.6516 13.3702 10.4017 13.4879C10.4367 13.5621 10.4717 13.6363 10.5066 13.7104C10.7477 13.5968 10.9983 13.5071 11.2547 13.4413L11.1765 13.2074Z" fill="#FF6B71"/>
<path d="M12.8249 13.2074C13.0903 13.2767 13.3498 13.3702 13.5997 13.4879C13.5647 13.5621 13.5298 13.6363 13.4948 13.7104C13.2538 13.5968 13.0032 13.5071 12.7467 13.4413L12.8249 13.2074Z" fill="#FF6B71"/>
<path d="M12.99 13.3976C12.3431 13.2423 11.6688 13.2423 11.022 13.3976C11.0029 13.3178 10.9837 13.2381 10.9646 13.1584C11.6491 12.9941 12.3629 12.9941 13.0474 13.1584C13.0283 13.2381 13.0091 13.3179 12.99 13.3976Z" fill="#FF4B55"/>
<path d="M12.0006 13.4644L11.831 13.5069C11.7922 13.5166 11.7546 13.4872 11.7546 13.4472V13.3588C11.7546 13.3188 11.7922 13.2894 11.831 13.2992L12.0006 13.3416V13.4644Z" fill="#FF4B55"/>
<path d="M12.0007 13.3414L12.1703 13.299C12.2091 13.2893 12.2467 13.3187 12.2467 13.3586V13.4471C12.2467 13.4871 12.2091 13.5165 12.1703 13.5067L12.0007 13.4643V13.3414Z" fill="#FF4B55"/>
<path d="M12.0138 13.4644H11.9874C11.9607 13.4644 11.9391 13.4428 11.9391 13.4161V13.3897C11.9391 13.3631 11.9607 13.3414 11.9874 13.3414H12.0138C12.0405 13.3414 12.0621 13.363 12.0621 13.3897V13.4161C12.0621 13.4428 12.0405 13.4644 12.0138 13.4644Z" fill="#FF6B71"/>
</svg>
