<svg width="24" height="24" viewBox="0 0 24 24" fill="none" xmlns="http://www.w3.org/2000/svg">
<path d="M23.5861 19.862H0.413812C0.185297 19.862 0 19.6767 0 19.4482V4.55175C0 4.32324 0.185297 4.13794 0.413812 4.13794H23.5862C23.8147 4.13794 24 4.32324 24 4.55175V19.4482C24 19.6768 23.8147 19.862 23.5861 19.862Z" fill="#41479B"/>
<path d="M11.5862 4.13794H10.8674L7.03447 6.64917V4.13794H4.96551V6.64917L1.13254 4.13794H0.413812C0.185297 4.13794 0 4.32324 0 4.55175V4.87997L3.28851 7.03448H0V9.10345H3.28851L0 11.258V11.5862C0 11.8147 0.185297 12 0.413812 12H1.13254L4.96551 9.48876V12H7.03447V9.48876L10.8674 12H11.5861C11.8146 12 11.9999 11.8147 11.9999 11.5862V11.258L8.71147 9.10345H11.9999V7.03448H8.71142L11.9999 4.87997V4.55175C11.9999 4.32324 11.8147 4.13794 11.5862 4.13794Z" fill="#F5F5F5"/>
<path d="M11.9999 7.44829H6.62066V4.13794H5.37927V7.44829H0V8.68963H5.37927V12H6.62066V8.68963H11.9999V7.44829Z" fill="#FF4B55"/>
<path d="M4.55169 7.03449L0.197203 4.20789C0.081328 4.28124 0 4.40443 0 4.55176V4.57323L3.79166 7.03449H4.55169Z" fill="#FF4B55"/>
<path d="M7.79445 7.03448L11.937 4.34545C11.865 4.22363 11.7379 4.13794 11.5861 4.13794H11.4966L7.03442 7.03448H7.79445Z" fill="#FF4B55"/>
<path d="M4.19405 9.10345L0.0594482 11.7873C0.130745 11.9121 0.259745 12 0.413776 12H0.491822L4.95408 9.10345H4.19405Z" fill="#FF4B55"/>
<path d="M11.9933 11.6187L8.11838 9.10349H7.3584L11.7587 11.9598C11.8905 11.8986 11.9809 11.7704 11.9933 11.6187Z" fill="#FF4B55"/>
<path d="M17.6778 7.03654L17.8296 7.4916L18.3092 7.4953C18.3464 7.49563 18.3618 7.54298 18.3319 7.5651L17.946 7.85005L18.0907 8.30741C18.1019 8.34285 18.0616 8.37219 18.0313 8.35054L17.641 8.07158L17.2507 8.35054C17.2204 8.37215 17.1802 8.34285 17.1913 8.30741L17.336 7.85005L16.9501 7.5651C16.9202 7.54302 16.9356 7.49558 16.9727 7.4953L17.4524 7.4916L17.6042 7.03654C17.6162 7.00129 17.6661 7.00129 17.6778 7.03654Z" fill="#F5F5F5"/>
<path d="M15.6382 7.59627L15.9619 7.95027L16.4016 7.7586C16.4356 7.74374 16.469 7.78077 16.4506 7.81311L16.214 8.23035L16.5322 8.58932C16.5569 8.61716 16.5319 8.66033 16.4955 8.65288L16.0256 8.55678L15.7825 8.97031C15.7637 9.00233 15.7149 8.99197 15.7107 8.95503L15.6569 8.47841L15.1884 8.37505C15.1521 8.36703 15.1469 8.31744 15.1808 8.30207L15.6175 8.10355L15.571 7.62613C15.5675 7.5891 15.6131 7.5688 15.6382 7.59627Z" fill="#F5F5F5"/>
<path d="M14.0026 8.93713L14.4423 9.1288L14.766 8.7748C14.7911 8.74738 14.8366 8.76767 14.833 8.80466L14.7866 9.28208L15.2233 9.48059C15.2571 9.49597 15.2518 9.54556 15.2156 9.55358L14.7472 9.65694L14.6933 10.1336C14.6892 10.1705 14.6404 10.1809 14.6215 10.1488L14.3785 9.73531L13.9085 9.83141C13.8721 9.83886 13.8471 9.79569 13.8719 9.76784L14.19 9.40888L13.9534 8.99164C13.9351 8.95935 13.9685 8.92231 14.0026 8.93713Z" fill="#F5F5F5"/>
<path d="M13.0536 10.8274L13.5333 10.8237L13.6851 10.3686C13.6968 10.3333 13.7467 10.3333 13.7585 10.3686L13.9102 10.8237L14.3899 10.8274C14.427 10.8277 14.4424 10.8751 14.4125 10.8972L14.0266 11.1821L14.1713 11.6395C14.1825 11.6749 14.1422 11.7043 14.1119 11.6826L13.7216 11.4037L13.3314 11.6826C13.3011 11.7042 13.2608 11.6749 13.272 11.6395L13.4166 11.1821L13.0307 10.8972C13.0011 10.8751 13.0165 10.8276 13.0536 10.8274Z" fill="#F5F5F5"/>
<path d="M12.9557 12.9401L13.3924 12.7416L13.3459 12.2642C13.3423 12.2272 13.3879 12.207 13.413 12.2343L13.7367 12.5883L14.1764 12.3967C14.2104 12.3818 14.2438 12.4188 14.2254 12.4512L13.9888 12.8685L14.307 13.2274C14.3317 13.2553 14.3067 13.2984 14.2703 13.291L13.8004 13.1949L13.5573 13.6084C13.5385 13.6404 13.4897 13.6301 13.4855 13.5932L13.4317 13.1165L12.9632 13.0132C12.927 13.0051 12.9218 12.9555 12.9557 12.9401Z" fill="#F5F5F5"/>
<path d="M13.7255 14.9101L14.0436 14.5511L13.807 14.1339C13.7887 14.1016 13.8221 14.0645 13.8561 14.0794L14.2958 14.2711L14.6195 13.9171C14.6446 13.8896 14.6901 13.9099 14.6865 13.9469L14.6401 14.4244L15.0768 14.6229C15.1106 14.6382 15.1054 14.6878 15.0691 14.6959L14.6007 14.7992L14.5469 15.2758C14.5427 15.3128 14.4939 15.3231 14.475 15.2911L14.232 14.8776L13.762 14.9737C13.7257 14.9811 13.7008 14.938 13.7255 14.9101Z" fill="#F5F5F5"/>
<path d="M15.23 16.3966L15.3747 15.9393L14.9888 15.6543C14.9589 15.6323 14.9743 15.5848 15.0114 15.5845L15.4911 15.5808L15.6429 15.1258C15.6546 15.0905 15.7045 15.0905 15.7163 15.1258L15.868 15.5808L16.3477 15.5845C16.3848 15.5849 16.4003 15.6322 16.3703 15.6543L15.9845 15.9393L16.1291 16.3966C16.1403 16.4321 16.1 16.4614 16.0697 16.4398L15.6795 16.1608L15.2892 16.4398C15.2592 16.4614 15.2189 16.4321 15.23 16.3966Z" fill="#F5F5F5"/>
<path d="M17.2091 17.1427L17.1553 16.6661L16.6868 16.5627C16.6505 16.5547 16.6454 16.5051 16.6792 16.4897L17.1159 16.2912L17.0694 15.8138C17.0658 15.7768 17.1114 15.7565 17.1365 15.784L17.4602 16.138L17.8999 15.9463C17.934 15.9314 17.9673 15.9685 17.949 16.0008L17.7123 16.418L18.0305 16.777C18.0552 16.8048 18.0302 16.848 17.9939 16.8406L17.5239 16.7445L17.2808 17.158C17.262 17.19 17.2133 17.1797 17.2091 17.1427Z" fill="#F5F5F5"/>
<path d="M19.3205 17.0194L19.0775 16.6059L18.6075 16.7019C18.5711 16.7094 18.5461 16.6662 18.5708 16.6384L18.889 16.2794L18.6524 15.8622C18.6341 15.8298 18.6674 15.7928 18.7015 15.8077L19.1412 15.9993L19.4649 15.6453C19.49 15.6179 19.5355 15.6382 19.5319 15.6752L19.4855 16.1526L19.9221 16.3511C19.956 16.3665 19.9507 16.4161 19.9145 16.4241L19.4461 16.5275L19.3922 17.0041C19.3881 17.041 19.3393 17.0514 19.3205 17.0194Z" fill="#F5F5F5"/>
<path d="M21.1992 16.0479L20.809 15.7689L20.4187 16.0479C20.3884 16.0695 20.3481 16.0402 20.3593 16.0047L20.5039 15.5474L20.1181 15.2624C20.0882 15.2404 20.1036 15.1929 20.1407 15.1926L20.6204 15.1889L20.7722 14.7339C20.7839 14.6986 20.8338 14.6986 20.8456 14.7339L20.9973 15.1889L21.477 15.1926C21.5141 15.193 21.5295 15.2403 21.4996 15.2624L21.1137 15.5474L21.2584 16.0047C21.2698 16.0401 21.2294 16.0695 21.1992 16.0479Z" fill="#F5F5F5"/>
<path d="M22.5203 14.3961L22.0504 14.3L21.8073 14.7136C21.7885 14.7456 21.7397 14.7352 21.7355 14.6983L21.6816 14.2217L21.2132 14.1183C21.1769 14.1103 21.1717 14.0607 21.2056 14.0453L21.6423 13.8468L21.5958 13.3694C21.5922 13.3324 21.6378 13.3122 21.6628 13.3395L21.9866 13.6935L22.4262 13.5019C22.4603 13.487 22.4937 13.524 22.4753 13.5564L22.2387 13.9736L22.5569 14.3326C22.5817 14.3604 22.5567 14.4036 22.5203 14.3961Z" fill="#F5F5F5"/>
<path d="M23.0555 12.35L22.587 12.4533L22.5332 12.9299C22.529 12.9669 22.4802 12.9772 22.4614 12.9452L22.2183 12.5317L21.7484 12.6278C21.7119 12.6352 21.687 12.5921 21.7117 12.5642L22.0299 12.2052L21.7933 11.788C21.7749 11.7556 21.8083 11.7186 21.8423 11.7335L22.282 11.9251L22.6057 11.5711C22.6308 11.5437 22.6764 11.564 22.6728 11.601L22.6263 12.0784L23.063 12.2769C23.0969 12.2923 23.0917 12.342 23.0555 12.35Z" fill="#F5F5F5"/>
<path d="M22.712 10.263L22.3261 10.5479L22.4708 11.0053C22.482 11.0407 22.4417 11.0701 22.4114 11.0484L22.0211 10.7695L21.6308 11.0484C21.6006 11.07 21.5603 11.0407 21.5715 11.0053L21.7161 10.5479L21.3302 10.263C21.3003 10.2409 21.3157 10.1935 21.3529 10.1932L21.8325 10.1895L21.9843 9.73442C21.996 9.69912 22.0459 9.69912 22.0577 9.73442L22.2095 10.1895L22.6891 10.1932C22.7265 10.1935 22.7419 10.2409 22.712 10.263Z" fill="#F5F5F5"/>
<path d="M21.5495 8.49608L21.3129 8.91336L21.6311 9.27233C21.6557 9.30017 21.6308 9.34334 21.5944 9.33589L21.1245 9.2398L20.8814 9.65333C20.8626 9.68534 20.8138 9.67498 20.8096 9.63805L20.7557 9.16142L20.2873 9.05806C20.251 9.05005 20.2458 9.00046 20.2797 8.98508L20.7164 8.78656L20.6699 8.30914C20.6663 8.27216 20.7119 8.25186 20.7369 8.27928L21.0607 8.63328L21.5003 8.44161C21.5345 8.42675 21.5678 8.46378 21.5495 8.49608Z" fill="#F5F5F5"/>
<path d="M19.7688 7.35487L19.7224 7.83229L20.159 8.03081C20.1929 8.04618 20.1876 8.09578 20.1514 8.10379L19.683 8.20715L19.6291 8.68378C19.625 8.72071 19.5762 8.73107 19.5573 8.69906L19.3143 8.28553L18.8443 8.38162C18.8079 8.38907 18.7829 8.3459 18.8076 8.31806L19.1258 7.95909L18.8892 7.54181C18.8709 7.50947 18.9043 7.47244 18.9383 7.4873L19.378 7.67897L19.7017 7.32497C19.7269 7.29759 19.7724 7.31789 19.7688 7.35487Z" fill="#F5F5F5"/>
<path d="M17.6778 7.03654L17.8296 7.4916L18.3092 7.4953C18.3464 7.49563 18.3618 7.54298 18.3319 7.5651L17.946 7.85005L18.0907 8.30741C18.1019 8.34285 18.0616 8.37219 18.0313 8.35054L17.641 8.07158L17.2507 8.35054C17.2204 8.37215 17.1802 8.34285 17.1913 8.30741L17.336 7.85005L16.9501 7.5651C16.9202 7.54302 16.9356 7.49558 16.9727 7.4953L17.4524 7.4916L17.6042 7.03654C17.6162 7.00129 17.6661 7.00129 17.6778 7.03654Z" fill="#F5F5F5"/>
</svg>
