<svg width="24" height="24" viewBox="0 0 24 24" fill="none" xmlns="http://www.w3.org/2000/svg">
<path d="M23.5861 19.8621H0.413812C0.185297 19.8621 0 19.6768 0 19.4483V4.55175C0 4.32324 0.185297 4.13794 0.413812 4.13794H23.5862C23.8147 4.13794 24 4.32324 24 4.55175V19.4483C24 19.6768 23.8147 19.8621 23.5861 19.8621Z" fill="#FF4B55"/>
<path d="M3.98469 6.59682L4.37919 7.77967L5.62606 7.78932C5.7875 7.79054 5.85443 7.9966 5.72454 8.09246L4.72151 8.83313L5.09759 10.022C5.14625 10.1759 4.97103 10.3032 4.83969 10.2093L3.82531 9.48422L2.81094 10.2093C2.6796 10.3032 2.50438 10.1758 2.55303 10.0219L2.92911 8.83309L1.92608 8.09246C1.79619 7.99656 1.86313 7.79054 2.02457 7.78932L3.27144 7.77967L3.66594 6.59682C3.71703 6.44364 3.93364 6.44364 3.98469 6.59682Z" fill="#FFE15A"/>
<path d="M8.51247 6.88831L8.79536 7.27409L9.25188 7.13131C9.31099 7.11284 9.3596 7.18025 9.32341 7.23045L9.04394 7.61862L9.32078 8.00867C9.35664 8.05915 9.30756 8.12623 9.2486 8.10734L8.79302 7.96151L8.5076 8.34537C8.47066 8.39506 8.39168 8.36909 8.39144 8.30721L8.38933 7.82886L7.93605 7.676C7.87741 7.65617 7.87765 7.57311 7.93647 7.5537L8.39069 7.40389L8.39604 6.92558C8.39669 6.86375 8.47586 6.83839 8.51247 6.88831Z" fill="#FFE15A"/>
<path d="M6.7901 5.73846L7.26565 5.79012L7.46852 5.35695C7.49482 5.30089 7.57732 5.3105 7.58997 5.37111L7.68775 5.83929L8.16241 5.89836C8.22386 5.906 8.24022 5.98746 8.18646 6.01826L7.77138 6.25592L7.86189 6.7256C7.87361 6.78645 7.80119 6.82713 7.7553 6.78556L7.40097 6.46423L6.98229 6.69542C6.9281 6.72537 6.86693 6.66903 6.89233 6.61254L7.08841 6.17623L6.7391 5.84942C6.69391 5.80732 6.72855 5.73181 6.7901 5.73846Z" fill="#FFE15A"/>
<path d="M7.54187 10.3741L7.25898 10.7598L6.80247 10.6171C6.74336 10.5986 6.69475 10.666 6.73094 10.7162L7.0104 11.1044L6.73356 11.4944C6.6977 11.5449 6.74678 11.612 6.80575 11.5931L7.26133 11.4473L7.54675 11.8311C7.58368 11.8808 7.66267 11.8548 7.6629 11.793L7.66501 11.3146L8.11829 11.1618C8.17698 11.1419 8.1767 11.0589 8.11787 11.0395L7.66365 10.8896L7.65831 10.4113C7.65756 10.3496 7.57848 10.3241 7.54187 10.3741Z" fill="#FFE15A"/>
<path d="M9.2641 9.29355L8.78856 9.34521L8.58568 8.91203C8.55939 8.85597 8.47689 8.86558 8.46423 8.92619L8.3664 9.39438L7.89175 9.45344C7.83029 9.46108 7.81394 9.54255 7.8677 9.57335L8.28278 9.811L8.19226 10.2807C8.18054 10.3415 8.25297 10.3822 8.29886 10.3406L8.65318 10.0193L9.07187 10.2505C9.12606 10.2805 9.18723 10.2241 9.16182 10.1676L8.96575 9.73131L9.31506 9.4045C9.36039 9.36241 9.32574 9.28689 9.2641 9.29355Z" fill="#FFE15A"/>
</svg>
