<svg width="24" height="24" viewBox="0 0 24 24" fill="none" xmlns="http://www.w3.org/2000/svg">
<path d="M23.5861 19.8621H0.413812C0.185297 19.8621 0 19.6768 0 19.4483V4.55175C0 4.32324 0.185297 4.13794 0.413812 4.13794H23.5862C23.8147 4.13794 24 4.32324 24 4.55175V19.4483C24 19.6768 23.8147 19.8621 23.5861 19.8621Z" fill="#73AF00"/>
<path d="M24 7.03455H0V8.6897H24V7.03455Z" fill="#F5F5F5"/>
<path d="M24 15.3103H0V16.9655H24V15.3103Z" fill="#F5F5F5"/>
<path d="M24 8.6897H0V15.3103H24V8.6897Z" fill="#C8414B"/>
<path d="M11.8969 9.45069L11.2944 11.2573L9.38999 11.272C9.28556 11.2729 9.24234 11.4061 9.32629 11.4681L10.8583 12.5994L10.2839 14.4152C10.2524 14.5148 10.3657 14.5971 10.4507 14.5364L12 13.429L13.5493 14.5364C13.6343 14.5971 13.7476 14.5148 13.7162 14.4152L13.1417 12.5994L14.6737 11.4681C14.7577 11.4061 14.7144 11.2728 14.61 11.272L12.7056 11.2573L12.1031 9.45069C12.07 9.35164 11.93 9.35164 11.8969 9.45069Z" fill="#FFE15A"/>
</svg>
