<svg width="24" height="24" viewBox="0 0 24 24" fill="none" xmlns="http://www.w3.org/2000/svg">
<path d="M23.5861 19.862H0.413812C0.185297 19.862 0 19.6767 0 19.4482V4.55174C0 4.32322 0.185297 4.13792 0.413812 4.13792H23.5862C23.8147 4.13792 24 4.32322 24 4.55174V19.4482C24 19.6768 23.8147 19.862 23.5861 19.862Z" fill="#41479B"/>
<path d="M20.6895 4.13792V19.862L4.96545 4.13792H20.6895Z" fill="#FFE15A"/>
<path d="M9.71966 9.9926L9.95815 10.7076L10.7119 10.7135C10.7703 10.714 10.7945 10.7884 10.7475 10.8231L10.1411 11.2709L10.3685 11.9896C10.3861 12.0452 10.3227 12.0913 10.2752 12.0573L9.66195 11.619L9.04873 12.0573C9.00125 12.0913 8.93783 12.0453 8.95541 11.9896L9.1828 11.2709L8.57642 10.8231C8.52945 10.7884 8.55364 10.714 8.61205 10.7135L9.36575 10.7076L9.60425 9.9926C9.62281 9.93724 9.70114 9.93724 9.71966 9.9926Z" fill="#F5F5F5"/>
<path d="M7.99541 8.2685L8.23391 8.98353L8.98761 8.98939C9.04602 8.98986 9.07021 9.06439 9.02324 9.09903L8.41686 9.54682L8.64425 10.2655C8.66188 10.3211 8.59846 10.3672 8.55093 10.3332L7.93771 9.89492L7.32449 10.3332C7.27701 10.3672 7.21359 10.3212 7.23116 10.2655L7.45855 9.54682L6.85218 9.09903C6.80521 9.06434 6.8294 8.98986 6.8878 8.98939L7.64151 8.98353L7.88001 8.2685C7.89857 8.21309 7.97694 8.21309 7.99541 8.2685Z" fill="#F5F5F5"/>
<path d="M6.27129 6.54435L6.50979 7.25938L7.26349 7.26524C7.3219 7.2657 7.34609 7.34019 7.29912 7.37488L6.69274 7.82267L6.92013 8.54131C6.93776 8.59695 6.87434 8.64303 6.82681 8.60909L6.21359 8.17077L5.60037 8.60909C5.55289 8.64308 5.48946 8.597 5.50704 8.54131L5.73443 7.82267L5.12806 7.37488C5.08109 7.34019 5.10528 7.2657 5.16368 7.26524L5.91739 7.25938L6.15589 6.54435C6.17445 6.48894 6.25282 6.48894 6.27129 6.54435Z" fill="#F5F5F5"/>
<path d="M4.54725 4.82024L4.78574 5.53527L5.53945 5.54113C5.59785 5.5416 5.62204 5.61608 5.57507 5.65077L4.96874 6.09852L5.19613 6.81716C5.21376 6.8728 5.15034 6.91888 5.10281 6.88494L4.48959 6.44661L3.87637 6.88494C3.82889 6.91888 3.76547 6.87285 3.78304 6.81716L4.01043 6.09852L3.40406 5.65077C3.35709 5.61608 3.38128 5.5416 3.43968 5.54113L4.19339 5.53527L4.43189 4.82024C4.4504 4.76483 4.52873 4.76483 4.54725 4.82024Z" fill="#F5F5F5"/>
<path d="M16.6161 16.8892L16.8546 17.6042L17.6083 17.6101C17.6667 17.6105 17.6909 17.685 17.6439 17.7197L17.0375 18.1675L17.2649 18.8861C17.2826 18.9418 17.2191 18.9879 17.1717 18.9539L16.5584 18.5156L15.9452 18.9539C15.8977 18.9879 15.8343 18.9418 15.8519 18.8861L16.0793 18.1675L15.4729 17.7197C15.4259 17.685 15.4501 17.6105 15.5085 17.6101L16.2622 17.6042L16.5007 16.8892C16.5192 16.8338 16.5976 16.8338 16.6161 16.8892Z" fill="#F5F5F5"/>
<path d="M14.892 15.165L15.1305 15.88L15.8842 15.8859C15.9426 15.8864 15.9668 15.9609 15.9198 15.9955L15.3134 16.4433L15.5408 17.162C15.5584 17.2176 15.495 17.2637 15.4475 17.2298L14.8343 16.7914L14.2211 17.2298C14.1736 17.2637 14.1102 17.2177 14.1278 17.162L14.3552 16.4433L13.7488 15.9955C13.7018 15.9609 13.726 15.8864 13.7844 15.8859L14.5381 15.88L14.7766 15.165C14.7951 15.1096 14.8735 15.1096 14.892 15.165Z" fill="#F5F5F5"/>
<path d="M13.1678 13.4409L13.4063 14.1559L14.16 14.1618C14.2184 14.1623 14.2426 14.2367 14.1956 14.2714L13.5892 14.7192L13.8166 15.4379C13.8342 15.4935 13.7708 15.5396 13.7233 15.5056L13.1101 15.0673L12.4969 15.5056C12.4494 15.5395 12.3859 15.4935 12.4035 15.4379L12.6309 14.7192L12.0245 14.2714C11.9776 14.2367 12.0018 14.1623 12.0602 14.1618L12.8139 14.1559L13.0524 13.4409C13.071 13.3855 13.1493 13.3855 13.1678 13.4409Z" fill="#F5F5F5"/>
<path d="M11.4437 11.7168L11.6822 12.4318L12.4359 12.4376C12.4943 12.4381 12.5184 12.5126 12.4715 12.5473L11.8651 12.9951L12.0925 13.7137C12.1101 13.7694 12.0467 13.8155 11.9992 13.7815L11.386 13.3432L10.7727 13.7815C10.7252 13.8154 10.6618 13.7694 10.6794 13.7137L10.9068 12.9951L10.3004 12.5473C10.2535 12.5126 10.2776 12.4381 10.336 12.4376L11.0897 12.4318L11.3282 11.7168C11.3468 11.6613 11.4252 11.6613 11.4437 11.7168Z" fill="#F5F5F5"/>
<path d="M1.96606 4.13792L2.28622 4.37436L2.05883 5.093C2.04125 5.14864 2.10463 5.19472 2.15216 5.16083L2.76533 4.7225L3.37855 5.16083C3.42603 5.19477 3.48945 5.14873 3.47183 5.093L3.24448 4.37436L3.56478 4.13792H1.96606Z" fill="#F5F5F5"/>
<path d="M19.3324 19.3342L18.5787 19.3283L18.3402 18.6133C18.3218 18.5579 18.2434 18.5579 18.2249 18.6133L17.9865 19.3283L17.2328 19.3342C17.1744 19.3347 17.1502 19.4092 17.1972 19.4438L17.7635 19.862H18.8019L19.3682 19.4438C19.415 19.4092 19.3908 19.3346 19.3324 19.3342Z" fill="#F5F5F5"/>
</svg>
