<svg width="24" height="24" viewBox="0 0 24 24" fill="none" xmlns="http://www.w3.org/2000/svg">
<path d="M24 5.56744H0V4.55175C0 4.32324 0.185297 4.13794 0.413812 4.13794H23.5862C23.8147 4.13794 24 4.32324 24 4.55175L24 5.56744Z" fill="#FF4B55"/>
<path d="M24 5.56787H0V6.99732H24V5.56787Z" fill="#F5F5F5"/>
<path d="M24 6.99658H0V8.42603H24V6.99658Z" fill="#FF4B55"/>
<path d="M24 8.42627H0V9.85572H24V8.42627Z" fill="#F5F5F5"/>
<path d="M24 11.2853H0.413812C0.185297 11.2853 0 11.1 0 10.8715V9.8559H24V11.2853Z" fill="#FF4B55"/>
<path d="M24 12.7147H0V10.7586H0.413718L0.413812 11.2853H24V12.7147Z" fill="#F5F5F5"/>
<path d="M24 12.7148H0V14.1443H24V12.7148Z" fill="#FF4B55"/>
<path d="M24 14.1441H0V15.5736H24V14.1441Z" fill="#F5F5F5"/>
<path d="M24 15.5738H0V17.0032H24V15.5738Z" fill="#FF4B55"/>
<path d="M24 17.0035H0V18.4329H24V17.0035Z" fill="#F5F5F5"/>
<path d="M23.5861 19.8621H0.413812C0.185297 19.8621 0 19.6768 0 19.4483V18.4326H24V19.4483C24 19.6768 23.8147 19.8621 23.5861 19.8621Z" fill="#FF4B55"/>
<path d="M6.62066 11.2853H0.413812C0.185297 11.2853 0 11.1 0 10.8715V4.55175C0 4.32324 0.185297 4.13794 0.413812 4.13794H6.62071C6.84922 4.13794 7.03452 4.32324 7.03452 4.55175V10.8715C7.03447 11.1 6.84917 11.2853 6.62066 11.2853Z" fill="#41479B"/>
<path d="M3.39896 5.98768L3.00389 7.17221L1.75524 7.18187C1.63552 7.18281 1.58584 7.33557 1.68216 7.40673L2.68665 8.14852L2.31001 9.33905C2.27391 9.45319 2.4039 9.54765 2.5013 9.47804L3.51727 8.75194L4.53314 9.47804C4.63055 9.54765 4.76053 9.45319 4.72444 9.33905L4.3478 8.14852L5.35228 7.40673C5.44861 7.33562 5.39892 7.18276 5.2792 7.18187L4.03055 7.17221L3.63549 5.98768C3.59752 5.87406 3.43688 5.87406 3.39896 5.98768Z" fill="#F5F5F5"/>
</svg>
