<svg width="24" height="24" viewBox="0 0 24 24" fill="none" xmlns="http://www.w3.org/2000/svg">
<path d="M23.5861 19.8619H0.413812C0.185297 19.8619 0 19.6766 0 19.4481V15.9308H24V19.4481C24 19.6767 23.8147 19.8619 23.5861 19.8619Z" fill="#FFE15A"/>
<path d="M24 11.9998H0V15.9308H24V11.9998Z" fill="#73AF00"/>
<path d="M24 8.06891H0V11.9998H24V8.06891Z" fill="#F5F5F5"/>
<path d="M24 8.06881H0V4.5516C0 4.32308 0.185297 4.13779 0.413812 4.13779H23.5862C23.8147 4.13779 24 4.32308 24 4.5516L24 8.06881Z" fill="#41479B"/>
<path d="M13.9655 4.13797H10.0345V19.8622H13.9655V4.13797Z" fill="#FF4B55"/>
<path d="M3.58589 4.66739L3.93117 5.70272L5.02251 5.7112C5.10708 5.71186 5.14209 5.81976 5.07408 5.87001L4.19611 6.51829L4.52526 7.55882C4.55076 7.6394 4.45898 7.70615 4.39022 7.65693L3.50236 7.02234L2.6145 7.65693C2.54569 7.7061 2.45396 7.6394 2.47946 7.55882L2.80861 6.51829L1.93078 5.87001C1.86277 5.81981 1.89783 5.7119 1.98235 5.7112L3.07369 5.70272L3.41897 4.66739C3.44569 4.58719 3.55913 4.58719 3.58589 4.66739Z" fill="#FFE15A"/>
</svg>
