<svg width="24" height="24" viewBox="0 0 24 24" fill="none" xmlns="http://www.w3.org/2000/svg">
<g clip-path="url(#clip0_2058_10573)">
<path d="M16 4.13782H23.5862C23.8147 4.13782 24 4.32311 24 4.55163V19.4482C24 19.6767 23.8147 19.862 23.5862 19.862H16V4.13782Z" fill="#41479B"/>
<path d="M16.0003 4.138H8.00012V19.8622H16.0003V4.138Z" fill="#FFE15A"/>
<path d="M0.413813 4.13782H8.00002V19.8619H0.413813C0.185297 19.8619 0 19.6766 0 19.4481V4.55158C0 4.32307 0.185297 4.13782 0.413813 4.13782Z" fill="#41479B"/>
<path d="M14.0689 10.9654H13.0344V9.93091L13.6551 9.10333H13.0344H10.9655H10.3448L10.9655 9.93091V10.9654H9.93097L9.10339 10.3447V10.9654V13.0344V13.655L9.93097 13.0344H10.9655V14.0688L10.3448 14.8964H10.9655H13.0344H13.6551L13.0344 14.0688V13.0344H14.0689L14.8965 13.655V13.0344V10.9654V10.3447L14.0689 10.9654Z" fill="#FF4B55"/>
<path d="M14.069 11.5861H12.4138V9.93091H11.5862V11.5861H9.93103V12.4137H11.5862V14.0688H12.4138V12.4137H14.069V11.5861Z" fill="#F5F5F5"/>
</g>
<defs>
<clipPath id="clip0_2058_10573">
<rect width="24" height="24" fill="white"/>
</clipPath>
</defs>
</svg>
