<svg width="24" height="24" viewBox="0 0 24 24" fill="none" xmlns="http://www.w3.org/2000/svg">
<path d="M23.5861 19.8621H0.413812C0.185297 19.8621 0 19.6768 0 19.4483V4.55175C0 4.32324 0.185297 4.13794 0.413812 4.13794H23.5862C23.8147 4.13794 24 4.32324 24 4.55175V19.4483C24 19.6768 23.8147 19.8621 23.5861 19.8621Z" fill="#82AFFF"/>
<path d="M11.9455 6.4017L11.6267 7.35757L10.6192 7.3654C10.5639 7.36582 10.541 7.43632 10.5855 7.46918L11.396 8.06772L11.0921 9.02838C11.0754 9.08102 11.1354 9.12466 11.1803 9.0925L12 8.50657L12.8198 9.0925C12.8647 9.12461 12.9247 9.08107 12.908 9.02838L12.6041 8.06772L13.4146 7.46918C13.4591 7.43637 13.4362 7.36587 13.3809 7.3654L12.3734 7.35757L12.0546 6.4017C12.0371 6.34934 11.963 6.34934 11.9455 6.4017Z" fill="#F5F5F5"/>
<path d="M11.9455 14.9359L11.6267 15.8918L10.6192 15.8996C10.5639 15.9 10.541 15.9705 10.5855 16.0034L11.396 16.6019L11.0921 17.5626C11.0754 17.6152 11.1354 17.6589 11.1803 17.6267L12 17.0408L12.8198 17.6267C12.8647 17.6588 12.9247 17.6153 12.908 17.5626L12.6041 16.6019L13.4146 16.0034C13.4591 15.9706 13.4362 15.9001 13.3809 15.8996L12.3734 15.8918L12.0546 14.9359C12.0371 14.8835 11.963 14.8835 11.9455 14.9359Z" fill="#F5F5F5"/>
<path d="M17.5984 11.9455L16.6425 11.6267L16.6347 10.6191C16.6343 10.5639 16.5638 10.541 16.5309 10.5854L15.9324 11.396L14.9717 11.092C14.9191 11.0754 14.8755 11.1353 14.9076 11.1802L15.4935 11.9999L14.9076 12.8197C14.8755 12.8647 14.919 12.9246 14.9717 12.908L15.9324 12.604L16.5309 13.4146C16.5637 13.459 16.6342 13.4361 16.6347 13.3809L16.6425 12.3733L17.5984 12.0545C17.6507 12.0371 17.6507 11.9629 17.5984 11.9455Z" fill="#F5F5F5"/>
<path d="M6.4017 11.9455L7.35757 11.6267L7.3654 10.6191C7.36582 10.5639 7.43632 10.541 7.46918 10.5854L8.06772 11.396L9.02838 11.092C9.08102 11.0754 9.12466 11.1353 9.0925 11.1802L8.50657 12L9.0925 12.8198C9.12461 12.8647 9.08107 12.9247 9.02838 12.908L8.06772 12.6041L7.46918 13.4146C7.43637 13.4591 7.36587 13.4361 7.3654 13.3809L7.35757 12.3733L6.4017 12.0545C6.34934 12.0371 6.34934 11.9629 6.4017 11.9455Z" fill="#F5F5F5"/>
</svg>
