<svg width="24" height="24" viewBox="0 0 24 24" fill="none" xmlns="http://www.w3.org/2000/svg">
<path d="M23.5861 19.862H0.413812C0.185297 19.862 0 19.6767 0 19.4482V4.55174C0 4.32322 0.185297 4.13792 0.413812 4.13792H23.5862C23.8147 4.13792 24 4.32322 24 4.55174V19.4482C24 19.6768 23.8147 19.862 23.5861 19.862Z" fill="#F5F5F5"/>
<path d="M23.9999 16.5517C22.7986 16.5517 22.7986 16.1379 21.5973 16.1379C20.396 16.1379 20.396 16.5517 19.1947 16.5517C17.9942 16.5517 17.9942 16.1379 16.7937 16.1379C15.5942 16.1379 15.5942 16.5517 14.3948 16.5517C13.1947 16.5517 13.1947 16.1379 11.9946 16.1379C10.7948 16.1379 10.7948 16.5517 9.59504 16.5517C8.39528 16.5517 8.39523 16.1379 7.19551 16.1379C5.9958 16.1379 5.9957 16.5517 4.79594 16.5517C3.59665 16.5517 3.59665 16.1379 2.39745 16.1379C1.19881 16.1379 1.19881 16.5517 0.00012207 16.5517V15.3103C1.19876 15.3103 1.19876 14.8965 2.39745 14.8965C3.59669 14.8965 3.59669 15.3103 4.79594 15.3103C5.99575 15.3103 5.99575 14.8965 7.19551 14.8965C8.39528 14.8965 8.39532 15.3103 9.59504 15.3103C10.7949 15.3103 10.7949 14.8965 11.9946 14.8965C13.1947 14.8965 13.1947 15.3103 14.3948 15.3103C15.5943 15.3103 15.5943 14.8965 16.7937 14.8965C17.9942 14.8965 17.9942 15.3103 19.1947 15.3103C20.3961 15.3103 20.3961 14.8965 21.5973 14.8965C22.7987 14.8965 22.7987 15.3103 23.9999 15.3103V16.5517Z" fill="#41479B"/>
<path d="M23.9999 11.5862C22.7986 11.5862 22.7986 11.1723 21.5973 11.1723C20.396 11.1723 20.396 11.5862 19.1947 11.5862C17.9942 11.5862 17.9942 11.1723 16.7937 11.1723C15.5942 11.1723 15.5942 11.5862 14.3948 11.5862C13.1947 11.5862 13.1947 11.1723 11.9946 11.1723C10.7948 11.1723 10.7948 11.5862 9.59504 11.5862C8.39528 11.5862 8.39523 11.1723 7.19551 11.1723C5.9958 11.1723 5.9957 11.5862 4.79594 11.5862C3.59665 11.5862 3.59665 11.1723 2.39745 11.1723C1.19881 11.1723 1.19881 11.5862 0.00012207 11.5862V10.3448C1.19876 10.3448 1.19876 9.931 2.39745 9.931C3.59669 9.931 3.59669 10.3448 4.79594 10.3448C5.99575 10.3448 5.99575 9.931 7.19551 9.931C8.39528 9.931 8.39532 10.3448 9.59504 10.3448C10.7949 10.3448 10.7949 9.931 11.9946 9.931C13.1947 9.931 13.1947 10.3448 14.3948 10.3448C15.5943 10.3448 15.5943 9.931 16.7937 9.931C17.9942 9.931 17.9942 10.3448 19.1947 10.3448C20.3961 10.3448 20.3961 9.931 21.5973 9.931C22.7987 9.931 22.7987 10.3448 23.9999 10.3448V11.5862Z" fill="#41479B"/>
<path d="M23.9999 9.10343C22.7986 9.10343 22.7986 8.68962 21.5973 8.68962C20.396 8.68962 20.396 9.10343 19.1947 9.10343C17.9942 9.10343 17.9942 8.68962 16.7937 8.68962C15.5942 8.68962 15.5942 9.10343 14.3948 9.10343C13.1947 9.10343 13.1947 8.68962 11.9946 8.68962C10.7948 8.68962 10.7948 9.10343 9.59504 9.10343C8.39528 9.10343 8.39523 8.68962 7.19551 8.68962C5.9958 8.68962 5.9957 9.10343 4.79594 9.10343C3.59665 9.10343 3.59665 8.68962 2.39745 8.68962C1.19881 8.68962 1.19881 9.10343 0.00012207 9.10343V7.86204C1.19876 7.86204 1.19876 7.44823 2.39745 7.44823C3.59669 7.44823 3.59669 7.86204 4.79594 7.86204C5.99575 7.86204 5.99575 7.44823 7.19551 7.44823C8.39528 7.44823 8.39532 7.86204 9.59504 7.86204C10.7949 7.86204 10.7949 7.44823 11.9946 7.44823C13.1947 7.44823 13.1947 7.86204 14.3948 7.86204C15.5943 7.86204 15.5943 7.44823 16.7937 7.44823C17.9942 7.44823 17.9942 7.86204 19.1947 7.86204C20.3961 7.86204 20.3961 7.44823 21.5973 7.44823C22.7987 7.44823 22.7987 7.86204 23.9999 7.86204V9.10343Z" fill="#41479B"/>
<path d="M23.9999 6.6207C22.7986 6.6207 22.7986 6.20689 21.5973 6.20689C20.396 6.20689 20.396 6.6207 19.1947 6.6207C17.9942 6.6207 17.9942 6.20689 16.7937 6.20689C15.5942 6.20689 15.5942 6.6207 14.3948 6.6207C13.1947 6.6207 13.1947 6.20689 11.9946 6.20689C10.7948 6.20689 10.7948 6.6207 9.59504 6.6207C8.39528 6.6207 8.39523 6.20689 7.19551 6.20689C5.9958 6.20689 5.9957 6.6207 4.79594 6.6207C3.59665 6.6207 3.59665 6.20689 2.39745 6.20689C1.19881 6.20689 1.19881 6.6207 0.00012207 6.6207V5.37931C1.19876 5.37931 1.19876 4.9655 2.39745 4.9655C3.59669 4.9655 3.59669 5.37931 4.79594 5.37931C5.99575 5.37931 5.99575 4.9655 7.19551 4.9655C8.39528 4.9655 8.39532 5.37931 9.59504 5.37931C10.7949 5.37931 10.7949 4.9655 11.9946 4.9655C13.1947 4.9655 13.1947 5.37931 14.3948 5.37931C15.5943 5.37931 15.5943 4.9655 16.7937 4.9655C17.9942 4.9655 17.9942 5.37931 19.1947 5.37931C20.3961 5.37931 20.3961 4.9655 21.5973 4.9655C22.7987 4.9655 22.7987 5.37931 23.9999 5.37931V6.6207Z" fill="#41479B"/>
<path d="M23.9999 14.0689C22.7986 14.0689 22.7986 13.6551 21.5973 13.6551C20.396 13.6551 20.396 14.0689 19.1947 14.0689C17.9942 14.0689 17.9942 13.6551 16.7937 13.6551C15.5942 13.6551 15.5942 14.0689 14.3948 14.0689C13.1947 14.0689 13.1947 13.6551 11.9946 13.6551C10.7948 13.6551 10.7948 14.0689 9.59504 14.0689C8.39528 14.0689 8.39523 13.6551 7.19551 13.6551C5.9958 13.6551 5.9957 14.0689 4.79594 14.0689C3.59665 14.0689 3.59665 13.6551 2.39745 13.6551C1.19881 13.6551 1.19881 14.0689 0.00012207 14.0689V12.8276C1.19876 12.8276 1.19876 12.4137 2.39745 12.4137C3.59669 12.4137 3.59669 12.8276 4.79594 12.8276C5.99575 12.8276 5.99575 12.4137 7.19551 12.4137C8.39528 12.4137 8.39532 12.8276 9.59504 12.8276C10.7949 12.8276 10.7949 12.4137 11.9946 12.4137C13.1947 12.4137 13.1947 12.8276 14.3948 12.8276C15.5943 12.8276 15.5943 12.4137 16.7937 12.4137C17.9942 12.4137 17.9942 12.8276 19.1947 12.8276C20.3961 12.8276 20.3961 12.4137 21.5973 12.4137C22.7987 12.4137 22.7987 12.8276 23.9999 12.8276V14.0689Z" fill="#41479B"/>
<path d="M23.9999 19.0344C22.7986 19.0344 22.7986 18.6206 21.5973 18.6206C20.396 18.6206 20.396 19.0344 19.1947 19.0344C17.9942 19.0344 17.9942 18.6206 16.7937 18.6206C15.5942 18.6206 15.5942 19.0344 14.3948 19.0344C13.1947 19.0344 13.1947 18.6206 11.9946 18.6206C10.7948 18.6206 10.7948 19.0344 9.59504 19.0344C8.39528 19.0344 8.39523 18.6206 7.19551 18.6206C5.9958 18.6206 5.9957 19.0344 4.79594 19.0344C3.59665 19.0344 3.59665 18.6206 2.39745 18.6206C1.19881 18.6206 1.19881 19.0344 0.00012207 19.0344V17.7931C1.19876 17.7931 1.19876 17.3792 2.39745 17.3792C3.59669 17.3792 3.59669 17.7931 4.79594 17.7931C5.99575 17.7931 5.99575 17.3792 7.19551 17.3792C8.39528 17.3792 8.39532 17.7931 9.59504 17.7931C10.7949 17.7931 10.7949 17.3792 11.9946 17.3792C13.1947 17.3792 13.1947 17.7931 14.3948 17.7931C15.5943 17.7931 15.5943 17.3792 16.7937 17.3792C17.9942 17.3792 17.9942 17.7931 19.1947 17.7931C20.3961 17.7931 20.3961 17.3792 21.5973 17.3792C22.7987 17.3792 22.7987 17.7931 23.9999 17.7931V19.0344Z" fill="#41479B"/>
<path d="M11.5862 12H0.413812C0.185297 12 0 11.8147 0 11.5862V4.55174C0 4.32322 0.185297 4.13792 0.413812 4.13792H11.5862C11.8147 4.13792 12 4.32322 12 4.55174V11.5862C11.9999 11.8148 11.8147 12 11.5862 12Z" fill="#41479B"/>
<path d="M11.5862 4.13792H10.8674L7.03447 6.64915V4.13792H4.96551V6.64915L1.13254 4.13792H0.413812C0.185297 4.13792 0 4.32322 0 4.55174V4.87995L3.28851 7.03447H0V9.10343H3.28851L0 11.258V11.5862C0 11.8147 0.185297 12 0.413812 12H1.13254L4.96551 9.48874V12H7.03447V9.48874L10.8674 12H11.5861C11.8146 12 11.9999 11.8147 11.9999 11.5862V11.2579L8.71147 9.10343H11.9999V7.03447H8.71142L11.9999 4.87995V4.55174C11.9999 4.32322 11.8147 4.13792 11.5862 4.13792Z" fill="#F5F5F5"/>
<path d="M11.9999 7.44828H6.62066V4.13792H5.37927V7.44828H0V8.68962H5.37927V12H6.62066V8.68962H11.9999V7.44828Z" fill="#FF4B55"/>
<path d="M4.55169 7.03446L0.197203 4.20786C0.081328 4.28121 0 4.4044 0 4.55173V4.5732L3.79166 7.03446H4.55169Z" fill="#FF4B55"/>
<path d="M7.79445 7.03447L11.937 4.34544C11.865 4.22361 11.7379 4.13792 11.5861 4.13792H11.4966L7.03442 7.03447H7.79445Z" fill="#FF4B55"/>
<path d="M4.19405 9.10342L0.0594482 11.7873C0.130745 11.9121 0.259745 12 0.413776 12H0.491822L4.95408 9.10342H4.19405Z" fill="#FF4B55"/>
<path d="M11.9933 11.6187L8.11838 9.10347H7.3584L11.7587 11.9597C11.8905 11.8986 11.9809 11.7704 11.9933 11.6187Z" fill="#FF4B55"/>
<path d="M18.2069 18.1587C18.0487 18.1587 17.9204 18.0304 17.9204 17.8723V8.7058H18.4933V17.8723C18.4934 18.0305 18.3651 18.1587 18.2069 18.1587Z" fill="#965032"/>
<path d="M22.2173 9.85155L21.6443 9.5651L19.535 9.30148L20.8401 7.62349L21.0426 7.01581L20.435 7.2184L18.757 8.52345L18.4934 6.41417L18.2069 5.84122L17.9204 6.41417L17.6568 8.52345L15.9788 7.2184L15.3712 7.01581L15.5737 7.62349L16.8788 9.30148L14.7694 9.5651L14.1965 9.85155L14.7694 10.138L16.8788 10.4017L15.5737 12.0796L15.3712 12.6873L15.9788 12.4848L17.8018 11.0669L18.2069 10.4245L18.612 11.0669L20.435 12.4848L21.0426 12.6873L20.8401 12.0796L19.535 10.4017L21.6443 10.138L22.2173 9.85155Z" fill="#73AF00"/>
<path d="M19.454 13.1878C19.1965 12.9308 18.6453 13.0253 18.3501 13.0998V12.8594C18.3501 12.7803 18.286 12.7162 18.2069 12.7162C18.1278 12.7162 18.0637 12.7803 18.0637 12.8594V13.0998C17.7686 13.025 17.2174 12.9306 16.9599 13.1878C16.7143 13.4332 16.8922 14.0249 17.0612 14.4363V14.8172C17.0612 14.9225 17.1465 15.0078 17.2518 15.0078H19.1622C19.2675 15.0078 19.3528 14.9224 19.3528 14.8172V14.4363C19.5216 14.0249 19.6995 13.4331 19.454 13.1878ZM19.2514 13.3903C19.3608 13.4998 19.2383 13.9794 19.041 14.4349H18.3501V13.3957C18.6717 13.3046 19.1122 13.2508 19.2514 13.3903ZM17.1624 13.3903C17.3015 13.2508 17.742 13.3047 18.0637 13.3957V14.4349H17.3728C17.1755 13.9794 17.053 13.4998 17.1624 13.3903Z" fill="#FFE15A"/>
</svg>
