<svg width="24" height="24" viewBox="0 0 24 24" fill="none" xmlns="http://www.w3.org/2000/svg">
<path d="M24 9.37935H0V4.55175C0 4.32324 0.185297 4.13794 0.413812 4.13794H23.5862C23.8147 4.13794 24 4.32324 24 4.55175L24 9.37935Z" fill="#FF4B55"/>
<path d="M23.5861 19.8621H0.413812C0.185297 19.8621 0 19.6768 0 19.4483V14.6207H24V19.4483C24 19.6768 23.8147 19.8621 23.5861 19.8621Z" fill="#41479B"/>
<path d="M24 9.37927H0V14.6204H24V9.37927Z" fill="#F5F5F5"/>
<path d="M12 9.93103C10.8574 9.93103 9.93103 10.8573 9.93103 12C9.93103 13.1427 10.8574 14.069 12 14.069C13.1426 14.069 14.069 13.1427 14.069 12C14.069 10.8573 13.1426 9.93103 12 9.93103ZM12 13.5604C11.1383 13.5604 10.4396 12.8618 10.4396 12C10.4396 11.1382 11.1382 10.4396 12 10.4396C12.8617 10.4396 13.5604 11.1382 13.5604 12C13.5604 12.8617 12.8617 13.5604 12 13.5604Z" fill="#FF4B55"/>
<path d="M12 12.7177C12.3964 12.7177 12.7177 12.3964 12.7177 12C12.7177 11.6037 12.3964 11.2823 12 11.2823C11.6037 11.2823 11.2823 11.6037 11.2823 12C11.2823 12.3964 11.6037 12.7177 12 12.7177Z" fill="#41479B"/>
<path d="M12.0467 11.4564L12.1624 11.8033L12.5279 11.8061C12.5753 11.8065 12.5949 11.8669 12.5568 11.8951L12.2627 12.1122L12.373 12.4608C12.3873 12.5059 12.3359 12.5433 12.2974 12.5157L11.9999 12.3032L11.7025 12.5157C11.6639 12.5433 11.6126 12.5059 11.6269 12.4608L11.7372 12.1122L11.4431 11.8951C11.405 11.8669 11.4246 11.8065 11.4719 11.8061L11.8375 11.8033L11.9532 11.4564C11.9682 11.4115 12.0317 11.4115 12.0467 11.4564Z" fill="#FFE15A"/>
<path d="M13.3575 12.0167C13.3575 12.0167 13.3985 11.8271 13.1967 12.0547C13.1967 12.0547 13.1997 11.9899 13.194 11.9365C13.2384 11.8884 13.2934 11.7834 13.2805 11.5591C13.2805 11.5591 13.2488 11.3676 13.1449 11.6534C13.1449 11.6534 13.1166 11.5691 13.0864 11.5224C13.1115 11.4705 13.1308 11.3759 13.0708 11.1968C13.0708 11.1968 13.0006 11.0435 12.9788 11.3068C12.9788 11.3068 12.9212 11.2207 12.8837 11.1995C12.8909 11.157 12.8853 11.0841 12.8005 10.966C12.8005 10.966 12.7159 10.8713 12.7586 11.0656C12.7586 11.0656 12.6813 11.003 12.6565 11.0103C12.6437 10.9732 12.6065 10.9104 12.4817 10.8279C12.4817 10.8279 12.3735 10.7686 12.4976 10.9232C12.4976 10.9232 12.3879 10.8797 12.3892 10.9046C12.3905 10.9296 12.4435 10.9756 12.4871 10.9961C12.4871 10.9961 12.3262 11.0128 12.3923 11.0486C12.3923 11.0486 12.5554 11.1049 12.6535 11.0507C12.6613 11.0793 12.6773 11.1113 12.701 11.1343C12.701 11.1343 12.5096 11.0971 12.5614 11.1546C12.5614 11.1546 12.705 11.2601 12.8469 11.244C12.8463 11.2831 12.8581 11.3335 12.8788 11.3714C12.8788 11.3714 12.6505 11.2494 12.6938 11.3425C12.6938 11.3425 12.8303 11.5251 13.0119 11.5647C13.0045 11.6053 13.0046 11.6544 13.0144 11.695C13.0144 11.695 12.7978 11.4904 12.8176 11.607C12.8176 11.607 12.9082 11.8471 13.0917 11.9491C13.0768 11.9795 13.0645 12.0136 13.0601 12.0454C13.0601 12.0454 12.9339 11.7754 12.9094 11.8911C12.9094 11.8911 12.9053 12.1608 13.0493 12.3221C13.0186 12.3476 12.9886 12.3833 12.9701 12.4183C12.9701 12.4183 12.9425 12.1216 12.8805 12.2223C12.8805 12.2223 12.7947 12.4471 12.8528 12.6408C12.8144 12.6522 12.7726 12.6731 12.7416 12.6982C12.7416 12.6982 12.8332 12.4146 12.7365 12.4826C12.7365 12.4826 12.5643 12.669 12.5511 12.8786C12.5054 12.8776 12.4436 12.8941 12.3988 12.9209C12.3988 12.9209 12.5298 12.6533 12.4243 12.7068C12.4243 12.7068 12.2365 12.8603 12.1879 13.0594C12.1435 13.0848 12.068 13.1279 11.9926 13.1706C11.9487 13.1452 11.9061 13.1204 11.8697 13.0991L11.8709 13.0972L11.4438 12.7391L11.4523 12.8562L11.2379 12.4727L11.2114 12.6032L11.1412 12.1792L11.0789 12.2418L11.103 11.8463L11.0218 11.89L11.1693 11.5959L11.1 11.6154L11.2822 11.4407L11.1858 11.4489L11.4162 11.3444L11.332 11.3314L11.5569 11.2176L11.46 11.2129L11.7515 11.112L11.6981 11.0653L11.9504 10.9909L11.6481 10.9678L11.7342 10.8618L11.5035 10.9799L11.5366 10.8203L11.3348 11.0281L11.3699 10.8826L11.181 11.0705L11.1932 10.9287L11.0065 11.2449L10.9824 11.1034L10.8273 11.4584L10.7846 11.3037L10.7153 11.744L10.6575 11.6785L10.7335 12.1032L10.6371 12.0309L10.8138 12.4124C10.8138 12.4124 10.6853 12.3562 10.6692 12.3562C10.6531 12.3562 10.9764 12.6845 10.9764 12.6845L10.8077 12.6664L11.1336 12.8956L11.0125 12.9255L11.2836 13.0308L11.2173 13.0821L11.7785 13.1222C11.7785 13.1222 11.8326 13.1673 11.9062 13.2195C11.8673 13.2414 11.8331 13.2605 11.812 13.2721C11.7907 13.2837 11.7656 13.2848 11.7432 13.2755C11.6899 13.2531 11.6128 13.2216 11.5757 13.2068C11.5757 13.2068 11.5793 13.3663 11.7453 13.3703C11.8136 13.3718 11.9066 13.3284 11.993 13.2771C12.0816 13.3323 12.1793 13.381 12.2499 13.3793C12.4124 13.3753 12.4159 13.2158 12.4159 13.2158C12.3796 13.2307 12.3041 13.2622 12.252 13.2845C12.23 13.2939 12.2056 13.2927 12.1847 13.2811C12.1617 13.2682 12.1238 13.2466 12.0804 13.2215C12.1248 13.1915 12.1619 13.1642 12.188 13.1441C12.2289 13.1762 12.3459 13.2326 12.6074 13.1345C12.6074 13.1345 12.7808 13.0474 12.477 13.0331C12.477 13.0331 12.5334 12.9917 12.5715 12.9524C12.6213 12.9781 12.7444 13.0084 12.9785 12.8799C12.9785 12.8799 13.1378 12.7689 12.8351 12.7981C12.8351 12.7981 12.8755 12.7587 12.9073 12.7187C12.9595 12.7246 13.0885 12.7106 13.2595 12.4919C13.2595 12.4919 13.3621 12.3272 13.0954 12.4733C13.0954 12.4733 13.1299 12.391 13.138 12.3361C13.1972 12.3076 13.287 12.2301 13.3575 12.0167Z" fill="#64C86E"/>
</svg>
