<svg width="24" height="24" viewBox="0 0 24 24" fill="none" xmlns="http://www.w3.org/2000/svg">
<path d="M24 5.79308H0V4.55174C0 4.32322 0.185297 4.13792 0.413812 4.13792H23.5862C23.8147 4.13792 24 4.32322 24 4.55174L24 5.79308Z" fill="#FF4B55"/>
<path d="M0 18.2069H24V19.4483C24 19.6768 23.8147 19.8621 23.5861 19.8621H0.413812C0.185297 19.8621 0 19.6768 0 19.4483V18.2069Z" fill="#FF4B55"/>
<path d="M24 5.79327H0V18.2072H24V5.79327Z" fill="#41479B"/>
<path d="M12 17.3793C14.9709 17.3793 17.3793 14.9709 17.3793 12C17.3793 9.02903 14.9709 6.62061 12 6.62061C9.02903 6.62061 6.62061 9.02903 6.62061 12C6.62061 14.9709 9.02903 17.3793 12 17.3793Z" fill="#F5F5F5"/>
<path d="M10.9677 14.8286L10.1378 14.9669C10.0332 14.9844 9.93799 14.9037 9.93799 14.7976V14.4854H10.9676L10.9677 14.8286Z" fill="#82AFFF"/>
<path d="M13.0271 14.8286L13.857 14.9669C13.9616 14.9844 14.0568 14.9037 14.0568 14.7976V14.4854H13.0271V14.8286H13.0271Z" fill="#82AFFF"/>
<path d="M11.8258 9.24599H11.7541C11.668 9.24599 11.5906 9.19804 11.552 9.12112L11.425 8.8672L11.5402 8.80954L11.6671 9.06346C11.6837 9.09665 11.7171 9.11727 11.7541 9.11727H11.8258V9.24599Z" fill="#965032"/>
<path d="M10.7095 9.40618L10.4967 8.98068L10.3816 9.03825L10.5943 9.46374L10.7095 9.40618Z" fill="#965032"/>
<path d="M12.2335 11.2248L11.8818 10.8732C11.8054 10.7967 11.7615 10.691 11.7615 10.5829V10.4645C11.7615 10.4211 11.7512 10.3775 11.7318 10.3386L11.6442 10.1633C11.6259 10.1268 11.5891 10.104 11.5482 10.104H11.2455C11.1555 10.104 11.0747 10.054 11.0345 9.97358L10.9103 9.72519L11.0254 9.66753L11.1496 9.91592C11.1679 9.95244 11.2046 9.97527 11.2455 9.97527H11.5482C11.6382 9.97527 11.7191 10.0252 11.7593 10.1057L11.8469 10.281C11.8753 10.3378 11.8903 10.4011 11.8903 10.4645V10.5829C11.8903 10.6571 11.9204 10.7297 11.9728 10.7819L12.1048 10.914V10.3144C12.1048 10.1518 12.0489 9.99242 11.9473 9.86539C11.8276 9.71553 11.7616 9.52771 11.7616 9.33599V8.83841H11.8903V9.33599C11.8903 9.49855 11.9463 9.65792 12.0478 9.78495C12.1676 9.93481 12.2335 10.1226 12.2335 10.3144L12.2335 11.2248Z" fill="#965032"/>
<path d="M11.9272 10.8919H11.7362C11.6183 10.8919 11.5117 10.8177 11.4706 10.7074L11.4222 10.577L11.5429 10.5321L11.5913 10.6625C11.6137 10.7228 11.6718 10.7632 11.7362 10.7632H11.9272V10.8919Z" fill="#965032"/>
<path d="M12.5718 8.69283L12.454 8.64087L11.7296 10.2836L11.8474 10.3356L12.5718 8.69283Z" fill="#965032"/>
<path d="M12.7483 10.104H12.1262V9.97536H12.6196V9.35329H12.7483V10.104Z" fill="#965032"/>
<path d="M11.5684 10.7261H11.0536C10.9114 10.7261 10.7961 10.6109 10.7961 10.4687C10.7961 10.3265 10.9114 10.2113 11.0536 10.2113H11.5685C11.7106 10.2113 11.8259 10.3265 11.8259 10.4687C11.8258 10.6109 11.7106 10.7261 11.5684 10.7261Z" fill="#73AF00"/>
<path d="M12.7696 10.7261H12.2548C12.1126 10.7261 11.9973 10.6109 11.9973 10.4687C11.9973 10.3265 12.1125 10.2113 12.2548 10.2113H12.7696C12.9118 10.2113 13.0271 10.3265 13.0271 10.4687C13.0271 10.6109 12.9117 10.7261 12.7696 10.7261Z" fill="#73AF00"/>
<path d="M13.2844 10.2113H12.598C12.4558 10.2113 12.3406 10.0961 12.3406 9.95389C12.3406 9.81172 12.4558 9.69646 12.598 9.69646H13.2844C13.4266 9.69646 13.5419 9.81168 13.5419 9.95389C13.5418 10.0961 13.4266 10.2113 13.2844 10.2113Z" fill="#73AF00"/>
<path d="M13.4561 9.52488H12.2548C12.1126 9.52488 11.9973 9.40966 11.9973 9.26745C11.9973 9.12527 12.1125 9.01001 12.2548 9.01001H13.4561C13.5982 9.01001 13.7135 9.12523 13.7135 9.26745C13.7135 9.40957 13.5982 9.52488 13.4561 9.52488Z" fill="#73AF00"/>
<path d="M12.7697 8.83841H12.4265C12.2843 8.83841 12.1691 8.72319 12.1691 8.58097C12.1691 8.4388 12.2843 8.32353 12.4265 8.32353H12.7697C12.9119 8.32353 13.0272 8.43875 13.0272 8.58097C13.0272 8.72314 12.9118 8.83841 12.7697 8.83841Z" fill="#73AF00"/>
<path d="M10.5387 9.18162H10.3671C10.2249 9.18162 10.1096 9.0664 10.1096 8.92418C10.1096 8.78201 10.2248 8.66675 10.3671 8.66675H10.5387C10.6808 8.66675 10.7961 8.78197 10.7961 8.92418C10.7961 9.0664 10.6808 9.18162 10.5387 9.18162Z" fill="#73AF00"/>
<path d="M11.74 9.01002H11.2251C11.0829 9.01002 10.9677 8.8948 10.9677 8.75258C10.9677 8.61041 11.0829 8.49515 11.2251 8.49515H11.74C11.8821 8.49515 11.9974 8.61037 11.9974 8.75258C11.9973 8.8948 11.8821 9.01002 11.74 9.01002Z" fill="#73AF00"/>
<path d="M11.5683 9.86805H10.5387C10.3965 9.86805 10.2812 9.75283 10.2812 9.61062C10.2812 9.46844 10.3965 9.35318 10.5387 9.35318H11.5683C11.7105 9.35318 11.8258 9.4684 11.8258 9.61062C11.8258 9.75283 11.7105 9.86805 11.5683 9.86805Z" fill="#73AF00"/>
<path d="M14.5716 13.4557H9.42317C9.23361 13.4557 9.07996 13.6093 9.07996 13.7989C9.07996 13.9885 9.23361 14.1421 9.42317 14.1421H10.7961C10.7961 14.3317 10.9497 14.4853 11.1393 14.4853H12.8554C13.045 14.4853 13.1987 14.3317 13.1987 14.1421H14.5716C14.7611 14.1421 14.9148 13.9885 14.9148 13.7989C14.9148 13.6094 14.7611 13.4557 14.5716 13.4557Z" fill="#73AF00"/>
<path d="M15.419 10.4096C15.4061 10.3838 15.3392 10.4144 15.2974 10.3989C14.779 10.2062 14.0829 9.85508 13.6279 9.61574L13.5366 9.47113L12.6742 9.05202C12.6193 9.02535 12.5531 9.04588 12.523 9.09889L12.4805 9.17361C12.4481 9.23066 12.4695 9.30322 12.5276 9.3335L13.3488 9.76072L13.5808 9.74356L14.4827 10.2073C14.4827 10.2073 15.0955 10.5207 15.1281 10.5437C15.1607 10.5667 15.1794 10.6957 15.2402 10.6849C15.2837 10.6772 15.4745 10.5211 15.419 10.4096Z" fill="#BE7855"/>
<path d="M9.73067 13.7131C9.73067 13.7131 9.78785 13.967 9.73423 13.9956C9.6806 14.0242 9.39457 14.0242 9.40174 13.9634C9.40887 13.9026 9.44824 13.6881 9.44824 13.6881L9.73067 13.7131Z" fill="#FFBE3C"/>
<path d="M10.2062 13.5772C10.2062 13.5772 10.1597 13.7667 10.2527 13.7739C10.3457 13.781 10.8712 13.7774 10.8856 13.7632C10.8999 13.7489 10.9177 13.7131 10.9177 13.7131L10.4314 13.5772H10.2062Z" fill="#FFBE3C"/>
<path d="M9.67268 11.214C9.67268 11.214 9.54486 11.5179 9.49836 12.5709C9.48598 12.851 9.51982 12.7854 9.38037 13.6863L9.54584 13.7727C9.59403 13.7979 9.65187 13.7961 9.69837 13.7679L9.85943 13.6703C9.85943 13.6703 9.78078 12.6621 10.0382 12.0828C10.0382 12.0828 10.1741 12.3332 10.1741 12.519C10.1741 12.7049 10.167 13.5987 10.167 13.5987C10.167 13.5987 10.4673 13.6488 10.6031 13.6345C10.6031 13.6345 10.5173 11.6949 10.4315 11.2382L9.67268 11.214Z" fill="#EAF3F5"/>
<path d="M9.69673 11.0853C9.69673 11.0853 9.64578 11.1229 9.67259 11.214C9.67259 11.214 10.0641 11.3829 10.4314 11.2381C10.4314 11.2381 10.4717 11.1791 10.4208 11.1067L9.69673 11.0853Z" fill="#965032"/>
<path d="M9.17303 10.1558C8.95024 10.2386 8.61171 10.4454 8.63318 10.6099C8.65464 10.7743 8.77118 10.7342 8.80755 10.6938C8.84393 10.6534 8.94827 10.5238 8.98089 10.5008C9.01352 10.4778 9.54044 10.2073 9.54044 10.2073L10.9357 9.48988C10.9357 9.48988 10.9464 9.42017 10.8632 9.36383C10.8632 9.36383 10.0097 9.84472 9.17303 10.1558Z" fill="#965032"/>
<path d="M9.83079 9.34775L9.82273 9.40676C9.82273 9.40676 9.80126 9.78486 9.92463 9.88676C9.92463 9.88676 9.95144 9.96448 9.90855 10.0021C9.86566 10.0397 9.44201 10.2541 9.44201 10.2541C9.44201 10.2541 9.33204 10.4821 9.33471 10.6107C9.33471 10.6107 9.23013 10.5705 9.24087 10.5196C9.25156 10.4686 9.31329 10.3346 9.29449 10.2702C9.2757 10.2058 9.20599 10.2246 9.20599 10.2246C9.20599 10.2246 9.17112 10.2622 9.22746 10.2863L9.20867 10.3667L8.98071 10.5008L9.03167 10.5624C9.03167 10.5624 9.03434 11.0344 9.3132 11.096C9.3132 11.096 9.46066 11.1067 9.63499 10.7742C9.63499 10.7742 9.72884 10.9404 9.69663 11.0853C9.69663 11.0853 10.0023 11.2515 10.4206 11.1067L10.426 10.8171C10.426 10.8171 10.4904 11.2623 10.7102 11.2193C10.7102 11.2193 11.3193 10.9849 11.2179 10.8957C10.9819 10.6884 10.6969 10.8636 10.6969 10.8636C10.6831 10.5624 10.6579 10.1728 10.619 10.1307C10.5546 10.0609 10.3562 10.0985 10.3169 10.0091C10.2776 9.91971 10.2883 9.76245 10.3312 9.58006C10.3741 9.39772 10.156 9.269 10.156 9.269L9.83079 9.34775Z" fill="#FFBE3C"/>
<path d="M9.82273 9.40672C9.82273 9.40672 10.0417 9.46212 10.2133 9.3942L10.2884 9.58011H10.3313C10.3313 9.58011 10.4347 9.23605 10.2974 9.24008C10.2974 9.24008 10.2969 9.12838 10.0572 9.13306C9.85123 9.13709 9.77984 9.27087 9.82273 9.40672Z" fill="#464655"/>
<path d="M14.2925 13.7131C14.2925 13.7131 14.2353 13.967 14.2889 13.9956C14.3426 14.0242 14.6286 14.0242 14.6214 13.9634C14.6142 13.9027 14.5749 13.6881 14.5749 13.6881L14.2925 13.7131Z" fill="#965032"/>
<path d="M13.817 13.5772C13.817 13.5772 13.8635 13.7667 13.7705 13.7739C13.6775 13.781 13.152 13.7774 13.1376 13.7632C13.1233 13.7489 13.1055 13.7131 13.1055 13.7131L13.5917 13.5772H13.817Z" fill="#965032"/>
<path d="M14.3505 11.214C14.3505 11.214 14.4783 11.5179 14.5248 12.5709C14.5372 12.851 14.5034 12.7854 14.6428 13.6863L14.4774 13.7727C14.4292 13.7979 14.3713 13.7961 14.3248 13.7679L14.1638 13.6703C14.1638 13.6703 14.2424 12.6621 13.985 12.0828C13.985 12.0828 13.8491 12.3332 13.8491 12.519C13.8491 12.7049 13.8562 13.5987 13.8562 13.5987C13.8562 13.5987 13.5559 13.6488 13.42 13.6345C13.42 13.6345 13.5059 11.6949 13.5917 11.2382L14.3505 11.214Z" fill="#EAF3F5"/>
<path d="M14.3265 11.0853C14.3265 11.0853 14.3774 11.1229 14.3506 11.214C14.3506 11.214 13.9591 11.3829 13.5917 11.2381C13.5917 11.2381 13.5515 11.1791 13.6024 11.1067L14.3265 11.0853Z" fill="#BE7855"/>
<path d="M14.1924 9.34775L14.2005 9.40676C14.2005 9.40676 14.2219 9.78486 14.0986 9.88676C14.0986 9.88676 14.0718 9.96448 14.1147 10.0021C14.1575 10.0397 14.5812 10.2541 14.5812 10.2541C14.5812 10.2541 14.6911 10.4821 14.6885 10.6107C14.6885 10.6107 14.7931 10.5705 14.7823 10.5196C14.7717 10.4686 14.7099 10.3346 14.7287 10.2702C14.7475 10.2058 14.8172 10.2246 14.8172 10.2246C14.8172 10.2246 14.8521 10.2622 14.7957 10.2863L14.8145 10.3667L15.0425 10.5008L14.9915 10.5624C14.9915 10.5624 14.9889 11.0344 14.71 11.096C14.71 11.096 14.5625 11.1067 14.3882 10.7742C14.3882 10.7742 14.2944 10.9404 14.3266 11.0853C14.3266 11.0853 14.0209 11.2515 13.6026 11.1067L13.5972 10.8171C13.5972 10.8171 13.5328 11.2623 13.313 11.2193C13.313 11.2193 12.7039 10.9849 12.8053 10.8957C13.0413 10.6884 13.3263 10.8636 13.3263 10.8636C13.3401 10.5624 13.3653 10.1728 13.4042 10.1307C13.4686 10.0609 13.6669 10.0985 13.7063 10.0091C13.7457 9.91971 13.7349 9.76245 13.692 9.58006C13.6491 9.39772 13.8672 9.269 13.8672 9.269L14.1924 9.34775Z" fill="#965032"/>
<path d="M14.2004 9.40672C14.2004 9.40672 13.9814 9.46212 13.8098 9.3942L13.7347 9.58011H13.6918C13.6918 9.58011 13.5884 9.23605 13.7257 9.24008C13.7257 9.24008 13.7262 9.12838 13.9659 9.13306C14.1719 9.13709 14.2433 9.27087 14.2004 9.40672Z" fill="#464655"/>
<path d="M10.5216 9.55001C10.5037 9.50647 10.5337 9.49451 10.5337 9.49451C10.5337 9.49451 10.7507 9.37541 10.776 9.37742C10.8177 9.3808 10.8689 9.45411 10.8689 9.51673C10.8689 9.57931 10.9504 9.74178 11.118 9.78219C11.118 9.78219 10.9088 10.0664 10.6185 10.0276C10.6185 10.0275 10.638 9.83304 10.5216 9.55001Z" fill="#EAF3F5"/>
<path d="M10.8258 10.8815C10.7615 10.8815 10.7094 10.9371 10.7094 11.0057V12.426C10.7094 12.7692 10.8703 13.9705 11.9964 14.3137C13.1226 13.9705 13.2835 12.7692 13.2835 12.426V11.0057C13.2835 10.9371 13.2314 10.8815 13.1671 10.8815H10.8258Z" fill="#82AFFF"/>
<path d="M13.2836 12.426V11.0057C13.2836 10.9371 13.2314 10.8815 13.1671 10.8815H11.9965V12.0829L13.1278 13.2142C13.253 12.8835 13.2836 12.5745 13.2836 12.426Z" fill="#FFE15A"/>
<path d="M10.7094 12.426V11.0057C10.7094 10.9371 10.7615 10.8815 10.8258 10.8815H11.9964V12.0829L10.8651 13.2142C10.7399 12.8835 10.7094 12.5745 10.7094 12.426Z" fill="#EAF3F5"/>
<path d="M11.2374 13.1774L11.5352 13.4923H12.3647L12.5406 13.267L12.3383 13.3479H11.6679L11.2374 13.1774Z" fill="#8C5A28"/>
<path d="M11.5582 12.771L11.5127 13.2294L11.3058 13.1504C11.3058 13.1504 11.401 12.9295 11.5582 12.771Z" fill="#F5F5F5"/>
<path d="M11.9969 12.5892H11.9663V13.3697H11.9969V12.5892Z" fill="#8C5A28"/>
<path d="M12.28 12.6553H12.2494V13.3699H12.28V12.6553Z" fill="#8C5A28"/>
<path d="M11.7151 12.6553H11.6846V13.3699H11.7151V12.6553Z" fill="#8C5A28"/>
<path d="M12.0849 13.2959H11.8786C11.8645 13.2959 11.8531 13.2845 11.8531 13.2705V13.1566C11.8531 13.1426 11.8645 13.1312 11.8786 13.1312H12.0849C12.099 13.1312 12.1104 13.1426 12.1104 13.1566V13.2705C12.1103 13.2845 12.099 13.2959 12.0849 13.2959Z" fill="#F5F5F5"/>
<path d="M12.0849 13.0763H11.8786C11.8645 13.0763 11.8531 13.0649 11.8531 13.0509V12.937C11.8531 12.923 11.8645 12.9116 11.8786 12.9116H12.0849C12.099 12.9116 12.1104 12.923 12.1104 12.937V13.0509C12.1103 13.0649 12.099 13.0763 12.0849 13.0763Z" fill="#F5F5F5"/>
<path d="M12.0849 12.874H11.8786C11.8645 12.874 11.8531 12.8626 11.8531 12.8486V12.7347C11.8531 12.7207 11.8645 12.7093 11.8786 12.7093H12.0849C12.099 12.7093 12.1104 12.7207 12.1104 12.7347V12.8486C12.1103 12.8626 12.099 12.874 12.0849 12.874Z" fill="#F5F5F5"/>
<path d="M12.3505 13.2959H12.1788C12.1648 13.2959 12.1534 13.2845 12.1534 13.2705V13.1566C12.1534 13.1426 12.1648 13.1312 12.1788 13.1312H12.3505C12.3645 13.1312 12.3759 13.1426 12.3759 13.1566V13.2705C12.3759 13.2845 12.3645 13.2959 12.3505 13.2959Z" fill="#F5F5F5"/>
<path d="M12.3505 13.0937H12.1788C12.1648 13.0937 12.1534 13.0823 12.1534 13.0683V12.9802C12.1534 12.9662 12.1648 12.9548 12.1788 12.9548H12.3505C12.3645 12.9548 12.3759 12.9662 12.3759 12.9802V13.0683C12.3759 13.0823 12.3645 13.0937 12.3505 13.0937Z" fill="#F5F5F5"/>
<path d="M12.3505 12.8933H12.1788C12.1648 12.8933 12.1534 12.8819 12.1534 12.8679V12.802C12.1534 12.788 12.1648 12.7766 12.1788 12.7766H12.3505C12.3645 12.7766 12.3759 12.788 12.3759 12.802V12.8679C12.3759 12.8819 12.3645 12.8933 12.3505 12.8933Z" fill="#F5F5F5"/>
<path d="M11.7856 13.2959H11.6139C11.5999 13.2959 11.5885 13.2845 11.5885 13.2705V13.1566C11.5885 13.1426 11.5999 13.1312 11.6139 13.1312H11.7856C11.7996 13.1312 11.811 13.1426 11.811 13.1566V13.2705C11.811 13.2845 11.7996 13.2959 11.7856 13.2959Z" fill="#F5F5F5"/>
<path d="M11.7856 13.0937H11.6139C11.5999 13.0937 11.5885 13.0823 11.5885 13.0683V12.9802C11.5885 12.9662 11.5999 12.9548 11.6139 12.9548H11.7856C11.7996 12.9548 11.811 12.9662 11.811 12.9802V13.0683C11.811 13.0823 11.7996 13.0937 11.7856 13.0937Z" fill="#F5F5F5"/>
<path d="M11.7856 12.8933H11.6139C11.5999 12.8933 11.5885 12.8819 11.5885 12.8679V12.802C11.5885 12.788 11.5999 12.7766 11.6139 12.7766H11.7856C11.7996 12.7766 11.811 12.788 11.811 12.802V12.8679C11.811 12.8819 11.7996 12.8933 11.7856 12.8933Z" fill="#F5F5F5"/>
<path d="M12.2493 12.6555V12.7478L12.1134 12.7008L12.2493 12.6555Z" fill="#FF4B55"/>
<path d="M11.6847 12.6555V12.7478L11.5488 12.7008L11.6847 12.6555Z" fill="#FF4B55"/>
<path d="M11.9676 12.5891V12.6814L11.8317 12.6344L11.9676 12.5891Z" fill="#FF4B55"/>
<path d="M13.018 13.4557H10.975C11.0054 13.5136 11.0388 13.5708 11.0762 13.6273H12.9167C12.9542 13.5709 12.9875 13.5136 13.018 13.4557Z" fill="#4173CD"/>
<path d="M12.9167 13.6273H11.0762C11.1575 13.7497 11.2571 13.8659 11.3765 13.9706H12.6162C12.7358 13.8659 12.8354 13.7496 12.9167 13.6273Z" fill="#73AF00"/>
<path d="M11.3766 13.9706C11.5413 14.1149 11.7434 14.2366 11.9965 14.3138C12.2495 14.2367 12.4516 14.1148 12.6163 13.9706H11.3766Z" fill="#FFE15A"/>
<path d="M11.776 12.1836C11.776 12.1836 11.7635 12.188 11.75 12.1865C11.7395 12.182 11.7181 12.1813 11.731 12.1417C11.7373 12.122 11.7504 12.0943 11.7409 12.0872C11.7332 12.0782 11.7249 12.0686 11.7159 12.0582C11.6981 12.0376 11.678 12.0143 11.656 11.9889C11.6109 11.9392 11.5575 11.882 11.4951 11.8257C11.4641 11.7975 11.432 11.7683 11.3992 11.7387C11.3654 11.7102 11.3342 11.6782 11.2973 11.6517C11.2765 11.6407 11.25 11.6352 11.2268 11.6267C11.2042 11.6176 11.19 11.6004 11.1735 11.5858C11.1411 11.5559 11.1093 11.5264 11.0784 11.4979C11.0158 11.4419 10.9608 11.3863 10.9138 11.3385C10.8682 11.2929 10.8313 11.2533 10.8053 11.2243C10.7805 11.1968 10.7821 11.155 10.8088 11.1293L10.885 11.0557C10.9116 11.03 10.9535 11.0299 10.9801 11.0557C11.008 11.0827 11.0464 11.121 11.0902 11.1682C11.1363 11.2169 11.1899 11.2738 11.2437 11.3384C11.2711 11.3703 11.2993 11.4032 11.3281 11.4365C11.3421 11.4536 11.3587 11.4684 11.367 11.4912C11.3748 11.5147 11.3794 11.5414 11.3895 11.5626C11.4148 11.6004 11.4456 11.6327 11.4729 11.6676C11.5013 11.7012 11.5293 11.7344 11.5564 11.7665C11.6105 11.8308 11.6656 11.8862 11.7137 11.933C11.7383 11.9559 11.7609 11.9768 11.7809 11.9954C11.7909 12.0047 11.8003 12.0133 11.8089 12.0214C11.8158 12.0312 11.8439 12.019 11.8638 12.0135C11.9039 12.002 11.9038 12.0234 11.9079 12.034C11.9089 12.0476 11.9041 12.06 11.9041 12.06L11.776 12.1836Z" fill="#BE7855"/>
<path d="M10.9356 12.3188C10.9224 12.3188 10.909 12.3147 10.8975 12.3062C10.8689 12.2851 10.8628 12.2449 10.8839 12.2162L11.4953 11.3868C11.5164 11.3583 11.5564 11.3519 11.5853 11.3733C11.6139 11.3944 11.62 11.4346 11.5989 11.4633L10.9875 12.2927C10.9748 12.3097 10.9553 12.3188 10.9356 12.3188Z" fill="#965032"/>
<path d="M11.4254 11.332L11.7436 11.543L11.8794 11.3534L11.5827 11.1139L11.4254 11.332Z" fill="#F5F5F5"/>
<path d="M12.271 11.2504L13.0864 12.256C13.0864 12.256 13.201 12.2612 13.1854 12.17L12.3414 11.1801L12.271 11.2504Z" fill="#965032"/>
<path d="M12.0886 11.3885C12.0886 11.3885 12.3179 11.3468 12.4143 11.2035L12.5445 11.3572C12.5445 11.3572 12.3309 11.5083 12.3101 11.6724C12.3101 11.6724 12.1355 11.6256 12.0886 11.3885Z" fill="#EAF3F5"/>
<path d="M12.9691 11.2895C12.9541 11.2895 12.9398 11.2814 12.9323 11.2672C12.9091 11.2232 12.9051 11.1835 12.9203 11.149C12.9418 11.1006 12.9922 11.0865 12.9978 11.085C13.0205 11.08 13.0428 11.0928 13.0486 11.115C13.0543 11.1371 13.0411 11.1598 13.0191 11.1656C13.0144 11.1671 13.0007 11.1731 12.9964 11.183C12.9923 11.1928 12.9958 11.209 13.006 11.2285C13.0168 11.2488 13.009 11.274 12.9886 11.2848C12.9823 11.288 12.9757 11.2895 12.9691 11.2895Z" fill="#965032"/>
<path d="M12.2992 11.9099C12.2992 11.8949 12.2911 11.8805 12.2769 11.873C12.2329 11.8498 12.1932 11.8458 12.1587 11.8611C12.1103 11.8826 12.0962 11.9329 12.0947 11.9386C12.0897 11.9613 12.1026 11.9836 12.1247 11.9894C12.1468 11.9951 12.1695 11.9819 12.1753 11.9598C12.1768 11.9552 12.1828 11.9415 12.1927 11.9372C12.2025 11.9331 12.2187 11.9366 12.2382 11.9468C12.2585 11.9576 12.2837 11.9498 12.2945 11.9293C12.2977 11.9231 12.2992 11.9165 12.2992 11.9099Z" fill="#965032"/>
<path d="M12.9969 11.1957L12.2292 11.9495L12.4099 12.151L13.1601 11.3937L12.9969 11.1957Z" fill="#EAF3F5"/>
<path d="M9.09789 10.1093C9.14931 10.0974 9.19441 10.1665 9.14795 10.2166C9.10145 10.2666 8.96716 10.3571 8.92628 10.3489C8.8548 10.3345 8.80474 10.1772 9.09789 10.1093Z" fill="#FFBE3C"/>
<path d="M14.9223 10.1817C14.8746 10.1697 14.8328 10.2388 14.8759 10.2889C14.919 10.339 15.0435 10.4294 15.0814 10.4213C15.1477 10.4069 15.1942 10.2496 14.9223 10.1817Z" fill="#965032"/>
<path d="M13.1671 10.8815C13.2314 10.8815 13.2836 10.9371 13.2836 11.0057V12.426C13.2836 12.7692 13.1227 13.9705 11.9965 14.3137C10.8703 13.9705 10.7094 12.7692 10.7094 12.426V11.0057C10.7094 10.9371 10.7615 10.8815 10.8258 10.8815H13.1671ZM13.1671 10.7957H10.8259C10.7144 10.7957 10.6237 10.8898 10.6237 11.0057V12.426C10.6237 12.508 10.6347 12.9406 10.853 13.4063C11.0851 13.9014 11.4719 14.2435 11.9716 14.3959L11.9966 14.4034L12.0217 14.3959C12.5213 14.2436 12.9082 13.9014 13.1402 13.4063C13.3585 12.9407 13.3696 12.508 13.3696 12.426V11.0057C13.3694 10.8899 13.2787 10.7957 13.1671 10.7957Z" fill="#464655"/>
<path d="M14.0568 14.3339C13.6922 14.2117 13.3009 14.268 12.9319 14.5142C12.4603 14.8286 12.1477 14.8286 11.9974 14.8286C11.8471 14.8286 11.5345 14.8286 11.0629 14.5142C10.694 14.2682 10.3026 14.2117 9.93799 14.3338V14.7017C10.1678 14.5919 10.4916 14.5459 10.8725 14.7997C11.4306 15.1718 11.8278 15.1718 11.9974 15.1718C12.167 15.1718 12.5642 15.1718 13.1223 14.7997C13.5032 14.5457 13.827 14.5917 14.0568 14.7017V14.3339Z" fill="#EAF3F5"/>
<path d="M11.9974 16.2873C9.58446 16.2873 7.62134 14.3242 7.62134 11.9112C7.62134 9.49831 9.58451 7.53514 11.9974 7.53514C14.4104 7.53514 16.3735 9.49831 16.3735 11.9112C16.3735 14.3242 14.4104 16.2873 11.9974 16.2873ZM11.9974 7.7067C9.67905 7.7067 7.7929 9.59276 7.7929 11.9112C7.7929 14.2297 9.67905 16.1158 11.9974 16.1158C14.3158 16.1158 16.202 14.2297 16.202 11.9112C16.202 9.59276 14.3158 7.7067 11.9974 7.7067Z" fill="#965032"/>
<path d="M7.21016 12.2759C7.21016 12.2759 7.19225 11.7396 7.70713 11.7396C7.70713 11.7396 7.71781 11.9505 7.53196 12.0435C7.38163 12.1186 7.21016 12.2759 7.21016 12.2759Z" fill="#73AF00"/>
<path d="M8.20423 12.2759C8.20423 12.2759 8.22214 11.7396 7.70727 11.7396C7.70727 11.7396 7.69658 11.9505 7.88244 12.0435C8.03281 12.1186 8.20423 12.2759 8.20423 12.2759Z" fill="#73AF00"/>
<path d="M16.7811 11.7396C16.7811 11.7396 16.799 12.2759 16.2842 12.2759C16.2842 12.2759 16.2735 12.065 16.4593 11.972C16.6097 11.8968 16.7811 11.7396 16.7811 11.7396Z" fill="#73AF00"/>
<path d="M15.7872 11.7396C15.7872 11.7396 15.7693 12.2759 16.2842 12.2759C16.2842 12.2759 16.2948 12.065 16.109 11.972C15.9586 11.8968 15.7872 11.7396 15.7872 11.7396Z" fill="#73AF00"/>
<path d="M12.2638 16.7932C12.2638 16.7932 11.7275 16.8111 11.7275 16.2963C11.7275 16.2963 11.9385 16.2856 12.0314 16.4714C12.1066 16.6218 12.2638 16.7932 12.2638 16.7932Z" fill="#73AF00"/>
<path d="M12.2638 15.7992C12.2638 15.7992 11.7275 15.7813 11.7275 16.2962C11.7275 16.2962 11.9385 16.3069 12.0314 16.121C12.1066 15.9706 12.2638 15.7992 12.2638 15.7992Z" fill="#73AF00"/>
<path d="M11.7275 7.22226C11.7275 7.22226 12.2638 7.20435 12.2638 7.71923C12.2638 7.71923 12.0529 7.72991 11.9599 7.54406C11.8847 7.39368 11.7275 7.22226 11.7275 7.22226Z" fill="#73AF00"/>
<path d="M11.7275 8.21629C11.7275 8.21629 12.2638 8.2342 12.2638 7.71932C12.2638 7.71932 12.0529 7.70863 11.9599 7.89449C11.8847 8.04482 11.7275 8.21629 11.7275 8.21629Z" fill="#73AF00"/>
<path d="M8.80137 15.5812C8.80137 15.5812 8.4095 15.2146 8.77353 14.8506C8.77353 14.8506 8.93023 14.9921 8.86456 15.1893C8.8115 15.3488 8.80137 15.5812 8.80137 15.5812Z" fill="#73AF00"/>
<path d="M9.50427 14.8783C9.50427 14.8783 9.13771 14.4865 8.77368 14.8505C8.77368 14.8505 8.91524 15.0072 9.1124 14.9415C9.27182 14.8884 9.50427 14.8783 9.50427 14.8783Z" fill="#73AF00"/>
<path d="M15.1899 8.43431C15.1899 8.43431 15.5817 8.80087 15.2177 9.1649C15.2177 9.1649 15.061 9.02334 15.1267 8.82619C15.1798 8.66672 15.1899 8.43431 15.1899 8.43431Z" fill="#73AF00"/>
<path d="M14.4869 9.13714C14.4869 9.13714 14.8535 9.52902 15.2175 9.16499C15.2175 9.16499 15.076 9.00828 14.8788 9.07396C14.7194 9.12707 14.4869 9.13714 14.4869 9.13714Z" fill="#73AF00"/>
<path d="M15.5691 15.202C15.5691 15.202 15.2025 15.5938 14.8385 15.2298C14.8385 15.2298 14.9801 15.0731 15.1772 15.1388C15.3367 15.1919 15.5691 15.202 15.5691 15.202Z" fill="#73AF00"/>
<path d="M14.8662 14.4991C14.8662 14.4991 14.4743 14.8656 14.8383 15.2297C14.8383 15.2297 14.995 15.0881 14.9294 14.8909C14.8762 14.7315 14.8662 14.4991 14.8662 14.4991Z" fill="#73AF00"/>
<path d="M8.42224 8.81347C8.42224 8.81347 8.7888 8.4216 9.15283 8.78563C9.15283 8.78563 9.01127 8.94233 8.81412 8.87666C8.65465 8.8235 8.42224 8.81347 8.42224 8.81347Z" fill="#73AF00"/>
<path d="M9.12504 9.51636C9.12504 9.51636 9.51692 9.1498 9.15289 8.78577C9.15289 8.78577 8.99618 8.92733 9.06186 9.12449C9.11501 9.28395 9.12504 9.51636 9.12504 9.51636Z" fill="#73AF00"/>
<path d="M7.6771 14.0868C7.6771 14.0868 7.45538 13.5982 7.93102 13.4012C7.93102 13.4012 8.02163 13.5919 7.88546 13.749C7.7753 13.8759 7.6771 14.0868 7.6771 14.0868Z" fill="#73AF00"/>
<path d="M8.59551 13.7064C8.59551 13.7064 8.40684 13.2041 7.93115 13.4011C7.93115 13.4011 8.00198 13.6001 8.20931 13.6148C8.37689 13.6267 8.59551 13.7064 8.59551 13.7064Z" fill="#73AF00"/>
<path d="M16.3142 9.92863C16.3142 9.92863 16.5359 10.4173 16.0603 10.6143C16.0603 10.6143 15.9697 10.4235 16.1059 10.2665C16.216 10.1395 16.3142 9.92863 16.3142 9.92863Z" fill="#73AF00"/>
<path d="M15.3959 10.3091C15.3959 10.3091 15.5845 10.8114 16.0602 10.6144C16.0602 10.6144 15.9894 10.4154 15.7821 10.4007C15.6145 10.3888 15.3959 10.3091 15.3959 10.3091Z" fill="#73AF00"/>
<path d="M14.0747 16.3264C14.0747 16.3264 13.5861 16.5481 13.389 16.0724C13.389 16.0724 13.5798 15.9818 13.7368 16.118C13.8638 16.2281 14.0747 16.3264 14.0747 16.3264Z" fill="#73AF00"/>
<path d="M13.6944 15.408C13.6944 15.408 13.1921 15.5966 13.3891 16.0723C13.3891 16.0723 13.588 16.0015 13.6028 15.7942C13.6147 15.6265 13.6944 15.408 13.6944 15.408Z" fill="#73AF00"/>
<path d="M9.91663 7.68908C9.91663 7.68908 10.4053 7.46736 10.6023 7.943C10.6023 7.943 10.4115 8.03361 10.2545 7.89744C10.1275 7.78733 9.91663 7.68908 9.91663 7.68908Z" fill="#73AF00"/>
<path d="M10.297 8.6075C10.297 8.6075 10.7993 8.41883 10.6023 7.94315C10.6023 7.94315 10.4033 8.01397 10.3886 8.2213C10.3766 8.38893 10.297 8.6075 10.297 8.6075Z" fill="#73AF00"/>
<path d="M10.4121 16.5316C10.4121 16.5316 9.90982 16.3429 10.1068 15.8672C10.1068 15.8672 10.3058 15.938 10.3205 16.1454C10.3324 16.313 10.4121 16.5316 10.4121 16.5316Z" fill="#73AF00"/>
<path d="M10.7925 15.6132C10.7925 15.6132 10.3038 15.3915 10.1068 15.8671C10.1068 15.8671 10.2976 15.9577 10.4546 15.8216C10.5816 15.7114 10.7925 15.6132 10.7925 15.6132Z" fill="#73AF00"/>
<path d="M13.5792 7.48392C13.5792 7.48392 14.0815 7.67259 13.8845 8.14828C13.8845 8.14828 13.6855 8.07745 13.6708 7.87012C13.6589 7.70245 13.5792 7.48392 13.5792 7.48392Z" fill="#73AF00"/>
<path d="M13.1989 8.4023C13.1989 8.4023 13.6875 8.62401 13.8845 8.14837C13.8845 8.14837 13.6938 8.05776 13.5367 8.19394C13.4097 8.30405 13.1989 8.4023 13.1989 8.4023Z" fill="#73AF00"/>
<path d="M16.5195 13.5913C16.5195 13.5913 16.3308 14.0937 15.8551 13.8966C15.8551 13.8966 15.9259 13.6977 16.1333 13.6829C16.3009 13.671 16.5195 13.5913 16.5195 13.5913Z" fill="#73AF00"/>
<path d="M15.6012 13.211C15.6012 13.211 15.3795 13.6996 15.8551 13.8966C15.8551 13.8966 15.9457 13.7059 15.8095 13.5488C15.6994 13.4218 15.6012 13.211 15.6012 13.211Z" fill="#73AF00"/>
<path d="M7.4718 10.4241C7.4718 10.4241 7.66047 9.92179 8.13616 10.1188C8.13616 10.1188 8.06533 10.3178 7.858 10.3325C7.69033 10.3445 7.4718 10.4241 7.4718 10.4241Z" fill="#73AF00"/>
<path d="M8.39015 10.8045C8.39015 10.8045 8.61187 10.3159 8.13623 10.1189C8.13623 10.1189 8.04562 10.3097 8.18179 10.4667C8.29195 10.5936 8.39015 10.8045 8.39015 10.8045Z" fill="#73AF00"/>
<path d="M7.35442 13.2043C7.35442 13.2043 7.23226 12.6818 7.73724 12.5814C7.73724 12.5814 7.7889 12.7862 7.6247 12.9136C7.4919 13.0167 7.35442 13.2043 7.35442 13.2043Z" fill="#73AF00"/>
<path d="M8.32933 13.0104C8.32933 13.0104 8.24224 12.4809 7.7373 12.5814C7.7373 12.5814 7.76791 12.7903 7.9684 12.8453C8.13054 12.8896 8.32933 13.0104 8.32933 13.0104Z" fill="#73AF00"/>
<path d="M16.6369 10.8111C16.6369 10.8111 16.759 11.3336 16.254 11.4341C16.254 11.4341 16.2024 11.2293 16.3666 11.1019C16.4994 10.9988 16.6369 10.8111 16.6369 10.8111Z" fill="#73AF00"/>
<path d="M15.662 11.0051C15.662 11.0051 15.7491 11.5346 16.254 11.4341C16.254 11.4341 16.2234 11.2251 16.0229 11.1702C15.8608 11.1258 15.662 11.0051 15.662 11.0051Z" fill="#73AF00"/>
<path d="M13.1922 16.649C13.1922 16.649 12.6697 16.7711 12.5692 16.2662C12.5692 16.2662 12.774 16.2145 12.9014 16.3787C13.0045 16.5115 13.1922 16.649 13.1922 16.649Z" fill="#73AF00"/>
<path d="M12.9984 15.674C12.9984 15.674 12.4689 15.7611 12.5693 16.2661C12.5693 16.2661 12.7783 16.2355 12.8332 16.035C12.8776 15.8729 12.9984 15.674 12.9984 15.674Z" fill="#73AF00"/>
<path d="M10.7991 7.36649C10.7991 7.36649 11.3216 7.24433 11.422 7.74931C11.422 7.74931 11.2172 7.80097 11.0898 7.63677C10.9867 7.50397 10.7991 7.36649 10.7991 7.36649Z" fill="#73AF00"/>
<path d="M10.993 8.34145C10.993 8.34145 11.5225 8.25436 11.4221 7.74942C11.4221 7.74942 11.2131 7.78003 11.1582 7.98051C11.1138 8.14261 10.993 8.34145 10.993 8.34145Z" fill="#73AF00"/>
<path d="M9.55991 16.1357C9.55991 16.1357 9.10405 15.8526 9.39008 15.4245C9.39008 15.4245 9.57144 15.5328 9.54542 15.739C9.52447 15.9058 9.55991 16.1357 9.55991 16.1357Z" fill="#73AF00"/>
<path d="M10.1122 15.3092C10.1122 15.3092 9.67617 14.9963 9.39014 15.4244C9.39014 15.4244 9.55959 15.5505 9.74015 15.4475C9.88617 15.3644 10.1122 15.3092 10.1122 15.3092Z" fill="#73AF00"/>
<path d="M14.4314 7.87978C14.4314 7.87978 14.8873 8.16285 14.6012 8.59091C14.6012 8.59091 14.4199 8.48263 14.4459 8.27643C14.4669 8.1097 14.4314 7.87978 14.4314 7.87978Z" fill="#73AF00"/>
<path d="M13.8792 8.70627C13.8792 8.70627 14.3151 9.01912 14.6012 8.59105C14.6012 8.59105 14.4317 8.46496 14.2511 8.5679C14.1051 8.65105 13.8792 8.70627 13.8792 8.70627Z" fill="#73AF00"/>
<path d="M16.1236 14.4435C16.1236 14.4435 15.8405 14.8993 15.4125 14.6133C15.4125 14.6133 15.5207 14.432 15.727 14.458C15.8937 14.479 16.1236 14.4435 16.1236 14.4435Z" fill="#73AF00"/>
<path d="M15.2971 13.8912C15.2971 13.8912 14.9842 14.3272 15.4123 14.6132C15.4123 14.6132 15.5384 14.4438 15.4354 14.2632C15.3522 14.1171 15.2971 13.8912 15.2971 13.8912Z" fill="#73AF00"/>
<path d="M7.86768 9.57201C7.86768 9.57201 8.15075 9.11615 8.57882 9.40218C8.57882 9.40218 8.47053 9.58354 8.26433 9.55752C8.0976 9.53652 7.86768 9.57201 7.86768 9.57201Z" fill="#73AF00"/>
<path d="M8.69419 10.1243C8.69419 10.1243 9.00703 9.6883 8.57897 9.40227C8.57897 9.40227 8.45288 9.57172 8.55581 9.75228C8.63897 9.8983 8.69419 10.1243 8.69419 10.1243Z" fill="#73AF00"/>
<path d="M8.16572 14.8894C8.16572 14.8894 7.85287 14.4534 8.28094 14.1674C8.28094 14.1674 8.40703 14.3368 8.30409 14.5174C8.22089 14.6634 8.16572 14.8894 8.16572 14.8894Z" fill="#73AF00"/>
<path d="M8.99214 14.3371C8.99214 14.3371 8.70907 13.8813 8.28101 14.1673C8.28101 14.1673 8.38929 14.3486 8.59549 14.3226C8.76222 14.3016 8.99214 14.3371 8.99214 14.3371Z" fill="#73AF00"/>
<path d="M15.8257 9.12608C15.8257 9.12608 16.1385 9.56207 15.7104 9.8481C15.7104 9.8481 15.5843 9.67865 15.6873 9.49808C15.7704 9.35207 15.8257 9.12608 15.8257 9.12608Z" fill="#73AF00"/>
<path d="M14.9991 9.67836C14.9991 9.67836 15.2822 10.1342 15.7103 9.84819C15.7103 9.84819 15.602 9.66683 15.3958 9.69284C15.2291 9.71384 14.9991 9.67836 14.9991 9.67836Z" fill="#73AF00"/>
<path d="M14.8773 15.8377C14.8773 15.8377 14.4413 16.1506 14.1553 15.7225C14.1553 15.7225 14.3247 15.5964 14.5053 15.6994C14.6513 15.7826 14.8773 15.8377 14.8773 15.8377Z" fill="#73AF00"/>
<path d="M14.325 15.0112C14.325 15.0112 13.8692 15.2943 14.1552 15.7224C14.1552 15.7224 14.3366 15.6141 14.3106 15.4079C14.2896 15.2412 14.325 15.0112 14.325 15.0112Z" fill="#73AF00"/>
<path d="M9.11401 8.17771C9.11401 8.17771 9.55 7.86487 9.83603 8.29293C9.83603 8.29293 9.66658 8.41902 9.48601 8.31609C9.34 8.23293 9.11401 8.17771 9.11401 8.17771Z" fill="#73AF00"/>
<path d="M9.66626 9.00426C9.66626 9.00426 10.1221 8.72118 9.83609 8.29312C9.83609 8.29312 9.65473 8.4014 9.68074 8.60761C9.70174 8.77434 9.66626 9.00426 9.66626 9.00426Z" fill="#73AF00"/>
<path d="M11.325 16.7536C11.325 16.7536 10.7955 16.6665 10.896 16.1615C10.896 16.1615 11.1049 16.1922 11.1599 16.3926C11.2042 16.5547 11.325 16.7536 11.325 16.7536Z" fill="#73AF00"/>
<path d="M11.519 15.7786C11.519 15.7786 10.9964 15.6565 10.896 16.1614C10.896 16.1614 11.1008 16.2131 11.2282 16.0489C11.3313 15.9161 11.519 15.7786 11.519 15.7786Z" fill="#73AF00"/>
<path d="M12.6663 7.26187C12.6663 7.26187 13.1958 7.34897 13.0953 7.8539C13.0953 7.8539 12.8863 7.82329 12.8314 7.62281C12.7871 7.46071 12.6663 7.26187 12.6663 7.26187Z" fill="#73AF00"/>
<path d="M12.4723 8.23681C12.4723 8.23681 12.9948 8.35897 13.0953 7.85399C13.0953 7.85399 12.8905 7.80233 12.7631 7.96653C12.66 8.09933 12.4723 8.23681 12.4723 8.23681Z" fill="#73AF00"/>
<path d="M16.7416 12.6784C16.7416 12.6784 16.6545 13.2079 16.1495 13.1074C16.1495 13.1074 16.1801 12.8984 16.3806 12.8435C16.5428 12.7991 16.7416 12.6784 16.7416 12.6784Z" fill="#73AF00"/>
<path d="M15.7666 12.4844C15.7666 12.4844 15.6445 13.007 16.1495 13.1074C16.1495 13.1074 16.2011 12.9026 16.0369 12.7752C15.904 12.6721 15.7666 12.4844 15.7666 12.4844Z" fill="#73AF00"/>
<path d="M7.24976 11.3371C7.24976 11.3371 7.33685 10.8076 7.84179 10.9081C7.84179 10.9081 7.81118 11.117 7.61069 11.172C7.4486 11.2164 7.24976 11.3371 7.24976 11.3371Z" fill="#73AF00"/>
<path d="M8.22476 11.531C8.22476 11.531 8.34692 11.0085 7.84193 10.9081C7.84193 10.9081 7.79028 11.1129 7.95448 11.2403C8.08728 11.3434 8.22476 11.531 8.22476 11.531Z" fill="#73AF00"/>
</svg>
