<svg width="24" height="24" viewBox="0 0 24 24" fill="none" xmlns="http://www.w3.org/2000/svg">
<path d="M23.5861 19.862H0.413812C0.185297 19.862 0 19.6767 0 19.4482V4.55174C0 4.32323 0.185297 4.13793 0.413812 4.13793H23.5862C23.8147 4.13793 24 4.32323 24 4.55174V19.4482C24 19.6768 23.8147 19.862 23.5861 19.862Z" fill="#41479B"/>
<path d="M24 19.4482V18.9911L2.65842 12L24 5.00882V4.55174C24 4.40212 23.9164 4.27701 23.7974 4.20431L0 12L23.7974 19.7957C23.9164 19.723 24 19.5979 24 19.4482Z" fill="#FF4B55"/>
<path d="M2.65845 12L24 18.9911V5.00882L2.65845 12Z" fill="#F5F5F5"/>
<path d="M21.4735 9.96354C21.4735 9.96354 22.8905 10.0236 23.0226 9.91549C23.1547 9.80745 23.1787 9.08693 22.7104 8.97889C22.2421 8.87084 20.9692 9.56731 20.9692 9.56731L21.4735 9.96354Z" fill="#FFF5DC"/>
<path d="M18.6996 11.0803C18.6996 11.0803 18.6836 11.1204 18.6756 11.2965C18.6676 11.4726 18.6996 11.9289 19.252 12.129L19.124 12.6654L19.7084 13.0176C19.7084 13.0176 20.1407 12.3772 20.1647 11.8408C20.1886 11.3045 18.6996 11.0803 18.6996 11.0803Z" fill="#D27D69"/>
<path d="M16.9464 10.7201L17.1746 10.4919C17.1746 10.4919 16.7075 10.7769 16.5301 10.52C16.298 10.1838 16.6102 9.8315 16.9344 9.67536C17.2586 9.51927 17.9071 9.63936 17.9071 9.63936L18.3154 10.6841L17.0785 11.4646L16.9464 10.7201Z" fill="#D27D69"/>
<path d="M20.777 8.72675L21.8818 8.59466C21.8818 8.59466 21.5576 9.06299 20.9212 9.41122C20.9212 9.41122 21.5816 9.41122 21.7737 9.63936C21.9659 9.8675 21.5816 10.0837 21.4375 10.1557C21.2934 10.2278 20.0446 10.9963 20.0446 10.9963L18.9279 10.8642L20.777 8.72675Z" fill="#D27D69"/>
<path d="M21.5976 7.87818C21.5976 7.87818 21.8378 7.31779 21.8298 6.92554L21.0212 7.48593C21.0212 7.48593 21.2053 7.3979 21.1413 7.07765L18.4995 8.51061L17.9631 9.46325L19.5963 9.96763L21.5976 7.87818Z" fill="#D27D69"/>
<path d="M19.6062 12.2451L19.33 12.6835C19.33 12.6835 18.8377 12.5754 18.6696 12.6955C18.5015 12.8156 18.4835 13.2659 18.7776 13.3019C18.7776 13.3019 18.9817 13.428 19.1018 13.3259C19.1018 13.3259 19.3479 13.4219 19.39 13.2658C19.432 13.1097 19.378 12.9776 19.378 12.9776H19.5521L19.8583 12.4313L19.6062 12.2451Z" fill="#FFE15A"/>
<path d="M17.1385 11.2965C17.1385 11.2965 17.907 10.9122 17.907 10.3358C17.907 9.7594 17.1945 9.72738 16.6182 9.91952C16.6182 9.91952 16.274 9.64737 16.5622 9.37512C16.9572 9.002 18.6756 8.22237 18.6756 8.22237L18.4835 9.18303C18.4835 9.18303 19.1679 9.54326 19.4441 9.37517C19.6762 9.23388 21.9418 7.45386 21.9418 7.45386C21.9418 7.45386 21.7497 8.41451 20.4048 9.37517L20.2623 10.0877C20.231 10.2443 20.1292 10.3776 19.9863 10.4489L19.4441 10.72C19.4441 10.72 20.9812 10.9121 20.9812 11.1042C20.9812 11.2963 20.5969 12.257 19.8284 12.6413L19.4441 12.257L19.6363 11.6806C19.6363 11.6806 19.0598 11.4885 18.6756 11.2963C18.6756 11.2963 18.0992 11.4885 17.715 11.4885C17.3307 11.4885 17.1385 11.2965 17.1385 11.2965Z" fill="#B95546"/>
<path d="M15.9858 12.2571V11.858C15.9858 11.7445 16.0309 11.6357 16.1111 11.5555L16.9465 10.7201L17.1387 11.1043H17.9072L17.7151 11.2964V11.4886L16.7544 12.065L15.9858 12.2571Z" fill="#FFF5DC"/>
<path d="M16.3701 12.065H15.9858C15.9858 12.065 15.6016 12.6414 15.9858 12.6414C15.9858 12.6414 16.5623 12.2571 16.7543 12.065C16.7543 12.065 16.7543 11.8729 16.3701 12.065Z" fill="#FFE15A"/>
<path d="M21.0567 12.9173H18.4006C18.3788 12.8937 18.3481 12.8785 18.3135 12.8785C18.3135 12.8785 17.8482 12.6857 17.782 12.6857H17.7275C17.6614 12.6857 17.6077 12.7393 17.6077 12.8055V12.9173H17.0005V12.8055C17.0005 12.7393 16.9469 12.6857 16.8807 12.6857H16.8262C16.7601 12.6857 16.7064 12.7393 16.7064 12.8055V12.8075C16.4462 12.7969 15.8898 12.7637 15.6016 12.6677L14.0646 13.0519L15.6016 13.4362C15.8897 13.3401 16.4461 13.3069 16.7064 13.2963V13.2983C16.7064 13.3645 16.76 13.4181 16.8262 13.4181H16.8807C16.9469 13.4181 17.0005 13.3645 17.0005 13.2983V13.1865H17.6077V13.2983C17.6077 13.3645 17.6613 13.4181 17.7275 13.4181H17.782C17.8482 13.4181 18.3135 13.2253 18.3135 13.2253C18.3481 13.2253 18.3788 13.2101 18.4006 13.1865H21.0567C21.1311 13.1865 21.1913 13.1261 21.1913 13.0519C21.1913 12.9776 21.1311 12.9173 21.0567 12.9173Z" fill="#FFE15A"/>
<path d="M20.9413 13.4339C20.7811 13.4019 18.9479 13.7221 18.9479 13.7221C18.9479 13.7221 18.8358 13.61 19.172 13.2978L19.0119 13.2578C19.0119 13.2578 18.6597 13.5059 18.5156 13.5379C18.3915 13.5655 18.1142 13.7003 18.0547 13.8803L16.9385 14.0663L16.9625 14.1624L18.0573 14.034C18.1096 14.2022 18.2817 14.2365 18.4035 14.1864C18.4035 14.1864 18.5636 14.2504 18.7077 14.1383C18.7077 14.1383 18.9959 14.1864 19.0118 13.9222L21.0212 13.618C21.0213 13.6181 21.1013 13.4659 20.9413 13.4339Z" fill="#FFE15A"/>
<path d="M19.8044 14.7869C19.8044 14.7869 19.6522 14.987 19.276 14.8109C18.8998 14.6348 18.4594 14.8269 18.2193 14.7708C17.9791 14.7148 17.6189 14.5707 17.2827 14.6988C16.9465 14.8269 16.7623 14.8189 16.8344 14.6588C16.9064 14.4987 16.9464 14.3786 16.8344 14.3226L16.9624 14.1625L16.9384 14.0664C16.9384 14.0664 16.298 13.8183 15.8657 14.1625C15.4334 14.5067 15.5616 15.2912 16.282 15.3473C16.282 15.3473 16.5062 15.6274 17.0586 15.5474C17.0586 15.5474 17.4188 15.7955 18.0352 15.6834C18.0352 15.6834 18.0592 15.7555 18.4595 15.7235C18.8598 15.6915 19.3081 15.7395 19.228 16.0117C19.228 16.0117 19.5242 15.9557 19.3481 15.6834C19.3481 15.6834 19.7003 15.6674 19.9405 15.8756C19.9405 15.8756 19.9566 15.6355 19.7244 15.5073C19.7244 15.5073 20.1167 15.3712 20.3328 15.5073C20.3328 15.5073 20.1887 15.2031 19.8045 15.2431C19.8045 15.2431 20.0846 15.019 20.2127 15.075C20.2127 15.075 20.0926 14.9309 19.7404 15.075C19.7404 15.075 19.9645 14.939 19.8044 14.7869Z" fill="#FFE15A"/>
</svg>
