<svg width="24" height="24" viewBox="0 0 24 24" fill="none" xmlns="http://www.w3.org/2000/svg">
<path d="M24 9.37935H0V4.55175C0 4.32324 0.185297 4.13794 0.413812 4.13794H23.5862C23.8147 4.13794 24 4.32324 24 4.55175L24 9.37935Z" fill="#82AFFF"/>
<path d="M23.5861 19.8621H0.413812C0.185297 19.8621 0 19.6768 0 19.4483V14.6207H24V19.4483C24 19.6768 23.8147 19.8621 23.5861 19.8621Z" fill="#73AF00"/>
<path d="M24 9.37927H0V14.6204H24V9.37927Z" fill="#F5F5F5"/>
<path d="M24 8.91382H0V9.56735H24V8.91382Z" fill="#FF4B55"/>
<path d="M24 14.4324H0V15.0859H24V14.4324Z" fill="#FF4B55"/>
<path d="M5.31993 8.06589C4.47281 8.06589 3.78614 7.38086 3.78614 6.53679C3.78614 5.68962 4.47276 5.00149 5.31993 5.00149C5.32321 5.00149 5.3264 5.00149 5.32959 5.00154C5.37946 5.0022 5.39694 4.93596 5.35298 4.91238C5.09212 4.77256 4.79441 4.69343 4.47792 4.69573C3.46429 4.70295 2.64093 5.5429 2.65172 6.55652C2.66231 7.55969 3.48243 8.3717 4.49118 8.3717C4.80332 8.3717 5.09685 8.29272 5.35448 8.15481C5.3983 8.13133 5.38059 8.0651 5.3309 8.0658C5.32715 8.06589 5.32354 8.06589 5.31993 8.06589Z" fill="#F5F5F5"/>
<path d="M6.52091 7.64298L6.45243 7.84839L6.23591 7.85003C6.20788 7.85021 6.19626 7.88603 6.2188 7.90267L6.39299 8.03129L6.32765 8.23773C6.31921 8.26445 6.34963 8.28657 6.37246 8.27026L6.54862 8.14435L6.72477 8.27026C6.7476 8.28657 6.77797 8.26445 6.76958 8.23773L6.70424 8.03129L6.87838 7.90267C6.90093 7.88603 6.8893 7.85021 6.86127 7.85003L6.64476 7.84839L6.57627 7.64298C6.56741 7.6164 6.52982 7.6164 6.52091 7.64298Z" fill="#F5F5F5"/>
<path d="M8.04643 7.64298L7.97794 7.84839L7.76143 7.85003C7.7334 7.85021 7.72177 7.88603 7.74432 7.90267L7.91846 8.03129L7.85311 8.23773C7.84468 8.26445 7.8751 8.28657 7.89793 8.27026L8.07408 8.14435L8.25024 8.27026C8.27307 8.28657 8.30344 8.26445 8.29505 8.23773L8.22971 8.03129L8.40385 7.90267C8.42639 7.88603 8.41477 7.85021 8.38674 7.85003L8.17022 7.84839L8.10174 7.64298C8.09288 7.6164 8.05524 7.6164 8.04643 7.64298Z" fill="#F5F5F5"/>
<path d="M9.57182 7.64298L9.50333 7.84839L9.28682 7.85003C9.25879 7.85021 9.24716 7.88603 9.26971 7.90267L9.44389 8.03129L9.37855 8.23773C9.37011 8.26445 9.40054 8.28657 9.42336 8.27026L9.59952 8.14435L9.77568 8.27026C9.7985 8.28657 9.82888 8.26445 9.82049 8.23773L9.75514 8.03129L9.92928 7.90267C9.95183 7.88603 9.94021 7.85021 9.91217 7.85003L9.69566 7.84839L9.62718 7.64298C9.61832 7.6164 9.58068 7.6164 9.57182 7.64298Z" fill="#F5F5F5"/>
<path d="M11.0972 7.64298L11.0287 7.84839L10.8122 7.85003C10.7842 7.85021 10.7726 7.88603 10.7951 7.90267L10.9692 8.03129L10.9039 8.23773C10.8955 8.26445 10.9259 8.28657 10.9487 8.27026L11.1249 8.14435L11.301 8.27026C11.3238 8.28657 11.3542 8.26445 11.3458 8.23773L11.2805 8.03129L11.4546 7.90267C11.4772 7.88603 11.4656 7.85021 11.4375 7.85003L11.221 7.84839L11.1525 7.64298C11.1437 7.6164 11.1061 7.6164 11.0972 7.64298Z" fill="#F5F5F5"/>
<path d="M12.6227 7.64298L12.5542 7.84839L12.3377 7.85003C12.3097 7.85021 12.2981 7.88603 12.3206 7.90267L12.4948 8.03129L12.4295 8.23773C12.421 8.26445 12.4514 8.28657 12.4743 8.27026L12.6504 8.14435L12.8266 8.27026C12.8494 8.28657 12.8798 8.26445 12.8714 8.23773L12.806 8.03129L12.9802 7.90267C13.0028 7.88603 12.9912 7.85021 12.9631 7.85003L12.7466 7.84839L12.6781 7.64298C12.6692 7.6164 12.6316 7.6164 12.6227 7.64298Z" fill="#F5F5F5"/>
<path d="M8.04643 6.21934L7.97794 6.42475L7.76143 6.42639C7.7334 6.42658 7.72177 6.46239 7.74432 6.47903L7.91846 6.60766L7.85311 6.81409C7.84468 6.84081 7.8751 6.86294 7.89793 6.84662L8.07408 6.72072L8.25024 6.84662C8.27307 6.86294 8.30344 6.84081 8.29505 6.81409L8.22971 6.60766L8.40385 6.47903C8.42639 6.46239 8.41477 6.42658 8.38674 6.42639L8.17022 6.42475L8.10174 6.21934C8.09288 6.19267 8.05524 6.19267 8.04643 6.21934Z" fill="#F5F5F5"/>
<path d="M9.57182 6.21934L9.50333 6.42475L9.28682 6.42639C9.25879 6.42658 9.24716 6.46239 9.26971 6.47903L9.44389 6.60766L9.37855 6.81409C9.37011 6.84081 9.40054 6.86294 9.42336 6.84662L9.59952 6.72072L9.77568 6.84662C9.7985 6.86294 9.82888 6.84081 9.82049 6.81409L9.75514 6.60766L9.92928 6.47903C9.95183 6.46239 9.94021 6.42658 9.91217 6.42639L9.69566 6.42475L9.62718 6.21934C9.61832 6.19267 9.58068 6.19267 9.57182 6.21934Z" fill="#F5F5F5"/>
<path d="M11.0972 6.21934L11.0287 6.42475L10.8122 6.42639C10.7842 6.42658 10.7726 6.46239 10.7951 6.47903L10.9692 6.60766L10.9039 6.81409C10.8955 6.84081 10.9259 6.86294 10.9487 6.84662L11.1249 6.72072L11.301 6.84662C11.3238 6.86294 11.3542 6.84081 11.3458 6.81409L11.2805 6.60766L11.4546 6.47903C11.4772 6.46239 11.4656 6.42658 11.4375 6.42639L11.221 6.42475L11.1525 6.21934C11.1437 6.19267 11.1061 6.19267 11.0972 6.21934Z" fill="#F5F5F5"/>
<path d="M12.6227 6.21934L12.5542 6.42475L12.3377 6.42639C12.3097 6.42658 12.2981 6.46239 12.3206 6.47903L12.4948 6.60766L12.4295 6.81409C12.421 6.84081 12.4514 6.86294 12.4743 6.84662L12.6504 6.72072L12.8266 6.84662C12.8494 6.86294 12.8798 6.84081 12.8714 6.81409L12.806 6.60766L12.9802 6.47903C13.0028 6.46239 12.9912 6.42658 12.9631 6.42639L12.7466 6.42475L12.6781 6.21934C12.6692 6.19267 12.6316 6.19267 12.6227 6.21934Z" fill="#F5F5F5"/>
<path d="M9.57182 7.64298L9.50333 7.84839L9.28682 7.85003C9.25879 7.85021 9.24716 7.88603 9.26971 7.90267L9.44389 8.03129L9.37855 8.23773C9.37011 8.26445 9.40054 8.28657 9.42336 8.27026L9.59952 8.14435L9.77568 8.27026C9.7985 8.28657 9.82888 8.26445 9.82049 8.23773L9.75514 8.03129L9.92928 7.90267C9.95183 7.88603 9.94021 7.85021 9.91217 7.85003L9.69566 7.84839L9.62718 7.64298C9.61832 7.6164 9.58068 7.6164 9.57182 7.64298Z" fill="#F5F5F5"/>
<path d="M9.57182 4.79557L9.50333 5.00097L9.28682 5.00261C9.25879 5.0028 9.24716 5.03861 9.26971 5.05526L9.44389 5.18388L9.37855 5.39032C9.37011 5.41704 9.40054 5.43916 9.42336 5.42285L9.59952 5.29694L9.77568 5.42285C9.7985 5.43916 9.82888 5.41704 9.82049 5.39032L9.75514 5.18388L9.92928 5.05526C9.95183 5.03861 9.94021 5.0028 9.91217 5.00261L9.69566 5.00097L9.62718 4.79557C9.61832 4.76899 9.58068 4.76899 9.57182 4.79557Z" fill="#F5F5F5"/>
<path d="M11.0972 7.64298L11.0287 7.84839L10.8122 7.85003C10.7842 7.85021 10.7726 7.88603 10.7951 7.90267L10.9692 8.03129L10.9039 8.23773C10.8955 8.26445 10.9259 8.28657 10.9487 8.27026L11.1249 8.14435L11.301 8.27026C11.3238 8.28657 11.3542 8.26445 11.3458 8.23773L11.2805 8.03129L11.4546 7.90267C11.4772 7.88603 11.4656 7.85021 11.4375 7.85003L11.221 7.84839L11.1525 7.64298C11.1437 7.6164 11.1061 7.6164 11.0972 7.64298Z" fill="#F5F5F5"/>
<path d="M12.6227 7.64298L12.5542 7.84839L12.3377 7.85003C12.3097 7.85021 12.2981 7.88603 12.3206 7.90267L12.4948 8.03129L12.4295 8.23773C12.421 8.26445 12.4514 8.28657 12.4743 8.27026L12.6504 8.14435L12.8266 8.27026C12.8494 8.28657 12.8798 8.26445 12.8714 8.23773L12.806 8.03129L12.9802 7.90267C13.0028 7.88603 12.9912 7.85021 12.9631 7.85003L12.7466 7.84839L12.6781 7.64298C12.6692 7.6164 12.6316 7.6164 12.6227 7.64298Z" fill="#F5F5F5"/>
<path d="M11.0972 4.79557L11.0287 5.00097L10.8122 5.00261C10.7842 5.0028 10.7726 5.03861 10.7951 5.05526L10.9692 5.18388L10.9039 5.39032C10.8955 5.41704 10.9259 5.43916 10.9487 5.42285L11.1249 5.29694L11.301 5.42285C11.3238 5.43916 11.3542 5.41704 11.3458 5.39032L11.2805 5.18388L11.4546 5.05526C11.4772 5.03861 11.4656 5.0028 11.4375 5.00261L11.221 5.00097L11.1525 4.79557C11.1437 4.76899 11.1061 4.76899 11.0972 4.79557Z" fill="#F5F5F5"/>
<path d="M12.6227 4.79557L12.5542 5.00097L12.3377 5.00261C12.3097 5.0028 12.2981 5.03861 12.3206 5.05526L12.4948 5.18388L12.4295 5.39032C12.421 5.41704 12.4514 5.43916 12.4743 5.42285L12.6504 5.29694L12.8266 5.42285C12.8494 5.43916 12.8798 5.41704 12.8714 5.39032L12.806 5.18388L12.9802 5.05526C13.0028 5.03861 12.9912 5.0028 12.9631 5.00261L12.7466 5.00097L12.6781 4.79557C12.6692 4.76899 12.6316 4.76899 12.6227 4.79557Z" fill="#F5F5F5"/>
</svg>
