<svg width="24" height="24" viewBox="0 0 24 24" fill="none" xmlns="http://www.w3.org/2000/svg">
<path d="M23.5861 19.8621H0.413812C0.185297 19.8621 0 19.6768 0 19.4483V4.55175C0 4.32324 0.185297 4.13794 0.413812 4.13794H23.5862C23.8147 4.13794 24 4.32324 24 4.55175V19.4483C24 19.6768 23.8147 19.8621 23.5861 19.8621Z" fill="#41479B"/>
<path d="M11.5862 4.138H10.8674L7.03442 6.64928V4.138H4.96546V6.64928L1.1325 4.138H0.413812C0.185297 4.138 0 4.32325 0 4.55177V4.87998L3.28851 7.03449H0V9.10346H3.28851L0 11.258V11.5862C0 11.8148 0.185297 12 0.413812 12H1.13259L4.96555 9.48877V12H7.03452V9.48877L10.8674 12H11.5862C11.8147 12 12 11.8148 12 11.5862V11.258L8.71151 9.10351H12V7.03454H8.71147L12 4.88003V4.55181C12 4.32325 11.8147 4.138 11.5862 4.138Z" fill="#F5F5F5"/>
<path d="M12 7.44835H6.62066V4.138H5.37932V7.44835H0V8.6897H5.37932V12H6.62066V8.6897H12V7.44835Z" fill="#FF4B55"/>
<path d="M4.55169 7.03455L0.197203 4.20795C0.081328 4.28126 0 4.40449 0 4.55177V4.57324L3.79166 7.03455H4.55169Z" fill="#FF4B55"/>
<path d="M7.79445 7.03454L11.937 4.34552C11.865 4.22369 11.7379 4.138 11.5861 4.138H11.4966L7.03442 7.03454H7.79445Z" fill="#FF4B55"/>
<path d="M4.19405 9.10352L0.0594482 11.7874C0.130745 11.9122 0.259745 12.0001 0.413776 12.0001H0.491822L4.95413 9.10352H4.19405Z" fill="#FF4B55"/>
<path d="M11.9934 11.6187L8.11843 9.10352H7.3584L11.7587 11.9598C11.8905 11.8987 11.981 11.7705 11.9934 11.6187Z" fill="#FF4B55"/>
<path d="M20.7482 8.77692H15.2512V13.0252H20.7482V8.77692Z" fill="#82AFFF"/>
<path d="M15.2513 13.0251C15.2513 14.4741 16.8755 15.6488 18 15.6488C18.9995 15.6488 20.7486 14.4741 20.7486 13.0251H15.2513Z" fill="#C86464"/>
<path d="M18.7339 10.3285C18.8224 10.3441 18.9734 10.365 18.989 10.5784C19.0046 10.7918 18.9265 11.5519 18.8485 11.6455C18.8485 11.6455 19.1036 12.2234 19.114 12.567C19.1244 12.9105 19.0776 13.9387 19.1088 14.1026C19.1401 14.2666 19.2572 14.6024 19.2572 14.6024C19.2572 14.6024 18.898 14.3916 18.7574 14.5243C18.6169 14.657 18.1015 14.8367 17.8984 14.6258C17.8984 14.6258 18.1405 13.9387 18.1405 13.1578C18.1405 12.3769 18.1405 10.4482 18.1405 10.4482C18.1405 10.4482 18.242 10.3675 18.3747 10.3649C18.5075 10.3623 18.7339 10.3285 18.7339 10.3285Z" fill="#73AF00"/>
<path d="M18.7859 14.4567C18.8015 14.5556 18.8431 14.6285 18.8223 14.6649C18.8015 14.7014 18.6662 15.0345 18.7442 15.0345C18.8223 15.0345 18.9577 14.9929 18.9941 14.92C19.0306 14.8471 19.0462 14.7378 19.067 14.7066C19.0879 14.6753 19.0306 14.5191 18.9837 14.4931C18.9369 14.4671 18.7859 14.4567 18.7859 14.4567Z" fill="#FFF5E1"/>
<path d="M17.8854 10.5471L17.5991 10.5836C17.5991 10.5836 17.6355 10.3962 17.6407 10.266C17.6459 10.1359 17.6563 9.89642 17.6563 9.89642C17.6563 9.89642 17.8593 9.7715 17.8645 9.75064C17.8671 9.74023 17.8912 9.67517 17.8724 9.64133C17.8535 9.60748 17.7917 9.60486 17.7917 9.60486C17.7917 9.60486 17.5522 9.72978 17.5522 9.75064C17.5522 9.7715 17.5522 9.89642 17.5262 9.94325C17.5002 9.99012 17.3544 10.3805 17.344 10.4847C17.3336 10.5888 17.318 10.8074 17.3596 10.8178C17.4012 10.8282 17.8333 10.8751 17.8802 10.8543C17.927 10.8334 17.8854 10.5471 17.8854 10.5471Z" fill="#FFF5E1"/>
<path d="M19.1826 9.51899H18.1405V9.02704H17.7813V9.51899H16.7393V9.87819H17.7813V14.6025H18.1405V9.87819H19.1826V9.51899Z" fill="#464655"/>
<path d="M18.5674 10.1567C18.5674 10.1567 18.9162 10.2571 18.963 10.141C19.0177 10.0057 18.8355 9.98748 18.8016 9.84433C18.7978 9.82829 18.7652 9.63611 18.6246 9.59969C18.4841 9.56322 18.3539 9.59969 18.3487 9.69339C18.3436 9.78709 18.5674 10.1567 18.5674 10.1567Z" fill="#963C3C"/>
<path d="M18.3799 10.5992C18.3696 10.6009 18.3539 10.4951 18.3747 10.3649C18.3956 10.2348 18.3747 10.1931 18.3747 10.1931C18.3747 10.1931 18.229 10.2087 18.229 10.1515C18.229 10.0942 18.2602 9.82869 18.3487 9.69336C18.3487 9.69336 18.4112 9.77145 18.5257 9.77145C18.5257 9.77145 18.5205 9.86516 18.583 9.92759C18.583 9.92759 18.5049 9.99523 18.5414 10.0421C18.5778 10.089 18.6455 10.1462 18.6455 10.1462C18.6455 10.1462 18.6507 10.2556 18.734 10.3284C18.7339 10.3285 18.6298 10.5575 18.3799 10.5992Z" fill="#FFF5E1"/>
<path d="M16.985 12.8588H16.9537V13.4782H16.985V12.8588Z" fill="#464655"/>
<path d="M17.1106 12.7388H17.0793V13.5981H17.1106V12.7388Z" fill="#464655"/>
<path d="M17.2362 12.6291H17.205V13.7077H17.2362V12.6291Z" fill="#464655"/>
<path d="M17.3618 12.472H17.3306V13.8637H17.3618V12.472Z" fill="#464655"/>
<path d="M17.4874 12.2672H17.4562V14.0683H17.4874V12.2672Z" fill="#464655"/>
<path d="M17.6131 12.2672H17.5819V14.1525H17.6131V12.2672Z" fill="#464655"/>
<path d="M18.1457 13.2541C18.0077 12.5362 17.6251 12.1192 17.4898 12.0985C17.3544 12.0777 17.2556 12.187 17.2452 12.2651C17.2347 12.3432 17.1619 12.5774 17.0109 12.6867C16.8599 12.7961 16.5788 12.8585 16.5163 13.0615C16.4539 13.2645 16.6205 13.353 16.7194 13.3322C16.7268 13.3306 16.734 13.3277 16.7414 13.3253L17.8056 14.6344C17.8443 14.6819 17.9195 14.6742 17.9465 14.619C18.0559 14.3955 18.2635 13.8662 18.1457 13.2541ZM16.8308 13.2687C16.8725 13.2238 16.8901 13.1621 16.8443 13.098C16.7662 12.9886 16.6777 13.1449 16.6777 13.1449C16.6777 13.1449 16.6517 13.0095 16.8547 12.9418C17.0577 12.8742 17.2868 12.7597 17.3909 12.515C17.495 12.2703 17.4898 12.3171 17.4898 12.3171C17.4898 12.3171 17.9063 12.5514 17.9636 13.2854C18.0208 14.0194 17.8178 14.3162 17.8178 14.3162L16.8308 13.2687Z" fill="#FFE15A"/>
<path d="M17.7813 11.6836C17.7335 11.7142 17.6904 11.7405 17.6603 11.7562C17.5627 11.8069 17.4455 11.8577 17.4338 11.9046C17.4221 11.9514 17.3557 11.9905 17.3597 12.0451C17.3636 12.0997 17.3597 12.2637 17.3597 12.2637C17.4182 12.252 17.5354 12.2325 17.5744 12.1622C17.6135 12.0919 17.6486 11.9552 17.7736 11.8967C17.7758 11.8957 17.7791 11.8946 17.7814 11.8935V11.6836H17.7813Z" fill="#FFF5E1"/>
<path d="M18.8159 10.6864C18.7573 10.7138 18.5816 10.9246 18.5543 11.0222C18.527 11.1198 18.4411 11.3502 18.4411 11.3502C18.4411 11.3502 18.2637 11.3734 18.1405 11.4423V11.7833C18.2088 11.7635 18.2692 11.744 18.3045 11.7251C18.406 11.6704 18.5504 11.5689 18.6246 11.5494C18.6988 11.5299 18.7613 11.4049 18.7886 11.3308C18.8159 11.2566 18.9018 11.0379 18.9135 10.8896C18.9252 10.7411 18.8744 10.6591 18.8159 10.6864Z" fill="#FFF5E1"/>
<path d="M17.9999 15.7374L17.9863 15.7352C15.1959 15.2947 15.1638 12.8778 15.1638 12.7753V8.6897H20.8361V12.7752C20.8361 12.8778 20.804 15.2946 18.0136 15.7352L17.9999 15.7374ZM15.3388 8.86463V12.7752C15.3388 12.8716 15.369 15.1371 17.9999 15.5602C20.6309 15.1371 20.6611 12.8716 20.6611 12.7752V8.86463H15.3388Z" fill="#F5F5F5"/>
</svg>
