<svg width="24" height="24" viewBox="0 0 24 24" fill="none" xmlns="http://www.w3.org/2000/svg">
<path d="M23.5861 19.8621H0.413812C0.185297 19.8621 0 19.6768 0 19.4483V4.55175C0 4.32324 0.185297 4.13794 0.413812 4.13794H23.5862C23.8147 4.13794 24 4.32324 24 4.55175V19.4483C24 19.6768 23.8147 19.8621 23.5861 19.8621Z" fill="#82AFFF"/>
<path d="M11.5862 12H0.413812C0.185297 12 0 11.8147 0 11.5862V4.55175C0 4.32324 0.185297 4.13794 0.413812 4.13794H11.5862C11.8147 4.13794 12 4.32324 12 4.55175V11.5862C12 11.8147 11.8147 12 11.5862 12Z" fill="#41479B"/>
<path d="M11.5862 4.138H10.8674L7.03442 6.64928V4.138H4.96546V6.64928L1.1325 4.138H0.413812C0.185297 4.138 0 4.32325 0 4.55177V4.87998L3.28851 7.03449H0V9.10346H3.28851L0 11.258V11.5862C0 11.8148 0.185297 12 0.413812 12H1.13259L4.96555 9.48877V12H7.03452V9.48877L10.8674 12H11.5862C11.8147 12 12 11.8148 12 11.5862V11.258L8.71151 9.10351H12V7.03454H8.71147L12 4.88003V4.55181C12 4.32325 11.8147 4.138 11.5862 4.138Z" fill="#F5F5F5"/>
<path d="M12 7.44835H6.62066V4.138H5.37932V7.44835H0V8.6897H5.37932V12H6.62066V8.6897H12V7.44835Z" fill="#FF4B55"/>
<path d="M4.55169 7.03455L0.197203 4.20795C0.081328 4.28126 0 4.40449 0 4.55177V4.57324L3.79166 7.03455H4.55169Z" fill="#FF4B55"/>
<path d="M7.79445 7.03454L11.937 4.34552C11.865 4.22369 11.7379 4.138 11.5861 4.138H11.4966L7.03442 7.03454H7.79445Z" fill="#FF4B55"/>
<path d="M4.19405 9.10352L0.0594482 11.7874C0.130745 11.9122 0.259745 12.0001 0.413776 12.0001H0.491822L4.95413 9.10352H4.19405Z" fill="#FF4B55"/>
<path d="M11.9934 11.6187L8.11843 9.10352H7.3584L11.7587 11.9598C11.8905 11.8987 11.981 11.7705 11.9934 11.6187Z" fill="#FF4B55"/>
<path d="M10.2499 16.5639L10.0284 17.2281L9.32825 17.2335C9.26112 17.234 9.23328 17.3197 9.28728 17.3596L9.85048 17.7755L9.63931 18.4431C9.61901 18.5071 9.69195 18.56 9.74661 18.521L10.3162 18.1139L10.8859 18.521C10.9405 18.5601 11.0134 18.5071 10.9931 18.4431L10.782 17.7755L11.3452 17.3596C11.3992 17.3197 11.3713 17.234 11.3042 17.2335L10.6041 17.2281L10.3826 16.5639C10.3613 16.5002 10.2711 16.5002 10.2499 16.5639Z" fill="#FFE15A"/>
<path d="M21.0343 11.3915L20.8128 12.0557L20.1127 12.0611C20.0455 12.0616 20.0177 12.1473 20.0717 12.1872L20.6349 12.6031L20.4237 13.2707C20.4034 13.3347 20.4764 13.3876 20.531 13.3486L21.1007 12.9415L21.6703 13.3486C21.7249 13.3877 21.7978 13.3347 21.7776 13.2707L21.5664 12.6031L22.1296 12.1872C22.1836 12.1473 22.1558 12.0616 22.0886 12.0611L21.3885 12.0557L21.167 11.3915C21.1457 11.3278 21.0556 11.3278 21.0343 11.3915Z" fill="#FFE15A"/>
<path d="M21.0343 5.80532L20.8128 6.46949L20.1127 6.47493C20.0455 6.47544 20.0177 6.56113 20.0717 6.60102L20.6349 7.01694L20.4237 7.68449C20.4034 7.74852 20.4764 7.80144 20.531 7.76244L21.1007 7.35533L21.6703 7.76244C21.7249 7.80149 21.7978 7.74852 21.7776 7.68449L21.5664 7.01694L22.1296 6.60102C22.1836 6.56113 22.1558 6.47544 22.0886 6.47493L21.3885 6.46949L21.167 5.80532C21.1457 5.74157 21.0556 5.74157 21.0343 5.80532Z" fill="#FFE15A"/>
<path d="M13.0224 13.0695L13.2411 13.7346L12.6825 14.1568C12.629 14.1973 12.6577 14.2827 12.7249 14.2824L13.425 14.28L13.654 14.9417C13.676 15.0051 13.766 15.0041 13.7866 14.9402L14.0006 14.2735L14.7006 14.2602C14.7678 14.2589 14.7946 14.1729 14.7402 14.1337L14.1723 13.7241L14.376 13.0542C14.3955 12.99 14.322 12.9378 14.2679 12.9775L13.7029 13.391L13.1288 12.9903C13.0737 12.952 13.0014 13.0057 13.0224 13.0695Z" fill="#FFE15A"/>
<path d="M12.9706 15.9402L13.1893 16.6053L12.6308 17.0275C12.5772 17.068 12.606 17.1533 12.6732 17.1531L13.3733 17.1507L13.6023 17.8123C13.6242 17.8758 13.7143 17.8748 13.7348 17.8108L13.9489 17.1442L14.6489 17.1309C14.716 17.1295 14.7429 17.0436 14.6884 17.0043L14.1206 16.5947L14.3242 15.9249C14.3438 15.8606 14.2703 15.8085 14.2161 15.8482L13.6512 16.2617L13.077 15.861C13.0219 15.8226 12.9496 15.8764 12.9706 15.9402Z" fill="#FFE15A"/>
<path d="M15.9965 15.2161L16.2152 15.8812L15.6567 16.3034C15.6031 16.3439 15.6319 16.4292 15.699 16.429L16.3992 16.4266L16.6281 17.0882C16.6501 17.1517 16.7402 17.1507 16.7607 17.0867L16.9747 16.4201L17.6748 16.4067C17.7419 16.4054 17.7687 16.3195 17.7143 16.2802L17.1464 15.8707L17.3501 15.2008C17.3697 15.1365 17.2962 15.0844 17.242 15.1241L16.677 15.5376L16.1029 15.137C16.0478 15.0985 15.9755 15.1523 15.9965 15.2161Z" fill="#FFE15A"/>
<path d="M15.9447 8.95747L16.1634 9.62258L15.6049 10.0448C15.5514 10.0853 15.5801 10.1706 15.6473 10.1704L16.3474 10.168L16.5764 10.8296C16.5984 10.8931 16.6884 10.892 16.7089 10.8281L16.923 10.1614L17.623 10.1481C17.6901 10.1468 17.717 10.0609 17.6626 10.0216L17.0947 9.61208L17.2983 8.94219C17.3179 8.87797 17.2444 8.8258 17.1903 8.8655L16.6253 9.27903L16.0511 8.87834C15.996 8.83991 15.9237 8.89367 15.9447 8.95747Z" fill="#FFE15A"/>
<path d="M18.505 8.104L18.7237 8.76911L18.1652 9.19131C18.1117 9.23181 18.1404 9.31717 18.2076 9.31693L18.9077 9.3145L19.1367 9.97614C19.1587 10.0396 19.2487 10.0386 19.2692 9.97464L19.4833 9.30798L20.1833 9.29467C20.2504 9.29336 20.2773 9.20739 20.2229 9.16815L19.655 8.75856L19.8587 8.08867C19.8782 8.02445 19.8047 7.97228 19.7506 8.01198L19.1856 8.42551L18.6115 8.02483C18.5564 7.98644 18.484 8.0402 18.505 8.104Z" fill="#FFE15A"/>
</svg>
