<svg width="24" height="24" viewBox="0 0 24 24" fill="none" xmlns="http://www.w3.org/2000/svg">
<path d="M23.5861 19.862H0.413812C0.185297 19.862 0 19.6767 0 19.4482V4.55175C0 4.32324 0.185297 4.13794 0.413812 4.13794H23.5862C23.8147 4.13794 24 4.32324 24 4.55175V19.4482C24 19.6768 23.8147 19.862 23.5861 19.862Z" fill="#41479B"/>
<path d="M23.5861 4.13794H0.413812C0.185297 4.13794 0 4.32324 0 4.55175V19.4482C0 19.6767 0.185297 19.862 0.413812 19.862H23.5862C23.8147 19.862 24 19.6767 24 19.4482V4.55175C24 4.32324 23.8147 4.13794 23.5861 4.13794ZM23.1723 11.5862H19.1372L12.4138 8.02678V4.96552H23.1724V11.5862H23.1723ZM11.9999 15.256L5.8499 12L12 8.74401L18.1501 12L11.9999 15.256ZM11.5862 4.96552V8.02678L4.86276 11.5862H0.827577V4.96552H11.5862ZM0.827577 12.4138H4.86276L11.5862 15.9732V19.0345H0.827577V12.4138ZM12.4137 19.0345V15.9732L19.1372 12.4138H23.1723V19.0345H12.4137Z" fill="#FF4B55"/>
<path d="M11.9999 8.74402L5.84985 12L11.9999 15.256L18.15 12L11.9999 8.74402Z" fill="#F5F5F5"/>
<path d="M9.93096 14.1606H14.0689L16.9499 12.6354L15.6539 11.3394H15.2014L14.8674 11.6733L14.6292 11.4351H14.1527L12.3249 13.2629H10.0303L9.50927 12.4914H8.84801L8.58748 12.8564H8.29465L8.11877 13.2012L9.93096 14.1606Z" fill="#73AF00"/>
<path d="M12.0554 10.0175L12.2199 10.5106L12.7397 10.5147C12.807 10.5152 12.8349 10.6011 12.7808 10.6411L12.3626 10.9499L12.5195 11.4455C12.5398 11.5097 12.4667 11.5628 12.4119 11.5236L11.989 11.2213L11.5661 11.5236C11.5113 11.5627 11.4383 11.5096 11.4586 11.4455L11.6154 10.9499L11.1973 10.6411C11.1431 10.6011 11.1711 10.5152 11.2383 10.5147L11.7582 10.5106L11.9226 10.0175C11.9438 9.95372 12.0341 9.95372 12.0554 10.0175Z" fill="#FFE15A"/>
</svg>
