<svg width="24" height="24" viewBox="0 0 24 24" fill="none" xmlns="http://www.w3.org/2000/svg">
<path d="M23.5861 19.862H0.413812C0.185297 19.862 0 19.6767 0 19.4482V4.55174C0 4.32322 0.185297 4.13792 0.413812 4.13792H23.5862C23.8147 4.13792 24 4.32322 24 4.55174V19.4482C24 19.6768 23.8147 19.862 23.5861 19.862Z" fill="#FF4B55"/>
<path d="M24 4.55174C24 4.32322 23.8147 4.13792 23.5861 4.13792H22.1125L11.9999 10.7634L1.88747 4.13792H0.413812C0.185297 4.13792 0 4.32322 0 4.55174V5.37458L10.1125 12L0 18.6254V19.4483C0 19.6768 0.185297 19.8621 0.413812 19.8621H1.88747L12 13.2366L22.1125 19.8621H23.5861C23.8147 19.8621 24 19.6768 24 19.4483V18.6254L13.8874 12L23.9999 5.37453L24 4.55174Z" fill="#73AF00"/>
<path d="M24 10.9655H13.0344V4.13792H10.9655V10.9655H0V13.0345H10.9655V19.862H13.0344V13.0345H24V10.9655Z" fill="#F5F5F5"/>
</svg>
