<svg width="24" height="24" viewBox="0 0 24 24" fill="none" xmlns="http://www.w3.org/2000/svg">
<path d="M23.9999 12H0.00280762V4.5526C0.00280762 4.32414 0.188056 4.13884 0.41657 4.13884H23.5861C23.8146 4.13884 23.9999 4.32409 23.9999 4.5526V12V12Z" fill="#41479B"/>
<path d="M0.00280762 12H23.9999V19.4473C23.9999 19.6758 23.8147 19.8611 23.5862 19.8611H0.41657C0.188103 19.8611 0.00280762 19.6759 0.00280762 19.4473V12Z" fill="#F5F5F5"/>
<path d="M23.5862 4.13889H21.1038L13.4388 6.64982V4.13889H10.5641V6.64982L2.89905 4.13889H0.41657C0.188103 4.13889 0.00280762 4.32413 0.00280762 4.55265V4.88086L6.57899 7.03513H0.00285449V9.10385H6.57904L0.00285449 11.2581V12H2.89905L10.564 9.48906V12H13.4387V9.48906L21.1037 12H23.9999V11.2581L17.4237 9.1038H23.9999V7.03508H17.4237L23.9999 4.88082V4.5526C23.9999 4.32413 23.8147 4.13889 23.5862 4.13889Z" fill="#F5F5F5"/>
<path d="M23.9998 7.4489H0.00280762V8.69014H23.9998V7.4489Z" fill="#FF4B55"/>
<path d="M12.622 4.13908H11.3807V12.0004H12.622V4.13908Z" fill="#FF4B55"/>
<path d="M14.1227 7.34863L13.5123 7.66415L13.2713 7.10338C13.2464 7.04549 13.1466 7.03518 13.1029 7.0859L12.6058 7.66415L12.086 6.85795C12.0511 6.8039 11.9518 6.8039 11.9169 6.85795L11.3971 7.66415L10.8999 7.0859C10.8563 7.03518 10.7564 7.04549 10.7316 7.10338L10.4905 7.66415L9.88017 7.34863C9.7995 7.30696 9.69985 7.37516 9.74316 7.44238L10.3394 8.36717H10.3136C10.2444 8.36717 10.1883 8.41067 10.1883 8.46434V8.73865C10.1883 8.79232 10.2444 8.83582 10.3136 8.83582H13.6892C13.7583 8.83582 13.8145 8.79232 13.8145 8.73865V8.46434C13.8145 8.41067 13.7583 8.36717 13.6892 8.36717H13.6633L14.2596 7.44238C14.3031 7.37516 14.2033 7.30696 14.1227 7.34863Z" fill="#FFE15A"/>
<path d="M8.38999 9.10376L0.00280762 11.8251V12H0.986425L9.90985 9.10376H8.38999Z" fill="#FF4B55"/>
<path d="M23.9998 12V11.623L16.2377 9.10376H14.7178L23.6393 12H23.9998Z" fill="#FF4B55"/>
<path d="M23.9973 14.2756C22.7957 14.2756 22.7957 13.9136 21.5942 13.9136C20.3934 13.9136 20.3934 14.2756 19.1927 14.2756C17.993 14.2756 17.993 13.9136 16.7933 13.9136C15.5937 13.9136 15.5937 14.2756 14.3942 14.2756C13.1944 14.2756 13.1944 13.9136 11.9945 13.9136C10.7947 13.9136 10.7947 14.2756 9.59482 14.2756C8.39497 14.2756 8.39497 13.9136 7.19512 13.9136C5.99578 13.9136 5.99578 14.2756 4.79645 14.2756C3.59772 14.2756 3.59772 13.9136 2.39895 13.9136C1.19952 13.9136 1.19952 14.2756 0 14.2756V13.1895C1.19943 13.1895 1.19943 12.8275 2.39895 12.8275C3.59767 12.8275 3.59767 13.1895 4.79645 13.1895C5.99578 13.1895 5.99578 12.8275 7.19512 12.8275C8.39497 12.8275 8.39497 13.1895 9.59482 13.1895C10.7947 13.1895 10.7947 12.8275 11.9945 12.8275C13.1944 12.8275 13.1944 13.1895 14.3942 13.1895C15.5937 13.1895 15.5937 12.8275 16.7933 12.8275C17.993 12.8275 17.993 13.1895 19.1927 13.1895C20.3934 13.1895 20.3934 12.8275 21.5942 12.8275C22.7957 12.8275 22.7957 13.1895 23.9973 13.1895V14.2756Z" fill="#41479B"/>
<path d="M23.9973 16.4477C22.7957 16.4477 22.7957 16.0857 21.5942 16.0857C20.3934 16.0857 20.3934 16.4477 19.1927 16.4477C17.993 16.4477 17.993 16.0857 16.7933 16.0857C15.5937 16.0857 15.5937 16.4477 14.3942 16.4477C13.1944 16.4477 13.1944 16.0857 11.9945 16.0857C10.7947 16.0857 10.7947 16.4477 9.59482 16.4477C8.39497 16.4477 8.39497 16.0857 7.19512 16.0857C5.99578 16.0857 5.99578 16.4477 4.79645 16.4477C3.59772 16.4477 3.59772 16.0857 2.39895 16.0857C1.19952 16.0857 1.19952 16.4477 0 16.4477V15.3616C1.19943 15.3616 1.19943 14.9996 2.39895 14.9996C3.59767 14.9996 3.59767 15.3616 4.79645 15.3616C5.99578 15.3616 5.99578 14.9996 7.19512 14.9996C8.39497 14.9996 8.39497 15.3616 9.59482 15.3616C10.7947 15.3616 10.7947 14.9996 11.9945 14.9996C13.1944 14.9996 13.1944 15.3616 14.3942 15.3616C15.5937 15.3616 15.5937 14.9996 16.7933 14.9996C17.993 14.9996 17.993 15.3616 19.1927 15.3616C20.3934 15.3616 20.3934 14.9996 21.5942 14.9996C22.7957 14.9996 22.7957 15.3616 23.9973 15.3616V16.4477Z" fill="#41479B"/>
<path d="M23.9973 18.6199C22.7957 18.6199 22.7957 18.2579 21.5942 18.2579C20.3934 18.2579 20.3934 18.6199 19.1927 18.6199C17.993 18.6199 17.993 18.2579 16.7933 18.2579C15.5937 18.2579 15.5937 18.6199 14.3942 18.6199C13.1944 18.6199 13.1944 18.2579 11.9945 18.2579C10.7947 18.2579 10.7947 18.6199 9.59482 18.6199C8.39497 18.6199 8.39497 18.2579 7.19512 18.2579C5.99578 18.2579 5.99578 18.6199 4.79645 18.6199C3.59772 18.6199 3.59772 18.2579 2.39895 18.2579C1.19952 18.2579 1.19952 18.6199 0 18.6199V17.5338C1.19943 17.5338 1.19943 17.1718 2.39895 17.1718C3.59767 17.1718 3.59767 17.5338 4.79645 17.5338C5.99578 17.5338 5.99578 17.1718 7.19512 17.1718C8.39497 17.1718 8.39497 17.5338 9.59482 17.5338C10.7947 17.5338 10.7947 17.1718 11.9945 17.1718C13.1944 17.1718 13.1944 17.5338 14.3942 17.5338C15.5937 17.5338 15.5937 17.1718 16.7933 17.1718C17.993 17.1718 17.993 17.5338 19.1927 17.5338C20.3934 17.5338 20.3934 17.1718 21.5942 17.1718C22.7957 17.1718 22.7957 17.5338 23.9973 17.5338V18.6199Z" fill="#41479B"/>
<path d="M9.10511 7.03508L0.268587 4.1687C0.113619 4.22847 0.00280762 4.37654 0.00280762 4.5526V4.57407L7.58525 7.03508H9.10511Z" fill="#FF4B55"/>
<path d="M15.5899 7.03508L23.9264 4.3307C23.8525 4.21787 23.7311 4.13889 23.5861 4.13889H22.9934L14.0701 7.03508H15.5899Z" fill="#FF4B55"/>
<path d="M18.8275 19.3039C19.6965 18.8563 20.0091 18.1851 20.1229 17.9357C20.2953 17.5579 21.0954 17.2533 21.0954 17.2533C21.0954 17.2533 20.1071 17.2579 19.5782 17.9446C19.0905 18.5777 18.2126 18.6322 17.3658 19.1166C17.2851 19.0151 17.202 18.9156 17.1158 18.8189L19.7542 15.6251L16.5604 18.2635C16.4354 18.152 16.3061 18.0453 16.1731 17.943C16.2571 17.7244 16.423 17.3865 16.7488 17.0018C17.3804 16.2558 17.4124 15.516 17.4221 15.242C17.4369 14.827 18.0593 14.2394 18.0593 14.2394C18.0593 14.2394 17.148 14.6219 16.9222 15.4587C16.714 16.2299 15.9245 16.6161 15.3276 17.3869C15.2144 17.3239 15.0997 17.2631 14.9826 17.2064L16.1972 13.2484L14.2567 16.9071C14.0988 16.852 13.9385 16.8022 13.7756 16.7586C13.7698 16.5243 13.7941 16.1493 13.9474 15.6704C14.2454 14.7394 13.9918 14.0437 13.8959 13.7869C13.7508 13.3978 14.101 12.6167 14.101 12.6167C14.101 12.6167 13.4054 13.3188 13.517 14.1784C13.6198 14.9707 13.0378 15.6299 12.7815 16.5708C12.6533 16.5563 12.5242 16.5447 12.394 16.5373L12.0013 12.4138L11.6085 16.5373C11.4398 16.5469 11.2732 16.5637 11.1081 16.5852C11.013 16.3711 10.8913 16.0149 10.8496 15.5124C10.7686 14.5383 10.2681 13.9925 10.0813 13.792C9.79829 13.4881 9.82294 12.6324 9.82294 12.6324C9.82294 12.6324 9.44903 13.5472 9.88107 14.2987C10.2792 14.9912 9.99399 15.8228 10.117 16.7899C9.99183 16.8256 9.86808 16.8645 9.74598 16.9071L7.80546 13.2485L9.02008 17.2065C8.86862 17.2797 8.72125 17.3599 8.57622 17.4437C8.40644 17.2823 8.15791 16.9998 7.92729 16.5519C7.47973 15.6829 6.80844 15.3702 6.55911 15.2564C6.18135 15.084 5.87671 14.284 5.87671 14.284C5.87671 14.284 5.8813 15.2723 6.56806 15.8012C7.20115 16.2888 7.25562 17.1668 7.73998 18.0136C7.63849 18.0943 7.53898 18.1774 7.44232 18.2636L4.24838 15.625L6.88676 18.8188C6.77525 18.9439 6.66856 19.0731 6.56633 19.2062C6.34771 19.1221 6.00979 18.9561 5.62509 18.6304C4.87908 17.9988 4.13925 17.9669 3.86527 17.9571C3.45029 17.9424 2.86267 17.3199 2.86267 17.3199C2.86267 17.3199 3.24517 18.2312 4.08202 18.4571C4.77375 18.6438 5.15807 19.2975 5.78577 19.8611H18.0298C18.199 19.6997 18.4526 19.4969 18.8275 19.3039Z" fill="#FFE15A"/>
<path d="M20.8506 19.8611L22.1309 19.1821L19.9182 19.8611H20.8506Z" fill="#FFE15A"/>
<path d="M1.8717 19.1821L3.15199 19.8611H4.08447L1.8717 19.1821Z" fill="#FFE15A"/>
</svg>
