<svg width="24" height="24" viewBox="0 0 24 24" fill="none" xmlns="http://www.w3.org/2000/svg">
<path d="M23.5861 19.8621H0.413812C0.185297 19.8621 0 19.6768 0 19.4483V4.55175C0 4.32324 0.185297 4.13794 0.413812 4.13794H23.5862C23.8147 4.13794 24 4.32324 24 4.55175V19.4483C24 19.6768 23.8147 19.8621 23.5861 19.8621Z" fill="#FF4B55"/>
<path d="M16.3769 13.2341C16.3769 13.2341 15.5525 13.0967 14.9419 12.5903C14.7618 12.4409 14.5003 12.3267 14.2457 12.2424C14.4504 12.2333 14.6675 12.239 14.8727 12.2805C15.7227 12.4523 16.5468 12.0398 16.5468 12.0398C16.5468 12.0398 15.7152 12.1237 14.9931 11.7954C14.7978 11.7066 14.5445 11.6648 14.2972 11.6472C14.475 11.5961 14.6638 11.556 14.8501 11.5457C15.7159 11.4977 16.4094 10.8907 16.4094 10.8907C16.4094 10.8907 15.6259 11.1815 14.8443 11.0459C14.6167 11.0064 14.3373 11.036 14.0773 11.0883C14.2483 10.9808 14.4366 10.8804 14.6321 10.8158C15.4553 10.5434 15.9662 9.77637 15.9662 9.77637C15.9662 9.77637 15.2858 10.2617 14.4959 10.3348C14.2614 10.3565 13.9942 10.4619 13.7532 10.5831C13.8922 10.4306 14.051 10.2797 14.2268 10.1631C14.9493 9.6836 15.2403 8.80915 15.2403 8.80915C15.2403 8.80915 14.7117 9.45645 13.9689 9.73498C13.7664 9.81092 13.5565 9.96298 13.368 10.1269C13.4581 9.96307 13.564 9.79924 13.6898 9.65853C14.2678 9.01207 14.3284 8.09248 14.3284 8.09248C14.3284 8.09248 13.9804 8.85232 13.3321 9.3095C13.1431 9.44281 12.9665 9.66162 12.8196 9.88278C12.8645 9.68562 12.9265 9.48115 13.019 9.29689C13.408 8.5219 13.2264 7.61839 13.2264 7.61839C13.2264 7.61839 13.0889 8.44273 12.5826 9.05337C12.4332 9.23351 12.319 9.49493 12.2346 9.74965C12.2256 9.54495 12.2313 9.32782 12.2728 9.12265C12.4446 8.27272 12.0321 7.44861 12.0321 7.44861C12.0321 7.44861 12.116 8.28012 11.7876 9.00228C11.6989 9.1976 11.6571 9.45092 11.6394 9.69818C11.5883 9.52034 11.5483 9.33162 11.5379 9.14529C11.4899 8.27947 10.883 7.586 10.883 7.586C10.883 7.586 11.1738 8.36947 11.0382 9.15106C10.9986 9.37868 11.0282 9.6581 11.0805 9.91817C10.9731 9.74712 10.8726 9.55878 10.808 9.36331C10.5356 8.54009 9.7686 8.02915 9.7686 8.02915C9.7686 8.02915 10.2539 8.70954 10.3271 9.49943C10.3488 9.73399 10.4541 10.0012 10.5754 10.2423C10.4229 10.1032 10.272 9.94442 10.1553 9.76859C9.67584 9.04611 8.80139 8.75511 8.80139 8.75511C8.80139 8.75511 9.44868 9.28371 9.72721 10.0265C9.80315 10.229 9.95521 10.4389 10.1191 10.6274C9.95531 10.5373 9.79148 10.4314 9.65076 10.3056C9.00431 9.72767 8.08472 9.66706 8.08472 9.66706C8.08472 9.66706 8.84456 10.015 9.30173 10.6633C9.43495 10.8523 9.65381 11.029 9.87487 11.1759C9.67776 11.131 9.47329 11.0689 9.28907 10.9765C8.51409 10.5874 7.61058 10.7691 7.61058 10.7691C7.61058 10.7691 8.43492 10.9065 9.04556 11.4129C9.2257 11.5623 9.48712 11.6764 9.74184 11.7608C9.53714 11.7699 9.32001 11.7642 9.11484 11.7227C8.2649 11.5509 7.4408 11.9634 7.4408 11.9634C7.4408 11.9634 8.27231 11.8795 8.99446 12.2078C9.18979 12.2966 9.44311 12.3384 9.69037 12.356C9.51253 12.4072 9.32381 12.4472 9.13748 12.4575C8.27165 12.5055 7.57819 13.1125 7.57819 13.1125C7.57819 13.1125 8.36165 12.8217 9.14325 12.9573C9.37087 12.9968 9.65029 12.9672 9.91035 12.915C9.73931 13.0224 9.55096 13.1228 9.3555 13.1875C8.53228 13.4598 8.02134 14.2269 8.02134 14.2269C8.02134 14.2269 8.70173 13.7416 9.49162 13.6684C9.72618 13.6467 9.99342 13.5414 10.2344 13.4201C10.0954 13.5725 9.9366 13.7235 9.76078 13.8401C9.03829 14.3196 8.74725 15.1941 8.74725 15.1941C8.74725 15.1941 9.27586 14.5468 10.0187 14.2683C10.2211 14.1923 10.431 14.0403 10.6195 13.8764C10.5294 14.0401 10.4235 14.204 10.2978 14.3447C9.71985 14.9911 9.65925 15.9107 9.65925 15.9107C9.65925 15.9107 10.0072 15.1509 10.6555 14.6937C10.8445 14.5604 11.0211 14.3416 11.1681 14.1205C11.1231 14.3177 11.0611 14.5221 10.9686 14.7063C10.5796 15.4813 10.7613 16.3848 10.7613 16.3848C10.7613 16.3848 10.8987 15.5605 11.4051 14.9499C11.5545 14.7697 11.6686 14.5083 11.753 14.2536C11.7621 14.4584 11.7564 14.6755 11.7149 14.8806C11.5431 15.7306 11.9556 16.5546 11.9556 16.5546C11.9556 16.5546 11.8717 15.7232 12.2 15.001C12.2888 14.8057 12.3306 14.5523 12.3482 14.3051C12.3994 14.4829 12.4394 14.6717 12.4497 14.858C12.4977 15.7238 13.1047 16.4173 13.1047 16.4173C13.1047 16.4173 12.8139 15.6338 12.9495 14.8522C12.989 14.6246 12.9594 14.3452 12.9072 14.0852C13.0146 14.2562 13.115 14.4445 13.1796 14.64C13.452 15.4632 14.219 15.9741 14.219 15.9741C14.219 15.9741 13.7338 15.2937 13.6606 14.5038C13.6389 14.2692 13.5336 14.002 13.4122 13.761C13.5647 13.9 13.7157 14.0588 13.8323 14.2346C14.3118 14.9571 15.1863 15.2482 15.1863 15.2482C15.1863 15.2482 14.539 14.7196 14.2604 13.9767C14.1845 13.7743 14.0324 13.5644 13.8686 13.3759C14.0323 13.466 14.1961 13.5719 14.3368 13.6976C14.9833 14.2756 15.9029 14.3362 15.9029 14.3362C15.9029 14.3362 15.143 13.9882 14.6859 13.3399C14.5526 13.1509 14.3338 12.9742 14.1126 12.8274C14.3098 12.8723 14.5142 12.9343 14.6984 13.0268C15.4734 13.4157 16.3769 13.2341 16.3769 13.2341ZM11.9991 14.1011C10.8388 14.1011 9.89817 13.1606 9.89817 12.0003C9.89817 10.84 10.8388 9.89937 11.9991 9.89937C13.1593 9.89937 14.0999 10.84 14.0999 12.0003C14.0999 13.1606 13.1593 14.1011 11.9991 14.1011Z" fill="#FFE15A"/>
<path d="M11.333 11.15C11.3778 11.115 11.4224 11.0799 11.4676 11.0487C11.17 10.9133 10.9021 10.8483 10.7141 10.8192C10.6842 10.8517 10.6572 10.8867 10.6298 10.9214C10.8144 10.9572 11.0624 11.0257 11.333 11.15Z" fill="#FFE15A"/>
<path d="M10.8044 10.7266C11.0064 10.7494 11.2988 10.8095 11.6233 10.9491C11.6776 10.9166 11.7317 10.8879 11.7859 10.8602C11.4356 10.7164 11.1194 10.6628 10.9018 10.6463C10.869 10.6728 10.8351 10.6978 10.8044 10.7266Z" fill="#FFE15A"/>
<path d="M11.8562 11.7003C11.8143 11.6607 11.7719 11.6233 11.7291 11.5879C11.3358 11.9622 10.9916 12.5082 10.8363 13.3003C10.8928 13.3509 10.9489 13.4019 11.0115 13.4449C11.1257 12.6393 11.4602 12.0832 11.8562 11.7003Z" fill="#FFE15A"/>
<path d="M11.7036 11.3523C11.7482 11.3165 11.7928 11.2805 11.8379 11.2484C11.7829 11.2133 11.7281 11.1825 11.6734 11.1524C11.6266 11.1845 11.5797 11.2155 11.5334 11.2515C11.5901 11.2827 11.6467 11.3159 11.7036 11.3523Z" fill="#FFE15A"/>
<path d="M12.7906 11.2509C13.1279 11.5471 13.4361 11.9642 13.6554 12.5425C13.7117 12.3708 13.7498 12.1908 13.7498 12.0003C13.7498 11.6386 13.6399 11.3026 13.452 11.0236C13.2781 11.0582 13.0446 11.1258 12.7906 11.2509Z" fill="#FFE15A"/>
<path d="M11.8689 11.4649C11.9128 11.4976 11.9558 11.5344 11.9991 11.5706C12.0422 11.5343 12.0853 11.4976 12.1292 11.4649C12.086 11.4289 12.0429 11.3935 11.9991 11.3611C11.9552 11.3935 11.9122 11.4289 11.8689 11.4649Z" fill="#FFE15A"/>
<path d="M11.9991 10.9579C11.9441 10.9858 11.8891 11.0173 11.8337 11.05C11.8888 11.0789 11.9437 11.11 11.9991 11.1439C12.0544 11.11 12.1094 11.079 12.1644 11.05C12.1091 11.0172 12.0541 10.9858 11.9991 10.9579Z" fill="#FFE15A"/>
<path d="M10.6456 13.0981C10.8308 12.3418 11.1799 11.8237 11.5706 11.4672C11.516 11.4286 11.4616 11.3933 11.407 11.3605C11.031 11.6911 10.6908 12.1689 10.4812 12.8572C10.5295 12.9426 10.5841 13.0225 10.6456 13.0981Z" fill="#FFE15A"/>
<path d="M11.2075 11.2509C10.9536 11.1257 10.7201 11.0582 10.5461 11.0236C10.3582 11.3026 10.2483 11.6385 10.2483 12.0002C10.2483 12.1907 10.2864 12.3707 10.3427 12.5424C10.562 11.9642 10.8702 11.5471 11.2075 11.2509Z" fill="#FFE15A"/>
<path d="M11.999 10.7615C12.3715 10.6076 12.7151 10.5529 12.9594 10.5385C12.6835 10.3568 12.3541 10.2495 11.999 10.2495C11.6439 10.2495 11.3145 10.3569 11.0386 10.5385C11.2829 10.5529 11.6265 10.6075 11.999 10.7615Z" fill="#FFE15A"/>
<path d="M11.9991 11.8484C11.6499 12.2353 11.3617 12.7909 11.2682 13.5866C11.4912 13.6896 11.7373 13.751 11.9991 13.751C12.2609 13.751 12.5069 13.6896 12.7299 13.5866C12.6364 12.7909 12.3482 12.2353 11.9991 11.8484Z" fill="#FFE15A"/>
<path d="M12.5911 11.3605C12.5366 11.3933 12.4821 11.4286 12.4275 11.4672C12.8181 11.8236 13.1673 12.3418 13.3525 13.0981C13.414 13.0225 13.4686 12.9426 13.5169 12.8572C13.3073 12.1689 12.9671 11.6911 12.5911 11.3605Z" fill="#FFE15A"/>
<path d="M13.1617 13.3003C13.0064 12.5082 12.6623 11.9623 12.269 11.5879C12.2261 11.6233 12.1838 11.6607 12.1418 11.7003C12.5378 12.0832 12.8724 12.6393 12.9865 13.4449C13.0492 13.402 13.1053 13.3509 13.1617 13.3003Z" fill="#FFE15A"/>
<path d="M12.2122 10.8602C12.2663 10.8879 12.3205 10.9166 12.3748 10.949C12.6992 10.8094 12.9916 10.7493 13.1936 10.7265C13.163 10.6977 13.129 10.6728 13.0963 10.6462C12.8787 10.6628 12.5625 10.7164 12.2122 10.8602Z" fill="#FFE15A"/>
<path d="M12.2945 11.3523C12.3514 11.3159 12.408 11.2828 12.4647 11.2515C12.4184 11.2155 12.3715 11.1845 12.3247 11.1524C12.27 11.1825 12.2152 11.2133 12.1602 11.2484C12.2053 11.2805 12.2499 11.3165 12.2945 11.3523Z" fill="#FFE15A"/>
<path d="M12.6652 11.15C12.9358 11.0257 13.1838 10.9572 13.3683 10.9214C13.3409 10.8867 13.3139 10.8518 13.284 10.8193C13.096 10.8484 12.8281 10.9134 12.5304 11.0488C12.5758 11.0799 12.6204 11.1151 12.6652 11.15Z" fill="#FFE15A"/>
</svg>
