<svg width="24" height="24" viewBox="0 0 24 24" fill="none" xmlns="http://www.w3.org/2000/svg">
<path d="M0 14.6207H24V19.4482C24 19.6767 23.8147 19.862 23.5861 19.862H0.413812C0.185297 19.862 0 19.6767 0 19.4482V14.6207Z" fill="#73AF00"/>
<path d="M0.413812 4.13792H23.5862C23.8147 4.13792 24 4.32322 24 4.55174V9.37929H0V4.55174C0 4.32322 0.185297 4.13792 0.413812 4.13792Z" fill="#FF4B55"/>
<path d="M24 9.3792H0V14.6203H24V9.3792Z" fill="#FFE15A"/>
<path d="M11.4655 9.65422C11.4655 9.65422 11.4549 9.66753 11.4349 9.69252C11.4183 9.71558 11.3933 9.75102 11.366 9.79817C11.3123 9.89188 11.256 10.0371 11.2544 10.2103C11.2539 10.2947 11.2713 10.3972 11.3001 10.4787C11.3313 10.5687 11.3831 10.6548 11.4486 10.7317C11.5142 10.8093 11.6018 10.8691 11.6955 10.9132C11.7419 10.9368 11.7929 10.9504 11.8435 10.9628C11.8686 10.9705 11.8953 10.9708 11.921 10.9759C11.934 10.9783 11.9474 10.9773 11.9605 10.9783L11.9802 10.9792L11.9901 10.9797L11.995 10.98L11.9975 10.9801L11.9987 10.9802C11.9948 10.9803 12.0094 10.98 11.9901 10.9805C12.0222 10.9786 12.0611 10.9784 12.0875 10.9752C12.1106 10.9698 12.13 10.9707 12.1564 10.9629C12.2071 10.9504 12.258 10.9369 12.3045 10.9133C12.3981 10.8691 12.4858 10.8093 12.5514 10.7317C12.6168 10.6549 12.6686 10.5688 12.6999 10.4788C12.7298 10.3873 12.7457 10.2996 12.7455 10.2099C12.7441 10.0375 12.6877 9.89174 12.634 9.79813C12.6069 9.75116 12.5818 9.71549 12.564 9.69144C12.5454 9.66777 12.5355 9.65506 12.5355 9.65506L12.533 9.65192C12.5152 9.62914 12.5192 9.59628 12.542 9.57842C12.56 9.56436 12.5844 9.56394 12.6025 9.57556C12.6025 9.57556 12.6178 9.58536 12.6464 9.60369C12.6735 9.62403 12.7155 9.65277 12.7607 9.69927C12.8515 9.78917 12.9694 9.9493 13.0119 10.182C13.033 10.2934 13.0352 10.4281 13.0062 10.5605C12.9781 10.6943 12.9211 10.8326 12.829 10.9536C12.7385 11.0752 12.6169 11.1828 12.4724 11.2553C12.4011 11.2933 12.3235 11.3209 12.244 11.3401C12.2058 11.3513 12.1574 11.356 12.1142 11.3628C12.0738 11.3672 12.0451 11.3673 12.0099 11.3698L11.9962 11.3698L11.9924 11.3697L11.9847 11.3693L11.9693 11.3685L11.9385 11.3668C11.918 11.3652 11.8975 11.3655 11.8772 11.362C11.8367 11.3548 11.7955 11.3515 11.7561 11.3401C11.6765 11.321 11.5989 11.2933 11.5276 11.2553C11.3831 11.1828 11.2615 11.0752 11.1711 10.9536C11.079 10.8326 11.022 10.6942 10.9938 10.5605C10.9637 10.418 10.9675 10.2982 10.9882 10.1816C11.0306 9.94958 11.1485 9.78889 11.2393 9.69917C11.2843 9.65286 11.3265 9.62385 11.3547 9.60256C11.3819 9.5855 11.3965 9.57636 11.3965 9.57636C11.4211 9.56089 11.4536 9.5683 11.4691 9.59295C11.4813 9.61255 11.4791 9.63716 11.4655 9.65422Z" fill="#73AF00"/>
<path d="M11.896 13.7749V14.4298C11.896 14.4952 11.817 14.5279 11.7708 14.4817L11.7348 14.4457C11.7048 14.4157 11.688 14.3751 11.688 14.3328V13.7749H11.896Z" fill="#FF4B55"/>
<path d="M11.584 13.671V14.1463C11.584 14.1749 11.5953 14.2023 11.6155 14.2225L11.688 14.2949V13.671H11.584Z" fill="#FFE15A"/>
<path d="M11.48 13.671V13.9261C11.48 13.9625 11.4945 13.9974 11.5202 14.0231L11.5839 14.0869V13.671H11.48Z" fill="#73AF00"/>
<path d="M12.104 13.7749V14.4298C12.104 14.4952 12.183 14.5279 12.2292 14.4817L12.2652 14.4457C12.2952 14.4157 12.312 14.3751 12.312 14.3328V13.7749H12.104Z" fill="#FF4B55"/>
<path d="M12.4159 13.671V14.1463C12.4159 14.1749 12.4045 14.2023 12.3843 14.2225L12.3119 14.2949V13.671H12.4159Z" fill="#FFE15A"/>
<path d="M12.5199 13.671V13.9261C12.5199 13.9625 12.5054 13.9974 12.4797 14.0231L12.4159 14.0869V13.671H12.5199Z" fill="#73AF00"/>
<path d="M12.5199 11.7991L13.6638 10.9672V12.678C13.6638 13.169 13.2658 13.567 12.7748 13.567C12.6082 13.567 12.445 13.5201 12.3037 13.4319L11.688 13.047V11.7847L12.5199 11.7991Z" fill="#FF4B55"/>
<path d="M13.2478 11.2698V12.4701C13.2478 12.9611 12.8498 13.359 12.3589 13.359C12.2851 13.359 12.2123 13.3484 12.1414 13.3304L11.688 13.047V11.7847L12.5199 11.7991L13.2478 11.2698Z" fill="#FFE15A"/>
<path d="M12.9359 11.4966V12.2715C12.9359 12.7624 12.5379 13.1604 12.047 13.1604C11.9731 13.1604 11.9003 13.1498 11.8295 13.1318L11.688 13.0434V11.7847L12.5199 11.7991L12.9359 11.4966Z" fill="#73AF00"/>
<path d="M13.7262 10.78L14.1838 10.5513L13.851 10.9672H13.6638L13.7262 10.78Z" fill="#F5F5F5"/>
<path d="M13.1439 12.3191L14.2878 11.4871V13.198C14.2878 13.6889 13.8898 14.0869 13.3989 14.0869C13.2323 14.0869 13.069 14.0401 12.9277 13.9518L12.312 13.567V12.3047L13.1439 12.3191Z" fill="#FF4B55"/>
<path d="M13.5598 12.0166V12.7915C13.5598 13.2824 13.1618 13.6804 12.6709 13.6804C12.597 13.6804 12.5243 13.6698 12.4534 13.6518L12.3119 13.5634V12.3047L13.1438 12.3191L13.5598 12.0166Z" fill="#73AF00"/>
<path d="M14.3501 11.2999L14.8077 11.0712L14.4749 11.4871H14.2877L14.3501 11.2999Z" fill="#F5F5F5"/>
<path d="M12.8319 12.1111L13.9758 11.2791V12.99C13.9758 13.4809 13.5778 13.8789 13.0868 13.8789C12.9202 13.8789 12.757 13.8321 12.6157 13.7438L12 13.359V12.0966L12.8319 12.1111Z" fill="#FF4B55"/>
<path d="M13.5598 11.5817V12.782C13.5598 13.273 13.1618 13.6709 12.6708 13.6709C12.597 13.6709 12.5243 13.6603 12.4533 13.6423L11.9999 13.359V12.0966L12.8318 12.1111L13.5598 11.5817Z" fill="#FFE15A"/>
<path d="M13.2478 11.8086V12.5835C13.2478 13.0745 12.8498 13.4724 12.3588 13.4724C12.285 13.4724 12.2123 13.4618 12.1413 13.4438L11.9999 13.3555V12.0967L12.8318 12.1112L13.2478 11.8086Z" fill="#73AF00"/>
<path d="M14.0382 11.092L14.4958 10.8632L14.163 11.2791H13.9758L14.0382 11.092Z" fill="#F5F5F5"/>
<path d="M11.4801 11.7991L10.3362 10.9672V12.678C10.3362 13.169 10.7342 13.567 11.2251 13.567C11.3917 13.567 11.555 13.5201 11.6963 13.4319L12.312 13.047V11.7847L11.4801 11.7991Z" fill="#FF4B55"/>
<path d="M10.7521 11.2698V12.4701C10.7521 12.9611 11.1501 13.359 11.641 13.359C11.7148 13.359 11.7876 13.3484 11.8585 13.3304L12.3119 13.047V11.7847L11.48 11.7991L10.7521 11.2698Z" fill="#FFE15A"/>
<path d="M11.0641 11.4966V12.2715C11.0641 12.7624 11.4621 13.1604 11.953 13.1604C12.0269 13.1604 12.0996 13.1498 12.1705 13.1318L12.312 13.0434V11.7847L11.4801 11.7991L11.0641 11.4966Z" fill="#73AF00"/>
<path d="M10.2737 10.78L9.81616 10.5513L10.149 10.9672H10.3361L10.2737 10.78Z" fill="#F5F5F5"/>
<path d="M10.856 12.3191L9.71216 11.4871V13.198C9.71216 13.6889 10.1102 14.0869 10.6011 14.0869C10.7677 14.0869 10.931 14.0401 11.0722 13.9518L11.6879 13.567V12.3047L10.856 12.3191Z" fill="#FF4B55"/>
<path d="M10.4401 12.0166V12.7915C10.4401 13.2824 10.8381 13.6804 11.329 13.6804C11.4028 13.6804 11.4756 13.6698 11.5465 13.6518L11.688 13.5634V12.3047L10.856 12.3191L10.4401 12.0166Z" fill="#73AF00"/>
<path d="M9.64981 11.2999L9.19226 11.0712L9.52507 11.4871H9.7122L9.64981 11.2999Z" fill="#F5F5F5"/>
<path d="M11.1681 12.1111L10.0242 11.2791V12.99C10.0242 13.4809 10.4222 13.8789 10.9131 13.8789C11.0797 13.8789 11.243 13.8321 11.3842 13.7438L11.9999 13.359V12.0966L11.1681 12.1111Z" fill="#FF4B55"/>
<path d="M10.4401 11.5817V12.782C10.4401 13.273 10.8381 13.6709 11.329 13.6709C11.4028 13.6709 11.4756 13.6603 11.5465 13.6423L11.9999 13.3589V12.0966L11.168 12.111L10.4401 11.5817Z" fill="#FFE15A"/>
<path d="M10.7521 11.8086V12.5835C10.7521 13.0745 11.1501 13.4724 11.641 13.4724C11.7148 13.4724 11.7876 13.4618 11.8585 13.4438L12 13.3554V12.0967L11.168 12.1111L10.7521 11.8086Z" fill="#73AF00"/>
<path d="M10.6381 13.6572L10.501 13.5201C10.4179 13.437 10.4201 13.3015 10.5059 13.2211L12.7755 11.0885L13.0696 11.3826L10.937 13.6522C10.8567 13.7381 10.7212 13.7404 10.6381 13.6572Z" fill="#FFBE5A"/>
<path d="M10.5698 13.6926C10.6272 13.6926 10.6738 13.646 10.6738 13.5886C10.6738 13.5312 10.6272 13.4846 10.5698 13.4846C10.5124 13.4846 10.4658 13.5312 10.4658 13.5886C10.4658 13.646 10.5124 13.6926 10.5698 13.6926Z" fill="#FFBE5A"/>
<path d="M12.9962 11.1623C12.915 11.0811 12.8163 11.0482 12.7757 11.0888C12.7351 11.1294 12.768 11.2282 12.8492 11.3094C12.9304 11.3906 13.0291 11.4235 13.0697 11.3829C13.1103 11.3423 13.0774 11.2435 12.9962 11.1623Z" fill="#F5F5F5"/>
<path d="M13.3618 13.6572L13.4989 13.5201C13.5821 13.437 13.5799 13.3015 13.494 13.2211L11.2244 11.0885L10.9303 11.3826L13.0629 13.6522C13.1433 13.7381 13.2787 13.7404 13.3618 13.6572Z" fill="#FFBE5A"/>
<path d="M13.4301 13.6926C13.4876 13.6926 13.5341 13.646 13.5341 13.5886C13.5341 13.5312 13.4876 13.4846 13.4301 13.4846C13.3727 13.4846 13.3262 13.5312 13.3262 13.5886C13.3262 13.646 13.3727 13.6926 13.4301 13.6926Z" fill="#FFBE5A"/>
<path d="M11.1511 11.3095C11.2323 11.2283 11.2652 11.1295 11.2246 11.0889C11.184 11.0483 11.0853 11.0812 11.0041 11.1624C10.9229 11.2437 10.89 11.3424 10.9306 11.383C10.9712 11.4236 11.0699 11.3907 11.1511 11.3095Z" fill="#F5F5F5"/>
<path d="M11.9999 13.5672C12.5078 13.5672 12.9194 13.0784 12.9194 12.4753C12.9194 11.8723 12.5078 11.3834 11.9999 11.3834C11.4921 11.3834 11.0804 11.8723 11.0804 12.4753C11.0804 13.0784 11.4921 13.5672 11.9999 13.5672Z" fill="#FFBE5A"/>
<path d="M11.9999 11.4871L12.0487 11.699L12.1606 11.5126L12.1415 11.7291L12.3055 11.5864L12.2205 11.7865L12.4206 11.7015L12.2778 11.8655L12.4944 11.8464L12.308 11.9583L12.5199 12.0071L12.308 12.0559L12.4944 12.1678L12.2778 12.1488L12.4206 12.3127L12.2205 12.2277L12.3055 12.4278L12.1415 12.2851L12.1606 12.5016L12.0487 12.3152L11.9999 12.527L11.9511 12.3152L11.8392 12.5016L11.8583 12.2851L11.6943 12.4278L11.7793 12.2277L11.5793 12.3127L11.7219 12.1488L11.5054 12.1678L11.6918 12.0559L11.48 12.0071L11.6918 11.9583L11.5054 11.8464L11.7219 11.8655L11.5793 11.7015L11.7793 11.7865L11.6943 11.5864L11.8583 11.7291L11.8392 11.5126L11.9511 11.699L11.9999 11.4871Z" fill="#FF4B55"/>
<path d="M13.1503 12.4556C13.1503 12.4556 12.8058 12.5465 12.5816 12.3581C12.3324 12.1486 12.1456 12.0497 12.0655 12.0125C12.0381 11.9998 12.0074 11.9998 11.98 12.0125C11.9226 12.039 11.817 12.0939 11.7237 12.1761C11.5872 12.2964 11.168 12.5336 11.0835 12.5336V13.0505L11.7432 13.6222L12.5231 13.5994L13.1503 12.4556Z" fill="#73AF00"/>
<path d="M11.9999 13.8269C11.3404 13.8269 10.804 13.2205 10.804 12.4751C10.804 11.7297 11.3404 11.1232 11.9999 11.1232C12.6594 11.1232 13.1958 11.7297 13.1958 12.4751C13.1958 13.2205 12.6593 13.8269 11.9999 13.8269ZM11.9999 11.4351C11.5125 11.4351 11.116 11.9017 11.116 12.4751C11.116 13.0484 11.5125 13.515 11.9999 13.515C12.4873 13.515 12.8838 13.0484 12.8838 12.4751C12.8838 11.9017 12.4873 11.4351 11.9999 11.4351Z" fill="#3CC8FF"/>
<path d="M11.8208 13.5444L11.8437 13.613L11.9161 13.6136C11.9255 13.6137 11.9293 13.6257 11.9218 13.6312L11.8636 13.6742L11.8855 13.7433C11.8883 13.7522 11.8781 13.7596 11.8705 13.7541L11.8115 13.712L11.7526 13.7541C11.745 13.7596 11.7348 13.7522 11.7376 13.7433L11.7595 13.6742L11.7012 13.6312C11.6937 13.6256 11.6976 13.6137 11.707 13.6136L11.7794 13.613L11.8023 13.5444C11.8053 13.5355 11.8178 13.5355 11.8208 13.5444Z" fill="#FFBE5A"/>
<path d="M11.4957 13.4046L11.5186 13.4733L11.591 13.4738C11.6004 13.4739 11.6043 13.4859 11.5968 13.4914L11.5385 13.5344L11.5604 13.6035C11.5633 13.6124 11.553 13.6198 11.5454 13.6143L11.4865 13.5723L11.4275 13.6143C11.42 13.6198 11.4097 13.6124 11.4125 13.6035L11.4344 13.5344L11.3762 13.4914C11.3686 13.4858 11.3725 13.4739 11.3819 13.4738L11.4543 13.4733L11.4772 13.4046C11.4802 13.3957 11.4928 13.3957 11.4957 13.4046Z" fill="#FFBE5A"/>
<path d="M11.2346 13.1674L11.2575 13.236L11.3299 13.2366C11.3393 13.2366 11.3432 13.2486 11.3357 13.2542L11.2774 13.2972L11.2993 13.3662C11.3021 13.3752 11.2919 13.3826 11.2843 13.3771L11.2254 13.335L11.1664 13.3771C11.1588 13.3826 11.1486 13.3752 11.1514 13.3662L11.1733 13.2972L11.1151 13.2542C11.1075 13.2486 11.1114 13.2366 11.1208 13.2366L11.1932 13.236L11.2161 13.1674C11.2191 13.1584 11.2316 13.1584 11.2346 13.1674Z" fill="#FFBE5A"/>
<path d="M11.0566 12.8516L11.0795 12.9202L11.152 12.9208C11.1613 12.9208 11.1652 12.9328 11.1577 12.9384L11.0995 12.9814L11.1213 13.0504C11.1242 13.0594 11.1139 13.0668 11.1063 13.0613L11.0474 13.0192L10.9885 13.0613C10.9809 13.0668 10.9706 13.0594 10.9735 13.0504L10.9953 12.9814L10.9371 12.9384C10.9295 12.9328 10.9334 12.9208 10.9428 12.9208L11.0152 12.9202L11.0381 12.8516C11.0411 12.8427 11.0537 12.8427 11.0566 12.8516Z" fill="#FFBE5A"/>
<path d="M10.978 12.4844L11.0009 12.5531L11.0733 12.5537C11.0827 12.5537 11.0866 12.5657 11.0791 12.5712L11.0208 12.6143L11.0427 12.6833C11.0456 12.6923 11.0353 12.6997 11.0277 12.6942L10.9688 12.6521L10.9098 12.6942C10.9023 12.6996 10.892 12.6922 10.8948 12.6833L10.9167 12.6143L10.8585 12.5712C10.8509 12.5657 10.8548 12.5537 10.8642 12.5537L10.9366 12.5531L10.9595 12.4844C10.9624 12.4755 10.9751 12.4755 10.978 12.4844Z" fill="#FFBE5A"/>
<path d="M12.1787 13.5444L12.1557 13.613L12.0833 13.6136C12.0739 13.6137 12.07 13.6257 12.0776 13.6312L12.1358 13.6742L12.114 13.7433C12.1111 13.7522 12.1213 13.7596 12.129 13.7541L12.1879 13.712L12.2468 13.7541C12.2544 13.7596 12.2646 13.7522 12.2618 13.7433L12.24 13.6742L12.2982 13.6312C12.3057 13.6256 12.3018 13.6137 12.2925 13.6136L12.22 13.613L12.1971 13.5444C12.1942 13.5355 12.1816 13.5355 12.1787 13.5444Z" fill="#FFBE5A"/>
<path d="M12.5037 13.4046L12.4808 13.4733L12.4084 13.4738C12.399 13.4739 12.3951 13.4859 12.4026 13.4914L12.4609 13.5344L12.439 13.6035C12.4362 13.6124 12.4464 13.6198 12.454 13.6143L12.5129 13.5723L12.5719 13.6143C12.5795 13.6198 12.5897 13.6124 12.5869 13.6035L12.565 13.5344L12.6232 13.4914C12.6308 13.4858 12.6269 13.4739 12.6175 13.4738L12.5451 13.4733L12.5222 13.4046C12.5192 13.3957 12.5067 13.3957 12.5037 13.4046Z" fill="#FFBE5A"/>
<path d="M12.7647 13.1674L12.7418 13.236L12.6693 13.2366C12.66 13.2366 12.6561 13.2486 12.6636 13.2542L12.7218 13.2972L12.7 13.3662C12.6971 13.3752 12.7074 13.3826 12.715 13.3771L12.7739 13.335L12.8328 13.3771C12.8404 13.3826 12.8507 13.3752 12.8478 13.3662L12.826 13.2972L12.8842 13.2542C12.8918 13.2486 12.8879 13.2366 12.8785 13.2366L12.8061 13.236L12.7832 13.1674C12.7803 13.1584 12.7676 13.1584 12.7647 13.1674Z" fill="#FFBE5A"/>
<path d="M12.9428 12.8516L12.9199 12.9202L12.8474 12.9208C12.8381 12.9208 12.8342 12.9328 12.8417 12.9384L12.8999 12.9814L12.8781 13.0504C12.8752 13.0594 12.8855 13.0668 12.8931 13.0613L12.952 13.0192L13.0109 13.0613C13.0185 13.0668 13.0288 13.0594 13.0259 13.0504L13.0041 12.9814L13.0623 12.9384C13.0699 12.9328 13.066 12.9208 13.0566 12.9208L12.9842 12.9202L12.9613 12.8516C12.9583 12.8427 12.9457 12.8427 12.9428 12.8516Z" fill="#FFBE5A"/>
<path d="M13.0213 12.4844L12.9984 12.5531L12.9259 12.5537C12.9166 12.5537 12.9127 12.5657 12.9202 12.5712L12.9784 12.6143L12.9566 12.6833C12.9537 12.6923 12.964 12.6997 12.9716 12.6942L13.0305 12.6521L13.0894 12.6942C13.097 12.6996 13.1073 12.6922 13.1044 12.6833L13.0826 12.6143L13.1408 12.5712C13.1484 12.5657 13.1445 12.5537 13.1351 12.5537L13.0627 12.5531L13.0398 12.4844C13.0368 12.4755 13.0243 12.4755 13.0213 12.4844Z" fill="#FFBE5A"/>
<path d="M11.5482 13.1417L11.5827 13.307H11.5976V13.1942C11.5976 13.1942 11.6222 13.2729 11.657 13.307H11.6851C11.6716 13.2897 11.6475 13.2538 11.6475 13.2167C11.6475 13.1655 11.6881 13.1585 11.6881 13.1038H11.723V13.3069H11.7434L11.7812 13.126C11.7812 13.126 11.8123 13.2392 11.8709 13.3069H11.897C11.8782 13.2793 11.8391 13.2081 11.8463 13.1004C11.8463 13.1004 11.9021 13.0724 11.9021 12.9969V12.8893C11.9021 12.8692 11.9185 12.8529 11.9386 12.8529H11.9637C11.9637 12.8529 11.9264 12.7805 11.8865 12.77V12.7246L11.8564 12.77C11.8277 12.7762 11.8108 12.8027 11.8108 12.8312V12.8966C11.8108 12.9167 11.7945 12.9331 11.7743 12.9331H11.644C11.6054 12.9331 11.5436 12.9717 11.5436 13.0211C11.5436 13.0706 11.5807 13.103 11.5807 13.103L11.5482 13.1417Z" fill="#F5F5F5"/>
<path d="M12.1321 12.977H12.1202C12.0257 12.9822 11.9729 13.0443 11.9729 13.0443L12.0688 13.1402V13.3206H12.1835V13.1402L12.2793 13.0443C12.2793 13.0443 12.2266 12.9822 12.1321 12.977Z" fill="#FFBE5A"/>
<path d="M12.3684 12.682H12.3337V13.3211H12.3684V12.682Z" fill="#F5F5F5"/>
<path d="M12.352 12.6771L12.1651 12.903C12.1651 12.903 12.1407 12.7941 12.2496 12.6869L12.0092 12.7307C12.0092 12.7307 12.0823 12.5942 12.274 12.6089L12.0774 12.4448C12.0774 12.4448 12.2464 12.4351 12.3325 12.5618C12.3325 12.5618 12.3812 12.4156 12.5177 12.409L12.4051 12.5802C12.4051 12.5802 12.5177 12.5228 12.6737 12.5732L12.4413 12.6349C12.4413 12.6349 12.5713 12.6479 12.625 12.838L12.4235 12.6999C12.4235 12.6999 12.4853 12.7731 12.4625 12.916L12.352 12.6771Z" fill="#F5F5F5"/>
<path d="M9.96174 11.092L9.50415 10.8632L9.83696 11.2791H10.0241L9.96174 11.092Z" fill="#F5F5F5"/>
<path d="M12.3252 10.8271L13.5598 10.4472L12.9044 10.2015C12.7877 10.1577 12.664 10.1353 12.5393 10.1353H12.4159C12.3585 10.1353 12.3119 10.1818 12.3119 10.2393V10.3432H11.9999H11.6879V10.2393C11.6879 10.1818 11.6414 10.1353 11.584 10.1353H11.4605C11.3358 10.1353 11.2121 10.1578 11.0954 10.2015L10.4401 10.4472L11.6746 10.8271C11.736 10.846 11.7657 10.9155 11.737 10.973L11.584 11.2791H12.4159L12.2628 10.973C12.2341 10.9155 12.2638 10.846 12.3252 10.8271Z" fill="#825546"/>
<path d="M11.9999 10.6549C12.1148 10.6549 12.2079 10.5619 12.2079 10.447C12.2079 10.3322 12.1148 10.2391 11.9999 10.2391C11.8851 10.2391 11.792 10.3322 11.792 10.447C11.792 10.5619 11.8851 10.6549 11.9999 10.6549Z" fill="#F5F5F5"/>
<path d="M12.1039 10.4472C12.1039 10.5047 12.0574 10.5512 12 10.5512H11.584L11.7615 10.3737C11.781 10.3542 11.8074 10.3432 11.835 10.3432H11.9999C12.0574 10.3433 12.1039 10.3898 12.1039 10.4472Z" fill="#FFBE5A"/>
</svg>
