<svg width="24" height="24" viewBox="0 0 24 24" fill="none" xmlns="http://www.w3.org/2000/svg">
<path d="M23.5861 19.862H0.413812C0.185297 19.862 0 19.6767 0 19.4482V4.55174C0 4.32322 0.185297 4.13792 0.413812 4.13792H23.5862C23.8147 4.13792 24 4.32322 24 4.55174V19.4482C24 19.6768 23.8147 19.862 23.5861 19.862Z" fill="#FF4B55"/>
<path d="M11.5862 12H0.413812C0.185297 12 0 11.8147 0 11.5862V4.55174C0 4.32322 0.185297 4.13792 0.413812 4.13792H11.5862C11.8147 4.13792 12 4.32322 12 4.55174V11.5862C11.9999 11.8148 11.8147 12 11.5862 12Z" fill="#41479B"/>
<path d="M11.5862 4.13792H10.8674L7.03447 6.64915V4.13792H4.96551V6.64915L1.13254 4.13792H0.413812C0.185297 4.13792 0 4.32322 0 4.55174V4.87995L3.28851 7.03447H0V9.10343H3.28851L0 11.258V11.5862C0 11.8147 0.185297 12 0.413812 12H1.13254L4.96551 9.48874V12H7.03447V9.48874L10.8674 12H11.5861C11.8146 12 11.9999 11.8147 11.9999 11.5862V11.2579L8.71147 9.10343H11.9999V7.03447H8.71142L11.9999 4.87995V4.55174C11.9999 4.32322 11.8147 4.13792 11.5862 4.13792Z" fill="#F5F5F5"/>
<path d="M11.9999 7.44828H6.62066V4.13792H5.37927V7.44828H0V8.68962H5.37927V12H6.62066V8.68962H11.9999V7.44828Z" fill="#FF4B55"/>
<path d="M4.55169 7.03446L0.197203 4.20786C0.081328 4.28121 0 4.4044 0 4.55173V4.5732L3.79166 7.03446H4.55169Z" fill="#FF4B55"/>
<path d="M7.79445 7.03447L11.937 4.34544C11.865 4.22361 11.7379 4.13792 11.5861 4.13792H11.4966L7.03442 7.03447H7.79445Z" fill="#FF4B55"/>
<path d="M4.19405 9.10342L0.0594482 11.7873C0.130745 11.9121 0.259745 12 0.413776 12H0.491822L4.95408 9.10342H4.19405Z" fill="#FF4B55"/>
<path d="M11.9933 11.6187L8.11838 9.10347H7.3584L11.7587 11.9597C11.8905 11.8986 11.9809 11.7704 11.9933 11.6187Z" fill="#FF4B55"/>
<path d="M15.0443 8.15759C14.9627 8.15759 14.8965 8.22373 14.8965 8.30539V13.7733C14.8965 14.2167 15.192 15.6945 17.9999 16.1379C20.8078 15.6945 21.1034 14.2167 21.1034 13.7733V8.30544C21.1034 8.22383 21.0372 8.15764 20.9556 8.15764L15.0443 8.15759Z" fill="#F5F5F5"/>
<path d="M18 16.1379C20.3439 15.7678 20.9367 14.6773 21.0688 14.0689H14.9312C15.0632 14.6772 15.656 15.7679 18 16.1379Z" fill="#73AF00"/>
<path d="M19.921 11.2611C19.921 11.2611 20.0688 11.1133 19.921 10.8177L17.9999 10.7318L16.0787 10.8177C15.9309 11.1133 16.0787 11.2611 16.0787 11.2611C15.9309 11.4089 15.9309 11.5566 15.9309 11.5566H16.2265L16.5467 12.0862L17.9998 12.8867L19.453 12.0862L19.7732 11.5566H20.0688C20.0688 11.5566 20.0688 11.4089 19.921 11.2611Z" fill="#82AFFF"/>
<path d="M19.4532 12.0862C19.4532 12.0862 19.3608 11.883 19.1145 11.9076C19.1145 11.9076 18.979 11.7291 18.7512 11.7783C18.7512 11.7783 18.4864 11.6244 18.3325 11.9076C18.3325 11.9076 17.8429 11.8579 17.8168 12.2307C17.8168 12.2307 18.5788 13.3793 18.5973 13.3916C18.6158 13.4039 19.5086 13.3977 19.5086 13.3977L19.9212 12.9425L19.5148 12.3571L19.4532 12.0862Z" fill="#F5F5F5"/>
<path d="M18.0185 12.4495C18.0185 12.4495 17.3721 11.3935 17.2795 11.3042C17.1902 11.218 17.0147 11.1379 16.8361 11.2857C16.8361 11.2857 16.3005 11.2426 16.3743 11.649L16.5282 12.2648C16.5282 12.2648 16.3927 12.6897 16.3312 12.7328C16.2696 12.7759 16.0417 12.8929 16.0417 12.8929L16.1711 13.404L17.8952 13.3178L18.0185 12.4495Z" fill="#F0C850"/>
<path d="M18.7635 11.9876L18.7615 11.9885L18.7138 11.876C18.71 11.8669 18.7027 11.8597 18.6935 11.8561C18.6843 11.8525 18.6741 11.8526 18.6649 11.8566L18.3442 11.998L17.9627 11.3736C17.9797 11.359 17.987 11.3353 17.9791 11.3132C17.9688 11.2843 17.937 11.2693 17.9082 11.2795L17.8232 11.31L17.7656 11.14C17.7591 11.1206 17.7382 11.1106 17.7188 11.1168C17.6995 11.1234 17.6891 11.1444 17.6957 11.1637L17.7536 11.335L17.6627 11.3675C17.6339 11.3779 17.6189 11.4097 17.6292 11.4384C17.6373 11.461 17.6587 11.4753 17.6814 11.4753C17.6846 11.4753 17.6879 11.4742 17.6911 11.4736L17.8168 12.2308L17.7357 12.2665C17.7181 12.2743 17.7093 12.2945 17.7159 12.3127L17.7618 12.4407C17.763 12.4623 17.7629 12.4987 17.7555 12.5447L17.2396 11.6598C17.2613 11.6462 17.2721 11.6199 17.2631 11.5949C17.2527 11.566 17.2213 11.5509 17.1923 11.5613L17.1072 11.5917L17.0497 11.4218C17.0432 11.4024 17.0222 11.392 17.0029 11.3986C16.9835 11.4052 16.9732 11.4261 16.9797 11.4455L17.0377 11.6168L16.9468 11.6493C16.918 11.6597 16.903 11.6914 16.9133 11.7202C16.9207 11.7408 16.9395 11.753 16.96 11.7552L17.1839 13.1528C17.155 13.1649 17.1266 13.1772 17.0948 13.1886C17.0948 13.1886 16.9901 13.6874 17.0702 13.712C17.1502 13.7366 17.9753 13.9891 17.9753 13.9891C17.9753 13.9891 19.1145 13.4472 19.1391 13.4349C19.1637 13.4226 19.213 13.0654 19.213 13.0654L18.7635 11.9876ZM18.6936 12.0177L18.5982 12.0587L18.5666 11.9807L18.6603 11.9394L18.6936 12.0177ZM18.1171 12.1789L18.1955 12.1444L18.2256 12.2187L18.1426 12.2544L18.1171 12.1789ZM18.0745 12.2836L17.9817 12.3234L17.9526 12.2515L18.0492 12.2089L18.0745 12.2836ZM18.2935 12.1895L18.263 12.1146L18.3468 12.0776L18.3775 12.1535L18.2935 12.1895ZM18.4144 12.0479L18.499 12.0105L18.5304 12.0878L18.4454 12.1243L18.4144 12.0479ZM17.8939 11.4025L18.276 12.0281L18.0933 12.1086L17.8587 11.4151L17.8939 11.4025ZM17.762 11.4498L17.7891 11.44L18.0254 12.1387L17.8865 12.1999L17.762 11.4498ZM17.885 12.2814L17.9139 12.3527L17.8227 12.3918L17.797 12.3202L17.885 12.2814ZM17.1701 11.687L17.7297 12.647C17.7015 12.7284 17.6484 12.8229 17.5552 12.9157L17.1428 11.6967L17.1701 11.687ZM17.032 11.7365L17.0733 11.7217L17.4956 12.9701C17.4316 13.0232 17.3519 13.0745 17.2539 13.1215L17.032 11.7365Z" fill="#965032"/>
<path d="M20.0551 10.5938C20.0159 10.5314 19.8899 10.5581 19.8899 10.5581C19.8899 10.5581 19.854 10.4862 19.7589 10.4793C19.6639 10.4724 19.6465 10.557 19.6465 10.557C19.6465 10.557 19.6287 10.5438 19.524 10.5469C19.4193 10.5499 19.4409 10.7224 19.4409 10.7224C19.4409 10.7224 19.4009 10.7224 19.2654 10.6793C19.1299 10.6361 19.0407 10.6669 19.0407 10.6669C19.0345 10.5961 18.9976 10.5438 18.9976 10.5438C18.8837 10.59 18.7944 10.5377 18.7729 10.4976C18.7513 10.4576 18.8068 10.3961 18.8068 10.3437C18.8068 10.2913 18.7344 10.2937 18.709 10.2475C18.6836 10.2013 18.709 10.1759 18.776 10.1459C18.843 10.1159 18.9053 10.0051 18.8637 9.91502C18.822 9.82498 18.702 9.8411 18.702 9.8411C18.7436 9.84804 18.7782 9.92656 18.7113 9.94268C18.6444 9.95881 18.5843 9.71407 18.5843 9.71407C18.739 9.81799 18.8522 9.75565 18.8845 9.66556C18.9169 9.57546 18.8314 9.51317 18.8314 9.51317C18.7644 9.62168 18.649 9.52704 18.7114 9.45776C18.7737 9.38848 18.7791 9.27228 18.7791 9.27228C18.6405 9.34006 18.5543 9.25381 18.5543 9.25381C18.736 9.12762 18.6837 8.94898 18.6837 8.94898C18.616 8.91818 18.4712 8.94284 18.4712 8.94284C18.502 8.88125 18.4958 8.77039 18.4958 8.77039C18.4189 8.75806 18.3327 8.80732 18.3327 8.80732C18.3573 8.72117 18.3234 8.57028 18.3234 8.57028C18.268 8.57956 18.1633 8.61031 18.1633 8.61031C18.1202 8.51178 18.0001 8.45328 18.0001 8.45328C18.0001 8.45328 17.8801 8.51178 17.837 8.61031C17.837 8.61031 17.7323 8.57951 17.6769 8.57028C17.6769 8.57028 17.643 8.72117 17.6676 8.80732C17.6676 8.80732 17.5814 8.75811 17.5044 8.77039C17.5044 8.77039 17.4983 8.88125 17.5291 8.94284C17.5291 8.94284 17.3843 8.91823 17.3166 8.94898C17.3166 8.94898 17.2643 9.12753 17.4459 9.25381C17.4459 9.25381 17.3597 9.34001 17.2212 9.27228C17.2212 9.27228 17.2266 9.38848 17.2889 9.45776C17.3513 9.52704 17.2358 9.62173 17.1689 9.51317C17.1689 9.51317 17.0834 9.57551 17.1158 9.66556C17.1481 9.7556 17.2613 9.81795 17.4159 9.71407C17.4159 9.71407 17.3559 9.95885 17.289 9.94268C17.222 9.92656 17.2566 9.84804 17.2982 9.8411C17.2982 9.8411 17.1782 9.82493 17.1366 9.91502C17.095 10.0051 17.1574 10.1159 17.2243 10.1459C17.2913 10.1759 17.3167 10.2013 17.2913 10.2475C17.2659 10.2937 17.1935 10.2914 17.1935 10.3437C17.1935 10.3961 17.2489 10.4576 17.2274 10.4976C17.2058 10.5377 17.1166 10.59 17.0027 10.5438C17.0027 10.5438 16.9658 10.5962 16.9596 10.6669C16.9596 10.6669 16.8703 10.6361 16.7349 10.6793C16.5994 10.7224 16.5594 10.7224 16.5594 10.7224C16.5594 10.7224 16.581 10.5499 16.4763 10.5469C16.3716 10.5438 16.3538 10.557 16.3538 10.557C16.3538 10.557 16.3364 10.4724 16.2413 10.4793C16.1463 10.4863 16.1104 10.5581 16.1104 10.5581C16.1104 10.5581 15.9844 10.5315 15.9452 10.5938C15.906 10.6561 15.9013 10.7508 15.9752 10.7901C16.0491 10.8294 16.2453 10.9933 16.2453 10.9933L16.5224 11.1133L17.4923 10.6838L18.0002 10.8177L18.5082 10.6838L19.4781 11.1133L19.7551 10.9933C19.7551 10.9933 19.9515 10.8293 20.0253 10.7901C20.099 10.7508 20.0944 10.6561 20.0551 10.5938Z" fill="#FF4B55"/>
<path d="M17.6974 9.02872C17.6974 9.02872 17.7078 9.15913 17.9008 9.12435C17.9008 9.12435 17.8956 8.98874 17.6974 9.02872Z" fill="#F5F5F5"/>
<path d="M16.9834 14.1798C16.9834 14.1798 16.8448 14.1752 16.7017 14.2814C16.5585 14.3876 16.4954 14.3122 16.3522 14.3122C16.2091 14.3122 16.1752 14.4615 16.1752 14.4615C16.1752 14.4615 15.8981 14.5308 16.009 14.734C16.079 14.8625 16.1766 14.8598 16.239 14.8405C16.2359 14.9269 16.2555 15.0217 16.3553 15.0388C16.5447 15.0712 16.6278 14.9696 16.5862 14.8125C16.5862 14.8125 16.6093 14.9742 16.734 14.9696C16.8587 14.965 16.9419 14.8956 16.928 14.7294C16.9141 14.5632 17.1358 14.6648 17.3067 14.42L16.9834 14.1798Z" fill="#FF4B55"/>
<path d="M16.1736 14.774C16.1736 14.774 16.0874 14.8879 16.1121 14.9987C16.1121 14.9987 15.9274 14.9402 16.0259 14.6662C16.0259 14.6662 16.1521 14.6324 16.1736 14.774Z" fill="#82AFFF"/>
<path d="M16.4637 14.9233C16.4637 14.9233 16.4129 15.0665 16.4822 15.1935C16.4822 15.1935 16.2513 15.1865 16.2975 14.9025C16.2975 14.9025 16.3714 14.8264 16.4637 14.9233Z" fill="#82AFFF"/>
<path d="M16.6947 14.9095C16.6947 14.9095 16.7363 15.0295 16.6947 15.145C16.6947 15.145 16.8841 15.1335 16.8517 14.861C16.8517 14.861 16.7501 14.8241 16.6947 14.9095Z" fill="#82AFFF"/>
<path d="M16.5262 12.1478C16.5087 12.0054 15.6164 11.9215 15.6718 12.6712C15.6718 12.6712 15.5728 12.6694 15.5242 12.7616C15.4755 12.8537 15.3712 12.8311 15.3398 12.7981C15.3398 12.7981 15.3468 12.965 15.5537 12.958C15.5537 12.958 15.4882 13.0096 15.4975 13.0849C15.5068 13.1603 15.5612 13.2553 15.5578 13.3203C15.5543 13.3852 15.4928 13.4756 15.4928 13.4756C15.4928 13.4756 15.6517 13.4211 15.6621 13.3076C15.6725 13.194 15.647 13.0989 15.6783 13.041C15.6783 13.041 15.6632 13.1209 15.7339 13.2218C15.8046 13.3227 15.8081 13.4455 15.7791 13.522C15.7791 13.522 15.9553 13.4351 15.9217 13.267C15.888 13.099 15.8521 13.114 15.8683 13.0201C15.8683 13.0201 16.0515 13.2067 16.0202 13.3655C16.0202 13.3655 16.0787 13.2954 16.0735 13.1633C16.0683 13.0312 15.9766 12.9423 15.9766 12.9423C15.9766 12.9423 16.5862 12.6373 16.5262 12.1478Z" fill="#FF4B55"/>
<path d="M19.0165 14.1798C19.0165 14.1798 19.1551 14.1752 19.2982 14.2814C19.4414 14.3876 19.5045 14.3122 19.6477 14.3122C19.7908 14.3122 19.8247 14.4615 19.8247 14.4615C19.8247 14.4615 20.1018 14.5308 19.9909 14.734C19.9208 14.8625 19.8233 14.8598 19.7609 14.8405C19.764 14.9269 19.7444 15.0217 19.6446 15.0388C19.4552 15.0712 19.3721 14.9696 19.4137 14.8125C19.4137 14.8125 19.3906 14.9742 19.2659 14.9696C19.1412 14.965 19.058 14.8956 19.0719 14.7294C19.0858 14.5632 18.864 14.6648 18.6932 14.42L19.0165 14.1798Z" fill="#FF4B55"/>
<path d="M19.8263 14.774C19.8263 14.774 19.9125 14.8879 19.8878 14.9987C19.8878 14.9987 20.0725 14.9402 19.974 14.6662C19.974 14.6662 19.8478 14.6324 19.8263 14.774Z" fill="#82AFFF"/>
<path d="M19.536 14.9233C19.536 14.9233 19.5869 15.0665 19.5176 15.1935C19.5176 15.1935 19.7485 15.1865 19.7023 14.9025C19.7024 14.9025 19.6284 14.8264 19.536 14.9233Z" fill="#82AFFF"/>
<path d="M19.3052 14.9095C19.3052 14.9095 19.2636 15.0295 19.3052 15.145C19.3052 15.145 19.1158 15.1335 19.1481 14.861C19.1481 14.861 19.2498 14.8241 19.3052 14.9095Z" fill="#82AFFF"/>
<path d="M19.4738 12.1478C19.4913 12.0054 20.3836 11.9215 20.3282 12.6712C20.3282 12.6712 20.4272 12.6694 20.4758 12.7616C20.5245 12.8537 20.6288 12.8311 20.6601 12.7981C20.6601 12.7981 20.6532 12.965 20.4463 12.958C20.4463 12.958 20.5118 13.0096 20.5025 13.0849C20.4932 13.1603 20.4387 13.2553 20.4422 13.3203C20.4457 13.3852 20.5071 13.4756 20.5071 13.4756C20.5071 13.4756 20.3483 13.4211 20.3379 13.3076C20.3275 13.194 20.353 13.0989 20.3217 13.041C20.3217 13.041 20.3367 13.1209 20.266 13.2218C20.1954 13.3227 20.1919 13.4455 20.2209 13.522C20.2209 13.522 20.0447 13.4351 20.0783 13.267C20.1119 13.099 20.1479 13.114 20.1317 13.0201C20.1317 13.0201 19.9485 13.2067 19.9798 13.3655C19.9798 13.3655 19.9212 13.2954 19.9264 13.1633C19.9316 13.0312 20.0234 12.9423 20.0234 12.9423C20.0234 12.9423 19.4137 12.6373 19.4738 12.1478Z" fill="#FF4B55"/>
<path d="M19.8387 10.87C19.8048 10.8471 19.7589 10.8566 19.7363 10.8909C19.6896 10.9615 19.628 11.0028 19.5482 11.0171C19.2837 11.0629 18.9025 10.8026 18.7918 10.7212C18.6314 10.6032 18.4332 10.5828 18.3016 10.6638C18.2491 10.6812 18.0886 10.7318 18 10.7318C17.9114 10.7318 17.7509 10.6811 17.6984 10.6638C17.5668 10.5828 17.3686 10.6032 17.2082 10.7212C17.0975 10.8026 16.7163 11.0629 16.4519 11.0171C16.372 11.0028 16.3105 10.9615 16.2637 10.8909C16.2411 10.8567 16.1952 10.8472 16.1613 10.87C16.1273 10.8925 16.1179 10.9384 16.1404 10.9723C16.2097 11.0771 16.3058 11.141 16.426 11.1625C16.4563 11.1679 16.4874 11.1704 16.519 11.1704C16.801 11.1704 17.12 10.9692 17.2956 10.8403C17.4261 10.7445 17.5725 10.7447 17.6384 10.8002C17.655 10.8143 17.674 10.8366 17.6694 10.8627C17.667 10.877 17.6575 10.8898 17.6419 10.9007C17.6457 10.878 17.6388 10.8539 17.6213 10.8363C17.5924 10.8074 17.5457 10.8074 17.5168 10.8363C17.4792 10.8737 17.4752 10.9344 17.5068 10.9838C17.5386 11.0333 17.6072 11.0695 17.6887 11.0394C17.7301 11.0239 17.7632 10.9945 17.7861 10.9584C17.8984 10.9257 18.0001 10.9255 18.0001 10.9255C18.0001 10.9255 18.1017 10.9256 18.214 10.9584C18.237 10.9945 18.2701 11.0239 18.3114 11.0394C18.3929 11.0695 18.4614 11.0333 18.4933 10.9838C18.525 10.9345 18.5209 10.8737 18.4833 10.8363C18.4544 10.8074 18.4077 10.8074 18.3788 10.8363C18.3613 10.8539 18.3545 10.878 18.3582 10.9007C18.3426 10.8898 18.3332 10.877 18.3307 10.8627C18.3262 10.8366 18.3451 10.8143 18.3617 10.8002C18.4277 10.7447 18.5739 10.7445 18.7045 10.8403C18.8801 10.9692 19.1992 11.1704 19.4812 11.1704C19.5128 11.1704 19.5438 11.1679 19.5742 11.1625C19.6944 11.1409 19.7904 11.077 19.8597 10.9723C19.8821 10.9384 19.8728 10.8925 19.8387 10.87Z" fill="#FFE15A"/>
<path d="M16.117 10.9516C16.117 10.9516 16.1049 10.7864 16.0996 10.7325C16.0944 10.6786 15.9936 10.6386 15.9553 10.6925C15.9171 10.7464 15.9067 10.8455 16.117 10.9516Z" fill="#82AFFF"/>
<path d="M16.1527 10.8986C16.1527 10.8986 16.2982 10.7808 16.2796 10.7185C16.2612 10.6561 16.2219 10.6238 16.1734 10.6423C16.1249 10.6608 16.1018 10.7739 16.1527 10.8986Z" fill="#82AFFF"/>
<path d="M16.4367 10.8062C16.4577 10.7853 16.4645 10.6838 16.4067 10.6722C16.349 10.6607 16.2728 10.7508 16.2774 10.8616C16.2774 10.8616 16.3975 10.8454 16.4367 10.8062Z" fill="#82AFFF"/>
<path d="M16.3766 10.8639C16.3096 10.8853 16.245 10.9424 16.245 10.9424C16.245 10.9424 16.365 11.0301 16.4482 11.0025C16.5314 10.9748 16.4921 10.827 16.3766 10.8639Z" fill="#82AFFF"/>
<path d="M18.3024 9.02872C18.3024 9.02872 18.292 9.15913 18.099 9.12435C18.099 9.12435 18.1042 8.98874 18.3024 9.02872Z" fill="#F5F5F5"/>
<path d="M19.8829 10.9516C19.8829 10.9516 19.8951 10.7864 19.9003 10.7325C19.9055 10.6786 20.0064 10.6386 20.0447 10.6925C20.0829 10.7464 20.0933 10.8455 19.8829 10.9516Z" fill="#82AFFF"/>
<path d="M19.8474 10.8986C19.8474 10.8986 19.7019 10.7808 19.7204 10.7185C19.7388 10.6561 19.7781 10.6238 19.8266 10.6423C19.8751 10.6608 19.8981 10.7739 19.8474 10.8986Z" fill="#82AFFF"/>
<path d="M19.5632 10.8062C19.5423 10.7853 19.5355 10.6838 19.5932 10.6722C19.6509 10.6607 19.7272 10.7508 19.7226 10.8616C19.7226 10.8616 19.6025 10.8454 19.5632 10.8062Z" fill="#82AFFF"/>
<path d="M19.6233 10.8639C19.6903 10.8853 19.7549 10.9424 19.7549 10.9424C19.7549 10.9424 19.6349 11.0301 19.5517 11.0025C19.4685 10.9748 19.5078 10.827 19.6233 10.8639Z" fill="#82AFFF"/>
<path d="M17.9236 9.33598L17.9822 9.39458C17.992 9.40442 18.008 9.40442 18.0178 9.39458L18.0764 9.33598C18.0923 9.32009 18.081 9.29295 18.0585 9.29295H17.9413C17.9189 9.29295 17.9077 9.32009 17.9236 9.33598Z" fill="#464655"/>
<path d="M17.8929 9.57631C17.8494 9.57631 17.8118 9.56074 17.7863 9.53196C17.7598 9.50206 17.7486 9.46095 17.7553 9.41909C17.7577 9.40507 17.7717 9.39659 17.7849 9.39771C17.799 9.40006 17.8086 9.41328 17.8063 9.42743C17.8021 9.45387 17.8089 9.47937 17.825 9.49756C17.8415 9.51617 17.8669 9.52484 17.898 9.52442C17.963 9.52184 17.9739 9.45832 17.9743 9.45575L17.974 9.33982C17.974 9.32553 17.9855 9.314 17.9998 9.314C18.0141 9.314 18.0257 9.32553 18.0257 9.33982V9.45978C18.0194 9.50121 17.9855 9.57265 17.9 9.57612C17.8977 9.57631 17.8953 9.57631 17.8929 9.57631Z" fill="#464655"/>
<path d="M18.1071 9.57631C18.1047 9.57631 18.1023 9.57631 18.0998 9.57617C18.0143 9.5727 17.9805 9.50126 17.9745 9.46385L17.9741 9.33987C17.9741 9.32557 17.9857 9.31404 17.9999 9.31404C18.0142 9.31404 18.0258 9.32557 18.0258 9.33987V9.45982C18.0267 9.4624 18.0388 9.52203 18.1018 9.52446C18.1338 9.52503 18.1582 9.51654 18.1748 9.4976C18.1909 9.47942 18.1977 9.45392 18.1934 9.42748C18.1912 9.41337 18.2008 9.40006 18.2149 9.39776C18.2284 9.39607 18.2422 9.40498 18.2445 9.41913C18.2512 9.46099 18.2399 9.5021 18.2136 9.53201C18.1881 9.56074 18.1506 9.57631 18.1071 9.57631Z" fill="#464655"/>
<path d="M18.8866 13.3301C18.8866 13.3301 18.7019 13.0345 18.4864 13.2315C18.2708 13.4286 18.1908 13.6687 17.9445 13.6502C17.8094 13.6401 17.7403 13.5784 17.7045 13.5244C17.7699 13.4705 17.8163 13.3887 17.766 13.2684C17.6551 13.0036 17.2487 13.0837 17.1379 13.3731C17.1379 13.3731 17.2672 12.9482 16.8177 13.0899C16.8177 13.0899 16.7623 12.7943 16.5037 12.8743C16.363 12.9179 16.311 13.0044 16.2917 13.0749C16.2373 13.0623 16.1674 13.0626 16.1034 13.1145L16.4297 13.995L16.9223 14.0012L17.0332 14.1674L17.6798 14.5738L17.7967 14.8201H18.2032C18.2032 14.8201 18.234 14.5676 18.4495 14.4938C18.665 14.4198 19.016 14.2659 19.053 14.1304C19.0899 13.995 19.0899 13.995 19.0899 13.995L19.484 14.0011C19.527 13.9703 19.8165 13.4962 19.8165 13.4962L19.9508 12.8855C19.8766 12.8749 19.0279 12.7648 18.8866 13.3301Z" fill="#F5F5F5"/>
<path d="M19.9518 12.8805L19.9507 12.8856C19.9541 12.8861 19.958 12.8867 19.958 12.8867L19.9518 12.8805Z" fill="#F5F5F5"/>
<path d="M17.2699 14.2742C17.1102 14.2098 17.0532 14.1196 17.0335 14.0716C17.0152 14.0271 17.0188 13.9956 17.0238 13.9841C17.034 13.9606 17.0463 13.9456 17.0578 13.9427C17.0686 13.9401 17.0823 13.9463 17.0848 13.9478C17.0899 13.9537 17.0927 13.9725 17.0877 13.9771C17.058 14.0051 17.0567 14.0518 17.0846 14.0816C17.1127 14.1113 17.1593 14.1126 17.1891 14.0847C17.2195 14.0562 17.2369 14.0162 17.2381 13.9722C17.2395 13.925 17.2222 13.878 17.192 13.8462C17.1618 13.8142 17.0996 13.785 17.0335 13.7968C17.0198 13.7992 17.0044 13.8048 16.9887 13.8124C16.9991 13.71 16.9596 13.6576 16.9307 13.6365C16.882 13.6011 16.8126 13.6003 16.7543 13.6345C16.6946 13.6695 16.6623 13.7309 16.6702 13.7944C16.6753 13.8349 16.7159 13.8592 16.7556 13.8537C16.7961 13.8488 16.8279 13.807 16.8229 13.7666C16.8313 13.759 16.8423 13.7564 16.842 13.7546C16.8421 13.7547 16.8519 13.7709 16.8401 13.823C16.8217 13.9047 16.7785 13.9549 16.7117 13.9726C16.6285 13.9955 16.5219 13.9605 16.4589 13.8913C16.3713 13.7949 16.1879 13.2833 16.0788 12.9425C16.5462 12.7208 16.6037 12.3525 16.5948 12.1473C16.5813 11.8347 16.3943 11.5149 16.1863 11.4489C16.1044 11.4231 15.9819 11.4177 15.8929 11.4636C15.8425 11.4899 15.8075 11.5301 15.7918 11.5802C15.7597 11.6823 15.8239 11.7668 15.9008 11.7944C15.9804 11.8229 16.0608 11.7886 16.0916 11.7125C16.107 11.6747 16.0902 11.6314 16.0525 11.6161C16.0144 11.6004 15.9731 11.6188 15.9578 11.6565C15.9547 11.6582 15.9445 11.6544 15.9368 11.6457C15.9313 11.6393 15.9301 11.6331 15.9328 11.6246C15.9353 11.6168 15.9408 11.6053 15.9612 11.5947C16.0095 11.5695 16.0902 11.5734 16.1418 11.5897C16.2608 11.6273 16.4345 11.8601 16.4472 12.1535C16.4547 12.3289 16.4015 12.6503 15.9603 12.8335C15.9249 12.8482 15.9066 12.8873 15.9181 12.9238C15.9469 13.016 16.2039 13.8304 16.3495 13.9905C16.4278 14.0766 16.5462 14.1267 16.6594 14.1267C16.69 14.1267 16.7204 14.1231 16.7494 14.1154C16.7988 14.1023 16.84 14.0769 16.8758 14.0449C16.8794 14.072 16.8857 14.0997 16.8971 14.1275C16.9256 14.197 17.0049 14.3264 17.2262 14.4155C17.6737 14.5951 17.7162 14.7151 17.7138 14.7586C17.7124 14.7824 17.6988 14.7947 17.6876 14.801C17.6828 14.8037 17.678 14.8054 17.674 14.8065C17.6905 14.7838 17.6935 14.7528 17.6789 14.7266C17.659 14.691 17.614 14.6783 17.5784 14.6982C17.5281 14.7263 17.493 14.7926 17.5231 14.865C17.5465 14.9213 17.6014 14.9554 17.6648 14.9554C17.6749 14.9554 17.6853 14.9545 17.6958 14.9526C17.7879 14.9371 17.8558 14.8607 17.8613 14.767C17.8739 14.5431 17.5361 14.381 17.2699 14.2742Z" fill="#FFE15A"/>
<path d="M18.7301 14.2742C18.8898 14.2098 18.9468 14.1196 18.9665 14.0716C18.9849 14.0271 18.9813 13.9956 18.9762 13.9841C18.9661 13.9606 18.9537 13.9456 18.9423 13.9427C18.9314 13.9401 18.9177 13.9463 18.9153 13.9478C18.9101 13.9537 18.9073 13.9725 18.9123 13.9771C18.9421 14.0051 18.9434 14.0518 18.9154 14.0816C18.8874 14.1113 18.8408 14.1126 18.811 14.0847C18.7806 14.0562 18.7631 14.0162 18.762 13.9722C18.7606 13.925 18.7779 13.878 18.808 13.8462C18.8383 13.8142 18.9004 13.785 18.9666 13.7968C18.9802 13.7992 18.9956 13.8048 19.0113 13.8124C19.0009 13.71 19.0404 13.6576 19.0694 13.6365C19.1181 13.6011 19.1874 13.6003 19.2458 13.6345C19.3054 13.6695 19.3377 13.7309 19.3298 13.7944C19.3248 13.8349 19.2841 13.8592 19.2445 13.8537C19.204 13.8488 19.1721 13.807 19.1771 13.7666C19.1687 13.759 19.1577 13.7564 19.1581 13.7546C19.1579 13.7547 19.1482 13.7709 19.1599 13.823C19.1784 13.9047 19.2215 13.9549 19.2884 13.9726C19.3716 13.9955 19.4782 13.9605 19.5412 13.8913C19.6288 13.7949 19.8122 13.2833 19.9212 12.9425C19.4538 12.7208 19.3964 12.3525 19.4052 12.1473C19.4187 11.8347 19.6058 11.5149 19.8138 11.4489C19.8956 11.4231 20.0182 11.4177 20.1071 11.4636C20.1575 11.4899 20.1925 11.5301 20.2083 11.5802C20.2404 11.6823 20.1761 11.7668 20.0992 11.7944C20.0196 11.8229 19.9393 11.7886 19.9084 11.7125C19.8931 11.6747 19.9098 11.6314 19.9476 11.6161C19.9856 11.6004 20.027 11.6188 20.0422 11.6565C20.0453 11.6582 20.0556 11.6544 20.0632 11.6457C20.0688 11.6393 20.0699 11.6331 20.0672 11.6246C20.0648 11.6168 20.0592 11.6053 20.0388 11.5947C19.9906 11.5695 19.9098 11.5734 19.8583 11.5897C19.7393 11.6273 19.5655 11.8601 19.5529 12.1535C19.5453 12.3289 19.5985 12.6503 20.0398 12.8335C20.0752 12.8482 20.0934 12.8873 20.082 12.9238C20.0531 13.016 19.7961 13.8304 19.6505 13.9905C19.5722 14.0766 19.4539 14.1267 19.3406 14.1267C19.31 14.1267 19.2797 14.1231 19.2506 14.1154C19.2013 14.1023 19.1601 14.0769 19.1242 14.0449C19.1207 14.072 19.1144 14.0997 19.1029 14.1275C19.0744 14.197 18.9951 14.3264 18.7739 14.4155C18.3264 14.5951 18.2839 14.7151 18.2863 14.7586C18.2877 14.7824 18.3013 14.7947 18.3124 14.801C18.3172 14.8037 18.322 14.8054 18.3261 14.8065C18.3096 14.7838 18.3066 14.7528 18.3212 14.7266C18.3411 14.691 18.386 14.6783 18.4217 14.6982C18.472 14.7263 18.507 14.7926 18.477 14.865C18.4535 14.9213 18.3986 14.9554 18.3353 14.9554C18.3251 14.9554 18.3147 14.9545 18.3042 14.9526C18.2122 14.9371 18.1442 14.8607 18.1388 14.767C18.1261 14.5431 18.4639 14.381 18.7301 14.2742Z" fill="#FFE15A"/>
</svg>
