<svg width="24" height="24" viewBox="0 0 24 24" fill="none" xmlns="http://www.w3.org/2000/svg">
<path d="M24 9.37935H0V4.55175C0 4.32324 0.185297 4.13794 0.413812 4.13794H23.5862C23.8147 4.13794 24 4.32324 24 4.55175L24 9.37935Z" fill="#41479B"/>
<path d="M23.5861 19.8621H0.413812C0.185297 19.8621 0 19.6768 0 19.4483V14.6207H24V19.4483C24 19.6768 23.8147 19.8621 23.5861 19.8621Z" fill="#41479B"/>
<path d="M24 9.37924H0V14.6203H24V9.37924Z" fill="#F5F5F5"/>
<path d="M11.99 13.7607C10.9918 13.7607 10.1797 12.9486 10.1797 11.9504C10.1797 11.524 10.3308 11.1099 10.6053 10.7843L10.6844 10.8509C10.4256 11.1579 10.2831 11.5483 10.2831 11.9504C10.2831 12.8915 11.0488 13.6573 11.99 13.6573L11.99 13.7607Z" fill="#50AF69"/>
<path d="M11.3278 13.2262C11.3052 13.2648 11.294 13.3177 11.2891 13.3715C11.2687 13.3568 11.247 13.3431 11.2235 13.3316C11.2235 13.3316 11.1879 13.457 11.2157 13.5472C11.2157 13.5472 11.1214 13.5589 11.0347 13.6458C11.0347 13.6458 11.0646 13.6669 11.1158 13.6889C11.0298 13.756 11.0033 13.8224 11.0033 13.8224C11.511 14.0762 11.7542 13.7221 11.7648 13.7062C11.6405 13.3514 11.3278 13.2262 11.3278 13.2262Z" fill="#50AF69"/>
<path d="M11.7649 13.7064C11.7652 13.7073 11.7656 13.708 11.7659 13.7089V13.7049C11.7659 13.7049 11.7651 13.706 11.7649 13.7064Z" fill="#50AF69"/>
<path d="M10.859 12.8879C10.8259 12.9122 10.7971 12.9527 10.7732 12.9963C10.7614 12.9764 10.7481 12.9569 10.7324 12.9386C10.7324 12.9386 10.6566 13.0313 10.6471 13.1176C10.6471 13.1176 10.5633 13.093 10.4585 13.1345C10.4585 13.1345 10.4759 13.1632 10.5111 13.2005C10.4141 13.2257 10.3674 13.2719 10.3674 13.2719C10.7025 13.6715 11.0371 13.462 11.0519 13.4525C11.0769 13.1077 10.859 12.8879 10.859 12.8879Z" fill="#50AF69"/>
<path d="M11.0519 13.4524C11.0518 13.4533 11.0519 13.454 11.0518 13.4549L11.0533 13.4515C11.0533 13.4515 11.0522 13.4521 11.0519 13.4524Z" fill="#50AF69"/>
<path d="M10.5682 12.4455C10.532 12.4531 10.4933 12.4758 10.4576 12.5027C10.4552 12.482 10.4515 12.4611 10.4455 12.4402C10.4455 12.4402 10.3488 12.4882 10.309 12.5556C10.309 12.5556 10.2493 12.5043 10.1479 12.4996C10.1479 12.4996 10.1515 12.5297 10.1667 12.5733C10.0777 12.558 10.0222 12.5787 10.0222 12.5787C10.1494 13.0312 10.5018 12.983 10.5175 12.9806C10.6656 12.7069 10.5682 12.4455 10.5682 12.4455Z" fill="#50AF69"/>
<path d="M10.5174 12.9807C10.517 12.9813 10.5168 12.982 10.5164 12.9827L10.5188 12.9804C10.5188 12.9804 10.5178 12.9806 10.5174 12.9807Z" fill="#50AF69"/>
<path d="M10.453 11.9414C10.4187 11.9436 10.3787 11.9586 10.3404 11.9776C10.343 11.9594 10.3445 11.9408 10.3438 11.922C10.3438 11.922 10.2458 11.9519 10.1946 12.0055C10.1946 12.0055 10.1526 11.9538 10.0623 11.9375C10.0623 11.9375 10.0588 11.964 10.0623 12.0037C9.98573 11.9796 9.93103 11.9908 9.93103 11.9908C9.94172 12.3987 10.27 12.3996 10.2846 12.3994C10.4808 12.1799 10.453 11.9414 10.453 11.9414Z" fill="#50AF69"/>
<path d="M10.2846 12.3995C10.2841 12.4001 10.2837 12.4006 10.2832 12.4012L10.2859 12.3995C10.2859 12.3995 10.2849 12.3995 10.2846 12.3995Z" fill="#50AF69"/>
<path d="M10.4912 11.5239C10.4619 11.5168 10.4244 11.519 10.3873 11.5252C10.3943 11.5105 10.4003 11.4953 10.4045 11.4794C10.4045 11.4794 10.3146 11.4792 10.2577 11.5109C10.2577 11.5109 10.2359 11.4566 10.1644 11.4196C10.1644 11.4196 10.1545 11.4409 10.1472 11.4751C10.0892 11.4351 10.0404 11.4304 10.0404 11.4304C9.94384 11.7753 10.219 11.861 10.2313 11.8646C10.4528 11.7311 10.4912 11.5239 10.4912 11.5239Z" fill="#50AF69"/>
<path d="M10.2313 11.8646C10.2308 11.865 10.2303 11.8653 10.2297 11.8656L10.2325 11.865C10.2325 11.865 10.2316 11.8646 10.2313 11.8646Z" fill="#50AF69"/>
<path d="M10.2734 11.0161C10.2734 11.0161 10.1796 11.2618 10.3251 11.404C10.3251 11.404 10.5148 11.348 10.6085 11.1508L10.5287 11.1357L10.4878 11.0129L10.352 11.0733L10.2734 11.0161Z" fill="#50AF69"/>
<path d="M10.5375 10.6212C10.5375 10.6212 10.3905 10.8392 10.5 11.0108C10.5 11.0108 10.6974 10.9991 10.8334 10.8283L10.7591 10.7956L10.7471 10.6666L10.6011 10.6946L10.5375 10.6212Z" fill="#50AF69"/>
<path d="M12.0099 13.7607V13.6573C12.951 13.6573 13.7168 12.8915 13.7168 11.9504C13.7168 11.5483 13.5743 11.1579 13.3155 10.8509L13.3946 10.7843C13.6691 11.1099 13.8202 11.524 13.8202 11.9504C13.8202 12.9486 13.0081 13.7607 12.0099 13.7607Z" fill="#50AF69"/>
<path d="M12.672 13.2262C12.6946 13.2648 12.7058 13.3177 12.7107 13.3715C12.7312 13.3568 12.7528 13.3431 12.7763 13.3316C12.7763 13.3316 12.8119 13.457 12.7841 13.5472C12.7841 13.5472 12.8784 13.5589 12.9651 13.6458C12.9651 13.6458 12.9352 13.6669 12.884 13.6889C12.97 13.756 12.9965 13.8224 12.9965 13.8224C12.4889 14.0762 12.2456 13.7221 12.235 13.7062C12.3594 13.3514 12.672 13.2262 12.672 13.2262Z" fill="#50AF69"/>
<path d="M12.235 13.7064C12.2347 13.7073 12.2343 13.708 12.234 13.7089V13.7049C12.234 13.7049 12.2348 13.706 12.235 13.7064Z" fill="#50AF69"/>
<path d="M13.1409 12.8879C13.1741 12.9122 13.2029 12.9527 13.2267 12.9963C13.2385 12.9764 13.2517 12.9569 13.2674 12.9386C13.2674 12.9386 13.3433 13.0313 13.3528 13.1176C13.3528 13.1176 13.4366 13.093 13.5414 13.1345C13.5414 13.1345 13.5239 13.1632 13.4888 13.2005C13.5858 13.2257 13.6325 13.2719 13.6325 13.2719C13.2974 13.6715 12.9628 13.462 12.948 13.4525C12.9231 13.1077 13.1409 12.8879 13.1409 12.8879Z" fill="#50AF69"/>
<path d="M12.9479 13.4524C12.948 13.4533 12.9479 13.454 12.948 13.4549L12.9465 13.4515C12.9465 13.4515 12.9476 13.4521 12.9479 13.4524Z" fill="#50AF69"/>
<path d="M13.4317 12.4455C13.4679 12.4531 13.5066 12.4758 13.5423 12.5027C13.5447 12.482 13.5483 12.4611 13.5544 12.4402C13.5544 12.4402 13.651 12.4882 13.6908 12.5556C13.6908 12.5556 13.7506 12.5043 13.852 12.4996C13.852 12.4996 13.8483 12.5297 13.8332 12.5733C13.9222 12.558 13.9777 12.5787 13.9777 12.5787C13.8505 13.0312 13.498 12.983 13.4823 12.9806C13.3343 12.7069 13.4317 12.4455 13.4317 12.4455Z" fill="#50AF69"/>
<path d="M13.4825 12.9807C13.4829 12.9813 13.4831 12.982 13.4836 12.9827L13.4811 12.9804C13.4811 12.9804 13.4822 12.9806 13.4825 12.9807Z" fill="#50AF69"/>
<path d="M13.5469 11.9414C13.5812 11.9436 13.6212 11.9586 13.6595 11.9776C13.6569 11.9594 13.6554 11.9408 13.6561 11.922C13.6561 11.922 13.7541 11.9519 13.8053 12.0055C13.8053 12.0055 13.8473 11.9538 13.9376 11.9375C13.9376 11.9375 13.9411 11.964 13.9376 12.0037C14.0142 11.9796 14.0689 11.9908 14.0689 11.9908C14.0582 12.3987 13.7299 12.3996 13.7153 12.3994C13.5191 12.1799 13.5469 11.9414 13.5469 11.9414Z" fill="#50AF69"/>
<path d="M13.7153 12.3995C13.7159 12.4001 13.7162 12.4006 13.7168 12.4012L13.714 12.3995C13.714 12.3995 13.715 12.3995 13.7153 12.3995Z" fill="#50AF69"/>
<path d="M13.5087 11.5239C13.5381 11.5168 13.5755 11.519 13.6126 11.5252C13.6057 11.5105 13.5996 11.4953 13.5954 11.4794C13.5954 11.4794 13.6853 11.4792 13.7422 11.5109C13.7422 11.5109 13.764 11.4566 13.8355 11.4196C13.8355 11.4196 13.8454 11.4409 13.8527 11.4751C13.9107 11.4351 13.9595 11.4304 13.9595 11.4304C14.0561 11.7753 13.781 11.861 13.7686 11.8646C13.5472 11.7311 13.5087 11.5239 13.5087 11.5239Z" fill="#50AF69"/>
<path d="M13.7686 11.8646C13.7691 11.865 13.7696 11.8653 13.7702 11.8656L13.7675 11.865C13.7675 11.865 13.7683 11.8646 13.7686 11.8646Z" fill="#50AF69"/>
<path d="M13.7265 11.0161C13.7265 11.0161 13.8203 11.2618 13.6748 11.404C13.6748 11.404 13.4851 11.348 13.3914 11.1508L13.4711 11.1357L13.5121 11.0129L13.6479 11.0733L13.7265 11.0161Z" fill="#50AF69"/>
<path d="M13.4623 10.6212C13.4623 10.6212 13.6093 10.8392 13.4998 11.0108C13.4998 11.0108 13.3024 10.9991 13.1664 10.8283L13.2407 10.7956L13.2527 10.6666L13.3986 10.6946L13.4623 10.6212Z" fill="#50AF69"/>
<path d="M11.9999 12.6725L11.84 12.9124C11.8127 12.9533 11.8181 13.0079 11.8529 13.0427L11.9999 13.1897L12.1469 13.0427C12.1818 13.0079 12.1871 12.9533 12.1599 12.9124L11.9999 12.6725Z" fill="#41479B"/>
<path d="M12.0681 12.9124L12 12.6725L11.9318 12.9124C11.9202 12.9533 11.9225 13.0079 11.9373 13.0427L12 13.1897L12.0626 13.0427C12.0775 13.0078 12.0798 12.9533 12.0681 12.9124Z" fill="#F5F5F5"/>
<path d="M12 10.5259V9.87936C12 9.87936 11.7543 10.2328 11.7931 10.75" fill="#41479B"/>
<path d="M10.8982 10.5281C10.5428 11.2995 10.9073 11.9342 10.9838 12.0536C10.9858 12.0568 11.4913 11.2392 11.4913 11.2392L10.8982 10.5281Z" fill="#41479B"/>
<path d="M11.2724 11.5929C11.2163 11.4182 11.2082 11.2143 11.2755 10.9804L11.0556 10.7168C10.8749 11.2037 10.9496 11.5632 11.1305 11.8212C11.1749 11.7498 11.2242 11.6704 11.2724 11.5929Z" fill="#F5F5F5"/>
<path d="M11.4828 11.2822C11.4673 11.2822 11.4521 11.2753 11.4419 11.2622L10.7933 10.4283C10.7757 10.4057 10.7798 10.3732 10.8023 10.3558C10.825 10.3382 10.8574 10.3423 10.8749 10.3648L11.5235 11.1988C11.5411 11.2213 11.537 11.2538 11.5144 11.2713C11.505 11.2787 11.4938 11.2822 11.4828 11.2822Z" fill="#FFE15A"/>
<path d="M10.4483 11.3296C10.2414 13.3986 11.8966 12.8813 12 12.6745L10.9655 12.1572L11.1724 11.7434L10.4483 11.3296Z" fill="#41479B"/>
<path d="M10.9484 11.5677L10.6601 11.3947C10.5952 12.6241 11.2518 12.8289 11.736 12.7679C11.3434 12.7152 10.9512 12.4253 10.9484 11.5677Z" fill="#F5F5F5"/>
<path d="M11.1723 11.795C11.1629 11.795 11.1534 11.7925 11.1449 11.7872L10.3174 11.27C10.2932 11.2549 10.2858 11.223 10.301 11.1988C10.3161 11.1745 10.3479 11.1671 10.3723 11.1824L11.1998 11.6995C11.224 11.7146 11.2313 11.7466 11.2162 11.7707C11.2064 11.7865 11.1895 11.795 11.1723 11.795Z" fill="#FFE15A"/>
<path d="M13.1018 10.526C13.4572 11.2974 13.0927 11.9321 13.0162 12.0516C13.0142 12.0548 12.5087 11.2371 12.5087 11.2371L13.1018 10.526Z" fill="#41479B"/>
<path d="M12.7276 11.5908C12.7837 11.4162 12.7918 11.2123 12.7245 10.9783L12.9444 10.7147C13.1251 11.2017 13.0504 11.5612 12.8695 11.8192C12.8251 11.7478 12.7758 11.6684 12.7276 11.5908Z" fill="#F5F5F5"/>
<path d="M12.5171 11.2802C12.506 11.2802 12.4948 11.2767 12.4854 11.2693C12.4629 11.2518 12.4588 11.2193 12.4764 11.1968L13.125 10.3628C13.1426 10.3403 13.175 10.3362 13.1975 10.3537C13.2201 10.3712 13.2242 10.4037 13.2066 10.4262L12.558 11.2602C12.5478 11.2734 12.5325 11.2802 12.5171 11.2802Z" fill="#FFE15A"/>
<path d="M13.5517 11.3276C13.7586 13.3966 12.1034 12.8793 12 12.6724L13.0345 12.1552L12.8276 11.7414L13.5517 11.3276Z" fill="#41479B"/>
<path d="M13.0515 11.5656L13.3398 11.3927C13.4047 12.6221 12.7482 12.8269 12.2639 12.7658C12.6565 12.7131 13.0487 12.4233 13.0515 11.5656Z" fill="#F5F5F5"/>
<path d="M12.8277 11.793C12.8105 11.793 12.7936 11.7844 12.7837 11.7686C12.7686 11.7445 12.776 11.7126 12.8001 11.6974L13.6277 11.1803C13.652 11.165 13.6838 11.1724 13.699 11.1968C13.7141 11.2209 13.7068 11.2528 13.6826 11.268L12.855 11.7851C12.8465 11.7905 12.837 11.793 12.8277 11.793Z" fill="#FFE15A"/>
<path d="M12 11.8448C12.2285 11.8448 12.4138 11.6595 12.4138 11.431C12.4138 11.2024 12.2285 11.0172 12 11.0172C11.7715 11.0172 11.5862 11.2024 11.5862 11.431C11.5862 11.6595 11.7715 11.8448 12 11.8448Z" fill="#FFE6E6"/>
<path d="M12 11.6379C12.1143 11.6379 12.2069 11.5452 12.2069 11.431C12.2069 11.3167 12.1143 11.2241 12 11.2241C11.8857 11.2241 11.7931 11.3167 11.7931 11.431C11.7931 11.5452 11.8857 11.6379 12 11.6379Z" fill="#F5F5F5"/>
<path d="M11.9999 12.1035C11.9714 12.1035 11.9482 12.0804 11.9482 12.0518V11.4311C11.9482 11.4025 11.9714 11.3794 11.9999 11.3794C12.0285 11.3794 12.0516 11.4025 12.0516 11.4311V12.0518C12.0516 12.0804 12.0285 12.1035 11.9999 12.1035Z" fill="#FFE15A"/>
<path d="M13.4138 12.6638H10.6422L10.9655 12.0486H13.0431L13.4138 12.6638Z" fill="#5AA0E6"/>
<path d="M12.0841 12.1638H12.8049L12.5807 11.9396C12.5702 11.9291 12.5573 11.9211 12.5432 11.9164L12.4651 11.8904C12.437 11.881 12.4061 11.8852 12.3814 11.9016L12.1322 12.0677L12.0841 12.1638Z" fill="#FFB750"/>
<path d="M11.8391 12.2026H12.6994L12.4318 11.935C12.4192 11.9224 12.4039 11.9129 12.3869 11.9073L12.2938 11.8763C12.2602 11.8651 12.2233 11.87 12.1939 11.8897L11.8965 12.088L11.8391 12.2026Z" fill="#FFC455"/>
<path d="M11.5398 12.2457H12.5787L12.2555 11.9226C12.2403 11.9074 12.2218 11.8959 12.2014 11.8891L12.0889 11.8516C12.0483 11.8381 12.0038 11.844 11.9683 11.8677L11.6091 12.1071L11.5398 12.2457Z" fill="#FFCD55"/>
<path d="M11.2437 12.2845H12.4331L12.0631 11.9145C12.0457 11.897 12.0245 11.884 12.0011 11.8761L11.8723 11.8332C11.8258 11.8177 11.7749 11.8246 11.7342 11.8517L11.3229 12.1259L11.2437 12.2845Z" fill="#FFD25A"/>
<path d="M10.7585 12.3621H12.3102L11.8276 11.8794C11.8049 11.8567 11.7772 11.8396 11.7467 11.8294L11.5787 11.7734C11.5181 11.7533 11.4516 11.7621 11.3985 11.7976L10.862 12.1552L10.7585 12.3621Z" fill="#FFE15A"/>
<path d="M12.1117 11.5239H11.8881L11.9396 11.3079H12.0173C12.0425 11.3079 12.0644 11.3252 12.0702 11.3497L12.1117 11.5239Z" fill="#FF4B55"/>
<path d="M12.0988 11.5586H11.898C11.8816 11.5586 11.8683 11.5453 11.8683 11.5289V11.5189C11.8683 11.5025 11.8816 11.4892 11.898 11.4892H12.0988C12.1153 11.4892 12.1285 11.5026 12.1285 11.5189V11.5289C12.1285 11.5452 12.1152 11.5586 12.0988 11.5586Z" fill="#FF4B55"/>
<path d="M11.966 11.4062L11.9158 11.3935C11.9007 11.3897 11.8941 11.3719 11.9032 11.3591L11.9395 11.3079L11.966 11.4062Z" fill="#FF4B55"/>
<path d="M11.742 10.8997C11.7395 10.9187 11.7371 10.9377 11.7346 10.9567C11.815 10.9079 11.9037 10.8786 12 10.8786C12.0963 10.8787 12.185 10.9078 12.2654 10.9567C12.263 10.9376 12.2605 10.9187 12.2581 10.8997C12.1781 10.858 12.092 10.834 12 10.834C11.9081 10.834 11.822 10.8579 11.742 10.8997Z" fill="#41479B"/>
<path d="M11.7452 10.8749C11.7427 10.8939 11.7402 10.9129 11.7378 10.9319C11.8173 10.883 11.9049 10.8537 12 10.8536C12.095 10.8537 12.1826 10.883 12.2621 10.9319C12.2597 10.9129 12.2572 10.8939 12.2548 10.8749C12.1757 10.8329 12.0908 10.8091 11.9999 10.809C11.9092 10.809 11.8242 10.833 11.7452 10.8749Z" fill="#5AA0E6"/>
<path d="M11.7481 10.852C11.7456 10.871 11.7432 10.89 11.7407 10.909C11.8194 10.86 11.9061 10.8304 11.9999 10.8305C12.0939 10.8305 12.1805 10.86 12.2592 10.909C12.2567 10.89 12.2542 10.871 12.2518 10.852C12.1736 10.81 12.0897 10.7859 11.9999 10.7859C11.9103 10.7858 11.8264 10.81 11.7481 10.852Z" fill="#9BC800"/>
<path d="M11.7515 10.8258C11.7491 10.8449 11.7466 10.8638 11.7441 10.8828C11.822 10.8336 11.9074 10.804 12 10.804C12.0927 10.8041 12.1781 10.8336 12.2559 10.8828C12.2535 10.8638 12.251 10.8448 12.2486 10.8258C12.1713 10.7836 12.0885 10.7594 12.0001 10.7594C11.9115 10.7595 11.8288 10.7836 11.7515 10.8258Z" fill="#FFE14E"/>
<path d="M11.7548 10.8001C11.7524 10.8191 11.7499 10.8381 11.7474 10.8571C11.8244 10.8077 11.9085 10.7781 12 10.7781C12.0914 10.7781 12.1756 10.8077 12.2525 10.8571C12.25 10.8381 12.2475 10.8191 12.2451 10.8001C12.1687 10.7578 12.0871 10.7335 12 10.7334C11.9128 10.7335 11.8311 10.7577 11.7548 10.8001Z" fill="#FFB14E"/>
<path d="M11.7562 10.7891C11.7545 10.8024 11.7528 10.8157 11.7511 10.8291C11.827 10.7796 11.9101 10.7497 12.0001 10.7497C12.0901 10.7496 12.1731 10.7796 12.249 10.8291C12.2473 10.8157 12.2456 10.8024 12.2439 10.7891C12.168 10.7467 12.0868 10.7224 12.0001 10.7223C11.9133 10.7222 11.8321 10.7467 11.7562 10.7891Z" fill="#FF4B55"/>
<path d="M13.4483 12.7242H10.5517C10.5326 12.7242 10.5151 12.7137 10.5061 12.6969C10.4971 12.68 10.4981 12.6596 10.5087 12.6438L11.957 10.4713C11.9761 10.4427 12.0239 10.4427 12.043 10.4713L13.4913 12.6438C13.5019 12.6597 13.5029 12.68 13.4939 12.6969C13.4849 12.7137 13.4673 12.7242 13.4483 12.7242ZM10.6483 12.6207H13.3516L12 10.5933L10.6483 12.6207Z" fill="#FFE15A"/>
<path d="M11.9999 10.0345C11.9714 10.0345 11.9482 10.0114 11.9482 9.98282V9.77592C11.9482 9.74732 11.9714 9.72421 11.9999 9.72421C12.0285 9.72421 12.0516 9.74732 12.0516 9.77592V9.98282C12.0516 10.0114 12.0285 10.0345 11.9999 10.0345Z" fill="#FFE15A"/>
<path d="M12.1035 10.0345H11.8966C11.868 10.0345 11.8448 10.0114 11.8448 9.98282C11.8448 9.95423 11.868 9.93112 11.8966 9.93112H12.1035C12.1321 9.93112 12.1552 9.95423 12.1552 9.98282C12.1552 10.0114 12.1321 10.0345 12.1035 10.0345Z" fill="#FFE15A"/>
<path d="M11.9999 13.7586C11.9962 13.7586 11.9924 13.7582 11.9887 13.7575C11.9381 13.7461 11.7692 13.7056 11.7193 13.6563C11.656 13.5934 11.6557 13.4909 11.7184 13.4276C11.7489 13.3969 11.7894 13.38 11.8326 13.3799H11.8331C11.8761 13.3799 11.9165 13.3965 11.947 13.4269C11.9969 13.4764 12.0386 13.6449 12.0503 13.6954C12.0542 13.7126 12.0491 13.7308 12.0366 13.7434C12.0268 13.7532 12.0136 13.7586 11.9999 13.7586ZM11.8331 13.4832C11.8194 13.4878 11.8028 13.4894 11.7918 13.5004C11.7692 13.5231 11.7693 13.5601 11.7922 13.5828C11.8047 13.5949 11.8606 13.6161 11.9276 13.6352C11.908 13.5684 11.8865 13.5127 11.8742 13.5002L11.9106 13.4635L11.8741 13.5002C11.8631 13.4892 11.8486 13.4832 11.8331 13.4832Z" fill="#41479B"/>
<path d="M11.9999 13.7586C11.9863 13.7586 11.973 13.7532 11.9632 13.7434C11.9508 13.7307 11.9456 13.7125 11.9496 13.6953C11.9612 13.6447 12.003 13.4763 12.0528 13.4268C12.0834 13.3963 12.1199 13.3826 12.1672 13.3798C12.2104 13.3799 12.2509 13.3969 12.2813 13.4275C12.3442 13.4908 12.3438 13.5934 12.2805 13.6561C12.2307 13.7056 12.0617 13.7461 12.0111 13.7574C12.0075 13.7582 12.0037 13.7586 11.9999 13.7586ZM12.0893 13.4635L12.1257 13.5001C12.1133 13.5126 12.0918 13.5684 12.0722 13.6352C12.1393 13.6161 12.1952 13.595 12.2077 13.5826C12.2304 13.5601 12.2306 13.5231 12.208 13.5004C12.1971 13.4894 12.1825 13.4832 12.167 13.4832H12.1668C12.1513 13.4832 12.1368 13.4892 12.1258 13.5001L12.0893 13.4635Z" fill="#41479B"/>
<path d="M11.793 14.069C11.7644 14.069 11.7413 14.0459 11.7413 14.0173C11.7413 13.7811 11.9672 13.6655 11.9768 13.6607C12.0025 13.6478 12.0333 13.6583 12.0461 13.6837C12.059 13.7091 12.0487 13.7402 12.0233 13.7531C12.0215 13.754 11.8448 13.8457 11.8448 14.0173C11.8448 14.0459 11.8216 14.069 11.793 14.069Z" fill="#41479B"/>
<path d="M12.2069 14.069C12.1783 14.069 12.1552 14.0459 12.1552 14.0173C12.1552 13.8458 11.9785 13.754 11.9767 13.7531C11.9513 13.7402 11.9411 13.7092 11.9539 13.6837C11.9668 13.6584 11.9975 13.6479 12.0232 13.6607C12.0328 13.6656 12.2587 13.7811 12.2587 14.0173C12.2586 14.0459 12.2355 14.069 12.2069 14.069Z" fill="#41479B"/>
</svg>
