<svg width="24" height="24" viewBox="0 0 24 24" fill="none" xmlns="http://www.w3.org/2000/svg">
<path d="M24 9.37935H0V4.55175C0 4.32324 0.185297 4.13794 0.413812 4.13794H23.5862C23.8147 4.13794 24 4.32324 24 4.55175L24 9.37935Z" fill="#FF4B55"/>
<path d="M23.5861 19.8621H0.413812C0.185297 19.8621 0 19.6768 0 19.4483V14.6207H24V19.4483C24 19.6768 23.8147 19.8621 23.5861 19.8621Z" fill="#464655"/>
<path d="M24 9.37927H0V14.6204H24V9.37927Z" fill="#F5F5F5"/>
<path d="M7.03264 10.4679L7.37764 11.5023L8.46805 11.5107C8.60919 11.5118 8.66773 11.692 8.55416 11.7759L7.67699 12.4237L8.00591 13.4633C8.04847 13.5979 7.89524 13.7093 7.78039 13.6272L6.89329 12.9931L6.00618 13.6272C5.89129 13.7093 5.7381 13.5979 5.78066 13.4633L6.10958 12.4237L5.23241 11.7759C5.11884 11.692 5.17738 11.5118 5.31852 11.5107L6.40893 11.5023L6.75393 10.4679C6.79855 10.334 6.98797 10.334 7.03264 10.4679Z" fill="#73AF00"/>
<path d="M17.246 10.4679L17.591 11.5023L18.6814 11.5107C18.8226 11.5118 18.8811 11.692 18.7675 11.7759L17.8904 12.4237L18.2193 13.4633C18.2618 13.5979 18.1086 13.7093 17.9938 13.6272L17.1067 12.9931L16.2196 13.6272C16.1047 13.7093 15.9514 13.5979 15.994 13.4633L16.323 12.4237L15.4458 11.7759C15.3322 11.692 15.3908 11.5118 15.5319 11.5107L16.6223 11.5023L16.9673 10.4679C17.0119 10.334 17.2014 10.334 17.246 10.4679Z" fill="#73AF00"/>
</svg>
