<svg width="24" height="24" viewBox="0 0 24 24" fill="none" xmlns="http://www.w3.org/2000/svg">
<path d="M23.5861 19.8621H0.413812C0.185297 19.8621 0 19.6768 0 19.4483V4.55175C0 4.32324 0.185297 4.13794 0.413812 4.13794H23.5862C23.8147 4.13794 24 4.32324 24 4.55175V19.4483C24 19.6768 23.8147 19.8621 23.5861 19.8621Z" fill="#FF4B55"/>
<path d="M0.413812 4.138H11.5862C11.8147 4.138 12 4.3233 12 4.55181V11.5863C12 11.8148 11.8147 12.0001 11.5862 12.0001H0.413812C0.185297 12 0 11.8148 0 11.5862V4.55177C0 4.32325 0.185297 4.138 0.413812 4.138Z" fill="#41479B"/>
<path d="M5.89524 9.26237L5.70526 9.83194L5.10484 9.83658C5.02712 9.83719 4.99487 9.93643 5.0574 9.98255L5.5404 10.3392L5.35932 10.9117C5.33589 10.9858 5.42026 11.0471 5.4835 11.0018L5.97198 10.6527L6.46046 11.0018C6.52374 11.047 6.60807 10.9858 6.58463 10.9117L6.40356 10.3392L6.88655 9.98255C6.94909 9.93638 6.91688 9.83715 6.83912 9.83658L6.2387 9.83194L6.04871 9.26237C6.0241 9.18859 5.91985 9.18859 5.89524 9.26237Z" fill="#F5F5F5"/>
<path d="M5.90997 4.82124L5.75631 5.28202L5.27064 5.28582C5.20774 5.28629 5.18168 5.36654 5.23225 5.4039L5.62296 5.69241L5.47647 6.15549C5.45749 6.21544 5.52578 6.26504 5.57692 6.22847L5.97203 5.94605L6.36714 6.22847C6.41828 6.26504 6.48658 6.21544 6.46759 6.15549L6.32111 5.69241L6.71181 5.4039C6.76239 5.36654 6.73633 5.28629 6.67342 5.28582L6.18775 5.28202L6.0341 4.82124C6.01422 4.76157 5.92989 4.76157 5.90997 4.82124Z" fill="#F5F5F5"/>
<path d="M8.36688 6.19194L8.21322 6.65273L7.72755 6.65652C7.66465 6.65699 7.63858 6.73724 7.68916 6.7746L8.07986 7.06311L7.93338 7.52619C7.9144 7.58615 7.98269 7.63574 8.03383 7.59918L8.42894 7.31676L8.82405 7.59918C8.87519 7.63574 8.94349 7.58615 8.9245 7.52619L8.77802 7.06311L9.16872 6.7746C9.2193 6.73724 9.19324 6.65699 9.13033 6.65652L8.64466 6.65273L8.491 6.19194C8.47113 6.13223 8.3868 6.13223 8.36688 6.19194Z" fill="#F5F5F5"/>
<path d="M3.50482 6.73506L3.35116 7.19584L2.86549 7.19964C2.80259 7.20011 2.77652 7.28036 2.8271 7.31772L3.2178 7.60623L3.07132 8.06931C3.05234 8.12926 3.12063 8.17886 3.17177 8.14229L3.56688 7.85987L3.96199 8.14229C4.01313 8.17886 4.08143 8.12926 4.06244 8.06931L3.91596 7.60623L4.30666 7.31772C4.35724 7.28036 4.33118 7.20011 4.26827 7.19964L3.7826 7.19584L3.62894 6.73506C3.60907 6.67539 3.52469 6.67539 3.50482 6.73506Z" fill="#F5F5F5"/>
<path d="M7.30791 8.23919L7.22161 8.49784L6.94898 8.49995C6.91369 8.50023 6.89906 8.54528 6.92747 8.56628L7.1468 8.72823L7.06458 8.9882C7.05394 9.02186 7.09223 9.0497 7.12097 9.02917L7.34278 8.87064L7.56459 9.02917C7.59328 9.0497 7.63162 9.02186 7.62098 8.9882L7.53876 8.72823L7.75809 8.56628C7.7865 8.54533 7.77187 8.50028 7.73658 8.49995L7.46395 8.49784L7.37766 8.23919C7.36645 8.20567 7.31906 8.20567 7.30791 8.23919Z" fill="#F5F5F5"/>
</svg>
