<svg width="24" height="24" viewBox="0 0 24 24" fill="none" xmlns="http://www.w3.org/2000/svg">
<path d="M23.5861 19.8621H0.413812C0.185297 19.8621 0 19.6768 0 19.4483V4.55175C0 4.32324 0.185297 4.13794 0.413812 4.13794H23.5862C23.8147 4.13794 24 4.32324 24 4.55175V19.4483C24 19.6768 23.8147 19.8621 23.5861 19.8621Z" fill="#FF4B55"/>
<path d="M20.6896 7.4483V16.5517H3.3103V7.4483H20.6896Z" fill="#73AF00"/>
<path d="M11.1739 12.0013C11.1739 10.4345 12.2411 9.12234 13.6858 8.74228C13.7339 8.72962 13.7304 8.66006 13.6811 8.65373C13.55 8.63685 13.4167 8.6272 13.2811 8.6272C11.4162 8.6272 9.90649 10.1367 9.90649 12.0013C9.90649 13.8578 11.4162 15.3714 13.2811 15.3714C13.417 15.3714 13.5504 15.3616 13.6816 15.3447C13.7309 15.3383 13.7343 15.2688 13.6863 15.2562C12.2413 14.8755 11.1739 13.5614 11.1739 12.0013Z" fill="#F5F5F5"/>
</svg>
