<svg width="24" height="24" viewBox="0 0 24 24" fill="none" xmlns="http://www.w3.org/2000/svg">
<path d="M23.5861 19.8621H0.413812C0.185297 19.8621 0 19.6768 0 19.4483V4.55175C0 4.32324 0.185297 4.13794 0.413812 4.13794H23.5862C23.8147 4.13794 24 4.32324 24 4.55175V19.4483C24 19.6768 23.8147 19.8621 23.5861 19.8621Z" fill="#41479B"/>
<path d="M24 7.03458H0V16.9655H24V7.03458Z" fill="#F5F5F5"/>
<path d="M14.15 12L15.225 10.1381H13.0751L11.9999 8.27591L10.9248 10.1381H8.7749L9.84988 12L8.7749 13.8619H10.9248L11.9999 15.7241L13.0751 13.8619H15.225L14.15 12ZM14.1703 10.7471L13.7985 11.3911L13.4266 10.7471H14.1703ZM13.4469 12L12.7235 13.253H11.2763L10.553 12L11.2764 10.7471H12.7236L13.4469 12ZM11.9999 9.49381L12.3719 10.1382H11.6279L11.9999 9.49381ZM9.82954 10.7471H10.5732L10.2014 11.3911L9.82954 10.7471ZM9.82954 13.253L10.2014 12.6089L10.5733 13.253H9.82954ZM11.9999 14.5062L11.6279 13.8619H12.3719L11.9999 14.5062ZM13.7985 12.6089L14.1703 13.253H13.4267L13.7985 12.6089Z" fill="#41479B"/>
</svg>
