<svg width="24" height="24" viewBox="0 0 24 24" fill="none" xmlns="http://www.w3.org/2000/svg">
<path d="M23.5861 19.8621H0.413812C0.185297 19.8621 0 19.6768 0 19.4483V4.55175C0 4.32324 0.185297 4.13794 0.413812 4.13794H23.5862C23.8147 4.13794 24 4.32324 24 4.55175V19.4483C24 19.6768 23.8147 19.8621 23.5861 19.8621Z" fill="#FF4B55"/>
<path d="M0.413771 4.138C0.301881 4.138 0.201193 4.18333 0.126709 4.25547L16.9655 19.8621H18.2069L1.24135 4.138H0.413771Z" fill="#F5F5F5"/>
<path d="M7.03448 4.138H5.79309L22.7586 19.8621H23.5862C23.698 19.8621 23.7987 19.8168 23.8732 19.7446L7.03448 4.138Z" fill="#F5F5F5"/>
<path d="M1.24133 4.138L18.2068 19.8621H22.7585L5.79303 4.138H1.24133Z" fill="#464655"/>
</svg>
