<svg width="24" height="24" viewBox="0 0 24 24" fill="none" xmlns="http://www.w3.org/2000/svg">
<path d="M0.413812 19.8621H23.5862C23.8147 19.8621 24 19.6768 24 19.4483V4.55175C24 4.32324 23.8147 4.13794 23.5862 4.13794H0.413812C0.185297 4.13799 0 4.32324 0 4.55175V19.4483C0 19.6768 0.185297 19.8621 0.413812 19.8621Z" fill="#C8414B"/>
<path d="M24 7.44849H0V16.5521H24V7.44849Z" fill="#FFD250"/>
<path d="M10.138 12L10.4888 10.4213C10.5212 10.2758 10.4105 10.1379 10.2615 10.1379H10.0144C9.86549 10.1379 9.75486 10.2758 9.78711 10.4213L10.138 12Z" fill="#C8414B"/>
<path d="M10.5518 11.1722H9.72424V14.6893H10.5518V11.1722Z" fill="#F5F5F5"/>
<path d="M10.7584 10.7588H9.51697V11.1726H10.7584V10.7588Z" fill="#FAB446"/>
<path d="M10.7588 12.0001H8.6897V12.4139H10.7588V12.0001Z" fill="#C8414B"/>
<path d="M10.7586 13.6552L9.51721 13.2414V12.8276L10.7586 13.2414V13.6552Z" fill="#C8414B"/>
<path d="M3.93106 12L4.28192 10.4213C4.31427 10.2758 4.20359 10.1379 4.05463 10.1379H3.8075C3.65858 10.1379 3.54796 10.2758 3.58021 10.4213L3.93106 12Z" fill="#C8414B"/>
<path d="M5.37927 10.7586C5.15075 10.7586 4.96545 10.9439 4.96545 11.1724V13.8621C4.96545 14.3648 5.43467 15.3103 7.03442 15.3103C8.63417 15.3103 9.10338 14.3648 9.10338 13.8621V11.1724C9.10338 10.9439 8.91809 10.7586 8.68957 10.7586H5.37927Z" fill="#F5F5F5"/>
<path d="M7.03442 12.8276H4.96545V11.1724C4.96545 10.9439 5.15075 10.7586 5.37927 10.7586H7.03442V12.8276Z" fill="#C8414B"/>
<path d="M7.03442 12.8276H9.10339V13.8621C9.10339 14.4334 8.64026 14.8965 8.06891 14.8965C7.49755 14.8965 7.03442 14.4334 7.03442 13.8621V12.8276Z" fill="#C8414B"/>
<path d="M4.96545 12.8276H7.03442V13.8621C7.03442 14.4334 6.57129 14.8965 5.99994 14.8965C5.42858 14.8965 4.96545 14.4334 4.96545 13.8621V12.8276Z" fill="#FAB446"/>
<path d="M6.62072 14.685V12.8276H6.20691V14.8757C6.36085 14.8445 6.49992 14.7763 6.62072 14.685Z" fill="#C8414B"/>
<path d="M5.79308 14.8757V12.8276H5.37927V14.685C5.50012 14.7763 5.63919 14.8445 5.79308 14.8757Z" fill="#C8414B"/>
<path d="M6.62078 12H5.37939V12.4138H6.62078V12Z" fill="#FFB441"/>
<path d="M6.62078 11.1722H5.37939V11.5861H6.62078V11.1722Z" fill="#FAB446"/>
<path d="M6.41364 11.4183H5.58606V12.168H6.41364V11.4183Z" fill="#FAB446"/>
<path d="M4.34454 11.1722H3.51697V14.6893H4.34454V11.1722Z" fill="#F5F5F5"/>
<path d="M4.55169 14.483H3.3103V14.8968H4.55169V14.483Z" fill="#FAB446"/>
<path d="M4.55169 10.7588H3.3103V11.1726H4.55169V10.7588Z" fill="#FAB446"/>
<path d="M4.75879 14.8964H3.10364V15.3102H4.75879V14.8964Z" fill="#5064AA"/>
<path d="M10.9656 14.483H9.72424V14.8968H10.9656V14.483Z" fill="#FAB446"/>
<path d="M10.9655 14.8964H9.3103V15.3102H10.9655V14.8964Z" fill="#5064AA"/>
<path d="M8.27599 10.3448H5.79321V10.7587H8.27599V10.3448Z" fill="#FAB446"/>
<path d="M7.24157 9.10364H6.82776V10.345H7.24157V9.10364Z" fill="#FFB441"/>
<path d="M6.62067 9.72413C6.27839 9.72413 6 9.44569 6 9.10346C6 8.76118 6.27844 8.48279 6.62067 8.48279C6.96295 8.48279 7.24134 8.76122 7.24134 9.10346C7.24139 9.44569 6.96295 9.72413 6.62067 9.72413ZM6.62067 8.89655C6.50653 8.89655 6.41376 8.98927 6.41376 9.10346C6.41376 9.2176 6.50648 9.31036 6.62067 9.31036C6.73486 9.31036 6.82758 9.21765 6.82758 9.10346C6.82758 8.98932 6.73486 8.89655 6.62067 8.89655Z" fill="#F5F5F5"/>
<path d="M7.44819 9.72413C7.1059 9.72413 6.82751 9.44569 6.82751 9.10346C6.82751 8.76118 7.10595 8.48279 7.44819 8.48279C7.79047 8.48279 8.06886 8.76122 8.06886 9.10346C8.06886 9.44569 7.79042 9.72413 7.44819 9.72413ZM7.44819 8.89655C7.33404 8.89655 7.24128 8.98927 7.24128 9.10346C7.24128 9.2176 7.334 9.31036 7.44819 9.31036C7.56233 9.31036 7.65509 9.21765 7.65509 9.10346C7.65504 8.98932 7.56233 8.89655 7.44819 8.89655Z" fill="#F5F5F5"/>
<path d="M8.27582 10.1379C7.93354 10.1379 7.65515 9.85951 7.65515 9.51728C7.65515 9.175 7.93359 8.89661 8.27582 8.89661C8.6181 8.89661 8.89649 9.17504 8.89649 9.51728C8.89649 9.85951 8.61806 10.1379 8.27582 10.1379ZM8.27582 9.31037C8.16168 9.31037 8.06892 9.40309 8.06892 9.51728C8.06892 9.63142 8.16163 9.72418 8.27582 9.72418C8.38996 9.72418 8.48273 9.63146 8.48273 9.51728C8.48273 9.40309 8.38996 9.31037 8.27582 9.31037Z" fill="#F5F5F5"/>
<path d="M5.79303 10.1379C5.45075 10.1379 5.17236 9.85951 5.17236 9.51728C5.17236 9.175 5.4508 8.89661 5.79303 8.89661C6.13531 8.89661 6.4137 9.17504 6.4137 9.51728C6.41375 9.85951 6.13531 10.1379 5.79303 10.1379ZM5.79303 9.31037C5.67889 9.31037 5.58613 9.40309 5.58613 9.51728C5.58613 9.63142 5.67885 9.72418 5.79303 9.72418C5.90722 9.72418 5.99994 9.63142 5.99994 9.51723C5.99994 9.40309 5.90722 9.31037 5.79303 9.31037Z" fill="#F5F5F5"/>
<path d="M8.27587 13.6552V13.8621C8.27587 13.9762 8.18305 14.069 8.06896 14.069C7.95487 14.069 7.86205 13.9762 7.86205 13.8621V13.6552H8.27587ZM8.68963 13.2414H7.44824V13.8621C7.44824 14.2043 7.72668 14.4827 8.06891 14.4827C8.41119 14.4827 8.68958 14.2043 8.68958 13.8621L8.68963 13.2414Z" fill="#FAB446"/>
<path d="M8.06896 12.4139C7.84045 12.4139 7.65515 12.2286 7.65515 12V11.5862C7.65515 11.3577 7.84045 11.1724 8.06896 11.1724C8.29748 11.1724 8.48278 11.3577 8.48278 11.5862V12C8.48278 12.2286 8.29748 12.4139 8.06896 12.4139Z" fill="#FFA0D2"/>
<path d="M7.03449 13.448C7.37728 13.448 7.65516 13.1701 7.65516 12.8273C7.65516 12.4845 7.37728 12.2067 7.03449 12.2067C6.6917 12.2067 6.41382 12.4845 6.41382 12.8273C6.41382 13.1701 6.6917 13.448 7.03449 13.448Z" fill="#5064AA"/>
<path d="M7.24157 8.27582H6.82776V9.51721H7.24157V8.27582Z" fill="#FAB446"/>
<path d="M5.79308 10.3448L5.37927 9.93103L5.62166 9.68864C5.99633 9.31397 6.50455 9.10345 7.03447 9.10345C7.56439 9.10345 8.07256 9.31397 8.44728 9.68864L8.68967 9.93103L8.27586 10.3448H5.79308Z" fill="#C8414B"/>
<path d="M7.03442 10.1379C7.14869 10.1379 7.24133 10.0452 7.24133 9.93097C7.24133 9.81669 7.14869 9.72406 7.03442 9.72406C6.92015 9.72406 6.82751 9.81669 6.82751 9.93097C6.82751 10.0452 6.92015 10.1379 7.03442 10.1379Z" fill="#FFD250"/>
<path d="M6.20666 10.1379C6.32093 10.1379 6.41357 10.0452 6.41357 9.93097C6.41357 9.81669 6.32093 9.72406 6.20666 9.72406C6.09239 9.72406 5.99976 9.81669 5.99976 9.93097C5.99976 10.0452 6.09239 10.1379 6.20666 10.1379Z" fill="#FFD250"/>
<path d="M7.86181 10.1379C7.97608 10.1379 8.06872 10.0452 8.06872 9.93097C8.06872 9.81669 7.97608 9.72406 7.86181 9.72406C7.74754 9.72406 7.65491 9.81669 7.65491 9.93097C7.65491 10.0452 7.74754 10.1379 7.86181 10.1379Z" fill="#FFD250"/>
<path d="M5.37936 12H3.3103V12.4138H5.37936V12Z" fill="#C8414B"/>
<path d="M3.3103 13.6552L4.55164 13.2414V12.8276L3.3103 13.2414V13.6552Z" fill="#C8414B"/>
</svg>
