<svg width="24" height="24" viewBox="0 0 24 24" fill="none" xmlns="http://www.w3.org/2000/svg">
<path d="M0 14.6207H24V19.4482C24 19.6767 23.8147 19.862 23.5861 19.862H0.413812C0.185297 19.862 0 19.6767 0 19.4482V14.6207Z" fill="#73AF00"/>
<path d="M0.413812 4.13794H23.5862C23.8147 4.13794 24 4.32324 24 4.55175V9.3793H0V4.5517C0 4.32319 0.185297 4.13794 0.413812 4.13794Z" fill="#41479B"/>
<path d="M24 9.37921H0V14.6203H24V9.37921Z" fill="#F5F5F5"/>
<path d="M13.4285 12.9334L13.3323 12.9824C13.3193 12.989 13.3052 12.9948 13.2918 13.0012L12.4421 11.9279C12.6168 11.5483 12.7203 11.0301 12.7203 10.7946C12.7203 10.4075 12.4663 10.0851 12.1321 10.0169C12.1098 9.96637 12.0594 9.93103 12.0006 9.93103C11.9418 9.93103 11.8915 9.96637 11.8691 10.0169C11.535 10.0851 11.281 10.4076 11.281 10.7946C11.281 11.0301 11.3845 11.5482 11.5592 11.9279L10.7095 13.0012C10.6963 12.9948 10.6822 12.9891 10.6691 12.9824L10.573 12.9335L10.214 13.6391L10.3102 13.6881C10.8001 13.9372 11.3846 14.069 12.0006 14.069C12.6167 14.069 13.2014 13.9371 13.6914 13.688L13.7876 13.6391L13.4285 12.9334ZM12.5763 10.7946C12.5763 10.9696 12.5113 11.3377 12.3908 11.675C12.3749 11.7194 12.3587 11.7616 12.342 11.8015L12.2165 11.643V11.0824H12.4324L12.1445 10.7946V10.1682C12.3924 10.2404 12.5763 10.4934 12.5763 10.7946ZM11.6104 11.675C11.4899 11.3376 11.4249 10.9696 11.4249 10.7945C11.4249 10.4934 11.6088 10.2404 11.8567 10.1681V10.7945L11.5689 11.0824H11.7848V11.6429L11.6593 11.8015C11.6425 11.7616 11.6263 11.7194 11.6104 11.675ZM10.6425 13.2726L10.6719 13.3935L10.5664 13.4223L10.6425 13.2726ZM10.5169 13.5478L10.6975 13.4985L10.7306 13.6349C10.6578 13.608 10.5862 13.5795 10.5169 13.5478ZM10.7906 13.2728C10.8728 13.3053 10.9582 13.3339 11.0461 13.3595L11.072 13.4391L10.8447 13.4951L10.7906 13.2728ZM10.8921 13.69L10.8702 13.6L11.1056 13.5419L11.1786 13.7656C11.0809 13.7444 10.9854 13.719 10.8921 13.69ZM11.2116 13.4028C11.3019 13.4238 11.3939 13.442 11.4878 13.4557L11.5269 13.5256L11.277 13.6035L11.2116 13.4028ZM11.3401 13.7968L11.3105 13.7061L11.5807 13.622L11.7031 13.8409C11.58 13.8317 11.4588 13.8171 11.3401 13.7968ZM11.6646 13.4769C11.7755 13.4874 11.8877 13.4932 12.0006 13.4932C12.0246 13.4932 12.0485 13.4919 12.0725 13.4914L12.1026 13.5375L11.7705 13.6663L11.6646 13.4769ZM12.0006 13.8531C11.9578 13.8531 11.9155 13.8512 11.8731 13.8499L11.8237 13.7615L12.1628 13.6299L12.3003 13.8407C12.2014 13.848 12.1017 13.8531 12.0006 13.8531ZM12.2395 13.4841C12.3536 13.4765 12.4664 13.4635 12.577 13.4452L12.6094 13.4866L12.3465 13.6481L12.2395 13.4841ZM12.4621 13.8254L12.4055 13.7385L12.6763 13.5721L12.8269 13.7646C12.708 13.7908 12.5862 13.8109 12.4621 13.8254ZM12.7361 13.4151C12.8303 13.3948 12.9224 13.3709 13.0117 13.3431L13.0452 13.3865L12.8541 13.5659L12.7361 13.4151ZM12.9808 13.7279L12.9208 13.6512L13.1115 13.4722L13.2444 13.6443C13.1584 13.6753 13.0709 13.7038 12.9808 13.7279ZM13.1555 13.2938C13.2161 13.2713 13.2757 13.2476 13.333 13.2216L13.3611 13.277L13.2691 13.441L13.1555 13.2938ZM13.3845 13.5904L13.3409 13.5338L13.42 13.3927L13.4963 13.5427C13.4598 13.5596 13.422 13.5748 13.3845 13.5904Z" fill="#464655"/>
</svg>
