<svg width="24" height="24" viewBox="0 0 24 24" fill="none" xmlns="http://www.w3.org/2000/svg">
<path d="M23.5861 19.862H0.413812C0.185297 19.862 0 19.6768 0 19.4482V12H24V19.4482C24 19.6768 23.8147 19.862 23.5861 19.862Z" fill="#41479B"/>
<path d="M0.413812 4.13794H23.5862C23.8147 4.13794 24 4.32324 24 4.55175V12H0V4.55175C0 4.32324 0.185297 4.13794 0.413812 4.13794Z" fill="#FF4B55"/>
<path d="M11.9999 4.13794L0 12L11.9999 19.862L24 12L11.9999 4.13794Z" fill="#F5F5F5"/>
<path d="M12.1241 7.43923L13.1174 10.2968L16.1421 10.3585C16.2666 10.361 16.318 10.5192 16.2188 10.5945L13.8079 12.4222L14.684 15.3179C14.72 15.4371 14.5855 15.5349 14.4832 15.4638L12 13.7357L9.51673 15.4637C9.41445 15.5348 9.27987 15.4371 9.31591 15.3178L10.192 12.4221L7.78114 10.5944C7.68185 10.5192 7.73328 10.3609 7.85782 10.3584L10.8825 10.2968L11.8758 7.43919C11.9168 7.32153 12.0832 7.32153 12.1241 7.43923Z" fill="#FFE15A"/>
</svg>
