<svg width="24" height="24" viewBox="0 0 24 24" fill="none" xmlns="http://www.w3.org/2000/svg">
<path d="M23.5861 19.862H0.413812C0.185297 19.862 0 19.6767 0 19.4482V4.55175C0 4.32324 0.185297 4.13794 0.413812 4.13794H23.5862C23.8147 4.13794 24 4.32324 24 4.55175V19.4482C24 19.6768 23.8147 19.862 23.5861 19.862Z" fill="#F5F5F5"/>
<path d="M22.6206 6.62953C22.5404 6.60121 22.4511 6.64289 22.4226 6.72407C22.3202 7.0132 22.2092 7.27237 22.0943 7.5172C21.8018 7.80656 21.4377 8.02237 21.0861 8.08626C20.5172 8.18971 20.2413 8.46557 20.2413 8.46557C19.2413 8.17246 19.0517 8.72418 18.8275 8.96559C18.7019 9.10073 18.5392 9.14765 18.3925 9.14915C17.857 8.85707 17.4962 8.50101 17.4895 8.49435C17.4293 8.43332 17.3307 8.4329 17.2701 8.49318C17.2091 8.55337 17.2087 8.65162 17.2689 8.7126C17.3144 8.75859 18.1866 9.6231 19.3056 9.80282C18.9807 9.89844 18.7414 9.96552 18.7414 9.96552C18.7414 9.96552 18.3793 9.96552 17.2931 10.8448C16.2069 11.7242 15.4483 11.8104 14.9655 11.7932C14.4827 11.776 14.1207 11.6035 13.6035 12.0001C13.0862 12.3966 12.4138 12.3277 12 12.3277C11.5862 12.3277 10.9138 12.3966 10.3966 12.0001C9.87929 11.6035 9.51723 11.776 9.03447 11.7932C8.55175 11.8104 7.79308 11.7242 6.70689 10.8448C5.62071 9.96547 5.25865 9.96552 5.25865 9.96552C5.25865 9.96552 5.01926 9.89844 4.69446 9.80282C5.81341 9.6231 6.68561 8.75859 6.73108 8.7126C6.79127 8.65157 6.79089 8.55341 6.72991 8.49318C6.6693 8.43299 6.57072 8.43337 6.51049 8.49435C6.50378 8.50091 6.14303 8.85698 5.60749 9.14915C5.46082 9.14765 5.29807 9.10073 5.17254 8.96559C4.94838 8.72418 4.75872 8.17246 3.75869 8.46557C3.75869 8.46557 3.48284 8.18971 2.91387 8.08626C2.5624 8.02237 2.19818 7.80656 1.90573 7.5172C1.79084 7.27232 1.67989 7.0132 1.57742 6.72407C1.54892 6.64289 1.45962 6.60121 1.37942 6.62953C1.29856 6.65821 1.25614 6.74672 1.28487 6.82753C1.28797 6.83625 1.29153 6.8437 1.29467 6.85246C1.30976 6.93182 1.62457 8.51981 2.77592 9.6208C3.5868 10.3962 4.37323 11.5793 4.70697 12.2415C5.79316 14.3967 7.86212 17.2932 12.0001 17.2932C16.138 17.2932 18.2069 14.3967 19.2931 12.2415C19.6269 11.5793 20.4133 10.3961 21.2242 9.6208C22.3755 8.51985 22.6903 6.93182 22.7054 6.85246C22.7085 6.84375 22.7121 6.83629 22.7152 6.82753C22.7438 6.74676 22.7014 6.65826 22.6206 6.62953Z" fill="#FF4B55"/>
</svg>
