<svg width="24" height="24" viewBox="0 0 24 24" fill="none" xmlns="http://www.w3.org/2000/svg">
<path d="M23.5861 19.862H0.413812C0.185297 19.862 0 19.6767 0 19.4482V4.55175C0 4.32324 0.185297 4.13794 0.413812 4.13794H23.5862C23.8147 4.13794 24 4.32324 24 4.55175V19.4482C24 19.6768 23.8147 19.862 23.5861 19.862Z" fill="#41479B"/>
<path d="M24 13.2412H0V14.3446H24V13.2412Z" fill="#F5F5F5"/>
<path d="M24 15.4485H0V16.552H24V15.4485Z" fill="#F5F5F5"/>
<path d="M24 14.3447H0V15.4481H24V14.3447Z" fill="#FF4B55"/>
<path d="M7.9523 10.9999L8.07924 11.3804L8.48035 11.3835C8.51143 11.3838 8.52432 11.4234 8.49933 11.4418L8.17665 11.6802L8.29763 12.0626C8.307 12.0922 8.27325 12.1168 8.24799 12.0987L7.9216 11.8654L7.59521 12.0987C7.5699 12.1167 7.53619 12.0922 7.54557 12.0626L7.66655 11.6802L7.34387 11.4418C7.31888 11.4234 7.33177 11.3837 7.36285 11.3835L7.76396 11.3804L7.8909 10.9999C7.90074 10.9704 7.94251 10.9704 7.9523 10.9999Z" fill="#FFE15A"/>
<path d="M7.9523 17.6869L8.07924 18.0675L8.48035 18.0706C8.51143 18.0708 8.52432 18.1105 8.49933 18.1289L8.17665 18.3672L8.29763 18.7497C8.307 18.7793 8.27325 18.8038 8.24799 18.7857L7.9216 18.5524L7.59521 18.7857C7.5699 18.8038 7.53619 18.7793 7.54557 18.7497L7.66655 18.3672L7.34387 18.1289C7.31888 18.1105 7.33177 18.0708 7.36285 18.0706L7.76396 18.0675L7.8909 17.6869C7.90074 17.6575 7.94251 17.6575 7.9523 17.6869Z" fill="#FFE15A"/>
<path d="M5.78169 18.0606L6.10424 17.8221L6.43429 18.0501C6.45983 18.0677 6.49321 18.0427 6.48336 18.0132L6.35624 17.6327L6.67508 17.3892C6.69978 17.3704 6.68624 17.3309 6.65516 17.3312L6.25405 17.3345L6.12102 16.9561C6.11071 16.9267 6.06904 16.9274 6.05966 16.9571L5.93886 17.3396L5.53785 17.3492C5.50677 17.3499 5.49454 17.3898 5.51985 17.4078L5.84633 17.6409L5.73149 18.0252C5.72258 18.0551 5.75666 18.0791 5.78169 18.0606Z" fill="#FFE15A"/>
<path d="M6.42678 12.6244L6.09926 12.3928L5.77409 12.6278C5.74892 12.646 5.71503 12.6216 5.72427 12.5919L5.84333 12.2089L5.51942 11.9722C5.49434 11.9539 5.507 11.9142 5.53808 11.9137L5.93919 11.9086L6.0642 11.5275C6.07386 11.4979 6.11558 11.4978 6.12556 11.5272L6.25442 11.9071L6.65558 11.9081C6.68665 11.9082 6.69973 11.9478 6.6748 11.9664L6.35328 12.2063L6.47623 12.5882C6.4858 12.6176 6.45219 12.6424 6.42678 12.6244Z" fill="#FFE15A"/>
<path d="M9.44771 12.6294L9.77025 12.3909L10.1003 12.6189C10.1258 12.6365 10.1592 12.6115 10.1494 12.582L10.0223 12.2015L10.3411 11.958C10.3658 11.9391 10.3523 11.8997 10.3212 11.9L9.92007 11.9033L9.78704 11.5249C9.77672 11.4955 9.73505 11.4962 9.72568 11.5258L9.60488 11.9084L9.20387 11.918C9.17279 11.9187 9.16055 11.9585 9.18587 11.9766L9.51235 12.2097L9.39751 12.594C9.3886 12.6238 9.42272 12.6479 9.44771 12.6294Z" fill="#FFE15A"/>
<path d="M10.0929 18.0557L9.7654 17.8241L9.44023 18.059C9.41506 18.0772 9.38117 18.0528 9.3904 18.0231L9.50947 17.6401L9.18556 17.4034C9.16048 17.3851 9.17314 17.3454 9.20422 17.3449L9.60532 17.3398L9.73034 16.9587C9.74 16.9292 9.78172 16.929 9.7917 16.9584L9.92056 17.3383L10.3217 17.3394C10.3528 17.3395 10.3659 17.379 10.3409 17.3976L10.0194 17.6375L10.1424 18.0194C10.1519 18.049 10.1183 18.0737 10.0929 18.0557Z" fill="#FFE15A"/>
<path d="M5.30188 15.7184L4.90077 15.7211L4.76839 15.3424C4.75818 15.3131 4.71646 15.3137 4.70704 15.3433L4.58558 15.7257L4.18452 15.7346C4.15344 15.7352 4.14111 15.7751 4.16643 15.7932L4.49254 16.0268L4.37704 16.411C4.36808 16.4407 4.40216 16.4648 4.42719 16.4463L4.75016 16.2084L5.07983 16.4369C5.10538 16.4546 5.13875 16.4296 5.12896 16.4001L5.00244 16.0195L5.32166 15.7766C5.34641 15.7577 5.33296 15.7182 5.30188 15.7184Z" fill="#FFE15A"/>
<path d="M4.1846 13.6566L4.58566 13.6491L4.70833 13.2672C4.71785 13.2376 4.75952 13.2371 4.76969 13.2665L4.90085 13.6456L5.302 13.6442C5.33308 13.6441 5.34644 13.6836 5.32159 13.7023L5.00158 13.9442L5.12688 14.3253C5.13658 14.3548 5.10316 14.3797 5.07766 14.3619L4.74874 14.1323L4.42502 14.3692C4.39994 14.3876 4.36596 14.3634 4.37496 14.3337L4.49167 13.9499L4.16632 13.7152C4.1411 13.6971 4.15357 13.6572 4.1846 13.6566Z" fill="#FFE15A"/>
<path d="M11.6577 13.6419L11.2566 13.6445L11.1242 13.2659C11.114 13.2365 11.0723 13.2371 11.0629 13.2668L10.9414 13.6491L10.5404 13.658C10.5093 13.6587 10.4969 13.6986 10.5223 13.7167L10.8484 13.9503L10.7329 14.3344C10.7239 14.3641 10.758 14.3882 10.783 14.3698L11.106 14.1319L11.4357 14.3604C11.4612 14.3781 11.4946 14.3531 11.4848 14.3236L11.3583 13.943L11.6775 13.7001C11.7022 13.6812 11.6888 13.6417 11.6577 13.6419Z" fill="#FFE15A"/>
<path d="M10.5406 15.7332L10.9416 15.7257L11.0643 15.3437C11.0738 15.3142 11.1155 15.3137 11.1257 15.3431L11.2568 15.7222L11.658 15.7208C11.689 15.7207 11.7024 15.7602 11.6776 15.7789L11.3575 16.0208L11.4828 16.4019C11.4925 16.4314 11.4591 16.4563 11.4336 16.4385L11.1047 16.2089L10.781 16.4458C10.7559 16.4642 10.7219 16.44 10.7309 16.4103L10.8476 16.0265L10.5223 15.7918C10.4971 15.7736 10.5095 15.7339 10.5406 15.7332Z" fill="#FFE15A"/>
</svg>
