<svg width="24" height="24" viewBox="0 0 24 24" fill="none" xmlns="http://www.w3.org/2000/svg">
<path d="M0.152625 19.762L12 12L0.152625 4.23798C0.0614531 4.31387 0 4.42384 0 4.55171V19.4483C0 19.5762 0.0614531 19.6861 0.152625 19.762Z" fill="#F5F5F5"/>
<path d="M0.152588 19.762C0.224307 19.8217 0.313135 19.8621 0.413729 19.8621H23.5861C23.8147 19.8621 24 19.6768 24 19.4482V12H12L0.152588 19.762Z" fill="#73AF00"/>
<path d="M0.152588 4.23797C0.224307 4.17825 0.313135 4.13794 0.413729 4.13794H23.5861C23.8147 4.13794 24 4.32324 24 4.55175V12H12L0.152588 4.23797Z" fill="#82AFFF"/>
<path d="M4.30153 10.1313L3.88246 11.3879L2.55792 11.3982C2.48531 11.3987 2.45521 11.4915 2.51357 11.5346L3.57914 12.3215L3.17962 13.5844C3.15773 13.6537 3.23657 13.7109 3.29564 13.6687L4.37324 12.8985L5.45085 13.6687C5.50992 13.7109 5.58876 13.6536 5.56687 13.5844L5.16735 12.3215L6.23278 11.5345C6.29118 11.4914 6.26109 11.3987 6.18843 11.3981L4.86389 11.3878L4.44482 10.1313C4.42195 10.0624 4.32449 10.0624 4.30153 10.1313Z" fill="#FF4B55"/>
</svg>
