<svg width="24" height="24" viewBox="0 0 24 24" fill="none" xmlns="http://www.w3.org/2000/svg">
<path d="M24 12H0V4.55169C0 4.32317 0.185297 4.13788 0.413812 4.13788H23.5862C23.8147 4.13788 24 4.32317 24 4.55169L24 12Z" fill="#F5F5F5"/>
<path d="M0 12H24V19.4483C24 19.6768 23.8147 19.8621 23.5861 19.8621H0.413812C0.185297 19.8621 0 19.6768 0 19.4483V12Z" fill="#FF4B55"/>
<path d="M8.2758 6.62067C5.30487 6.62067 2.89648 9.0291 2.89648 12H13.6551C13.6551 9.0291 11.2467 6.62067 8.2758 6.62067Z" fill="#FF4B55"/>
<path d="M8.2758 17.3793C11.2467 17.3793 13.6551 14.9709 13.6551 12H2.89648C2.89648 14.9709 5.30492 17.3793 8.2758 17.3793Z" fill="#F5F5F5"/>
</svg>
