<svg width="24" height="24" viewBox="0 0 24 24" fill="none" xmlns="http://www.w3.org/2000/svg">
<path d="M24 9.37934H0V4.55174C0 4.32323 0.185297 4.13793 0.413812 4.13793H23.5862C23.8147 4.13793 24 4.32323 24 4.55174L24 9.37934Z" fill="#82AFFF"/>
<path d="M23.5861 19.8621H0.413812C0.185297 19.8621 0 19.6768 0 19.4483V14.6207H24V19.4483C24 19.6768 23.8147 19.8621 23.5861 19.8621Z" fill="#82AFFF"/>
<path d="M24 9.37925H0V14.6203H24V9.37925Z" fill="#F5F5F5"/>
<path d="M14.0689 11.8966H12.5791C12.6069 11.8755 12.6288 11.8547 12.6487 11.8351C12.6851 11.7995 12.714 11.7713 12.7907 11.7397C12.8679 11.7074 12.9083 11.707 12.9594 11.7062C13.021 11.7058 13.0908 11.7046 13.2047 11.6577C13.3185 11.6104 13.3682 11.5619 13.4121 11.5191C13.4484 11.4835 13.4774 11.4552 13.5543 11.4233C13.6308 11.3914 13.6711 11.3909 13.722 11.3906C13.7834 11.3897 13.8531 11.389 13.967 11.3417L13.8874 11.1509C13.8109 11.1828 13.7706 11.1832 13.7198 11.1836C13.6583 11.1845 13.5887 11.1852 13.4749 11.2321C13.3612 11.2794 13.3114 11.3279 13.2676 11.3707C13.2312 11.4063 13.2023 11.4346 13.1255 11.4661C13.0484 11.4985 13.008 11.4988 12.9568 11.4996C12.8952 11.5001 12.8255 11.5012 12.7115 11.5485C12.5978 11.5954 12.5481 11.6443 12.5042 11.6871C12.4684 11.722 12.4388 11.7499 12.3652 11.781L13.5361 10.6102L13.3898 10.4639L12.3358 11.5178C12.3405 11.4833 12.3417 11.4527 12.342 11.4249C12.3426 11.3735 12.343 11.3335 12.375 11.2564C12.4069 11.1792 12.4352 11.1505 12.4708 11.1141C12.514 11.0701 12.5627 11.02 12.61 10.9061C12.657 10.7921 12.6579 10.7226 12.6585 10.6612C12.6591 10.6103 12.6595 10.5698 12.6912 10.4931C12.7231 10.4163 12.7512 10.3876 12.7868 10.3512C12.8298 10.3072 12.8784 10.2575 12.9256 10.1439L12.7345 10.0647C12.7026 10.1415 12.6745 10.1702 12.6389 10.2066C12.5959 10.2507 12.5472 10.3004 12.5001 10.4139C12.453 10.5279 12.4522 10.5974 12.4516 10.6588C12.451 10.7097 12.4505 10.7502 12.4188 10.8269C12.3869 10.904 12.3587 10.9328 12.323 10.9691C12.2798 11.0132 12.2311 11.0632 12.1839 11.1772C12.1368 11.2911 12.136 11.3611 12.1352 11.4225C12.1348 11.4723 12.1334 11.5126 12.1035 11.5865V9.93102H11.8966V11.4208C11.8755 11.3932 11.8548 11.3713 11.8354 11.3514C11.7997 11.315 11.7715 11.2859 11.7396 11.2092C11.7077 11.132 11.707 11.0916 11.7064 11.0403C11.7058 10.9788 11.705 10.9089 11.6578 10.795C11.6107 10.6814 11.562 10.6317 11.5189 10.5876C11.4834 10.5513 11.4553 10.5226 11.4234 10.4458C11.3917 10.369 11.3912 10.3286 11.3906 10.2777C11.39 10.2162 11.3892 10.1468 11.3421 10.0332L11.151 10.1124C11.1827 10.1892 11.1831 10.2292 11.1837 10.28C11.1843 10.3415 11.1851 10.411 11.2322 10.5249C11.2793 10.6385 11.3281 10.6881 11.3711 10.7322C11.4067 10.7686 11.4347 10.7973 11.4667 10.8741C11.4986 10.9512 11.4992 10.9917 11.4998 11.043C11.5004 11.1045 11.5012 11.1744 11.5485 11.2883C11.5955 11.4023 11.6443 11.452 11.6873 11.496C11.7224 11.5317 11.7501 11.5614 11.7812 11.6349L10.6102 10.464L10.4639 10.6103L11.6331 11.7793C11.569 11.7502 11.5381 11.7235 11.5045 11.6908C11.4602 11.6476 11.4103 11.5987 11.296 11.5514C11.182 11.5046 11.1123 11.5033 11.0507 11.5025C10.9993 11.5021 10.959 11.5014 10.8812 11.469C10.8033 11.4371 10.7743 11.4088 10.7373 11.3729C10.6931 11.33 10.6429 11.2812 10.5284 11.2335C10.414 11.1862 10.3441 11.1854 10.2823 11.1846C10.2308 11.1837 10.1902 11.183 10.1124 11.1507L10.0332 11.3422C10.1476 11.3895 10.2175 11.3903 10.2793 11.3911C10.3308 11.3919 10.3714 11.3927 10.4492 11.425C10.5272 11.4569 10.5563 11.4852 10.5933 11.5212C10.6375 11.5644 10.6876 11.6128 10.8019 11.6602C10.9163 11.7079 10.9863 11.7087 11.0478 11.7095C11.0992 11.7103 11.1395 11.7107 11.217 11.743C11.2944 11.7749 11.3233 11.8032 11.3598 11.8388C11.3786 11.8572 11.3996 11.8767 11.425 11.8966H9.93091V12.1035H11.5834C11.5181 12.1284 11.4773 12.1315 11.4305 12.1322C11.3689 12.1326 11.2991 12.1338 11.185 12.1807C11.0709 12.228 11.0207 12.2769 10.9765 12.3198C10.9397 12.3557 10.9108 12.384 10.8334 12.4159C10.7556 12.4482 10.715 12.449 10.6635 12.4498C10.6017 12.4507 10.5318 12.4514 10.4174 12.4987C10.3029 12.5464 10.2528 12.5949 10.2085 12.6381C10.1715 12.6741 10.1425 12.7024 10.0646 12.7343L10.1438 12.9258C10.2582 12.8781 10.3083 12.8297 10.3525 12.7864C10.3895 12.7504 10.4185 12.7222 10.4965 12.6903C10.5744 12.6579 10.615 12.6571 10.6665 12.6563C10.7283 12.6555 10.7982 12.6547 10.9128 12.607C11.0268 12.5597 11.0767 12.5112 11.1209 12.468C11.1574 12.4324 11.1865 12.4041 11.2642 12.3722C11.3413 12.3398 11.382 12.3394 11.4331 12.3387C11.4593 12.3385 11.4887 12.3368 11.5207 12.3328L10.4637 13.3897L10.61 13.536L11.7786 12.3675C11.7498 12.4314 11.7233 12.4622 11.6905 12.4959C11.6475 12.5399 11.5989 12.59 11.5515 12.7039C11.5042 12.8179 11.5032 12.8883 11.5026 12.9496C11.5018 13.0009 11.5015 13.0413 11.4692 13.1189C11.4371 13.1969 11.4086 13.226 11.3729 13.2628C11.3297 13.3069 11.281 13.3573 11.2335 13.4717C11.186 13.5861 11.1851 13.656 11.1844 13.7178C11.1835 13.7691 11.183 13.8099 11.1509 13.8875L11.342 13.9667C11.3895 13.8523 11.3903 13.7824 11.3911 13.7206C11.3919 13.6692 11.3925 13.6285 11.4246 13.5509C11.4567 13.4729 11.4852 13.4438 11.521 13.407C11.5642 13.363 11.6129 13.3125 11.6604 13.1981C11.7077 13.0841 11.7087 13.0138 11.7092 12.9524C11.7101 12.9011 11.7104 12.8607 11.7426 12.7831C11.7745 12.7055 11.8028 12.6768 11.8386 12.6401C11.857 12.6212 11.8765 12.6002 11.8964 12.5747V14.0689H12.1033V12.4165C12.1279 12.4817 12.1311 12.5224 12.1318 12.5694C12.1324 12.6308 12.1334 12.7007 12.1807 12.8147C12.2277 12.929 12.2766 12.9791 12.3197 13.0232C12.3554 13.06 12.3837 13.089 12.4158 13.1666C12.448 13.2442 12.4486 13.285 12.4494 13.3363C12.4502 13.3981 12.451 13.468 12.4984 13.5824C12.5459 13.6968 12.5946 13.7473 12.6378 13.7913C12.6736 13.8281 12.7021 13.8572 12.7342 13.9352L12.9253 13.856C12.8778 13.7416 12.8292 13.6911 12.7859 13.6471C12.7502 13.6103 12.7217 13.5812 12.6895 13.5032C12.6574 13.4256 12.6568 13.3848 12.656 13.3335C12.6552 13.2717 12.6544 13.2018 12.607 13.0874C12.5597 12.9731 12.511 12.9229 12.4679 12.8789C12.4322 12.8421 12.4039 12.8131 12.3718 12.7355C12.3397 12.6583 12.3392 12.6179 12.3384 12.5666C12.3381 12.5404 12.3364 12.5109 12.3325 12.479L13.3896 13.536L13.5359 13.3897L12.4821 12.3361C12.5163 12.3406 12.5469 12.342 12.5746 12.3424C12.6257 12.3428 12.6659 12.3432 12.7431 12.3751C12.8202 12.4074 12.8492 12.4353 12.8857 12.4712C12.9298 12.5141 12.9797 12.5629 13.0937 12.6102C13.2074 12.6571 13.2771 12.6579 13.3385 12.6583C13.3894 12.6592 13.4297 12.6595 13.5064 12.6915C13.5832 12.723 13.6119 12.7513 13.6483 12.7869C13.6923 12.8297 13.7421 12.8786 13.8558 12.9259L13.935 12.7344C13.8582 12.7029 13.8295 12.6746 13.7931 12.639C13.7491 12.5961 13.6993 12.5473 13.5856 12.4999C13.4719 12.4531 13.4021 12.4523 13.3407 12.4519C13.2898 12.451 13.2496 12.4507 13.1728 12.4187C13.0957 12.3868 13.0667 12.3589 13.0302 12.3229C12.9861 12.2801 12.9362 12.2312 12.8222 12.1843C12.7083 12.1366 12.6386 12.1358 12.5769 12.1354C12.5268 12.1346 12.4862 12.1336 12.4118 12.1035H14.0688V11.8966H14.0689Z" fill="#F09146"/>
<path d="M12 13.0346C12.5713 13.0346 13.0345 12.5714 13.0345 12C13.0345 11.4287 12.5713 10.9655 12 10.9655C11.4286 10.9655 10.9655 11.4287 10.9655 12C10.9655 12.5714 11.4286 13.0346 12 13.0346Z" fill="#FFE15A"/>
</svg>
