<svg width="24" height="24" viewBox="0 0 24 24" fill="none" xmlns="http://www.w3.org/2000/svg">
<path d="M24 12H0V4.55169C0 4.32317 0.185297 4.13788 0.413812 4.13788H23.5862C23.8147 4.13788 24 4.32317 24 4.55169L24 12Z" fill="#73AF00"/>
<path d="M0 12H24V19.4483C24 19.6768 23.8147 19.8621 23.5861 19.8621H0.413812C0.185297 19.8621 0 19.6768 0 19.4483V12Z" fill="#4173CD"/>
<path d="M0 4.5517V19.4482C0 19.5978 0.0836248 19.7231 0.202546 19.7957L24 12L0.202546 4.20432C0.083578 4.27697 0 4.40208 0 4.5517Z" fill="#FF4B55"/>
<path d="M8.85042 14.362C8.85042 14.362 10.0158 13.937 10.3449 12.6619C10.3449 12.6619 9.83756 13.3201 9.48107 13.512C9.48107 13.512 10.2626 12.47 10.098 11.4554C10.098 11.4554 10.002 11.8668 9.81009 12.0313C9.81009 12.0313 10.1529 10.5642 9.71409 9.94728C9.71409 9.94728 9.72777 10.4683 9.53587 10.9893C9.53587 10.9893 9.60899 9.3394 8.85946 8.91898C8.85946 8.91898 9.15196 9.44 9.02854 9.8787C9.02854 9.8787 8.8229 8.94636 7.86768 8.57619C7.86768 8.57619 7.80825 8.64472 7.82198 8.8504C7.82198 8.8504 7.5615 8.53503 6.91706 8.54876C6.91706 8.54876 6.93075 8.78183 7.09528 9.0012C7.09528 9.0012 6.8348 9.13831 6.67027 9.0972C6.67027 9.0972 6.93075 9.38515 7.84936 9.35768C7.84936 9.35768 7.72593 9.46737 7.47918 9.49479C7.47918 9.49479 7.85447 9.66715 8.22412 9.70043C8.73145 9.74609 8.93254 10.0432 9.02849 10.4134C9.02849 10.4134 8.6309 10.1803 8.48006 9.94723C8.48006 9.94723 8.45264 10.3448 9.20671 11.1126L8.82281 10.9481C8.82281 10.9481 9.0696 11.6611 9.37124 12.47L9.05587 12.1272C9.05587 12.1272 8.98734 12.7031 8.93245 13.7725L8.71307 13.2652C8.71307 13.2652 8.32917 14.5266 7.73962 14.7322C7.27809 14.8932 6.76762 15.0034 6.56705 15.0439C6.54825 14.3382 6.84844 14.1838 6.84844 14.1838C7.38314 14.2112 7.50656 13.6217 7.50656 13.6217C7.39687 13.7313 7.19119 13.7313 7.19119 13.7313C7.50656 13.4023 7.50656 12.9362 7.50656 12.9362C7.31461 13.3063 7.01297 13.3612 7.01297 13.3612L7.04039 12.991C6.48272 13.3966 6.52252 13.8716 6.53175 13.9412C6.51919 13.8524 6.41986 13.1577 6.36858 12.991C6.31373 12.8128 6.43711 12.4563 6.62906 12.5111C7.25039 12.6886 7.39687 12.2369 7.39687 12.2369C7.06781 12.3878 6.87586 12.278 6.87586 12.278C7.30087 11.8667 7.12265 11.4829 7.12265 11.4829C6.98555 11.8804 6.60164 11.949 6.60164 11.949L6.58795 11.5103C6.40973 11.6063 6.24516 12.0313 6.24516 12.0313C6.24516 12.0313 6.20405 11.6885 6.32737 11.3869C6.4508 11.0853 6.76608 11.2361 6.76608 11.2361C7.3282 11.3457 7.50647 10.811 7.50647 10.811L7.1363 10.8659C7.54762 10.5642 7.42425 10.194 7.42425 10.194C7.32825 10.4271 6.98555 10.4682 6.98555 10.4682L7.15008 10.0295C6.79359 10.0295 6.58795 10.4957 6.58795 10.4957L6.56053 10.0433C6.72506 9.45373 6.34116 9.1932 6.34116 9.1932C6.25894 9.30289 6.30005 9.536 6.30005 9.536C5.95725 9.23436 5.69677 9.59084 5.69677 9.59084C5.95725 9.86506 6.20409 9.83764 6.20409 9.83764C6.12188 9.89248 5.82019 9.91985 5.82019 9.91985C6.16298 10.2078 6.35489 10.1529 6.35489 10.1529C6.51942 10.8522 6.08067 11.1675 6.08067 11.1675C5.99845 10.6465 5.68308 10.3997 5.68308 10.3997L5.69677 10.7425C5.49113 10.6191 5.3266 10.2489 5.3266 10.2489C5.18949 10.7699 5.55966 11.2224 5.55966 11.2224L5.21686 11.1949C5.5185 11.8942 5.99836 11.6749 5.99836 11.6749C5.95725 12.1684 6.12178 12.9774 6.12178 12.9774C6.05325 12.8951 5.3266 12.2096 5.3266 12.2096C5.29917 12.4837 5.55966 12.8402 5.55966 12.8402C5.42255 12.8128 5.02496 12.5111 5.02496 12.5111C5.06606 12.9498 5.64192 13.2378 5.64192 13.2378C5.42255 13.2652 4.99749 13.0184 4.99749 13.0184C5.24428 14.0741 6.14916 13.608 6.14916 13.608L6.21858 15.036C6.02742 14.9901 5.60944 14.8835 5.1757 14.7323C4.58616 14.5266 4.20225 13.2652 4.20225 13.2652L3.98288 13.7726C3.92804 12.7031 3.85946 12.1272 3.85946 12.1272L3.54408 12.47C3.84572 11.6611 4.09252 10.9482 4.09252 10.9482L3.70861 11.1127C4.46297 10.3448 4.4355 9.94718 4.4355 9.94718C4.28466 10.1802 3.88707 10.4134 3.88707 10.4134C3.98307 10.0432 4.28466 9.65928 4.65488 9.63186C5.0251 9.60443 5.43638 9.49475 5.43638 9.49475C5.18958 9.46732 5.06621 9.35764 5.06621 9.35764C6.13566 9.26164 6.2453 8.97373 6.2453 8.97373C6.08077 9.01484 5.57344 8.96004 5.57344 8.96004C5.99845 8.72698 6.69773 8.50761 6.69773 8.50761C5.83392 8.35676 5.09358 8.8504 5.09358 8.8504C5.217 8.61734 5.43638 8.35681 5.43638 8.35681C4.38066 8.82298 3.88702 9.8787 3.88702 9.8787C3.7636 9.44 4.0561 8.91893 4.0561 8.91893C3.30657 9.3394 3.37969 10.9893 3.37969 10.9893C3.18774 10.4682 3.20147 9.94723 3.20147 9.94723C2.76277 10.5642 3.10547 12.0312 3.10547 12.0312C2.91352 11.8667 2.81752 11.4554 2.81752 11.4554C2.65299 12.47 3.43449 13.512 3.43449 13.512C3.07801 13.32 2.57068 12.6619 2.57068 12.6619C2.89974 13.937 4.06514 14.362 4.06514 14.362C3.42071 14.1152 3.14654 14.3209 3.14654 14.3209C3.59897 14.4169 4.03772 14.6911 4.39421 14.9515C4.75069 15.212 5.2306 15.2669 5.65561 15.3217C5.8312 15.3444 5.9767 15.3739 6.08939 15.4009C5.85708 15.5146 5.69677 15.7525 5.69677 16.0286H7.09528C7.09528 15.763 6.94715 15.5319 6.72895 15.4135C6.86939 15.3835 7.05647 15.3479 7.25981 15.3217C7.68483 15.2668 8.12887 15.154 8.52121 14.9515C8.94623 14.7321 9.3164 14.4168 9.76888 14.3208C9.76902 14.3209 9.49476 14.1153 8.85042 14.362Z" fill="#FFE15A"/>
</svg>
