<svg width="24" height="24" viewBox="0 0 24 24" fill="none" xmlns="http://www.w3.org/2000/svg">
<path d="M23.5861 19.862H0.413812C0.185297 19.862 0 19.6767 0 19.4482V4.55175C0 4.32324 0.185297 4.13794 0.413812 4.13794H23.5862C23.8147 4.13794 24 4.32324 24 4.55175V19.4482C24 19.6768 23.8147 19.862 23.5861 19.862Z" fill="#41479B"/>
<path d="M11.9999 7.86206C10.4273 8.68945 9.3667 10.66 9.3667 12C9.3667 13.34 10.4273 15.3106 11.9999 16.1379C13.5725 15.3105 14.6331 13.34 14.6331 12C14.6331 10.66 13.5725 8.68945 11.9999 7.86206Z" fill="#3CC8FF"/>
<path d="M12.3395 10.5831C12.5936 10.4492 13.0274 10.3018 13.5203 10.4827C13.5203 10.4827 13.0456 9.95389 12.3868 10.3847C12.564 10.1698 12.8302 9.90374 13.1184 9.82963C13.1184 9.82963 12.5448 9.61541 12.1977 10.3804C12.2649 9.99453 12.2527 9.38703 11.6308 9.03439C11.6308 9.03439 11.9785 9.7806 12.0127 10.3998C11.9925 10.2899 11.9521 10.1751 11.8453 10.0637C11.5164 9.72064 11.2306 9.69205 11.2306 9.69205C11.2306 9.69205 11.6865 10.1973 11.9105 10.6752C11.7814 10.5208 11.554 10.3231 11.1877 10.3353C10.3299 10.3639 10.144 10.8785 10.144 10.8785C10.4996 10.7288 11.064 10.6543 11.5014 10.6912C10.9367 10.7907 10.736 11.4944 10.736 11.4944C11.1895 10.9289 11.6845 10.837 11.8821 10.8236C11.5211 11.1222 11.5431 11.6722 11.5431 11.6722C11.627 11.3626 11.952 11.0097 12.1104 10.8515C12.5369 11.3129 12.5874 11.8316 12.5874 11.8316C12.5874 11.8316 12.6807 11.6755 12.6376 11.3579C12.597 11.0581 12.4088 10.8613 12.2652 10.7457C13.0182 10.8494 13.5096 11.3956 13.5096 11.3956C13.2632 10.6769 12.6467 10.5833 12.3395 10.5831Z" fill="#73AF00"/>
<path d="M23.1723 4.96552V19.0344H0.827577V4.96552H23.1723ZM23.5861 4.13794H0.413812C0.185297 4.13794 0 4.32324 0 4.55175V19.4482C0 19.6767 0.185297 19.862 0.413812 19.862H23.5862C23.8147 19.862 24 19.6767 24 19.4482V4.55175C24 4.32324 23.8147 4.13794 23.5861 4.13794Z" fill="#FF4B55"/>
<path d="M11.1594 13L11.5388 12.3448L14.6552 12.2759L14.4483 13.1379L11.1594 13Z" fill="#FF965A"/>
<path d="M9.48035 12.8275C9.79272 14.0535 10.7287 15.4691 11.9999 16.1379C13.2711 15.4691 14.207 14.0535 14.5194 12.8275H9.48035Z" fill="#4173CD"/>
<path d="M9.93103 14.0689C9.93103 14.0689 10.8336 14.0243 11.3759 14.2469C11.5113 14.3025 11.5289 14.4855 11.4065 14.566C11.1424 14.7398 10.7586 15.039 10.7586 15.3103L9.93103 14.0689Z" fill="#FFE15A"/>
<path d="M11.5172 15.7241C11.4827 15.3792 11.7878 15.1284 12.2068 14.9655C12.7499 14.7543 12.4525 14.4181 12.1809 14.1983C11.8571 13.9361 12.2758 13.8621 14.0344 13.8276L13.1723 15.1724L11.9999 16.1379L11.5172 15.7241Z" fill="#FFE15A"/>
<path d="M12 16.3719L11.9036 16.321C10.2624 15.4578 9.15979 13.3897 9.15979 12C9.15979 10.6104 10.2623 8.54216 11.9036 7.67905L12 7.62814L12.0964 7.67905C13.7376 8.5422 14.8401 10.6103 14.8401 12C14.8401 13.3897 13.7376 15.4579 12.0964 16.321L12 16.3719ZM12 8.09769C10.5442 8.91964 9.5736 10.7583 9.5736 12C9.5736 13.2417 10.5442 15.0804 12 15.9023C13.4557 15.0803 14.4264 13.2417 14.4264 12C14.4264 10.7583 13.4558 8.91959 12 8.09769Z" fill="#FF4B55"/>
<path d="M12.8793 14.362C12.8603 14.362 12.8413 14.3569 12.8243 14.3462C12.262 13.9928 11.9396 13.4078 11.9396 12.7413V10.8362C11.9396 10.7791 11.9859 10.7328 12.043 10.7328C12.1002 10.7328 12.1465 10.7791 12.1465 10.8362V12.7413C12.1465 13.3351 12.4336 13.8562 12.9342 14.1708C12.9827 14.2013 12.9973 14.2652 12.9669 14.3134C12.9472 14.3448 12.9136 14.362 12.8793 14.362Z" fill="#A54B37"/>
<path d="M12.0431 11.069C12.1681 11.069 12.2694 10.9676 12.2694 10.8426C12.2694 10.7177 12.1681 10.6163 12.0431 10.6163C11.9181 10.6163 11.8168 10.7177 11.8168 10.8426C11.8168 10.9676 11.9181 11.069 12.0431 11.069Z" fill="#A54B37"/>
</svg>
