<svg width="24" height="24" viewBox="0 0 24 24" fill="none" xmlns="http://www.w3.org/2000/svg">
<path d="M0 14.6207H24V19.4482C24 19.6767 23.8147 19.862 23.5861 19.862H0.413812C0.185297 19.862 0 19.6767 0 19.4482V14.6207Z" fill="#FF4B55"/>
<path d="M0.413812 4.13794H23.5862C23.8147 4.13794 24 4.32324 24 4.55175V9.3793H0V4.5517C0 4.32319 0.185297 4.13794 0.413812 4.13794Z" fill="#FFE15A"/>
<path d="M24 9.37921H0V14.6203H24V9.37921Z" fill="#73AF00"/>
<path d="M12.2359 6.79492L13.475 10.5104L17.3915 10.5407C17.6304 10.5426 17.7295 10.8474 17.5374 10.9894L14.3867 13.316L15.5681 17.0502C15.6401 17.278 15.3808 17.4664 15.1864 17.3275L12 15.05L8.81365 17.3275C8.61926 17.4665 8.35995 17.278 8.43199 17.0502L9.61338 13.316L6.46273 10.9894C6.27055 10.8474 6.36959 10.5425 6.60856 10.5407L10.5251 10.5104L11.7642 6.79492C11.8397 6.56828 12.1603 6.56828 12.2359 6.79492Z" fill="#F5F5F5"/>
</svg>
