<svg width="24" height="24" viewBox="0 0 24 24" fill="none" xmlns="http://www.w3.org/2000/svg">
<path d="M0.413812 4.13794H23.5862C23.8147 4.13794 24 4.32324 24 4.55175V19.4482C24 19.6767 23.8147 19.862 23.5862 19.862H0.413812C0.185297 19.862 0 19.6767 0 19.4482V4.55175C0 4.32324 0.185297 4.13794 0.413812 4.13794Z" fill="#41479B"/>
<path d="M23.8472 19.7621L0.152588 4.23797C0.224307 4.17825 0.313134 4.13794 0.413728 4.13794H23.5861C23.8146 4.13794 23.9999 4.32324 23.9999 4.55175V19.4482C23.9999 19.5761 23.9385 19.6862 23.8472 19.7621Z" fill="#73AF00"/>
<path d="M11.9999 14.4827C13.3711 14.4827 14.4827 13.3711 14.4827 12C14.4827 10.6288 13.3711 9.51724 11.9999 9.51724C10.6288 9.51724 9.51721 10.6288 9.51721 12C9.51721 13.3711 10.6288 14.4827 11.9999 14.4827Z" fill="#FFE15A"/>
<path d="M1.81003 12.028L1.95366 12.3918L2.32762 12.2772C2.34844 12.2709 2.3662 12.2932 2.35542 12.3121L2.16052 12.6512L2.4832 12.8722C2.50116 12.8845 2.49478 12.9123 2.47326 12.9156L2.08664 12.9747L2.11509 13.3647C2.11669 13.3864 2.09091 13.3988 2.07497 13.3841L1.78777 13.1187L1.50056 13.3841C1.48463 13.3988 1.45884 13.3864 1.46044 13.3647L1.48889 12.9747L1.10227 12.9156C1.0808 12.9124 1.07442 12.8845 1.09233 12.8722L1.41502 12.6512L1.22011 12.3121C1.20928 12.2933 1.2271 12.2709 1.24791 12.2772L1.62188 12.3918L1.7655 12.028C1.77342 12.0078 1.80202 12.0078 1.81003 12.028Z" fill="#F5F5F5"/>
<path d="M7.04013 11.0473L7.18376 11.4111L7.55773 11.2966C7.57854 11.2902 7.5963 11.3126 7.58552 11.3315L7.39062 11.6706L7.7133 11.8915C7.73126 11.9038 7.72488 11.9317 7.70337 11.935L7.31674 11.9941L7.3452 12.3841C7.34679 12.4058 7.32101 12.4182 7.30507 12.4035L7.01787 12.138L6.73067 12.4035C6.71468 12.4182 6.68895 12.4058 6.69054 12.3841L6.71899 11.9941L6.33237 11.935C6.3109 11.9317 6.30453 11.9038 6.32243 11.8915L6.64512 11.6706L6.45021 11.3315C6.43938 11.3126 6.4572 11.2903 6.47801 11.2966L6.85198 11.4111L6.9956 11.0473C7.00357 11.0271 7.03217 11.0271 7.04013 11.0473Z" fill="#F5F5F5"/>
<path d="M4.42514 8.68901L4.56877 9.05281L4.94274 8.93829C4.96355 8.93192 4.98131 8.95428 4.97053 8.97317L4.77563 9.31226L5.09831 9.53323C5.11627 9.54551 5.10989 9.57335 5.08838 9.57668L4.70175 9.63574L4.73021 10.0258C4.7318 10.0474 4.70602 10.0599 4.69008 10.0451L4.40288 9.7797L4.11568 10.0451C4.09974 10.0599 4.07396 10.0475 4.07555 10.0258L4.104 9.63574L3.71738 9.57668C3.69591 9.5734 3.68954 9.54551 3.70744 9.53323L4.03013 9.31226L3.83522 8.97317C3.82439 8.95432 3.84221 8.93196 3.86302 8.93829L4.23699 9.05281L4.38061 8.68901C4.38858 8.66881 4.41717 8.66881 4.42514 8.68901Z" fill="#F5F5F5"/>
<path d="M4.42514 17.2582L4.56877 17.622L4.94274 17.5074C4.96355 17.5011 4.98131 17.5234 4.97053 17.5423L4.77563 17.8814L5.09831 18.1024C5.11627 18.1147 5.10989 18.1425 5.08838 18.1458L4.70175 18.2049L4.73021 18.5949C4.7318 18.6166 4.70602 18.629 4.69008 18.6143L4.40288 18.3488L4.11568 18.6143C4.09974 18.629 4.07396 18.6166 4.07555 18.5949L4.104 18.2049L3.71738 18.1458C3.69591 18.1426 3.68954 18.1147 3.70744 18.1024L4.03013 17.8814L3.83522 17.5423C3.82439 17.5235 3.84221 17.5011 3.86302 17.5074L4.23699 17.622L4.38061 17.2582C4.38858 17.238 4.41717 17.238 4.42514 17.2582Z" fill="#F5F5F5"/>
<path d="M5.49556 12.3572L5.59578 12.6578L5.9127 12.6602C5.93726 12.6604 5.94738 12.6917 5.9277 12.7063L5.67274 12.8946L5.76832 13.1967C5.77573 13.2201 5.7491 13.2395 5.72913 13.2252L5.47132 13.0409L5.21351 13.2252C5.19354 13.2395 5.16692 13.2201 5.17432 13.1967L5.2699 12.8946L5.01495 12.7063C4.99517 12.6917 5.00539 12.6603 5.02995 12.6602L5.34687 12.6578L5.44709 12.3572C5.45487 12.3339 5.48778 12.3339 5.49556 12.3572Z" fill="#F5F5F5"/>
<path d="M10.5269 10.932C10.4254 10.9083 10.3233 11.1695 10.4364 11.26C10.5495 11.3504 10.7531 11.5201 10.6287 11.6219C10.5043 11.7237 10.4591 11.735 10.4364 11.8594C10.4138 11.9838 10.4364 12.0064 10.3346 12.063C10.2328 12.1195 9.99529 12.2326 10.0971 12.3458C10.1989 12.4589 10.3346 12.391 10.4251 12.2101C10.4251 12.2101 11.0585 12.1875 11.0811 12.2327C11.1037 12.2779 11.1603 12.4476 11.296 12.4023C11.4317 12.357 11.4317 12.357 11.4317 12.357C11.4317 12.357 11.5109 12.3231 11.5674 12.391C11.624 12.4588 11.7597 12.4814 11.9181 12.4814C12.0764 12.4814 12.2121 12.5719 12.2009 12.7868C12.1936 12.9245 12.1585 13.2107 12.1342 13.3986C12.1213 13.4992 12.1903 13.5918 12.2903 13.6085L12.5799 13.6568C12.6561 13.6695 12.7269 13.6151 12.7337 13.5382C12.7473 13.3835 12.7671 13.1568 12.7664 13.1488C12.7599 13.0674 12.9247 12.6512 12.9134 12.4588C12.9021 12.2665 12.9021 12.2665 12.9021 12.2665C12.9021 12.2665 13.0717 12.244 13.1396 12.1308C13.2075 12.0177 13.3545 11.735 13.6486 11.6332L13.7278 11.4409C13.7278 11.4409 13.5016 11.3391 13.5468 11.2713C13.5921 11.2034 13.6146 11.0224 13.5807 10.8754C13.5468 10.7284 13.5354 10.5248 13.5354 10.5248C13.5354 10.5248 13.4548 10.4907 13.4378 10.5376C13.4208 10.5845 13.4037 10.61 13.3611 10.6015C13.3186 10.593 13.2547 10.5887 13.2377 10.5504C13.2207 10.5121 13.1738 10.4738 13.1312 10.495C13.0887 10.5164 13.0162 10.8016 12.9141 10.8314C12.9141 10.8314 12.9056 10.708 12.8417 10.7335C12.7779 10.759 12.7821 10.8186 12.7736 10.9251C12.7651 11.0315 12.0497 11.7511 11.4238 11.5595C11.4238 11.5595 11.3557 11.4233 11.2152 11.4361C11.0746 11.4489 10.9384 11.4446 10.8575 11.3466C10.7766 11.2487 10.6477 10.9602 10.5269 10.932Z" fill="#73AF00"/>
<path d="M15.1329 12.1151C15.3215 12.3156 17.3941 12.88 19.489 11.7826C21.584 10.6852 22.831 10.3694 22.831 10.3694C22.831 10.3694 22.8476 10.0867 23.1054 10.0452C23.363 10.0036 23.2384 9.89557 23.1719 9.81246C23.1054 9.72935 22.7812 9.50487 22.3405 9.69607C22.3405 9.69607 21.8279 9.71548 21.7503 9.00607C21.6727 8.29667 21.6394 7.57615 21.4621 7.26584C21.2847 6.95548 19.8216 5.40369 19.6443 5.52561C19.4669 5.64753 20.0876 7.18826 20.6641 7.73145C20.6641 7.73145 20.7971 8.68474 20.6308 8.72904C20.4645 8.77338 19.5445 7.93095 17.904 7.73145C17.904 7.73145 18.6024 8.68474 19.4559 9.08379C20.3094 9.48283 20.5421 9.84865 20.52 10.0038C20.4978 10.159 20.2096 10.9016 19.733 11.2453C19.2564 11.5889 18.0593 12.52 15.3435 12.0323C15.3435 12.032 15.0442 12.021 15.1329 12.1151Z" fill="#FFE15A"/>
</svg>
