<svg width="24" height="24" viewBox="0 0 24 24" fill="none" xmlns="http://www.w3.org/2000/svg">
<path d="M24 9.37935H0V4.55175C0 4.32324 0.185297 4.13794 0.413812 4.13794H23.5862C23.8147 4.13794 24 4.32324 24 4.55175L24 9.37935Z" fill="#FF4B55"/>
<path d="M23.5861 19.8621H0.413812C0.185297 19.8621 0 19.6768 0 19.4483V14.6207H24V19.4483C24 19.6768 23.8147 19.8621 23.5861 19.8621Z" fill="#464655"/>
<path d="M24 9.37924H0V14.6203H24V9.37924Z" fill="#F5F5F5"/>
<path d="M13.3212 11.183C13.3212 10.9778 13.1201 10.8329 12.9255 10.8978L12.5597 11.0197L12.4709 10.4833C12.4178 10.1633 12.1436 9.93109 11.819 9.93109H11.4769L11.1191 10.3715H11.5929L11.4603 11.0265L11.0744 10.8978C10.8797 10.8329 10.6787 10.9779 10.6787 11.183V13.4084L11.2114 12.8758L10.9604 13.6286H10.6788V14.0691H13.3212V13.6286H13.0396L12.7886 12.8758L13.3213 13.4084V11.183H13.3212ZM11.7798 13.6285H11.4248L11.6689 12.9766L11.7798 13.1182V13.6285ZM12.2201 13.6285V13.1182L12.3311 12.9766L12.5752 13.6285H12.2201ZM12 12.8303C12 12.8303 11.3187 12.3692 11.3463 11.5091C11.3463 11.5091 11.7661 11.4403 12 11.0687C12.2339 11.4402 12.6537 11.5091 12.6537 11.5091C12.6813 12.3693 12 12.8303 12 12.8303Z" fill="#F0C727"/>
</svg>
