<svg width="24" height="24" viewBox="0 0 24 24" fill="none" xmlns="http://www.w3.org/2000/svg">
<path d="M23.5862 4.13794H12V19.8621H23.5862C23.8147 19.8621 24 19.6768 24 19.4483V4.5517C24 4.32319 23.8147 4.13794 23.5862 4.13794Z" fill="#F5F5F5"/>
<path d="M0.413813 19.8621H12V4.13794H0.413813C0.185297 4.13794 0 4.32319 0 4.5517V19.4483C0 19.6768 0.185297 19.8621 0.413813 19.8621Z" fill="#FFE15A"/>
<path d="M19.1375 8.19149L19.11 8.24647C19.1988 8.29194 19.2496 8.34369 19.2496 8.39882L19.2358 8.12549C19.2173 8.16219 19.181 8.18854 19.1375 8.19149Z" fill="#EBEBEB"/>
<path d="M16.9892 8.24647L16.9617 8.19149C16.9182 8.18849 16.882 8.16219 16.8634 8.12549L16.8496 8.39882C16.8496 8.34379 16.9004 8.29194 16.9892 8.24647Z" fill="#EBEBEB"/>
<path d="M16.9697 7.95314C17.036 7.95314 17.0897 8.00686 17.0897 8.07314C17.0897 8.09714 17.0808 8.11823 17.0687 8.13698L17.1003 8.20012C17.1908 8.1683 17.3024 8.14125 17.4297 8.1203L17.4162 8.0663C17.3666 8.05158 17.3297 8.00742 17.3297 7.95309C17.3297 7.88681 17.3834 7.83309 17.4497 7.83309C17.5159 7.83309 17.5697 7.88681 17.5697 7.95309C17.5697 7.98694 17.5555 8.01717 17.533 8.03902L17.549 8.10309C17.6159 8.0947 17.686 8.08809 17.7587 8.08312C17.7533 8.06058 17.7497 8.03728 17.7497 8.01309C17.7497 7.84744 17.884 7.71309 18.0497 7.71309C18.2153 7.71309 18.3497 7.84744 18.3497 8.01309C18.3497 8.03737 18.3461 8.06058 18.3406 8.08312C18.4135 8.08805 18.4835 8.0947 18.5503 8.10309L18.5664 8.03902C18.5439 8.01717 18.5297 7.98694 18.5297 7.95309C18.5297 7.88681 18.5834 7.83309 18.6497 7.83309C18.7159 7.83309 18.7697 7.88681 18.7697 7.95309C18.7697 8.00747 18.7328 8.05158 18.6832 8.0663L18.6697 8.1203C18.7969 8.1412 18.9085 8.16825 18.9991 8.20012L19.0307 8.13698C19.0185 8.11819 19.0097 8.09714 19.0097 8.07314C19.0097 8.00686 19.0634 7.95314 19.1297 7.95314C19.1728 7.95314 19.209 7.97719 19.2301 8.01145L19.2209 7.82845C19.1024 7.69392 18.6235 7.59314 18.0497 7.59314C17.4759 7.59314 16.9969 7.69383 16.8784 7.82845L16.8693 8.01145C16.8904 7.97719 16.9265 7.95314 16.9697 7.95314Z" fill="#EBEBEB"/>
<path d="M18.2371 6.54145C18.2695 6.50048 18.2897 6.44939 18.2897 6.39309C18.2897 6.28139 18.2131 6.18839 18.1097 6.16158V6.01467C18.1449 5.99376 18.1697 5.95701 18.1697 5.91309C18.1697 5.84681 18.116 5.79309 18.0497 5.79309C17.9834 5.79309 17.9297 5.84681 17.9297 5.91309C17.9297 5.95701 17.9545 5.99376 17.9897 6.01467V6.16158C17.8863 6.18829 17.8097 6.28139 17.8097 6.39309C17.8097 6.44943 17.8299 6.50053 17.8623 6.54145C17.9234 6.52476 17.9855 6.51309 18.0497 6.51309C18.1139 6.51309 18.176 6.52472 18.2371 6.54145Z" fill="#E6B432"/>
<path d="M17.5468 7.149L17.5362 7.10639C17.4866 7.09167 17.4497 7.04751 17.4497 6.99318C17.4497 6.9269 17.5034 6.87318 17.5697 6.87318C17.636 6.87318 17.6897 6.9269 17.6897 6.99318C17.6897 7.02703 17.6755 7.05726 17.653 7.07911L17.6665 7.1332C17.784 7.12036 17.9134 7.11318 18.0497 7.11318C17.9503 7.11318 17.8697 7.03261 17.8697 6.93318C17.8697 6.83376 17.9503 6.75318 18.0497 6.75318C18.1491 6.75318 18.2297 6.83376 18.2297 6.93318C18.2297 7.03261 18.1491 7.11318 18.0497 7.11318C18.186 7.11318 18.3155 7.12036 18.4329 7.1332L18.4464 7.07911C18.4239 7.05726 18.4097 7.02703 18.4097 6.99318C18.4097 6.9269 18.4634 6.87318 18.5297 6.87318C18.596 6.87318 18.6497 6.9269 18.6497 6.99318C18.6497 7.04756 18.6128 7.09167 18.5632 7.10639L18.5526 7.149C18.6136 7.15842 18.6703 7.16934 18.7212 7.18181L18.8096 7.0049C18.6566 6.76776 18.4588 6.60229 18.237 6.54154C18.176 6.52486 18.1138 6.51318 18.0497 6.51318C17.9855 6.51318 17.9234 6.52481 17.8623 6.54154C17.6404 6.60225 17.4427 6.76771 17.2897 7.0049L17.3781 7.18181C17.4291 7.16934 17.4858 7.15842 17.5468 7.149Z" fill="#EBEBEB"/>
<path d="M17.9296 16.975V16.713C17.9296 16.6849 17.9335 16.6579 17.9396 16.6317C17.9364 16.6297 17.9329 16.6282 17.9296 16.6263C17.8941 16.6057 17.8535 16.593 17.8096 16.593C17.7657 16.593 17.725 16.6057 17.6896 16.6263C17.6181 16.6679 17.5696 16.7444 17.5696 16.833C17.5696 16.8976 17.5954 16.9559 17.6368 16.999C17.6883 16.9706 17.7466 16.953 17.8095 16.953C17.8519 16.953 17.8919 16.9616 17.9296 16.975Z" fill="#E6B432"/>
<path d="M18.1696 16.0263C18.0981 16.0679 18.0496 16.1444 18.0496 16.233C18.0496 16.2976 18.0754 16.3559 18.1168 16.399C18.1682 16.3706 18.2266 16.353 18.2896 16.353C18.3525 16.353 18.4108 16.3706 18.4623 16.399C18.5038 16.3559 18.5296 16.2976 18.5296 16.233C18.5296 16.1444 18.481 16.0679 18.4096 16.0263C18.3741 16.0057 18.3335 15.993 18.2896 15.993C18.2456 15.993 18.205 16.0057 18.1696 16.0263Z" fill="#E6B432"/>
<path d="M18.1169 16.3991C18.0288 16.4477 17.963 16.5311 17.9397 16.6319C17.9337 16.6581 17.9297 16.6851 17.9297 16.7131V16.9752C17.892 16.9618 17.852 16.9531 17.8097 16.9531C17.7468 16.9531 17.6884 16.9707 17.6369 16.9991C17.5258 17.0604 17.4497 17.1773 17.4497 17.3131V17.7931H18.1697V17.3131C18.1697 17.2708 18.1611 17.2308 18.1477 17.1931H18.6497V16.7131C18.6497 16.5773 18.5736 16.4604 18.4625 16.3991C18.411 16.3707 18.3527 16.3531 18.2897 16.3531C18.2268 16.3531 18.1684 16.3707 18.1169 16.3991Z" fill="#FF4B57"/>
<path d="M18.1697 11.5733L18.3747 11.7784L18.4448 11.7082C18.4615 11.6916 18.4822 11.683 18.5036 11.6782L19.5185 10.6631L20.1686 11.3131L20.5928 10.8889L20.4231 10.7192L20.3382 10.8041L20.1685 10.6344L20.2534 10.5495L20.1685 10.4646L20.3382 10.295L20.4231 10.3798L20.5079 10.295L20.6776 10.4646L20.5928 10.5495L20.7625 10.7192L21.1867 10.295L20.5365 9.6448L20.9814 9.19973C20.96 9.19091 20.9398 9.17793 20.9224 9.16054L20.6824 8.92054C20.6645 8.90263 20.6514 8.88187 20.6426 8.85974L18.1426 11.3604C18.1586 11.3808 18.1696 11.4053 18.1696 11.4332L18.1697 11.5733Z" fill="#E6B432"/>
<path d="M17.8944 12.2875L17.5549 11.9481L16.4999 13.0035C16.4063 13.0973 16.4063 13.2492 16.5 13.3428C16.5468 13.3897 16.6083 13.4132 16.6697 13.4132C16.7311 13.4132 16.7926 13.3897 16.8394 13.3428L17.6641 12.518L17.8944 12.2875Z" fill="#E6B432"/>
<path d="M14.6186 13.533C14.6253 13.5142 14.6297 13.4942 14.6297 13.4731C14.6297 13.3737 14.5491 13.2931 14.4497 13.2931C14.3502 13.2931 14.2697 13.3737 14.2697 13.4731C14.2697 13.5725 14.3502 13.6531 14.4497 13.6531C14.4708 13.6531 14.4908 13.6488 14.5096 13.6421C14.5436 13.6035 14.58 13.5671 14.6186 13.533Z" fill="#D2D2D2"/>
<path d="M14.5096 15.2242C14.4908 15.2175 14.4708 15.2131 14.4497 15.2131C14.3502 15.2131 14.2697 15.2937 14.2697 15.3931C14.2697 15.4926 14.3502 15.5731 14.4497 15.5731C14.5491 15.5731 14.6297 15.4926 14.6297 15.3931C14.6297 15.372 14.6253 15.352 14.6186 15.3332C14.58 15.2992 14.5436 15.2628 14.5096 15.2242Z" fill="#D2D2D2"/>
<path d="M16.3097 13.6421C16.3286 13.6487 16.3486 13.6531 16.3697 13.6531C16.4691 13.6531 16.5497 13.5725 16.5497 13.4731C16.5497 13.3737 16.4691 13.2931 16.3697 13.2931C16.2703 13.2931 16.1897 13.3737 16.1897 13.4731C16.1897 13.4942 16.194 13.5142 16.2007 13.533C16.2394 13.5671 16.2757 13.6035 16.3097 13.6421Z" fill="#D2D2D2"/>
<path d="M16.1897 15.393C16.1897 15.4925 16.2703 15.573 16.3697 15.573C16.4252 15.573 16.4741 15.5474 16.5071 15.508C16.3943 15.4672 16.2889 15.4217 16.1918 15.3719C16.191 15.379 16.1897 15.3858 16.1897 15.393Z" fill="#D2D2D2"/>
<path d="M15.939 15.2193C15.9138 15.201 15.8986 15.1744 15.8928 15.1461C15.8724 15.1505 15.8513 15.1531 15.8296 15.1531C15.6871 15.1531 15.568 15.053 15.5376 14.9195C15.505 14.9526 15.4597 14.9731 15.4096 14.9731C15.3595 14.9731 15.3143 14.9526 15.2817 14.9195C15.2513 15.053 15.1322 15.1531 14.9896 15.1531C14.8242 15.1531 14.6896 15.0186 14.6896 14.8531C14.6896 14.7106 14.7898 14.5915 14.9232 14.5611C14.8902 14.5285 14.8696 14.4832 14.8696 14.4331C14.8696 14.383 14.8902 14.3377 14.9232 14.3051C14.7898 14.2748 14.6896 14.1557 14.6896 14.0131C14.6896 13.8476 14.8242 13.7131 14.9896 13.7131C15.1321 13.7131 15.2513 13.8132 15.2817 13.9467C15.3143 13.9136 15.3596 13.8931 15.4096 13.8931C15.4598 13.8931 15.505 13.9136 15.5376 13.9467C15.568 13.8132 15.6871 13.7131 15.8296 13.7131C15.9951 13.7131 16.1296 13.8476 16.1296 14.0131C16.1296 14.1557 16.0295 14.2747 15.8961 14.3051C15.9291 14.3378 15.9496 14.383 15.9496 14.4331C15.9496 14.4832 15.9291 14.5285 15.8961 14.5611C16.0295 14.5915 16.1296 14.7106 16.1296 14.8531C16.1296 14.9164 16.1097 14.9749 16.0762 15.0234C16.0773 15.0242 16.0786 15.0242 16.0798 15.025C16.1574 15.0812 16.2469 15.1335 16.3463 15.1813C16.3762 15.1439 16.4033 15.1045 16.4287 15.0637C16.5077 14.9363 16.5636 14.7935 16.5904 14.6405C16.6023 14.573 16.6096 14.504 16.6096 14.4332C16.6096 14.1301 16.4957 13.8536 16.3096 13.6421C16.2756 13.6035 16.2392 13.5671 16.2006 13.5331C15.9892 13.3471 15.7127 13.2332 15.4096 13.2332C15.1065 13.2332 14.83 13.3471 14.6186 13.5331C14.58 13.5671 14.5435 13.6035 14.5095 13.6421C14.3235 13.8536 14.2096 14.13 14.2096 14.4332C14.2096 14.7363 14.3235 15.0127 14.5095 15.2242C14.5436 15.2628 14.58 15.2992 14.6186 15.3332C14.83 15.5192 15.1065 15.6332 15.4096 15.6332C15.698 15.6332 15.9627 15.5308 16.1699 15.3607C16.0864 15.3166 16.0086 15.2696 15.939 15.2193ZM16.3373 14.1903C16.3577 14.268 16.3697 14.3491 16.3697 14.4331C16.3697 14.517 16.3577 14.5981 16.3373 14.6758C16.3035 14.5791 16.2434 14.4958 16.1649 14.4331C16.2434 14.3703 16.3035 14.287 16.3373 14.1903ZM15.6524 13.5054C15.5558 13.5393 15.4725 13.5994 15.4097 13.6779C15.3469 13.5994 15.2636 13.5393 15.167 13.5054C15.2446 13.485 15.3257 13.4731 15.4097 13.4731C15.4937 13.4731 15.5747 13.485 15.6524 13.5054ZM14.482 14.1903C14.5159 14.287 14.576 14.3703 14.6544 14.4331C14.576 14.4959 14.5159 14.5791 14.482 14.6758C14.4616 14.5981 14.4496 14.5171 14.4496 14.4331C14.4496 14.3491 14.4616 14.268 14.482 14.1903ZM15.1669 15.3608C15.2636 15.3269 15.3469 15.2668 15.4096 15.1883C15.4725 15.2668 15.5557 15.3269 15.6524 15.3608C15.5747 15.3812 15.4936 15.3931 15.4096 15.3931C15.3256 15.3931 15.2446 15.3811 15.1669 15.3608Z" fill="#E6B432"/>
<path d="M15.2296 14.4331C15.2296 14.3336 15.1491 14.2531 15.0496 14.2531C15.0003 14.2531 14.9557 14.273 14.9232 14.3051C14.8902 14.3377 14.8696 14.383 14.8696 14.4331C14.8696 14.4832 14.8902 14.5284 14.9232 14.561C14.9557 14.5931 15.0003 14.6131 15.0496 14.6131C15.1491 14.6131 15.2296 14.5325 15.2296 14.4331Z" fill="#F0C814"/>
<path d="M15.5896 14.4331C15.5896 14.5325 15.6702 14.6131 15.7696 14.6131C15.8189 14.6131 15.8635 14.5931 15.896 14.561C15.9291 14.5284 15.9496 14.4831 15.9496 14.4331C15.9496 14.3829 15.9291 14.3377 15.896 14.3051C15.8635 14.273 15.8189 14.2531 15.7696 14.2531C15.6702 14.2531 15.5896 14.3336 15.5896 14.4331Z" fill="#F0C814"/>
<path d="M15.4096 14.2531C15.509 14.2531 15.5896 14.1725 15.5896 14.0731C15.5896 14.0238 15.5697 13.9791 15.5376 13.9466C15.505 13.9136 15.4597 13.8931 15.4096 13.8931C15.3595 13.8931 15.3142 13.9136 15.2816 13.9466C15.2495 13.9792 15.2296 14.0238 15.2296 14.0731C15.2296 14.1725 15.3102 14.2531 15.4096 14.2531Z" fill="#F0C814"/>
<path d="M15.4096 14.613C15.3102 14.613 15.2296 14.6936 15.2296 14.793C15.2296 14.8423 15.2495 14.887 15.2816 14.9195C15.3143 14.9525 15.3596 14.973 15.4096 14.973C15.4597 14.973 15.505 14.9525 15.5376 14.9195C15.5697 14.887 15.5896 14.8423 15.5896 14.793C15.5896 14.6936 15.509 14.613 15.4096 14.613Z" fill="#F0C814"/>
<path d="M20.9225 9.16039C20.9399 9.17783 20.9601 9.19086 20.9816 9.19958C21.0034 9.20853 21.0266 9.21308 21.0498 9.21308C21.0958 9.21308 21.1419 9.1955 21.177 9.1603C21.2394 9.09791 21.2431 9.00275 21.1948 8.93262L21.2612 8.66726C21.2706 8.66966 21.2796 8.67298 21.2898 8.67298C21.356 8.67298 21.4098 8.61926 21.4098 8.55298C21.4098 8.4867 21.356 8.43298 21.2898 8.43298C21.2235 8.43298 21.1698 8.4867 21.1698 8.55298C21.1698 8.56311 21.1732 8.57211 21.1755 8.58153L20.9101 8.64791C20.84 8.59958 20.7448 8.60337 20.6824 8.66576C20.63 8.71817 20.6169 8.79476 20.6426 8.85955C20.6515 8.88162 20.6645 8.90244 20.6824 8.92034L20.9225 9.16039Z" fill="#D2D2D2"/>
<path d="M17.9297 11.9834V11.9131V11.4331C17.9297 11.4052 17.9407 11.3807 17.9567 11.3603L15.4567 8.85962C15.4479 8.8817 15.4348 8.90251 15.4169 8.92042L15.1769 9.16042C15.1595 9.17785 15.1393 9.19088 15.1179 9.1996L15.5628 9.64468L14.9126 10.2949L15.3368 10.7191L15.5065 10.5494L15.4217 10.4645L15.5913 10.2948L15.6762 10.3797L15.7611 10.2948L15.9308 10.4645L15.8459 10.5494L15.9308 10.6343L15.7611 10.8039L15.6762 10.7191L15.5065 10.8888L15.9307 11.313L16.5808 10.6629L17.5957 11.6781C17.6171 11.6829 17.6378 11.6915 17.6545 11.7081L17.9297 11.9834Z" fill="#D2D2D2"/>
<path d="M18.205 12.2876L18.4353 12.518L19.2599 13.3428C19.3068 13.3897 19.3682 13.4132 19.4297 13.4132C19.4911 13.4132 19.5525 13.3897 19.5994 13.3428C19.6932 13.2492 19.6932 13.0972 19.5994 13.0035L18.5444 11.9481L18.205 12.2876Z" fill="#D2D2D2"/>
<path d="M18.1697 11.9132V11.9835L18.3747 11.7784L18.1697 11.5734V11.9132Z" fill="#D2D2D2"/>
<path d="M21.5897 13.6421C21.6085 13.6487 21.6285 13.6531 21.6496 13.6531C21.749 13.6531 21.8296 13.5725 21.8296 13.4731C21.8296 13.3737 21.749 13.2931 21.6496 13.2931C21.5502 13.2931 21.4696 13.3737 21.4696 13.4731C21.4696 13.4942 21.4739 13.5142 21.4806 13.533C21.5193 13.5671 21.5556 13.6035 21.5897 13.6421Z" fill="#D2D2D2"/>
<path d="M21.6496 15.2131C21.6285 15.2131 21.6085 15.2174 21.5897 15.2242C21.5556 15.2628 21.5192 15.2992 21.4806 15.3332C21.474 15.352 21.4696 15.372 21.4696 15.3931C21.4696 15.4926 21.5502 15.5731 21.6496 15.5731C21.749 15.5731 21.8296 15.4926 21.8296 15.3931C21.8296 15.2937 21.749 15.2131 21.6496 15.2131Z" fill="#D2D2D2"/>
<path d="M19.8987 13.533C19.9053 13.5142 19.9097 13.4942 19.9097 13.4731C19.9097 13.3737 19.8291 13.2931 19.7297 13.2931C19.6303 13.2931 19.5497 13.3737 19.5497 13.4731C19.5497 13.5725 19.6303 13.6531 19.7297 13.6531C19.7508 13.6531 19.7708 13.6488 19.7896 13.6421C19.8237 13.6035 19.86 13.5671 19.8987 13.533Z" fill="#D2D2D2"/>
<path d="M19.7297 15.5732C19.8291 15.5732 19.9097 15.4926 19.9097 15.3932C19.9097 15.3859 19.9084 15.3791 19.9076 15.3721C19.8105 15.4219 19.7051 15.4674 19.5923 15.5082C19.6253 15.5476 19.6742 15.5732 19.7297 15.5732Z" fill="#D2D2D2"/>
<path d="M21.5897 15.2242C21.7757 15.0127 21.8896 14.7363 21.8896 14.4332C21.8896 14.13 21.7757 13.8536 21.5897 13.6421C21.5556 13.6035 21.5193 13.5671 21.4806 13.5331C21.2692 13.3471 20.9928 13.2332 20.6896 13.2332C20.3865 13.2332 20.1101 13.3471 19.8986 13.5331C19.86 13.5671 19.8236 13.6035 19.7896 13.6421C19.6035 13.8536 19.4896 14.13 19.4896 14.4332C19.4896 14.5044 19.497 14.5738 19.509 14.6417C19.5359 14.7943 19.5917 14.9367 19.6706 15.0637C19.6959 15.1045 19.7231 15.1439 19.753 15.1813C19.8522 15.1336 19.9416 15.0814 20.0193 15.0252C20.0204 15.0243 20.0219 15.0243 20.0231 15.0235C19.9895 14.975 19.9696 14.9164 19.9696 14.8532C19.9696 14.7106 20.0698 14.5915 20.2032 14.5611C20.1702 14.5285 20.1496 14.4832 20.1496 14.4332C20.1496 14.383 20.1702 14.3378 20.2032 14.3052C20.0698 14.2748 19.9696 14.1557 19.9696 14.0132C19.9696 13.8477 20.1042 13.7132 20.2696 13.7132C20.4121 13.7132 20.5312 13.8132 20.5617 13.9467C20.5943 13.9137 20.6396 13.8932 20.6896 13.8932C20.7397 13.8932 20.785 13.9137 20.8176 13.9467C20.848 13.8132 20.9671 13.7132 21.1096 13.7132C21.275 13.7132 21.4096 13.8477 21.4096 14.0132C21.4096 14.1557 21.3095 14.2748 21.176 14.3052C21.2091 14.3378 21.2296 14.3831 21.2296 14.4332C21.2296 14.4833 21.2091 14.5285 21.176 14.5611C21.3095 14.5915 21.4096 14.7106 21.4096 14.8532C21.4096 15.0186 21.275 15.1532 21.1096 15.1532C20.9671 15.1532 20.848 15.0531 20.8176 14.9196C20.785 14.9526 20.7397 14.9732 20.6896 14.9732C20.6396 14.9732 20.5942 14.9526 20.5617 14.9196C20.5312 15.0531 20.4122 15.1532 20.2696 15.1532C20.2479 15.1532 20.2268 15.1506 20.2063 15.1462C20.2005 15.1746 20.1853 15.2012 20.1599 15.2195C20.0905 15.2699 20.0127 15.3167 19.9293 15.3607C20.1364 15.5308 20.4012 15.6332 20.6896 15.6332C20.9927 15.6332 21.2691 15.5193 21.4806 15.3332C21.5193 15.2992 21.5556 15.2628 21.5897 15.2242ZM19.762 14.6759C19.7416 14.5982 19.7296 14.5172 19.7296 14.4332C19.7296 14.3492 19.7416 14.2682 19.762 14.1905C19.7959 14.2871 19.856 14.3705 19.9344 14.4332C19.856 14.496 19.7959 14.5792 19.762 14.6759ZM20.6896 13.678C20.6268 13.5995 20.5436 13.5394 20.4469 13.5055C20.5246 13.4851 20.6056 13.4732 20.6896 13.4732C20.7736 13.4732 20.8547 13.4851 20.9323 13.5055C20.8357 13.5394 20.7524 13.5995 20.6896 13.678ZM21.6173 14.1904C21.6377 14.2681 21.6497 14.3492 21.6497 14.4332C21.6497 14.5171 21.6377 14.5982 21.6173 14.6759C21.5834 14.5792 21.5233 14.4959 21.4449 14.4332C21.5233 14.3704 21.5834 14.2871 21.6173 14.1904ZM20.4469 15.3609C20.5436 15.327 20.6269 15.2669 20.6896 15.1884C20.7524 15.2669 20.8357 15.327 20.9323 15.3609C20.8547 15.3812 20.7736 15.3932 20.6896 15.3932C20.6056 15.3932 20.5246 15.3812 20.4469 15.3609Z" fill="#E6B432"/>
<path d="M20.8696 14.4331C20.8696 14.5325 20.9502 14.6131 21.0496 14.6131C21.0989 14.6131 21.1436 14.5931 21.1761 14.561C21.2091 14.5284 21.2296 14.4831 21.2296 14.4331C21.2296 14.3829 21.2091 14.3377 21.1761 14.3051C21.1435 14.273 21.0989 14.2531 21.0496 14.2531C20.9502 14.2531 20.8696 14.3336 20.8696 14.4331Z" fill="#F0C814"/>
<path d="M20.5097 14.4331C20.5097 14.3336 20.4291 14.2531 20.3297 14.2531C20.2803 14.2531 20.2357 14.273 20.2032 14.3051C20.1702 14.3377 20.1497 14.383 20.1497 14.4331C20.1497 14.4832 20.1702 14.5284 20.2032 14.561C20.2358 14.5931 20.2803 14.6131 20.3297 14.6131C20.4291 14.6131 20.5097 14.5325 20.5097 14.4331Z" fill="#F0C814"/>
<path d="M20.6896 14.2531C20.7891 14.2531 20.8696 14.1725 20.8696 14.0731C20.8696 14.0238 20.8497 13.9791 20.8176 13.9466C20.785 13.9136 20.7397 13.8931 20.6896 13.8931C20.6396 13.8931 20.5943 13.9136 20.5617 13.9466C20.5296 13.9792 20.5096 14.0238 20.5096 14.0731C20.5096 14.1725 20.5902 14.2531 20.6896 14.2531Z" fill="#F0C814"/>
<path d="M20.6896 14.613C20.5902 14.613 20.5096 14.6936 20.5096 14.793C20.5096 14.8423 20.5296 14.887 20.5617 14.9195C20.5943 14.9525 20.6396 14.973 20.6896 14.973C20.7397 14.973 20.785 14.9525 20.8176 14.9195C20.8497 14.887 20.8696 14.8423 20.8696 14.793C20.8696 14.6936 20.7891 14.613 20.6896 14.613Z" fill="#F0C814"/>
<path d="M15.4169 8.92034C15.4348 8.90244 15.4479 8.88167 15.4567 8.85955C15.4824 8.79476 15.4693 8.71822 15.4169 8.66576C15.3545 8.60337 15.2593 8.59962 15.1892 8.6479L14.9239 8.58153C14.9262 8.57211 14.9296 8.56311 14.9296 8.55298C14.9296 8.4867 14.8759 8.43298 14.8096 8.43298C14.7433 8.43298 14.6896 8.4867 14.6896 8.55298C14.6896 8.61926 14.7433 8.67298 14.8096 8.67298C14.8197 8.67298 14.8287 8.66956 14.8381 8.66726L14.9045 8.93262C14.8562 9.00275 14.86 9.09795 14.9224 9.1603C14.9575 9.19545 15.0035 9.21308 15.0496 9.21308C15.0728 9.21308 15.096 9.20848 15.1178 9.19958C15.1392 9.19076 15.1594 9.17778 15.1768 9.16039L15.4169 8.92034Z" fill="#F7B518"/>
<path d="M20.16 15.2194C20.1854 15.2011 20.2005 15.1744 20.2064 15.146C20.2129 15.1142 20.2074 15.0801 20.1869 15.0518C20.1489 14.9995 20.0766 14.9874 20.0232 15.0233C20.022 15.0242 20.0206 15.0242 20.0194 15.0251C19.9418 15.0813 19.8523 15.1335 19.7531 15.1812C19.4012 15.3505 18.9249 15.4633 18.4097 15.4998V13.8143C18.9334 14.5295 19.4435 14.9139 19.6707 15.0636C19.5918 14.9366 19.536 14.7942 19.5091 14.6416C19.2186 14.4013 18.808 13.9977 18.4097 13.3892V12.5738C18.4182 12.5551 18.4269 12.5368 18.4353 12.5179L18.205 12.2875L18.5444 11.9481L18.6145 11.878C18.6614 11.8311 18.6614 11.7551 18.6145 11.7083C18.5843 11.6781 18.5424 11.6695 18.5036 11.6782C18.4821 11.683 18.4615 11.6916 18.4448 11.7083L18.3747 11.7784L18.1696 11.9834V11.9131V11.5733V11.4331C18.1696 11.4052 18.1586 11.3807 18.1426 11.3603C18.1206 11.3322 18.088 11.3131 18.0496 11.3131C18.0112 11.3131 17.9787 11.3322 17.9567 11.3603C17.9407 11.3807 17.9296 11.4052 17.9296 11.4331V11.9131V11.9834L17.6545 11.7083C17.6378 11.6916 17.6171 11.683 17.5957 11.6782C17.5569 11.6695 17.515 11.6781 17.4847 11.7083C17.4379 11.7551 17.4379 11.8311 17.4847 11.878L17.5549 11.9481L17.8943 12.2875L17.6639 12.5179C17.6724 12.5369 17.681 12.555 17.6895 12.5738V13.3882C17.2917 13.9955 16.8809 14.3995 16.5904 14.6404C16.5635 14.7934 16.5077 14.9363 16.4286 15.0635C16.6558 14.9138 17.1658 14.5294 17.6895 13.8142V15.4998C17.1743 15.4633 16.698 15.3504 16.3461 15.1811C16.2468 15.1333 16.1573 15.0811 16.0797 15.0249C16.0785 15.0241 16.0772 15.024 16.076 15.0233C16.0227 14.9872 15.9502 14.9993 15.9121 15.0516C15.8915 15.08 15.8861 15.1142 15.8927 15.146C15.8985 15.1743 15.9137 15.2009 15.9389 15.2192C16.0085 15.2696 16.0863 15.3165 16.1698 15.3605C16.1771 15.3644 16.1843 15.3681 16.1916 15.3719C16.2887 15.4218 16.3941 15.4672 16.507 15.508C16.8478 15.6313 17.2538 15.712 17.6895 15.7408V16.6263C17.725 16.6057 17.7656 16.593 17.8095 16.593C17.8535 16.593 17.8941 16.6057 17.9295 16.6263V15.7513C17.9694 15.7521 18.0093 15.753 18.0495 15.753C18.0898 15.753 18.1296 15.7521 18.1695 15.7513V16.0263C18.205 16.0057 18.2456 15.993 18.2895 15.993C18.3335 15.993 18.3741 16.0057 18.4095 16.0263V15.7408C18.8453 15.712 19.2514 15.6313 19.5921 15.508C19.705 15.4672 19.8103 15.4217 19.9074 15.3719C19.9148 15.3681 19.922 15.3643 19.9293 15.3605C20.0128 15.3166 20.0906 15.2697 20.16 15.2194ZM18.0497 15.5131C18.0095 15.5131 17.9696 15.5122 17.9297 15.5113V13.4633C17.9699 13.4001 18.0099 13.3344 18.0497 13.2671C18.0895 13.3345 18.1295 13.4001 18.1697 13.4633V15.5113C18.1298 15.5123 18.0898 15.5131 18.0497 15.5131Z" fill="#FF4B55"/>
<path d="M18.0496 8.64639C18.7124 8.64639 19.2496 8.75983 19.2496 8.89975C19.2496 8.66434 19.2496 8.43465 19.2496 8.39879C19.2496 8.34376 19.1988 8.29192 19.11 8.24645L19.1376 8.19147C19.1811 8.18847 19.2172 8.16217 19.2359 8.12547C19.244 8.10953 19.2497 8.09228 19.2497 8.07306C19.2497 8.05 19.2415 8.02965 19.2302 8.01137C19.209 7.97715 19.173 7.95306 19.1297 7.95306C19.0635 7.95306 19.0097 8.00678 19.0097 8.07306C19.0097 8.09706 19.0186 8.11815 19.0307 8.1369L18.9991 8.20004C18.9086 8.16822 18.797 8.14117 18.6697 8.12022L18.6832 8.06622C18.7328 8.0515 18.7697 8.00734 18.7697 7.95301C18.7697 7.88673 18.716 7.83301 18.6497 7.83301C18.5834 7.83301 18.5297 7.88673 18.5297 7.95301C18.5297 7.98686 18.5439 8.01709 18.5664 8.03893L18.5504 8.10301C18.4835 8.09462 18.4134 8.08801 18.3407 8.08304C18.3461 8.0605 18.3497 8.0372 18.3497 8.01301C18.3497 7.84736 18.2154 7.71301 18.0497 7.71301C17.8841 7.71301 17.7497 7.84736 17.7497 8.01301C17.7497 8.03729 17.7533 8.0605 17.7588 8.08304C17.6859 8.08797 17.6159 8.09462 17.5491 8.10301L17.533 8.03893C17.5555 8.01709 17.5697 7.98686 17.5697 7.95301C17.5697 7.88673 17.516 7.83301 17.4497 7.83301C17.3834 7.83301 17.3297 7.88673 17.3297 7.95301C17.3297 8.00739 17.3666 8.0515 17.4162 8.06622L17.4297 8.12022C17.3025 8.14112 17.1909 8.16817 17.1003 8.20004L17.0687 8.1369C17.0809 8.11811 17.0897 8.09706 17.0897 8.07306C17.0897 8.00678 17.036 7.95306 16.9697 7.95306C16.9266 7.95306 16.8904 7.97711 16.8693 8.01137C16.858 8.0297 16.8497 8.05 16.8497 8.07306C16.8497 8.09223 16.8554 8.10953 16.8635 8.12547C16.8821 8.16217 16.9184 8.18847 16.9619 8.19147L16.9894 8.24645C16.9005 8.29192 16.8498 8.34367 16.8498 8.39879C16.8498 8.4347 16.8498 8.66434 16.8498 8.89975C16.8496 8.75983 17.3869 8.64639 18.0496 8.64639Z" fill="#E6B432"/>
<path d="M16.8496 8.91309L16.8511 8.91248C16.8507 8.90845 16.8496 8.90301 16.8496 8.89978C16.8496 8.90428 16.8496 8.90864 16.8496 8.91309Z" fill="#E6B432"/>
<path d="M19.2497 8.91302C19.2497 8.90856 19.2497 8.90416 19.2497 8.89966C19.2497 8.90294 19.2485 8.90838 19.2482 8.91236L19.2497 8.91302Z" fill="#E6B432"/>
<path d="M17.0896 9.15311C17.0896 9.17711 17.0807 9.1982 17.0686 9.21695L17.1141 9.30794C17.1935 9.26856 17.302 9.23477 17.4317 9.20884L17.416 9.14636C17.3665 9.13164 17.3296 9.08748 17.3296 9.03316C17.3296 8.96688 17.3833 8.91316 17.4496 8.91316C17.5158 8.91316 17.5696 8.96688 17.5696 9.03316C17.5696 9.067 17.5554 9.09723 17.5329 9.11908L17.5502 9.18827C17.666 9.17097 17.7939 9.15944 17.9296 9.15517V9.04647C17.893 9.01352 17.8696 8.96631 17.8696 8.91316C17.8696 8.81373 17.9502 8.73316 18.0496 8.73316C18.149 8.73316 18.2296 8.81373 18.2296 8.91316C18.2296 8.96627 18.2062 9.01352 18.1696 9.04647V9.15517C18.3053 9.15948 18.4332 9.17102 18.549 9.18827L18.5664 9.11908C18.5439 9.09723 18.5297 9.067 18.5297 9.03316C18.5297 8.96688 18.5834 8.91316 18.6497 8.91316C18.7159 8.91316 18.7697 8.96688 18.7697 9.03316C18.7697 9.08753 18.7328 9.13164 18.6832 9.14636L18.6676 9.20884C18.7973 9.23477 18.9058 9.26866 18.9851 9.30794L19.0306 9.21695C19.0185 9.19816 19.0096 9.17711 19.0096 9.15311C19.0096 9.08683 19.0633 9.03311 19.1296 9.03311C19.1583 9.03311 19.1836 9.04459 19.2042 9.06142C19.231 8.99584 19.2452 8.94377 19.2481 8.91255C19.2485 8.90852 19.2496 8.90308 19.2496 8.89984C19.2496 8.75992 18.7123 8.64648 18.0496 8.64648C17.3869 8.64648 16.8496 8.75992 16.8496 8.89984C16.8496 8.90313 16.8507 8.90856 16.8511 8.91255C16.854 8.94377 16.8682 8.99584 16.8949 9.06142C16.9156 9.04459 16.9409 9.03311 16.9696 9.03311C17.0359 9.03311 17.0896 9.08688 17.0896 9.15311Z" fill="#EBEBEB"/>
<path d="M16.8496 9.15311C16.8496 9.21658 16.8993 9.26725 16.9617 9.27151L17.0135 9.37506C16.9854 9.40258 16.9696 9.43154 16.9696 9.46164C16.9696 9.49623 16.9904 9.52947 17.0272 9.56054L17.2096 9.87311C17.2096 9.74054 17.5856 9.63311 18.0496 9.63311C18.5135 9.63311 18.8896 9.74054 18.8896 9.87311L19.0719 9.56054C19.1087 9.52947 19.1296 9.49633 19.1296 9.46164C19.1296 9.43154 19.1138 9.40258 19.0856 9.37506L19.1374 9.27151C19.1998 9.2672 19.2496 9.21658 19.2496 9.15311C19.2496 9.11556 19.2312 9.0834 19.2042 9.06142C19.1836 9.04459 19.1582 9.03311 19.1296 9.03311C19.0633 9.03311 19.0096 9.08683 19.0096 9.15311C19.0096 9.17711 19.0184 9.1982 19.0306 9.21695L18.9851 9.30794C18.9057 9.26856 18.7972 9.23476 18.6675 9.20884L18.6831 9.14636C18.7327 9.13164 18.7696 9.08748 18.7696 9.03315C18.7696 8.96687 18.7159 8.91315 18.6496 8.91315C18.5833 8.91315 18.5296 8.96687 18.5296 9.03315C18.5296 9.067 18.5438 9.09723 18.5663 9.11908L18.549 9.18826C18.4332 9.17097 18.3053 9.15944 18.1696 9.15517V9.04647C18.2061 9.01351 18.2296 8.96631 18.2296 8.91315C18.2296 8.81373 18.149 8.73315 18.0496 8.73315C17.9501 8.73315 17.8696 8.81373 17.8696 8.91315C17.8696 8.96626 17.893 9.01351 17.9296 9.04647V9.15517C17.7939 9.15948 17.6659 9.17101 17.5502 9.18826L17.5328 9.11908C17.5553 9.09723 17.5695 9.067 17.5695 9.03315C17.5695 8.96687 17.5158 8.91315 17.4495 8.91315C17.3832 8.91315 17.3295 8.96687 17.3295 9.03315C17.3295 9.08753 17.3664 9.13164 17.416 9.14636L17.4316 9.20884C17.3019 9.23476 17.1934 9.26865 17.114 9.30794L17.0686 9.21695C17.0807 9.19815 17.0896 9.17711 17.0896 9.15311C17.0896 9.08683 17.0358 9.03311 16.9696 9.03311C16.9409 9.03311 16.9156 9.04459 16.8949 9.06142C16.8679 9.0834 16.8496 9.11556 16.8496 9.15311Z" fill="#E6B432"/>
<path d="M18.0497 10.1133C18.5136 10.1133 18.8897 10.0058 18.8897 9.8733C18.8897 9.74075 18.5136 9.6333 18.0497 9.6333C17.5858 9.6333 17.2097 9.74075 17.2097 9.8733C17.2097 10.0058 17.5858 10.1133 18.0497 10.1133Z" fill="#EBEBEB"/>
<path d="M19.2209 7.82837L19.0096 7.35305C19.0096 7.32305 18.9866 7.29446 18.9463 7.26798L19.1169 6.92677C19.1465 6.86748 19.1225 6.79538 19.0632 6.76576C19.0038 6.73632 18.9318 6.76027 18.9022 6.81943L18.8095 7.00482L18.7211 7.18173C18.6702 7.16926 18.6134 7.15834 18.5525 7.14891L18.5631 7.1063C18.6127 7.09159 18.6496 7.04743 18.6496 6.9931C18.6496 6.92682 18.5959 6.8731 18.5296 6.8731C18.4633 6.8731 18.4096 6.92682 18.4096 6.9931C18.4096 7.02694 18.4238 7.05718 18.4463 7.07902L18.4328 7.13312C18.3153 7.12027 18.1859 7.1131 18.0496 7.1131C17.9133 7.1131 17.7838 7.12027 17.6665 7.13312L17.6529 7.07902C17.6754 7.05718 17.6896 7.02694 17.6896 6.9931C17.6896 6.92682 17.6359 6.8731 17.5696 6.8731C17.5033 6.8731 17.4496 6.92682 17.4496 6.9931C17.4496 7.04748 17.4865 7.09159 17.5361 7.1063L17.5467 7.14891C17.4857 7.15834 17.429 7.16926 17.3781 7.18173L17.2896 7.00482L17.197 6.81943C17.1673 6.76027 17.0954 6.73637 17.0359 6.76576C16.9766 6.79538 16.9526 6.86748 16.9823 6.92677L17.1528 7.26798C17.1126 7.29446 17.0896 7.32305 17.0896 7.35305L16.8783 7.82837C16.9968 7.69384 17.4758 7.59305 18.0496 7.59305C18.6234 7.59305 19.1024 7.69379 19.2209 7.82837Z" fill="#E6B432"/>
<path d="M18.0496 7.1133C18.149 7.1133 18.2296 7.03271 18.2296 6.9333C18.2296 6.83388 18.149 6.7533 18.0496 6.7533C17.9502 6.7533 17.8696 6.83388 17.8696 6.9333C17.8696 7.03271 17.9502 7.1133 18.0496 7.1133Z" fill="#E6B432"/>
</svg>
