<svg width="24" height="24" viewBox="0 0 24 24" fill="none" xmlns="http://www.w3.org/2000/svg">
<path d="M24 6.75867H0V4.55175C0 4.32324 0.185297 4.13794 0.413812 4.13794H23.5862C23.8147 4.13794 24 4.32324 24 4.55175L24 6.75867Z" fill="#464655"/>
<path d="M24 6.75891H0V9.37959H24V6.75891Z" fill="#FFE15A"/>
<path d="M24 9.37927H0V12H24V9.37927Z" fill="#FF4B55"/>
<path d="M24 12H0V14.6207H24V12Z" fill="#464655"/>
<path d="M24 14.6208H0V17.2415H24V14.6208Z" fill="#FFE15A"/>
<path d="M23.5861 19.8621H0.413812C0.185297 19.8621 0 19.6768 0 19.4483V17.2413H24V19.4483C24 19.6768 23.8147 19.8621 23.5861 19.8621Z" fill="#FF4B55"/>
<path d="M12 14.4828C13.3712 14.4828 14.4828 13.3712 14.4828 12C14.4828 10.6288 13.3712 9.51727 12 9.51727C10.6288 9.51727 9.51721 10.6288 9.51721 12C9.51721 13.3712 10.6288 14.4828 12 14.4828Z" fill="#F5F5F5"/>
<path d="M12.1497 10.4885L12.3943 10.3906C12.4297 10.3765 12.4469 10.3358 12.4312 10.3011C12.3763 10.1795 12.2294 9.92785 11.9501 9.92025C11.7732 9.91547 11.641 9.95532 11.5664 9.98611C11.5283 10.0018 11.5129 10.0472 11.5338 10.0828L11.6813 10.3349L12.1497 10.4885Z" fill="#FF4B55"/>
<path d="M11.9501 9.92019C11.9297 9.91963 11.9114 9.9208 11.8922 9.92137L11.8656 10.3118L12.0076 10.3904L12.3149 10.1125C12.234 10.0146 12.1154 9.92465 11.9501 9.92019Z" fill="#FFE15A"/>
<path d="M13.002 12.7844L11.8963 11.4944C11.8963 11.2274 11.9928 11.0093 12.0461 10.9091C12.1983 10.8411 12.2965 10.6737 12.2556 10.489C12.2259 10.3546 12.1175 10.245 11.9833 10.2143C11.7419 10.1591 11.5277 10.341 11.5277 10.5729C11.5277 10.5816 11.5297 10.5898 11.5303 10.5984C11.2918 10.6613 11.2475 10.738 11.2475 10.738C11.2475 10.738 11.4038 10.6964 11.5394 10.6609C11.5422 10.6719 11.5458 10.6826 11.5495 10.6933L11.282 10.7841L11.5741 10.7486C11.6065 10.8079 11.6546 10.8572 11.7127 10.8914C11.4943 11.0672 11.1591 11.3977 11.1591 11.7709C11.1591 12.112 11.4118 12.3394 11.7301 12.4905C11.8414 12.5434 11.9436 12.6131 12.0277 12.7031L12.0308 12.7064L12.0585 13.13C11.8302 13.13 11.5581 13.13 11.4355 13.13C11.2051 13.13 11.1418 13.2797 11.1418 13.5273L11.2513 13.3718L11.3434 13.5446L11.3549 13.3488L11.4528 13.4754C11.4528 13.4754 11.4518 13.31 11.5767 13.2883C11.6428 13.2767 11.8723 13.2623 12.0672 13.2623L12.1085 13.8935C11.8442 13.8922 11.545 14.0167 11.545 14.0167C11.6371 13.9994 11.8618 14.034 11.8618 14.034L11.8243 14.1434C12.0835 14.0024 12.5586 13.9994 12.5586 13.9994C12.5586 13.9994 12.455 13.9288 12.2131 13.9011L12.2187 13.2623H12.5989L12.6565 13.1126C12.6565 13.1126 12.4603 12.8523 12.4603 12.7145C12.7645 12.7722 13.002 12.7844 13.002 12.7844ZM12.2198 13.1299L12.2217 12.9108C12.3359 13.0332 12.4262 13.1299 12.4262 13.1299C12.4262 13.1299 12.3409 13.1299 12.2198 13.1299Z" fill="#464655"/>
<path d="M13.002 12.9686C12.9099 12.6 12.5061 12.4867 12.0806 12.2314C11.6199 11.955 11.8963 11.4943 11.8963 11.4943C11.8963 11.4943 13.4397 11.9473 13.5549 12.5999C13.6446 13.1083 13.2785 13.4293 13.0942 13.5214L13.1604 13.3371H12.8177C12.8177 13.3371 13.1805 13.0549 13.1863 12.7842L13.002 12.9686Z" fill="#696E7D"/>
<path d="M13.5549 12.6C13.4779 12.1637 12.763 11.8169 12.2973 11.6347C12.1482 11.6181 12.0172 11.8686 12.4261 12.1393C12.9762 12.5034 13.002 12.9686 13.002 12.9686L13.1863 12.7843C13.1806 13.055 12.8178 13.3372 12.8178 13.3372H13.1604L13.0942 13.5215C13.2785 13.4293 13.6445 13.1084 13.5549 12.6Z" fill="#FFFCFF"/>
<path d="M13.5549 12.6C13.5038 12.3109 13.1725 12.0614 12.8193 11.8727C12.6491 11.8218 12.501 11.8283 12.501 11.8283C12.6046 11.8917 12.6507 12.0529 12.6507 12.0529C12.5758 12.0068 12.4088 12.0299 12.4088 12.0299C12.4553 12.0697 12.4993 12.1509 12.5287 12.2132C12.9791 12.5633 13.002 12.9687 13.002 12.9687L13.1863 12.7843C13.1806 13.055 12.8178 13.3372 12.8178 13.3372H13.1604L13.0942 13.5216C13.2784 13.4293 13.6445 13.1084 13.5549 12.6Z" fill="#FF4B55"/>
<path d="M11.7464 10.5999C11.7803 10.5999 11.8078 10.5724 11.8078 10.5384C11.8078 10.5045 11.7803 10.477 11.7464 10.477C11.7124 10.477 11.6849 10.5045 11.6849 10.5384C11.6849 10.5724 11.7124 10.5999 11.7464 10.5999Z" fill="#F5F5F5"/>
<path d="M11.5854 10.7725C11.5854 10.7725 11.451 10.9299 11.5393 10.976C11.6276 11.0221 11.7128 10.8912 11.7128 10.8912L11.5854 10.7725Z" fill="#FF4B55"/>
</svg>
