<svg width="24" height="24" viewBox="0 0 24 24" fill="none" xmlns="http://www.w3.org/2000/svg">
<path d="M23.5861 19.8621H0.413812C0.185297 19.8621 0 19.6768 0 19.4483V4.55175C0 4.32324 0.185297 4.13794 0.413812 4.13794H23.5862C23.8147 4.13794 24 4.32324 24 4.55175V19.4483C24 19.6768 23.8147 19.8621 23.5861 19.8621Z" fill="#82AFFF"/>
<path d="M11.8812 9.06762L11.187 11.1493L8.99263 11.1663C8.8723 11.1672 8.82247 11.3208 8.91922 11.3922L10.6844 12.6958L10.0225 14.7879C9.98619 14.9026 10.1168 14.9975 10.2147 14.9275L12 13.6516L13.7853 14.9276C13.8831 14.9975 14.0137 14.9027 13.9774 14.788L13.3155 12.6958L15.0807 11.3923C15.1775 11.3208 15.1276 11.1673 15.0073 11.1664L12.8129 11.1493L12.1187 9.06767C12.0807 8.95353 11.9193 8.95353 11.8812 9.06762Z" fill="#F5F5F5"/>
</svg>
