<svg width="24" height="24" viewBox="0 0 24 24" fill="none" xmlns="http://www.w3.org/2000/svg">
<path d="M9.51724 19.8621H0.413813C0.185297 19.8621 0 19.6768 0 19.4483V4.55175C0 4.32324 0.185297 4.13794 0.413813 4.13794H9.51724V19.8621Z" fill="#41479B"/>
<path d="M23.5862 19.8104H9.51721V4.13799H23.5862C23.8147 4.13799 24 4.32328 24 4.5518V19.3966C24 19.6251 23.8147 19.8104 23.5862 19.8104Z" fill="#F5F5F5"/>
<path d="M12.3087 11.9097C12.1345 11.9097 11.9655 11.969 11.8295 12.0778L11.0044 12.7379C10.8683 12.8467 10.6994 12.906 10.5252 12.906H10.2961V12.7743C10.2961 12.5719 10.4602 12.4078 10.6626 12.4078H11.0434V12.2303C11.0434 12.0532 10.8998 11.9097 10.7228 11.9097H10.5452C10.5452 11.7722 10.4337 11.6606 10.2962 11.6606C9.60839 11.6606 9.05081 12.2182 9.05081 12.906H8.57268C8.39854 12.906 8.22951 12.8467 8.09353 12.7379L7.26838 12.0778C7.13235 11.969 6.96337 11.9097 6.78923 11.9097H3.15561C3.03317 11.9097 2.97191 12.0577 3.05849 12.1443L4.3161 13.4019C4.47702 13.5628 4.69527 13.6533 4.9228 13.6533H5.81277L6.54337 14.2012C6.71582 14.3306 6.92554 14.4004 7.14117 14.4004H8.05448C8.21128 14.4004 8.35893 14.3266 8.45297 14.2012L8.55257 14.0684V14.6495L7.93795 15.8789C7.87701 16.0007 7.96561 16.144 8.10182 16.144H10.1129C10.2141 16.144 10.2961 16.062 10.2961 15.9608V13.7363L10.6448 14.2013C10.7389 14.3267 10.8865 14.4005 11.0433 14.4005H11.9566C12.1722 14.4005 12.382 14.3306 12.5544 14.2013L13.285 13.6533H14.175C14.4026 13.6533 14.6208 13.5629 14.7817 13.402L16.0393 12.1443C16.1259 12.0578 16.0645 11.9098 15.9422 11.9098H12.3087V11.9097Z" fill="#FFE15A"/>
<path d="M9.59698 7.87402L9.71604 8.23107L10.0924 8.23398C10.1412 8.23435 10.1614 8.29656 10.1222 8.32548L9.81935 8.54907L9.93289 8.90795C9.94756 8.9544 9.89468 8.99284 9.85503 8.96448L9.54884 8.74562L9.24265 8.96448C9.20304 8.99284 9.15012 8.9544 9.16479 8.90795L9.27832 8.54907L8.97551 8.32548C8.93632 8.29651 8.95653 8.23435 9.00523 8.23398L9.38164 8.23107L9.5007 7.87402C9.51617 7.82776 9.58156 7.82776 9.59698 7.87402Z" fill="#FFE15A"/>
<path d="M4.06816 10.1242L4.40482 10.2924L4.67299 10.0284C4.70768 9.99418 4.76599 10.0239 4.75877 10.072L4.70276 10.4442L5.03679 10.6177C5.08001 10.6402 5.06979 10.7048 5.02174 10.7127L4.65045 10.7745L4.58866 11.1458C4.58065 11.1939 4.5161 11.2041 4.49365 11.1609L4.32016 10.8268L3.94798 10.8828C3.89979 10.8901 3.87007 10.8318 3.90429 10.7971L4.16838 10.5289L4.0001 10.1922C3.97835 10.1487 4.02457 10.1024 4.06816 10.1242Z" fill="#FFE15A"/>
<path d="M15.0975 10.1923L14.9292 10.5289L15.1933 10.7971C15.2275 10.8318 15.1978 10.8901 15.1496 10.8829L14.7774 10.8269L14.604 11.1609C14.5815 11.2041 14.5169 11.1939 14.5089 11.1459L14.4472 10.7746L14.0759 10.7128C14.0278 10.7048 14.0176 10.6402 14.0608 10.6178L14.3949 10.4443L14.3388 10.0721C14.3316 10.0239 14.3898 9.99418 14.4246 10.0284L14.6927 10.2925L15.0294 10.1242C15.073 10.1024 15.1193 10.1487 15.0975 10.1923Z" fill="#FFE15A"/>
<path d="M6.6088 8.44919L6.85546 8.73353L7.2043 8.59215C7.24944 8.57383 7.29191 8.62356 7.26679 8.66533L7.07263 8.98778L7.31484 9.27587C7.34619 9.31319 7.31202 9.36892 7.26454 9.35791L6.89788 9.27287L6.69876 9.59228C6.67298 9.63363 6.60937 9.61834 6.60519 9.56983L6.57276 9.19483L6.20746 9.10412C6.16016 9.09241 6.15501 9.0272 6.19991 9.00817L6.54651 8.86145L6.51988 8.48598C6.51651 8.43747 6.57688 8.41244 6.6088 8.44919Z" fill="#FFE15A"/>
<path d="M12.5778 8.48607L12.5512 8.86154L12.8978 9.00826C12.9427 9.02725 12.9375 9.09245 12.8902 9.10422L12.5249 9.19492L12.4925 9.56992C12.4883 9.61848 12.4247 9.63376 12.3989 9.59237L12.1998 9.27297L11.8331 9.358C11.7856 9.36901 11.7515 9.31328 11.7828 9.27597L12.025 8.98787L11.8309 8.66542C11.8058 8.6237 11.8482 8.57397 11.8934 8.59225L12.2422 8.73362L12.4889 8.44928C12.5208 8.41243 12.5812 8.43747 12.5778 8.48607Z" fill="#FFE15A"/>
<path d="M8.07451 8.01451L8.26098 8.34147L8.63069 8.27092C8.67855 8.26178 8.71052 8.31883 8.6777 8.35487L8.42434 8.63327L8.6057 8.96308C8.62919 9.00578 8.5848 9.05378 8.54036 9.03372L8.19733 8.8788L7.9397 9.1532C7.90633 9.18874 7.84698 9.16136 7.85233 9.11289L7.89367 8.73878L7.55307 8.57856C7.50897 8.55784 7.51665 8.49292 7.56442 8.48303L7.933 8.40672L7.98011 8.03327C7.98625 7.98489 8.05042 7.97214 8.07451 8.01451Z" fill="#FFE15A"/>
<path d="M13.9217 9.21512L13.8224 9.57817L14.1337 9.78971C14.174 9.81709 14.1562 9.88004 14.1076 9.88229L13.7316 9.89996L13.6267 10.2614C13.6131 10.3082 13.5477 10.3108 13.5305 10.2652L13.3975 9.91314L13.0213 9.925C12.9726 9.92654 12.95 9.86518 12.988 9.83471L13.2818 9.5994L13.1542 9.24531C13.1377 9.19946 13.1891 9.15896 13.2298 9.18573L13.5444 9.3924L13.8418 9.16168C13.8802 9.13178 13.9346 9.1681 13.9217 9.21512Z" fill="#FFE15A"/>
<path d="M5.256 9.16164L5.55337 9.39236L5.86795 9.18569C5.90864 9.15897 5.96002 9.19937 5.94352 9.24527L5.81597 9.59936L6.10978 9.83467C6.1478 9.86514 6.1252 9.9265 6.07645 9.92495L5.70028 9.9131L5.56725 10.2652C5.55005 10.3107 5.4847 10.3082 5.47111 10.2614L5.36616 9.89992L4.99017 9.88225C4.94151 9.87995 4.92375 9.81705 4.96406 9.78967L5.27541 9.57813L5.17603 9.21508C5.16309 9.16811 5.21747 9.13178 5.256 9.16164Z" fill="#FFE15A"/>
<path d="M11.1175 8.03327L11.1646 8.40672L11.5332 8.48303C11.5809 8.49292 11.5886 8.55784 11.5445 8.57856L11.2039 8.73878L11.2453 9.11289C11.2506 9.16131 11.1912 9.18874 11.1579 9.1532L10.9003 8.8788L10.5572 9.03372C10.5128 9.05378 10.4684 9.00574 10.4919 8.96308L10.6733 8.63327L10.4199 8.35487C10.3871 8.31883 10.4191 8.26178 10.4669 8.27092L10.8366 8.34147L11.0231 8.01451C11.0473 7.97214 11.1113 7.98489 11.1175 8.03327Z" fill="#FFE15A"/>
<path d="M3.38348 5.91488V6.98593C3.38348 7.42885 3.0231 7.78923 2.58018 7.78923C2.13726 7.78923 1.77688 7.42885 1.77688 6.98593V5.91488H3.38348ZM3.65118 5.37933H1.50913C1.36124 5.37933 1.24133 5.49924 1.24133 5.64713V6.98598C1.24133 7.72538 1.84077 8.32482 2.58018 8.32482C3.31959 8.32482 3.91903 7.72538 3.91903 6.98598V5.64713C3.91898 5.49924 3.79907 5.37933 3.65118 5.37933Z" fill="#FF4B55"/>
<path d="M3.38345 5.91489V6.98594C3.38345 7.42886 3.02308 7.78923 2.58015 7.78923C2.13723 7.78923 1.77686 7.42886 1.77686 6.98594V5.91489H3.38345Z" fill="#F5F5F5"/>
<path d="M1.50704 5.78096C1.58098 5.78096 1.64092 5.72103 1.64092 5.64709C1.64092 5.57315 1.58098 5.51321 1.50704 5.51321C1.43311 5.51321 1.37317 5.57315 1.37317 5.64709C1.37317 5.72103 1.43311 5.78096 1.50704 5.78096Z" fill="#FFE15A"/>
<path d="M3.64913 5.78096C3.72307 5.78096 3.78301 5.72103 3.78301 5.64709C3.78301 5.57315 3.72307 5.51321 3.64913 5.51321C3.5752 5.51321 3.51526 5.57315 3.51526 5.64709C3.51526 5.72103 3.5752 5.78096 3.64913 5.78096Z" fill="#FFE15A"/>
<path d="M1.50704 6.85206C1.58098 6.85206 1.64092 6.79212 1.64092 6.71818C1.64092 6.64424 1.58098 6.5843 1.50704 6.5843C1.43311 6.5843 1.37317 6.64424 1.37317 6.71818C1.37317 6.79212 1.43311 6.85206 1.50704 6.85206Z" fill="#FFE15A"/>
<path d="M3.64913 6.85206C3.72307 6.85206 3.78301 6.79212 3.78301 6.71818C3.78301 6.64424 3.72307 6.5843 3.64913 6.5843C3.5752 6.5843 3.51526 6.64424 3.51526 6.71818C3.51526 6.79212 3.5752 6.85206 3.64913 6.85206Z" fill="#FFE15A"/>
<path d="M2.57809 5.78096C2.65203 5.78096 2.71196 5.72103 2.71196 5.64709C2.71196 5.57315 2.65203 5.51321 2.57809 5.51321C2.50415 5.51321 2.44421 5.57315 2.44421 5.64709C2.44421 5.72103 2.50415 5.78096 2.57809 5.78096Z" fill="#FFE15A"/>
<path d="M3.38156 7.83925C3.45549 7.83925 3.51543 7.77932 3.51543 7.70538C3.51543 7.63144 3.45549 7.5715 3.38156 7.5715C3.30762 7.5715 3.24768 7.63144 3.24768 7.70538C3.24768 7.77932 3.30762 7.83925 3.38156 7.83925Z" fill="#FFE15A"/>
<path d="M1.79013 7.83925C1.86406 7.83925 1.924 7.77932 1.924 7.70538C1.924 7.63144 1.86406 7.5715 1.79013 7.5715C1.71619 7.5715 1.65625 7.63144 1.65625 7.70538C1.65625 7.77932 1.71619 7.83925 1.79013 7.83925Z" fill="#FFE15A"/>
<path d="M2.75307 6.65027V6.88085C2.75307 6.97619 2.67549 7.05377 2.58015 7.05377C2.4848 7.05377 2.40723 6.97619 2.40723 6.88085V6.65027H2.75307Z" fill="#41479B"/>
<path d="M2.75307 6.10361V6.33419C2.75307 6.42953 2.67549 6.50711 2.58015 6.50711C2.4848 6.50711 2.40723 6.42953 2.40723 6.33419V6.10361H2.75307Z" fill="#41479B"/>
<path d="M2.75307 7.20255V7.43312C2.75307 7.52847 2.67549 7.60605 2.58015 7.60605C2.4848 7.60605 2.40723 7.52847 2.40723 7.43312V7.20255H2.75307Z" fill="#41479B"/>
<path d="M3.21889 6.65027V6.88085C3.21889 6.97619 3.14131 7.05377 3.04597 7.05377C2.95063 7.05377 2.87305 6.97619 2.87305 6.88085V6.65027H3.21889Z" fill="#41479B"/>
<path d="M2.28737 6.65027V6.88085C2.28737 6.97619 2.20979 7.05377 2.11445 7.05377C2.01911 7.05377 1.94153 6.97619 1.94153 6.88085V6.65027H2.28737Z" fill="#41479B"/>
</svg>
