<svg width="24" height="24" viewBox="0 0 24 24" fill="none" xmlns="http://www.w3.org/2000/svg">
<path d="M0.413812 4.13794H23.5862C23.8147 4.13794 24 4.32324 24 4.55175V12H0V4.5517C0 4.32319 0.185297 4.13794 0.413812 4.13794Z" fill="#FF4B55"/>
<path d="M23.5861 19.862H0.413812C0.185297 19.862 0 19.6768 0 19.4482V12H24V19.4483C24 19.6768 23.8147 19.862 23.5861 19.862Z" fill="#41479B"/>
<path d="M0.152625 19.762L11.6061 12.258C11.792 12.1362 11.792 11.8637 11.6061 11.7419L0.152625 4.23798C0.061453 4.31387 0 4.42383 0 4.55171V19.4482C0 19.5761 0.061453 19.6861 0.152625 19.762Z" fill="#F5F5F5"/>
<path d="M4.2422 11.7023C4.95979 11.7023 5.54152 11.1206 5.54152 10.403C5.54152 9.68537 4.95979 9.10364 4.2422 9.10364C3.5246 9.10364 2.94287 9.68537 2.94287 10.403C2.94287 11.1206 3.5246 11.7023 4.2422 11.7023Z" fill="#FFE15A"/>
<path d="M5.83074 11.6065C5.83589 11.7642 5.85305 11.9268 5.8696 12.084C5.93452 12.7011 5.99063 13.234 5.39803 13.4407C5.25797 13.4896 5.0671 13.517 4.8826 13.5434C4.61771 13.5814 4.38052 13.6153 4.24257 13.7114C4.10462 13.6153 3.86748 13.5814 3.60254 13.5434C3.41804 13.517 3.22712 13.4895 3.0871 13.4407C2.49451 13.234 2.55062 12.7011 2.61554 12.084C2.63209 11.9268 2.6492 11.7642 2.6544 11.6065C2.67282 11.0479 2.55502 10.5005 2.47229 10.191C2.61015 10.2476 2.80126 10.2987 3.03559 10.2945C3.13655 10.2925 3.24994 10.2781 3.36994 10.2629C3.64388 10.228 3.95433 10.1887 4.20282 10.2869L4.24266 10.3047L4.28251 10.2869C4.53094 10.1887 4.84144 10.228 5.11538 10.2629C5.23538 10.2781 5.34877 10.2925 5.44974 10.2945C5.68407 10.2987 5.87522 10.2476 6.01303 10.191C5.93007 10.5004 5.81231 11.0479 5.83074 11.6065Z" fill="#8CD7FF"/>
<path d="M6.04716 11.5993C6.02105 10.8074 6.29124 10.0129 6.294 10.005L6.1237 9.88544C6.1215 9.88727 5.86538 10.0859 5.45382 10.078C5.36438 10.0763 5.25661 10.0626 5.14247 10.048C4.85593 10.0118 4.53268 9.97066 4.24252 10.0708C3.95237 9.9707 3.62916 10.0118 3.34257 10.048C3.22848 10.0625 3.12066 10.0763 3.03123 10.078C2.61966 10.0859 2.36359 9.88722 2.36134 9.88544L2.19104 10.005C2.19371 10.0129 2.46399 10.8074 2.43788 11.5993C2.43296 11.7493 2.41627 11.9079 2.40006 12.0613C2.33495 12.6804 2.26112 13.382 3.01566 13.6453C3.17555 13.701 3.37758 13.7256 3.57169 13.7578C4.15449 13.8543 4.24247 14.0032 4.24247 14.0032C4.24247 14.0032 4.33046 13.8543 4.91325 13.7578C5.10736 13.7256 5.30939 13.701 5.46928 13.6453C6.22388 13.3821 6.1501 12.6804 6.08489 12.0613C6.06881 11.9079 6.05208 11.7493 6.04716 11.5993ZM5.83074 11.6065C5.83589 11.7641 5.85305 11.9268 5.8696 12.084C5.93452 12.701 5.99063 13.234 5.39803 13.4407C5.25797 13.4896 5.0671 13.5169 4.8826 13.5434C4.61771 13.5813 4.38052 13.6153 4.24257 13.7114C4.10461 13.6153 3.86747 13.5813 3.60254 13.5434C3.41804 13.5169 3.22712 13.4895 3.0871 13.4407C2.49451 13.234 2.55062 12.701 2.61554 12.084C2.63209 11.9268 2.6492 11.7641 2.6544 11.6065C2.67282 11.0478 2.55502 10.5004 2.47229 10.191C2.61015 10.2476 2.80126 10.2986 3.03559 10.2945C3.13655 10.2925 3.24994 10.2781 3.36994 10.2629C3.64388 10.228 3.95433 10.1887 4.20282 10.2869L4.24266 10.3046L4.28251 10.2869C4.53094 10.1887 4.84144 10.228 5.11538 10.2629C5.23538 10.2781 5.34877 10.2925 5.44974 10.2945C5.68406 10.2986 5.87522 10.2475 6.01303 10.191C5.93006 10.5004 5.81231 11.0478 5.83074 11.6065Z" fill="#FF4B55"/>
<path d="M5.35926 12.9377V12.4604H5.44106V12.3196H5.241V11.8294H5.44106L4.52615 11.1813V10.9375H4.65342L4.24261 10.6465L3.83189 10.9375H3.95906V11.1813L3.04416 11.8294H3.24427V12.3196H3.04416V12.4604H3.126V12.9377H3.00647V13.1437H5.47884V12.9377H5.35926Z" fill="#F5F5F5"/>
<path d="M3.05587 10.9842C3.02671 11.0533 3.03168 11.1265 3.06266 11.1804C3.12295 11.165 3.17882 11.1175 3.20802 11.0485C3.23718 10.9794 3.23221 10.9062 3.20123 10.8523C3.14099 10.8677 3.08507 10.9152 3.05587 10.9842Z" fill="#41AA5A"/>
<path d="M3.19766 11.006C3.21674 11.0785 3.26544 11.1334 3.32286 11.1571C3.36121 11.1082 3.37644 11.0364 3.35736 10.9639C3.33828 10.8914 3.28958 10.8365 3.23216 10.8127C3.19386 10.8616 3.17858 10.9334 3.19766 11.006Z" fill="#41AA5A"/>
<path d="M3.4178 10.8854C3.48812 10.9115 3.56101 10.9034 3.61351 10.87C3.59555 10.8105 3.54563 10.7567 3.47537 10.7306C3.40505 10.7045 3.33216 10.7126 3.27966 10.7459C3.29762 10.8054 3.34749 10.8592 3.4178 10.8854Z" fill="#41AA5A"/>
<path d="M3.48382 10.7616C3.55244 10.7314 3.59917 10.6748 3.61361 10.6143C3.55924 10.5842 3.48602 10.5803 3.41739 10.6104C3.34877 10.6406 3.30208 10.6972 3.2876 10.7577C3.34188 10.7879 3.41514 10.7918 3.48382 10.7616Z" fill="#41AA5A"/>
<path d="M3.0225 10.8241C3.08367 10.7807 3.11803 10.716 3.12005 10.6538C3.06075 10.6351 2.98819 10.646 2.92701 10.6894C2.86584 10.7327 2.83148 10.7976 2.82947 10.8598C2.88876 10.8785 2.96137 10.8676 3.0225 10.8241Z" fill="#41AA5A"/>
<path d="M2.97136 10.7336C3.06548 10.7875 3.16631 10.8021 3.24131 10.7804C3.222 10.7048 3.15839 10.6252 3.06426 10.5713C2.97014 10.5174 2.86931 10.5028 2.79431 10.5244C2.81362 10.6001 2.87728 10.6797 2.97136 10.7336Z" fill="#41AA5A"/>
<path d="M3.3684 10.8441C3.3684 10.8076 3.3393 10.7781 3.30301 10.7768C3.30165 10.7405 3.27231 10.7114 3.23566 10.7114C3.199 10.7114 3.16966 10.7405 3.1683 10.7768C3.13201 10.7781 3.10291 10.8075 3.10291 10.8441C3.10291 10.8807 3.13201 10.9101 3.1683 10.9115C3.16966 10.9478 3.199 10.9769 3.23566 10.9769C3.27231 10.9769 3.30165 10.9478 3.30301 10.9115C3.3393 10.9101 3.3684 10.8807 3.3684 10.8441Z" fill="#FFE15A"/>
<path d="M3.23577 10.8839C3.25777 10.8839 3.27561 10.866 3.27561 10.844C3.27561 10.822 3.25777 10.8042 3.23577 10.8042C3.21376 10.8042 3.19592 10.822 3.19592 10.844C3.19592 10.866 3.21376 10.8839 3.23577 10.8839Z" fill="#F5F5F5"/>
<path d="M3.15651 10.777C3.15651 10.7469 3.13256 10.7227 3.10279 10.7216C3.10167 10.6918 3.07748 10.6679 3.04743 10.6679C3.01734 10.6679 2.99315 10.6919 2.99207 10.7216C2.96226 10.7228 2.93835 10.7469 2.93835 10.777C2.93835 10.8071 2.96231 10.8313 2.99207 10.8323C2.9932 10.8622 3.01739 10.8861 3.04743 10.8861C3.07753 10.8861 3.10171 10.8621 3.10279 10.8323C3.13256 10.8312 3.15651 10.8071 3.15651 10.777Z" fill="#FFE15A"/>
<path d="M3.04737 10.8093C3.06544 10.8093 3.08009 10.7946 3.08009 10.7766C3.08009 10.7585 3.06544 10.7438 3.04737 10.7438C3.0293 10.7438 3.01465 10.7585 3.01465 10.7766C3.01465 10.7946 3.0293 10.8093 3.04737 10.8093Z" fill="#F5F5F5"/>
<path d="M3.35986 10.6831C3.35986 10.6614 3.34256 10.644 3.32114 10.6432C3.32029 10.6217 3.30295 10.6045 3.28125 10.6045C3.25954 10.6045 3.24215 10.6218 3.24136 10.6432C3.21989 10.6441 3.20264 10.6614 3.20264 10.6831C3.20264 10.7048 3.21993 10.7222 3.24136 10.723C3.2422 10.7445 3.25954 10.7617 3.28125 10.7617C3.30295 10.7617 3.32034 10.7444 3.32114 10.723C3.34261 10.7222 3.35986 10.7048 3.35986 10.6831Z" fill="#FFE15A"/>
<path d="M3.28127 10.7068C3.29429 10.7068 3.30485 10.6963 3.30485 10.6832C3.30485 10.6702 3.29429 10.6597 3.28127 10.6597C3.26825 10.6597 3.25769 10.6702 3.25769 10.6832C3.25769 10.6963 3.26825 10.7068 3.28127 10.7068Z" fill="#F5F5F5"/>
<path d="M3.21069 10.6153C3.21069 10.5936 3.19339 10.5762 3.17197 10.5754C3.17112 10.5539 3.15378 10.5367 3.13208 10.5367C3.11042 10.5367 3.09298 10.554 3.09219 10.5754C3.07072 10.5762 3.05347 10.5936 3.05347 10.6153C3.05347 10.637 3.07076 10.6544 3.09219 10.6552C3.09303 10.6767 3.11037 10.6939 3.13208 10.6939C3.15373 10.6939 3.17117 10.6766 3.17197 10.6552C3.19344 10.6544 3.21069 10.6369 3.21069 10.6153Z" fill="#FFE15A"/>
<path d="M3.13185 10.6389C3.14488 10.6389 3.15543 10.6283 3.15543 10.6153C3.15543 10.6023 3.14488 10.5917 3.13185 10.5917C3.11883 10.5917 3.10828 10.6023 3.10828 10.6153C3.10828 10.6283 3.11883 10.6389 3.13185 10.6389Z" fill="#F5F5F5"/>
<path d="M4.9408 11.2104H5.69178C5.64369 11.1003 5.54933 11.0151 5.43233 10.9804C5.44086 10.9258 5.44611 10.8651 5.44611 10.8C5.44611 10.5731 5.38803 10.3893 5.31631 10.3893C5.24459 10.3893 5.18651 10.5732 5.18651 10.8C5.18651 10.865 5.19172 10.9258 5.2003 10.9804C5.08325 11.0151 4.98884 11.1003 4.9408 11.2104Z" fill="#F5F5F5"/>
<path d="M4.24254 14.8965C2.66033 14.8965 1.37305 13.6093 1.37305 12.027H1.91445C1.91445 13.3108 2.95883 14.3551 4.24249 14.3551C5.52616 14.3551 6.57054 13.3108 6.57054 12.027H7.11204C7.11204 13.6093 5.82485 14.8965 4.24254 14.8965Z" fill="#FFE15A"/>
<path d="M5.30606 9.46306H4.8381C4.88507 9.46306 4.92318 9.425 4.92318 9.37799C4.92318 9.33097 4.88512 9.29291 4.8381 9.29291H4.24256C4.19559 9.29291 4.15748 9.33097 4.15748 9.37799C4.15748 9.425 4.19554 9.46306 4.24256 9.46306H3.17911C3.10861 9.46306 3.05151 9.5202 3.05151 9.59066C3.05151 9.66111 3.10865 9.71825 3.17911 9.71825H3.56193C3.51497 9.71825 3.4769 9.75631 3.4769 9.80333C3.4769 9.8503 3.51497 9.88841 3.56198 9.88841H4.32768C4.37465 9.88841 4.41276 9.85034 4.41276 9.80333C4.41276 9.75636 4.3747 9.71825 4.32773 9.71825H5.3061C5.3766 9.71825 5.4337 9.66111 5.4337 9.59066C5.4337 9.5202 5.37656 9.46306 5.30606 9.46306Z" fill="#C87878"/>
</svg>
