<svg width="24" height="24" viewBox="0 0 24 24" fill="none" xmlns="http://www.w3.org/2000/svg">
<path d="M23.5862 19.8621H0.413813C0.185297 19.8621 0 19.6768 0 19.4482V15.7241H24V19.4482C24 19.6768 23.8147 19.8621 23.5862 19.8621Z" fill="#73AF00"/>
<path d="M23.5862 4.13794H0.413813C0.185297 4.13794 0 4.32324 0 4.55175V15.7241H24V4.55175C24 4.32324 23.8147 4.13794 23.5862 4.13794Z" fill="#FF4B55"/>
<path d="M3.31036 19.8621H0.413813C0.185297 19.8621 0 19.6768 0 19.4483V4.55175C0 4.32324 0.185297 4.13794 0.413813 4.13794H3.31036V19.8621Z" fill="#F5F5F5"/>
<path d="M0.414062 19.1748H0.560406V18.7647H0.414062V19.1748ZM1.58209 19.1748H1.72848V18.7647H1.58209V19.1748ZM2.75087 19.1748H2.89656V18.7647H2.75087V19.1748ZM0.998828 18.0751H1.14372V17.7333H0.998828V18.0751ZM2.16756 18.0751H2.31325V17.7333H2.16756V18.0751ZM0.414062 17.1835H0.560406V16.7733H0.414062V17.1835ZM1.58209 17.1835H1.72848V16.7733H1.58209V17.1835ZM2.75087 17.1835H2.89656V16.7733H2.75087V17.1835ZM0.707547 17.7333H0.852437V17.3885H0.998828V17.0466H1.14372V17.3885H1.29086V17.7333H1.43575V18.0751H1.29086V18.4199H1.14372V18.7646H0.998828V18.4199H0.852437V18.0751H0.707547V17.7333ZM1.87563 17.7333H2.02197V17.3885H2.16761V17.0466H2.3133V17.3885H2.45894V17.7333H2.60528V18.0751H2.45894V18.4199H2.3133V18.7646H2.16761V18.4199H2.02197V18.0751H1.87563V17.7333ZM2.16756 16.3602V16.702H2.02052V17.0467H1.87563V17.3885H1.72848V17.7334H1.58209V17.3885H1.4357V17.0467H1.29081V16.702H1.14367V16.3602H0.998781V16.702H0.852391V17.0467H0.7075V17.3885H0.560359V17.7334H0.414062V18.0752H0.560406V18.4199H0.707547V18.7646H0.852437V19.1064H0.998828V19.4483H1.14522V19.1064H1.29086V18.7646H1.43575V18.4199H1.58214V18.0752H1.72853V18.4199H1.87567V18.7646H2.02202V19.1064H2.16766V19.4483H2.31334V19.1064H2.45898V18.7646H2.60533V18.4199H2.75172V18.0752H2.89661V17.7334H2.75092V17.3885H2.60533V17.0467H2.45898V16.702H2.31334V16.3602H2.16756ZM2.52944 16.0184H2.60228V15.8818H2.67583V16.0184H2.74937V16.1551H2.67583V16.2948H2.60228V16.1551H2.52944V16.0184ZM2.52944 15.5399V15.742H2.45739V15.9501H2.38384V16.2235H2.45739V16.4286H2.52944V16.6336H2.74942V16.4286H2.82227V16.2235H2.89431V15.9501H2.82227V15.742H2.74942V15.5399H2.52944ZM0.560406 16.0154H0.633953V15.8788H0.7075V16.0154H0.778797V16.1551H0.7075V16.2918H0.633953V16.1551H0.560406V16.0154ZM0.560406 15.5369V15.742H0.487562V15.947H0.414062V16.2234H0.487562V16.4285H0.560406V16.6335H0.778844V16.4285H0.852391V16.2234H0.923781V15.947H0.852391V15.742H0.778844V15.5369H0.560406ZM1.36361 16.0154H1.43566V15.8788H1.51V16.0154H1.58205V16.1551H1.51V16.2918H1.43566V16.1551H1.36361V16.0154ZM1.72848 16.0154H1.80203V15.8788H1.87558V16.0154H1.94762V16.1551H1.87558V16.2918H1.80203V16.1551H1.72848V16.0154ZM1.72848 15.5369V15.742H1.58209V15.5369H1.36366V15.742H1.29081V15.947H1.21727V16.2234H1.29081V16.4285H1.36366V16.6335H1.58209V16.4285H1.72848V16.6335H1.94767V16.4285H2.02197V16.2234H2.09336V15.947H2.02197V15.742H1.94767V15.5369H1.72848ZM0.414062 15.3972H0.560406V14.9871H0.414062V15.3972ZM1.58209 15.3972H1.72848V14.9871H1.58209V15.3972ZM2.75087 15.3972H2.89656V14.9871H2.75087V15.3972ZM0.414062 13.6822H0.560406V13.4088H0.414062V13.6822ZM2.75087 13.6822H2.89656V13.4088H2.75087V13.6822ZM1.58209 12.7222H1.72848V12.3804H1.58209V12.7222ZM0.414062 11.795V12V12.0029V12.208H0.560406V12.0029V12V11.795H0.414062ZM1.21722 11.795V12V12.0029V12.208H1.36361V12.0029V12V11.795H1.21722ZM1.94767 11.795V12V12.0029V12.208H2.09331V12.0029V12V11.795H1.94767ZM2.75087 11.795V12V12.0029V12.208H2.89656V12.0029V12V11.795H2.75087ZM1.80203 11.5543V11.6909H1.72848V11.795H1.58209V11.6909H1.51005V11.5543H1.36366V11.7593H1.4357V11.8633H1.51005V12V12.0029V12.1367H1.4357V12.2407H1.36366V12.4458H1.51005V12.3091H1.58209V12.208H1.72848V12.3091H1.80203V12.4458H1.94767V12.2407H1.87563V12.1367H1.80208V12.0029V12V11.8633H1.87563V11.7593H1.94767V11.5543H1.80203ZM1.58209 11.6225H1.72848V11.2807H1.58209V11.6225ZM0.414062 10.5941H0.560406V10.3207H0.414062V10.5941ZM2.75087 10.5941H2.89656V10.3207H2.75087V10.5941ZM0.414062 9.01593H0.560406V8.60287H0.414062V9.01593ZM1.58209 9.01593H1.72848V8.60287H1.58209V9.01593ZM2.75087 9.01593H2.89656V8.60287H2.75087V9.01593ZM0.998828 12.0059V11.997V11.8633H1.14372V11.6255H1.29086V11.349H1.51005V11.0251H1.58209V10.8676H1.65569H1.72848V11.0221H1.80203V11.3491H2.02192V11.4858V11.6255H2.16756V11.8633H2.31325V12V12.1367H2.16756V12.3804H2.02192V12.5171V12.6538H1.80203V12.9778H1.72848V13.1323H1.65569H1.58209V12.9778H1.51005V12.6538H1.29086V12.3803H1.14372V12.1366H0.998828V12.0059ZM2.16756 8.18971V8.53443H2.02052V8.87624H1.87563V9.2211H1.72848V9.49448V9.56287H1.58209V9.22106H1.4357V8.8762H1.29081V8.53438H1.14367V8.18966H0.998781V8.53438H0.852391V8.8762H0.706V9.22106H0.560359V9.49443V9.56282H0.414062V9.90754H0.560406V10.2523H0.706047V10.5941H0.852437V10.9359H0.998828V10.5941H1.14372V10.2523H1.29086V9.90754H1.14372V9.49438H1.29086V9.56277V9.77081H1.43575V10.3207H1.51009V10.6595L1.29091 10.6625V10.9359H1.14377V11.141H0.998875V11.4857H0.852484V11.141H0.706094V10.9359H0.560453V10.7308H0.414062V11.349H0.560406V11.6254H0.706047V11.8632H0.852437V12V12.0029V12.1367H0.706047V12.3804H0.560406V12.6539H0.414062V13.2721H0.560406V13.064H0.706047V12.859H0.852437V12.5172H0.998828V12.859H1.14372V13.064H1.29086V13.3404L1.51005 13.3434V13.6822H1.4357V14.2321H1.29081V14.4371V14.5085H1.14367V14.0924H1.29081V13.7506H1.14367V13.4088H0.998781V13.0639H0.852391V13.4088H0.706V13.7506H0.560359V14.0924H0.414062V14.4371H0.560406V14.5085V14.7789H0.707547V15.1238H0.852437V15.4685H0.998828V15.8103H1.14372V15.4685H1.29086V15.1238H1.43575V14.7789H1.58214V14.4371H1.72853V14.5085V14.7789H1.87567V15.1238H2.02202V15.4685H2.16766V15.8103H2.31334V15.4685H2.45898V15.1238H2.60533V14.7789H2.75092V14.4371H2.89656V14.0924H2.75087V13.7506H2.60528V13.4088H2.45894V13.0639H2.3133V13.4088H2.16761V13.7506H2.02056V14.0924H2.16761V14.4371V14.5085H2.02056V14.4371V14.2321H1.87567V13.6822H1.85481H1.80212V13.3404H1.85481H1.89423H1.94772H2.02202V13.064H2.16766V12.8589H2.31334V12.5171H2.45898V12.8589H2.60533V13.064H2.75172V13.272H2.89661V12.6539H2.75167V12.3804H2.60528V12.1367H2.45894V12.0029V12V11.8633H2.60528V11.6255H2.75167V11.3491H2.89661V10.7309H2.75167V10.936H2.60528V11.1411H2.45894V11.4858H2.3133V11.1411H2.16761V10.936H2.02197V10.6626H1.94767H1.89419H1.85477H1.80208V10.3207H1.85477H1.87563V9.77085H2.02052V9.56282V9.49443H2.16756V9.56282V9.90754H2.02052V10.2523H2.16756V10.5941H2.31325V10.9359H2.45889V10.5941H2.60523V10.2523H2.75083V9.90754H2.89661V9.56282H2.75092V9.22101H2.60533V8.87615H2.45898V8.53434H2.31334V8.18962H2.16756V8.18971ZM0.560406 7.8479H0.632547V7.71121H0.707547V7.8479H0.778844V7.98459H0.707547V8.12427H0.632547V7.98459H0.560406V7.8479ZM0.560406 7.57148H0.487562V7.77951H0.414062V8.05298H0.487562V8.26101H0.560406V8.46613H0.778844V8.26101H0.852391V8.05298H0.923781V7.77951H0.852391V7.57148H0.778844V7.3694H0.560406V7.57148ZM1.36361 7.8479H1.43566V7.71121H1.51V7.8479H1.58205V7.98459H1.51V8.12427H1.43566V7.98459H1.36361V7.8479ZM1.72848 7.8479H1.80203V7.71121H1.87558V7.8479H1.94762V7.98459H1.87558V8.12427H1.80203V7.98459H1.72848V7.8479ZM1.36361 7.57148H1.29077V7.77951H1.21722V8.05298H1.29077V8.26101H1.36361V8.46613H1.58205V8.26101H1.72844V8.46613H1.94762V8.26101H2.02192V8.05298H2.09331V7.77951H2.02192V7.57148H1.94762V7.3694H1.72844V7.57148H1.58205V7.3694H1.36361V7.57148ZM2.52944 7.84495H2.60228V7.71116H2.67583V7.84495H2.74937V7.98463H2.67583V8.12127H2.60228V7.98463H2.52944V7.84495ZM2.52944 7.36645V7.57148H2.45739V7.77951H2.38384V8.05298H2.45739V8.25801H2.52944V8.46313H2.74942V8.25801H2.82227V8.05298H2.89431V7.77951H2.82227V7.57148H2.74942V7.36645H2.52944ZM0.414062 7.22971H0.560406V6.81955H0.414062V7.22971ZM1.58209 7.22971H1.72848V6.81955H1.58209V7.22971ZM2.75087 7.22971H2.89656V6.81955H2.75087V7.22971ZM0.998828 6.26971H1.14372V5.92485H0.998828V6.26971ZM2.16756 6.26971H2.31325V5.92485H2.16756V6.26971ZM0.414062 5.23837H0.560406V4.82821H0.414062V5.23837ZM1.58209 5.23837H1.72848V4.82821H1.58209V5.23837ZM2.75087 5.23837H2.89656V4.82821H2.75087V5.23837ZM0.707547 5.9249H0.852437V5.58309H0.998828V5.23837H1.14372V5.58309H1.29086V5.9249H1.43575V6.26976H1.29086V6.61157H1.14372V6.95629H0.998828V6.61157H0.852437V6.26976H0.707547V5.9249ZM1.87563 5.9249H2.02197V5.58309H2.16761V5.23837H2.3133V5.58309H2.45894V5.9249H2.60528V6.26976H2.45894V6.61157H2.3133V6.95629H2.16761V6.61157H2.02197V6.26976H1.87563V5.9249ZM2.16756 4.55174V4.8966H2.02192V5.23841H1.87558V5.58313H1.72844V5.92495H1.58205V5.58313H1.43566V5.23841H1.29077V4.8966H1.14517V4.55174H0.998781V4.8966H0.852391V5.23841H0.7075V5.58313H0.560359V5.92495H0.414062V6.26981H0.560406V6.61162H0.707547V6.95634H0.852437V7.30105H0.998828V7.64287H1.14372V7.30105H1.29086V6.95634H1.43575V6.61162H1.58214V6.26981H1.72853V6.61162H1.87567V6.95634H2.02056V7.30105H2.16761V7.64287H2.3133V7.30105H2.45894V6.95634H2.60528V6.61162H2.75087V6.26981H2.89656V5.92495H2.75163V5.58313H2.60523V5.23841H2.45889V4.8966H2.31325V4.55174H2.16756Z" fill="#FF4B55"/>
</svg>
