<svg width="24" height="24" viewBox="0 0 24 24" fill="none" xmlns="http://www.w3.org/2000/svg">
<path d="M23.5861 19.8621H0.413812C0.185297 19.8621 0 19.6768 0 19.4483V4.55175C0 4.32324 0.185297 4.13794 0.413812 4.13794H23.5862C23.8147 4.13794 24 4.32324 24 4.55175V19.4483C24 19.6768 23.8147 19.8621 23.5861 19.8621Z" fill="#41479B"/>
<path d="M24 6.20673H0V7.0343H24V6.20673Z" fill="#F5F5F5"/>
<path d="M24 16.9655H0V17.793H24V16.9655Z" fill="#F5F5F5"/>
<path d="M24 7.03455H0V16.9655H24V7.03455Z" fill="#FF4B55"/>
<path d="M6.62061 15.3103C8.44884 15.3103 9.93091 13.8282 9.93091 12C9.93091 10.1718 8.44884 8.6897 6.62061 8.6897C4.79238 8.6897 3.3103 10.1718 3.3103 12C3.3103 13.8282 4.79238 15.3103 6.62061 15.3103Z" fill="#F5F5F5"/>
<path d="M6.7088 8.9862L7.37288 10.9774L9.4718 10.9937C9.56109 10.9943 9.59812 11.1083 9.52627 11.1613L7.83778 12.4082L8.47088 14.4094C8.49783 14.4945 8.40089 14.5649 8.32824 14.513L6.62068 13.2925L4.91307 14.513C4.84046 14.5649 4.74353 14.4945 4.77043 14.4093L5.40352 12.4082L3.71504 11.1613C3.64318 11.1083 3.68021 10.9943 3.76951 10.9936L5.86843 10.9773L6.53251 8.98615C6.56077 8.9015 6.68054 8.9015 6.7088 8.9862Z" fill="#FF4B55"/>
</svg>
