<svg width="24" height="24" viewBox="0 0 24 24" fill="none" xmlns="http://www.w3.org/2000/svg">
<g clip-path="url(#clip0_2058_8208)">
<path d="M8.00002 19.8619H0.413813C0.185297 19.8619 0 19.6766 0 19.4481V4.55161C0 4.32309 0.185297 4.13779 0.413813 4.13779H8.00002V19.8619Z" fill="#464655"/>
<path d="M16.0003 4.13799H8.00012V19.8622H16.0003V4.13799Z" fill="#FF4B55"/>
<path d="M23.5862 19.8619H16V4.13779H23.5862C23.8147 4.13779 24 4.32309 24 4.55161V19.4481C24 19.6767 23.8147 19.8619 23.5862 19.8619Z" fill="#73AF00"/>
<path d="M13.0798 12.8112H10.92L11.04 12.5712H12.9598L13.0798 12.8112Z" fill="#F5F5F5"/>
<path d="M13.0798 10.8913H10.92L11.04 11.1313H12.9598L13.0798 10.8913Z" fill="#F5F5F5"/>
<path d="M12.5999 11.0113H11.4L11.64 10.7714H12.3599L12.5999 11.0113Z" fill="#F5F5F5"/>
<path d="M11.4 12.2113H11.04V12.4513H11.4V12.2113Z" fill="#F5F5F5"/>
<path d="M11.4 11.8513H11.04V12.0913H11.4V11.8513Z" fill="#F5F5F5"/>
<path d="M11.4 11.2513H11.04V11.4913H11.4V11.2513Z" fill="#F5F5F5"/>
<path d="M11.4 11.6113H11.04V11.7313H11.4V11.6113Z" fill="#F5F5F5"/>
<path d="M12.9599 12.2113H12.6V12.4513H12.9599V12.2113Z" fill="#F5F5F5"/>
<path d="M12.9599 11.8513H12.6V12.0913H12.9599V11.8513Z" fill="#F5F5F5"/>
<path d="M12.9599 11.2513H12.6V11.4913H12.9599V11.2513Z" fill="#F5F5F5"/>
<path d="M12.9599 11.6113H12.6V11.7313H12.9599V11.6113Z" fill="#F5F5F5"/>
<path d="M11.4 10.2913H11.16V10.7712H11.4V10.2913Z" fill="#F5F5F5"/>
<path d="M11.4 10.1714H11.16V10.0514C11.16 9.98512 11.2138 9.9314 11.28 9.9314C11.3463 9.9314 11.4 9.98512 11.4 10.0514V10.1714Z" fill="#F5F5F5"/>
<path d="M12.84 10.2913H12.6V10.7712H12.84V10.2913Z" fill="#F5F5F5"/>
<path d="M12.8399 10.1714H12.5999V10.0514C12.5999 9.98512 12.6536 9.9314 12.7199 9.9314C12.7861 9.9314 12.8399 9.98512 12.8399 10.0514V10.1714Z" fill="#F5F5F5"/>
<path d="M12 11.2513C11.7349 11.2513 11.52 11.4662 11.52 11.7313V12.4512H12.4799V11.7313C12.4799 11.4662 12.2651 11.2513 12 11.2513Z" fill="#F5F5F5"/>
<path d="M11.2057 12.0072L10.5524 11.2451C10.5566 11.2327 10.5602 11.2201 10.5602 11.2064C10.5602 11.1401 10.5065 11.0864 10.4402 11.0864C10.3739 11.0864 10.3202 11.1401 10.3202 11.2064C10.3202 11.2726 10.3739 11.3264 10.4402 11.3264C10.4474 11.3264 10.4537 11.3235 10.4605 11.3223L10.5281 11.4012L10.2002 12.1663L10.5601 12.5263L10.871 11.8011L11.1146 12.0853L11.2057 12.0072ZM10.6219 12.2579L10.3347 11.9707L10.4643 11.6683L10.7515 11.9555L10.6219 12.2579Z" fill="#F5F5F5"/>
<path d="M12.8884 12.0852L13.1321 11.801L13.4429 12.5262L13.8028 12.1662L13.4749 11.4011L13.5425 11.3222C13.5494 11.3234 13.5556 11.3263 13.5628 11.3263C13.6291 11.3263 13.6828 11.2725 13.6828 11.2063C13.6828 11.14 13.6291 11.0863 13.5628 11.0863C13.4966 11.0863 13.4428 11.14 13.4428 11.2063C13.4428 11.22 13.4464 11.2327 13.4507 11.245L12.7974 12.0071L12.8884 12.0852ZM13.2515 11.9555L13.5387 11.6683L13.6683 11.9707L13.3811 12.2579L13.2515 11.9555Z" fill="#F5F5F5"/>
<path d="M12.1358 10.0723C12.0981 10.0612 12.0644 10.0406 12.0431 10.0076C12.0289 9.98554 12.0145 9.96047 12 9.93145C11.9855 9.96047 11.971 9.98554 11.9568 10.0076C11.9355 10.0407 11.9019 10.0612 11.8642 10.0723C11.6654 10.1309 11.52 10.3136 11.52 10.5314C11.52 10.573 11.527 10.6128 11.537 10.6514H12.463C12.4729 10.6128 12.4799 10.573 12.4799 10.5314C12.4799 10.3136 12.3346 10.1309 12.1358 10.0723Z" fill="#F5F5F5"/>
<path d="M9.25028 11.8372C9.24418 11.7626 9.24024 11.6874 9.24024 11.6113C9.24024 11.4571 9.25421 11.3055 9.27896 11.1568C9.31356 11.1808 9.34979 11.2071 9.38743 11.2367C9.36985 11.3597 9.3602 11.4847 9.3602 11.6113C9.3602 11.6999 9.36474 11.7877 9.37332 11.8741L9.62696 11.9503C9.61112 11.8392 9.60015 11.7266 9.60015 11.6113C9.60015 11.5539 9.60357 11.4972 9.60812 11.4407C9.74059 11.5876 9.84512 11.7651 9.84512 11.9612C9.84512 11.9662 10.2301 11.3913 9.53017 10.7564L9.52515 11.0263L9.12203 11.0221C9.0857 11.0217 9.05373 11.0475 9.0474 11.0833C9.01674 11.2557 9.00024 11.4321 9.00024 11.6113C9.00024 11.6622 9.0016 11.7128 9.00409 11.7632L9.25028 11.8372Z" fill="#F5F5F5"/>
<path d="M10.3149 9.42637C10.3673 9.38592 10.377 9.31059 10.3365 9.25809C10.2959 9.20559 10.2206 9.19612 10.1682 9.23653C9.62511 9.65592 9.25246 10.2321 9.09106 10.8775L9.33838 10.8807C9.49405 10.3095 9.8308 9.80029 10.3149 9.42637Z" fill="#F5F5F5"/>
<path d="M10.1542 9.72567C9.8932 9.98123 9.69567 10.282 9.56128 10.6087C9.63548 10.6697 9.69628 10.7313 9.74676 10.7926C9.8677 10.4595 10.0603 10.1536 10.3221 9.89723C10.3695 9.85083 10.3702 9.77489 10.3239 9.72759C10.2773 9.68011 10.2015 9.67926 10.1542 9.72567Z" fill="#F5F5F5"/>
<path d="M9.7372 13.1844C9.55926 12.9291 9.42328 12.6427 9.33886 12.3352L9.47836 12.3865C9.5655 12.6671 9.69773 12.9281 9.86704 13.1607L10.1319 13.1122C9.98236 12.9263 9.85945 12.7183 9.76968 12.4935L9.92625 12.5511C10.0156 12.7472 10.13 12.9276 10.2663 13.0876L10.5419 13.0372C10.4335 12.9265 10.3387 12.802 10.2571 12.6676L10.0974 12.3483C10.0481 12.2497 9.96032 12.1758 9.85471 12.1442L9.477 12.0307L9.38967 12.0045L9.26395 11.9666L9.01387 11.8915L8.88037 11.8514L8.96297 12.0992C8.98111 12.1537 9.01781 12.1991 9.06553 12.2289C9.14189 12.5915 9.2835 12.9302 9.47803 13.232L9.7372 13.1844Z" fill="#F5F5F5"/>
<path d="M14.4747 11.0263L14.4697 10.7564C13.7697 11.3913 14.1547 11.9662 14.1547 11.9612C14.1547 11.7651 14.2592 11.5876 14.3917 11.4407C14.3963 11.4972 14.3997 11.5539 14.3997 11.6113C14.3997 11.7267 14.3887 11.8393 14.3729 11.9503L14.6265 11.8741C14.6351 11.7877 14.6396 11.7 14.6396 11.6113C14.6396 11.4847 14.63 11.3597 14.6123 11.2367C14.65 11.2072 14.6863 11.1808 14.7208 11.1568C14.7456 11.3055 14.7595 11.4572 14.7595 11.6113C14.7595 11.6874 14.7556 11.7626 14.7495 11.8372L14.9956 11.7632C14.9982 11.7128 14.9995 11.6622 14.9995 11.6113C14.9995 11.4321 14.9829 11.2557 14.9523 11.0833C14.946 11.0474 14.914 11.0217 14.8777 11.0221L14.4747 11.0263Z" fill="#F5F5F5"/>
<path d="M14.6616 10.8808L14.9089 10.8776C14.7474 10.2322 14.3748 9.65597 13.8318 9.23658C13.7793 9.19613 13.7041 9.20564 13.6635 9.25814C13.623 9.31064 13.6326 9.38602 13.6851 9.42642C14.1691 9.8003 14.5059 10.3095 14.6616 10.8808Z" fill="#F5F5F5"/>
<path d="M14.4386 10.6087C14.3042 10.282 14.1067 9.98123 13.8458 9.72567C13.7984 9.67926 13.7226 9.6801 13.6761 9.72754C13.6297 9.77489 13.6306 9.85082 13.6779 9.89718C13.9397 10.1535 14.1323 10.4594 14.2532 10.7925C14.3036 10.7313 14.3644 10.6697 14.4386 10.6087Z" fill="#F5F5F5"/>
<path d="M14.9862 11.8913L14.7361 11.9665L14.6104 12.0043L14.523 12.0305L14.1453 12.144C14.0397 12.1757 13.9519 12.2496 13.9026 12.3482L13.7429 12.6675C13.6613 12.8018 13.5665 12.9264 13.4581 13.037L13.7337 13.0875C13.8701 12.9275 13.9845 12.7471 14.0738 12.5509L14.2303 12.4934C14.1405 12.7181 14.0176 12.9262 13.8681 13.1121L14.133 13.1605C14.3024 12.9279 14.4345 12.667 14.5217 12.3863L14.6612 12.3351C14.5768 12.6426 14.4408 12.929 14.2628 13.1842L14.522 13.2317C14.7165 12.9299 14.8581 12.5911 14.9345 12.2286C14.9822 12.1987 15.0189 12.1533 15.0371 12.0989L15.1197 11.8511L14.9862 11.8913Z" fill="#F5F5F5"/>
<path d="M13.2505 13.2179L13.2443 13.2234C12.8952 13.4929 12.4617 13.651 12.0001 13.651C11.5384 13.651 11.1049 13.4929 10.7558 13.2234L10.7496 13.2179C10.7043 13.1681 10.6362 13.1458 10.5702 13.1591L9.36035 13.4111L9.6288 13.6464C9.70062 13.7093 9.79287 13.7387 9.8846 13.7333C10.1006 13.9484 10.3488 14.1313 10.6216 14.2734L10.543 14.4185C10.9765 14.6542 11.4729 14.7882 12.0001 14.7882C12.5272 14.7882 13.0236 14.6542 13.4571 14.4185L13.3785 14.2734C13.6514 14.1313 13.8995 13.9484 14.1155 13.7333C14.2073 13.7387 14.2996 13.7093 14.3714 13.6464L14.6398 13.4111L13.43 13.1591C13.3639 13.1458 13.2958 13.1682 13.2505 13.2179ZM10.7363 14.0616C10.5188 13.9484 10.3196 13.8055 10.1404 13.6411L10.2569 13.5855C10.4196 13.7295 10.5986 13.8556 10.7931 13.9566L10.7363 14.0616ZM13.8595 13.6412C13.6804 13.8055 13.4812 13.9484 13.2637 14.0617L13.2068 13.9567C13.4013 13.8558 13.5802 13.7297 13.743 13.5857L13.8595 13.6412ZM12 14.011C11.4285 14.011 10.9048 13.8082 10.4925 13.4732L10.6122 13.4161C11.0015 13.7159 11.4853 13.891 11.9999 13.891C12.5145 13.891 12.9983 13.7159 13.3875 13.4161L13.5072 13.4732C13.0952 13.8083 12.5715 14.011 12 14.011Z" fill="#F5F5F5"/>
<path d="M10.6833 13.0479C10.7349 13.0915 10.7883 13.1327 10.844 13.1711H13.156C13.2116 13.1327 13.2651 13.0915 13.3166 13.0479L13.1999 12.9312H10.8002L10.6833 13.0479Z" fill="#F5F5F5"/>
</g>
<defs>
<clipPath id="clip0_2058_8208">
<rect width="24" height="24" fill="white"/>
</clipPath>
</defs>
</svg>
