<svg width="24" height="24" viewBox="0 0 24 24" fill="none" xmlns="http://www.w3.org/2000/svg">
<path d="M24 7.44834H0V4.55175C0 4.32324 0.185297 4.13794 0.413812 4.13794H23.5862C23.8147 4.13794 24 4.32324 24 4.55175L24 7.44834Z" fill="#FF4B55"/>
<path d="M23.5861 19.8621H0.413812C0.185297 19.8621 0 19.6768 0 19.4483V16.5518H24V19.4483C24 19.6769 23.8147 19.8621 23.5861 19.8621Z" fill="#FF4B55"/>
<path d="M24 7.44849H0V16.5521H24V7.44849Z" fill="#41479B"/>
<path d="M12 15.3103C13.8282 15.3103 15.3103 13.8282 15.3103 12C15.3103 10.1718 13.8282 8.6897 12 8.6897C10.1718 8.6897 8.6897 10.1718 8.6897 12C8.6897 13.8282 10.1718 15.3103 12 15.3103Z" fill="#F5F5F5"/>
</svg>
