<svg width="24" height="24" viewBox="0 0 24 24" fill="none" xmlns="http://www.w3.org/2000/svg">
<path d="M24 12H0V4.55169C0 4.32317 0.185297 4.13788 0.413812 4.13788H23.5862C23.8147 4.13788 24 4.32317 24 4.55169L24 12Z" fill="#4173CD"/>
<path d="M0 12H24V19.4483C24 19.6768 23.8147 19.8621 23.5861 19.8621H0.413812C0.185297 19.8621 0 19.6768 0 19.4483V12Z" fill="#4173CD"/>
<path d="M24 12H0V15.9309H24V12Z" fill="#FFE15A"/>
<path d="M0.413812 19.8621H23.5862C23.8147 19.8621 24 19.6768 24 19.4482V15.931H0V19.4482C0 19.6768 0.185297 19.8621 0.413812 19.8621Z" fill="#73AF00"/>
<path d="M21.4786 8.34937L23.1723 8.06896L21.4786 7.78856L22.9361 6.88134L21.264 7.27045L22.2634 5.87451L20.8675 6.87393L21.2566 5.20181L20.3494 6.65934L20.0689 4.96552L19.7885 6.65929L18.8813 5.20176L19.2704 6.87389L17.8745 5.87447L18.8739 7.2704L17.2017 6.88129L18.6593 7.78851L16.9655 8.06896L18.6592 8.34937L17.2017 9.25659L18.8738 8.86748L17.8744 10.2634L19.2703 9.26399L18.8812 10.9361L19.7884 9.47858L20.0689 11.1724L20.3493 9.47863L21.2565 10.9362L20.8674 9.26404L22.2634 10.2635L21.2639 8.86752L22.9361 9.25663L21.4786 8.34937ZM20.0689 9.10344C19.4975 9.10344 19.0344 8.64032 19.0344 8.06896C19.0344 7.4976 19.4975 7.03448 20.0689 7.03448C20.6403 7.03448 21.1034 7.4976 21.1034 8.06896C21.1034 8.64032 20.6403 9.10344 20.0689 9.10344Z" fill="#FFE15A"/>
<path d="M20.069 8.84496C20.4975 8.84496 20.8448 8.49759 20.8448 8.06909C20.8448 7.64058 20.4975 7.29321 20.069 7.29321C19.6405 7.29321 19.2931 7.64058 19.2931 8.06909C19.2931 8.49759 19.6405 8.84496 20.069 8.84496Z" fill="#FFE15A"/>
</svg>
