<svg width="24" height="24" viewBox="0 0 24 24" fill="none" xmlns="http://www.w3.org/2000/svg">
<path d="M24 12H0V4.55169C0 4.32317 0.185297 4.13788 0.413812 4.13788H23.5862C23.8147 4.13788 24 4.32317 24 4.55169L24 12Z" fill="#F5F5F5"/>
<path d="M0 12H24V19.4483C24 19.6768 23.8147 19.8621 23.5861 19.8621H0.413812C0.185297 19.8621 0 19.6768 0 19.4483V12Z" fill="#82AFFF"/>
<path d="M12.0385 15.374C11.9684 15.371 10.3139 15.2864 9.48354 14.1487C8.9996 13.4858 8.90304 12.6041 9.19652 11.5281L9.31507 11.5604C9.03204 12.5984 9.12195 13.4446 9.58245 14.0758C10.3774 15.1656 12.0272 15.2505 12.0438 15.2512L12.0385 15.374Z" fill="#B46446"/>
<path d="M9.19526 11.051C9.1137 11.2635 9.13231 11.486 9.22676 11.6547C9.40985 11.5926 9.57256 11.4397 9.65417 11.2272C9.73573 11.0147 9.71712 10.7922 9.62267 10.6235C9.43953 10.6856 9.27682 10.8385 9.19526 11.051Z" fill="#41AA5A"/>
<path d="M10.2316 13.9886C10.141 14.138 10.1173 14.3383 10.1844 14.5327C10.247 14.7144 10.3763 14.8484 10.5261 14.9161C10.3806 14.8397 10.1954 14.8207 10.0138 14.8833C9.81932 14.9504 9.67625 15.0925 9.61438 15.2559C9.76377 15.3464 9.96402 15.3702 10.1585 15.3031C10.3529 15.2361 10.496 15.0939 10.5579 14.9305L10.5577 14.9304C10.6475 14.7812 10.671 14.5817 10.6042 14.388C10.5371 14.1935 10.395 14.0504 10.2316 13.9886Z" fill="#41AA5A"/>
<path d="M9.87732 13.4464C9.73764 13.5512 9.64089 13.7282 9.63062 13.9336C9.62101 14.1256 9.691 14.2981 9.80476 14.4167C9.69812 14.2916 9.53345 14.2049 9.34164 14.1953C9.13623 14.185 8.95047 14.2636 8.83215 14.3921C8.93701 14.5318 9.11401 14.6285 9.31937 14.6388C9.52478 14.6491 9.71054 14.5705 9.82885 14.442L9.82876 14.4419C9.96765 14.3368 10.0638 14.1605 10.0742 13.9558C10.0844 13.7504 10.0059 13.5646 9.87732 13.4464Z" fill="#41AA5A"/>
<path d="M9.72412 12.835C9.55518 12.8794 9.39876 13.0068 9.31176 13.1931C9.23038 13.3672 9.2301 13.5534 9.29071 13.7062C9.23915 13.5501 9.11943 13.4076 8.94534 13.3263C8.75896 13.2393 8.55731 13.2419 8.39929 13.3163C8.44368 13.4852 8.57109 13.6416 8.75737 13.7286C8.94374 13.8157 9.1454 13.8131 9.30342 13.7387L9.30332 13.7385C9.47165 13.6937 9.62727 13.5667 9.71399 13.381C9.80113 13.1948 9.79856 12.993 9.72412 12.835Z" fill="#41AA5A"/>
<path d="M9.81099 12.2284C9.63713 12.2111 9.44616 12.276 9.29968 12.4204C9.16276 12.5553 9.09755 12.7297 9.10116 12.894C9.10721 12.7298 9.04463 12.5545 8.90977 12.4176C8.7654 12.2711 8.57546 12.2033 8.40141 12.218C8.38412 12.3918 8.44904 12.5827 8.59341 12.7293C8.73779 12.8759 8.92773 12.9436 9.10177 12.9289C9.10177 12.9289 9.10177 12.9288 9.10177 12.9286C9.27516 12.9453 9.46529 12.8805 9.6113 12.7367C9.75788 12.5924 9.82566 12.4024 9.81099 12.2284Z" fill="#41AA5A"/>
<path d="M9.93392 11.6509C9.76536 11.6051 9.56628 11.6376 9.39791 11.7557C9.24055 11.866 9.14741 12.0273 9.12378 12.19C9.15692 12.029 9.1242 11.8458 9.01391 11.6885C8.89583 11.5201 8.71972 11.4218 8.54558 11.4075C8.49974 11.576 8.53222 11.7751 8.6503 11.9435C8.76838 12.1119 8.94449 12.2102 9.11863 12.2245C9.11863 12.2244 9.11863 12.2244 9.11863 12.2244C9.28681 12.2694 9.48509 12.237 9.65291 12.1193C9.82128 12.0011 9.91958 11.825 9.93392 11.6509Z" fill="#41AA5A"/>
<path d="M9.983 14.9644C10.0537 14.9644 10.111 14.9071 10.111 14.8364C10.111 14.7657 10.0537 14.7084 9.983 14.7084C9.9123 14.7084 9.85498 14.7657 9.85498 14.8364C9.85498 14.9071 9.9123 14.9644 9.983 14.9644Z" fill="#FFE15A"/>
<path d="M10.5713 15.0361C10.642 15.0361 10.6993 14.9788 10.6993 14.9081C10.6993 14.8374 10.642 14.7801 10.5713 14.7801C10.5006 14.7801 10.4432 14.8374 10.4432 14.9081C10.4432 14.9788 10.5006 15.0361 10.5713 15.0361Z" fill="#FFE15A"/>
<path d="M9.64498 13.9969C9.71568 13.9969 9.773 13.9396 9.773 13.8689C9.773 13.7982 9.71568 13.7409 9.64498 13.7409C9.57428 13.7409 9.51697 13.7982 9.51697 13.8689C9.51697 13.9396 9.57428 13.9969 9.64498 13.9969Z" fill="#FFE15A"/>
<path d="M8.83077 13.0341C8.90148 13.0341 8.95879 12.9768 8.95879 12.9061C8.95879 12.8354 8.90148 12.7781 8.83077 12.7781C8.76007 12.7781 8.70276 12.8354 8.70276 12.9061C8.70276 12.9768 8.76007 13.0341 8.83077 13.0341Z" fill="#FFE15A"/>
<path d="M9.39938 12.3826C9.47008 12.3826 9.52739 12.3252 9.52739 12.2545C9.52739 12.1838 9.47008 12.1265 9.39938 12.1265C9.32868 12.1265 9.27136 12.1838 9.27136 12.2545C9.27136 12.3252 9.32868 12.3826 9.39938 12.3826Z" fill="#FFE15A"/>
<path d="M9.1838 11.7141C9.2545 11.7141 9.31182 11.6568 9.31182 11.5861C9.31182 11.5154 9.2545 11.4581 9.1838 11.4581C9.1131 11.4581 9.05579 11.5154 9.05579 11.5861C9.05579 11.6568 9.1131 11.7141 9.1838 11.7141Z" fill="#FFE15A"/>
<path d="M12.0437 15.3741L12.0383 15.2511C12.055 15.2505 13.7048 15.1656 14.4997 14.0758C14.9602 13.4446 15.0501 12.5983 14.7671 11.5604L14.8857 11.528C15.1791 12.604 15.0825 13.4858 14.5986 14.1487C13.7683 15.2864 12.1138 15.3711 12.0437 15.3741Z" fill="#B46446"/>
<path d="M14.8868 11.051C14.9684 11.2635 14.9498 11.486 14.8553 11.6547C14.6722 11.5926 14.5095 11.4397 14.4279 11.2272C14.3464 11.0147 14.365 10.7922 14.4594 10.6235C14.6425 10.6856 14.8052 10.8385 14.8868 11.051Z" fill="#41AA5A"/>
<path d="M13.8504 13.9886C13.9409 14.138 13.9647 14.3383 13.8976 14.5327C13.835 14.7144 13.7057 14.8484 13.5559 14.9161C13.7014 14.8397 13.8865 14.8207 14.0682 14.8833C14.2626 14.9504 14.4057 15.0925 14.4676 15.2559C14.3182 15.3464 14.1179 15.3702 13.9235 15.3031C13.729 15.2361 13.586 15.0939 13.5241 14.9305L13.5242 14.9305C13.4346 14.7812 13.411 14.5817 13.4778 14.388C13.5449 14.1935 13.687 14.0504 13.8504 13.9886Z" fill="#41AA5A"/>
<path d="M14.2047 13.4464C14.3444 13.5512 14.4412 13.7282 14.4514 13.9336C14.461 14.1256 14.3911 14.2981 14.2773 14.4167C14.3839 14.2916 14.5486 14.2049 14.7404 14.1953C14.9458 14.185 15.1316 14.2636 15.2499 14.3921C15.145 14.5318 14.968 14.6285 14.7626 14.6388C14.5572 14.6491 14.3715 14.5705 14.2532 14.442L14.2532 14.4419C14.1144 14.3368 14.0181 14.1605 14.0079 13.9558C13.9976 13.7504 14.0762 13.5646 14.2047 13.4464Z" fill="#41AA5A"/>
<path d="M14.3579 12.835C14.5269 12.8794 14.6833 13.0068 14.7703 13.1931C14.8517 13.3672 14.852 13.5534 14.7914 13.7062C14.8429 13.5501 14.9626 13.4076 15.1367 13.3263C15.3231 13.2393 15.5248 13.2419 15.6828 13.3163C15.6384 13.4852 15.511 13.6416 15.3247 13.7286C15.1383 13.8157 14.9367 13.8131 14.7787 13.7387L14.7787 13.7385C14.6104 13.6937 14.4548 13.5667 14.3681 13.381C14.2809 13.1948 14.2835 12.993 14.3579 12.835Z" fill="#41AA5A"/>
<path d="M14.271 12.2284C14.4449 12.2111 14.6358 12.276 14.7823 12.4204C14.9192 12.5553 14.9844 12.7297 14.9808 12.894C14.9748 12.7298 15.0374 12.5545 15.1722 12.4176C15.3166 12.2711 15.5065 12.2033 15.6806 12.218C15.6979 12.3918 15.633 12.5827 15.4886 12.7293C15.3442 12.8759 15.1543 12.9436 14.9802 12.9289C14.9802 12.9289 14.9802 12.9288 14.9802 12.9286C14.8068 12.9453 14.6167 12.8805 14.4707 12.7367C14.3241 12.5924 14.2563 12.4024 14.271 12.2284Z" fill="#41AA5A"/>
<path d="M14.1482 11.6509C14.3168 11.6051 14.5158 11.6376 14.6842 11.7557C14.8416 11.866 14.9347 12.0273 14.9583 12.19C14.9252 12.029 14.9579 11.8458 15.0682 11.6885C15.1863 11.5201 15.3624 11.4218 15.5365 11.4075C15.5824 11.576 15.5499 11.7751 15.4318 11.9435C15.3137 12.1119 15.1376 12.2102 14.9635 12.2245C14.9635 12.2244 14.9635 12.2244 14.9635 12.2244C14.7953 12.2694 14.597 12.237 14.4292 12.1193C14.2608 12.0011 14.1625 11.825 14.1482 11.6509Z" fill="#41AA5A"/>
<path d="M14.0996 14.9644C14.1703 14.9644 14.2276 14.9071 14.2276 14.8364C14.2276 14.7657 14.1703 14.7084 14.0996 14.7084C14.0289 14.7084 13.9716 14.7657 13.9716 14.8364C13.9716 14.9071 14.0289 14.9644 14.0996 14.9644Z" fill="#FFE15A"/>
<path d="M13.5103 15.0361C13.581 15.0361 13.6384 14.9788 13.6384 14.9081C13.6384 14.8374 13.581 14.7801 13.5103 14.7801C13.4396 14.7801 13.3823 14.8374 13.3823 14.9081C13.3823 14.9788 13.4396 15.0361 13.5103 15.0361Z" fill="#FFE15A"/>
<path d="M14.4371 13.9969C14.5078 13.9969 14.5651 13.9396 14.5651 13.8689C14.5651 13.7982 14.5078 13.7409 14.4371 13.7409C14.3664 13.7409 14.3091 13.7982 14.3091 13.8689C14.3091 13.9396 14.3664 13.9969 14.4371 13.9969Z" fill="#FFE15A"/>
<path d="M15.2513 13.0341C15.322 13.0341 15.3793 12.9768 15.3793 12.9061C15.3793 12.8354 15.322 12.7781 15.2513 12.7781C15.1806 12.7781 15.1233 12.8354 15.1233 12.9061C15.1233 12.9768 15.1806 13.0341 15.2513 13.0341Z" fill="#FFE15A"/>
<path d="M14.6832 12.3826C14.7539 12.3826 14.8112 12.3252 14.8112 12.2545C14.8112 12.1838 14.7539 12.1265 14.6832 12.1265C14.6125 12.1265 14.5552 12.1838 14.5552 12.2545C14.5552 12.3252 14.6125 12.3826 14.6832 12.3826Z" fill="#FFE15A"/>
<path d="M14.8988 11.7141C14.9695 11.7141 15.0268 11.6568 15.0268 11.5861C15.0268 11.5154 14.9695 11.4581 14.8988 11.4581C14.8281 11.4581 14.7708 11.5154 14.7708 11.5861C14.7708 11.6568 14.8281 11.7141 14.8988 11.7141Z" fill="#FFE15A"/>
<path d="M12.7615 11.0739H11.2932C10.8361 11.0739 10.4656 11.4444 10.4656 11.9015V13.195C10.4656 13.6521 10.8361 14.0226 11.2932 14.0226H12.7615C13.2185 14.0226 13.5891 13.6521 13.5891 13.195V11.9015C13.5891 11.4444 13.2186 11.0739 12.7615 11.0739Z" fill="#8CD7FF"/>
<path d="M12.2696 12.1996V12.3635H12.1059V12.1996H11.9797V12.3635H11.8158V12.1996H11.7134V12.5273L11.7953 12.6311V13.8381H12.2868V12.6311L12.3687 12.5273V12.1996H12.2696Z" fill="#F5F5F5"/>
<path d="M12.0649 11.6808C12.146 11.6415 12.1674 11.8071 12.1674 11.8071C12.338 11.7218 12.2935 11.5833 12.2527 11.517C12.1981 11.4282 11.9797 11.3941 11.8875 11.5785C11.7954 11.7628 12.0445 12.128 12.0445 12.128C12.0581 12.0154 11.9591 11.732 12.0649 11.6808Z" fill="#F5F5F5"/>
<path d="M13.1119 12.5051V12.669H12.948V12.5051H12.8219V12.669H12.658V12.5051H12.5555V12.8329L12.6375 12.9366V14.1435H13.129V12.9366L13.2109 12.8329V12.5051H13.1119Z" fill="#F5F5F5"/>
<path d="M12.9071 11.9863C12.9881 11.947 13.0095 12.1126 13.0095 12.1126C13.1802 12.0273 13.1357 11.8887 13.0949 11.8225C13.0403 11.7337 12.8218 11.6996 12.7297 11.884C12.6375 12.0683 12.8867 12.4335 12.8867 12.4335C12.9003 12.3208 12.8014 12.0375 12.9071 11.9863Z" fill="#F5F5F5"/>
<path d="M11.4275 12.5051V12.669H11.2636V12.5051H11.1374V12.669H10.9736V12.5051H10.8711V12.8329L10.953 12.9366V14.1435H11.4446V12.9366L11.5265 12.8329V12.5051H11.4275Z" fill="#F5F5F5"/>
<path d="M11.2227 11.9863C11.3037 11.947 11.3251 12.1126 11.3251 12.1126C11.4957 12.0273 11.4512 11.8887 11.4104 11.8225C11.3558 11.7337 11.1374 11.6996 11.0452 11.884C10.9531 12.0683 11.2023 12.4335 11.2023 12.4335C11.2159 12.3208 11.1169 12.0375 11.2227 11.9863Z" fill="#F5F5F5"/>
<path d="M13.3853 13.9254C13.2759 13.8713 13.1544 13.838 13.0241 13.838C12.8845 13.838 12.755 13.8762 12.6399 13.9379C12.4904 13.7767 12.2784 13.6742 12.0411 13.6742C11.8037 13.6742 11.5919 13.7767 11.4422 13.9379C11.3271 13.8762 11.1976 13.838 11.058 13.838C10.9276 13.838 10.8061 13.8713 10.6968 13.9254C10.9307 14.3544 11.3786 15.0476 12.0411 15.3126C12.7035 15.0476 13.1514 14.3544 13.3853 13.9254Z" fill="#6EC86E"/>
<path d="M12.0336 8.43499L12.041 8.43134C12.041 8.43134 12.0385 8.43194 12.0336 8.43499Z" fill="#FFE15A"/>
<path d="M12.041 8.43134L12.0484 8.43499C12.0435 8.43194 12.041 8.43134 12.041 8.43134Z" fill="#FFE15A"/>
<path d="M13.6129 9.1328C13.5668 8.8666 13.2238 8.82047 12.8295 8.79488C12.4353 8.76929 12.2663 8.54401 12.2663 8.54401H11.8157C11.8157 8.54401 11.6468 8.76929 11.2525 8.79488C10.8583 8.82047 10.5152 8.86655 10.4692 9.1328C10.4231 9.399 10.761 9.81886 10.761 9.81886L11.058 9.57825C11.058 9.57825 10.6944 9.23011 10.8736 9.1021C11.0506 8.97568 11.5665 9.06324 11.7963 8.75977C11.7866 8.82319 11.79 8.90147 11.8293 8.99794C11.9044 9.1823 11.8771 9.41438 11.8771 9.41438H12.041H12.2048C12.2048 9.41438 12.1775 9.18225 12.2527 8.99794C12.292 8.90147 12.2955 8.8231 12.2857 8.75977C12.5155 9.06324 13.0314 8.97568 13.2083 9.1021C13.3875 9.23011 13.024 9.57825 13.024 9.57825L13.3209 9.81886C13.321 9.81886 13.659 9.399 13.6129 9.1328Z" fill="#FFE15A"/>
<path d="M12.2083 7.6224H12.1229V7.53024C12.1229 7.48496 12.0863 7.4483 12.041 7.4483C11.9957 7.4483 11.959 7.48496 11.959 7.53024V7.6224H11.8703C11.825 7.6224 11.7883 7.65905 11.7883 7.70433C11.7883 7.74961 11.825 7.78627 11.8703 7.78627H11.959V8.02177C11.959 8.06705 11.9957 8.10371 12.041 8.10371C12.0863 8.10371 12.1229 8.06705 12.1229 8.02177V7.78627H12.2083C12.2536 7.78627 12.2902 7.74961 12.2902 7.70433C12.2902 7.65905 12.2535 7.6224 12.2083 7.6224Z" fill="#FFE15A"/>
<path d="M12.0407 8.26763C12.1312 8.26763 12.2046 8.19426 12.2046 8.10376C12.2046 8.01325 12.1312 7.93988 12.0407 7.93988C11.9502 7.93988 11.8768 8.01325 11.8768 8.10376C11.8768 8.19426 11.9502 8.26763 12.0407 8.26763Z" fill="#FFF0E1"/>
<path d="M10.8669 11.4009C10.9329 11.4338 11.0099 11.4623 11.0887 11.4623C11.3602 11.4623 11.4932 11.3088 11.4932 11.0374C11.4932 10.7659 11.3294 10.5612 11.058 10.5612C11.058 10.5612 11.0274 10.5617 10.9784 10.5692C10.9678 10.5709 10.9574 10.5725 10.9471 10.5749C10.6861 10.6246 10.0412 10.8651 9.91113 12.0358C9.7293 13.6723 11.058 15.1487 12.0411 15.4764V15.3125C12.0411 15.3125 9.71998 13.5376 10.8669 11.4009Z" fill="#FFC75A"/>
<path d="M11.058 10.725L12.041 11.0527L11.058 11.3804V10.725Z" fill="#FFC75A"/>
<path d="M13.0242 11.3805L12.0411 11.0528L13.0242 10.7251V11.3805Z" fill="#FFE15A"/>
<path d="M10.074 12.0539C10.1913 10.9975 10.7451 10.7803 10.9836 10.7346C10.9888 10.7335 10.9942 10.7327 11.0032 10.7312C11.0332 10.7266 11.0538 10.7254 11.0603 10.7251C11.2399 10.7263 11.3584 10.8616 11.3584 11.0255C11.3584 11.2061 11.2526 11.2746 11.1468 11.278C11.1468 11.278 11.2322 11.1005 11.058 11.0527C10.9406 11.0204 10.7918 11.1142 10.8055 11.2848C10.8151 11.4048 10.9289 11.5203 11.058 11.5203C11.3295 11.5203 11.5496 11.3241 11.5496 11.0527C11.5496 10.7812 11.3295 10.5612 11.058 10.5612C11.058 10.5612 11.0274 10.5617 10.9784 10.5692C10.9678 10.5709 10.9574 10.5725 10.9471 10.5748C10.6861 10.6246 10.0412 10.865 9.91113 12.0357C9.7293 13.6722 11.058 15.1487 12.0411 15.4763V15.3124C12.0411 15.3124 11.6929 15.1384 11.4549 14.9693C10.7195 14.4469 9.94122 13.2488 10.074 12.0539Z" fill="#FFE15A"/>
<path d="M13.2152 11.4009C13.1492 11.4338 13.0722 11.4623 12.9934 11.4623C12.7219 11.4623 12.5889 11.3088 12.5889 11.0374C12.5889 10.7659 12.7527 10.5612 13.0241 10.5612C13.0241 10.5612 13.0547 10.5617 13.1037 10.5692C13.1143 10.5709 13.1247 10.5725 13.135 10.5749C13.396 10.6246 14.0409 10.8651 14.171 12.0358C14.3528 13.6723 13.0241 15.1487 12.041 15.4764V15.3125C12.041 15.3125 14.3621 13.5376 13.2152 11.4009Z" fill="#FFC75A"/>
<path d="M13.024 10.725L12.041 11.0527L13.024 11.3804V10.725Z" fill="#FFC75A"/>
<path d="M14.008 12.0539C13.8906 10.9975 13.3369 10.7803 13.0983 10.7346C13.0931 10.7335 13.0878 10.7327 13.0788 10.7312C13.0488 10.7266 13.0281 10.7254 13.0217 10.7251C12.842 10.7263 12.7236 10.8616 12.7236 11.0255C12.7236 11.2061 12.8294 11.2746 12.9352 11.278C12.9352 11.278 12.8498 11.1005 13.024 11.0527C13.1414 11.0204 13.2902 11.1142 13.2765 11.2848C13.2669 11.4048 13.153 11.5203 13.024 11.5203C12.7525 11.5203 12.5324 11.3241 12.5324 11.0527C12.5324 10.7812 12.7525 10.5612 13.024 10.5612C13.024 10.5612 13.0546 10.5617 13.1036 10.5692C13.1141 10.5709 13.1246 10.5725 13.1349 10.5748C13.3959 10.6246 14.0408 10.865 14.1708 12.0357C14.3527 13.6722 13.024 15.1487 12.0409 15.4763V15.3124C12.0409 15.3124 12.389 15.1384 12.6271 14.9693C13.3625 14.4469 14.1408 13.2488 14.008 12.0539Z" fill="#FFE15A"/>
<path d="M12.0407 11.217C12.1312 11.217 12.2046 11.1436 12.2046 11.0531C12.2046 10.9626 12.1312 10.8892 12.0407 10.8892C11.9502 10.8892 11.8768 10.9626 11.8768 11.0531C11.8768 11.1436 11.9502 11.217 12.0407 11.217Z" fill="#FFE15A"/>
<path d="M13.211 9.73693C13.2545 9.62429 13.1956 9.47326 13.1956 9.47326C13.0446 9.46815 12.9396 9.57821 12.9396 9.57821C12.9524 9.44256 12.8935 9.31965 12.8935 9.31965C12.699 9.34267 12.635 9.45793 12.635 9.45793C12.6248 9.24545 12.4967 9.1584 12.4967 9.1584C12.3277 9.20959 12.2766 9.3939 12.2766 9.3939C12.251 9.184 12.0411 9.08673 12.0411 9.08673C12.0411 9.08673 11.8312 9.18404 11.8056 9.3939C11.8056 9.3939 11.7544 9.20954 11.5854 9.1584C11.5854 9.1584 11.4574 9.24545 11.4472 9.45793C11.4472 9.45793 11.3832 9.34276 11.1886 9.31965C11.1886 9.31965 11.1297 9.44256 11.1425 9.57821C11.1425 9.57821 11.0376 9.46815 10.8865 9.47326C10.8865 9.47326 10.8277 9.62429 10.8712 9.73693C10.8712 9.73693 10.6997 9.68321 10.5588 9.76506C10.5588 9.76506 10.8169 9.8649 10.9029 9.98776H13.1792C13.2652 9.86485 13.5233 9.76506 13.5233 9.76506C13.3825 9.68317 13.211 9.73693 13.211 9.73693Z" fill="#FFC75A"/>
<path d="M13.1791 9.98784C13.1791 10.0615 13.0069 10.2894 13.0069 10.2894C13.0069 10.2894 12.4484 10.3671 12.041 10.3671C11.6309 10.3671 11.0712 10.2873 11.0712 10.2873C11.0712 10.2873 10.9028 10.0606 10.9028 9.98774C10.9028 9.77821 11.4124 9.60834 12.041 9.60834C12.6695 9.60838 13.1791 9.77831 13.1791 9.98784Z" fill="#FFE15A"/>
<path d="M12.0408 10.5614C12.5838 10.5614 13.0241 10.4147 13.0241 10.2337C13.0241 10.0528 12.5838 9.90607 12.0408 9.90607C11.4977 9.90607 11.0575 10.0528 11.0575 10.2337C11.0575 10.4147 11.4977 10.5614 12.0408 10.5614Z" fill="#FFC75A"/>
<path d="M12.2817 8.41599C12.2817 8.30845 12.2015 8.17191 12.0411 8.26749C11.8807 8.17191 11.8005 8.30845 11.8005 8.41599C11.8005 8.52352 11.6776 8.53889 11.6622 8.52863C11.6622 8.52863 11.7647 8.66175 11.8824 8.5747C11.8824 8.5747 11.9455 8.66686 12.0411 8.66686C12.1367 8.66686 12.1998 8.5747 12.1998 8.5747C12.3176 8.66175 12.42 8.52863 12.42 8.52863C12.4046 8.53885 12.2817 8.52347 12.2817 8.41599Z" fill="#FFC75A"/>
<path d="M11.7133 16.3571C11.7041 16.3571 11.6947 16.355 11.6859 16.3505C11.6555 16.3355 11.6432 16.2986 11.6584 16.2681L11.986 15.6128C12.0012 15.5827 12.0381 15.5701 12.0684 15.5854C12.0988 15.6004 12.1111 15.6374 12.0959 15.6678L11.7683 16.3232C11.7575 16.3446 11.7358 16.3571 11.7133 16.3571Z" fill="#B46446"/>
<path d="M12.3688 16.3571C12.3463 16.3571 12.3246 16.3446 12.3138 16.3232L11.9861 15.6678C11.9709 15.6374 11.9832 15.6004 12.0136 15.5854C12.0439 15.5699 12.0808 15.5825 12.096 15.6128L12.4237 16.2681C12.4389 16.2985 12.4266 16.3355 12.3962 16.3505C12.3873 16.355 12.378 16.3571 12.3688 16.3571Z" fill="#B46446"/>
<path d="M13.5155 15.7836C12.5445 16.0007 11.5375 16.0007 10.5664 15.7836C10.5664 15.6198 10.5664 15.3131 10.5664 15.1493C11.5375 15.3664 12.5445 15.3664 13.5155 15.1493C13.5155 15.3132 13.5155 15.6199 13.5155 15.7836Z" fill="#F5F5F5"/>
<path d="M11.3788 15.5449C10.7518 15.6658 10.1091 15.699 9.46973 15.6393C9.48051 15.7238 9.98615 15.9748 9.98615 15.9748C9.98615 15.9748 9.53999 16.1905 9.54993 16.2686C10.162 16.3257 10.7773 16.2985 11.3788 16.19V15.5449Z" fill="#F5F5F5"/>
<path d="M12.7056 15.5449C13.3326 15.6658 13.9752 15.699 14.6146 15.6393C14.6039 15.7238 14.0982 15.9748 14.0982 15.9748C14.0982 15.9748 14.5444 16.1905 14.5344 16.2686C13.9223 16.3257 13.3071 16.2985 12.7056 16.19V15.5449Z" fill="#F5F5F5"/>
</svg>
