<svg width="24" height="24" viewBox="0 0 24 24" fill="none" xmlns="http://www.w3.org/2000/svg">
<path d="M23.5861 4.13794H0.413812C0.185297 4.13794 0 4.32319 0 4.5517V19.4482C0 19.6767 0.185297 19.862 0.413812 19.862H23.5862C23.8147 19.862 24 19.6767 24 19.4482V4.5517C24 4.32319 23.8147 4.13794 23.5861 4.13794Z" fill="#41479B"/>
<path d="M16.5741 11.899L15.3875 11.6352C15.217 10.0454 13.9547 8.78375 12.3649 8.61317L12.1011 7.42583C12.0801 7.33128 11.92 7.33128 11.899 7.42583L11.6358 8.61036C10.0454 8.78047 8.78325 10.0449 8.61272 11.6352L7.4259 11.899C7.37855 11.9095 7.34485 11.9515 7.34485 12C7.34485 12.0484 7.37855 12.0905 7.42585 12.101L8.61267 12.3647C8.78316 13.9548 10.0453 15.2178 11.6354 15.3881L11.899 16.5741C11.9095 16.6214 11.9516 16.6551 12 16.6551C12.0485 16.6551 12.0906 16.6214 12.1011 16.5741L12.365 15.3863C13.9546 15.2157 15.217 13.9544 15.3875 12.3648L16.5742 12.101C16.6215 12.0905 16.6552 12.0485 16.6552 12C16.6552 11.9515 16.6214 11.9095 16.5741 11.899ZM15.178 11.5886L12.9143 11.0856L12.4116 8.82326C13.8507 9.00894 14.9925 10.1494 15.178 11.5886ZM11.5885 8.82289L11.0857 11.0857L8.82272 11.5886C9.00835 10.1494 10.1494 9.00847 11.5885 8.82289ZM11.1395 11.2857L11.8537 12H7.92511L11.1395 11.2857ZM8.82281 12.4115L11.0857 12.9144L11.5887 15.1778C10.1494 14.9922 9.00835 13.8506 8.82281 12.4115ZM12 16.0749L11.2857 12.8605L12 12.1463V16.0749ZM12 11.8537V7.92509L12.7143 11.1395L12 11.8537ZM12.4119 15.175L12.9143 12.9143L15.1779 12.4113C14.9925 13.8502 13.8508 14.989 12.4119 15.175ZM12.8605 12.7143L12.1463 12H16.0749L12.8605 12.7143Z" fill="#F5F5F5"/>
<path d="M6.62066 12.1035H0.827574C0.770434 12.1035 0.724121 12.0571 0.724121 12C0.724121 11.9429 0.770434 11.8965 0.827574 11.8965H6.62066C6.6778 11.8965 6.72411 11.9429 6.72411 12C6.72411 12.0571 6.67784 12.1035 6.62066 12.1035Z" fill="#F5F5F5"/>
<path d="M23.1724 12.1035H17.3793C17.3222 12.1035 17.2759 12.0571 17.2759 12C17.2759 11.9429 17.3222 11.8965 17.3793 11.8965H23.1724C23.2296 11.8965 23.2759 11.9429 23.2759 12C23.2759 12.0571 23.2296 12.1035 23.1724 12.1035Z" fill="#F5F5F5"/>
<path d="M11.9999 6.72412C11.9428 6.72412 11.8965 6.67781 11.8965 6.62067V4.96551C11.8965 4.90837 11.9428 4.86206 11.9999 4.86206C12.0571 4.86206 12.1034 4.90837 12.1034 4.96551V6.62067C12.1034 6.67785 12.0571 6.72412 11.9999 6.72412Z" fill="#F5F5F5"/>
<path d="M11.9999 19.1379C11.9428 19.1379 11.8965 19.0916 11.8965 19.0345V17.3793C11.8965 17.3222 11.9428 17.2759 11.9999 17.2759C12.0571 17.2759 12.1034 17.3222 12.1034 17.3793V19.0345C12.1034 19.0916 12.0571 19.1379 11.9999 19.1379Z" fill="#F5F5F5"/>
</svg>
