<svg width="24" height="24" viewBox="0 0 24 24" fill="none" xmlns="http://www.w3.org/2000/svg">
<path d="M23.5861 4.13794H0.413812C0.185297 4.13794 0 4.32319 0 4.5517V19.4482C0 19.6767 0.185297 19.862 0.413812 19.862H23.5862C23.8147 19.862 24 19.6767 24 19.4482V4.5517C24 4.32319 23.8147 4.13794 23.5861 4.13794Z" fill="#82C3D2"/>
<path d="M2.78985 6.02093C2.75239 5.86235 2.74306 5.8039 2.81422 5.73279C2.84891 5.6981 2.84891 5.6419 2.81422 5.60721C2.77953 5.57252 2.72333 5.57252 2.68864 5.60721C2.54464 5.75126 2.579 5.90074 2.61627 6.05904C2.50274 6.02196 2.38499 6.04947 2.32189 6.12907C2.29058 6.16877 2.23002 6.28015 2.3435 6.45799C2.36989 6.49929 2.42446 6.51143 2.46613 6.48527C2.50752 6.45888 2.51956 6.4039 2.49317 6.36265C2.45061 6.29566 2.44935 6.25436 2.46125 6.23927C2.47531 6.22141 2.51891 6.21199 2.56456 6.22816C2.59405 6.23838 2.66258 6.27377 2.66258 6.38065C2.66258 6.466 2.62311 6.54424 2.5543 6.59505C2.48535 6.64605 2.3961 6.66044 2.31008 6.63372C2.20386 6.60129 2.12966 6.4894 2.12966 6.36157C2.12966 6.27011 2.14925 6.17768 2.18525 6.09668C2.19097 6.08472 2.32672 5.80352 2.36169 5.69871C2.43083 5.49138 2.36057 5.38713 2.31261 5.34358C2.24844 5.28513 2.15464 5.27055 2.07393 5.30594C2.06164 5.31138 2.05152 5.31926 2.04088 5.32657C2.03024 5.31921 2.02007 5.31138 2.00783 5.30594C1.92716 5.27055 1.83341 5.28513 1.76914 5.34358C1.72119 5.38713 1.65093 5.49143 1.72007 5.69871C1.75504 5.80352 1.89074 6.08472 1.89524 6.0941C1.93241 6.17772 1.95205 6.27016 1.95205 6.36161C1.95205 6.48949 1.87789 6.60133 1.77163 6.63377C1.68529 6.66044 1.59632 6.64624 1.52741 6.5951C1.4586 6.54424 1.41913 6.46605 1.41913 6.38069C1.41913 6.27382 1.48766 6.23847 1.51715 6.22821C1.56294 6.21208 1.6063 6.22141 1.62046 6.23932C1.63236 6.25441 1.6311 6.29571 1.58854 6.36269C1.56214 6.40399 1.57419 6.45897 1.61558 6.48532C1.6573 6.51171 1.71205 6.49938 1.73821 6.45804C1.85164 6.28019 1.79113 6.16886 1.75982 6.12911C1.69668 6.04952 1.57897 6.02201 1.46544 6.05908C1.50275 5.90088 1.53707 5.7513 1.39307 5.60726C1.35838 5.57257 1.30218 5.57257 1.26749 5.60726C1.2328 5.64194 1.2328 5.69815 1.26749 5.73283C1.3386 5.80394 1.32936 5.8624 1.29186 6.02097C1.26936 6.11599 1.24143 6.23449 1.24143 6.38055C1.24143 6.47772 1.2756 6.57068 1.33307 6.64704H1.33021C1.28113 6.64704 1.24138 6.68674 1.24138 6.73586C1.24138 6.78494 1.28108 6.82469 1.33021 6.82469H1.33307C1.2756 6.90105 1.24143 6.99396 1.24143 7.09113C1.24143 7.23719 1.26936 7.35569 1.29182 7.45075C1.32927 7.60933 1.3386 7.66778 1.26744 7.73889C1.23275 7.77358 1.23275 7.82978 1.26744 7.86447C1.28479 7.88181 1.30752 7.89049 1.33025 7.89049C1.35294 7.89049 1.37572 7.88181 1.39307 7.86447C1.53707 7.72042 1.50271 7.57089 1.46544 7.41264C1.57897 7.44958 1.69672 7.42221 1.75982 7.34261C1.79113 7.30291 1.85169 7.19153 1.73821 7.01369C1.71191 6.97239 1.65702 6.96011 1.61558 6.98641C1.57419 7.0128 1.56214 7.06778 1.58854 7.10903C1.6311 7.17602 1.63236 7.21732 1.62046 7.23241C1.60635 7.25008 1.56294 7.25946 1.51715 7.24352C1.48766 7.2333 1.41913 7.19791 1.41913 7.09103C1.41913 7.00568 1.4586 6.92744 1.52741 6.87663C1.59636 6.82563 1.68552 6.81105 1.77163 6.83796C1.87785 6.87039 1.95205 6.98228 1.95205 7.11011C1.95205 7.20157 1.93246 7.294 1.89524 7.37763L1.31347 8.68642C1.26566 8.79395 1.24138 8.90833 1.24138 9.02608C1.24138 9.17762 1.31029 9.316 1.41875 9.40047C1.31033 9.48494 1.24138 9.62331 1.24138 9.77486C1.24138 9.89265 1.26571 10.007 1.31347 10.1145L1.89514 11.4232C1.93232 11.5068 1.95196 11.5993 1.95196 11.6907C1.95196 11.8186 1.8778 11.9304 1.77154 11.9629C1.68519 11.9898 1.59622 11.9754 1.52732 11.9242C1.4585 11.8734 1.41904 11.7952 1.41904 11.7098C1.41904 11.6029 1.48757 11.5676 1.51705 11.5573C1.56285 11.5413 1.60621 11.5505 1.62036 11.5684C1.63227 11.5835 1.631 11.6248 1.58844 11.6918C1.56205 11.7331 1.5741 11.7881 1.61549 11.8144C1.65721 11.8408 1.71196 11.8286 1.73811 11.7872C1.85155 11.6093 1.79104 11.498 1.75972 11.4582C1.69658 11.3786 1.57888 11.3512 1.46535 11.3882C1.50266 11.23 1.53697 11.0804 1.39297 10.9364C1.35829 10.9017 1.30208 10.9017 1.2674 10.9364C1.23271 10.9711 1.23271 11.0273 1.2674 11.0619C1.3385 11.1331 1.32927 11.1915 1.29177 11.3501C1.26932 11.4452 1.24138 11.5637 1.24138 11.7097C1.24138 11.8069 1.27555 11.8998 1.33302 11.9762H1.33016C1.28108 11.9762 1.24133 12.0159 1.24133 12.065C1.24133 12.1141 1.28104 12.1539 1.33016 12.1539H1.33302C1.2755 12.2302 1.24138 12.3231 1.24138 12.4203C1.24138 12.5664 1.26932 12.6849 1.29177 12.78C1.32922 12.9385 1.33855 12.997 1.2674 13.0681C1.23271 13.1028 1.23271 13.159 1.2674 13.1937C1.28474 13.211 1.30747 13.2197 1.33021 13.2197C1.3529 13.2197 1.37568 13.211 1.39302 13.1937C1.53702 13.0496 1.50266 12.9001 1.4654 12.7419C1.57893 12.7788 1.69668 12.7514 1.75977 12.6718C1.79108 12.6321 1.85164 12.5207 1.73816 12.3429C1.71186 12.3016 1.65697 12.2893 1.61554 12.3156C1.57414 12.342 1.5621 12.397 1.58849 12.4382C1.63105 12.5052 1.63232 12.5465 1.62041 12.5616C1.6063 12.5795 1.56289 12.5889 1.5171 12.5727C1.48761 12.5625 1.41908 12.5271 1.41908 12.4202C1.41908 12.3349 1.45855 12.2566 1.52736 12.2058C1.59632 12.1548 1.68547 12.1403 1.77158 12.1672C1.8778 12.1996 1.952 12.3115 1.952 12.4393C1.952 12.5308 1.93241 12.6232 1.89519 12.7068L1.31347 14.0158C1.26566 14.1233 1.24138 14.2377 1.24138 14.3554C1.24138 14.507 1.31029 14.6453 1.41875 14.7298C1.31033 14.8143 1.24138 14.9527 1.24138 15.1042C1.24138 15.222 1.26571 15.3363 1.31347 15.4439L1.89514 16.7526C1.93232 16.8362 1.95196 16.9286 1.95196 17.0201C1.95196 17.148 1.8778 17.2598 1.77154 17.2922C1.68519 17.3191 1.59622 17.3046 1.52732 17.2536C1.4585 17.2027 1.41904 17.1245 1.41904 17.0392C1.41904 16.9323 1.48757 16.8969 1.51705 16.8867C1.56285 16.8707 1.60621 16.8799 1.62036 16.8978C1.63227 16.9129 1.631 16.9542 1.58844 17.0212C1.56205 17.0625 1.5741 17.1174 1.61549 17.1438C1.65721 17.1702 1.71196 17.158 1.73811 17.1165C1.85155 16.9387 1.79104 16.8273 1.75972 16.7876C1.69658 16.7077 1.57888 16.6805 1.46535 16.7175C1.50266 16.5593 1.53697 16.4098 1.39297 16.2657C1.35829 16.231 1.30208 16.231 1.2674 16.2657C1.23271 16.3004 1.23271 16.3566 1.2674 16.3913C1.3385 16.4624 1.32927 16.5209 1.29177 16.6794C1.26932 16.7745 1.24138 16.893 1.24138 17.039C1.24138 17.1782 1.30808 17.3108 1.4196 17.3943C1.30808 17.4779 1.24138 17.6104 1.24138 17.7496C1.24138 17.8957 1.26932 18.0142 1.29177 18.1093C1.32922 18.2678 1.33855 18.3263 1.2674 18.3974C1.23271 18.4321 1.23271 18.4883 1.2674 18.523C1.28474 18.5403 1.30747 18.549 1.33021 18.549C1.3529 18.549 1.37568 18.5403 1.39302 18.523C1.53702 18.3789 1.50266 18.2294 1.4654 18.0712C1.57893 18.1081 1.69668 18.0807 1.75977 18.0011C1.79108 17.9614 1.85164 17.85 1.73816 17.6722C1.71186 17.6309 1.65697 17.6188 1.61554 17.6449C1.57414 17.6713 1.5621 17.7263 1.58849 17.7675C1.63105 17.8345 1.63232 17.8758 1.62041 17.8909C1.6063 17.9088 1.56289 17.918 1.5171 17.902C1.48761 17.8918 1.41908 17.8564 1.41908 17.7495C1.41908 17.6642 1.45855 17.586 1.52736 17.5351C1.59632 17.4841 1.68547 17.4697 1.77158 17.4965C1.8778 17.5289 1.952 17.6408 1.952 17.7686C1.952 17.8601 1.93241 17.9525 1.89641 18.0335C1.89069 18.0455 1.75494 18.3267 1.71997 18.4315C1.65083 18.6388 1.7211 18.7431 1.76905 18.7866C1.81007 18.8239 1.86289 18.8435 1.91689 18.8435C1.9475 18.8435 1.97853 18.8371 2.00778 18.8243C2.02007 18.8189 2.03019 18.811 2.04083 18.8037C2.05147 18.811 2.06164 18.8189 2.07388 18.8243C2.10308 18.8371 2.13416 18.8435 2.16477 18.8435C2.21863 18.8435 2.27155 18.8239 2.31261 18.7866C2.36057 18.7431 2.43083 18.6388 2.36169 18.4315C2.32672 18.3267 2.19102 18.0455 2.18652 18.0361C2.14935 17.9525 2.12971 17.86 2.12971 17.7686C2.12971 17.6407 2.20386 17.5288 2.31013 17.4964C2.39652 17.4697 2.48544 17.4841 2.55435 17.5351C2.62316 17.586 2.66263 17.6641 2.66263 17.7495C2.66263 17.8564 2.5941 17.8917 2.56461 17.902C2.519 17.918 2.47531 17.9088 2.4613 17.8909C2.44939 17.8758 2.45066 17.8345 2.49322 17.7675C2.51961 17.7262 2.50756 17.6713 2.46617 17.6449C2.42469 17.6189 2.36999 17.631 2.34355 17.6722C2.23011 17.85 2.29063 17.9613 2.32194 18.0011C2.38508 18.0807 2.50278 18.1081 2.61631 18.0711C2.579 18.2293 2.54469 18.3789 2.68869 18.5229C2.70603 18.5403 2.72877 18.549 2.7515 18.549C2.77424 18.549 2.79697 18.5403 2.81431 18.5229C2.849 18.4882 2.849 18.432 2.81431 18.3974C2.74321 18.3262 2.75244 18.2678 2.78994 18.1092C2.81239 18.0142 2.84033 17.8957 2.84033 17.7496C2.84033 17.6104 2.77363 17.4778 2.66211 17.3943C2.77363 17.3108 2.84033 17.1782 2.84033 17.039C2.84033 16.8929 2.81239 16.7744 2.78994 16.6793C2.75249 16.5208 2.74316 16.4623 2.81431 16.3912C2.849 16.3565 2.849 16.3003 2.81431 16.2656C2.77963 16.2309 2.72342 16.2309 2.68874 16.2656C2.54474 16.4097 2.5791 16.5592 2.61636 16.7175C2.50283 16.6804 2.38508 16.7077 2.32199 16.7875C2.29067 16.8272 2.23011 16.9386 2.3436 17.1164C2.36999 17.1577 2.42455 17.1698 2.46622 17.1437C2.50761 17.1173 2.51966 17.0623 2.49327 17.0211C2.45071 16.9541 2.44944 16.9128 2.46135 16.8977C2.47541 16.8798 2.519 16.8706 2.56466 16.8866C2.59414 16.8968 2.66267 16.9322 2.66267 17.0391C2.66267 17.1244 2.62321 17.2027 2.55439 17.2535C2.48544 17.3045 2.39619 17.319 2.31017 17.2921C2.20396 17.2597 2.12975 17.1478 2.12975 17.02C2.12975 16.9285 2.14935 16.8361 2.18657 16.7525L2.76824 15.4438C2.81605 15.3362 2.84033 15.2219 2.84033 15.1041C2.84033 14.9526 2.77142 14.8142 2.66296 14.7297C2.77138 14.6453 2.84033 14.5069 2.84033 14.3553C2.84033 14.2375 2.816 14.1232 2.76824 14.0157L2.18661 12.7071C2.14944 12.6234 2.1298 12.531 2.1298 12.4396C2.1298 12.3117 2.20396 12.1998 2.31022 12.1674C2.39661 12.1407 2.48553 12.1551 2.55444 12.2061C2.62325 12.2569 2.66272 12.3351 2.66272 12.4205C2.66272 12.5274 2.59419 12.5627 2.56471 12.573C2.5191 12.5891 2.47541 12.5798 2.46139 12.5619C2.44949 12.5468 2.45075 12.5055 2.49331 12.4385C2.51971 12.3972 2.50766 12.3422 2.46627 12.3159C2.42478 12.2898 2.37008 12.302 2.34364 12.3431C2.23021 12.521 2.29072 12.6323 2.32203 12.6721C2.38517 12.7516 2.50288 12.7791 2.61641 12.7421C2.5791 12.9003 2.54478 13.0499 2.68878 13.1939C2.70613 13.2113 2.72886 13.2199 2.7516 13.2199C2.77433 13.2199 2.79706 13.2113 2.81441 13.1939C2.8491 13.1592 2.8491 13.103 2.81441 13.0683C2.7433 12.9972 2.75253 12.9388 2.79003 12.7802C2.81249 12.6851 2.84042 12.5666 2.84042 12.4206C2.84042 12.3234 2.80625 12.2304 2.74878 12.1541H2.75164C2.80072 12.1541 2.84047 12.1144 2.84047 12.0653C2.84047 12.0162 2.80077 11.9764 2.75164 11.9764H2.74878C2.8063 11.9001 2.84042 11.8072 2.84042 11.7099C2.84042 11.5639 2.81249 11.4454 2.79003 11.3503C2.75258 11.1917 2.74325 11.1333 2.81441 11.0622C2.8491 11.0275 2.8491 10.9713 2.81441 10.9366C2.77972 10.9019 2.72352 10.9019 2.68883 10.9366C2.54483 11.0807 2.57919 11.2302 2.61646 11.3884C2.50292 11.3515 2.38517 11.3789 2.32208 11.4585C2.29077 11.4982 2.23021 11.6095 2.34369 11.7874C2.37008 11.8287 2.42464 11.8407 2.46631 11.8147C2.50771 11.7883 2.51975 11.7333 2.49336 11.692C2.4508 11.6251 2.44953 11.5838 2.46144 11.5687C2.4755 11.5508 2.5191 11.5416 2.56475 11.5576C2.59424 11.5678 2.66277 11.6032 2.66277 11.71C2.66277 11.7954 2.6233 11.8736 2.55449 11.9244C2.48553 11.9754 2.39628 11.9898 2.31027 11.9631C2.20405 11.9307 2.12985 11.8188 2.12985 11.691C2.12985 11.5995 2.14944 11.5071 2.18666 11.4234L2.76833 10.1147C2.81614 10.0072 2.84042 9.89284 2.84042 9.77509C2.84042 9.62355 2.77152 9.48517 2.66305 9.4007C2.77147 9.31623 2.84042 9.17786 2.84042 9.02631C2.84042 8.90852 2.8161 8.79419 2.76833 8.68666L2.18666 7.37796C2.14949 7.29433 2.12985 7.20189 2.12985 7.11044C2.12985 6.98257 2.204 6.87072 2.31027 6.83829C2.39666 6.81157 2.48558 6.82596 2.55449 6.87696C2.6233 6.92782 2.66277 7.006 2.66277 7.09136C2.66277 7.19824 2.59424 7.23358 2.56475 7.24385C2.51914 7.25983 2.47546 7.25041 2.46144 7.23274C2.44953 7.21764 2.4508 7.17635 2.49336 7.10936C2.51975 7.06807 2.50771 7.01308 2.46631 6.98674C2.42483 6.96072 2.37013 6.97268 2.34369 7.01397C2.23025 7.19182 2.29077 7.30314 2.32208 7.34289C2.38522 7.42249 2.50292 7.44991 2.61646 7.41292C2.57914 7.57113 2.54483 7.72071 2.68883 7.86475C2.70617 7.8821 2.72891 7.89077 2.75164 7.89077C2.77438 7.89077 2.79711 7.8821 2.81445 7.86475C2.84914 7.83006 2.84914 7.77386 2.81445 7.73917C2.74335 7.66806 2.75258 7.60961 2.79008 7.45103C2.81253 7.35597 2.84047 7.23747 2.84047 7.09141C2.84047 6.99424 2.8063 6.90128 2.74883 6.82493H2.75169C2.80077 6.82493 2.84052 6.78522 2.84052 6.7361C2.84052 6.68702 2.80081 6.64727 2.75169 6.64727H2.74883C2.80635 6.57091 2.84047 6.47805 2.84047 6.38079C2.84019 6.23449 2.81225 6.11599 2.78985 6.02093ZM1.88844 5.64241C1.85689 5.54773 1.86791 5.49377 1.88872 5.47483C1.90232 5.46199 1.92294 5.46251 1.93602 5.46841C1.95205 5.47554 1.95205 5.48683 1.95205 5.49237C1.95205 5.54144 1.99175 5.58119 2.04088 5.58119C2.08996 5.58119 2.12971 5.54149 2.12971 5.49237C2.12971 5.48683 2.12971 5.47554 2.14574 5.46841C2.15858 5.46251 2.17907 5.46199 2.19303 5.47483C2.21385 5.49377 2.22486 5.54773 2.19332 5.64241C2.17035 5.71108 2.08724 5.88986 2.04093 5.9869C1.99555 5.89211 1.91155 5.71155 1.88844 5.64241ZM2.04083 9.30733C2.06633 9.34197 2.09516 9.37422 2.13022 9.40047C2.09516 9.42676 2.06633 9.45897 2.04083 9.49361C2.01533 9.45897 1.9865 9.42672 1.95144 9.40047C1.9865 9.37417 2.01533 9.34201 2.04083 9.30733ZM2.04083 14.6366C2.06633 14.6713 2.09516 14.7035 2.13022 14.7298C2.09516 14.7561 2.06633 14.7883 2.04083 14.8229C2.01533 14.7883 1.9865 14.756 1.95144 14.7298C1.9865 14.7035 2.01533 14.6714 2.04083 14.6366ZM2.19317 18.4879C2.22472 18.5826 2.21371 18.6365 2.19289 18.6554C2.17892 18.6681 2.15844 18.6676 2.1456 18.6619C2.12957 18.6547 2.12957 18.6435 2.12957 18.6379C2.12957 18.5888 2.08986 18.5491 2.04074 18.5491C1.99161 18.5491 1.95191 18.5888 1.95191 18.6379C1.95191 18.6434 1.95191 18.6547 1.93588 18.6619C1.92285 18.6676 1.90222 18.6682 1.88858 18.6554C1.86777 18.6365 1.85675 18.5826 1.8883 18.4879C1.91127 18.4192 1.99438 18.2404 2.04069 18.1434C2.08607 18.2381 2.17007 18.4187 2.19317 18.4879ZM2.12938 17.3944C2.09577 17.4206 2.06596 17.4519 2.04083 17.4873C2.01575 17.4519 1.98589 17.4206 1.95228 17.3944C1.98589 17.3683 2.01571 17.337 2.04083 17.3016C2.06591 17.337 2.09572 17.3683 2.12938 17.3944ZM2.60572 15.3716L2.04078 16.6427L1.47585 15.3716C1.43868 15.288 1.41904 15.1956 1.41904 15.1041C1.41904 14.9762 1.49319 14.8643 1.59946 14.832C1.6858 14.8052 1.77486 14.8196 1.84368 14.8706C1.91249 14.9215 1.95196 14.9997 1.95196 15.085C1.95196 15.1919 1.88343 15.2273 1.85394 15.2375C1.80814 15.2535 1.7646 15.2443 1.75063 15.2264C1.73872 15.2113 1.73999 15.17 1.78255 15.103C1.80894 15.0617 1.79689 15.0068 1.7555 14.9804C1.71402 14.9544 1.65932 14.9665 1.63288 15.0077C1.51944 15.1855 1.57996 15.2969 1.61127 15.3366C1.67558 15.4178 1.79657 15.4457 1.91225 15.4053C1.92543 15.4007 1.93878 15.3951 1.95196 15.3884V15.613L1.95182 15.6128C1.94914 15.5661 1.91043 15.5292 1.86318 15.5292C1.8141 15.5292 1.77435 15.5689 1.77435 15.618C1.77435 15.6759 1.81485 15.7764 1.95196 15.8076V15.9733C1.95196 16.0223 1.99166 16.0621 2.04078 16.0621C2.08991 16.0621 2.12961 16.0224 2.12961 15.9733V15.8076C2.26672 15.7764 2.30722 15.6759 2.30722 15.618C2.30722 15.5689 2.26761 15.5263 2.21858 15.5263C2.1695 15.5263 2.12994 15.5631 2.12994 15.6121C2.12989 15.6123 2.12961 15.6125 2.12957 15.6127V15.3885C2.14274 15.3952 2.1561 15.4008 2.16927 15.4054C2.28496 15.4458 2.40589 15.4178 2.47025 15.3367C2.50156 15.297 2.56213 15.1856 2.44864 15.0078C2.42225 14.9665 2.36746 14.9543 2.32602 14.9805C2.28463 15.0069 2.27258 15.0619 2.29897 15.1031C2.34153 15.1701 2.3428 15.2114 2.33089 15.2265C2.31683 15.2444 2.27328 15.2536 2.22758 15.2376C2.1981 15.2274 2.12957 15.192 2.12957 15.0851C2.12957 14.9998 2.16903 14.9215 2.23785 14.8707C2.3068 14.8197 2.39605 14.8051 2.48206 14.8321C2.58828 14.8645 2.66249 14.9764 2.66249 15.1042C2.66258 15.1956 2.64299 15.288 2.60572 15.3716ZM2.60572 14.0879C2.64289 14.1715 2.66253 14.264 2.66253 14.3554C2.66253 14.4833 2.58838 14.5951 2.48211 14.6276C2.39591 14.6545 2.30671 14.6399 2.23789 14.5889C2.16908 14.5381 2.12961 14.4599 2.12961 14.3745C2.12961 14.2676 2.19814 14.2323 2.22763 14.222C2.27333 14.206 2.31692 14.2152 2.33094 14.2331C2.34285 14.2482 2.34158 14.2895 2.29902 14.3565C2.27263 14.3978 2.28467 14.4527 2.32607 14.4791C2.36778 14.5055 2.42253 14.4933 2.44869 14.4518C2.56213 14.274 2.50161 14.1627 2.4703 14.1229C2.40594 14.0417 2.285 14.0141 2.16932 14.0543C2.15614 14.0588 2.14278 14.0645 2.12961 14.0712V13.8465L2.12975 13.8468C2.13242 13.8934 2.17114 13.9304 2.21839 13.9304C2.26747 13.9304 2.30722 13.8907 2.30722 13.8416C2.30722 13.7836 2.26672 13.6831 2.12961 13.652V13.4863C2.12961 13.4372 2.08991 13.3975 2.04078 13.3975C1.99166 13.3975 1.95196 13.4372 1.95196 13.4863V13.652C1.81485 13.6831 1.77435 13.7836 1.77435 13.8416C1.77435 13.8907 1.81396 13.9333 1.86299 13.9333C1.91207 13.9333 1.95163 13.8965 1.95163 13.8474C1.95168 13.8473 1.95196 13.8471 1.95196 13.8471L1.952 14.0711C1.93883 14.0644 1.92547 14.0588 1.9123 14.0542C1.79661 14.0141 1.67563 14.0417 1.61132 14.1229C1.58 14.1626 1.51944 14.274 1.63293 14.4518C1.65932 14.4931 1.71411 14.5051 1.75555 14.4791C1.79694 14.4527 1.80899 14.3977 1.7826 14.3565C1.74004 14.2895 1.73877 14.2482 1.75068 14.2331C1.76464 14.2152 1.80819 14.206 1.85399 14.222C1.88347 14.2322 1.952 14.2676 1.952 14.3745C1.952 14.4598 1.91253 14.5381 1.84372 14.5889C1.77477 14.6399 1.68571 14.6544 1.5995 14.6275C1.49329 14.5951 1.41908 14.4832 1.41908 14.3554C1.41908 14.2639 1.43868 14.1715 1.4759 14.0879L2.04083 12.8168L2.60572 14.0879ZM2.12938 12.0652C2.09577 12.0913 2.06596 12.1226 2.04083 12.158C2.01575 12.1226 1.98589 12.0914 1.95228 12.0652C1.98589 12.039 2.01571 12.0077 2.04083 11.9723C2.06591 12.0076 2.09572 12.039 2.12938 12.0652ZM2.60572 10.0424L2.04078 11.3134L1.47585 10.0424C1.43868 9.95875 1.41904 9.86631 1.41904 9.77486C1.41904 9.64698 1.49319 9.53514 1.59946 9.5027C1.6858 9.47598 1.77486 9.49037 1.84368 9.54137C1.91249 9.59223 1.95196 9.67042 1.95196 9.75578C1.95196 9.86265 1.88343 9.898 1.85394 9.90826C1.80814 9.92439 1.7646 9.91506 1.75063 9.89715C1.73872 9.88206 1.73999 9.84076 1.78255 9.77378C1.80894 9.73248 1.79689 9.6775 1.7555 9.65115C1.71402 9.625 1.65932 9.63709 1.63288 9.67844C1.51944 9.85628 1.57996 9.96761 1.61127 10.0074C1.67558 10.0885 1.79657 10.1163 1.91225 10.076C1.92543 10.0715 1.93878 10.0658 1.95196 10.0591V10.2837L1.95182 10.2835C1.94914 10.2368 1.91043 10.1998 1.86318 10.1998C1.8141 10.1998 1.77435 10.2395 1.77435 10.2887C1.77435 10.3466 1.81485 10.4471 1.95196 10.4782V10.6439C1.95196 10.693 1.99166 10.7327 2.04078 10.7327C2.08991 10.7327 2.12961 10.693 2.12961 10.6439V10.4782C2.26672 10.4471 2.30722 10.3466 2.30722 10.2887C2.30722 10.2396 2.26761 10.1969 2.21858 10.1969C2.1695 10.1969 2.12994 10.2337 2.12994 10.2827C2.12989 10.2829 2.12961 10.2831 2.12961 10.2831L2.12957 10.0591C2.14274 10.0658 2.1561 10.0714 2.16927 10.076C2.28496 10.1162 2.40589 10.0885 2.47025 10.0073C2.50156 9.96761 2.56213 9.85623 2.44864 9.67839C2.42225 9.63691 2.36746 9.62481 2.32602 9.65111C2.28463 9.6775 2.27258 9.73248 2.29897 9.77373C2.34153 9.84072 2.3428 9.88201 2.33089 9.89711C2.31683 9.91497 2.27328 9.92439 2.22758 9.90822C2.1981 9.898 2.12957 9.86261 2.12957 9.75573C2.12957 9.67037 2.16903 9.59214 2.23785 9.54133C2.3068 9.49033 2.39605 9.47594 2.48206 9.50266C2.58828 9.53509 2.66249 9.64698 2.66249 9.77481C2.66258 9.86631 2.64299 9.95875 2.60572 10.0424ZM2.60572 8.75861C2.64289 8.84223 2.66253 8.93467 2.66253 9.02612C2.66253 9.154 2.58838 9.26584 2.48211 9.29828C2.39591 9.32519 2.30671 9.31061 2.23789 9.25961C2.16908 9.20875 2.12961 9.13056 2.12961 9.0452C2.12961 8.93833 2.19814 8.90298 2.22763 8.89272C2.27333 8.87673 2.31692 8.88592 2.33094 8.90383C2.34285 8.91892 2.34158 8.96022 2.29902 9.0272C2.27263 9.0685 2.28467 9.12344 2.32607 9.14983C2.36778 9.17598 2.42253 9.16403 2.44869 9.12255C2.56213 8.9447 2.50161 8.83338 2.4703 8.79363C2.40594 8.71244 2.285 8.68469 2.16932 8.72495C2.15614 8.7295 2.14278 8.73517 2.12961 8.74188V8.51725L2.12975 8.51739C2.13242 8.56417 2.17114 8.60106 2.21839 8.60106C2.26747 8.60106 2.30722 8.56136 2.30722 8.51224C2.30722 8.4543 2.26672 8.3538 2.12961 8.32267V8.15697C2.12961 8.10789 2.08991 8.06814 2.04078 8.06814C1.99166 8.06814 1.95196 8.10785 1.95196 8.15697V8.32267C1.81485 8.3538 1.77435 8.4543 1.77435 8.51224C1.77435 8.56131 1.81396 8.60402 1.86299 8.60402C1.91207 8.60402 1.95163 8.56722 1.95163 8.51814C1.95168 8.518 1.95196 8.51777 1.952 8.51763V8.74183C1.93883 8.73513 1.92547 8.72945 1.9123 8.72491C1.79661 8.68469 1.67563 8.71244 1.61132 8.79358C1.58 8.83328 1.51944 8.94466 1.63293 9.1225C1.65932 9.1638 1.71411 9.1758 1.75555 9.14978C1.79694 9.12339 1.80899 9.06841 1.7826 9.02716C1.74004 8.96017 1.73877 8.91887 1.75068 8.90378C1.76464 8.88592 1.80819 8.87673 1.85399 8.89267C1.88347 8.90289 1.952 8.93828 1.952 9.04516C1.952 9.13052 1.91253 9.20875 1.84372 9.25956C1.77477 9.31056 1.68571 9.32514 1.5995 9.29823C1.49329 9.2658 1.41908 9.15391 1.41908 9.02608C1.41908 8.93463 1.43868 8.84219 1.4759 8.75856L2.04083 7.4875L2.60572 8.75861ZM1.95224 6.73586C1.98585 6.70971 2.01566 6.67839 2.04078 6.643C2.06586 6.67839 2.09572 6.70966 2.12933 6.73586C2.09572 6.76202 2.06591 6.79333 2.04078 6.82872C2.01571 6.79333 1.98589 6.76202 1.95224 6.73586Z" fill="#FFE15A"/>
<path d="M12.691 13.1548C13.8717 13.1548 14.8288 12.1977 14.8288 11.017C14.8288 9.83633 13.8717 8.87921 12.691 8.87921C11.5103 8.87921 10.5532 9.83633 10.5532 11.017C10.5532 12.1977 11.5103 13.1548 12.691 13.1548Z" fill="#FFE15A"/>
<path d="M12.8516 8.29133C12.8516 8.37988 12.7798 8.45169 12.6912 8.45169C12.6027 8.45169 12.5309 8.37988 12.5309 8.29133C12.5309 8.20279 12.6912 7.8103 12.6912 7.8103C12.6912 7.8103 12.8516 8.20279 12.8516 8.29133Z" fill="#FFE15A"/>
<path d="M12.5309 13.7431C12.5309 13.6545 12.6027 13.5827 12.6912 13.5827C12.7798 13.5827 12.8516 13.6545 12.8516 13.7431C12.8516 13.8316 12.6912 14.2241 12.6912 14.2241C12.6912 14.2241 12.5309 13.8317 12.5309 13.7431Z" fill="#FFE15A"/>
<path d="M15.4171 11.1775C15.3285 11.1775 15.2567 11.1057 15.2567 11.0172C15.2567 10.9286 15.3285 10.8568 15.4171 10.8568C15.5056 10.8568 15.8981 11.0172 15.8981 11.0172C15.8981 11.0172 15.5056 11.1775 15.4171 11.1775Z" fill="#FFE15A"/>
<path d="M9.96541 10.8569C10.054 10.8569 10.1258 10.9287 10.1258 11.0172C10.1258 11.1058 10.054 11.1776 9.96541 11.1776C9.87686 11.1776 9.48438 11.0172 9.48438 11.0172C9.48438 11.0172 9.87686 10.8569 9.96541 10.8569Z" fill="#FFE15A"/>
<path d="M14.7321 9.20313C14.6695 9.26576 14.568 9.26576 14.5054 9.20313C14.4427 9.14051 14.4427 9.03903 14.5054 8.97635C14.568 8.91368 14.9589 8.74957 14.9589 8.74957C14.9589 8.74957 14.7948 9.14051 14.7321 9.20313Z" fill="#FFE15A"/>
<path d="M10.6504 12.8313C10.7131 12.7686 10.8145 12.7686 10.8772 12.8313C10.9399 12.8939 10.9398 12.9954 10.8772 13.0581C10.8146 13.1207 10.4237 13.2848 10.4237 13.2848C10.4237 13.2848 10.5878 12.8939 10.6504 12.8313Z" fill="#FFE15A"/>
<path d="M14.5053 13.0581C14.4427 12.9954 14.4427 12.894 14.5053 12.8313C14.568 12.7686 14.6695 12.7687 14.7321 12.8313C14.7948 12.8939 14.9589 13.2848 14.9589 13.2848C14.9589 13.2848 14.568 13.1206 14.5053 13.0581Z" fill="#FFE15A"/>
<path d="M10.8771 8.97637C10.9398 9.03899 10.9398 9.14048 10.8771 9.20315C10.8145 9.26582 10.713 9.26577 10.6504 9.20315C10.5877 9.14052 10.4236 8.74963 10.4236 8.74963C10.4236 8.74963 10.8145 8.91379 10.8771 8.97637Z" fill="#FFE15A"/>
<path d="M11.7962 8.43749C11.8301 8.51933 11.7913 8.61308 11.7094 8.64697C11.6276 8.68087 11.5338 8.64201 11.4999 8.56016C11.4661 8.47832 11.464 8.05438 11.464 8.05438C11.464 8.05438 11.7623 8.35565 11.7962 8.43749Z" fill="#FFE15A"/>
<path d="M13.5863 13.597C13.5525 13.5151 13.5913 13.4214 13.6732 13.3875C13.755 13.3536 13.8487 13.3925 13.8826 13.4743C13.9165 13.5561 13.9186 13.9801 13.9186 13.9801C13.9186 13.9801 13.6202 13.6788 13.5863 13.597Z" fill="#FFE15A"/>
<path d="M15.271 10.1222C15.1892 10.1561 15.0955 10.1173 15.0616 10.0354C15.0277 9.95357 15.0665 9.85982 15.1484 9.82593C15.2302 9.79204 15.6541 9.78998 15.6541 9.78998C15.6541 9.78998 15.3529 10.0883 15.271 10.1222Z" fill="#FFE15A"/>
<path d="M10.1116 11.9121C10.1935 11.8783 10.2872 11.9171 10.3211 11.999C10.355 12.0808 10.3161 12.1746 10.2343 12.2084C10.1525 12.2423 9.72852 12.2444 9.72852 12.2444C9.72852 12.2444 10.0298 11.9461 10.1116 11.9121Z" fill="#FFE15A"/>
<path d="M13.8825 8.56018C13.8486 8.64202 13.7548 8.68083 13.673 8.64699C13.5912 8.6131 13.5524 8.5193 13.5862 8.43751C13.6201 8.35571 13.9184 8.05444 13.9184 8.05444C13.9184 8.05444 13.9164 8.47838 13.8825 8.56018Z" fill="#FFE15A"/>
<path d="M11.5 13.4742C11.5339 13.3924 11.6277 13.3536 11.7095 13.3874C11.7913 13.4213 11.8302 13.5151 11.7963 13.5969C11.7624 13.6787 11.4641 13.98 11.4641 13.98C11.4641 13.98 11.4661 13.5561 11.5 13.4742Z" fill="#FFE15A"/>
<path d="M15.1484 12.2085C15.0665 12.1746 15.0277 12.0808 15.0615 11.999C15.0954 11.9172 15.1892 11.8783 15.271 11.9122C15.3528 11.946 15.6541 12.2444 15.6541 12.2444C15.6541 12.2444 15.2301 12.2424 15.1484 12.2085Z" fill="#FFE15A"/>
<path d="M10.2342 9.82595C10.3161 9.85984 10.3549 9.95363 10.3211 10.0354C10.2872 10.1172 10.1934 10.1561 10.1116 10.1222C10.0298 10.0884 9.72852 9.79004 9.72852 9.79004C9.72852 9.79004 10.1525 9.79201 10.2342 9.82595Z" fill="#FFE15A"/>
<path d="M12.3168 8.31248C12.3341 8.39934 12.2777 8.48376 12.1908 8.50101C12.104 8.51831 12.0196 8.46192 12.0023 8.37501C11.985 8.28815 12.0657 7.87195 12.0657 7.87195C12.0657 7.87195 12.2995 8.22562 12.3168 8.31248Z" fill="#FFE15A"/>
<path d="M13.0659 13.722C13.0486 13.6351 13.105 13.5507 13.1919 13.5335C13.2788 13.5162 13.3631 13.5725 13.3804 13.6595C13.3977 13.7463 13.317 14.1625 13.317 14.1625C13.317 14.1625 13.0831 13.8088 13.0659 13.722Z" fill="#FFE15A"/>
<path d="M15.3961 10.6426C15.3093 10.6599 15.2248 10.6036 15.2076 10.5166C15.1903 10.4297 15.2467 10.3454 15.3336 10.3281C15.4204 10.3108 15.8366 10.3915 15.8366 10.3915C15.8366 10.3915 15.483 10.6254 15.3961 10.6426Z" fill="#FFE15A"/>
<path d="M9.98655 11.3918C10.0734 11.3745 10.1578 11.4309 10.1751 11.5178C10.1924 11.6047 10.136 11.6891 10.0491 11.7063C9.96222 11.7236 9.54602 11.6429 9.54602 11.6429C9.54602 11.6429 9.89969 11.409 9.98655 11.3918Z" fill="#FFE15A"/>
<path d="M14.339 8.83986C14.2898 8.9135 14.1902 8.93328 14.1166 8.88406C14.0429 8.83485 14.0231 8.73528 14.0724 8.66164C14.1215 8.588 14.4729 8.35077 14.4729 8.35077C14.4729 8.35077 14.3881 8.76617 14.339 8.83986Z" fill="#FFE15A"/>
<path d="M11.0436 13.1946C11.0928 13.1209 11.1924 13.1011 11.266 13.1504C11.3397 13.1995 11.3594 13.2991 11.3102 13.3728C11.261 13.4464 10.9097 13.6836 10.9097 13.6836C10.9097 13.6836 10.9944 13.2682 11.0436 13.1946Z" fill="#FFE15A"/>
<path d="M14.8686 12.6649C14.795 12.6157 14.7752 12.5161 14.8244 12.4425C14.8736 12.3688 14.9732 12.3491 15.0468 12.3983C15.1205 12.4474 15.3577 12.7988 15.3577 12.7988C15.3577 12.7988 14.9423 12.7141 14.8686 12.6649Z" fill="#FFE15A"/>
<path d="M10.5139 9.36946C10.5875 9.41863 10.6073 9.51824 10.5581 9.59188C10.5089 9.66552 10.4093 9.6853 10.3357 9.63608C10.262 9.58686 10.0248 9.23553 10.0248 9.23553C10.0248 9.23553 10.4403 9.32028 10.5139 9.36946Z" fill="#FFE15A"/>
<path d="M11.3102 8.6616C11.3594 8.73524 11.3396 8.8348 11.266 8.88402C11.1924 8.93324 11.0928 8.91341 11.0436 8.83981C10.9944 8.76617 10.9097 8.35077 10.9097 8.35077C10.9097 8.35077 11.261 8.588 11.3102 8.6616Z" fill="#FFE15A"/>
<path d="M14.0723 13.3728C14.0231 13.2992 14.0429 13.1996 14.1165 13.1504C14.1901 13.1012 14.2897 13.121 14.3389 13.1946C14.3881 13.2682 14.4729 13.6836 14.4729 13.6836C14.4729 13.6836 14.1215 13.4464 14.0723 13.3728Z" fill="#FFE15A"/>
<path d="M15.0468 9.63608C14.9732 9.68525 14.8736 9.66547 14.8244 9.59188C14.7752 9.51824 14.795 9.41867 14.8686 9.36946C14.9422 9.32028 15.3576 9.23553 15.3576 9.23553C15.3576 9.23553 15.1205 9.58691 15.0468 9.63608Z" fill="#FFE15A"/>
<path d="M10.3357 12.3983C10.4094 12.3491 10.5089 12.3689 10.5582 12.4425C10.6073 12.5162 10.5875 12.6157 10.5139 12.6649C10.4403 12.7141 10.0249 12.7989 10.0249 12.7989C10.0249 12.7989 10.2621 12.4475 10.3357 12.3983Z" fill="#FFE15A"/>
<path d="M13.3804 8.37501C13.3631 8.46187 13.2787 8.51831 13.1919 8.50101C13.105 8.48371 13.0486 8.39934 13.0659 8.31248C13.0832 8.22562 13.317 7.87195 13.317 7.87195C13.317 7.87195 13.3976 8.28815 13.3804 8.37501Z" fill="#FFE15A"/>
<path d="M12.0022 13.6595C12.0195 13.5726 12.1038 13.5162 12.1907 13.5335C12.2776 13.5507 12.334 13.6351 12.3167 13.722C12.2994 13.8088 12.0656 14.1625 12.0656 14.1625C12.0656 14.1625 11.9849 13.7463 12.0022 13.6595Z" fill="#FFE15A"/>
<path d="M15.3335 11.7063C15.2466 11.689 15.1902 11.6046 15.2075 11.5178C15.2248 11.4309 15.3091 11.3745 15.396 11.3918C15.4829 11.4091 15.8365 11.6429 15.8365 11.6429C15.8365 11.6429 15.4203 11.7236 15.3335 11.7063Z" fill="#FFE15A"/>
<path d="M10.0491 10.3281C10.1359 10.3454 10.1924 10.4298 10.1751 10.5166C10.1578 10.6035 10.0734 10.6599 9.98655 10.6426C9.89969 10.6253 9.54602 10.3915 9.54602 10.3915C9.54602 10.3915 9.96222 10.3109 10.0491 10.3281Z" fill="#FFE15A"/>
<path d="M17.72 11.5797C17.6574 11.5534 17.5858 11.5835 17.5597 11.6458C17.5597 11.6461 17.5597 11.6461 17.5597 11.6461C17.5592 11.6472 17.5568 11.653 17.5526 11.6629C17.4599 11.8793 17.2682 12.1957 17.0746 12.4933C17.255 11.9128 17.4198 11.2929 17.4313 11.2493C17.4485 11.1842 17.41 11.1173 17.345 11.0996C17.2798 11.0822 17.2129 11.12 17.1947 11.1849C17.1105 11.4864 16.9385 11.8832 16.7797 12.2191C16.8088 11.8445 16.8143 11.4976 16.8147 11.4724C16.8156 11.4061 16.7637 11.3513 16.6973 11.3481C16.6349 11.3501 16.5747 11.3956 16.5698 11.4619C16.4128 13.6213 14.3349 14.5873 14.1326 14.6762C14.0268 14.6867 13.5337 14.7423 13.0862 14.8976C13.0355 14.9153 12.9922 14.9329 12.9492 14.9505C12.9332 14.9445 12.9161 14.9411 12.898 14.9422C11.5245 15.0415 10.4293 14.4781 9.64219 13.271C9.04748 12.3589 8.86097 11.4015 8.85914 11.392C8.84658 11.3254 8.78283 11.2825 8.71598 11.2943C8.64942 11.3069 8.60569 11.3709 8.6183 11.4374C8.62327 11.4639 8.70511 11.8818 8.93048 12.4317C8.62894 11.9557 8.4188 11.3791 8.34483 11.0787C8.34333 11.0727 8.33948 11.0682 8.33723 11.0627C8.33377 11.0542 8.33086 11.0456 8.32575 11.0383C8.32214 11.0331 8.31741 11.0293 8.31314 11.0247C8.30644 11.0177 8.30002 11.0107 8.29181 11.0054C8.28713 11.0024 8.28188 11.0009 8.27677 10.9985C8.26772 10.9943 8.25886 10.9901 8.24878 10.9882C8.2418 10.9868 8.23467 10.9877 8.22741 10.9876C8.22005 10.9875 8.21311 10.9856 8.20556 10.9869C8.20392 10.9872 8.20266 10.9883 8.20102 10.9887C8.19942 10.989 8.19792 10.9885 8.19633 10.9888C8.18977 10.9904 8.18475 10.9946 8.17875 10.9971C8.17111 11.0005 8.16328 11.0029 8.15658 11.0076C8.14997 11.0121 8.14505 11.018 8.13956 11.0237C8.13408 11.0293 8.12836 11.0343 8.12405 11.0408C8.11969 11.0474 8.11734 11.0549 8.11425 11.0622C8.1113 11.0694 8.10788 11.0762 8.10633 11.0839C8.10474 11.0918 8.10544 11.1 8.10549 11.1083C8.10549 11.1149 8.10366 11.1212 8.10483 11.128C8.1053 11.1309 8.10624 11.1338 8.10675 11.1366V11.1371C8.10689 11.1376 8.10708 11.1383 8.10722 11.1388C8.18306 11.5857 8.36381 12.0489 8.52727 12.4022C8.26772 12.1076 8.05083 11.7683 7.97395 11.5674C7.97175 11.5615 7.9673 11.5574 7.9643 11.5522C7.95975 11.5441 7.95577 11.5358 7.94963 11.5291C7.94527 11.5243 7.93997 11.5212 7.935 11.5172C7.92755 11.5112 7.92047 11.5052 7.91184 11.501C7.90631 11.4984 7.90031 11.4976 7.89445 11.4957C7.88541 11.493 7.87664 11.49 7.86703 11.4894C7.85949 11.4889 7.85199 11.4908 7.84434 11.4918C7.83727 11.4927 7.83028 11.4918 7.82325 11.494C7.82189 11.4944 7.82095 11.4955 7.81969 11.496C7.81838 11.4964 7.81706 11.4961 7.81575 11.4966C7.80909 11.4992 7.80436 11.5041 7.79841 11.5076C7.79142 11.5117 7.78397 11.5151 7.77802 11.5205C7.77192 11.526 7.7677 11.5328 7.76292 11.5393C7.75838 11.5454 7.75331 11.5509 7.74994 11.5578C7.74642 11.5649 7.74511 11.5727 7.7431 11.5804C7.74108 11.588 7.73841 11.595 7.73789 11.6029C7.73733 11.6109 7.7393 11.6188 7.74033 11.6268C7.74122 11.6337 7.74028 11.6406 7.74244 11.6475C7.87584 12.0778 8.19666 12.5898 8.448 12.9504C8.23856 12.789 8.08463 12.6145 8.03995 12.5618C8.03513 12.5561 8.03039 12.5503 8.02556 12.5446C7.98235 12.4926 7.90599 12.4852 7.85363 12.5276C7.80145 12.5702 7.79325 12.6468 7.83544 12.6992C7.83774 12.7021 7.84692 12.7136 7.8623 12.7316C8.04624 12.9504 8.24663 13.1546 8.42817 13.3271L8.17983 13.2213C8.1232 13.1968 8.05664 13.2189 8.02566 13.2727C7.99463 13.3266 8.00864 13.3948 8.05833 13.4322C8.08252 13.4501 8.5223 13.7787 8.90302 13.9729C8.86711 13.975 8.82497 13.9724 8.77781 13.9688C8.72025 13.9633 8.66362 14.0045 8.64961 14.0629C8.63583 14.1215 8.66648 14.1814 8.72217 14.2044C8.73155 14.2083 8.84756 14.2561 8.99081 14.3071C8.95739 14.3208 8.93081 14.3488 8.9198 14.3852C8.9033 14.4395 8.9265 14.4985 8.97581 14.5267C8.98866 14.5341 9.16195 14.6335 9.3764 14.7216C9.37069 14.7304 9.366 14.74 9.36248 14.7505C9.3457 14.802 9.36487 14.8585 9.40955 14.8894C9.44676 14.915 10.2795 15.4802 11.2521 15.4802C11.3159 15.4802 11.3804 15.4778 11.4453 15.4725C11.5127 15.4672 11.5631 15.4081 11.5577 15.3406C11.5523 15.273 11.4938 15.222 11.4257 15.2283C10.8147 15.2781 10.2261 15.0487 9.87604 14.8734C9.92226 14.8621 9.94884 14.8518 9.95545 14.8492C10.0095 14.8271 10.0406 14.7704 10.03 14.7131C10.0195 14.656 9.97017 14.614 9.91186 14.6128C9.76973 14.6099 9.5729 14.5407 9.40336 14.4664C9.46739 14.4344 9.5048 14.4037 9.50808 14.401C9.54497 14.3702 9.56053 14.3208 9.54797 14.2744C9.53531 14.2282 9.49669 14.1934 9.44934 14.1858C9.39726 14.1772 9.33234 14.1604 9.26437 14.1398C9.33047 14.1018 9.35859 14.0598 9.36937 14.0385C9.38639 14.0045 9.38676 13.9647 9.37045 13.9305C9.35405 13.8963 9.32283 13.8716 9.28565 13.8637C9.25359 13.8567 9.21726 13.845 9.17803 13.8297C9.1852 13.8225 9.19181 13.8144 9.19715 13.805C9.22837 13.7521 9.21548 13.6841 9.16701 13.646C9.16448 13.6441 9.06933 13.5694 8.92523 13.4451C8.94811 13.4367 8.96831 13.4212 8.98294 13.4001C9.01383 13.3556 9.01172 13.296 8.97778 13.2538C8.97506 13.2504 8.87976 13.1306 8.74842 12.9486C8.79178 12.9823 8.83509 13.0167 8.87841 13.0445C8.8988 13.0575 8.92186 13.0639 8.94473 13.0639C8.97576 13.0639 9.00637 13.0522 9.02995 13.0294C9.03966 13.0201 9.04725 13.0093 9.05325 12.9978C9.12764 13.0773 9.20578 13.1494 9.28786 13.2109C9.29855 13.219 9.31153 13.2188 9.32353 13.2228C9.35831 13.2812 9.3945 13.3396 9.43247 13.398C10.177 14.5435 11.2267 15.1571 12.4858 15.1939C12.3699 15.2643 12.244 15.3371 12.0448 15.4147C12.0013 15.4317 11.9628 15.4487 11.9242 15.4657C11.9055 15.4693 11.8881 15.4761 11.8735 15.4877C11.5257 15.6487 11.3817 15.8078 11.3233 15.919C11.2649 16.0297 11.3152 16.1432 11.3864 16.2021C11.4086 16.2203 11.4367 16.2296 11.465 16.2296C11.4844 16.2296 11.5038 16.2253 11.5214 16.2164C11.5647 16.1949 11.5937 16.1491 11.5918 16.101C11.5968 16.0955 11.6181 16.0778 11.6849 16.0756C11.7336 16.0715 11.8361 16.0825 11.9557 16.0921C12.0696 16.1015 12.2061 16.1121 12.3512 16.1196C12.2604 16.2254 12.1549 16.3481 12.1549 16.3481C12.1232 16.385 12.1162 16.4372 12.1373 16.481C12.1585 16.525 12.2041 16.5524 12.252 16.5506C12.3489 16.5473 12.4147 16.5453 12.4579 16.5445C12.4956 16.5938 12.5419 16.6134 12.5717 16.621C12.656 16.6426 12.7401 16.6089 12.8033 16.5689C12.8512 16.6034 12.8991 16.618 12.9371 16.6235C13.0227 16.6352 13.102 16.6103 13.1593 16.582C13.2187 16.6204 13.2769 16.6302 13.3212 16.6302C13.3218 16.6302 13.3225 16.6302 13.3232 16.6302C13.4189 16.6297 13.5026 16.5835 13.5618 16.5382C13.6142 16.5693 13.6642 16.5794 13.7029 16.5811C13.7907 16.5842 13.8634 16.5505 13.9118 16.5188C14.0846 16.5535 14.2335 16.4721 14.3319 16.3823C14.3768 16.4084 14.4195 16.4149 14.4536 16.4132C14.5411 16.4101 14.6077 16.3569 14.6505 16.3093C14.8464 16.333 14.987 16.2968 15.0682 16.2003C15.1125 16.1479 15.1305 16.0888 15.1354 16.0349C15.6789 16.0318 15.728 15.7351 15.732 15.6984C15.7356 15.6651 15.7255 15.6318 15.7038 15.6062C15.6823 15.5807 15.651 15.5648 15.6176 15.5629L14.1928 15.4772C14.1332 15.4729 14.08 15.5129 14.0661 15.5711C14.0659 15.572 14.0416 15.6625 13.9656 15.7349C13.8633 15.8326 13.6986 15.8841 13.5195 15.9115C13.5202 15.895 13.5179 15.8784 13.5116 15.862C13.4872 15.7989 13.4161 15.7682 13.3531 15.7919C13.0589 15.9061 12.5827 15.8917 12.2101 15.8658C12.2673 15.8191 12.3361 15.7728 12.3911 15.7427C12.4375 15.7171 12.4625 15.6646 12.4526 15.6124C12.4455 15.5745 12.4181 15.5481 12.385 15.5312C12.4886 15.4788 12.5735 15.4283 12.6541 15.3792C12.794 15.2935 12.9261 15.2127 13.1668 15.1292C13.6313 14.9678 14.1689 14.9187 14.1743 14.9182C14.1865 14.9172 14.1985 14.9141 14.2098 14.9096C14.2289 14.9017 15.7453 14.2664 16.4598 12.8006C16.4504 12.8449 16.4404 12.8854 16.4294 12.9208C16.4108 12.9812 16.4409 13.0456 16.4991 13.07C16.5441 13.0889 16.5952 13.0791 16.6299 13.047C16.5847 13.166 16.5439 13.2596 16.5106 13.315C16.4766 13.3713 16.493 13.4443 16.5477 13.4807C16.5605 13.4891 16.5743 13.4948 16.5884 13.4981C16.5331 13.5791 16.477 13.6557 16.4211 13.7259C16.3839 13.7726 16.386 13.8392 16.4249 13.8832C16.3289 13.9838 16.2438 14.0666 16.1791 14.1193C16.1369 14.1536 16.1231 14.2108 16.1425 14.2597C16.0801 14.2953 16.0289 14.3205 15.9934 14.3313C15.9337 14.3492 15.8971 14.4093 15.9084 14.4706C15.9142 14.503 15.9324 14.5302 15.9575 14.5482C15.8826 14.5683 15.8006 14.5877 15.7115 14.6054C15.6613 14.6154 15.6226 14.6554 15.6144 14.7059C15.6063 14.7565 15.6303 14.8068 15.6746 14.8321C15.6785 14.8343 15.7203 14.858 15.7844 14.8853C15.5473 14.9808 15.1238 15.1056 14.4289 15.1741C14.3616 15.1808 14.3122 15.2409 14.3189 15.3082C14.3255 15.3755 14.3837 15.4222 14.4531 15.4183C15.7722 15.2878 16.1795 14.9576 16.1962 14.9435C16.2343 14.9116 16.2493 14.8597 16.2343 14.8123C16.2242 14.7809 16.2022 14.7556 16.1739 14.7409C16.5953 14.6082 16.7763 14.4614 16.7857 14.4535C16.832 14.4152 16.8436 14.3489 16.8132 14.2969C16.7825 14.245 16.7187 14.2225 16.663 14.245C16.6474 14.251 16.6223 14.2571 16.5907 14.2634C16.8735 14.0697 17.1738 13.839 17.3058 13.7361C17.329 13.7189 17.3501 13.7023 17.3687 13.6867C17.42 13.6436 17.4271 13.5674 17.3848 13.5155C17.3428 13.4638 17.2662 13.4552 17.2138 13.4966C17.1947 13.5117 17.1747 13.5273 17.1542 13.5433C17.0932 13.5886 17.0153 13.6398 16.9302 13.6924C17.2512 13.328 17.5744 12.9329 17.6667 12.8194C17.6751 12.8091 17.6833 12.7988 17.6917 12.7885C17.7341 12.7358 17.7259 12.6587 17.6732 12.6163C17.6203 12.5733 17.5431 12.5821 17.5009 12.6345L17.5006 12.6348L17.5005 12.6351C17.4982 12.6377 17.4878 12.6506 17.4703 12.6722C17.3736 12.7902 17.2718 12.9045 17.1714 13.0113C17.4984 12.4186 17.746 11.8353 17.7822 11.7488C17.7836 11.7457 17.7848 11.7426 17.7861 11.7394C17.8121 11.6774 17.7825 11.6056 17.72 11.5797ZM11.9736 15.7125L12.0071 15.7169C11.966 15.7553 11.9326 15.7983 11.9061 15.8427C11.8478 15.838 11.795 15.8339 11.7536 15.8321C11.8107 15.7948 11.8841 15.7544 11.9736 15.7125Z" fill="#FFE15A"/>
</svg>
