<svg width="24" height="24" viewBox="0 0 24 24" fill="none" xmlns="http://www.w3.org/2000/svg">
<g clip-path="url(#clip0_2058_8484)">
<path d="M8.00002 19.8619H0.413813C0.185297 19.8619 0 19.6766 0 19.4481V4.55161C0 4.3231 0.185297 4.1378 0.413813 4.1378H8.00002V19.8619Z" fill="#41479B"/>
<path d="M16.0003 4.13799H8.00012V19.8622H16.0003V4.13799Z" fill="#FFE15A"/>
<path d="M23.5862 19.8619H16V4.1378H23.5862C23.8147 4.1378 24 4.3231 24 4.55161V19.4481C24 19.6767 23.8147 19.8619 23.5862 19.8619Z" fill="#41479B"/>
<path d="M15.3103 9.71498C15.3103 9.71498 14.1589 9.71498 13.2953 10.5786H13.8709C13.8709 10.5786 13.3132 11.586 13.0254 13.3132L12.4317 13.2163V10.57L13.0074 10.7585L11.9999 8.27573L10.9924 10.7585L11.5681 10.5665V13.2162L10.9744 13.3131C10.6866 11.586 10.1289 10.5785 10.1289 10.5785H10.7045C9.84101 9.71498 8.68958 9.71498 8.68958 9.71498C10.1288 11.4421 10.1288 14.3207 10.1288 14.3207L11.5681 14.0808V16.0478H12.4317V14.0808L13.8709 14.3207C13.871 14.3207 13.871 11.4422 15.3103 9.71498Z" fill="#464655"/>
</g>
<defs>
<clipPath id="clip0_2058_8484">
<rect width="24" height="24" fill="white"/>
</clipPath>
</defs>
</svg>
