<svg width="24" height="24" viewBox="0 0 24 24" fill="none" xmlns="http://www.w3.org/2000/svg">
<path d="M23.5861 19.862H0.413812C0.185297 19.862 0 19.6767 0 19.4482V4.55175C0 4.32324 0.185297 4.13794 0.413812 4.13794H23.5862C23.8147 4.13794 24 4.32324 24 4.55175V19.4482C24 19.6768 23.8147 19.862 23.5861 19.862Z" fill="#41479B"/>
<path d="M11.5862 4.13794H10.8674L7.03447 6.64917V4.13794H4.96551V6.64917L1.13254 4.13794H0.413812C0.185297 4.13794 0 4.32324 0 4.55175V4.87997L3.28851 7.03448H0V9.10345H3.28851L0 11.258V11.5862C0 11.8147 0.185297 12 0.413812 12H1.13254L4.96551 9.48876V12H7.03447V9.48876L10.8674 12H11.5861C11.8146 12 11.9999 11.8147 11.9999 11.5862V11.258L8.71147 9.10345H11.9999V7.03448H8.71142L11.9999 4.87997V4.55175C11.9999 4.32324 11.8147 4.13794 11.5862 4.13794Z" fill="#F5F5F5"/>
<path d="M11.9999 7.44829H6.62066V4.13794H5.37927V7.44829H0V8.68963H5.37927V12H6.62066V8.68963H11.9999V7.44829Z" fill="#FF4B55"/>
<path d="M4.55169 7.03449L0.197203 4.20789C0.081328 4.28124 0 4.40443 0 4.55176V4.57323L3.79166 7.03449H4.55169Z" fill="#FF4B55"/>
<path d="M7.79445 7.03448L11.937 4.34545C11.865 4.22363 11.7379 4.13794 11.5861 4.13794H11.4966L7.03442 7.03448H7.79445Z" fill="#FF4B55"/>
<path d="M4.19405 9.10345L0.0594482 11.7873C0.130745 11.9121 0.259745 12 0.413776 12H0.491822L4.95408 9.10345H4.19405Z" fill="#FF4B55"/>
<path d="M11.9933 11.6187L8.11838 9.10349H7.3584L11.7587 11.9598C11.8905 11.8986 11.9809 11.7704 11.9933 11.6187Z" fill="#FF4B55"/>
<path d="M17.9918 8.07278C17.9918 8.07278 17.8188 7.38062 17.2997 7.03455C17.2997 7.03455 17.8188 7.89972 17.8188 8.59192L17.9918 8.07278Z" fill="#FFE15A"/>
<path d="M17.1915 7.32108C17.1915 7.32108 17.5539 7.54275 17.7485 7.90509L17.5917 8.26743C17.5917 8.26743 17.4619 7.75373 17.1915 7.32108Z" fill="#FFE15A"/>
<path d="M16.7914 7.40222C16.7914 7.40222 17.4187 7.59689 17.716 8.00245L17.5376 8.27283C17.5376 8.27283 17.2997 7.81322 16.7914 7.40222Z" fill="#FFE15A"/>
<path d="M16.6995 7.71585C16.6995 7.71585 17.3592 7.81855 17.6566 8.13224L17.5809 8.42966C17.5809 8.42966 17.2186 7.99701 16.6995 7.71585Z" fill="#FFE15A"/>
<path d="M16.7211 7.93213C16.7211 7.93213 17.3591 7.99705 17.6512 8.33225C17.9431 8.66755 17.543 8.56475 17.543 8.56475C17.543 8.56475 17.2077 8.18089 16.7211 7.93213Z" fill="#FFE15A"/>
<path d="M17.9918 8.07278C17.9918 8.07278 18.1648 7.38062 18.684 7.03455C18.684 7.03455 18.1649 7.89972 18.1649 8.59192L17.9918 8.07278Z" fill="#FFE15A"/>
<path d="M18.7922 7.32108C18.7922 7.32108 18.4299 7.54275 18.2352 7.90509L18.3921 8.26743C18.3921 8.26743 18.5218 7.75373 18.7922 7.32108Z" fill="#FFE15A"/>
<path d="M19.1924 7.40222C19.1924 7.40222 18.5651 7.59689 18.2677 8.00245L18.4462 8.27283C18.4462 8.27283 18.684 7.81322 19.1924 7.40222Z" fill="#FFE15A"/>
<path d="M19.2843 7.71585C19.2843 7.71585 18.6246 7.81855 18.3271 8.13224L18.4029 8.42966C18.4029 8.42966 18.7651 7.99701 19.2843 7.71585Z" fill="#FFE15A"/>
<path d="M19.2626 7.93213C19.2626 7.93213 18.6245 7.99705 18.3325 8.33225C18.0405 8.66755 18.4406 8.56475 18.4406 8.56475C18.4406 8.56475 18.7759 8.18089 19.2626 7.93213Z" fill="#FFE15A"/>
<path d="M17.9918 7.03448C17.9918 7.03448 17.8188 7.39856 17.9918 7.58062C18.1649 7.39861 17.9918 7.03448 17.9918 7.03448Z" fill="#FFE15A"/>
<path d="M17.8194 7.12491C17.8194 7.12491 17.7962 7.52738 18.025 7.63088C18.1168 7.39706 17.8194 7.12491 17.8194 7.12491Z" fill="#FFE15A"/>
<path d="M18.1642 7.12491C18.1642 7.12491 18.1874 7.52738 17.9586 7.63088C17.8668 7.39706 18.1642 7.12491 18.1642 7.12491Z" fill="#FFE15A"/>
<path d="M18.2209 7.35703C18.2209 7.35703 18.07 7.73085 17.8188 7.72659C17.8358 7.47599 18.2209 7.35703 18.2209 7.35703Z" fill="#FFE15A"/>
<path d="M17.7628 7.35703C17.7628 7.35703 17.9138 7.73085 18.1649 7.72659C18.148 7.47599 17.7628 7.35703 17.7628 7.35703Z" fill="#FFE15A"/>
<path d="M17.9915 8.93793C18.2784 8.93793 18.5109 8.62804 18.5109 8.24577C18.5109 7.86351 18.2784 7.55362 17.9915 7.55362C17.7047 7.55362 17.4722 7.86351 17.4722 8.24577C17.4722 8.62804 17.7047 8.93793 17.9915 8.93793Z" fill="#FFD255"/>
<path d="M16.8059 8.95236L16.6869 8.76847C16.6869 8.76847 16.3408 8.85139 16.2579 8.59184L16.1245 8.58102C16.1245 8.58102 16.1425 8.40439 16.2975 8.37913C16.2975 8.37913 16.3912 8.26377 16.5571 8.28542C16.7229 8.30703 16.8094 8.44761 16.905 8.4837C17.0005 8.51975 17.0113 8.63872 17.0113 8.63872L17.7395 9.38492C17.7395 9.38492 17.5305 9.65173 17.343 9.73822C17.1555 9.82465 16.467 9.40297 16.8059 8.95236Z" fill="#73AF00"/>
<path d="M19.1707 9.08932C19.1707 9.08932 19.4736 9.29482 19.4844 9.86262H18.9814C18.9814 9.86262 18.9869 9.47867 18.8895 9.27321L19.1707 9.08932Z" fill="#73AF00"/>
<path d="M19.106 9.11097C19.106 9.11097 19.4845 9.23538 19.717 8.93796L19.3223 8.88391L19.106 9.11097Z" fill="#73AF00"/>
<path d="M18.9923 8.69458L19.3767 8.82415C19.4252 8.8405 19.4423 8.9005 19.4083 8.93875C19.2625 9.10305 18.8272 9.49671 18.1253 9.49671C17.2115 9.49671 16.9753 8.92169 16.9645 8.87847C16.9537 8.83525 16.905 8.48374 16.905 8.48374L17.2944 8.44052L18.9923 8.69458Z" fill="#73AF00"/>
<path d="M15.255 13.9888H16.2615L15.7424 14.9943L15.2233 14.3021L15.255 13.9888Z" fill="#FF4B55"/>
<path d="M20.7288 13.9888H19.7223L20.2414 14.9943L20.7605 14.3021L20.7288 13.9888Z" fill="#FF4B55"/>
<path d="M15.2507 15.6865C14.7542 15.6865 14.3742 15.42 14.3546 15.4061L14.7547 14.8412C14.7581 14.8433 15.0933 15.0712 15.4352 14.9676C15.7811 14.8632 16.0082 14.4549 16.1379 14.1306L16.7805 14.3878C16.5079 15.0694 16.119 15.4883 15.625 15.6332C15.4958 15.6711 15.3699 15.6865 15.2507 15.6865Z" fill="#FFD25A"/>
<path d="M20.7329 15.6865C21.2295 15.6865 21.6094 15.42 21.629 15.4061L21.2289 14.8412C21.2256 14.8433 20.8903 15.0712 20.5485 14.9676C20.2025 14.8632 19.9754 14.4549 19.8458 14.1306L19.2031 14.3878C19.4757 15.0694 19.8646 15.4883 20.3586 15.6332C20.4878 15.6711 20.6138 15.6865 20.7329 15.6865Z" fill="#FFD25A"/>
<path d="M20.2414 12.0526H15.7423V10.39C15.7423 10.1615 15.9276 9.97617 16.1561 9.97617H19.8276C20.0561 9.97617 20.2414 10.1615 20.2414 10.39V12.0526H20.2414Z" fill="#FF4B55"/>
<path d="M16.9697 11.1875L16.9157 10.8414C16.6615 10.8305 16.5156 10.5332 16.5156 10.5332L16.3101 10.6467C16.5263 11.1658 16.9697 11.1875 16.9697 11.1875Z" fill="#FFE15A"/>
<path d="M19.6789 10.8305C19.7546 10.7729 19.9205 10.7512 19.9205 10.7512C19.8015 10.6286 19.6717 10.7152 19.6717 10.7152C19.7799 10.6143 19.7186 10.4701 19.7186 10.4701C19.7186 10.5169 19.6429 10.5494 19.6429 10.5494C19.6465 10.4557 19.5492 10.3655 19.5492 10.3655L19.4987 10.4484C19.4663 10.3691 19.3509 10.3078 19.3509 10.3078L19.3041 10.5025C19.1959 10.4088 19.0049 10.416 19.0049 10.416L19.0409 10.5061C18.9255 10.5097 18.6119 10.5746 18.428 10.5962C18.2441 10.6178 18.0964 10.5674 18.0964 10.4845C18.0964 10.415 18.2571 10.4065 18.3266 10.4054C18.3757 10.4164 18.4376 10.4341 18.5245 10.4602C18.6867 10.5089 18.7817 10.4384 18.7817 10.4384C18.7249 10.4168 18.7186 10.3915 18.7186 10.3915C18.8402 10.3212 18.9544 10.3385 18.9544 10.3385C18.9138 10.2493 18.738 10.2547 18.738 10.2547C18.784 10.2304 18.8191 10.1547 18.8191 10.1547C18.8083 10.1655 18.7084 10.19 18.572 10.2083C18.4694 10.2221 18.3729 10.3002 18.3331 10.3363C18.2249 10.328 17.9421 10.3246 17.9918 10.5206C18.0531 10.7622 18.5398 10.6757 18.839 10.6288C19.1382 10.5819 19.2932 10.6216 19.3581 10.6612C19.423 10.7009 19.3304 10.8352 19.0264 10.7802C18.7637 10.7327 18.619 10.7313 18.5395 10.7396C18.4514 10.7453 18.3764 10.769 18.3234 10.7802C18.2045 10.8054 17.7466 10.9676 17.6601 10.7333C17.5736 10.4989 17.1518 11.1154 17.1518 11.1154L17.1847 11.1546L17.0725 11.1281C16.9211 11.3308 16.4669 11.393 16.4669 11.393C16.4669 11.393 16.3993 11.2714 16.3424 11.2551C16.2856 11.2389 16.2614 11.3281 16.2614 11.3281C16.2614 11.3281 16.1938 11.3308 16.1884 11.393C16.1829 11.4552 16.237 11.4606 16.237 11.4606C16.237 11.4606 16.1721 11.5553 16.2802 11.5823C16.2802 11.5823 16.2721 11.7147 16.4317 11.6228C16.9056 11.6825 17.2511 11.4392 17.4007 11.3065C17.4986 11.3127 17.651 11.3096 17.7682 11.2488C17.9557 11.1514 18.1719 11.0289 18.2981 11.0758C18.2981 11.0758 18.3991 11.3858 18.0025 11.393C18.0025 11.393 17.9439 11.3188 17.8849 11.3188C17.8594 11.3188 17.8329 11.3494 17.8411 11.3769C17.8411 11.3769 17.7719 11.3728 17.7597 11.4135C17.7497 11.4467 17.7739 11.4847 17.8248 11.4786C17.8248 11.4786 17.7902 11.5295 17.8248 11.5601C17.8594 11.5906 17.9022 11.5601 17.9022 11.5601C17.9022 11.5601 17.8838 11.6231 17.9266 11.6292C17.9632 11.6344 18.0116 11.5747 18.0254 11.5566C18.0889 11.5665 18.5219 11.6164 18.6154 11.1622C18.6154 11.1622 18.8317 11.2559 19.0444 11.2379C19.2571 11.2199 19.4662 11.2524 19.4482 11.3569C19.4246 11.4327 19.3781 11.4277 19.3781 11.4277C19.3272 11.4073 19.2417 11.4093 19.2295 11.4827C19.2173 11.556 19.317 11.558 19.317 11.558C19.3455 11.6252 19.427 11.5967 19.427 11.5967C19.4982 11.6476 19.545 11.5926 19.545 11.5926C19.5756 11.6191 19.6071 11.624 19.6366 11.5987C19.6651 11.5743 19.6491 11.4114 19.6464 11.3532C19.6419 11.2565 19.6284 11.0036 19.4878 10.9999C19.3472 10.9963 19.1669 11.0793 18.9182 10.8701C18.9052 10.8592 18.8926 10.8523 18.8797 10.843C18.9974 10.8539 19.0818 10.8858 19.1634 10.899C19.2752 10.9171 19.6033 10.8882 19.6789 10.8305Z" fill="#FFE15A"/>
<path d="M16.3101 10.6468C16.3101 10.6468 16.2411 10.6486 16.2074 10.6386C16.1495 10.6216 16.1424 10.5305 16.2047 10.5142C16.2047 10.5142 16.1298 10.4634 16.1642 10.4061C16.1916 10.3603 16.2616 10.3604 16.2859 10.3874C16.2859 10.3874 16.2631 10.312 16.3291 10.2871C16.3816 10.2673 16.4237 10.3277 16.4237 10.4061C16.4237 10.4061 16.5022 10.3423 16.5427 10.3845C16.5709 10.4139 16.5628 10.4526 16.5157 10.5332C16.4675 10.6154 16.3101 10.6468 16.3101 10.6468Z" fill="#FFE15A"/>
<path d="M16.2248 10.6134C16.2248 10.6134 16.1882 10.6765 16.0823 10.6378C16.0823 10.6378 16.1739 10.595 16.1861 10.5584L16.2248 10.6134Z" fill="#41479B"/>
<path d="M16.1861 10.4281C16.1861 10.4281 16.1291 10.3915 16.066 10.3935C16.066 10.3935 16.1596 10.3243 16.2391 10.3854L16.1861 10.4281Z" fill="#41479B"/>
<path d="M16.3185 10.3304C16.3185 10.3304 16.3368 10.2632 16.3002 10.2266C16.3002 10.2266 16.3755 10.2591 16.3857 10.3202L16.3185 10.3304Z" fill="#41479B"/>
<path d="M16.4854 10.3996C16.4854 10.3996 16.522 10.3182 16.4894 10.2795C16.4894 10.2795 16.5871 10.3365 16.5464 10.4301L16.4854 10.3996Z" fill="#41479B"/>
<path d="M16.2947 11.3044C16.2947 11.3044 16.2555 11.2242 16.205 11.2245C16.205 11.2245 16.3113 11.1858 16.3573 11.277L16.2947 11.3044Z" fill="#41479B"/>
<path d="M16.2089 11.4065C16.2089 11.4065 16.139 11.3509 16.0935 11.373C16.0935 11.373 16.1729 11.2924 16.2535 11.3549L16.2089 11.4065Z" fill="#41479B"/>
<path d="M16.2581 11.5508C16.2581 11.5508 16.1688 11.5498 16.1464 11.5951C16.1464 11.5951 16.1595 11.4828 16.2616 11.4826L16.2581 11.5508Z" fill="#41479B"/>
<path d="M16.3396 11.6435C16.3396 11.6435 16.303 11.7066 16.1971 11.6679C16.1971 11.6679 16.2887 11.6251 16.301 11.5885L16.3396 11.6435Z" fill="#41479B"/>
<path d="M17.9487 11.6114C17.9487 11.6114 17.9187 11.6631 17.832 11.6314C17.832 11.6314 17.9024 11.6063 17.9124 11.5763L17.9487 11.6114Z" fill="#41479B"/>
<path d="M17.033 10.4953C17.033 10.4953 16.8382 10.8269 16.8851 11.3064C16.8851 11.3064 17.4592 11.2226 17.7079 10.6494C17.7079 10.6494 17.7685 10.6249 17.7922 10.566C17.8123 10.516 17.8107 10.4335 17.7142 10.434C17.7142 10.434 17.7431 10.3763 17.7782 10.3628C17.7782 10.3628 17.7161 10.3385 17.643 10.3547C17.643 10.3547 17.6999 10.2979 17.6999 10.2249C17.6999 10.2249 17.6133 10.2817 17.5593 10.287C17.5593 10.287 17.5538 10.1978 17.5755 10.187C17.5755 10.187 17.462 10.1978 17.4052 10.2573C17.4052 10.2573 17.3673 10.2059 17.37 10.1519C17.37 10.1519 17.2645 10.1978 17.224 10.2654C17.224 10.2654 17.1915 10.2302 17.1943 10.1951C17.1943 10.1951 17.1186 10.287 17.1023 10.3357C17.1023 10.3357 17.031 10.3161 16.9996 10.3735C16.9769 10.4151 16.9821 10.4607 17.033 10.4953Z" fill="#FFD255"/>
<path d="M17.8622 11.37C17.8622 11.37 17.8391 11.3265 17.7699 11.3171C17.7699 11.3171 17.8581 11.2764 17.9138 11.3347L17.8622 11.37Z" fill="#41479B"/>
<path d="M19.2934 11.5349C19.2934 11.5349 19.2428 11.5509 19.2191 11.6224C19.2191 11.6224 19.1932 11.5208 19.266 11.4732L19.2934 11.5349Z" fill="#41479B"/>
<path d="M19.3995 11.5722C19.3995 11.5722 19.3516 11.6187 19.3539 11.6941C19.3539 11.6941 19.2948 11.6076 19.3469 11.5379L19.3995 11.5722Z" fill="#41479B"/>
<path d="M19.6286 11.5681C19.6286 11.5681 19.6141 11.6174 19.6579 11.67C19.6579 11.67 19.5673 11.6412 19.5656 11.5623L19.6286 11.5681Z" fill="#41479B"/>
<path d="M19.521 11.5873C19.521 11.5873 19.4825 11.6239 19.4927 11.6986C19.4927 11.6986 19.4212 11.6358 19.4658 11.5611L19.521 11.5873Z" fill="#41479B"/>
<path d="M17.7884 11.4589C17.7884 11.4589 17.7421 11.4423 17.6846 11.4819C17.6846 11.4819 17.7224 11.3924 17.8028 11.3981L17.7884 11.4589Z" fill="#41479B"/>
<path d="M17.8517 11.5574C17.8517 11.5574 17.8042 11.5449 17.7502 11.5894C17.7502 11.5894 17.7585 11.503 17.8392 11.5017L17.8517 11.5574Z" fill="#41479B"/>
<path d="M20.2414 12.3315C19.8661 12.3315 19.8661 12.67 19.4908 12.67C19.1156 12.67 19.1156 12.3315 18.7403 12.3315C18.3653 12.3315 18.3653 12.67 17.9903 12.67C17.6157 12.67 17.6157 12.3315 17.241 12.3315C16.8663 12.3315 16.8664 12.67 16.4918 12.67C16.1171 12.67 16.1171 12.3315 15.7423 12.3315V11.7066C16.117 11.7066 16.117 12.0451 16.4918 12.0451C16.8664 12.0451 16.8664 11.7066 17.241 11.7066C17.6157 11.7066 17.6157 12.0451 17.9903 12.0451C18.3653 12.0451 18.3653 11.7066 18.7403 11.7066C19.1156 11.7066 19.1156 12.0451 19.4908 12.0451C19.8661 12.0451 19.8661 11.7066 20.2414 11.7066V12.3315Z" fill="#F5F5F5"/>
<path d="M19.4908 12.67C19.1156 12.67 19.1156 12.3315 18.7403 12.3315C18.3653 12.3315 18.3653 12.67 17.9903 12.67C17.6156 12.67 17.6156 12.3315 17.241 12.3315C16.8663 12.3315 16.8663 12.67 16.4918 12.67C16.1178 12.67 16.1168 12.3332 15.7444 12.3317C15.7495 12.4813 15.7667 12.7034 15.8106 12.9644C16.115 13.0047 16.1427 13.2949 16.4917 13.2949C16.8663 13.2949 16.8663 12.9564 17.2409 12.9564C17.6156 12.9564 17.6156 13.2949 17.9903 13.2949C18.3653 13.2949 18.3653 12.9564 18.7403 12.9564C19.1155 12.9564 19.1155 13.2949 19.4908 13.2949C19.8403 13.2949 19.8681 13.0046 20.1729 12.9644C20.2168 12.7034 20.234 12.4813 20.2391 12.3317C19.8663 12.3332 19.8653 12.67 19.4908 12.67Z" fill="#41479B"/>
<path d="M19.4909 13.295C19.1156 13.295 19.1156 12.9564 18.7404 12.9564C18.3654 12.9564 18.3654 13.295 17.9904 13.295C17.6157 13.295 17.6157 12.9564 17.241 12.9564C16.8663 12.9564 16.8664 13.295 16.4918 13.295C16.1428 13.295 16.115 13.0047 15.8107 12.9644C15.8455 13.1712 15.8973 13.4018 15.9737 13.6403C16.1424 13.7371 16.2159 13.9199 16.4918 13.9199C16.8664 13.9199 16.8664 13.5814 17.241 13.5814C17.6157 13.5814 17.6157 13.9199 17.9904 13.9199C18.3654 13.9199 18.3654 13.5814 18.7404 13.5814C19.1156 13.5814 19.1156 13.9199 19.4909 13.9199C19.7674 13.9199 19.8408 13.7367 20.0101 13.64C20.0865 13.4016 20.1383 13.1711 20.1731 12.9644C19.8682 13.0047 19.8404 13.295 19.4909 13.295Z" fill="#F5F5F5"/>
<path d="M19.4909 13.9199C19.1156 13.9199 19.1156 13.5814 18.7404 13.5814C18.3654 13.5814 18.3654 13.9199 17.9904 13.9199C17.6157 13.9199 17.6157 13.5814 17.241 13.5814C16.8663 13.5814 16.8664 13.9199 16.4918 13.9199C16.216 13.9199 16.1425 13.7371 15.9738 13.6403C16.069 13.9374 16.2027 14.2455 16.3893 14.5328C16.4208 14.5393 16.4532 14.5448 16.4918 14.5448C16.8664 14.5448 16.8664 14.2063 17.241 14.2063C17.6157 14.2063 17.6157 14.5448 17.9904 14.5448C18.3654 14.5448 18.3654 14.2063 18.7404 14.2063C19.1156 14.2063 19.1156 14.5448 19.4909 14.5448C19.5299 14.5448 19.5627 14.5393 19.5945 14.5327C19.7811 14.2453 19.9149 13.9371 20.0101 13.64C19.8408 13.7367 19.7674 13.9199 19.4909 13.9199Z" fill="#41479B"/>
<path d="M19.4909 14.5448C19.1157 14.5448 19.1157 14.2063 18.7404 14.2063C18.3654 14.2063 18.3654 14.5448 17.9904 14.5448C17.6157 14.5448 17.6157 14.2063 17.2411 14.2063C16.8664 14.2063 16.8664 14.5448 16.4919 14.5448C16.4533 14.5448 16.4209 14.5393 16.3894 14.5328C16.508 14.7154 16.6484 14.889 16.8138 15.0462C16.9284 14.9494 17.0194 14.8312 17.2411 14.8312C17.6158 14.8312 17.6158 15.1697 17.9905 15.1697C18.3655 15.1697 18.3655 14.8312 18.7405 14.8312C18.9631 14.8312 19.0541 14.9499 19.1693 15.0469C19.335 14.8895 19.4757 14.7156 19.5945 14.5327C19.5628 14.5393 19.5299 14.5448 19.4909 14.5448Z" fill="#F5F5F5"/>
<path d="M19.1692 15.0468C19.0541 14.9499 18.963 14.8312 18.7404 14.8312C18.3654 14.8312 18.3654 15.1697 17.9904 15.1697C17.6157 15.1697 17.6157 14.8312 17.241 14.8312C17.0193 14.8312 16.9283 14.9493 16.8137 15.0461C17.1151 15.3325 17.4994 15.5633 17.9918 15.6865C18.4839 15.5635 18.8679 15.333 19.1692 15.0468Z" fill="#41479B"/>
<path d="M18.7403 11.7066C18.3653 11.7066 18.3653 12.0451 17.9903 12.0451C17.6157 12.0451 17.6157 11.7066 17.241 11.7066C16.8663 11.7066 16.8664 12.0451 16.4918 12.0451C16.1171 12.0451 16.1171 11.7066 15.7423 11.7066C15.7423 11.9201 15.7423 12.1056 15.7423 12.2257C15.7423 12.255 15.743 12.2911 15.7444 12.3317C16.1167 12.3332 16.1178 12.67 16.4917 12.67C16.8664 12.67 16.8664 12.3315 17.2409 12.3315C17.6156 12.3315 17.6156 12.67 17.9903 12.67C18.3653 12.67 18.3653 12.3315 18.7403 12.3315C19.1156 12.3315 19.1156 12.67 19.4908 12.67C19.8653 12.67 19.8663 12.3332 20.2393 12.3317C20.2407 12.291 20.2413 12.2549 20.2413 12.2257C20.2413 12.1056 20.2413 11.9201 20.2413 11.7066C19.866 11.7066 19.866 12.0451 19.4908 12.0451C19.1156 12.0451 19.1156 11.7066 18.7403 11.7066Z" fill="#F5F5F5"/>
<path d="M20.0684 9.97615C20.164 9.97615 20.2414 10.0536 20.2414 10.1492V11.7065V12.0526C20.2414 12.1182 20.2414 12.1781 20.2414 12.2256C20.2414 12.2549 20.2407 12.291 20.2393 12.3317C20.2342 12.4813 20.217 12.7034 20.1731 12.9643C20.1384 13.171 20.0865 13.4015 20.0101 13.6399C19.9149 13.937 19.7812 14.2452 19.5945 14.5326C19.4757 14.7155 19.335 14.8894 19.1693 15.0467C18.868 15.3328 18.484 15.5634 17.992 15.6864C17.4995 15.5633 17.1153 15.3324 16.8139 15.046C16.6485 14.8889 16.508 14.7153 16.3895 14.5327C16.2028 14.2453 16.0691 13.9372 15.9739 13.6401C15.8974 13.4017 15.8455 13.1711 15.8108 12.9643C15.7669 12.7033 15.7498 12.4812 15.7446 12.3316C15.7432 12.2909 15.7425 12.2548 15.7425 12.2256C15.7425 12.1781 15.7425 12.1181 15.7425 12.0526V11.7065V10.1491C15.7425 10.0535 15.82 9.97611 15.9155 9.97611H20.0685M20.0684 9.84641H15.9154C15.7484 9.84641 15.6125 9.98225 15.6125 10.1493V11.7066V12.0527V12.2257C15.6125 12.2562 15.6132 12.2938 15.6147 12.3363C15.6196 12.4775 15.6354 12.7048 15.6826 12.9859C15.7228 13.2253 15.7792 13.4587 15.8501 13.6799C15.9598 14.022 16.1046 14.3328 16.2805 14.6035C16.41 14.8029 16.5593 14.9835 16.7243 15.1402C17.0684 15.4673 17.4843 15.6934 17.9603 15.8124L17.9918 15.8203L18.0233 15.8124C18.4989 15.6935 18.9145 15.4675 19.2586 15.1409C19.4239 14.9839 19.5736 14.8031 19.7033 14.6034C19.8792 14.3326 20.0239 14.0218 20.1336 13.6795C20.2045 13.4585 20.2608 13.2251 20.3011 12.9859C20.3484 12.7048 20.3641 12.4774 20.369 12.3362C20.3704 12.2938 20.3711 12.2562 20.3711 12.2257V12.0527V11.7066V10.1492C20.3712 9.98225 20.2354 9.84641 20.0684 9.84641Z" fill="#F5F5F5"/>
<path d="M17.9919 14.6401L17.517 14.9704L17.6846 14.4167L17.2236 14.0673L17.8019 14.0555L17.9919 13.5091L18.1819 14.0555L18.7601 14.0673L18.2992 14.4167L18.4668 14.9704L17.9919 14.6401Z" fill="#73AF00"/>
<path d="M17.9918 13.6159L18.1567 14.09L18.6586 14.1002L18.2586 14.4036L18.404 14.8841L17.9919 14.5973L17.5798 14.8841L17.7252 14.4036L17.3252 14.1003L17.8271 14.0901L17.9918 13.6159ZM17.9918 13.4024L17.9256 13.5929L17.7768 14.021L17.3237 14.0303L17.1221 14.0343L17.2828 14.1562L17.6439 14.4301L17.5127 14.8639L17.4543 15.0569L17.6198 14.9417L17.9918 14.6829L18.3638 14.9417L18.5294 15.0569L18.471 14.8639L18.3398 14.4301L18.7009 14.1562L18.8616 14.0343L18.66 14.0303L18.2068 14.021L18.058 13.5929L17.9918 13.4024Z" fill="#FFE15A"/>
<path d="M16.9491 13.2904L16.4742 13.6207L16.6418 13.067L16.1808 12.7176L16.7591 12.7059L16.9491 12.1594L17.139 12.7059L17.7173 12.7176L17.2564 13.067L17.4239 13.6207L16.9491 13.2904Z" fill="#73AF00"/>
<path d="M16.949 12.2661L17.1138 12.7403L17.6158 12.7505L17.2158 13.0538L17.3612 13.5343L16.9491 13.2475L16.537 13.5343L16.6824 13.0538L16.2824 12.7505L16.7843 12.7403L16.949 12.2661ZM16.949 12.0526L16.8828 12.2431L16.734 12.6712L16.2808 12.6805L16.0792 12.6846L16.2399 12.8065L16.601 13.0803L16.4698 13.5141L16.4114 13.7072L16.577 13.592L16.949 13.3331L17.321 13.592L17.4865 13.7072L17.4281 13.5141L17.2969 13.0803L17.6581 12.8065L17.8188 12.6846L17.6171 12.6805L17.164 12.6712L17.0152 12.2431L16.949 12.0526Z" fill="#FFE15A"/>
<path d="M19.0256 13.2904L18.5508 13.6207L18.7182 13.067L18.2573 12.7176L18.8356 12.7059L19.0256 12.1594L19.2155 12.7059L19.7938 12.7176L19.3329 13.067L19.5004 13.6207L19.0256 13.2904Z" fill="#73AF00"/>
<path d="M19.0255 12.2661L19.1904 12.7403L19.6923 12.7505L19.2922 13.0538L19.4377 13.5343L19.0256 13.2475L18.6135 13.5343L18.7589 13.0538L18.3589 12.7505L18.8608 12.7403L19.0255 12.2661ZM19.0255 12.0526L18.9593 12.2431L18.8105 12.6712L18.3574 12.6805L18.1558 12.6846L18.3164 12.8065L18.6776 13.0803L18.5464 13.5141L18.488 13.7072L18.6535 13.592L19.0255 13.3331L19.3975 13.592L19.5631 13.7072L19.5047 13.5141L19.3735 13.0803L19.7346 12.8065L19.8953 12.6846L19.6937 12.6805L19.2405 12.6712L19.0917 12.2431L19.0255 12.0526Z" fill="#FFE15A"/>
<path d="M20.7288 13.9888C20.2994 15.0822 19.2358 15.8595 17.9919 15.8595C16.7479 15.8595 15.6844 15.0822 15.2549 13.9888L14.611 14.2408C15.1414 15.5914 16.4552 16.5517 17.9919 16.5517C19.5285 16.5517 20.8423 15.5915 21.3728 14.2408L20.7288 13.9888Z" fill="#FFE15A"/>
<path d="M18.3379 9.97615H17.8188L17.6458 9.45706H18.1649L18.3379 9.97615Z" fill="#F5F5F5"/>
<path d="M19.2031 9.97614H18.8571L18.7417 9.63007H18.8997C19.012 9.63007 19.1117 9.70197 19.1473 9.80852L19.2031 9.97614Z" fill="#F5F5F5"/>
<path d="M17.2997 9.97614H16.9536L16.9142 9.85778C16.8768 9.74575 16.9602 9.63007 17.0783 9.63007H17.1843L17.2997 9.97614Z" fill="#F5F5F5"/>
<path d="M18.857 9.97615H18.3379L18.1649 9.45706H18.5593C18.6338 9.45706 18.6999 9.50469 18.7235 9.57542L18.857 9.97615Z" fill="#41479B"/>
<path d="M17.8188 9.97615H17.2997L17.1828 9.62553C17.1552 9.54266 17.2169 9.45706 17.3043 9.45706H17.6458L17.8188 9.97615Z" fill="#41479B"/>
<path d="M19.2626 8.77574C19.1274 8.97041 18.7489 9.20291 18.1325 9.20291C17.6245 9.20291 17.2978 8.89621 17.1888 8.77527C17.1622 8.74584 17.1483 8.7082 17.1483 8.66849V8.55046C17.1483 8.49965 17.1747 8.45343 17.2185 8.42793C17.3284 8.36399 17.5824 8.26199 18.0838 8.26199C18.7057 8.26199 19.2626 8.77574 19.2626 8.77574Z" fill="#509664"/>
</svg>
