<svg width="24" height="24" viewBox="0 0 24 24" fill="none" xmlns="http://www.w3.org/2000/svg">
<path d="M24 12H0V4.55169C0 4.32317 0.185297 4.13788 0.413812 4.13788H23.5862C23.8147 4.13788 24 4.32317 24 4.55169L24 12Z" fill="#FFE15A"/>
<path d="M0 12H24V19.4483C24 19.6768 23.8147 19.8621 23.5861 19.8621H0.413812C0.185297 19.8621 0 19.6768 0 19.4483V12Z" fill="#73AF00"/>
<path d="M7.86205 4.13793V19.862H0.413812C0.185297 19.862 0 19.6767 0 19.4482V4.55169C0 4.32317 0.185297 4.13788 0.413812 4.13788L7.86205 4.13793Z" fill="#FF4B55"/>
<path d="M3.85303 9.93557L3.39689 11.3034L1.95507 11.3145C1.87604 11.3151 1.84323 11.416 1.90688 11.463L3.06675 12.3195L2.63185 13.6941C2.60799 13.7695 2.69382 13.8318 2.75813 13.7859L3.93113 12.9475L5.10413 13.786C5.16844 13.832 5.25422 13.7696 5.23041 13.6942L4.7955 12.3196L5.95537 11.4631C6.01894 11.4161 5.98622 11.3152 5.90719 11.3146L4.46536 11.3035L4.00922 9.93566C3.9841 9.86061 3.87807 9.86061 3.85303 9.93557Z" fill="#464655"/>
</svg>
