<svg width="24" height="24" viewBox="0 0 24 24" fill="none" xmlns="http://www.w3.org/2000/svg">
<path d="M24 7.44834H0V4.55175C0 4.32324 0.185297 4.13794 0.413812 4.13794H23.5862C23.8147 4.13794 24 4.32324 24 4.55175L24 7.44834Z" fill="#FF4B55"/>
<path d="M23.5861 19.8621H0.413812C0.185297 19.8621 0 19.6768 0 19.4483V16.5518H24V19.4483C24 19.6769 23.8147 19.8621 23.5861 19.8621Z" fill="#FF4B55"/>
<path d="M24 7.44849H0V16.5521H24V7.44849Z" fill="#F5F5F5"/>
<path d="M12.8841 14.7834L16.7082 14.0186C16.9842 13.9634 17.1074 13.6386 16.9375 13.4142C16.8778 13.3354 16.7898 13.2828 16.6922 13.2676L12.6182 12.6324C12.5056 12.6148 12.4258 12.5091 12.4448 12.3922C12.4631 12.2791 12.5778 12.2069 12.6914 12.2219L15.5161 12.5936C15.7457 12.6238 15.8865 12.3495 15.7281 12.1805L15.5013 11.9386C15.4164 11.8481 15.3051 11.7866 15.1833 11.7631L12.8236 11.3061L14.8355 11.451C14.9898 11.4621 15.0791 11.2798 14.9758 11.1647L14.8727 11.0497C14.8103 10.9802 14.7274 10.9324 14.636 10.9133L12.6386 10.4959L14.0581 10.4549C14.1836 10.4513 14.2475 10.3024 14.1636 10.209L14.0999 10.138C14.0501 10.0825 13.9856 10.0421 13.9138 10.0215L12.6477 9.65799H13.6427C13.7411 9.65799 13.8073 9.55712 13.7682 9.46684L13.7346 9.3894C13.6944 9.29649 13.6167 9.22492 13.5209 9.19234L12.6008 8.87931L13.0534 8.87785C13.1878 8.87743 13.278 8.73953 13.2245 8.6162C13.1815 8.51678 13.1054 8.43526 13.0092 8.38539L12 7.86212L10.9906 8.38548C10.8944 8.43535 10.8184 8.51687 10.7753 8.61629C10.7218 8.73971 10.812 8.87757 10.9465 8.87795L11.399 8.87945L10.4789 9.19248C10.383 9.22506 10.3054 9.29663 10.2652 9.38954L10.2316 9.46698C10.1925 9.55731 10.2587 9.65813 10.3571 9.65813H11.3521L10.086 10.0216C10.0143 10.0422 9.94976 10.0826 9.89989 10.1382L9.83623 10.2091C9.75237 10.3026 9.81622 10.4514 9.9417 10.455L11.3613 10.4961L9.36378 10.9135C9.27237 10.9326 9.18945 10.9804 9.12716 11.0498L9.02398 11.1648C8.92067 11.2799 9.01002 11.4623 9.16428 11.4511L11.1762 11.3062L8.81656 11.7632C8.69469 11.7868 8.58341 11.8482 8.49852 11.9388L8.27174 12.1807C8.11335 12.3496 8.2542 12.624 8.48375 12.5937L11.3084 12.2221C11.422 12.2071 11.5368 12.2792 11.555 12.3923C11.574 12.5093 11.4942 12.615 11.3816 12.6325L7.30766 13.2677C7.21002 13.2829 7.12208 13.3355 7.06236 13.4143C6.89239 13.6386 7.01558 13.9635 7.29158 14.0187L11.1157 14.7835V15.2608C11.1157 15.5213 11.0122 15.7712 10.828 15.9555L10.2317 16.5518H12H13.7683L13.1719 15.9554C12.9877 15.7712 12.8842 15.5213 12.8842 15.2608V14.7834H12.8841Z" fill="#73AF00"/>
</svg>
