<svg width="24" height="24" viewBox="0 0 24 24" fill="none" xmlns="http://www.w3.org/2000/svg">
<g clip-path="url(#clip0_2058_10802)">
<path d="M16 4.13782H23.5862C23.8147 4.13782 24 4.32311 24 4.55163V19.4482C24 19.6767 23.8147 19.862 23.5862 19.862H16V4.13782Z" fill="#FF4B55"/>
<path d="M16.0003 4.138H8.00012V19.8622H16.0003V4.138Z" fill="#FFE15A"/>
<path d="M0.413813 4.13782H8.00002V19.8619H0.413813C0.185297 19.8619 0 19.6766 0 19.4481V4.55158C0 4.32307 0.185297 4.13782 0.413813 4.13782Z" fill="#41479B"/>
<path d="M13.4663 14.8357L13.6721 14.6679L12.7341 13.5175L12.5283 13.6853L13.4663 14.8357Z" fill="#FFCD5A"/>
<path d="M12.8374 14.2759L13.2491 13.9405L12.8365 13.434L12.4248 13.7694L12.8374 14.2759Z" fill="#FFBE5A"/>
<path d="M11.5868 13.6854L11.381 13.5176L10.443 14.668L10.6488 14.8358L11.5868 13.6854Z" fill="#FFCD5A"/>
<path d="M11.6894 13.7694L11.2777 13.434L10.8651 13.9405L11.2768 14.2759L11.6894 13.7694Z" fill="#FFBE5A"/>
<path d="M11.7253 13.9492L11.0614 15.277L11.9908 15.9409V14.082L11.7253 13.9492Z" fill="#FFE15A"/>
<path d="M12.2564 13.9492L12.9203 15.277L11.9908 15.9409V14.082L12.2564 13.9492Z" fill="#FFCD5A"/>
<path d="M10.132 13.9492V10.4969H10.5303C10.5303 10.4969 10.5303 12.7542 10.5303 13.1525C10.5303 13.5509 10.132 13.9492 10.132 13.9492Z" fill="#FFBE5A"/>
<path d="M9.86633 14.6132V10.4969H10.2647C10.2647 10.4969 10.2647 13.4181 10.2647 13.8164C10.2646 14.2148 9.86633 14.6132 9.86633 14.6132Z" fill="#FFCD5A"/>
<path d="M9.60083 15.1443V10.4969H9.99917C9.99917 10.4969 9.99917 13.9492 9.99917 14.3476C9.99917 14.7459 9.60083 15.1443 9.60083 15.1443Z" fill="#FFE15A"/>
<path d="M10.5303 10.6296C10.5303 10.6296 10.5303 12.5217 10.5303 13.1525C10.5303 13.8164 11.4929 13.7279 11.9909 14.2147C12.4888 13.7278 13.4514 13.8164 13.4514 13.1525C13.4514 12.5218 13.4514 10.6296 13.4514 10.6296H10.5303Z" fill="#FF4B55"/>
<path d="M10.5303 12.0903C10.5303 12.5106 10.5303 12.9184 10.5303 13.1525C10.5303 13.8165 11.4929 13.7279 11.9909 14.2148C12.4888 13.7279 13.4514 13.8164 13.4514 13.1525C13.4514 12.9184 13.4514 12.5106 13.4514 12.0902L10.5303 12.0903Z" fill="#41479B"/>
<path d="M11.9909 13.8164L11.5926 13.5509V13.4181L11.7254 13.2853V12.4886L11.327 12.223L11.7254 11.6919H11.8581L11.9909 11.8247L12.1237 11.6919H12.2565L12.6549 12.223L12.2565 12.4886V13.2853L12.3893 13.4181V13.5509L11.9909 13.8164Z" fill="#FFE15A"/>
<path d="M11.4598 10.7625C11.4598 10.7625 10.9287 10.8952 10.9287 11.4264C10.9287 11.9575 11.4598 12.2231 11.4598 12.2231L11.7254 11.8247C10.9287 11.5591 11.4598 10.7625 11.4598 10.7625Z" fill="#FFE15A"/>
<path d="M12.522 10.7625C12.522 10.7625 13.0531 10.8952 13.0531 11.4264C13.0531 11.9575 12.522 12.2231 12.522 12.2231L12.2565 11.8247C13.0531 11.5591 12.522 10.7625 12.522 10.7625Z" fill="#FFE15A"/>
<path d="M10.6631 12.0903L10.9286 12.223L11.1942 12.0903L10.9286 11.9575L10.6631 12.0903Z" fill="#FFE15A"/>
<path d="M12.7876 12.0903L13.0531 12.223L13.3187 12.0903L13.0531 11.9575L12.7876 12.0903Z" fill="#FFE15A"/>
<path d="M11.9909 10.8288L12.0874 10.9277L12.2256 10.926L12.224 11.0642L12.3228 11.1608L12.224 11.2573L12.2256 11.3955L12.0874 11.3938L11.9909 11.4927L11.8943 11.3938L11.7561 11.3955L11.7578 11.2573L11.6589 11.1608L11.7578 11.0642L11.7561 10.926L11.8943 10.9277L11.9909 10.8288Z" fill="#FFE15A"/>
<path d="M11.0892 12.6702L11.1849 12.7767L11.3181 12.7239C11.387 12.6966 11.4517 12.7715 11.4146 12.8357L11.3429 12.9597L11.4343 13.0701C11.4816 13.1272 11.4302 13.2119 11.3577 13.1965L11.2176 13.1665L11.141 13.2875C11.1013 13.3502 11.0048 13.3275 10.9971 13.2537L10.9822 13.1113L10.8435 13.0757C10.7716 13.0573 10.7634 12.9587 10.8311 12.9286L10.962 12.8704L10.9529 12.7275C10.9484 12.6534 11.0397 12.615 11.0892 12.6702Z" fill="#FFE15A"/>
<path d="M12.8577 12.9729C12.887 12.8219 13.0116 12.7149 13.1569 12.6988C13.1271 12.6828 13.0954 12.6695 13.0605 12.6628C12.8745 12.6267 12.6945 12.7483 12.6584 12.9342C12.6224 13.1202 12.7439 13.3002 12.9299 13.3363C12.9649 13.3431 12.9992 13.3426 13.0328 13.3389C12.9041 13.2697 12.8285 13.1239 12.8577 12.9729Z" fill="#FFE15A"/>
<path d="M11.4598 10.6296L11.7253 9.30182L11.1942 8.90347L11.327 8.77068H11.5926C11.5926 8.77068 11.7254 8.63788 11.9909 8.63788C12.2564 8.63788 12.522 8.77068 12.522 9.16897C12.522 9.56727 12.6548 10.6296 12.6548 10.6296H11.4598V10.6296Z" fill="#FFE15A"/>
<path d="M10.5302 10.0985C10.2369 10.0985 9.99915 10.3363 9.99915 10.6296H11.0614C11.0614 10.3363 10.8235 10.0985 10.5302 10.0985Z" fill="#FFAA5A"/>
<path d="M10.3975 10.6297H9.60083V9.74583C9.60083 9.57394 9.74019 9.43463 9.91203 9.43463H10.0863C10.2582 9.43463 10.3975 9.57399 10.3975 9.74583V10.6297Z" fill="#FFBE5A"/>
<path d="M13.8499 13.9492V10.4969H13.4515C13.4515 10.4969 13.4515 12.7542 13.4515 13.1525C13.4515 13.5509 13.8499 13.9492 13.8499 13.9492Z" fill="#FFBE5A"/>
<path d="M14.1154 14.6132V10.4969H13.717C13.717 10.4969 13.717 13.4181 13.717 13.8164C13.717 14.2148 14.1154 14.6132 14.1154 14.6132Z" fill="#FFCD5A"/>
<path d="M14.381 15.1443V10.4969H13.9827C13.9827 10.4969 13.9827 13.9492 13.9827 14.3476C13.9826 14.7459 14.381 15.1443 14.381 15.1443Z" fill="#FFE15A"/>
<path d="M13.4515 10.0985C13.7448 10.0985 13.9826 10.3363 13.9826 10.6296H12.9203C12.9203 10.3363 13.1581 10.0985 13.4515 10.0985Z" fill="#FFAA5A"/>
<path d="M13.5842 10.6297H14.3809V9.74583C14.3809 9.57394 14.2416 9.43463 14.0697 9.43463H13.8955C13.7236 9.43463 13.5843 9.57399 13.5843 9.74583L13.5842 10.6297Z" fill="#FFBE5A"/>
<path d="M15.1219 12.1421L14.9518 12.0385L13.0923 15.0921L13.2625 15.1956L15.1219 12.1421Z" fill="#FFAA5A"/>
<path d="M13.5001 15.0199L13.8318 14.605L13.5074 14.3456L13.1757 14.7605L13.5001 15.0199Z" fill="#FFE15A"/>
<path d="M15.1765 12.1765L14.8929 12.0039L14.4946 12.6583L14.7782 12.8309L15.1765 12.1765Z" fill="#FFCD5A"/>
<path d="M10.98 15.0892L9.10571 12.1899L8.99419 12.262L10.8685 15.1613L10.98 15.0892Z" fill="#73AF00"/>
<path d="M10.2851 13.5648C10.2374 13.6188 10.2059 13.7007 10.1979 13.7951C10.1324 13.729 10.0572 13.6869 9.98718 13.6756C9.96871 13.7441 9.97621 13.83 10.0096 13.9168C9.92024 13.8853 9.83268 13.8805 9.76392 13.9018C9.78328 13.9996 9.86301 14.1059 9.98521 14.1787C10.1074 14.2517 10.2388 14.2714 10.3341 14.2419L10.3613 14.2243C10.4273 14.1494 10.4632 14.0216 10.4469 13.8803C10.4305 13.739 10.3663 13.6227 10.2851 13.5648Z" fill="#73AF00"/>
<path d="M10.3476 14.3662C10.421 14.3662 10.4804 14.3068 10.4804 14.2334C10.4804 14.1601 10.421 14.1006 10.3476 14.1006C10.2743 14.1006 10.2148 14.1601 10.2148 14.2334C10.2148 14.3068 10.2743 14.3662 10.3476 14.3662Z" fill="#FF4B55"/>
<path d="M9.78043 12.7842C9.73281 12.8382 9.70121 12.9201 9.69325 13.0145C9.62776 12.9484 9.55257 12.9064 9.48254 12.8951C9.46407 12.9635 9.47157 13.0494 9.505 13.1362C9.41561 13.1047 9.32804 13.0999 9.25928 13.1212C9.27864 13.2191 9.35837 13.3253 9.48057 13.3982C9.60273 13.4711 9.73412 13.4908 9.82942 13.4614L9.8567 13.4437C9.92265 13.3689 9.95861 13.241 9.94229 13.0997C9.92589 12.9583 9.86171 12.842 9.78043 12.7842Z" fill="#73AF00"/>
<path d="M9.84325 13.5858C9.91659 13.5858 9.97604 13.5263 9.97604 13.453C9.97604 13.3796 9.91659 13.3202 9.84325 13.3202C9.7699 13.3202 9.71045 13.3796 9.71045 13.453C9.71045 13.5263 9.7699 13.5858 9.84325 13.5858Z" fill="#FF4B55"/>
<path d="M9.27579 12.0037C9.22817 12.0577 9.19658 12.1396 9.18861 12.234C9.12312 12.1679 9.04794 12.1258 8.9779 12.1145C8.95944 12.183 8.96694 12.2689 9.00036 12.3557C8.91097 12.3242 8.8234 12.3194 8.75464 12.3407C8.774 12.4385 8.85373 12.5448 8.97594 12.6176C9.09809 12.6906 9.22948 12.7103 9.32478 12.6808L9.35206 12.6632C9.41801 12.5883 9.45397 12.4605 9.43765 12.3192C9.42115 12.1778 9.35703 12.0615 9.27579 12.0037Z" fill="#73AF00"/>
<path d="M9.33849 12.8053C9.41183 12.8053 9.47128 12.7459 9.47128 12.6725C9.47128 12.5992 9.41183 12.5397 9.33849 12.5397C9.26514 12.5397 9.20569 12.5992 9.20569 12.6725C9.20569 12.7459 9.26514 12.8053 9.33849 12.8053Z" fill="#FF4B55"/>
<path d="M10.9392 14.7611L10.6075 14.3462L10.2831 14.6055L10.6148 15.0204L10.9392 14.7611Z" fill="#FFE15A"/>
<path d="M11.327 8.37268H11.1942V9.30216H11.327V8.37268Z" fill="#FFE15A"/>
<path d="M11.4595 8.50531H11.0612V8.63811H11.4595V8.50531Z" fill="#FFE15A"/>
<path d="M11.1942 8.9035L11.5926 9.20228V8.77075H11.327L11.1942 8.9035Z" fill="#FF875A"/>
<path d="M11.3269 8.37233V8.50513H11.4597V8.63792H11.3269V8.77072H11.5925C11.5925 8.77072 11.7253 8.63792 11.9908 8.63792C12.2564 8.63792 12.5219 8.77072 12.5219 9.16902C12.5219 9.56736 12.6547 10.6296 12.6547 10.6296H12.9203C12.9203 10.3363 13.1581 10.0985 13.4514 10.0985C13.4975 10.0985 13.5415 10.1062 13.5842 10.1173V9.83295C13.5842 9.61297 13.7625 9.43461 13.9825 9.43461C14.2025 9.43461 14.3808 9.61297 14.3808 9.83295V10.4969V10.6297V12.9747L14.5523 12.693L14.4956 12.6585L14.894 12.004L14.9507 12.0385L15.0357 12.0904L15.1775 12.1767L14.7792 12.8311L14.7225 12.7966L14.3808 13.3579V15.1445C14.3808 15.1445 14.0638 14.8265 13.9959 14.4748C13.9474 14.4124 13.8915 14.3329 13.8423 14.2426L13.6904 14.4923L13.8317 14.6052L13.5 15.0201L13.4119 14.9497L13.2618 15.1963L13.0917 15.0927L13.2551 14.8243L13.1758 14.7609L13.2887 14.6195L12.9403 14.1922L12.8373 14.2761L12.5275 13.896C12.445 13.9291 12.3635 13.9655 12.2851 14.0072L12.9201 15.2773L11.9906 15.9412L11.0612 15.2773L11.6962 14.0072C11.6493 13.9823 11.6017 13.9587 11.553 13.9372L11.2768 14.2761L11.1738 14.1922L10.8254 14.6195L10.9383 14.7609L10.8256 14.851L10.9797 15.0894L10.8682 15.1615L10.7213 14.9344L10.6141 15.02L10.2825 14.6052L10.4315 14.486L10.3525 14.3638C10.3506 14.3639 10.3488 14.3639 10.3469 14.3639C10.3035 14.3639 10.261 14.3446 10.2357 14.3054C10.225 14.2888 10.2191 14.2706 10.2166 14.2522C10.1916 14.2507 10.1663 14.2472 10.1399 14.2409C10.0906 14.3319 10.0343 14.412 9.98551 14.4748C9.91769 14.8265 9.60058 15.1445 9.60058 15.1445V13.4506C9.56045 13.438 9.52 13.422 9.4802 13.3982C9.35805 13.3253 9.27827 13.2191 9.25891 13.1212C9.28684 13.1126 9.31783 13.1083 9.35083 13.1083C9.39911 13.1083 9.45161 13.1176 9.50467 13.1363C9.48737 13.0913 9.4773 13.0468 9.47397 13.0046L9.34337 12.8025C9.3415 12.8026 9.33967 12.8026 9.3378 12.8026C9.29439 12.8026 9.25187 12.7833 9.22661 12.7441C9.21583 12.7275 9.21002 12.7093 9.20739 12.6909C9.13389 12.6865 9.05336 12.664 8.97569 12.6177C8.85353 12.5448 8.77375 12.4385 8.75439 12.3407C8.78233 12.3321 8.81336 12.3278 8.84631 12.3278C8.89459 12.3278 8.94709 12.3371 9.00016 12.3558C8.96673 12.2689 8.95923 12.1831 8.9777 12.1146C9.04773 12.1259 9.12292 12.168 9.18841 12.2341C9.19637 12.1397 9.22797 12.0578 9.27555 12.0038C9.35683 12.0616 9.42095 12.1779 9.43727 12.3193C9.44767 12.4092 9.43511 12.4918 9.40891 12.5607C9.42461 12.5707 9.43881 12.5834 9.44955 12.6001C9.47594 12.6409 9.475 12.69 9.45484 12.7305L9.58544 12.9326C9.5905 12.9354 9.59547 12.9388 9.60053 12.9419V10.6298V10.497V9.83309C9.60053 9.61311 9.77889 9.43475 9.99887 9.43475C10.2189 9.43475 10.3972 9.61311 10.3972 9.83309V10.1174C10.4399 10.1064 10.4838 10.0986 10.53 10.0986C10.8234 10.0986 11.0611 10.3364 11.0611 10.6297H11.4595L11.725 9.30191L11.5922 9.20234L11.3267 9.00317V9.30195H11.1939V8.63802H11.0611V8.50522H11.1939V8.37242H11.3272M13.4584 14.4072L13.5075 14.3458L13.5336 14.3667L13.7476 14.015C13.729 13.95 13.717 13.8833 13.717 13.8164C13.717 13.8099 13.717 13.801 13.717 13.7931C13.6011 13.6407 13.4515 13.3968 13.4515 13.1525C13.4515 13.4322 13.2798 13.5778 13.0449 13.6898L13.2492 13.9406L13.1463 14.0244L13.4584 14.4072ZM10.536 14.4025L10.607 14.3458L10.656 14.4071L10.9681 14.0243L10.8652 13.9405L11.0342 13.7331C10.7506 13.6146 10.5302 13.4695 10.5302 13.1525C10.5302 13.3303 10.4508 13.5077 10.363 13.6501C10.4047 13.7113 10.4362 13.7896 10.4467 13.8802C10.4571 13.9701 10.4445 14.0528 10.4183 14.1216C10.434 14.1316 10.4482 14.1443 10.459 14.161C10.4853 14.2018 10.4844 14.2509 10.4642 14.2915L10.536 14.4025ZM11.3269 8.27277H11.1941C11.1392 8.27277 11.0946 8.31734 11.0946 8.37233V8.40552H11.0614C11.0064 8.40552 10.9618 8.45009 10.9618 8.50508V8.63788C10.9618 8.69286 11.0064 8.73744 11.0614 8.73744H11.0946V9.30177C11.0946 9.35675 11.1392 9.40133 11.1941 9.40133H11.3269C11.3819 9.40133 11.4265 9.35675 11.4265 9.30177V9.2022L11.5327 9.28184L11.6153 9.34377L11.378 10.53H11.153C11.1051 10.2294 10.8441 9.99889 10.5302 9.99889C10.5191 9.99889 10.5081 9.99927 10.497 9.99992V9.83291C10.497 9.55836 10.2736 9.33495 9.99902 9.33495C9.72447 9.33495 9.50106 9.55836 9.50106 9.83291V10.4968V10.6296V12.1567C9.46511 12.0576 9.40666 11.9746 9.33339 11.9225C9.31595 11.91 9.29575 11.904 9.27573 11.904C9.24803 11.904 9.22056 11.9155 9.20102 11.9377C9.17036 11.9725 9.14514 12.0149 9.12634 12.0627C9.08275 12.0391 9.03789 12.0231 8.99364 12.016C8.9883 12.0151 8.983 12.0147 8.97775 12.0147C8.93345 12.0147 8.89361 12.0443 8.8817 12.0883C8.87003 12.1316 8.86614 12.179 8.8698 12.2285C8.86197 12.2281 8.85419 12.2279 8.84645 12.2279C8.80333 12.2279 8.7625 12.2338 8.72514 12.2453C8.67644 12.2603 8.64695 12.3097 8.6568 12.3598C8.68258 12.4899 8.7827 12.6182 8.92473 12.7029C8.99027 12.742 9.06142 12.7688 9.13366 12.7819C9.13656 12.7874 9.1397 12.7927 9.14308 12.7979C9.17575 12.8485 9.22703 12.8833 9.28567 12.8963L9.35823 13.0085C9.3558 13.0085 9.35341 13.0085 9.35102 13.0085C9.30789 13.0085 9.26706 13.0144 9.2297 13.0259C9.181 13.0409 9.15151 13.0903 9.16136 13.1404C9.18714 13.2705 9.28727 13.3988 9.4293 13.4835C9.45198 13.4971 9.47561 13.5091 9.50111 13.5199V15.144C9.50111 15.1843 9.52544 15.2207 9.56266 15.236C9.57498 15.2411 9.58787 15.2436 9.60067 15.2436C9.62664 15.2436 9.65214 15.2335 9.67122 15.2143C9.68477 15.2008 9.99709 14.8842 10.0785 14.5168C10.112 14.4728 10.1429 14.4284 10.171 14.384C10.2031 14.421 10.2465 14.4466 10.2949 14.4574L10.2992 14.464L10.2206 14.5269C10.2 14.5434 10.1867 14.5674 10.1838 14.5937C10.1808 14.6199 10.1885 14.6463 10.205 14.6669L10.5366 15.0818C10.5531 15.1024 10.5771 15.1157 10.6034 15.1186C10.6071 15.119 10.6108 15.1192 10.6144 15.1192C10.6369 15.1192 10.6589 15.1116 10.6766 15.0974L10.6978 15.0805L10.7848 15.2151C10.7992 15.2373 10.8217 15.2529 10.8475 15.2585C10.8545 15.26 10.8615 15.2607 10.8685 15.2607C10.8875 15.2607 10.9063 15.2552 10.9225 15.2447L10.9869 15.203L10.9723 15.2323C10.9504 15.2761 10.9637 15.3293 11.0035 15.3578L11.933 16.0218C11.9503 16.0341 11.9706 16.0403 11.9909 16.0403C12.0112 16.0403 12.0314 16.0341 12.0488 16.0218L12.9782 15.3578C13.0181 15.3293 13.0314 15.2761 13.0094 15.2323L12.4189 14.0512C12.444 14.0394 12.4701 14.0277 12.4974 14.0159L12.7603 14.3386C12.78 14.3627 12.8087 14.3752 12.8376 14.3752C12.8597 14.3752 12.882 14.3679 12.9005 14.3528L12.9263 14.3318L13.161 14.6196L13.0982 14.6981C13.0817 14.7187 13.0742 14.7451 13.0771 14.7713C13.08 14.7976 13.0932 14.8216 13.1139 14.8381L13.1247 14.8468L13.0069 15.0403C12.9783 15.0873 12.9932 15.1485 13.0402 15.1772L13.2103 15.2808C13.226 15.2903 13.2439 15.2953 13.2621 15.2953C13.27 15.2953 13.2779 15.2944 13.2857 15.2924C13.3113 15.2862 13.3335 15.27 13.3472 15.2474L13.4385 15.0975C13.4568 15.112 13.4785 15.119 13.5003 15.119C13.5295 15.119 13.5584 15.1062 13.5781 15.0816L13.9097 14.6667C13.9219 14.6514 13.9289 14.6337 13.9309 14.6156C14.0391 14.9392 14.2983 15.2018 14.3106 15.2142C14.3297 15.2332 14.3552 15.2435 14.3812 15.2435C14.394 15.2435 14.4069 15.241 14.4192 15.2359C14.4564 15.2205 14.4807 15.1842 14.4807 15.1439V13.3853L14.759 12.9282C14.7658 12.9296 14.7726 12.9303 14.7794 12.9303C14.813 12.9303 14.8458 12.9133 14.8646 12.8824L15.2629 12.2279C15.2767 12.2054 15.2809 12.1783 15.2746 12.1526C15.2683 12.127 15.2522 12.1048 15.2296 12.0911L15.0878 12.0048L15.0028 11.953L14.946 11.9184C14.9298 11.9086 14.9119 11.9039 14.8944 11.9039C14.8608 11.9039 14.8279 11.921 14.8092 11.9518L14.4808 12.4914V10.6293V10.4965V9.83281C14.4808 9.55827 14.2574 9.33486 13.9828 9.33486C13.7083 9.33486 13.4849 9.55827 13.4849 9.83281V9.99983C13.4738 9.99917 13.4627 9.9988 13.4517 9.9988C13.1378 9.9988 12.8767 10.2293 12.8288 10.5299H12.7432C12.7118 10.2685 12.6218 9.49053 12.6218 9.16888C12.6218 8.70388 12.2959 8.53817 11.9911 8.53817C11.7653 8.53817 11.6196 8.62424 11.5571 8.67097H11.5538C11.5575 8.66056 11.5595 8.64941 11.5595 8.63778V8.50499C11.5595 8.45 11.5149 8.40542 11.4599 8.40542H11.4267V8.37224C11.4265 8.31734 11.3819 8.27277 11.3269 8.27277ZM10.4789 13.6499C10.5044 13.6051 10.5266 13.5608 10.5457 13.5172C10.6287 13.6287 10.7482 13.7079 10.8753 13.7706L10.7881 13.8776C10.7714 13.8981 10.7635 13.9243 10.7662 13.9506C10.7689 13.9769 10.7819 14.0011 10.8024 14.0177L10.828 14.0386L10.6505 14.2562C10.6404 14.2513 10.6294 14.2481 10.618 14.2468C10.6143 14.2463 10.6105 14.2461 10.6069 14.2461C10.597 14.2461 10.5872 14.2476 10.5778 14.2505C10.5824 14.2004 10.5705 14.1502 10.5426 14.107C10.5392 14.1018 10.5356 14.0967 10.5318 14.0918C10.5496 14.0206 10.5543 13.9447 10.5456 13.8688C10.5366 13.791 10.5138 13.7165 10.4789 13.6499ZM13.199 13.7213C13.2867 13.6702 13.3719 13.6054 13.4365 13.5184C13.4873 13.6345 13.5542 13.7401 13.6174 13.8263C13.6182 13.8817 13.6258 13.9388 13.6405 13.9994L13.4893 14.2478C13.4806 14.2494 13.4719 14.2522 13.4638 14.2562L13.2864 14.0386L13.312 14.0177C13.3325 14.001 13.3455 13.9769 13.3481 13.9506C13.3508 13.9244 13.343 13.8981 13.3263 13.8776L13.199 13.7213ZM11.277 14.3755C11.3059 14.3755 11.3345 14.363 11.3543 14.3389L11.5222 14.1328L11.0677 15.0419C11.0665 15.0396 11.0651 15.0373 11.0636 15.0351L10.9585 14.8723L11.0009 14.8384C11.0215 14.8219 11.0348 14.7979 11.0377 14.7716C11.0406 14.7454 11.033 14.719 11.0165 14.6984L10.9538 14.6199L11.1884 14.3321L11.2143 14.3531C11.2326 14.3683 11.2548 14.3755 11.277 14.3755ZM13.8211 14.4689L13.8427 14.4333C13.8618 14.4613 13.8819 14.4893 13.9031 14.5171C13.905 14.5255 13.9069 14.5338 13.909 14.5422C13.9046 14.5367 13.8996 14.5317 13.8939 14.5272L13.8211 14.4689Z" fill="#FFAA5A"/>
</g>
<defs>
<clipPath id="clip0_2058_10802">
<rect width="24" height="24" fill="white"/>
</clipPath>
</defs>
</svg>
