<svg width="24" height="24" viewBox="0 0 24 24" fill="none" xmlns="http://www.w3.org/2000/svg">
<path d="M23.5861 19.862H0.413812C0.185297 19.862 0 19.6767 0 19.4482V4.55175C0 4.32324 0.185297 4.13794 0.413812 4.13794H23.5862C23.8147 4.13794 24 4.32324 24 4.55175V19.4482C24 19.6768 23.8147 19.862 23.5861 19.862Z" fill="#41479B"/>
<path d="M11.5862 4.13794H10.8674L7.03447 6.64917V4.13794H4.96551V6.64917L1.13254 4.13794H0.413812C0.185297 4.13794 0 4.32324 0 4.55175V4.87997L3.28851 7.03448H0V9.10345H3.28851L0 11.258V11.5862C0 11.8147 0.185297 12 0.413812 12H1.13254L4.96551 9.48876V12H7.03447V9.48876L10.8674 12H11.5861C11.8146 12 11.9999 11.8147 11.9999 11.5862V11.258L8.71147 9.10345H11.9999V7.03448H8.71142L11.9999 4.87997V4.55175C11.9999 4.32324 11.8147 4.13794 11.5862 4.13794Z" fill="#F5F5F5"/>
<path d="M11.9999 7.44829H6.62066V4.13794H5.37927V7.44829H0V8.68963H5.37927V12H6.62066V8.68963H11.9999V7.44829Z" fill="#FF4B55"/>
<path d="M4.55169 7.03449L0.197203 4.20789C0.081328 4.28124 0 4.40443 0 4.55176V4.57323L3.79166 7.03449H4.55169Z" fill="#FF4B55"/>
<path d="M7.79445 7.03448L11.937 4.34545C11.865 4.22363 11.7379 4.13794 11.5861 4.13794H11.4966L7.03442 7.03448H7.79445Z" fill="#FF4B55"/>
<path d="M4.19405 9.10345L0.0594482 11.7873C0.130745 11.9121 0.259745 12 0.413776 12H0.491822L4.95408 9.10345H4.19405Z" fill="#FF4B55"/>
<path d="M11.9933 11.6187L8.11838 9.10349H7.3584L11.7587 11.9598C11.8905 11.8986 11.9809 11.7704 11.9933 11.6187Z" fill="#FF4B55"/>
<path d="M15.5018 16.5183L15.3076 16.0651L15.4047 16.2917L15.3065 16.0657C15.3474 16.0476 16.3087 15.609 16.3087 14.3194H16.8018C16.8018 15.9425 15.555 16.4955 15.5018 16.5183Z" fill="#E67346"/>
<path d="M15.6946 15.4156L15.3459 15.067C16.0125 14.4005 16.3588 14.2177 16.3961 14.199L16.6167 14.64L16.5064 14.4195L16.6186 14.639C16.6154 14.6407 16.3032 14.8069 15.6946 15.4156Z" fill="#EB7D4B"/>
<path d="M20.5685 16.5183L20.7627 16.0651L20.6656 16.2917L20.7638 16.0657C20.7229 16.0476 19.7616 15.609 19.7616 14.3194H19.2686C19.2686 15.9425 20.5154 16.4955 20.5685 16.5183Z" fill="#E67346"/>
<path d="M20.3758 15.4156L20.7244 15.067C20.0579 14.4005 19.7115 14.2177 19.6742 14.199L19.4537 14.64L19.564 14.4195L19.4518 14.639C19.4549 14.6407 19.7671 14.8069 20.3758 15.4156Z" fill="#EB7D4B"/>
<path d="M18.0344 7.90939H15.4047C15.4047 7.90939 15.4047 11.0322 15.4047 11.854C15.4047 12.6758 15.5691 14.8125 18.0344 15.6342C20.4998 14.8124 20.6641 12.6758 20.6641 11.854C20.6641 11.0322 20.6641 7.90939 20.6641 7.90939H18.0344Z" fill="#4173CD"/>
<path d="M19.185 8.89554H17.772C17.6227 8.89554 17.4779 8.84472 17.3613 8.75149L16.8096 8.31011C16.7513 8.26352 16.6789 8.23807 16.6043 8.23807H16.5552C16.3737 8.23807 16.2265 8.38521 16.2265 8.56675H15.98C15.8439 8.56675 15.7335 8.67714 15.7335 8.81327C15.7335 8.94939 15.8439 9.05978 15.98 9.05978H16.2265C16.3173 9.05978 16.3909 9.13338 16.3909 9.22418V10.046C16.3909 10.352 16.6009 10.6069 16.884 10.6802V11.1965H17.2127L17.336 10.7034H18.8563L19.0207 10.8678V11.1965H19.1851V10.7034H19.3495V11.1965H19.5139V10.6578C19.6118 10.6009 19.6783 10.4961 19.6783 10.3747V9.38857C19.678 9.11632 19.4573 8.89554 19.185 8.89554Z" fill="#C8C8C8"/>
<path d="M16.2264 11.0323L16.5552 12.0184H19.5137L19.8424 11.0323H16.2264Z" fill="#73AF00"/>
<path d="M19.7855 11.6896C19.3473 11.6896 19.3473 12.0183 18.9091 12.0183C18.4711 12.0183 18.4711 11.6896 18.033 11.6896C17.595 11.6896 17.595 12.0183 17.157 12.0183C16.7188 12.0183 16.7188 11.6896 16.2806 11.6896C15.8434 11.6896 15.8423 12.0168 15.407 12.0182C15.4123 12.2013 15.4279 12.4252 15.4684 12.6727C15.843 12.6421 15.8652 12.3471 16.2807 12.3471C16.7188 12.3471 16.7188 12.6758 17.157 12.6758C17.595 12.6758 17.595 12.3471 18.0331 12.3471C18.4711 12.3471 18.4711 12.6758 18.9092 12.6758C19.3474 12.6758 19.3474 12.3471 19.7856 12.3471C20.2021 12.3471 20.224 12.6427 20.6005 12.6728C20.6409 12.4253 20.6566 12.2013 20.6619 12.0182C20.2245 12.0175 20.2239 11.6896 19.7855 11.6896Z" fill="#F5F5F5"/>
<path d="M19.7854 12.3471C19.3473 12.3471 19.3473 12.6758 18.9091 12.6758C18.471 12.6758 18.471 12.3471 18.0329 12.3471C17.5949 12.3471 17.5949 12.6758 17.1569 12.6758C16.7187 12.6758 16.7187 12.3471 16.2806 12.3471C15.8651 12.3471 15.8429 12.6421 15.4683 12.6727C15.5004 12.8697 15.5487 13.0816 15.6194 13.2993C15.8592 13.2156 15.9291 13.0044 16.2805 13.0044C16.7186 13.0044 16.7187 13.3331 17.1568 13.3331C17.5948 13.3331 17.5948 13.0044 18.0329 13.0044C18.4709 13.0044 18.4709 13.3331 18.909 13.3331C19.3472 13.3331 19.3472 13.0044 19.7854 13.0044C20.138 13.0044 20.2077 13.2164 20.449 13.2998C20.5197 13.0819 20.5681 12.8699 20.6003 12.6728C20.224 12.6427 20.2021 12.3471 19.7854 12.3471Z" fill="#4173CD"/>
<path d="M19.7855 13.0045C19.3473 13.0045 19.3473 13.3332 18.9091 13.3332C18.471 13.3332 18.471 13.0045 18.033 13.0045C17.595 13.0045 17.595 13.3332 17.1569 13.3332C16.7188 13.3332 16.7188 13.0045 16.2806 13.0045C15.9292 13.0045 15.8592 13.2156 15.6195 13.2994C15.6762 13.4739 15.7479 13.6522 15.8377 13.8298C15.9488 13.7465 16.0583 13.6619 16.2806 13.6619C16.7187 13.6619 16.7187 13.9906 17.1569 13.9906C17.5949 13.9906 17.5949 13.6619 18.033 13.6619C18.471 13.6619 18.471 13.9906 18.9091 13.9906C19.3473 13.9906 19.3473 13.6619 19.7855 13.6619C20.009 13.6619 20.1187 13.7472 20.2305 13.8309C20.3205 13.653 20.3923 13.4746 20.449 13.2999C20.2078 13.2165 20.1382 13.0045 19.7855 13.0045Z" fill="#F5F5F5"/>
<path d="M19.7855 13.662C19.3473 13.662 19.3473 13.9907 18.9092 13.9907C18.4711 13.9907 18.4711 13.662 18.033 13.662C17.595 13.662 17.595 13.9907 17.157 13.9907C16.7188 13.9907 16.7188 13.662 16.2806 13.662C16.0585 13.662 15.9489 13.7465 15.8378 13.8299C15.9233 13.9992 16.0256 14.1677 16.1478 14.3317C16.1875 14.3242 16.2309 14.3195 16.2806 14.3195C16.7188 14.3195 16.7188 14.6482 17.157 14.6482C17.595 14.6482 17.595 14.3195 18.033 14.3195C18.4711 14.3195 18.4711 14.6482 18.9092 14.6482C19.3473 14.6482 19.3473 14.3195 19.7855 14.3195C19.8362 14.3195 19.8805 14.3243 19.9209 14.332C20.0429 14.1683 20.1451 14 20.2306 13.831C20.1188 13.7472 20.0091 13.662 19.7855 13.662Z" fill="#4173CD"/>
<path d="M19.9208 14.3319C19.8805 14.3242 19.8362 14.3194 19.7855 14.3194C19.3473 14.3194 19.3473 14.6481 18.9091 14.6481C18.4711 14.6481 18.4711 14.3194 18.033 14.3194C17.595 14.3194 17.595 14.6481 17.1569 14.6481C16.7188 14.6481 16.7188 14.3194 16.2806 14.3194C16.2309 14.3194 16.1875 14.3241 16.1477 14.3316C16.4141 14.6891 16.7754 15.0244 17.2644 15.2972C17.5974 15.2481 17.6344 14.9768 18.0329 14.9768C18.4322 14.9768 18.4685 15.2493 18.8036 15.2975C19.2929 15.0248 19.6543 14.6896 19.9208 14.3319Z" fill="#F5F5F5"/>
<path d="M18.1165 11.6897H17.9521V14.4839H18.1165V11.6897Z" fill="#FF965A"/>
<path d="M18.5273 12.1003H17.541V12.2647H18.5273V12.1003Z" fill="#FF965A"/>
<path d="M18.5273 13.0865H17.541V13.2509H18.5273V13.0865Z" fill="#FF965A"/>
<path d="M18.5273 12.2644H17.541V12.9146H18.5273V12.2644Z" fill="#FFE15A"/>
<path d="M17.9523 11.6896V12.0183L17.4592 11.854L17.9523 11.6896Z" fill="#FF4B55"/>
<path d="M19.2125 11.6897H19.0481V13.6209H19.2125V11.6897Z" fill="#FF965A"/>
<path d="M19.6232 12.1003H18.637V12.2647H19.6232V12.1003Z" fill="#FF965A"/>
<path d="M19.6232 13.0865H18.637V13.2509H19.6232V13.0865Z" fill="#FF965A"/>
<path d="M19.6232 12.2644H18.637V12.9146H19.6232V12.2644Z" fill="#FFE15A"/>
<path d="M19.048 11.6896V12.0183L18.5549 11.854L19.048 11.6896Z" fill="#FF4B55"/>
<path d="M17.0141 11.6897H16.8497V13.6071H17.0141V11.6897Z" fill="#FF965A"/>
<path d="M17.4253 12.1003H16.4391V12.2647H17.4253V12.1003Z" fill="#FF965A"/>
<path d="M17.4253 13.0865H16.4391V13.2509H17.4253V13.0865Z" fill="#FF965A"/>
<path d="M17.4253 12.2644H16.4391V12.9146H17.4253V12.2644Z" fill="#FFE15A"/>
<path d="M16.8496 11.6896V12.0183L16.3566 11.854L16.8496 11.6896Z" fill="#FF4B55"/>
<path d="M18.8563 13.4976C18.8563 13.9507 18.4876 14.3194 18.0344 14.3194C17.5813 14.3194 17.2126 13.9507 17.2126 13.4976H17.0482H16.8852L15.7721 13.2462L15.7358 13.4065L16.2265 13.5174V13.6619L16.5882 13.8066C16.7308 14.4743 17.3248 14.9767 18.0344 14.9767C18.7369 14.9767 19.3255 14.4839 19.4755 13.8262H20.0067V13.3331L18.8563 13.4976Z" fill="#FF965A"/>
<path d="M20.6642 7.9094C20.6642 7.9094 20.6642 11.0323 20.6642 11.854C20.6642 12.6758 20.4998 14.8125 18.0344 15.6342C15.569 14.8124 15.4047 12.6758 15.4047 11.854C15.4047 11.0323 15.4047 7.9094 15.4047 7.9094H18.0344H20.6642ZM20.8285 7.74506H20.6641H18.0344H15.4046H15.2402V7.90945V11.8541C15.2402 13.8029 16.2141 15.2008 17.9824 15.7902L18.0344 15.8076L18.0863 15.7902C19.8546 15.2008 20.8285 13.8029 20.8285 11.8541V7.90945V7.74506Z" fill="#F5F5F5"/>
<path d="M18.0344 16.456C16.8247 16.456 15.7028 16.0508 15.0334 15.372L15.5015 14.9103C16.05 15.4665 16.9969 15.7986 18.0345 15.7986C19.072 15.7986 20.0189 15.4665 20.5675 14.9103L21.0355 15.372C20.366 16.0508 19.2442 16.456 18.0344 16.456Z" fill="#FF965A"/>
</svg>
