<svg width="24" height="24" viewBox="0 0 24 24" fill="none" xmlns="http://www.w3.org/2000/svg">
<path d="M0 14.6207H24V19.4482C24 19.6767 23.8147 19.862 23.5861 19.862H0.413812C0.185297 19.862 0 19.6767 0 19.4482V14.6207Z" fill="#F5F5F5"/>
<path d="M0.413812 4.13794H23.5862C23.8147 4.13794 24 4.32324 24 4.55175V9.3793H0V4.5517C0 4.32319 0.185297 4.13794 0.413812 4.13794Z" fill="#FF4B55"/>
<path d="M24 9.37921H0V14.6203H24V9.37921Z" fill="#41479B"/>
<path d="M8.11028 9.37827H5.13096L5.00684 8.63342H8.23441L8.11028 9.37827Z" fill="#FFE15A"/>
<path d="M5.09998 9.19202L5.13101 9.37825H8.11033L8.14136 9.19202H5.09998Z" fill="#FFD350"/>
<path d="M6.68284 6.89532H6.55872V7.39187H6.68284V6.89532Z" fill="#FFE15A"/>
<path d="M6.80687 7.01953H6.43445V7.14366H6.80687V7.01953Z" fill="#FFE15A"/>
<path d="M8.12002 8.8817C8.10595 8.8817 8.0917 8.87926 8.07769 8.87429C8.01324 8.8509 7.97991 8.77975 8.0033 8.71525L8.26627 7.98958C8.2793 7.95358 8.2762 7.91397 8.25783 7.88087C8.24803 7.86329 8.22525 7.83236 8.1817 7.82303C7.86113 7.75492 7.23971 7.64036 6.68063 7.64036H6.56072C6.00165 7.64036 5.38022 7.75492 5.05951 7.82317C5.0161 7.83236 4.99323 7.86329 4.98348 7.88087C4.9651 7.91397 4.96201 7.95358 4.97509 7.98958L5.23796 8.71525C5.26135 8.77975 5.22802 8.8509 5.16357 8.87429C5.09916 8.89731 5.02787 8.86421 5.00457 8.79986L4.7416 8.07418C4.7041 7.97064 4.71305 7.85631 4.76626 7.7604C4.81768 7.66769 4.90562 7.60197 5.00762 7.58026C5.33794 7.50995 5.97877 7.39197 6.56063 7.39197H6.68054C7.26239 7.39197 7.90322 7.5099 8.23341 7.58008C8.33555 7.60192 8.42348 7.66759 8.47491 7.76036C8.52811 7.85626 8.53706 7.97054 8.49961 8.07414L8.23659 8.79981C8.21845 8.85034 8.17074 8.8817 8.12002 8.8817Z" fill="#FFE15A"/>
<path d="M6.62107 8.77309C6.55254 8.77309 6.49695 8.71759 6.49695 8.64897V7.64036C6.49695 7.57174 6.55254 7.51624 6.62107 7.51624C6.6896 7.51624 6.7452 7.57174 6.7452 7.64036V8.64897C6.74524 8.71755 6.68965 8.77309 6.62107 8.77309Z" fill="#FFE15A"/>
<path d="M7.47933 8.88171C7.47094 8.88171 7.46246 8.88087 7.45397 8.87918C7.38685 8.86521 7.34368 8.79954 7.35764 8.73237L7.50821 8.0067C7.5278 7.91215 7.49714 7.82932 7.47971 7.81479C7.30758 7.75165 6.96226 7.64033 6.65499 7.64033H6.58632C6.2791 7.64033 5.93377 7.75165 5.75523 7.81803C5.74421 7.82932 5.71355 7.91211 5.7331 8.00665L5.88366 8.73232C5.89763 8.79945 5.85451 8.86521 5.78733 8.87914C5.72012 8.89212 5.6544 8.84993 5.64062 8.78276L5.49005 8.05709C5.45255 7.8762 5.51012 7.64454 5.66855 7.58539C5.90588 7.49717 6.25754 7.39203 6.58627 7.39203H6.65494C6.98372 7.39203 7.33538 7.49712 7.57257 7.58525C7.73114 7.64454 7.78871 7.8762 7.75121 8.05709L7.60064 8.78276C7.58855 8.8415 7.53689 8.88171 7.47933 8.88171Z" fill="#FFE15A"/>
<path d="M5.03787 8.81961H8.20338L8.23441 8.63342H5.00684L5.03787 8.81961Z" fill="#FFD350"/>
<path d="M4.26206 9.37823C4.19353 9.37823 4.13794 9.43383 4.13794 9.50236V13.8376C4.13794 15.2141 5.24948 16.33 6.62072 16.33C7.99195 16.33 9.10349 15.2141 9.10349 13.8376V9.50236C9.10349 9.43383 9.0479 9.37823 8.97937 9.37823H4.26206Z" fill="#FF4B55"/>
<path d="M6.869 13.4749L7.1173 12.8542L6.62075 12.9783L6.12421 12.8542L6.3725 13.4749L5.75183 15.5852C5.75183 15.5852 6.12425 15.8335 6.6208 15.8335C7.11734 15.8335 7.48977 15.5852 7.48977 15.5852L6.869 13.4749Z" fill="#F5F5F5"/>
<path d="M5.72154 13.9751L5.50249 14.0299L5.98432 13.1626L5.76729 13.0421L5.18206 14.0955H4.63442V14.3438H4.90113L4.55688 14.6192L4.71195 14.8131L5.0044 14.5791L4.88904 14.9252L5.12459 15.0037L5.35132 14.3235L5.78177 14.2159L5.72154 13.9751Z" fill="#FFE15A"/>
<path d="M5.75174 10.6196L5.18507 10.3362C5.08101 10.2842 5.02701 10.1668 5.05523 10.0539L5.08729 9.92573C5.10951 9.83677 5.04224 9.75061 4.95051 9.75061C4.90767 9.75061 4.86717 9.77006 4.84045 9.80353C4.5464 10.1711 4.38623 10.6277 4.38623 11.0985V13.723C4.38623 13.723 4.90462 13.6194 5.37285 12.9382C5.45882 12.8132 5.60034 12.7392 5.75123 12.7314L5.50345 13.4747L6.00004 13.5989L6.43452 13.0819L5.75174 10.6196Z" fill="#F5F5F5"/>
<path d="M7.51974 13.9751L7.73879 14.0299L7.25696 13.1626L7.47399 13.0421L8.05918 14.0955H8.60686V14.3438H8.3401L8.68439 14.6192L8.52933 14.8131L8.23688 14.5791L8.35224 14.9252L8.11664 15.0037L7.88996 14.3235L7.4595 14.2159L7.51974 13.9751Z" fill="#FFE15A"/>
<path d="M7.48962 10.6196L8.05629 10.3362C8.16035 10.2842 8.21435 10.1668 8.18613 10.0539L8.15407 9.92573C8.13185 9.83677 8.19912 9.75061 8.29085 9.75061C8.33369 9.75061 8.37419 9.77006 8.40091 9.80353C8.69496 10.1711 8.85513 10.6277 8.85513 11.0985V13.723C8.85513 13.723 8.33674 13.6194 7.86851 12.9382C7.78254 12.8132 7.64102 12.7392 7.49013 12.7314L7.73791 13.4747L7.24137 13.5989L6.80688 13.0818L7.48962 10.6196Z" fill="#F5F5F5"/>
<path d="M5.87584 9.75061H5.25513L5.44136 9.99891L5.87584 10.123L5.62755 10.2472H5.99997L5.87584 9.75061Z" fill="#FFE15A"/>
<path d="M7.36546 9.75061H7.98613L7.79994 9.99891L7.36546 10.123L7.61375 10.2472H7.24133L7.36546 9.75061Z" fill="#FFE15A"/>
<path d="M7.45294 9.6533L6.86897 9.75061L6.62068 10.2472L6.37238 9.75061L5.78841 9.6533C5.72147 9.64214 5.6701 9.71166 5.70047 9.77236L6 10.3713L5.75171 10.6196H6.62068H7.48964L7.24135 10.3713L7.54083 9.77236C7.5712 9.71161 7.51988 9.64209 7.45294 9.6533Z" fill="#F5F5F5"/>
<path d="M6.62064 8.87396C6.72346 8.87396 6.80682 8.7906 6.80682 8.68777C6.80682 8.58495 6.72346 8.50159 6.62064 8.50159C6.51781 8.50159 6.43445 8.58495 6.43445 8.68777C6.43445 8.7906 6.51781 8.87396 6.62064 8.87396Z" fill="#FFBE50"/>
<path d="M6.61821 9.23559C6.69947 9.23559 6.76535 9.18927 6.76535 9.13214C6.76535 9.075 6.69947 9.02869 6.61821 9.02869C6.53695 9.02869 6.47107 9.075 6.47107 9.13214C6.47107 9.18927 6.53695 9.23559 6.61821 9.23559Z" fill="#41479B"/>
<path d="M5.88371 9.23559C5.96498 9.23559 6.03085 9.18927 6.03085 9.13214C6.03085 9.075 5.96498 9.02869 5.88371 9.02869C5.80245 9.02869 5.73657 9.075 5.73657 9.13214C5.73657 9.18927 5.80245 9.23559 5.88371 9.23559Z" fill="#FF4B55"/>
<path d="M5.14922 9.23559C5.23048 9.23559 5.29636 9.18927 5.29636 9.13214C5.29636 9.075 5.23048 9.02869 5.14922 9.02869C5.06795 9.02869 5.00208 9.075 5.00208 9.13214C5.00208 9.18927 5.06795 9.23559 5.14922 9.23559Z" fill="#41479B"/>
<path d="M8.08684 9.23559C8.1681 9.23559 8.23398 9.18927 8.23398 9.13214C8.23398 9.075 8.1681 9.02869 8.08684 9.02869C8.00557 9.02869 7.9397 9.075 7.9397 9.13214C7.9397 9.18927 8.00557 9.23559 8.08684 9.23559Z" fill="#41479B"/>
<path d="M7.35234 9.23559C7.4336 9.23559 7.49948 9.18927 7.49948 9.13214C7.49948 9.075 7.4336 9.02869 7.35234 9.02869C7.27108 9.02869 7.2052 9.075 7.2052 9.13214C7.2052 9.18927 7.27108 9.23559 7.35234 9.23559Z" fill="#FF4B55"/>
<path d="M7.48355 8.87396C7.58638 8.87396 7.66974 8.7906 7.66974 8.68777C7.66974 8.58495 7.58638 8.50159 7.48355 8.50159C7.38072 8.50159 7.29736 8.58495 7.29736 8.68777C7.29736 8.7906 7.38072 8.87396 7.48355 8.87396Z" fill="#FFBE50"/>
<path d="M8.16421 8.87396C8.26704 8.87396 8.3504 8.7906 8.3504 8.68777C8.3504 8.58495 8.26704 8.50159 8.16421 8.50159C8.06139 8.50159 7.97803 8.58495 7.97803 8.68777C7.97803 8.7906 8.06139 8.87396 8.16421 8.87396Z" fill="#FFBE50"/>
<path d="M5.75906 8.87396C5.86189 8.87396 5.94525 8.7906 5.94525 8.68777C5.94525 8.58495 5.86189 8.50159 5.75906 8.50159C5.65623 8.50159 5.57288 8.58495 5.57288 8.68777C5.57288 8.7906 5.65623 8.87396 5.75906 8.87396Z" fill="#FFBE50"/>
<path d="M5.07791 8.87396C5.18074 8.87396 5.2641 8.7906 5.2641 8.68777C5.2641 8.58495 5.18074 8.50159 5.07791 8.50159C4.97508 8.50159 4.89172 8.58495 4.89172 8.68777C4.89172 8.7906 4.97508 8.87396 5.07791 8.87396Z" fill="#FFBE50"/>
<path d="M6.83445 7.6403C6.85578 7.6037 6.86891 7.56165 6.86891 7.51618C6.86891 7.37907 6.75777 7.26788 6.62061 7.26788C6.48345 7.26788 6.37231 7.37902 6.37231 7.51618C6.37231 7.56165 6.38539 7.6037 6.40677 7.6403H6.83445Z" fill="#41479B"/>
<path d="M6.6206 13.1645C6.10718 13.1645 5.68958 12.7468 5.68958 12.2334V10.5576H7.55163V12.2334C7.55163 12.7469 7.13403 13.1645 6.6206 13.1645Z" fill="#FF4B55"/>
<path d="M7.48958 10.6196V12.2334C7.48958 12.7133 7.10051 13.1024 6.62061 13.1024C6.1407 13.1024 5.75164 12.7133 5.75164 12.2334V10.6196H7.48958ZM7.61375 10.4955H7.48962H5.75169H5.62756V10.6196V12.2334C5.62756 12.781 6.07306 13.2265 6.62066 13.2265C7.16825 13.2265 7.61375 12.781 7.61375 12.2334V10.6196V10.4955Z" fill="#A54B50"/>
<path d="M6.43449 13.0819C6.49454 13.095 6.5567 13.1023 6.62068 13.1023C6.68467 13.1023 6.74682 13.0949 6.80687 13.0819V10.6196H6.43445L6.43449 13.0819Z" fill="#F5F5F5"/>
<path d="M7.48971 11.6437H5.75159V12.0162H7.48971V11.6437Z" fill="#F5F5F5"/>
</svg>
