<svg width="24" height="24" viewBox="0 0 24 24" fill="none" xmlns="http://www.w3.org/2000/svg">
<path d="M24 9.37934H0V4.55174C0 4.32322 0.185297 4.13792 0.413812 4.13792H23.5862C23.8147 4.13792 24 4.32322 24 4.55174L24 9.37934Z" fill="#82AFFF"/>
<path d="M23.5861 19.8621H0.413812C0.185297 19.8621 0 19.6768 0 19.4483V14.6207H24V19.4483C24 19.6768 23.8147 19.8621 23.5861 19.8621Z" fill="#82AFFF"/>
<path d="M24 9.37924H0V14.6203H24V9.37924Z" fill="#FFE15A"/>
<path d="M0.152625 19.762L9.66078 12.2145C9.79887 12.1049 9.79887 11.8952 9.66078 11.7855L0.152625 4.23801C0.061453 4.3139 0 4.42387 0 4.55174V19.4483C0 19.5762 0.061453 19.6861 0.152625 19.762Z" fill="#464655"/>
</svg>
