<svg width="24" height="24" viewBox="0 0 24 24" fill="none" xmlns="http://www.w3.org/2000/svg">
<path d="M23.5861 19.8621H0.413812C0.185297 19.8621 0 19.6768 0 19.4483V4.55175C0 4.32324 0.185297 4.13794 0.413812 4.13794H23.5862C23.8147 4.13794 24 4.32324 24 4.55175V19.4483C24 19.6768 23.8147 19.8621 23.5861 19.8621Z" fill="#41479B"/>
<path d="M24 14.8964H0V16.9655H24V14.8964Z" fill="#FFE15A"/>
<path d="M5.57556 8.00942L5.16855 9.22976L3.88216 9.23974C3.75878 9.24068 3.70764 9.39813 3.80688 9.4714L4.84173 10.2356L4.4537 11.462C4.41653 11.5796 4.55041 11.677 4.65077 11.6052L5.69734 10.8572L6.74392 11.6052C6.84428 11.6769 6.9782 11.5796 6.94098 11.462L6.55295 10.2356L7.58781 9.4714C7.68709 9.39809 7.6359 9.24073 7.51253 9.23974L6.22614 9.22976L5.81912 8.00942C5.78012 7.89237 5.61461 7.89237 5.57556 8.00942Z" fill="#F5F5F5"/>
<path d="M2.64346 5.75747L2.40791 6.46382L1.66335 6.46964C1.59196 6.4702 1.56233 6.56128 1.6198 6.6037L2.21877 7.04601L1.99419 7.75593C1.97268 7.82399 2.05016 7.88034 2.10824 7.83881L2.71395 7.40582L3.31967 7.83881C3.37775 7.88034 3.45528 7.82399 3.43372 7.75593L3.20914 7.04601L3.80811 6.6037C3.86553 6.56128 3.83595 6.47015 3.76456 6.46964L3.02 6.46382L2.78445 5.75747C2.76186 5.68973 2.66605 5.68973 2.64346 5.75747Z" fill="#F5F5F5"/>
</svg>
