<svg width="24" height="24" viewBox="0 0 24 24" fill="none" xmlns="http://www.w3.org/2000/svg">
<path d="M0.413763 19.862H23.5861C23.8147 19.862 24 19.6767 24 19.4482V14.6207L0.227295 19.8123C0.283967 19.8416 0.34556 19.862 0.413763 19.862Z" fill="#73AF00"/>
<path d="M8 4.13794H0.413812C0.185297 4.13794 0 4.32324 0 4.55175V19.4482C0 19.5407 0.0360468 19.6216 0.0872811 19.6905L8 4.13794Z" fill="#41479B"/>
<path d="M0.122483 19.7418L16 4.138H8L0.0872803 19.6905C0.0996553 19.7072 0.107718 19.7271 0.122483 19.7418Z" fill="#FFE15A"/>
<path d="M23.5861 4.13794H15.9999L0.122437 19.7418C0.13964 19.7588 0.162655 19.7684 0.182624 19.7823L23.9999 9.3793V4.55175C23.9999 4.32324 23.8146 4.13794 23.5861 4.13794Z" fill="#FF4B55"/>
<path d="M0.227336 19.8123L23.9999 14.6206V9.37927L0.182617 19.7822C0.197477 19.7925 0.211164 19.8041 0.227336 19.8123Z" fill="#F5F5F5"/>
</svg>
