<svg width="24" height="24" viewBox="0 0 24 24" fill="none" xmlns="http://www.w3.org/2000/svg">
<path d="M0 14.6207H24V19.4482C24 19.6767 23.8147 19.862 23.5861 19.862H0.413812C0.185297 19.862 0 19.6767 0 19.4482V14.6207Z" fill="#73AF00"/>
<path d="M0.413812 4.13794H23.5862C23.8147 4.13794 24 4.32324 24 4.55175V9.3793H0V4.5517C0 4.32319 0.185297 4.13794 0.413812 4.13794Z" fill="#FF4B55"/>
<path d="M24 9.37921H0V14.6203H24V9.37921Z" fill="#F5F5F5"/>
<path d="M10.6439 13.4782C10.8159 13.3915 10.9165 13.2486 10.9704 13.1455C11.2786 13.3469 11.5427 13.2785 11.6803 13.2141C11.8146 13.1512 11.9252 13.0485 11.999 12.944C12.0728 13.0485 12.1834 13.1512 12.3176 13.2141C12.4552 13.2785 12.7193 13.3467 13.0275 13.1455C13.0814 13.2486 13.182 13.3914 13.3541 13.4782C13.4533 13.5281 13.5626 13.5532 13.6812 13.5532C13.8031 13.5532 13.9347 13.5268 14.0753 13.4741L14.007 13.292C13.7834 13.3758 13.5937 13.3804 13.4434 13.3054C13.233 13.2005 13.1628 12.9693 13.1622 12.9674L13.1212 12.8238L13.0065 12.9193C12.8041 13.0879 12.5945 13.1292 12.4001 13.0379C12.2027 12.9455 12.0962 12.7584 12.0962 12.7023V11.8629C12.1383 11.7703 12.2311 11.7055 12.3393 11.7055C12.3765 11.7055 12.4132 11.7135 12.4485 11.7294L12.5688 11.7838L12.5506 11.6529C12.5125 11.3779 12.2752 11.1706 11.9989 11.1706C11.7225 11.1706 11.4854 11.3779 11.4472 11.6529L11.429 11.7838L11.5494 11.7294C11.5846 11.7135 11.6214 11.7055 11.6586 11.7055C11.7667 11.7055 11.8596 11.7703 11.9017 11.8629V12.7023C11.9017 12.7584 11.7952 12.9455 11.5977 13.0379C11.4034 13.1292 11.1938 13.088 10.9913 12.9193L10.8775 12.825L10.8356 12.967C10.835 12.9693 10.7647 13.2005 10.5543 13.3054C10.4039 13.3804 10.2143 13.3759 9.99066 13.292L9.92236 13.4741C10.0629 13.5268 10.1947 13.5532 10.3165 13.5532C10.4353 13.5532 10.5446 13.5282 10.6439 13.4782ZM11.6586 11.5596C11.6469 11.5596 11.6354 11.56 11.6238 11.5611C11.6889 11.4159 11.8345 11.3164 11.9989 11.3164C12.1633 11.3164 12.309 11.4159 12.3741 11.5611C12.2228 11.5477 12.0798 11.6216 11.9989 11.7387C11.9243 11.6305 11.7996 11.5596 11.6586 11.5596Z" fill="#FFCD5A"/>
<path d="M10.3149 14.0966L10.3766 14.281C10.7901 14.143 11.3815 14.0638 11.999 14.0638C12.6165 14.0638 13.208 14.143 13.6215 14.281L13.6831 14.0966C13.2505 13.9521 12.6367 13.8693 11.999 13.8693C11.3614 13.8693 10.7475 13.9521 10.3149 14.0966Z" fill="#FFCD5A"/>
<path d="M11.999 13.6748C12.1004 13.6751 12.1897 13.6148 12.2502 13.5337C12.21 13.5089 12.1563 13.4943 12.0954 13.4868C12.0955 13.4846 12.0962 13.4826 12.0962 13.4803C12.0962 13.3969 12.0568 13.3249 11.999 13.2858C11.9411 13.3249 11.9018 13.3969 11.9018 13.4803C11.9018 13.4825 11.9025 13.4845 11.9026 13.4868C11.8418 13.4943 11.7881 13.5088 11.7478 13.5337C11.8082 13.6148 11.8976 13.675 11.999 13.6748Z" fill="#FFCD5A"/>
<path d="M11.1064 13.7667C11.2058 13.7467 11.2813 13.6698 11.3243 13.5782C11.2799 13.5619 11.2244 13.5584 11.1633 13.5632C11.1629 13.5611 11.1632 13.5589 11.1628 13.5567C11.1461 13.4751 11.0932 13.4123 11.0286 13.3856C10.9797 13.4355 10.9555 13.514 10.9722 13.5956C10.9727 13.5978 10.9738 13.5997 10.9742 13.6018C10.9162 13.6214 10.8664 13.6463 10.832 13.6787C10.9075 13.7461 11.0071 13.7873 11.1064 13.7667Z" fill="#FFCD5A"/>
<path d="M12.9694 13.3856C12.9048 13.4123 12.8519 13.475 12.8352 13.5567C12.8348 13.5589 12.8351 13.561 12.8347 13.5632C12.7736 13.5584 12.7181 13.5619 12.6737 13.5782C12.7167 13.6698 12.7923 13.7467 12.8916 13.7667C12.991 13.7872 13.0905 13.7461 13.166 13.6786C13.1316 13.6462 13.0818 13.6212 13.0238 13.6017C13.0243 13.5995 13.0254 13.5977 13.0258 13.5955C13.0425 13.5139 13.0182 13.4355 12.9694 13.3856Z" fill="#FFCD5A"/>
<path d="M11.973 9.80388L11.9075 10.0003L11.7005 10.0019C11.6737 10.0021 11.6625 10.0363 11.6841 10.0523L11.8507 10.1753L11.7882 10.3727C11.7802 10.3983 11.8092 10.4194 11.8311 10.4038L11.9995 10.2834L12.168 10.4038C12.1898 10.4194 12.2189 10.3983 12.2108 10.3727L12.1484 10.1753L12.3149 10.0523C12.3365 10.0363 12.3254 10.0022 12.2985 10.0019L12.0915 10.0003L12.026 9.80388C12.0175 9.77843 11.9815 9.77843 11.973 9.80388Z" fill="#FFCD5A"/>
<path d="M10.7877 10.128L10.7222 10.3245L10.5152 10.3261C10.4884 10.3263 10.4772 10.3605 10.4988 10.3764L10.6654 10.4994L10.6029 10.6969C10.5948 10.7224 10.6239 10.7436 10.6457 10.728L10.8142 10.6076L10.9826 10.728C11.0045 10.7436 11.0336 10.7225 11.0255 10.6969L10.963 10.4994L11.1296 10.3764C11.1511 10.3605 11.14 10.3263 11.1132 10.3261L10.9061 10.3245L10.8406 10.128C10.8322 10.1026 10.7962 10.1026 10.7877 10.128Z" fill="#FFCD5A"/>
<path d="M9.91653 11.0032L9.85099 11.1997L9.64395 11.2013C9.61714 11.2015 9.60603 11.2357 9.62759 11.2516L9.79414 11.3746L9.7317 11.5721C9.72364 11.5976 9.7527 11.6188 9.77454 11.6032L9.94301 11.4828L10.1115 11.6032C10.1333 11.6188 10.1624 11.5977 10.1543 11.5721L10.0919 11.3746L10.2584 11.2516C10.28 11.2357 10.2689 11.2015 10.2421 11.2013L10.035 11.1997L9.96949 11.0032C9.96096 10.9778 9.92501 10.9778 9.91653 11.0032Z" fill="#FFCD5A"/>
<path d="M9.59646 12.1865L9.53093 12.383L9.32388 12.3846C9.29707 12.3847 9.28596 12.419 9.30752 12.4349L9.47407 12.5579L9.41158 12.7553C9.40352 12.7809 9.43258 12.802 9.45443 12.7865L9.62289 12.666L9.79136 12.7865C9.81321 12.802 9.84227 12.7809 9.83421 12.7553L9.77172 12.5579L9.93827 12.4349C9.95983 12.419 9.94872 12.3848 9.92191 12.3846L9.71486 12.383L9.64933 12.1865C9.6409 12.1611 9.60494 12.1611 9.59646 12.1865Z" fill="#FFCD5A"/>
<path d="M13.2123 10.128L13.2779 10.3245L13.4849 10.3261C13.5117 10.3263 13.5228 10.3605 13.5013 10.3764L13.3347 10.4994L13.3972 10.6969C13.4053 10.7224 13.3762 10.7436 13.3544 10.728L13.1859 10.6076L13.0174 10.728C12.9956 10.7436 12.9665 10.7225 12.9746 10.6969L13.0371 10.4994L12.8705 10.3764C12.8489 10.3605 12.8601 10.3263 12.8869 10.3261L13.0939 10.3245L13.1594 10.128C13.1679 10.1026 13.2038 10.1026 13.2123 10.128Z" fill="#FFCD5A"/>
<path d="M14.0834 11.0032L14.1489 11.1997L14.356 11.2013C14.3828 11.2015 14.3939 11.2357 14.3724 11.2516L14.2058 11.3746L14.2683 11.5721C14.2764 11.5976 14.2473 11.6188 14.2254 11.6032L14.057 11.4828L13.8885 11.6032C13.8667 11.6188 13.8376 11.5977 13.8457 11.5721L13.9081 11.3746L13.7416 11.2516C13.72 11.2357 13.7311 11.2015 13.758 11.2013L13.965 11.1997L14.0305 11.0032C14.039 10.9778 14.0749 10.9778 14.0834 11.0032Z" fill="#FFCD5A"/>
<path d="M14.4036 12.1865L14.4691 12.383L14.6762 12.3846C14.703 12.3847 14.7141 12.419 14.6925 12.4349L14.526 12.5579L14.5884 12.7553C14.5965 12.7809 14.5674 12.802 14.5456 12.7865L14.3771 12.666L14.2086 12.7865C14.1868 12.802 14.1577 12.7809 14.1658 12.7553L14.2282 12.5579L14.0617 12.4349C14.0401 12.419 14.0512 12.3848 14.078 12.3846L14.2851 12.383L14.3506 12.1865C14.3591 12.1611 14.3951 12.1611 14.4036 12.1865Z" fill="#FFCD5A"/>
</svg>
