<svg width="24" height="24" viewBox="0 0 24 24" fill="none" xmlns="http://www.w3.org/2000/svg">
<path d="M23.5861 4.13794H0.41381C0.185296 4.13794 0 4.32319 0 4.5517V19.4482C0 19.6767 0.185296 19.862 0.41381 19.862H23.5861C23.8146 19.862 23.9999 19.6767 23.9999 19.4482V4.5517C23.9999 4.32319 23.8146 4.13794 23.5861 4.13794Z" fill="#73AF00"/>
<path d="M18.2067 9.51697H15.3102V19.8618H18.2067V9.51697Z" fill="#FF4B55"/>
<path d="M21.1032 9.51697H18.2067V19.8618H21.1032V9.51697Z" fill="#464655"/>
<path d="M23.9999 9.51697H21.1034V19.8618H23.9999V9.51697Z" fill="#FF9B55"/>
<path d="M23.2944 6.04022C23.3034 6.02208 23.2991 6.00014 23.2839 5.98673C23.2687 5.97328 23.2463 5.97187 23.2295 5.98303C23.1458 6.03858 23.0615 6.08906 22.9778 6.13486C23.2471 5.91225 23.2849 5.71894 23.2873 5.70487C23.2904 5.6872 23.2825 5.66939 23.2674 5.65969C23.2523 5.64989 23.2329 5.65017 23.218 5.66025C22.9271 5.85759 22.6359 5.99845 22.3848 6.09759C22.722 5.88454 22.8556 5.66719 22.8638 5.65345C22.8743 5.63583 22.8715 5.61328 22.857 5.5988C22.8424 5.58427 22.8199 5.58159 22.8023 5.59214C22.533 5.75442 22.2142 5.88234 21.9095 5.98092C21.9499 5.91848 21.9788 5.84836 21.9529 5.80894C21.9288 5.77242 21.885 5.77242 21.8223 5.80908C21.6954 5.88342 20.7343 6.12843 20.3618 6.2197C19.9822 6.15112 19.6677 6.24839 19.5697 6.28434C19.5436 6.25326 19.5317 6.22317 19.5266 6.19964C19.5185 6.16134 19.5244 6.12243 19.5425 6.09548C19.5721 6.05156 19.6331 6.04734 19.687 6.04364C19.7104 6.04204 19.7313 6.04059 19.7496 6.036C19.7613 6.03947 19.7756 6.04622 19.7754 6.05147C19.7743 6.0719 19.7872 6.09037 19.8067 6.09651C19.8263 6.10261 19.8473 6.09483 19.8581 6.07743C19.8609 6.07303 19.9242 5.96939 19.8752 5.88112C19.8395 5.81695 19.7576 5.7832 19.6317 5.78076C19.58 5.74472 19.3848 5.62734 19.1442 5.71805C18.9006 5.80997 18.7924 6.06018 18.7567 6.16593C18.5671 6.13959 17.6965 6.00675 17.2232 5.72892C17.2002 5.71847 17.1217 5.68762 17.0778 5.72944C17.0509 5.75498 17.0477 5.79464 17.0683 5.84737C17.0793 5.87531 17.0961 5.90259 17.1185 5.9294C16.8651 5.81311 16.5236 5.65069 16.2654 5.50627C16.225 5.48756 16.1518 5.46216 16.1139 5.50177C16.0903 5.5267 16.0906 5.56289 16.115 5.60948C16.1202 5.61933 16.1253 5.6303 16.1308 5.64234C16.1559 5.69648 16.1902 5.77031 16.2739 5.85553C16.2113 5.82136 16.1549 5.7862 16.1098 5.75105C15.8832 5.57475 15.8525 5.5575 15.8119 5.58487C15.7769 5.60841 15.7882 5.6482 15.8002 5.69034L15.8033 5.70145C15.8131 5.73647 15.8292 5.79291 15.8732 5.86097C15.8381 5.83706 15.8079 5.83219 15.7842 5.84878C15.77 5.85858 15.7487 5.88295 15.7651 5.93667C15.8045 6.06515 16.0768 6.40345 16.5949 6.50306C16.5428 6.51065 16.488 6.51628 16.4352 6.51735C16.4151 6.51778 16.3977 6.53151 16.3927 6.55096C16.3877 6.57042 16.3963 6.5909 16.4137 6.60088C16.4232 6.60632 16.6063 6.70879 16.942 6.70017C16.8918 6.71282 16.8349 6.72257 16.7719 6.72632C16.7523 6.72749 16.7357 6.74127 16.731 6.76031C16.7263 6.77934 16.7346 6.79921 16.7514 6.80934C16.7614 6.81538 16.9562 6.92995 17.2578 6.91302L17.2315 6.9292C17.2164 6.93852 17.2082 6.95582 17.2106 6.9734C17.213 6.99098 17.2256 7.00551 17.2427 7.01038C17.2521 7.01305 17.4221 7.0604 17.6339 7.03799L17.5967 7.06448C17.5817 7.07512 17.5747 7.09382 17.5791 7.11158C17.5835 7.1294 17.5983 7.14276 17.6165 7.14529C17.6203 7.14585 17.6477 7.14937 17.6915 7.14937C17.7205 7.14937 17.7566 7.14777 17.7977 7.14276C17.7968 7.15344 17.798 7.16408 17.8016 7.17468C17.8227 7.23847 17.9167 7.2539 17.948 7.25432C17.9499 7.25436 17.9517 7.25437 17.9536 7.25437C17.9915 7.25437 18.0314 7.24902 18.0722 7.24091C18.1375 7.3019 18.2567 7.29632 18.3723 7.26941C18.3655 7.27982 18.3603 7.29022 18.357 7.30049C18.3503 7.32163 18.3554 7.34319 18.3705 7.35829C18.3852 7.37286 18.4207 7.40816 18.744 7.31722C18.7426 7.31826 18.7413 7.31929 18.7399 7.32032C18.697 7.3536 18.6997 7.38796 18.7052 7.40549C18.725 7.46905 18.8676 7.50979 19.1263 7.52713C19.1321 7.67103 19.0921 7.82731 19.0916 7.82905C19.0871 7.84625 19.0933 7.86453 19.1073 7.87555C19.1213 7.88647 19.1404 7.88816 19.1562 7.87977C19.1711 7.87171 19.1861 7.8613 19.2001 7.8501L19.1989 7.89767C19.1984 7.91497 19.2079 7.93095 19.2233 7.93874C19.2298 7.94202 19.2367 7.94361 19.2437 7.94361C19.2454 7.94361 19.2471 7.943 19.2488 7.94277C19.244 7.98331 19.2275 8.03174 19.1756 8.04313C19.152 8.04828 19.127 8.05081 19.1028 8.0533C18.9926 8.06459 18.8678 8.07739 18.8481 8.32981C18.8466 8.34875 18.8572 8.36661 18.8746 8.3743C18.892 8.38189 18.9123 8.37786 18.9253 8.36408L18.9733 8.31308C19.0015 8.32002 19.0465 8.32714 19.0946 8.31936C19.0825 8.37776 19.0861 8.44967 19.1445 8.51065C19.1572 8.52383 19.1766 8.528 19.1936 8.5212C19.2105 8.51436 19.2216 8.4979 19.2216 8.47967V8.44733C19.2494 8.44086 19.2863 8.42736 19.3212 8.39961C19.3416 8.44372 19.3806 8.49547 19.4549 8.53915C19.4619 8.54328 19.4698 8.54529 19.4776 8.54529C19.4878 8.54529 19.498 8.54178 19.5062 8.53494C19.5207 8.52289 19.5261 8.50297 19.5196 8.48515L19.4962 8.42084C19.5125 8.40476 19.5337 8.38175 19.5522 8.35719C19.5614 8.3705 19.5768 8.37814 19.5932 8.37655C19.6102 8.37491 19.6248 8.3637 19.6308 8.34767L19.6473 8.30384C19.657 8.30117 19.6662 8.29794 19.6751 8.29433C19.6861 8.39131 19.7607 8.47203 19.7652 8.47681C19.7738 8.4859 19.7856 8.49092 19.7978 8.49092C19.8014 8.49092 19.8051 8.4905 19.8087 8.48956C19.8245 8.48558 19.8369 8.47344 19.8411 8.45773L19.8661 8.36464C19.9322 8.33112 19.9386 8.27052 19.9427 8.23273C19.9435 8.22533 19.9446 8.21506 19.9448 8.20986C19.9706 8.22256 20.0253 8.28406 20.0666 8.34786C20.0748 8.36052 20.089 8.3683 20.104 8.36834C20.1194 8.36726 20.1333 8.36089 20.1416 8.34828C20.1416 8.34828 20.1766 8.29531 20.1936 8.26442C20.2658 8.13341 20.1565 8.05494 20.1039 8.01725C20.091 8.00797 20.0733 7.99531 20.0705 7.9918C20.0606 7.9678 20.0641 7.94544 20.0706 7.9281C20.1144 7.95828 20.1642 7.98374 20.2194 7.99672C20.2228 7.99756 20.2263 7.99789 20.2296 7.99789C20.244 7.99789 20.2578 7.99091 20.2663 7.97877C20.2768 7.96377 20.2771 7.94385 20.2671 7.92856C20.2661 7.92702 20.1837 7.80036 20.1307 7.6446C20.2164 7.69489 20.3324 7.7556 20.3926 7.7556C20.4339 7.7556 20.4496 7.72991 20.4545 7.71889C20.4574 7.71243 20.4625 7.70071 20.4585 7.67877C20.5381 7.7218 20.628 7.75517 20.6963 7.73755C20.7164 7.73239 20.7637 7.72016 20.7709 7.67774C20.7745 7.65627 20.7673 7.63888 20.7514 7.62177C20.8254 7.63972 20.9051 7.64868 20.9834 7.63832C21.0486 7.62974 21.0678 7.5981 21.0724 7.57302C21.0754 7.55699 21.0806 7.52619 21.0225 7.46797C21.1348 7.46183 21.2351 7.43727 21.2434 7.36949C21.2441 7.3634 21.243 7.35786 21.2424 7.35215C21.6036 7.31277 21.8784 7.08693 21.8905 7.07676C21.894 7.0738 21.8964 7.07015 21.8988 7.06644C22.1174 7.03912 22.3658 6.98976 22.5668 6.89938C22.9462 6.72881 23.1383 6.49851 23.1039 6.41493C23.094 6.3906 23.0653 6.37303 23.0299 6.38625C23.0199 6.38995 22.9998 6.3981 22.9735 6.40879C23.1982 6.22631 23.286 6.05709 23.2944 6.04022Z" fill="#FF9B55"/>
<path d="M23.2945 6.04022C23.3035 6.02208 23.2992 6.00014 23.284 5.98673C23.2687 5.97328 23.2464 5.97187 23.2296 5.98303C23.1459 6.03862 23.0615 6.08906 22.9779 6.13486C23.2472 5.91225 23.285 5.71894 23.2874 5.70488C23.2904 5.6872 23.2825 5.66935 23.2675 5.65969C23.2524 5.64989 23.2329 5.65013 23.2181 5.66025C22.9271 5.85759 22.636 5.99845 22.3849 6.09759C22.7221 5.88455 22.8557 5.66724 22.8639 5.6535C22.8744 5.63588 22.8715 5.61333 22.857 5.5988C22.8425 5.58427 22.8199 5.5816 22.8023 5.59219C22.5331 5.75447 22.2143 5.88239 21.9095 5.98102C21.95 5.91858 21.9788 5.84845 21.9529 5.80903C21.9289 5.77247 21.885 5.77247 21.8223 5.80917C21.6955 5.88352 20.7343 6.12853 20.3619 6.2198C19.9823 6.15122 19.6678 6.24848 19.5698 6.28444C19.5437 6.25336 19.5318 6.22326 19.5267 6.19978C19.5185 6.16148 19.5245 6.12258 19.5426 6.09562C19.5721 6.0517 19.6332 6.04753 19.687 6.04378C19.7104 6.04219 19.7313 6.04073 19.7496 6.03619C19.7614 6.03961 19.7757 6.04641 19.7755 6.05161C19.7744 6.07205 19.7873 6.09051 19.8068 6.09666C19.8264 6.10275 19.8474 6.09497 19.8583 6.07758C19.8611 6.07322 19.9243 5.96953 19.8753 5.88127C19.8396 5.81709 19.7578 5.78334 19.6318 5.78091C19.5801 5.74486 19.3849 5.62749 19.1443 5.71819C18.9007 5.81006 18.7926 6.06033 18.7568 6.16608C18.5672 6.13973 17.6966 6.00689 17.2233 5.72906C17.2004 5.71861 17.1218 5.68786 17.0779 5.72958C17.051 5.75513 17.0478 5.79478 17.0685 5.84752C17.0794 5.87545 17.0962 5.90273 17.1186 5.92955C16.8652 5.81325 16.5237 5.65083 16.2655 5.50641C16.2251 5.48771 16.1518 5.46225 16.114 5.50191C16.0904 5.52685 16.0906 5.56308 16.1151 5.60963C16.1203 5.61947 16.1253 5.63044 16.1309 5.64249C16.156 5.69663 16.1903 5.77045 16.274 5.85577C16.2115 5.82159 16.155 5.78644 16.1099 5.75128C15.8833 5.57499 15.8525 5.55774 15.812 5.58511C15.777 5.60869 15.7883 5.64844 15.8003 5.69058L15.8034 5.70169C15.8132 5.7367 15.8293 5.79314 15.8733 5.8612C15.8382 5.8373 15.808 5.83242 15.7843 5.84902C15.7701 5.85872 15.7488 5.88319 15.7652 5.93691C15.8046 6.06539 16.077 6.40359 16.595 6.50329C16.5429 6.51089 16.4882 6.51651 16.4353 6.51759C16.4152 6.51801 16.3978 6.53175 16.3928 6.5512C16.3879 6.57065 16.3965 6.59109 16.4139 6.60112C16.4234 6.60656 16.6065 6.70903 16.9422 6.70031C16.892 6.71296 16.835 6.72276 16.772 6.72646C16.7524 6.72759 16.7358 6.74142 16.7311 6.76045C16.7265 6.77948 16.7347 6.79935 16.7515 6.80948C16.7615 6.81553 16.9563 6.93013 17.258 6.91317L17.2317 6.92934C17.2166 6.93867 17.2083 6.95596 17.2108 6.97354C17.2132 6.99112 17.2258 7.00565 17.2428 7.01053C17.2522 7.0132 17.4223 7.06049 17.634 7.03813L17.5968 7.06462C17.5819 7.07526 17.5749 7.09396 17.5793 7.11177C17.5837 7.12959 17.5984 7.14295 17.6166 7.14543C17.6204 7.14599 17.6479 7.14956 17.6917 7.14956C17.7207 7.14956 17.7568 7.14796 17.7979 7.14295C17.797 7.15363 17.7982 7.16432 17.8018 7.17487C17.8229 7.23866 17.9169 7.25409 17.9481 7.25451C17.9501 7.25451 17.9519 7.25451 17.9538 7.25451C17.9916 7.25451 18.0315 7.24916 18.0724 7.24106C18.1377 7.30204 18.2569 7.29646 18.3725 7.26955C18.3657 7.27996 18.3605 7.29037 18.3571 7.30068C18.3505 7.32182 18.3555 7.34338 18.3707 7.35848C18.3854 7.37305 18.4209 7.4083 18.7442 7.31741C18.7428 7.31849 18.7415 7.31948 18.7401 7.32055C18.6972 7.35384 18.6999 7.38819 18.7054 7.40573C18.7252 7.46929 18.8678 7.51002 19.1265 7.52737C19.1323 7.67127 19.0922 7.82755 19.0918 7.82929C19.0873 7.84649 19.0935 7.86477 19.1075 7.87579C19.1215 7.88671 19.1406 7.8884 19.1564 7.88C19.1714 7.87194 19.1863 7.86154 19.2003 7.85033L19.1991 7.89786C19.1986 7.91516 19.2081 7.93114 19.2236 7.93893C19.23 7.94221 19.2369 7.9438 19.2439 7.9438C19.2457 7.9438 19.2473 7.94314 19.2491 7.94291C19.2442 7.98346 19.2278 8.03188 19.1758 8.04327C19.1522 8.04843 19.1272 8.05096 19.103 8.05344C18.9928 8.06474 18.868 8.07753 18.8482 8.33C18.8468 8.34894 18.8574 8.3667 18.8748 8.37444C18.8921 8.38199 18.9124 8.378 18.9254 8.36422L18.9734 8.31322C19.0016 8.32016 19.0466 8.32724 19.0947 8.3195C19.0826 8.37791 19.0862 8.44981 19.1446 8.5108C19.1573 8.52397 19.1767 8.52814 19.1937 8.52134C19.2106 8.5145 19.2217 8.49805 19.2217 8.47981V8.44747C19.2495 8.441 19.2864 8.4275 19.3212 8.39975C19.3417 8.44386 19.3807 8.49566 19.4549 8.5393C19.462 8.54342 19.4698 8.54548 19.4776 8.54548C19.4878 8.54548 19.4981 8.54197 19.5063 8.53513C19.5208 8.52308 19.5262 8.50316 19.5197 8.48544L19.4963 8.42108C19.5126 8.405 19.5339 8.38203 19.5523 8.35747C19.5615 8.37078 19.5769 8.37842 19.5933 8.37683C19.6103 8.37519 19.6249 8.36399 19.631 8.34795L19.6474 8.30413C19.6571 8.30146 19.6664 8.29822 19.6752 8.29461C19.6863 8.3916 19.7608 8.47231 19.7653 8.47709C19.7739 8.48623 19.7858 8.4912 19.7979 8.4912C19.8016 8.4912 19.8052 8.49078 19.8088 8.48984C19.8246 8.48586 19.837 8.47372 19.8412 8.45802L19.8661 8.36492C19.9322 8.33145 19.9387 8.2708 19.9427 8.23302C19.9435 8.22561 19.9446 8.21535 19.9448 8.21014C19.9707 8.22285 20.0254 8.28435 20.0667 8.34814C20.0749 8.3608 20.089 8.36858 20.1041 8.36863C20.1195 8.36755 20.1333 8.36113 20.1417 8.34852C20.1417 8.34852 20.1767 8.2956 20.1937 8.26466C20.2659 8.13364 20.1565 8.05518 20.104 8.01749C20.0911 8.00821 20.0734 7.99555 20.0705 7.99203C20.0607 7.96803 20.0641 7.94568 20.0706 7.92833C20.1144 7.95852 20.1642 7.98397 20.2194 7.99696C20.2228 7.9978 20.2263 7.99813 20.2296 7.99813C20.244 7.99813 20.2578 7.99114 20.2663 7.979C20.2768 7.964 20.2771 7.94408 20.2671 7.9288C20.2661 7.92725 20.1837 7.8006 20.1307 7.64483C20.2165 7.69504 20.3324 7.75583 20.3926 7.75583C20.4339 7.75583 20.4496 7.73015 20.4545 7.71913C20.4574 7.71266 20.4625 7.70094 20.4584 7.67901C20.5381 7.72208 20.6279 7.75541 20.6962 7.73779C20.7164 7.73258 20.7637 7.72035 20.7709 7.67797C20.7745 7.65646 20.7672 7.63916 20.7514 7.62201C20.8254 7.63996 20.9051 7.64891 20.9833 7.63855C21.0485 7.62993 21.0678 7.59833 21.0724 7.57326C21.0753 7.55722 21.0806 7.52643 21.0224 7.46821C21.1348 7.46207 21.2351 7.43751 21.2433 7.36973C21.2441 7.36363 21.243 7.3581 21.2424 7.35238C21.6035 7.31301 21.8783 7.08717 21.8905 7.07699C21.894 7.07404 21.8964 7.07038 21.8988 7.06668C22.1174 7.0394 22.3657 6.99004 22.5668 6.89967C22.9462 6.72909 23.1383 6.49879 23.1039 6.41522C23.0939 6.39089 23.0652 6.37326 23.0298 6.38653C23.0199 6.39023 22.9998 6.39839 22.9735 6.40912C23.1982 6.22631 23.2861 6.05709 23.2945 6.04022ZM22.635 5.78602C22.4701 5.94736 22.1594 6.17939 21.647 6.31401C21.6426 6.31519 21.6387 6.31748 21.635 6.31983C21.5273 6.31144 21.3911 6.29179 21.2717 6.24717C21.6503 6.1613 22.1823 6.01336 22.635 5.78602ZM20.355 6.30951C20.3614 6.31064 20.3677 6.3105 20.3739 6.309C20.4272 6.29597 21.6606 5.99348 21.8586 5.89134C21.8356 5.93672 21.7914 6.00028 21.7552 6.02681C21.7541 6.02751 21.7537 6.02869 21.7527 6.02948C21.2216 6.18712 20.7709 6.25359 20.7635 6.25462C20.7391 6.25814 20.7221 6.28083 20.7256 6.3053C20.7291 6.32976 20.7517 6.34673 20.7762 6.34326C20.7803 6.34265 20.9172 6.32254 21.1273 6.27867C21.2361 6.34106 21.3699 6.37547 21.4916 6.39408C21.3097 6.40945 21.1413 6.40064 21.1386 6.4005C21.1174 6.3997 21.0967 6.41447 21.0923 6.43617C21.0878 6.45787 21.0999 6.47962 21.1207 6.48722L21.2901 6.54928C21.052 6.59995 20.8224 6.55237 20.8196 6.55181C20.8013 6.54773 20.7826 6.55575 20.7725 6.57145C20.7625 6.58715 20.7632 6.6075 20.7744 6.6224C20.8068 6.66553 20.898 6.71085 20.9776 6.74428C20.6502 6.80624 20.4249 6.60557 20.4143 6.59592C20.3961 6.57932 20.3679 6.5805 20.3512 6.59859C20.3345 6.61668 20.3355 6.64481 20.3534 6.66164C20.612 6.90365 21.094 7.00673 21.3103 7.04221C21.2783 7.06115 21.2397 7.07901 21.1992 7.08623C21.0332 7.11571 20.6499 6.93337 20.3801 6.78585L20.1642 6.66121C20.143 6.64893 20.1158 6.65606 20.1033 6.67706C20.0907 6.69811 20.0974 6.72534 20.1183 6.73814C20.1287 6.74451 20.2134 6.79635 20.3337 6.86249L20.8594 7.16591C20.6981 7.18584 20.528 7.14974 20.5259 7.14927C20.5246 7.14899 20.5234 7.14937 20.522 7.14923C20.399 7.0627 20.2004 6.91701 19.9023 6.66979C19.8543 6.49851 19.7644 6.42328 19.6519 6.35179C19.7791 6.31275 20.0474 6.25181 20.355 6.30951ZM20.68 7.25891C20.6797 7.25901 20.6795 7.25924 20.6792 7.25934C20.6792 7.25934 20.6787 7.25901 20.6786 7.25887C20.6791 7.25887 20.6795 7.25891 20.68 7.25891ZM17.7634 7.05585L17.8658 6.98296C17.884 6.97002 17.8899 6.9456 17.8796 6.92582C17.8692 6.90595 17.8458 6.8969 17.8248 6.90431C17.6556 6.96473 17.4843 6.95859 17.3771 6.94481L17.4957 6.87182C17.5146 6.8602 17.5221 6.83648 17.5133 6.81604C17.5047 6.79565 17.4824 6.78473 17.4608 6.79035C17.2449 6.84703 17.0652 6.8235 16.9475 6.79101C17.1345 6.74732 17.2432 6.66454 17.2489 6.66014C17.2653 6.64748 17.2708 6.62521 17.2623 6.60632C17.2538 6.58748 17.2335 6.57712 17.2132 6.58073C16.9666 6.62718 16.7762 6.61186 16.6483 6.58542C16.7804 6.56325 16.8854 6.5317 16.8919 6.52973C16.8927 6.52954 16.8932 6.52889 16.8939 6.52865C16.897 6.52758 16.8995 6.52584 16.9022 6.5242C16.9045 6.52275 16.9068 6.52157 16.9088 6.51979C16.911 6.51782 16.9125 6.51548 16.9142 6.51314C16.9159 6.51084 16.9177 6.50878 16.9189 6.50625C16.92 6.50381 16.9206 6.50114 16.9213 6.49856C16.9222 6.49551 16.923 6.49265 16.9232 6.48947C16.9232 6.48876 16.9237 6.48811 16.9237 6.48736C16.9237 6.48501 16.9227 6.48295 16.9223 6.4807C16.922 6.4785 16.9224 6.47625 16.9217 6.474C16.9215 6.47329 16.9209 6.47282 16.9207 6.47212C16.9196 6.46912 16.9179 6.46659 16.9163 6.46392C16.9148 6.46157 16.9137 6.45914 16.9118 6.45712C16.9099 6.45501 16.9076 6.45351 16.9053 6.45178C16.903 6.45 16.9009 6.44817 16.8982 6.4469C16.8959 6.44578 16.8932 6.44526 16.8906 6.44456C16.8876 6.44367 16.8847 6.44278 16.8815 6.44259C16.8807 6.44254 16.8801 6.44212 16.8794 6.44212C16.3042 6.43673 15.9867 6.13416 15.8851 5.97975C16.0643 6.10462 16.2997 6.21061 16.4712 6.27145H16.4713C16.6994 6.35953 16.9836 6.41564 16.9957 6.41798C17.0198 6.42267 17.0435 6.40697 17.0482 6.38264C17.053 6.35836 17.0371 6.33483 17.0129 6.33009C17.01 6.32953 16.7233 6.273 16.5023 6.18745C16.0258 6.00305 15.9293 5.80331 15.8971 5.70244C15.9486 5.73905 16.0178 5.79291 16.0548 5.82173C16.3338 6.03867 16.9828 6.24384 17.0103 6.25251C17.0339 6.25997 17.0587 6.24703 17.0663 6.22369C17.0739 6.20034 17.0614 6.17526 17.0382 6.16734C16.3671 5.93873 16.2663 5.72138 16.2121 5.60466C16.2075 5.59453 16.203 5.58506 16.1987 5.57625C16.2077 5.57906 16.2172 5.58253 16.2248 5.58596C16.5968 5.79413 17.1436 6.04064 17.3503 6.13214C17.3131 6.15005 17.2741 6.165 17.2483 6.16645C17.2311 6.16744 17.2159 6.17817 17.2094 6.19425C17.2028 6.21023 17.206 6.22856 17.2177 6.24131C17.2204 6.24431 17.2642 6.29133 17.3495 6.30975L17.289 6.34917C17.2748 6.35845 17.2671 6.37495 17.269 6.39178C17.271 6.40865 17.2822 6.42295 17.2981 6.42876C17.3023 6.43026 17.3714 6.45459 17.4627 6.4642L17.4123 6.5009C17.3995 6.51023 17.3927 6.52561 17.3942 6.54136C17.3957 6.55711 17.4054 6.57089 17.4197 6.57764C17.4256 6.58036 17.4944 6.61162 17.6048 6.60642L17.601 6.60904C17.5865 6.61926 17.5794 6.63712 17.5829 6.65456C17.5863 6.672 17.5999 6.68568 17.6173 6.68948C17.6242 6.69093 17.7087 6.70832 17.83 6.69454L17.8025 6.71292C17.7878 6.72262 17.7802 6.7402 17.7831 6.75754C17.786 6.77493 17.7988 6.789 17.8159 6.7935C17.8289 6.79687 18.0249 6.84562 18.282 6.76406C18.2281 6.79954 18.1779 6.82528 18.1364 6.8346C18.1174 6.83892 18.1034 6.8549 18.1016 6.87426C18.0998 6.89362 18.1108 6.9119 18.1287 6.91954C18.1298 6.92006 18.1342 6.92174 18.1401 6.92385C18.0027 7.01479 17.8622 7.04638 17.7634 7.05585ZM17.5467 6.24356C17.538 6.22355 17.5163 6.21258 17.495 6.21787C17.4432 6.23053 17.4012 6.22926 17.3689 6.22242C17.4219 6.1988 17.4673 6.17062 17.4753 6.16551C17.4786 6.16345 17.4814 6.16097 17.4839 6.1583C17.5636 6.19036 17.654 6.22115 17.7554 6.25059L17.5836 6.37603C17.526 6.38212 17.4689 6.37664 17.4234 6.36848L17.5301 6.29892C17.5484 6.28687 17.5554 6.26353 17.5467 6.24356ZM17.949 7.16488C17.932 7.1647 17.9006 7.15598 17.8889 7.14768C17.8919 7.14299 17.8994 7.13376 17.9159 7.12063C18.0216 7.09354 18.143 7.04217 18.2594 6.94724C18.3814 6.9561 18.5734 6.92709 18.769 6.73054C18.7762 6.74362 18.7838 6.75689 18.7926 6.77039C18.7714 6.78637 18.2659 7.1677 17.949 7.16488ZM18.2984 6.85912C18.4431 6.77198 18.6051 6.62043 18.7062 6.51914C18.7078 6.55617 18.7149 6.59868 18.731 6.64532C18.7275 6.64739 18.7239 6.64926 18.721 6.65236C18.5605 6.82162 18.4043 6.85898 18.2984 6.85912ZM19.1395 7.43877C18.992 7.42869 18.8548 7.40577 18.8046 7.38365C18.9266 7.28845 18.9616 7.24645 18.9652 7.2418C18.9776 7.22638 18.9783 7.20468 18.9671 7.18841C18.9558 7.1721 18.9352 7.16507 18.9165 7.17126C18.7558 7.2232 18.5681 7.27387 18.4753 7.2869C18.5179 7.2487 18.5937 7.20041 18.662 7.1662C18.6839 7.15523 18.693 7.12865 18.6823 7.10662C18.6716 7.08454 18.6452 7.07526 18.623 7.08562C18.5011 7.14295 18.3266 7.2007 18.2174 7.19981C18.5146 7.09279 18.8176 6.8639 18.8465 6.84182C18.8693 6.86906 18.8945 6.89676 18.9249 6.92493C19.1923 7.17356 19.163 7.36865 19.1395 7.43877ZM19.2133 7.71182C19.2108 7.71477 19.2075 7.71866 19.2035 7.72316C19.2132 7.65688 19.2201 7.57372 19.2138 7.49465C19.2384 7.44051 19.2882 7.28001 19.1592 7.0671C19.2443 7.07948 19.4397 7.12045 19.5243 7.24345C19.5355 7.25976 19.5466 7.27785 19.5576 7.2966L19.5575 7.29674C19.5534 7.30663 19.4687 7.51171 19.4957 7.76807C19.4759 7.74472 19.457 7.71613 19.4443 7.68262C19.4383 7.66691 19.4241 7.6558 19.4073 7.65402C19.3908 7.65224 19.3743 7.65988 19.365 7.67394C19.3461 7.70258 19.3188 7.74186 19.2916 7.77763L19.2926 7.74144C19.2931 7.72236 19.2814 7.70507 19.2635 7.69836C19.2457 7.69166 19.2254 7.69701 19.2133 7.71182ZM19.502 8.2692C19.493 8.29588 19.4453 8.34739 19.4142 8.37538C19.4132 8.37636 19.4121 8.37744 19.4111 8.37852C19.3877 8.33985 19.3886 8.30924 19.3886 8.30755C19.3902 8.2866 19.3769 8.26742 19.3568 8.26133C19.3367 8.25528 19.3151 8.26405 19.3048 8.28233C19.2639 8.35545 19.192 8.36295 19.1788 8.3638C19.1811 8.30985 19.2122 8.26081 19.2142 8.25781C19.2266 8.23897 19.223 8.21385 19.2059 8.19922C19.1888 8.1846 19.1635 8.18488 19.1467 8.20002C19.081 8.2595 18.9766 8.22102 18.9757 8.22069C18.9714 8.21905 18.967 8.21807 18.9625 8.21774C18.9914 8.15483 19.042 8.14967 19.1119 8.14255C19.1386 8.13983 19.1662 8.13697 19.1947 8.13069C19.3325 8.10055 19.3488 7.94821 19.3381 7.87185C19.3378 7.86974 19.3367 7.868 19.3361 7.86604C19.3576 7.8395 19.3791 7.81044 19.397 7.78536C19.4057 7.79872 19.4151 7.81077 19.4245 7.82216C19.4248 7.85483 19.4266 7.95557 19.438 8.00858C19.447 8.05068 19.4778 8.07903 19.5073 8.09722C19.5024 8.10674 19.4983 8.11677 19.4957 8.12764C19.4851 8.171 19.4941 8.21867 19.5075 8.25955C19.5054 8.26278 19.5031 8.2656 19.502 8.2692ZM19.5255 7.98993C19.5212 7.96996 19.5185 7.93855 19.5168 7.90696C19.5293 7.91558 19.5381 7.92079 19.5394 7.92144C19.555 7.93007 19.5743 7.92875 19.5884 7.91783C19.6025 7.90696 19.6089 7.88872 19.6046 7.87147C19.5573 7.68233 19.589 7.50538 19.6152 7.40844C19.6924 7.5779 19.7477 7.787 19.7285 7.92491C19.7256 7.946 19.738 7.96625 19.758 7.97333C19.7622 7.97478 19.7665 7.97525 19.7707 7.97544C19.7703 7.98013 19.7698 7.9851 19.7692 7.98946C19.7239 7.98805 19.6493 7.99499 19.577 8.03263C19.5562 8.02391 19.5294 8.00807 19.5255 7.98993ZM20.1152 8.22139C20.1117 8.22786 20.1072 8.23532 20.1026 8.243C20.0491 8.17222 19.9757 8.09942 19.9129 8.12314C19.8623 8.14246 19.8571 8.19116 19.8536 8.22346C19.8495 8.26241 19.8465 8.27863 19.814 8.28978C19.7999 8.29461 19.7892 8.30614 19.7853 8.32049L19.7802 8.3391C19.7632 8.3015 19.7541 8.25613 19.7796 8.21746C19.7926 8.19763 19.7879 8.17114 19.7688 8.15699C19.7497 8.14288 19.7229 8.14607 19.7077 8.1643C19.7073 8.16477 19.6667 8.21249 19.6077 8.22088C19.6017 8.22177 19.5959 8.22388 19.5908 8.22697C19.5822 8.1996 19.5773 8.17096 19.5827 8.14878C19.5859 8.13557 19.5925 8.12656 19.6038 8.11967C19.6935 8.06539 19.7982 8.08082 19.799 8.081C19.8227 8.08494 19.8444 8.06999 19.8498 8.04707C19.8522 8.03685 19.8714 7.94952 19.8574 7.8764L19.9153 7.77908C19.9361 7.80571 19.9643 7.83838 19.9988 7.87054C19.9797 7.90541 19.9612 7.96175 19.9877 8.02602C19.9983 8.05189 20.0231 8.06961 20.0517 8.0901C20.1247 8.14255 20.1441 8.16889 20.1152 8.22139ZM19.9504 7.67385C19.9422 7.6604 19.9258 7.65313 19.9119 7.65233C19.8962 7.65238 19.8817 7.66068 19.8736 7.67418L19.8154 7.77196C19.7908 7.57396 19.6976 7.33743 19.598 7.19263C19.4687 7.00443 19.1488 6.96876 19.0884 6.96899C19.0591 6.93337 19.0263 6.89695 18.9859 6.85935C18.7203 6.61251 18.8076 6.41522 18.8119 6.40603C18.8122 6.40523 18.8121 6.40443 18.8125 6.40364C18.8136 6.40073 18.8142 6.39783 18.8147 6.39483C18.8152 6.39211 18.8158 6.38943 18.8158 6.38667C18.8158 6.38381 18.8152 6.38118 18.8147 6.37837C18.8142 6.37551 18.8137 6.37275 18.8127 6.36998C18.8117 6.3675 18.8102 6.36539 18.8087 6.36304C18.807 6.36037 18.8054 6.35775 18.8031 6.3555C18.8025 6.35489 18.8023 6.35404 18.8016 6.35344C18.8001 6.35198 18.7981 6.35142 18.7963 6.35025C18.7945 6.34903 18.7932 6.34729 18.7912 6.34631C18.7903 6.34589 18.7895 6.34598 18.7887 6.34565C18.7858 6.34448 18.7828 6.34387 18.7798 6.34331C18.777 6.34279 18.7744 6.34214 18.7716 6.34214C18.7688 6.34214 18.7662 6.34275 18.7633 6.34326C18.7604 6.34378 18.7577 6.3442 18.755 6.34528C18.7525 6.34626 18.7503 6.34781 18.748 6.34926C18.7453 6.35095 18.7427 6.35254 18.7404 6.35479C18.7398 6.3554 18.739 6.35569 18.7384 6.35629L18.7384 6.35634C18.4345 6.68826 18.1165 6.72773 17.9518 6.72079L18.1429 6.59334C18.1804 6.57234 18.2183 6.54736 18.256 6.51778C18.275 6.50287 18.2787 6.47578 18.2646 6.45632C18.2505 6.43678 18.2235 6.432 18.2036 6.44536L18.0986 6.51529C17.9692 6.58711 17.8441 6.60642 17.7568 6.60914L17.8563 6.53934C17.9328 6.50236 18.0163 6.44681 18.1042 6.36497C18.1214 6.34894 18.1234 6.32231 18.1086 6.30403C18.0938 6.28575 18.0674 6.28209 18.048 6.2955L17.8107 6.4619C17.6979 6.51501 17.6055 6.52153 17.5435 6.51586L17.8829 6.26808C17.8969 6.2579 17.9038 6.24061 17.9005 6.22364C17.8973 6.20667 17.8847 6.19308 17.868 6.18862C17.3147 6.04134 17.1817 5.89102 17.1517 5.81447C17.1491 5.80777 17.1474 5.80238 17.1464 5.79816C17.1575 5.79984 17.1725 5.80406 17.1821 5.80814C17.7242 6.1267 18.7398 6.25429 18.7828 6.25964C18.8049 6.26184 18.8254 6.24853 18.8313 6.22715C18.8466 6.17203 18.9352 5.89247 19.1758 5.80167C19.4027 5.71622 19.5814 5.85445 19.5888 5.86022C19.5968 5.86659 19.6066 5.87006 19.6168 5.87006C19.7132 5.87006 19.7772 5.88928 19.7967 5.92425C19.803 5.93545 19.8049 5.9483 19.8042 5.96114C19.7885 5.95317 19.7713 5.94783 19.7543 5.9453C19.7466 5.94412 19.7388 5.94502 19.7315 5.94783C19.7227 5.95125 19.7004 5.9528 19.6808 5.95416C19.6177 5.95852 19.5222 5.96508 19.4682 6.04537C19.4364 6.09276 19.4258 6.15576 19.4391 6.2182C19.4475 6.25715 19.4683 6.30806 19.5159 6.35775C19.5206 6.36703 19.5281 6.37378 19.5369 6.3779C19.5532 6.39239 19.5714 6.40668 19.5931 6.42028C19.6988 6.48632 19.7763 6.54731 19.8175 6.69679C19.8178 6.70209 19.8192 6.7071 19.8214 6.71193C19.8382 6.77943 19.8483 6.86385 19.8506 6.97373C19.8511 6.99815 19.871 7.0176 19.8953 7.0176C19.8953 7.0176 19.8959 7.0176 19.8963 7.0176C19.921 7.01709 19.9406 6.9966 19.9401 6.9719C19.9388 6.91035 19.9348 6.85631 19.9287 6.80732C20.2623 7.07976 20.4592 7.21513 20.5579 7.28287C20.5719 7.29243 20.5851 7.30148 20.5966 7.30959C20.4961 7.31873 20.337 7.22699 20.2125 7.13212C20.1716 7.09518 20.1329 7.06466 20.112 7.04863C20.0929 7.03406 20.0658 7.03706 20.0504 7.05548C20.0351 7.07385 20.0369 7.10109 20.0546 7.11726C20.0659 7.12762 20.102 7.15991 20.1527 7.19915C20.2114 7.25245 20.2566 7.30274 20.2708 7.33171C20.2011 7.31704 20.0099 7.20332 19.8544 7.09232C19.8353 7.07863 19.8089 7.08215 19.7939 7.10024C19.7789 7.11838 19.7805 7.14506 19.7975 7.16123C19.9049 7.26313 19.971 7.35623 20.013 7.55573C20.037 7.66954 20.0834 7.77754 20.123 7.85582C20.0186 7.78457 19.9513 7.67535 19.9504 7.67385ZM20.9716 7.54968C20.7346 7.5808 20.4664 7.40015 20.4637 7.39832C20.4446 7.38529 20.4187 7.3889 20.4041 7.40676C20.3892 7.42457 20.3905 7.45063 20.4069 7.46694C20.4845 7.54457 20.5637 7.5973 20.6214 7.63574C20.6298 7.64132 20.6388 7.64732 20.6474 7.65322C20.5613 7.64891 20.4116 7.55179 20.329 7.48419C20.3109 7.46933 20.2843 7.47102 20.2681 7.48808C20.252 7.5051 20.2518 7.53172 20.2676 7.54902C20.301 7.58563 20.3327 7.62655 20.3519 7.65646C20.2864 7.63255 20.1761 7.56974 20.0963 7.51874C20.0779 7.43704 20.0552 7.37057 20.0273 7.31423C20.2874 7.46915 20.3312 7.41688 20.3476 7.39719C20.3572 7.38571 20.3679 7.36598 20.3646 7.33691C20.3646 7.33677 20.3646 7.33659 20.3646 7.33659C20.4708 7.3903 20.5846 7.42199 20.6719 7.38116C20.6811 7.37685 20.6943 7.37005 20.7048 7.35923C20.866 7.44927 20.9503 7.51668 20.9759 7.54902C20.9745 7.54921 20.9731 7.54944 20.9716 7.54968ZM20.9107 7.37952C20.8613 7.34596 20.7979 7.30734 20.7147 7.26215C20.713 7.26121 20.7111 7.26116 20.7093 7.26051C20.724 7.26107 20.739 7.26149 20.7544 7.26149C20.7974 7.26149 20.8428 7.25854 20.8878 7.25198C20.8912 7.25418 20.8945 7.25662 20.8986 7.25793C21.0373 7.30152 21.1208 7.33466 21.1475 7.35684C21.1118 7.3723 21.0094 7.38238 20.9107 7.37952ZM21.1746 7.26796C21.1746 7.26796 21.1741 7.2681 21.1738 7.2681C21.1378 7.24715 21.0866 7.22657 21.0214 7.20412C21.0238 7.19943 21.0256 7.19441 21.0261 7.18898C21.0272 7.17791 21.0241 7.16709 21.0179 7.15841C21.094 7.1766 21.162 7.18377 21.215 7.17435C21.2818 7.16245 21.3423 7.12954 21.3862 7.09996H21.3862C21.4312 7.09996 21.5588 7.09837 21.7224 7.08491C21.6043 7.1579 21.4029 7.25802 21.1746 7.26796ZM22.9806 6.50287C22.9196 6.57951 22.7813 6.70495 22.53 6.81792C22.1868 6.97223 21.68 7.00298 21.4688 7.00893C21.4684 7.00556 21.4681 7.00223 21.4669 6.99895C21.4613 6.98249 21.4467 6.97078 21.4294 6.96881C21.4254 6.96838 21.1987 6.94199 20.9465 6.86596C21.0977 6.88026 21.2403 6.88734 21.3738 6.88734C21.7509 6.88734 22.0588 6.83479 22.3093 6.75604C22.3106 6.75585 22.3119 6.75614 22.3132 6.75585C22.4512 6.71971 22.78 6.585 22.9567 6.51267C22.9651 6.50915 22.973 6.50592 22.9806 6.50287ZM22.7417 6.46007C22.4504 6.6404 21.9424 6.83306 21.1388 6.79003C21.1544 6.78248 21.1646 6.76682 21.1643 6.74915C21.1639 6.73026 21.1518 6.71367 21.1338 6.70762C21.0979 6.69548 21.0552 6.6794 21.0137 6.66201C21.1367 6.66562 21.2968 6.65414 21.449 6.5955C21.4664 6.58879 21.4778 6.57201 21.4776 6.55336C21.4775 6.5347 21.4658 6.51806 21.4482 6.51168L21.3897 6.49026C21.5382 6.48408 21.7202 6.46462 21.8471 6.41118C21.8672 6.40275 21.8782 6.38123 21.8734 6.36009C21.8732 6.35901 21.8725 6.35812 21.8722 6.35704C22.1404 6.28987 22.6342 6.13486 23.1439 5.8155C23.0341 5.99794 22.7152 6.33717 21.8125 6.5505C21.7891 6.55603 21.7742 6.579 21.7788 6.60257C21.7834 6.6262 21.8058 6.64167 21.8295 6.63829C21.8362 6.63726 22.4499 6.54089 23.0835 6.17822C23.0084 6.2617 22.8975 6.36365 22.7417 6.46007Z" fill="#464655"/>
</svg>
