<svg width="24" height="24" viewBox="0 0 24 24" fill="none" xmlns="http://www.w3.org/2000/svg">
<path d="M23.5861 19.862H0.413812C0.185297 19.862 0 19.6767 0 19.4482V4.55174C0 4.32322 0.185297 4.13792 0.413812 4.13792H23.5862C23.8147 4.13792 24 4.32322 24 4.55174V19.4482C24 19.6768 23.8147 19.862 23.5861 19.862Z" fill="#41479B"/>
<path d="M11.5862 4.13792H10.8674L7.03447 6.64915V4.13792H4.96551V6.64915L1.13254 4.13792H0.413812C0.185297 4.13792 0 4.32322 0 4.55174V4.87995L3.28851 7.03447H0V9.10343H3.28851L0 11.258V11.5862C0 11.8147 0.185297 12 0.413812 12H1.13254L4.96551 9.48874V12H7.03447V9.48874L10.8674 12H11.5861C11.8146 12 11.9999 11.8147 11.9999 11.5862V11.2579L8.71147 9.10343H11.9999V7.03447H8.71142L11.9999 4.87995V4.55174C11.9999 4.32322 11.8147 4.13792 11.5862 4.13792Z" fill="#F5F5F5"/>
<path d="M11.9999 7.44828H6.62066V4.13792H5.37927V7.44828H0V8.68962H5.37927V12H6.62066V8.68962H11.9999V7.44828Z" fill="#FF4B55"/>
<path d="M4.55169 7.03446L0.197203 4.20786C0.081328 4.28121 0 4.4044 0 4.55173V4.5732L3.79166 7.03446H4.55169Z" fill="#FF4B55"/>
<path d="M7.79445 7.03447L11.937 4.34544C11.865 4.22361 11.7379 4.13792 11.5861 4.13792H11.4966L7.03442 7.03447H7.79445Z" fill="#FF4B55"/>
<path d="M4.19405 9.10342L0.0594482 11.7873C0.130745 11.9121 0.259745 12 0.413776 12H0.491822L4.95408 9.10342H4.19405Z" fill="#FF4B55"/>
<path d="M11.9933 11.6187L8.11838 9.10347H7.3584L11.7587 11.9597C11.8905 11.8986 11.9809 11.7704 11.9933 11.6187Z" fill="#FF4B55"/>
<path d="M18.1757 8.02142H15.4666C15.4666 8.02142 15.4666 11.5274 15.4666 12.9617C15.4666 14.0772 18.1757 15.1928 18.1757 15.1928C18.1757 15.1928 20.8849 14.0773 20.8849 12.9617C20.8849 11.5274 20.8849 8.02142 20.8849 8.02142H18.1757Z" fill="#73AF00"/>
<path d="M16.5896 11.791C16.5896 11.791 16.5744 11.7386 16.5879 11.6912C16.6014 11.6438 16.5666 11.6003 16.5591 11.5592C16.5388 11.4476 16.6336 11.4188 16.6386 11.319C16.6386 11.319 16.7063 11.3884 16.6809 11.4544C16.6555 11.5204 16.7182 11.5305 16.7097 11.5931C16.7013 11.6557 16.6319 11.7217 16.6387 11.7775L16.5896 11.791Z" fill="#FF4B55"/>
<path d="M17.6548 11.685C17.5994 11.6158 17.5023 11.6903 17.4313 11.7445C17.4214 11.7521 17.413 11.7579 17.4042 11.7643L17.1421 11.3772C17.1495 11.3661 17.1548 11.3536 17.1548 11.3393C17.1548 11.3008 17.1236 11.2695 17.0849 11.2695C17.0463 11.2695 17.0151 11.3007 17.0151 11.3393C17.0151 11.3536 17.0204 11.3661 17.0277 11.3772L16.7573 11.7765H16.5658C16.5658 11.7765 16.5579 11.8955 16.767 11.9099C16.7939 11.9508 16.8324 11.9832 16.8784 12.0016C16.8568 12.0051 16.8393 12.0218 16.8393 12.0445V12.0725C16.8393 12.0742 16.841 12.0753 16.8412 12.077H17.3283C17.3285 12.0753 17.3302 12.0743 17.3302 12.0725V12.0445C17.3302 12.0216 17.3125 12.0045 17.2905 12.0014C17.372 11.9686 17.4293 11.8923 17.4389 11.8017C17.4465 11.7961 17.4536 11.7909 17.4618 11.7847C17.5133 11.7452 17.5907 11.6851 17.6154 11.7166C17.6216 11.7243 17.6209 11.7285 17.6207 11.7301C17.6179 11.7484 17.5788 11.7746 17.5475 11.7957C17.4981 11.8288 17.4471 11.8632 17.4431 11.912C17.4419 11.9259 17.4521 11.9379 17.466 11.9392C17.4667 11.9392 17.4675 11.9392 17.4681 11.9392C17.4811 11.9392 17.4921 11.9292 17.4932 11.9162C17.4952 11.8915 17.5398 11.8616 17.5756 11.8376C17.6212 11.8068 17.6643 11.7779 17.6704 11.7379C17.6733 11.7194 17.668 11.7018 17.6548 11.685ZM17.2067 11.7765C17.1923 11.7215 17.1582 11.6686 17.1157 11.6495C17.1382 11.6379 17.1541 11.615 17.1541 11.588C17.1541 11.5495 17.1229 11.5182 17.0843 11.5182C17.0457 11.5182 17.0144 11.5494 17.0144 11.588C17.0144 11.615 17.0303 11.6379 17.0528 11.6495C17.0103 11.6685 16.9762 11.7214 16.9618 11.7765H16.8182L17.0691 11.4059C17.0743 11.4072 17.0793 11.4091 17.085 11.4091C17.0906 11.4091 17.0956 11.4072 17.1009 11.4059L17.3518 11.7765H17.2067Z" fill="#FFE15A"/>
<path d="M18.0031 9.42913C18.0031 9.42913 17.7507 9.35446 17.6379 10.2376C17.6379 10.2376 17.0203 11.0228 17.0004 11.0692C16.9805 11.1157 16.9988 11.4494 17.0652 11.4228C17.1316 11.3962 17.2512 11.2419 17.2445 11.129C17.2378 11.016 17.2888 10.9531 17.3391 10.8965C17.4337 10.7903 17.9666 10.3089 17.9865 10.2027C18.0064 10.0965 18.0031 9.42913 18.0031 9.42913Z" fill="#FFC8B9"/>
<path d="M18.3949 9.2615C18.3949 9.2615 18.785 9.21003 18.8995 9.60846C18.8995 9.60846 18.5791 9.78443 18.619 10.0135C18.6588 10.2426 18.614 11.2885 18.614 11.2885C18.0015 11.4876 17.6777 11.2386 17.6777 11.2386C17.6777 11.2386 17.8371 10.646 17.8122 10.1629C17.8122 10.1629 17.6678 10.0534 17.7027 9.9289C17.7375 9.8044 17.8272 9.66495 17.8571 9.56037C17.887 9.45579 17.9666 9.28146 18.1609 9.26651C18.355 9.25151 18.3949 9.2615 18.3949 9.2615Z" fill="#F5F5F5"/>
<path d="M17.7906 11.1224C17.7906 11.1224 17.4852 12.2779 17.5914 13.8515C17.5914 13.8515 18.5443 13.9777 19.0623 13.7884C19.0623 13.7884 18.7933 11.906 18.5344 11.1689L17.7906 11.1224Z" fill="#F5F5F5"/>
<path d="M17.9698 8.58092V9.05956C17.9698 9.1121 18.0125 9.15471 18.065 9.15471H18.0735C18.1107 9.15471 18.1409 9.18485 18.1409 9.22207V9.33649C18.1409 9.33649 18.205 9.50403 18.4545 9.30799V8.58448L17.9698 8.58092Z" fill="#FFC8B9"/>
<path d="M17.9134 8.4829C17.898 8.52157 17.9143 8.62648 18.0097 8.61903C18.1289 8.6097 18.2728 8.60904 18.3052 8.74104C18.3353 8.86371 18.3151 9.17014 18.4479 9.1901C18.5808 9.21003 18.7313 9.12176 18.7285 8.85809C18.726 8.62568 18.5741 8.34762 18.3616 8.38995C18.3616 8.38995 18.1732 8.25795 18.0628 8.40654C18.0629 8.40654 17.9467 8.39993 17.9134 8.4829Z" fill="#8C5A28"/>
<path d="M18.8995 9.60841C18.8995 9.60841 19.0354 10.5039 19.029 10.5779C19.0224 10.6542 18.5476 11.388 18.5741 11.4677C18.6007 11.5474 18.6272 11.6537 18.4811 11.6935C18.3351 11.7333 18.35 11.5001 18.3898 11.3806C18.4297 11.261 18.7633 10.6244 18.7633 10.5514C18.7633 10.4784 18.574 10.0069 18.6205 9.82095C18.6671 9.63495 18.8995 9.60841 18.8995 9.60841Z" fill="#FFC8B9"/>
<path d="M15.992 8.96539C15.992 8.96539 15.9768 8.91294 15.9903 8.86555C16.0039 8.81816 15.969 8.7747 15.9616 8.7336C15.9413 8.62194 16.036 8.59316 16.0411 8.49341C16.0411 8.49341 16.1087 8.56278 16.0834 8.62878C16.0581 8.69478 16.1206 8.70491 16.1122 8.76749C16.1038 8.83006 16.0343 8.89606 16.0411 8.95189L15.992 8.96539Z" fill="#FF4B55"/>
<path d="M17.0573 8.85936C17.0019 8.79017 16.9048 8.86471 16.8338 8.91889C16.8239 8.92649 16.8155 8.9323 16.8067 8.93867L16.5446 8.55153C16.5519 8.54047 16.5572 8.52796 16.5572 8.51371C16.5572 8.47513 16.526 8.44386 16.4874 8.44386C16.4488 8.44386 16.4175 8.47508 16.4175 8.51371C16.4175 8.528 16.4229 8.54052 16.4302 8.55153L16.1598 8.95086H15.9683C15.9683 8.95086 15.9604 9.06988 16.1694 9.08431C16.1964 9.12514 16.2348 9.15763 16.2809 9.176C16.2593 9.17952 16.2418 9.19621 16.2418 9.21885V9.24683C16.2418 9.24861 16.2435 9.24964 16.2437 9.25138H16.7308C16.731 9.24969 16.7326 9.24866 16.7326 9.24683V9.21885C16.7326 9.19597 16.7149 9.17891 16.6929 9.17577C16.7745 9.14296 16.8317 9.06669 16.8414 8.97608C16.849 8.97046 16.8561 8.9653 16.8643 8.95906C16.9157 8.9196 16.9932 8.8595 17.0179 8.89096C17.024 8.89864 17.0234 8.90291 17.0232 8.90446C17.0204 8.92274 16.9813 8.94899 16.95 8.97003C16.9006 9.00317 16.8495 9.03758 16.8455 9.08633C16.8443 9.10025 16.8546 9.1123 16.8685 9.11356C16.8692 9.11356 16.87 9.11356 16.8706 9.11356C16.8836 9.11356 16.8946 9.10358 16.8957 9.09055C16.8977 9.06585 16.9422 9.03594 16.978 9.01194C17.0236 8.98114 17.0667 8.95227 17.0729 8.91224C17.0758 8.89382 17.0705 8.8761 17.0573 8.85936ZM16.6092 8.95086C16.5947 8.89583 16.5607 8.84296 16.5182 8.82383C16.5407 8.81225 16.5566 8.78942 16.5566 8.76238C16.5566 8.72385 16.5254 8.69253 16.4867 8.69253C16.4482 8.69253 16.4169 8.72375 16.4169 8.76238C16.4169 8.78942 16.4327 8.81225 16.4553 8.82383C16.4128 8.84291 16.3787 8.89578 16.3643 8.95086H16.2206L16.4715 8.58032C16.4768 8.58153 16.4818 8.5835 16.4874 8.5835C16.4931 8.5835 16.4981 8.58153 16.5033 8.58032L16.7543 8.95086H16.6092Z" fill="#FFE15A"/>
<path d="M15.992 9.90729C15.992 9.90729 15.9768 9.85483 15.9903 9.80744C16.0039 9.76005 15.969 9.7166 15.9616 9.67549C15.9413 9.56383 16.036 9.53505 16.0411 9.4353C16.0411 9.4353 16.1087 9.50468 16.0834 9.57068C16.058 9.63668 16.1206 9.6468 16.1122 9.70938C16.1038 9.77196 16.0343 9.83796 16.0411 9.89379L15.992 9.90729Z" fill="#FF4B55"/>
<path d="M17.0573 9.80126C17.0019 9.73207 16.9048 9.8066 16.8338 9.86079C16.8239 9.86838 16.8155 9.87419 16.8067 9.88057L16.5446 9.49343C16.5519 9.48237 16.5572 9.46985 16.5572 9.4556C16.5572 9.41702 16.526 9.38576 16.4874 9.38576C16.4488 9.38576 16.4175 9.41698 16.4175 9.4556C16.4175 9.4699 16.4229 9.48241 16.4302 9.49343L16.1598 9.89276H15.9683C15.9683 9.89276 15.9604 10.0118 16.1694 10.0262C16.1964 10.067 16.2348 10.0995 16.2809 10.1179C16.2593 10.1214 16.2418 10.1381 16.2418 10.1607V10.1887C16.2418 10.1905 16.2435 10.1915 16.2437 10.1933H16.7308C16.731 10.1916 16.7326 10.1906 16.7326 10.1887V10.1607C16.7326 10.1379 16.7149 10.1208 16.6929 10.1177C16.7745 10.0848 16.8317 10.0086 16.8414 9.91798C16.849 9.91235 16.8561 9.90719 16.8643 9.90096C16.9157 9.86149 16.9932 9.8014 17.0179 9.83285C17.024 9.84054 17.0234 9.8448 17.0232 9.84635C17.0204 9.86463 16.9813 9.89088 16.95 9.91193C16.9006 9.94507 16.8495 9.97948 16.8455 10.0282C16.8443 10.0421 16.8546 10.0542 16.8685 10.0555C16.8692 10.0555 16.87 10.0555 16.8706 10.0555C16.8836 10.0555 16.8946 10.0455 16.8957 10.0325C16.8977 10.0078 16.9422 9.97788 16.978 9.95388C17.0236 9.92309 17.0667 9.89421 17.0729 9.85418C17.0758 9.83562 17.0705 9.81794 17.0573 9.80126ZM16.6092 9.89271C16.5947 9.83768 16.5607 9.7848 16.5182 9.76568C16.5407 9.7541 16.5566 9.73127 16.5566 9.70423C16.5566 9.66569 16.5254 9.63438 16.4867 9.63438C16.4482 9.63438 16.4169 9.6656 16.4169 9.70423C16.4169 9.73127 16.4327 9.7541 16.4553 9.76568C16.4128 9.78476 16.3787 9.83763 16.3643 9.89271H16.2206L16.4715 9.52216C16.4768 9.52338 16.4818 9.52535 16.4874 9.52535C16.4931 9.52535 16.4981 9.52338 16.5033 9.52216L16.7543 9.89271H16.6092Z" fill="#FFE15A"/>
<path d="M15.992 10.8492C15.992 10.8492 15.9768 10.7967 15.9903 10.7493C16.0039 10.7019 15.969 10.6585 15.9616 10.6174C15.9413 10.5057 16.036 10.4769 16.0411 10.3772C16.0411 10.3772 16.1087 10.4465 16.0834 10.5125C16.0581 10.5785 16.1206 10.5887 16.1122 10.6512C16.1038 10.7138 16.0343 10.7798 16.0411 10.8356L15.992 10.8492Z" fill="#FF4B55"/>
<path d="M17.0573 10.7431C17.0019 10.6739 16.9048 10.7485 16.8338 10.8027C16.8239 10.8102 16.8155 10.8161 16.8067 10.8224L16.5446 10.4353C16.5519 10.4242 16.5572 10.4117 16.5572 10.3975C16.5572 10.3589 16.526 10.3276 16.4874 10.3276C16.4488 10.3276 16.4175 10.3588 16.4175 10.3975C16.4175 10.4118 16.4229 10.4243 16.4302 10.4353L16.1598 10.8346H15.9683C15.9683 10.8346 15.9604 10.9536 16.1694 10.9681C16.1964 11.0089 16.2348 11.0414 16.2809 11.0598C16.2593 11.0633 16.2418 11.08 16.2418 11.1026V11.1306C16.2418 11.1324 16.2435 11.1334 16.2437 11.1351H16.7308C16.731 11.1334 16.7326 11.1324 16.7326 11.1306V11.1026C16.7326 11.0797 16.7149 11.0627 16.6929 11.0595C16.7745 11.0267 16.8317 10.9504 16.8414 10.8598C16.849 10.8542 16.8561 10.8491 16.8643 10.8428C16.9157 10.8034 16.9932 10.7433 17.0179 10.7747C17.024 10.7824 17.0234 10.7867 17.0232 10.7882C17.0204 10.8065 16.9813 10.8327 16.95 10.8538C16.9006 10.8869 16.8495 10.9213 16.8455 10.9701C16.8443 10.984 16.8546 10.9961 16.8685 10.9973C16.8692 10.9973 16.87 10.9973 16.8706 10.9973C16.8836 10.9973 16.8946 10.9873 16.8957 10.9743C16.8977 10.9496 16.9422 10.9197 16.978 10.8957C17.0236 10.8649 17.0667 10.836 17.0729 10.796C17.0758 10.7775 17.0705 10.7599 17.0573 10.7431ZM16.6092 10.8346C16.5947 10.7795 16.5607 10.7267 16.5182 10.7075C16.5407 10.696 16.5566 10.6731 16.5566 10.6461C16.5566 10.6076 16.5254 10.5762 16.4867 10.5762C16.4482 10.5762 16.4169 10.6075 16.4169 10.6461C16.4169 10.6731 16.4327 10.696 16.4553 10.7075C16.4128 10.7266 16.3787 10.7795 16.3643 10.8346H16.2206L16.4715 10.464C16.4768 10.4652 16.4818 10.4672 16.4874 10.4672C16.4931 10.4672 16.4981 10.4652 16.5033 10.464L16.7543 10.8346H16.6092Z" fill="#FFE15A"/>
<path d="M15.992 12.7329C15.992 12.7329 15.9768 12.6805 15.9903 12.6331C16.0039 12.5857 15.969 12.5422 15.9616 12.5011C15.9413 12.3895 16.036 12.3607 16.0411 12.2609C16.0411 12.2609 16.1087 12.3303 16.0834 12.3963C16.0581 12.4623 16.1206 12.4724 16.1122 12.535C16.1038 12.5976 16.0343 12.6636 16.0411 12.7194L15.992 12.7329Z" fill="#FF4B55"/>
<path d="M17.0573 12.6269C17.0019 12.5577 16.9048 12.6322 16.8338 12.6864C16.8239 12.694 16.8155 12.6998 16.8067 12.7062L16.5446 12.3191C16.5519 12.308 16.5572 12.2955 16.5572 12.2812C16.5572 12.2426 16.526 12.2114 16.4874 12.2114C16.4488 12.2114 16.4175 12.2426 16.4175 12.2812C16.4175 12.2955 16.4229 12.308 16.4302 12.3191L16.1598 12.7184H15.9683C15.9683 12.7184 15.9604 12.8374 16.1694 12.8518C16.1964 12.8927 16.2348 12.9251 16.2809 12.9435C16.2593 12.947 16.2418 12.9637 16.2418 12.9864V13.0143C16.2418 13.0161 16.2435 13.0172 16.2437 13.0189H16.7308C16.731 13.0172 16.7326 13.0162 16.7326 13.0143V12.9864C16.7326 12.9635 16.7149 12.9464 16.6929 12.9433C16.7745 12.9105 16.8317 12.8342 16.8414 12.7436C16.849 12.738 16.8561 12.7329 16.8643 12.7266C16.9157 12.6871 16.9932 12.627 17.0179 12.6585C17.024 12.6662 17.0234 12.6704 17.0232 12.672C17.0204 12.6903 16.9813 12.7165 16.95 12.7375C16.9006 12.7707 16.8495 12.8051 16.8455 12.8538C16.8443 12.8678 16.8546 12.8798 16.8685 12.8811C16.8692 12.8811 16.87 12.8811 16.8706 12.8811C16.8836 12.8811 16.8946 12.8711 16.8957 12.8581C16.8977 12.8334 16.9422 12.8035 16.978 12.7795C17.0236 12.7487 17.0667 12.7198 17.0729 12.6798C17.0758 12.6613 17.0705 12.6436 17.0573 12.6269ZM16.6092 12.7184C16.5947 12.6633 16.5607 12.6105 16.5182 12.5913C16.5407 12.5798 16.5566 12.5569 16.5566 12.5299C16.5566 12.4914 16.5254 12.4601 16.4867 12.4601C16.4482 12.4601 16.4169 12.4913 16.4169 12.5299C16.4169 12.5569 16.4327 12.5798 16.4553 12.5913C16.4128 12.6104 16.3787 12.6633 16.3643 12.7184H16.2206L16.4715 12.3478C16.4768 12.3491 16.4818 12.351 16.4874 12.351C16.4931 12.351 16.4981 12.3491 16.5033 12.3478L16.7543 12.7184H16.6092Z" fill="#FFE15A"/>
<path d="M15.992 13.6748C15.992 13.6748 15.9768 13.6224 15.9903 13.575C16.0039 13.5276 15.969 13.4841 15.9616 13.443C15.9413 13.3314 16.036 13.3026 16.0411 13.2028C16.0411 13.2028 16.1087 13.2722 16.0834 13.3382C16.058 13.4042 16.1206 13.4143 16.1122 13.4769C16.1037 13.5395 16.0343 13.6055 16.0411 13.6613L15.992 13.6748Z" fill="#FF4B55"/>
<path d="M17.0573 13.5687C17.0019 13.4996 16.9048 13.5741 16.8338 13.6283C16.8239 13.6359 16.8155 13.6417 16.8067 13.648L16.5446 13.2609C16.5519 13.2499 16.5572 13.2373 16.5572 13.2231C16.5572 13.1845 16.526 13.1532 16.4874 13.1532C16.4488 13.1532 16.4175 13.1845 16.4175 13.2231C16.4175 13.2374 16.4229 13.2499 16.4302 13.2609L16.1598 13.6602H15.9683C15.9683 13.6602 15.9604 13.7793 16.1694 13.7937C16.1964 13.8345 16.2348 13.867 16.2809 13.8854C16.2593 13.8889 16.2418 13.9056 16.2418 13.9282V13.9562C16.2418 13.958 16.2435 13.959 16.2437 13.9608H16.7308C16.731 13.9591 16.7326 13.958 16.7326 13.9562V13.9282C16.7326 13.9054 16.7149 13.8883 16.6929 13.8851C16.7745 13.8523 16.8317 13.7761 16.8414 13.6855C16.849 13.6798 16.8561 13.6747 16.8643 13.6684C16.9157 13.629 16.9932 13.5689 17.0179 13.6003C17.024 13.608 17.0234 13.6123 17.0232 13.6138C17.0204 13.6321 16.9813 13.6584 16.95 13.6794C16.9006 13.7126 16.8495 13.747 16.8455 13.7957C16.8443 13.8096 16.8546 13.8217 16.8685 13.823C16.8692 13.823 16.87 13.823 16.8706 13.823C16.8836 13.823 16.8946 13.813 16.8957 13.8C16.8977 13.7753 16.9422 13.7454 16.978 13.7214C17.0236 13.6906 17.0667 13.6617 17.0729 13.6217C17.0758 13.6031 17.0705 13.5855 17.0573 13.5687ZM16.6092 13.6602C16.5947 13.6052 16.5607 13.5523 16.5182 13.5332C16.5407 13.5216 16.5566 13.4988 16.5566 13.4717C16.5566 13.4332 16.5254 13.4019 16.4867 13.4019C16.4482 13.4019 16.4169 13.4331 16.4169 13.4717C16.4169 13.4988 16.4327 13.5216 16.4553 13.5332C16.4128 13.5522 16.3787 13.6051 16.3643 13.6602H16.2206L16.4715 13.2897C16.4768 13.2909 16.4818 13.2928 16.4874 13.2928C16.4931 13.2928 16.4981 13.2909 16.5033 13.2897L16.7543 13.6602H16.6092Z" fill="#FFE15A"/>
<path d="M19.2689 8.96539C19.2689 8.96539 19.2537 8.91294 19.2672 8.86555C19.2807 8.81816 19.2458 8.7747 19.2384 8.7336C19.2181 8.62194 19.3129 8.59316 19.3179 8.49341C19.3179 8.49341 19.3856 8.56278 19.3603 8.62878C19.3349 8.69478 19.3975 8.70491 19.3891 8.76749C19.3806 8.83006 19.3112 8.89606 19.318 8.95189L19.2689 8.96539Z" fill="#FF4B55"/>
<path d="M20.3341 8.85936C20.2787 8.79017 20.1817 8.86471 20.1106 8.91889C20.1007 8.92649 20.0923 8.9323 20.0836 8.93867L19.8214 8.55153C19.8288 8.54047 19.8341 8.52796 19.8341 8.51371C19.8341 8.47513 19.8029 8.44386 19.7642 8.44386C19.7256 8.44386 19.6944 8.47508 19.6944 8.51371C19.6944 8.528 19.6997 8.54052 19.7071 8.55153L19.4366 8.95086H19.2452C19.2452 8.95086 19.2372 9.06988 19.4463 9.08431C19.4733 9.12514 19.5117 9.15763 19.5577 9.176C19.5361 9.17952 19.5187 9.19621 19.5187 9.21885V9.24683C19.5187 9.24861 19.5204 9.24964 19.5205 9.25138H20.0076C20.0078 9.24969 20.0095 9.24866 20.0095 9.24683V9.21885C20.0095 9.19597 19.9918 9.17891 19.9698 9.17577C20.0513 9.14296 20.1086 9.06669 20.1182 8.97608C20.1258 8.97046 20.1329 8.9653 20.1412 8.95906C20.1926 8.9196 20.27 8.8595 20.2947 8.89096C20.3009 8.89864 20.3003 8.90291 20.3 8.90446C20.2972 8.92274 20.2582 8.94899 20.2268 8.97003C20.1775 9.00317 20.1264 9.03758 20.1224 9.08633C20.1212 9.10025 20.1315 9.1123 20.1453 9.11356C20.146 9.11356 20.1468 9.11356 20.1475 9.11356C20.1604 9.11356 20.1715 9.10358 20.1725 9.09055C20.1745 9.06585 20.2191 9.03594 20.2549 9.01194C20.3005 8.98114 20.3436 8.95227 20.3498 8.91224C20.3526 8.89382 20.3474 8.8761 20.3341 8.85936ZM19.8861 8.95086C19.8716 8.89583 19.8376 8.84296 19.7951 8.82383C19.8176 8.81225 19.8335 8.78942 19.8335 8.76238C19.8335 8.72385 19.8022 8.69253 19.7636 8.69253C19.7251 8.69253 19.6938 8.72375 19.6938 8.76238C19.6938 8.78942 19.7096 8.81225 19.7322 8.82383C19.6897 8.84291 19.6556 8.89578 19.6412 8.95086H19.4975L19.7485 8.58032C19.7537 8.58153 19.7587 8.5835 19.7643 8.5835C19.77 8.5835 19.775 8.58153 19.7802 8.58032L20.0312 8.95086H19.8861Z" fill="#FFE15A"/>
<path d="M19.2689 9.90729C19.2689 9.90729 19.2537 9.85483 19.2672 9.80744C19.2807 9.76005 19.2458 9.7166 19.2384 9.67549C19.2181 9.56383 19.3129 9.53505 19.3179 9.4353C19.3179 9.4353 19.3856 9.50468 19.3603 9.57068C19.3349 9.63668 19.3975 9.6468 19.3891 9.70938C19.3806 9.77196 19.3112 9.83796 19.318 9.89379L19.2689 9.90729Z" fill="#FF4B55"/>
<path d="M20.3341 9.80126C20.2787 9.73207 20.1817 9.8066 20.1106 9.86079C20.1007 9.86838 20.0923 9.87419 20.0836 9.88057L19.8214 9.49343C19.8288 9.48237 19.8341 9.46985 19.8341 9.4556C19.8341 9.41702 19.8029 9.38576 19.7642 9.38576C19.7256 9.38576 19.6944 9.41698 19.6944 9.4556C19.6944 9.4699 19.6997 9.48241 19.7071 9.49343L19.4366 9.89276H19.2452C19.2452 9.89276 19.2372 10.0118 19.4463 10.0262C19.4733 10.067 19.5117 10.0995 19.5577 10.1179C19.5361 10.1214 19.5187 10.1381 19.5187 10.1607V10.1887C19.5187 10.1905 19.5204 10.1915 19.5205 10.1933H20.0076C20.0078 10.1916 20.0095 10.1906 20.0095 10.1887V10.1607C20.0095 10.1379 19.9918 10.1208 19.9698 10.1177C20.0513 10.0848 20.1086 10.0086 20.1182 9.91798C20.1258 9.91235 20.1329 9.90719 20.1412 9.90096C20.1926 9.86149 20.27 9.8014 20.2947 9.83285C20.3009 9.84054 20.3003 9.8448 20.3 9.84635C20.2972 9.86463 20.2582 9.89088 20.2268 9.91193C20.1775 9.94507 20.1264 9.97948 20.1224 10.0282C20.1212 10.0421 20.1315 10.0542 20.1453 10.0555C20.146 10.0555 20.1468 10.0555 20.1475 10.0555C20.1604 10.0555 20.1715 10.0455 20.1725 10.0325C20.1745 10.0078 20.2191 9.97788 20.2549 9.95388C20.3005 9.92309 20.3436 9.89421 20.3498 9.85418C20.3526 9.83562 20.3474 9.81794 20.3341 9.80126ZM19.8861 9.89271C19.8716 9.83768 19.8376 9.7848 19.7951 9.76568C19.8176 9.7541 19.8335 9.73127 19.8335 9.70423C19.8335 9.66569 19.8022 9.63438 19.7636 9.63438C19.7251 9.63438 19.6938 9.6656 19.6938 9.70423C19.6938 9.73127 19.7096 9.7541 19.7322 9.76568C19.6897 9.78476 19.6556 9.83763 19.6412 9.89271H19.4975L19.7485 9.52216C19.7537 9.52338 19.7587 9.52535 19.7643 9.52535C19.77 9.52535 19.775 9.52338 19.7802 9.52216L20.0312 9.89271H19.8861Z" fill="#FFE15A"/>
<path d="M19.2689 10.8492C19.2689 10.8492 19.2537 10.7967 19.2672 10.7493C19.2807 10.7019 19.2458 10.6585 19.2384 10.6174C19.2181 10.5057 19.3129 10.4769 19.3179 10.3772C19.3179 10.3772 19.3856 10.4465 19.3603 10.5125C19.3349 10.5785 19.3975 10.5887 19.3891 10.6512C19.3806 10.7138 19.3112 10.7798 19.318 10.8356L19.2689 10.8492Z" fill="#FF4B55"/>
<path d="M20.3341 10.7431C20.2787 10.6739 20.1817 10.7485 20.1106 10.8027C20.1007 10.8102 20.0923 10.8161 20.0836 10.8224L19.8214 10.4353C19.8288 10.4242 19.8341 10.4117 19.8341 10.3975C19.8341 10.3589 19.8029 10.3276 19.7642 10.3276C19.7256 10.3276 19.6944 10.3588 19.6944 10.3975C19.6944 10.4118 19.6997 10.4243 19.7071 10.4353L19.4366 10.8346H19.2452C19.2452 10.8346 19.2372 10.9536 19.4463 10.9681C19.4733 11.0089 19.5117 11.0414 19.5577 11.0598C19.5361 11.0633 19.5187 11.08 19.5187 11.1026V11.1306C19.5187 11.1324 19.5204 11.1334 19.5205 11.1351H20.0076C20.0078 11.1334 20.0095 11.1324 20.0095 11.1306V11.1026C20.0095 11.0797 19.9918 11.0627 19.9698 11.0595C20.0513 11.0267 20.1086 10.9504 20.1182 10.8598C20.1258 10.8542 20.1329 10.8491 20.1412 10.8428C20.1926 10.8034 20.27 10.7433 20.2947 10.7747C20.3009 10.7824 20.3003 10.7867 20.3 10.7882C20.2972 10.8065 20.2582 10.8327 20.2268 10.8538C20.1775 10.8869 20.1264 10.9213 20.1224 10.9701C20.1212 10.984 20.1315 10.9961 20.1453 10.9973C20.146 10.9973 20.1468 10.9973 20.1475 10.9973C20.1604 10.9973 20.1715 10.9873 20.1725 10.9743C20.1745 10.9496 20.2191 10.9197 20.2549 10.8957C20.3005 10.8649 20.3436 10.836 20.3498 10.796C20.3526 10.7775 20.3474 10.7599 20.3341 10.7431ZM19.8861 10.8346C19.8716 10.7795 19.8376 10.7267 19.7951 10.7075C19.8176 10.696 19.8335 10.6731 19.8335 10.6461C19.8335 10.6076 19.8022 10.5762 19.7636 10.5762C19.7251 10.5762 19.6938 10.6075 19.6938 10.6461C19.6938 10.6731 19.7096 10.696 19.7322 10.7075C19.6897 10.7266 19.6556 10.7795 19.6412 10.8346H19.4975L19.7485 10.464C19.7537 10.4652 19.7587 10.4672 19.7643 10.4672C19.77 10.4672 19.775 10.4652 19.7802 10.464L20.0312 10.8346H19.8861Z" fill="#FFE15A"/>
<path d="M19.2689 11.791C19.2689 11.791 19.2537 11.7386 19.2672 11.6912C19.2807 11.6438 19.2458 11.6003 19.2384 11.5592C19.2181 11.4476 19.3129 11.4188 19.3179 11.319C19.3179 11.319 19.3856 11.3884 19.3603 11.4544C19.3349 11.5204 19.3975 11.5305 19.3891 11.5931C19.3806 11.6557 19.3112 11.7217 19.318 11.7775L19.2689 11.791Z" fill="#FF4B55"/>
<path d="M20.3341 11.685C20.2787 11.6158 20.1817 11.6903 20.1106 11.7445C20.1007 11.7521 20.0923 11.7579 20.0836 11.7643L19.8214 11.3772C19.8288 11.3661 19.8341 11.3536 19.8341 11.3393C19.8341 11.3008 19.8029 11.2695 19.7642 11.2695C19.7256 11.2695 19.6944 11.3007 19.6944 11.3393C19.6944 11.3536 19.6997 11.3661 19.7071 11.3772L19.4366 11.7765H19.2452C19.2452 11.7765 19.2372 11.8955 19.4463 11.9099C19.4733 11.9508 19.5117 11.9832 19.5577 12.0016C19.5361 12.0051 19.5187 12.0218 19.5187 12.0445V12.0725C19.5187 12.0742 19.5204 12.0753 19.5205 12.077H20.0076C20.0078 12.0753 20.0095 12.0743 20.0095 12.0725V12.0445C20.0095 12.0216 19.9918 12.0045 19.9698 12.0014C20.0513 11.9686 20.1086 11.8923 20.1182 11.8017C20.1258 11.7961 20.1329 11.7909 20.1412 11.7847C20.1926 11.7452 20.27 11.6851 20.2947 11.7166C20.3009 11.7243 20.3003 11.7285 20.3 11.7301C20.2972 11.7484 20.2582 11.7746 20.2268 11.7957C20.1775 11.8288 20.1264 11.8632 20.1224 11.912C20.1212 11.9259 20.1315 11.9379 20.1453 11.9392C20.146 11.9392 20.1468 11.9392 20.1475 11.9392C20.1604 11.9392 20.1715 11.9292 20.1725 11.9162C20.1745 11.8915 20.2191 11.8616 20.2549 11.8376C20.3005 11.8068 20.3436 11.7779 20.3498 11.7379C20.3526 11.7194 20.3474 11.7018 20.3341 11.685ZM19.8861 11.7765C19.8716 11.7215 19.8376 11.6686 19.7951 11.6495C19.8176 11.6379 19.8335 11.615 19.8335 11.588C19.8335 11.5495 19.8022 11.5182 19.7636 11.5182C19.7251 11.5182 19.6938 11.5494 19.6938 11.588C19.6938 11.615 19.7096 11.6379 19.7322 11.6495C19.6897 11.6685 19.6556 11.7214 19.6412 11.7765H19.4975L19.7485 11.4059C19.7537 11.4072 19.7587 11.4091 19.7643 11.4091C19.77 11.4091 19.775 11.4072 19.7802 11.4059L20.0312 11.7765H19.8861Z" fill="#FFE15A"/>
<path d="M19.2689 12.7329C19.2689 12.7329 19.2537 12.6805 19.2672 12.6331C19.2807 12.5857 19.2458 12.5422 19.2384 12.5011C19.2181 12.3895 19.3129 12.3607 19.3179 12.2609C19.3179 12.2609 19.3856 12.3303 19.3603 12.3963C19.3349 12.4623 19.3975 12.4724 19.3891 12.535C19.3806 12.5976 19.3112 12.6636 19.318 12.7194L19.2689 12.7329Z" fill="#FF4B55"/>
<path d="M20.3341 12.6269C20.2787 12.5577 20.1817 12.6322 20.1106 12.6864C20.1007 12.694 20.0923 12.6998 20.0836 12.7062L19.8214 12.3191C19.8288 12.308 19.8341 12.2955 19.8341 12.2812C19.8341 12.2426 19.8029 12.2114 19.7642 12.2114C19.7256 12.2114 19.6944 12.2426 19.6944 12.2812C19.6944 12.2955 19.6997 12.308 19.7071 12.3191L19.4366 12.7184H19.2452C19.2452 12.7184 19.2372 12.8374 19.4463 12.8518C19.4733 12.8927 19.5117 12.9251 19.5577 12.9435C19.5361 12.947 19.5187 12.9637 19.5187 12.9864V13.0143C19.5187 13.0161 19.5204 13.0172 19.5205 13.0189H20.0076C20.0078 13.0172 20.0095 13.0162 20.0095 13.0143V12.9864C20.0095 12.9635 19.9918 12.9464 19.9698 12.9433C20.0513 12.9105 20.1086 12.8342 20.1182 12.7436C20.1258 12.738 20.1329 12.7329 20.1412 12.7266C20.1926 12.6871 20.27 12.627 20.2947 12.6585C20.3009 12.6662 20.3003 12.6704 20.3 12.672C20.2972 12.6903 20.2582 12.7165 20.2268 12.7375C20.1775 12.7707 20.1264 12.8051 20.1224 12.8538C20.1212 12.8678 20.1315 12.8798 20.1453 12.8811C20.146 12.8811 20.1468 12.8811 20.1475 12.8811C20.1604 12.8811 20.1715 12.8711 20.1725 12.8581C20.1745 12.8334 20.2191 12.8035 20.2549 12.7795C20.3005 12.7487 20.3436 12.7198 20.3498 12.6798C20.3526 12.6613 20.3474 12.6436 20.3341 12.6269ZM19.8861 12.7184C19.8716 12.6633 19.8376 12.6105 19.7951 12.5913C19.8176 12.5798 19.8335 12.5569 19.8335 12.5299C19.8335 12.4914 19.8022 12.4601 19.7636 12.4601C19.7251 12.4601 19.6938 12.4913 19.6938 12.5299C19.6938 12.5569 19.7096 12.5798 19.7322 12.5913C19.6897 12.6104 19.6556 12.6633 19.6412 12.7184H19.4975L19.7485 12.3478C19.7537 12.3491 19.7587 12.351 19.7643 12.351C19.77 12.351 19.775 12.3491 19.7802 12.3478L20.0312 12.7184H19.8861Z" fill="#FFE15A"/>
<path d="M19.2689 13.6748C19.2689 13.6748 19.2537 13.6224 19.2672 13.575C19.2807 13.5276 19.2458 13.4841 19.2384 13.443C19.2181 13.3314 19.3129 13.3026 19.3179 13.2028C19.3179 13.2028 19.3856 13.2722 19.3603 13.3382C19.3349 13.4042 19.3975 13.4143 19.3891 13.4769C19.3806 13.5395 19.3112 13.6055 19.318 13.6613L19.2689 13.6748Z" fill="#FF4B55"/>
<path d="M20.3341 13.5687C20.2787 13.4996 20.1817 13.5741 20.1106 13.6283C20.1007 13.6359 20.0923 13.6417 20.0836 13.648L19.8214 13.2609C19.8288 13.2499 19.8341 13.2373 19.8341 13.2231C19.8341 13.1845 19.8029 13.1532 19.7642 13.1532C19.7256 13.1532 19.6944 13.1845 19.6944 13.2231C19.6944 13.2374 19.6997 13.2499 19.7071 13.2609L19.4366 13.6602H19.2452C19.2452 13.6602 19.2372 13.7793 19.4463 13.7937C19.4733 13.8345 19.5117 13.867 19.5577 13.8854C19.5361 13.8889 19.5187 13.9056 19.5187 13.9282V13.9562C19.5187 13.958 19.5204 13.959 19.5205 13.9608H20.0076C20.0078 13.9591 20.0095 13.958 20.0095 13.9562V13.9282C20.0095 13.9054 19.9918 13.8883 19.9698 13.8851C20.0513 13.8523 20.1086 13.7761 20.1182 13.6855C20.1258 13.6798 20.1329 13.6747 20.1412 13.6684C20.1926 13.629 20.27 13.5689 20.2947 13.6003C20.3009 13.608 20.3003 13.6123 20.3 13.6138C20.2972 13.6321 20.2582 13.6584 20.2268 13.6794C20.1775 13.7126 20.1264 13.747 20.1224 13.7957C20.1212 13.8096 20.1315 13.8217 20.1453 13.823C20.146 13.823 20.1468 13.823 20.1475 13.823C20.1604 13.823 20.1715 13.813 20.1725 13.8C20.1745 13.7753 20.2191 13.7454 20.2549 13.7214C20.3005 13.6906 20.3436 13.6617 20.3498 13.6217C20.3526 13.6031 20.3474 13.5855 20.3341 13.5687ZM19.8861 13.6602C19.8716 13.6052 19.8376 13.5523 19.7951 13.5332C19.8176 13.5216 19.8335 13.4988 19.8335 13.4717C19.8335 13.4332 19.8022 13.4019 19.7636 13.4019C19.7251 13.4019 19.6938 13.4331 19.6938 13.4717C19.6938 13.4988 19.7096 13.5216 19.7322 13.5332C19.6897 13.5522 19.6556 13.6051 19.6412 13.6602H19.4975L19.7485 13.2897C19.7537 13.2909 19.7587 13.2928 19.7643 13.2928C19.77 13.2928 19.775 13.2909 19.7802 13.2897L20.0312 13.6602H19.8861Z" fill="#FFE15A"/>
<path d="M20.8849 8.02142C20.8849 8.02142 20.8849 11.5274 20.8849 12.9617C20.8849 14.0772 18.1757 15.1928 18.1757 15.1928C18.1757 15.1928 15.4665 14.0773 15.4665 12.9617C15.4665 11.5274 15.4665 8.02142 15.4665 8.02142H18.1757H20.8849ZM21.0442 7.86205H20.8849H18.1757H15.4665H15.3071V8.02142V12.9617C15.3071 13.4833 15.7883 14.045 16.7373 14.6312C17.4179 15.0515 18.0869 15.3286 18.115 15.3402L18.1756 15.3652L18.2363 15.3402C18.2644 15.3286 18.9334 15.0515 19.614 14.6312C20.563 14.045 21.0441 13.4833 21.0441 12.9617V8.02142L21.0442 7.86205Z" fill="#F5F5F5"/>
<path d="M21.0673 13.8404L21.7897 14.3387C20.9506 15.415 19.6432 16.1092 18.1757 16.1092C16.7083 16.1092 15.4008 15.415 14.5616 14.3387L15.2841 13.8404C15.9637 14.6883 17.007 15.2327 18.1756 15.2327C19.3444 15.2327 20.3877 14.6882 21.0673 13.8404ZM21.0357 13.625L20.943 13.7407C20.2642 14.5876 19.2556 15.0733 18.1758 15.0733C17.096 15.0733 16.0873 14.5876 15.4086 13.7407L15.3159 13.625L15.1938 13.7092L14.4714 14.2074L14.3323 14.3033L14.4361 14.4365C15.3438 15.6007 16.7069 16.2685 18.1758 16.2685C19.6448 16.2685 21.0079 15.6008 21.9155 14.4365L22.0194 14.3033L21.8803 14.2074L21.1579 13.7092L21.0357 13.625Z" fill="#F5F5F5"/>
<path d="M18.1757 16.1092C19.6431 16.1092 20.9506 15.415 21.7898 14.3386L21.0673 13.8404C20.3878 14.6883 19.3444 15.2327 18.1758 15.2327C17.0071 15.2327 15.9638 14.6883 15.2842 13.8404L14.5618 14.3386C15.4008 15.415 16.7083 16.1092 18.1757 16.1092Z" fill="#FFE15A"/>
</svg>
