<svg width="24" height="24" viewBox="0 0 24 24" fill="none" xmlns="http://www.w3.org/2000/svg">
<path d="M23.5861 19.862H0.413812C0.185297 19.862 0 19.6767 0 19.4482V4.55175C0 4.32324 0.185297 4.13794 0.413812 4.13794H23.5862C23.8147 4.13794 24 4.32324 24 4.55175V19.4482C24 19.6768 23.8147 19.862 23.5861 19.862Z" fill="#F5F5F5"/>
<path d="M24 11.1724H12.8276V4.13794H11.1724V11.1724H0V12.8276H11.1724V19.862H12.8276V12.8276H24V11.1724Z" fill="#FF4B55"/>
<path d="M7.74074 7.84478C7.81021 7.70579 7.42602 7.25565 7.44637 7.15365C7.46676 7.05165 7.51228 6.89537 7.34906 6.30381C7.18589 5.71225 6.69562 5.56933 6.10406 5.50816C5.5125 5.44699 4.73044 5.8712 4.55381 6.33428C4.44722 6.61375 4.51931 6.92594 4.63116 7.22308C4.58095 7.22851 4.48481 7.23128 4.41394 7.17892C4.3575 7.13687 4.32661 7.06544 4.32122 6.96695C4.30144 6.59181 4.50609 5.97733 4.5083 5.97128L4.52362 5.92539L3.88111 5.6988L3.91889 6.0003L3.4231 5.89445L3.45338 5.97761C3.49702 6.09747 3.88106 7.15112 3.93277 7.24417C4.01756 7.39619 4.13264 7.49345 4.27477 7.53297C4.32577 7.54731 4.37611 7.55275 4.42392 7.55275C4.43006 7.55275 4.43522 7.55115 4.44127 7.55097C4.41216 7.60454 4.35328 7.67209 4.20338 7.74175C4.0275 7.82279 3.84947 7.91017 3.82997 8.23843L3.82467 8.24115C3.82627 8.2442 3.82809 8.24584 3.82969 8.24884C3.82547 8.33556 3.82941 8.4347 3.85017 8.55924C3.90178 8.86712 4.00664 9.16928 4.01114 9.18198L4.02131 9.21099L4.05192 9.21451C4.05413 9.21451 4.25592 9.2387 4.31775 9.45066C4.35342 9.57334 4.46592 9.66648 4.57655 9.66648C4.57941 9.66648 4.58227 9.66615 4.58512 9.66615C4.63294 9.66395 4.74862 9.63905 4.78622 9.45165L4.79166 9.42456L4.48777 9.14495L4.58962 8.80909L4.54116 8.79601C4.5383 8.79531 4.33706 8.7347 4.12875 8.50754C4.10944 8.41398 4.11173 8.34639 4.13667 8.30804C4.16503 8.26501 4.22527 8.25292 4.29506 8.2389C4.36008 8.22582 4.42734 8.21246 4.48186 8.17004C4.65703 8.03312 4.75505 7.79767 4.80473 7.63647C4.83164 7.6974 4.85742 7.75661 4.88025 7.81304C5.05364 8.24143 4.5743 8.73095 4.5743 8.73095C4.88025 8.85334 4.91086 8.92468 5.33925 9.45507C5.76764 9.98546 6.15515 9.76102 6.15515 9.76102C6.15515 9.76102 6.10003 9.42146 6.38156 9.27812C6.66314 9.13477 6.66951 8.95051 6.66951 8.95051C7.37217 9.1156 7.4144 8.82765 7.38365 8.72781C7.35295 8.62801 7.39134 8.4706 7.39134 8.4706C7.39134 8.4706 7.46212 8.47506 7.5142 8.4399C7.59674 8.38426 7.5411 8.25179 7.5411 8.25179C7.62173 8.21335 7.65248 8.12893 7.59102 8.06364C7.52957 7.99834 7.53342 7.92545 7.53342 7.92545C7.53342 7.92545 7.69471 7.93689 7.74074 7.84478ZM4.30116 7.43856C4.18514 7.4064 4.08984 7.32475 4.01813 7.19636C3.98405 7.13519 3.74527 6.4923 3.57544 6.02697L3.93174 6.10291L3.99872 6.63761L4.09561 6.62551L3.99774 5.84402L4.40062 5.98586C4.35216 6.13919 4.20558 6.6354 4.22372 6.97197C4.23038 7.10106 4.27472 7.19697 4.35534 7.2572C4.42833 7.31172 4.51598 7.32442 4.58292 7.32442C4.62239 7.32442 4.64925 7.32058 4.66739 7.31739C4.67737 7.34195 4.68769 7.36609 4.69795 7.39037C4.64137 7.41822 4.47539 7.48797 4.30116 7.43856ZM4.68398 9.45859C4.6703 9.50668 4.64128 9.56565 4.58077 9.56823C4.57945 9.56823 4.57791 9.56823 4.57631 9.56823C4.5097 9.56823 4.4348 9.50288 4.4115 9.4232C4.41033 9.41912 4.40789 9.41701 4.40658 9.41302L4.45627 9.24896L4.68398 9.45859ZM4.46789 8.87406L4.34339 9.28388C4.26267 9.17429 4.14947 9.13552 4.09467 9.12273C4.06786 9.0421 3.98822 8.7909 3.94678 8.54331C3.93811 8.491 3.93384 8.44646 3.92986 8.4025C4.13611 8.70437 4.36861 8.83464 4.46789 8.87406ZM4.42163 8.09289C4.38563 8.12092 4.33242 8.13146 4.27598 8.1429C4.19597 8.15884 4.10583 8.17698 4.05483 8.25446C4.03622 8.28282 4.02699 8.31835 4.02225 8.35792C3.98972 8.31193 3.95639 8.27303 3.92592 8.21706C3.94749 7.96778 4.08314 7.90468 4.24444 7.8302C4.47698 7.72257 4.53094 7.60787 4.55395 7.53934C4.63683 7.52317 4.69894 7.49748 4.73578 7.48004C4.73761 7.48426 4.73944 7.4882 4.74131 7.49247C4.71567 7.60553 4.62745 7.93215 4.42163 8.09289ZM4.96861 7.65278L4.76897 7.22275L7.11881 6.1323C7.27242 6.42414 7.28779 6.76965 7.28779 6.76965L4.96861 7.65278Z" fill="#464655"/>
<path d="M20.5684 7.84478C20.6378 7.70579 20.2537 7.25565 20.274 7.15365C20.2944 7.05165 20.3399 6.89537 20.1767 6.30381C20.0135 5.71225 19.5233 5.56933 18.9317 5.50816C18.3401 5.44699 17.5581 5.8712 17.3814 6.33428C17.2749 6.61375 17.3469 6.92594 17.4588 7.22308C17.4086 7.22851 17.3124 7.23128 17.2416 7.17892C17.1851 7.13687 17.1542 7.06544 17.1489 6.96695C17.1291 6.59181 17.3337 5.97733 17.3359 5.97128L17.3513 5.92539L16.7087 5.6988L16.7465 6.0003L16.2507 5.89445L16.281 5.97761C16.3247 6.09747 16.7087 7.15112 16.7604 7.24417C16.8452 7.39619 16.9603 7.49345 17.1024 7.53297C17.1534 7.54731 17.2038 7.55275 17.2516 7.55275C17.2577 7.55275 17.2629 7.55115 17.2689 7.55097C17.2398 7.60454 17.1809 7.67209 17.031 7.74175C16.8551 7.82279 16.6771 7.91017 16.6576 8.23843L16.6523 8.24115C16.6539 8.2442 16.6557 8.24584 16.6573 8.24884C16.6531 8.33556 16.657 8.4347 16.6778 8.55925C16.7294 8.86712 16.8343 9.16928 16.8388 9.18198L16.8489 9.21099L16.8796 9.21451C16.8818 9.21451 17.0836 9.2387 17.1454 9.45067C17.1811 9.57334 17.2936 9.66648 17.4042 9.66648C17.407 9.66648 17.4099 9.66615 17.4128 9.66615C17.4606 9.66395 17.5763 9.63906 17.6139 9.45165L17.6193 9.42456L17.3154 9.14495L17.4173 8.80909L17.3688 8.79601C17.3659 8.79531 17.1647 8.7347 16.9564 8.50754C16.9371 8.41398 16.9394 8.34639 16.9643 8.30804C16.9927 8.26501 17.0529 8.25292 17.1227 8.2389C17.1877 8.22582 17.255 8.21246 17.3095 8.17004C17.4847 8.03312 17.5827 7.79767 17.6324 7.63647C17.6593 7.6974 17.6851 7.75661 17.7079 7.81304C17.8813 8.24143 17.4019 8.73095 17.4019 8.73095C17.7079 8.85334 17.7385 8.92468 18.1669 9.45507C18.5953 9.98541 18.9828 9.76102 18.9828 9.76102C18.9828 9.76102 18.9277 9.42146 19.2092 9.27812C19.4908 9.13478 19.4972 8.95051 19.4972 8.95051C20.1998 9.1156 20.2421 8.82765 20.2113 8.72781C20.1806 8.62801 20.219 8.4706 20.219 8.4706C20.219 8.4706 20.2898 8.47506 20.3419 8.4399C20.4244 8.38426 20.3688 8.25179 20.3688 8.25179C20.4494 8.21335 20.4802 8.12893 20.4187 8.06364C20.3573 7.99834 20.3611 7.92545 20.3611 7.92545C20.3611 7.92545 20.5223 7.93689 20.5684 7.84478ZM17.1287 7.43856C17.0127 7.4064 16.9174 7.32475 16.8457 7.19636C16.8116 7.13519 16.5729 6.4923 16.403 6.02697L16.7593 6.10291L16.8263 6.63761L16.9232 6.62551L16.8253 5.84402L17.2282 5.98586C17.1797 6.13919 17.0332 6.6354 17.0513 6.97197C17.058 7.10106 17.1023 7.19697 17.1829 7.2572C17.2559 7.31172 17.3436 7.32442 17.4105 7.32442C17.45 7.32442 17.4768 7.32058 17.495 7.31739C17.505 7.34195 17.5153 7.36609 17.5255 7.39037C17.4689 7.41822 17.303 7.48797 17.1287 7.43856ZM17.5115 9.45859C17.4978 9.50668 17.4688 9.56565 17.4083 9.56823C17.407 9.56823 17.4054 9.56823 17.4039 9.56823C17.3372 9.56823 17.2623 9.50288 17.239 9.4232C17.2379 9.41912 17.2354 9.41701 17.2341 9.41302L17.2838 9.24896L17.5115 9.45859ZM17.2954 8.87406L17.1709 9.28388C17.0902 9.17429 16.977 9.13552 16.9222 9.12273C16.8954 9.0421 16.8158 8.7909 16.7743 8.54331C16.7657 8.491 16.7614 8.44646 16.7574 8.4025C16.9637 8.70437 17.1962 8.83464 17.2954 8.87406ZM17.2493 8.09289C17.2133 8.12092 17.1601 8.13146 17.1036 8.1429C17.0236 8.15884 16.9335 8.17698 16.8825 8.25446C16.8639 8.28282 16.8546 8.31836 16.8499 8.35792C16.8174 8.31193 16.784 8.27303 16.7536 8.21706C16.7751 7.96778 16.9108 7.90468 17.0721 7.8302C17.3046 7.72258 17.3586 7.60787 17.3816 7.53934C17.4645 7.52317 17.5266 7.49748 17.5634 7.48004C17.5652 7.48426 17.5671 7.4882 17.5689 7.49247C17.5433 7.60553 17.455 7.93215 17.2493 8.09289ZM17.7962 7.65278L17.5966 7.22275L19.9464 6.1323C20.1 6.42414 20.1154 6.76965 20.1154 6.76965L17.7962 7.65278Z" fill="#464655"/>
<path d="M7.74074 16.5344C7.81021 16.3954 7.42602 15.9453 7.44637 15.8433C7.46676 15.7413 7.51228 15.585 7.34906 14.9934C7.18589 14.4019 6.69562 14.259 6.10406 14.1978C5.5125 14.1366 4.73044 14.5608 4.55381 15.0239C4.44722 15.3034 4.51931 15.6156 4.63116 15.9127C4.58095 15.9182 4.48481 15.9209 4.41394 15.8686C4.3575 15.8265 4.32661 15.7551 4.32122 15.6566C4.30144 15.2814 4.50609 14.667 4.5083 14.6609L4.52362 14.615L3.88111 14.3884L3.91889 14.6899L3.4231 14.5841L3.45338 14.6672C3.49702 14.7871 3.88106 15.8408 3.93277 15.9338C4.01756 16.0858 4.13264 16.1831 4.27477 16.2226C4.32577 16.2369 4.37611 16.2424 4.42392 16.2424C4.43006 16.2424 4.43522 16.2408 4.44127 16.2406C4.41216 16.2942 4.35328 16.3617 4.20338 16.4313C4.0275 16.5124 3.84947 16.5998 3.82997 16.928L3.82467 16.9308C3.82627 16.9338 3.82809 16.9355 3.82969 16.9385C3.82547 17.0252 3.82941 17.1243 3.85017 17.2489C3.90178 17.5568 4.00664 17.8589 4.01114 17.8716L4.02131 17.9006L4.05192 17.9041C4.05413 17.9041 4.25592 17.9283 4.31775 18.1403C4.35342 18.263 4.46592 18.3561 4.57655 18.3561C4.57941 18.3561 4.58227 18.3558 4.58512 18.3558C4.63294 18.3536 4.74862 18.3287 4.78622 18.1413L4.79166 18.1142L4.48777 17.8346L4.58962 17.4987L4.54116 17.4856C4.5383 17.4849 4.33706 17.4243 4.12875 17.1972C4.10944 17.1036 4.11173 17.036 4.13667 16.9977C4.16503 16.9546 4.22527 16.9426 4.29506 16.9285C4.36008 16.9155 4.42734 16.9021 4.48186 16.8597C4.65703 16.7228 4.75505 16.4873 4.80473 16.3261C4.83164 16.387 4.85742 16.4462 4.88025 16.5027C5.05364 16.9311 4.5743 17.4206 4.5743 17.4206C4.88025 17.543 4.91086 17.6143 5.33925 18.1447C5.76764 18.6751 6.15515 18.4507 6.15515 18.4507C6.15515 18.4507 6.10003 18.1111 6.38156 17.9678C6.66314 17.8244 6.66951 17.6401 6.66951 17.6401C7.37217 17.8052 7.4144 17.5173 7.38365 17.4174C7.35295 17.3176 7.39134 17.1602 7.39134 17.1602C7.39134 17.1602 7.46212 17.1647 7.5142 17.1295C7.59674 17.0739 7.5411 16.9414 7.5411 16.9414C7.62173 16.903 7.65248 16.8186 7.59102 16.7533C7.52957 16.688 7.53342 16.6151 7.53342 16.6151C7.53342 16.6151 7.69471 16.6265 7.74074 16.5344ZM4.30116 16.1282C4.18514 16.096 4.08984 16.0144 4.01813 15.886C3.98405 15.8248 3.74527 15.1819 3.57544 14.7166L3.93174 14.7925L3.99872 15.3272L4.09561 15.3152L3.99774 14.5337L4.40062 14.6755C4.35216 14.8288 4.20558 15.325 4.22372 15.6616C4.23038 15.7907 4.27472 15.8866 4.35534 15.9469C4.42833 16.0014 4.51598 16.0141 4.58292 16.0141C4.62239 16.0141 4.64925 16.0103 4.66739 16.0071C4.67737 16.0316 4.68769 16.0558 4.69795 16.0801C4.64137 16.1078 4.47539 16.1776 4.30116 16.1282ZM4.68398 18.1482C4.6703 18.1963 4.64128 18.2553 4.58077 18.2579C4.57945 18.2579 4.57791 18.2579 4.57631 18.2579C4.5097 18.2579 4.4348 18.1925 4.4115 18.1128C4.41033 18.1088 4.40789 18.1066 4.40658 18.1027L4.45627 17.9386L4.68398 18.1482ZM4.46789 17.5637L4.34339 17.9735C4.26267 17.8639 4.14947 17.8252 4.09467 17.8124C4.06786 17.7317 3.98822 17.4805 3.94678 17.2329C3.93811 17.1806 3.93384 17.1361 3.92986 17.0921C4.13611 17.394 4.36861 17.5243 4.46789 17.5637ZM4.42163 16.7826C4.38563 16.8106 4.33242 16.8212 4.27598 16.8326C4.19597 16.8486 4.10583 16.8667 4.05483 16.9442C4.03622 16.9726 4.02699 17.0081 4.02225 17.0476C3.98972 17.0017 3.95639 16.9628 3.92592 16.9068C3.94749 16.6575 4.08314 16.5944 4.24444 16.5199C4.47698 16.4123 4.53094 16.2976 4.55395 16.2291C4.63683 16.2129 4.69894 16.1872 4.73578 16.1698C4.73761 16.174 4.73944 16.1779 4.74131 16.1822C4.71567 16.2952 4.62745 16.6218 4.42163 16.7826ZM4.96861 16.3424L4.76897 15.9124L7.11881 14.8219C7.27242 15.1138 7.28779 15.4593 7.28779 15.4593L4.96861 16.3424Z" fill="#464655"/>
<path d="M20.5684 16.5344C20.6378 16.3954 20.2537 15.9453 20.274 15.8433C20.2944 15.7413 20.3399 15.585 20.1767 14.9934C20.0135 14.4019 19.5233 14.259 18.9317 14.1978C18.3401 14.1366 17.5581 14.5608 17.3814 15.0239C17.2749 15.3034 17.3469 15.6156 17.4588 15.9127C17.4086 15.9182 17.3124 15.9209 17.2416 15.8686C17.1851 15.8265 17.1542 15.7551 17.1489 15.6566C17.1291 15.2814 17.3337 14.667 17.3359 14.6609L17.3513 14.615L16.7087 14.3884L16.7465 14.6899L16.2507 14.5841L16.281 14.6672C16.3247 14.7871 16.7087 15.8408 16.7604 15.9338C16.8452 16.0858 16.9603 16.1831 17.1024 16.2226C17.1534 16.2369 17.2038 16.2424 17.2516 16.2424C17.2577 16.2424 17.2629 16.2408 17.2689 16.2406C17.2398 16.2942 17.1809 16.3617 17.031 16.4313C16.8551 16.5124 16.6771 16.5998 16.6576 16.928L16.6523 16.9308C16.6539 16.9338 16.6557 16.9355 16.6573 16.9385C16.6531 17.0252 16.657 17.1243 16.6778 17.2489C16.7294 17.5568 16.8343 17.8589 16.8388 17.8716L16.8489 17.9006L16.8796 17.9041C16.8818 17.9041 17.0836 17.9283 17.1454 18.1403C17.1811 18.263 17.2936 18.3561 17.4042 18.3561C17.407 18.3561 17.4099 18.3558 17.4128 18.3558C17.4606 18.3536 17.5763 18.3287 17.6139 18.1413L17.6193 18.1142L17.3154 17.8346L17.4173 17.4987L17.3688 17.4856C17.3659 17.4849 17.1647 17.4243 16.9564 17.1972C16.9371 17.1036 16.9394 17.036 16.9643 16.9977C16.9927 16.9546 17.0529 16.9426 17.1227 16.9285C17.1877 16.9155 17.255 16.9021 17.3095 16.8597C17.4847 16.7228 17.5827 16.4873 17.6324 16.3261C17.6593 16.387 17.6851 16.4462 17.7079 16.5027C17.8813 16.9311 17.4019 17.4206 17.4019 17.4206C17.7079 17.543 17.7385 17.6143 18.1669 18.1447C18.5953 18.6751 18.9828 18.4507 18.9828 18.4507C18.9828 18.4507 18.9277 18.1111 19.2092 17.9678C19.4908 17.8244 19.4972 17.6401 19.4972 17.6401C20.1998 17.8052 20.2421 17.5173 20.2113 17.4174C20.1806 17.3176 20.219 17.1602 20.219 17.1602C20.219 17.1602 20.2898 17.1647 20.3419 17.1295C20.4244 17.0739 20.3688 16.9414 20.3688 16.9414C20.4494 16.903 20.4802 16.8186 20.4187 16.7533C20.3573 16.688 20.3611 16.6151 20.3611 16.6151C20.3611 16.6151 20.5223 16.6265 20.5684 16.5344ZM17.1287 16.1282C17.0127 16.096 16.9174 16.0144 16.8457 15.886C16.8116 15.8248 16.5729 15.1819 16.403 14.7166L16.7593 14.7925L16.8263 15.3272L16.9232 15.3152L16.8253 14.5337L17.2282 14.6755C17.1797 14.8288 17.0332 15.325 17.0513 15.6616C17.058 15.7907 17.1023 15.8866 17.1829 15.9469C17.2559 16.0014 17.3436 16.0141 17.4105 16.0141C17.45 16.0141 17.4768 16.0103 17.495 16.0071C17.505 16.0316 17.5153 16.0558 17.5255 16.0801C17.4689 16.1078 17.303 16.1776 17.1287 16.1282ZM17.5115 18.1482C17.4978 18.1963 17.4688 18.2553 17.4083 18.2579C17.407 18.2579 17.4054 18.2579 17.4039 18.2579C17.3372 18.2579 17.2623 18.1925 17.239 18.1128C17.2379 18.1088 17.2354 18.1066 17.2341 18.1027L17.2838 17.9386L17.5115 18.1482ZM17.2954 17.5637L17.1709 17.9735C17.0902 17.8639 16.977 17.8252 16.9222 17.8124C16.8954 17.7317 16.8158 17.4805 16.7743 17.2329C16.7657 17.1806 16.7614 17.1361 16.7574 17.0921C16.9637 17.394 17.1962 17.5243 17.2954 17.5637ZM17.2493 16.7826C17.2133 16.8106 17.1601 16.8212 17.1036 16.8326C17.0236 16.8486 16.9335 16.8667 16.8825 16.9442C16.8639 16.9726 16.8546 17.0081 16.8499 17.0476C16.8174 17.0017 16.784 16.9628 16.7536 16.9068C16.7751 16.6575 16.9108 16.5944 17.0721 16.5199C17.3046 16.4123 17.3586 16.2976 17.3816 16.2291C17.4645 16.2129 17.5266 16.1872 17.5634 16.1698C17.5652 16.174 17.5671 16.1779 17.5689 16.1822C17.5433 16.2952 17.455 16.6218 17.2493 16.7826ZM17.7962 16.3424L17.5966 15.9124L19.9464 14.8219C20.1 15.1138 20.1154 15.4593 20.1154 15.4593L17.7962 16.3424Z" fill="#464655"/>
</svg>
