<svg width="24" height="24" viewBox="0 0 24 24" fill="none" xmlns="http://www.w3.org/2000/svg">
<path d="M23.5861 19.862H0.41381C0.185296 19.862 0 19.6767 0 19.4482V4.55175C0 4.32324 0.185296 4.13794 0.41381 4.13794H23.5861C23.8146 4.13794 23.9999 4.32324 23.9999 4.55175V19.4482C23.9999 19.6768 23.8146 19.862 23.5861 19.862Z" fill="#FFE15A"/>
<path d="M24 5.37946H1.24133V18.6206H24V5.37946Z" fill="#41479B"/>
<path d="M1.24133 5.37939L12.6205 12L6.93099 5.37944L1.24133 5.37939Z" fill="#FF4B55"/>
<path d="M12.6206 12V5.37939L18.3103 5.37944L12.6206 12Z" fill="#FF4B55"/>
<path d="M23.9999 5.37939L12.6206 12L23.9999 8.68969V5.37939Z" fill="#FF4B55"/>
<path d="M12.6206 12H23.9999V15.3103L12.6206 12Z" fill="#FF4B55"/>
<path d="M12.6206 12.0001L1.24146 8.68976V12.0001L12.6206 12.0001Z" fill="#FF4B55"/>
<path d="M1.24146 15.3104L12.6206 12L1.24146 18.6207V15.3104Z" fill="#FF4B55"/>
<path d="M12.811 10.789L14.2948 7.36694L13.1993 10.9323L12.811 10.789Z" fill="#FFE15A"/>
<path d="M14.7649 12.7568C14.7973 12.6653 14.8255 12.5719 14.846 12.4755L17.3189 12.6948L14.8863 12.203C14.8922 12.1361 14.8965 12.0686 14.8965 12C14.8965 11.934 14.8921 11.8691 14.8866 11.8046L17.2994 11.2964L14.8484 11.5339C14.8269 11.4308 14.7964 11.3314 14.7615 11.2339L16.9518 10.0888L14.654 10.982C14.5954 10.8654 14.5272 10.7548 14.4503 10.6506L16.2664 8.97609L14.2748 10.4401C14.0636 10.2162 13.8087 10.0344 13.5221 9.91058L14.2455 7.55667L13.2649 9.81819C13.0605 9.75782 12.8447 9.72416 12.6207 9.72416C12.395 9.72416 12.1774 9.75815 11.9716 9.81936L10.9904 7.55658L11.7145 9.91278C11.4289 10.037 11.1749 10.2187 10.9645 10.4424L8.96952 8.97595L10.789 10.6535C10.7125 10.7574 10.6448 10.8675 10.5866 10.9837L8.28416 10.0887L10.4791 11.2362C10.4446 11.3331 10.4143 11.4319 10.393 11.5343L7.93649 11.2963L10.3548 11.8056C10.3493 11.8698 10.3449 11.9343 10.3449 11.9999C10.3449 12.0681 10.3492 12.1352 10.3551 12.2018L7.91699 12.6947L10.3954 12.4748C10.4157 12.5706 10.4437 12.6633 10.4757 12.7543L8.29002 13.8712L10.5813 13.005C10.9527 13.7572 11.7253 14.2758 12.6208 14.2758C13.5157 14.2758 14.2877 13.7581 14.6595 13.0069L16.9461 13.8713L14.7649 12.7568Z" fill="#FFE15A"/>
<path d="M23.9998 18.6207L12.8807 12.1514C12.7199 12.0578 12.5213 12.0578 12.3605 12.1514L1.24133 18.6207H23.9998Z" fill="#F5F5F5"/>
<path d="M12.6229 15.3327C12.6704 15.3327 12.709 15.2941 12.709 15.2466C12.709 15.199 12.6704 15.1605 12.6229 15.1605C12.5753 15.1605 12.5367 15.199 12.5367 15.2466C12.5367 15.2941 12.5753 15.3327 12.6229 15.3327Z" fill="#FF4B55"/>
<path d="M12.4912 12.3621C12.7496 12.6814 12.3316 12.8411 12.3832 13.1464C12.3832 13.1464 12.2987 13.0196 12.3316 12.8411C12.3644 12.6627 12.2517 12.6063 12.2517 12.6063C12.2517 12.6063 12.3034 12.8082 12.1766 12.9209C12.0497 13.0336 12.0874 13.292 12.0874 13.292C12.0874 13.292 11.9277 13.184 11.9605 13.0196C11.9605 13.0196 11.7445 13.2074 11.937 13.5221C11.937 13.5221 11.8102 13.5127 11.7632 13.4329C11.7632 13.4329 11.6508 13.764 12.1039 14.0165C12.557 14.2689 12.6227 13.6678 12.6227 13.6678L12.9468 14.0717C12.9468 14.0717 13.335 14.0607 13.5198 13.6443L13.2974 13.685C13.3115 13.5675 13.609 13.5363 13.4915 13.184C13.4915 13.184 13.4821 13.2591 13.3976 13.3109C13.3976 13.3109 13.4007 13.0682 13.2254 12.9085C13.2254 12.9085 13.2192 13.0384 13.1628 13.0854C13.1628 13.0854 13.1816 12.9179 13.0783 12.7864C12.9796 12.6607 12.9703 12.5453 12.9703 12.5453C12.9703 12.5453 12.8529 12.7613 12.8952 12.8693C12.8952 12.8693 12.7972 12.8455 12.7872 12.7144C12.7652 12.4294 12.4912 12.3621 12.4912 12.3621Z" fill="#FF4B55"/>
<path d="M12.6229 15.2391C13.0277 15.2391 13.3559 15.0985 13.3559 14.925C13.3559 14.7515 13.0277 14.6108 12.6229 14.6108C12.2181 14.6108 11.8899 14.7515 11.8899 14.925C11.8899 15.0985 12.2181 15.2391 12.6229 15.2391Z" fill="#FFE15A"/>
<path d="M12.6229 15.1406C12.9729 15.1406 13.2567 15.0135 13.2567 14.8566C13.2567 14.6997 12.9729 14.5725 12.6229 14.5725C12.2728 14.5725 11.989 14.6997 11.989 14.8566C11.989 15.0135 12.2728 15.1406 12.6229 15.1406Z" fill="#FF4B55"/>
<path d="M12.7554 14.8936H12.4896C12.485 14.9764 12.5225 15.0966 12.6223 15.1402V15.1405L12.6224 15.1404C12.6224 15.1404 12.6226 15.1405 12.6227 15.1405V15.1402C12.7226 15.0966 12.7601 14.9764 12.7554 14.8936Z" fill="#FF82AA"/>
<path d="M12.9668 14.8424L12.7257 14.899C12.7404 14.9806 12.8019 15.0897 12.9025 15.1109L12.9025 15.1112L12.9027 15.111L12.9028 15.1111V15.1108C12.9834 15.0471 12.9899 14.9221 12.9668 14.8424Z" fill="#FF82AA"/>
<path d="M13.0916 14.7559L12.9237 14.8658C12.9662 14.9371 13.0558 15.0222 13.1427 15.0173L13.1428 15.0175L13.1429 15.0173L13.1431 15.0173L13.1429 15.0171C13.1821 14.9393 13.14 14.8232 13.0916 14.7559Z" fill="#FF82AA"/>
<path d="M13.0866 14.5859L13.0205 14.7526C13.11 14.8665 13.2568 14.8548 13.2568 14.8548C13.2627 14.762 13.147 14.6427 13.0866 14.5859Z" fill="#FF82AA"/>
<path d="M12.2762 14.8424L12.5173 14.899C12.5026 14.9806 12.4411 15.0897 12.3406 15.1109L12.3405 15.1112L12.3404 15.111L12.3402 15.1111L12.3403 15.1108C12.2596 15.0471 12.253 14.9221 12.2762 14.8424Z" fill="#FF82AA"/>
<path d="M12.1515 14.7559L12.3194 14.8658C12.2769 14.9371 12.1873 15.0222 12.1004 15.0173L12.1003 15.0175L12.1002 15.0173L12.1 15.0173L12.1002 15.0171C12.061 14.9393 12.1031 14.8232 12.1515 14.7559Z" fill="#FF82AA"/>
<path d="M12.1564 14.5859L12.2225 14.7526C12.1329 14.8665 11.9862 14.8548 11.9862 14.8548C11.9803 14.762 12.096 14.6427 12.1564 14.5859Z" fill="#FF82AA"/>
<path d="M12.6228 14.915C12.907 14.915 13.1373 14.8118 13.1373 14.6845C13.1373 14.5572 12.907 14.454 12.6228 14.454C12.3387 14.454 12.1084 14.5572 12.1084 14.6845C12.1084 14.8118 12.3387 14.915 12.6228 14.915Z" fill="#FFE15A"/>
<path d="M12.6229 14.8344C12.8343 14.8344 13.0057 14.7673 13.0057 14.6845C13.0057 14.6018 12.8343 14.5347 12.6229 14.5347C12.4115 14.5347 12.2401 14.6018 12.2401 14.6845C12.2401 14.7673 12.4115 14.8344 12.6229 14.8344Z" fill="#FF4B55"/>
<path d="M12.6614 17.2746C12.4112 17.2959 12.1914 17.1099 12.1701 16.86C12.1591 16.7351 12.2522 16.6249 12.3773 16.6143C12.5023 16.6037 12.6122 16.6964 12.6228 16.8215C12.6334 16.9466 12.7436 17.0391 12.8684 17.0287C12.9936 17.0181 13.0864 16.9077 13.0755 16.7829C13.0969 17.0332 12.9114 17.2532 12.6614 17.2746Z" fill="#41479B"/>
<path d="M12.1701 16.86C12.1592 16.7351 12.2522 16.6249 12.3773 16.6143C12.5023 16.6036 12.6122 16.6964 12.6228 16.8215C12.6335 16.9466 12.7436 17.0391 12.8685 17.0287C12.9936 17.0181 13.0865 16.9077 13.0756 16.7829C13.0546 16.5324 12.8346 16.3472 12.5844 16.3684C12.3344 16.3898 12.1488 16.6098 12.1701 16.86Z" fill="#FF9B55"/>
<path d="M12.6228 16.0775C12.212 16.0775 11.8789 16.4105 11.8789 16.8214C11.8789 17.2322 12.212 17.5653 12.6228 17.5653C13.0337 17.5653 13.3667 17.2322 13.3667 16.8214C13.3667 16.4105 13.0336 16.0775 12.6228 16.0775ZM12.6228 17.4103C12.2976 17.4103 12.0339 17.1467 12.0339 16.8214C12.0339 16.4961 12.2975 16.2325 12.6228 16.2325C12.9481 16.2325 13.2117 16.4961 13.2117 16.8214C13.2117 17.1467 12.948 17.4103 12.6228 17.4103Z" fill="#FFE15A"/>
<path d="M12.6227 16.2325C12.2975 16.2325 12.0338 16.4962 12.0338 16.8214C12.0338 17.1467 12.2975 17.4104 12.6227 17.4104C12.948 17.4104 13.2117 17.1467 13.2117 16.8214C13.2117 16.4962 12.948 16.2325 12.6227 16.2325ZM12.6227 17.2725C12.3736 17.2725 12.1716 17.0705 12.1716 16.8214C12.1716 16.5722 12.3736 16.3702 12.6227 16.3702C12.8719 16.3702 13.0739 16.5722 13.0739 16.8214C13.0738 17.0706 12.8719 17.2725 12.6227 17.2725Z" fill="#FF4B55"/>
<path d="M12.3941 16.8779C12.4255 16.8779 12.4509 16.8525 12.4509 16.8211C12.4509 16.7897 12.4255 16.7643 12.3941 16.7643C12.3627 16.7643 12.3373 16.7897 12.3373 16.8211C12.3373 16.8525 12.3627 16.8779 12.3941 16.8779Z" fill="#FF9B55"/>
<path d="M12.8488 16.8779C12.8802 16.8779 12.9056 16.8525 12.9056 16.8211C12.9056 16.7897 12.8802 16.7643 12.8488 16.7643C12.8174 16.7643 12.792 16.7897 12.792 16.8211C12.792 16.8525 12.8174 16.8779 12.8488 16.8779Z" fill="#41479B"/>
<path d="M12.6228 15.9637C12.6608 15.9637 12.6917 15.9329 12.6917 15.8948C12.6917 15.8568 12.6608 15.826 12.6228 15.826C12.5848 15.826 12.554 15.8568 12.554 15.8948C12.554 15.9329 12.5848 15.9637 12.6228 15.9637Z" fill="#FF4B55"/>
<path d="M12.6913 16.0837C12.7293 16.0837 12.7602 16.0529 12.7602 16.0148C12.7602 15.9768 12.7293 15.946 12.6913 15.946C12.6533 15.946 12.6224 15.9768 12.6224 16.0148C12.6224 16.0529 12.6533 16.0837 12.6913 16.0837Z" fill="#FF4B55"/>
<path d="M12.554 16.0837C12.592 16.0837 12.6228 16.0529 12.6228 16.0148C12.6228 15.9768 12.592 15.946 12.554 15.946C12.5159 15.946 12.4851 15.9768 12.4851 16.0148C12.4851 16.0529 12.5159 16.0837 12.554 16.0837Z" fill="#FF4B55"/>
<path d="M12.6228 17.819C12.6608 17.819 12.6917 17.7882 12.6917 17.7501C12.6917 17.7121 12.6608 17.6813 12.6228 17.6813C12.5848 17.6813 12.554 17.7121 12.554 17.7501C12.554 17.7882 12.5848 17.819 12.6228 17.819Z" fill="#FF4B55"/>
<path d="M12.554 17.699C12.592 17.699 12.6228 17.6682 12.6228 17.6301C12.6228 17.5921 12.592 17.5613 12.554 17.5613C12.5159 17.5613 12.4851 17.5921 12.4851 17.6301C12.4851 17.6682 12.5159 17.699 12.554 17.699Z" fill="#FF4B55"/>
<path d="M12.6913 17.699C12.7293 17.699 12.7602 17.6682 12.7602 17.6301C12.7602 17.5921 12.7293 17.5613 12.6913 17.5613C12.6533 17.5613 12.6224 17.5921 12.6224 17.6301C12.6224 17.6682 12.6533 17.699 12.6913 17.699Z" fill="#FF4B55"/>
<path d="M12.4969 13.946C12.4496 13.6822 12.3233 13.4841 12.2148 13.5035C12.1063 13.523 12.0567 13.7526 12.104 14.0164C12.1381 14.2068 12.2136 14.3599 12.2936 14.4247C12.2606 14.4814 12.2405 14.5679 12.24 14.6749C12.2995 14.68 12.3607 14.6797 12.4236 14.6684C12.4865 14.6571 12.544 14.6362 12.598 14.6108C12.5604 14.5106 12.5115 14.4365 12.4608 14.3948C12.5133 14.3062 12.531 14.1364 12.4969 13.946Z" fill="#FF9B55"/>
<path d="M12.7472 13.946C12.7945 13.6822 12.9208 13.4841 13.0293 13.5035C13.1378 13.523 13.1874 13.7526 13.1401 14.0164C13.106 14.2068 13.0305 14.3599 12.9505 14.4247C12.9835 14.4814 13.0036 14.5679 13.0041 14.6749C12.9446 14.68 12.8834 14.6797 12.8205 14.6684C12.7576 14.6572 12.7001 14.6362 12.6461 14.6108C12.6837 14.5106 12.7326 14.4365 12.7833 14.3948C12.7308 14.3062 12.713 14.1364 12.7472 13.946Z" fill="#41479B"/>
<path d="M12.8246 13.94C12.8246 13.6493 12.7352 13.4137 12.625 13.4137C12.5148 13.4137 12.4254 13.6493 12.4254 13.94C12.4254 14.1497 12.4728 14.3275 12.5401 14.412C12.4976 14.4662 12.4625 14.5546 12.4432 14.6688C12.5008 14.6856 12.5611 14.697 12.625 14.697C12.6889 14.697 12.7492 14.6856 12.8068 14.6688C12.7875 14.5546 12.7525 14.4662 12.7099 14.412C12.7773 14.3275 12.8246 14.1496 12.8246 13.94Z" fill="#F5F5F5"/>
<path d="M12.6228 14.4895C12.4927 14.4895 12.3735 14.4774 12.2959 14.456C12.2692 14.449 12.2535 14.4217 12.2608 14.3948C12.2682 14.3683 12.2963 14.3508 12.322 14.3602C12.4592 14.3968 12.7863 14.3968 12.9235 14.3602C12.9502 14.3505 12.9775 14.3683 12.9847 14.3948C12.9919 14.4218 12.9763 14.449 12.9496 14.456C12.8721 14.4775 12.7528 14.4895 12.6228 14.4895Z" fill="#FFE15A"/>
<path d="M12.1954 15.2787C12.2494 15.2717 12.3175 15.2552 12.3223 15.173C12.3223 15.173 12.2002 15.1613 12.2002 15.1707C12.2002 15.1801 12.1954 15.2787 12.1954 15.2787Z" fill="#FFE15A"/>
<path d="M10.9696 14.9734C11.0306 14.9906 11.0902 15.0031 11.109 15.0783C11.109 15.0783 11.1716 14.9531 11.0839 14.8779C11.0679 14.8642 10.9696 14.9734 10.9696 14.9734Z" fill="#FF4B55"/>
<path d="M11.2295 14.7636C11.2905 14.7808 11.3501 14.7933 11.3689 14.8685C11.3689 14.8685 11.4315 14.7433 11.3438 14.6681C11.3278 14.6544 11.2295 14.7636 11.2295 14.7636Z" fill="#FF4B55"/>
<path d="M10.9883 15.1988C10.9508 15.1894 10.885 15.1049 10.9695 14.9734C11.0541 14.8419 10.683 15.0391 10.669 15.1472C10.6549 15.2552 10.6408 15.4478 10.7254 15.3962C10.8099 15.3444 10.9883 15.1988 10.9883 15.1988Z" fill="#FFE15A"/>
<path d="M11.3907 15.2129C11.4032 15.144 11.3907 15.0971 11.4784 15.0345C11.566 14.9719 11.5785 14.9374 11.5785 14.8967C11.5785 14.8967 11.5308 14.9476 11.4462 14.9687C11.3945 14.9816 11.35 15.0188 11.35 15.0188C11.35 15.0188 11.328 14.9405 11.4064 14.8967C11.4064 14.8967 11.2686 14.8967 11.2467 15.0219C11.2248 15.1471 11.2968 15.1659 11.1935 15.1784C11.0902 15.1909 10.8491 15.1409 10.7646 15.3319C10.6801 15.5229 10.9367 15.3851 11.0056 15.36C11.0745 15.335 11.2937 15.3882 11.3281 15.3412C11.3625 15.2944 11.3907 15.2129 11.3907 15.2129Z" fill="#FF4B55"/>
<path d="M10.4882 15.5558L10.8592 14.9453C10.8592 14.9453 11.2279 14.8028 11.231 14.784C11.2342 14.7652 11.3531 14.6118 11.3531 14.5898C11.3531 14.5679 11.3406 14.4615 11.2937 14.4427C11.2467 14.4239 11.0972 14.4871 11.0322 14.5036C10.9672 14.5202 10.8647 14.3989 10.8647 14.3989C10.8647 14.3989 10.2667 14.5116 10.2228 14.5837C10.179 14.6557 9.97231 15.1723 9.96294 15.2256C9.95351 15.2788 9.96293 15.6451 9.97545 15.6389C9.98797 15.6325 10.4882 15.5558 10.4882 15.5558Z" fill="#FFF5E6"/>
<path d="M11.3751 14.4991C11.3187 14.4177 11.2154 14.4177 11.1716 14.4835C11.1277 14.5492 11.0339 14.5492 11.0119 14.6306C10.9946 14.6949 11.0996 14.8122 11.1622 14.7903C11.2249 14.7683 11.3407 14.6963 11.3407 14.6963C11.3407 14.6963 11.4315 14.5805 11.3751 14.4991ZM11.2036 14.6648C11.1779 14.6977 11.1134 14.6568 11.113 14.6204C11.1126 14.5839 11.1665 14.5819 11.1932 14.6008C11.2107 14.6131 11.2246 14.6381 11.2036 14.6648ZM11.3001 14.5837C11.2626 14.6018 11.2227 14.5367 11.2385 14.5038C11.2542 14.4709 11.3034 14.4928 11.319 14.5216C11.3293 14.5404 11.3308 14.569 11.3001 14.5837Z" fill="#FF4B55"/>
<path d="M11.4938 16.8676C11.5562 16.8739 11.6388 16.8653 11.6559 16.7242C11.6756 16.5623 11.7246 16.5058 11.8056 16.5433C11.8867 16.5807 11.8666 16.6454 11.8666 16.6454C11.8666 16.6454 11.9558 16.8802 11.9089 16.9741C11.8619 17.068 11.7539 17.1807 11.674 17.1995C11.5942 17.2183 11.4298 17.1103 11.4298 17.1103L11.4938 16.8676Z" fill="#FFF5E6"/>
<path d="M11.0431 16.3213C11.0963 16.2963 11.7538 15.8392 11.8321 15.6669C11.9104 15.4948 11.8666 15.3695 11.9699 15.3632C12.0733 15.3569 12.2486 15.3507 12.2329 15.2223C12.2173 15.0939 12.0451 15.1754 11.9981 15.1503C11.9511 15.1253 11.804 15.0564 11.7758 15.1566C11.7476 15.2568 11.7758 15.3476 11.7351 15.3977C11.6944 15.4478 11.5128 15.5355 11.4815 15.5292C11.4502 15.5229 11.3833 15.5147 11.3322 15.547C11.2811 15.5793 11.2529 15.6231 11.2529 15.6231C11.2529 15.6231 11.0603 15.6309 11.0329 15.6568C11.0055 15.6826 10.9022 15.8204 10.9022 15.8204L11.0431 16.3213Z" fill="#FFE6D7"/>
<path d="M11.112 16.218C11.112 16.218 11.2372 16.171 11.3265 15.9972C11.4157 15.8234 11.5049 15.8939 11.6365 15.7999C11.7679 15.706 11.6834 15.5651 11.6459 15.5087C11.6083 15.4524 11.6342 15.3068 11.7633 15.3114C11.8483 15.3145 12.1202 15.5791 11.9981 15.8422C11.9981 15.8422 11.9793 15.7952 11.9324 15.7388C11.9324 15.7388 12.0029 15.9126 11.8385 16.1051C11.8385 16.1051 11.8432 16.0065 11.7915 15.9407C11.7915 15.9407 11.7868 16.185 11.599 16.3399C11.599 16.3399 11.6224 16.1803 11.5943 16.1145C11.5943 16.1145 11.5661 16.3259 11.289 16.5184C11.289 16.5184 11.3313 16.4433 11.3219 16.3211L11.087 16.4432L11.112 16.218Z" fill="#5AA587"/>
<path d="M9.32577 17.0211C9.32577 17.0211 9.24125 17.2794 9.47136 17.3546C9.70147 17.4297 9.82831 17.3311 9.91283 17.3546C9.99734 17.3781 9.97855 17.5284 9.86117 17.6551C9.74375 17.782 9.62633 17.796 9.4948 17.7021C9.36331 17.6082 9.35389 17.5236 9.21772 17.5565C9.08155 17.5894 8.89368 17.4579 8.89368 17.4579C8.89368 17.4579 9.01579 16.9272 9.02985 16.9319C9.04396 16.9366 9.32577 17.0211 9.32577 17.0211Z" fill="#F5DCD2"/>
<path d="M8.13169 16.3749C8.13169 16.3749 8.29383 16.219 8.92387 16.0256C9.55387 15.8322 9.89071 15.7512 9.89071 15.7512L10.3835 15.5952C10.3835 15.5952 10.6154 15.5943 10.7676 15.5511C10.9199 15.5079 10.9199 15.5079 10.9199 15.5079C10.9199 15.5079 11.3254 16.0818 11.0198 16.6618L11.1258 16.7617C11.1258 16.7617 11.2373 16.7957 11.3219 16.8255C11.4065 16.8553 11.3441 17.0174 11.3441 17.0174L11.0197 17.1671L10.0716 17.1235C10.0716 17.1235 10.0529 17.0798 9.74099 17.1796C9.42909 17.2794 9.29188 17.0548 8.69306 17.0361C8.09428 17.0174 8.13169 16.3749 8.13169 16.3749Z" fill="#FFF5E6"/>
<path d="M10.8271 14.1359C10.8271 14.1359 10.9225 14.2314 10.8709 14.3331C10.8709 14.3331 10.7644 14.2235 10.6768 14.1985C10.5418 14.1599 10.5139 14.2337 10.2157 14.2478C10.0281 14.2566 9.95229 14.4364 9.76877 14.3926C9.57232 14.3456 9.41028 14.4356 9.41028 14.4356C9.41028 14.4356 9.52296 14.4216 9.6146 14.5085C9.70615 14.5953 9.8682 14.5765 9.8682 14.5765C9.8682 14.5765 9.72026 14.6799 9.59581 14.6305C9.47136 14.5812 9.29286 14.6728 9.29286 14.6728C9.32571 14.6705 9.39851 14.6822 9.48073 14.7691C9.56295 14.8559 9.74613 14.8348 9.74613 14.8348C9.71328 14.8747 9.62168 14.9193 9.53515 14.9027C9.33903 14.8652 9.12969 14.9527 9.12969 14.9527C9.12969 14.9527 9.25447 14.909 9.42284 15.0338C9.59126 15.1585 9.78467 15.0837 9.78467 15.0837C9.78467 15.1648 9.61587 15.4772 9.31639 15.4666C8.9435 15.4534 8.849 15.67 8.849 15.67C8.849 15.67 8.99867 15.6201 9.19208 15.6513C9.56665 15.7118 9.82207 15.4954 9.82207 15.4954C9.82207 15.4954 9.75968 15.7885 9.50398 15.7761C9.24828 15.7636 8.92391 16.0256 8.92391 16.0256C8.92391 16.0256 9.21204 15.9736 9.58418 15.9691C9.70657 15.9676 9.80609 15.9193 9.89116 15.8619C10.1149 15.7108 10.3216 15.7108 10.3216 15.7108C10.0774 15.7672 9.95056 16.0349 9.95056 16.0349C9.95056 16.0349 10.1384 15.8705 10.4108 15.8705C10.6832 15.8705 10.7677 15.5511 10.7677 15.5511C10.5141 15.5558 10.4765 15.3491 10.4765 15.3491C10.4765 15.3491 10.4014 15.3726 10.3309 15.4572C10.2864 15.5107 10.211 15.5288 10.1595 15.536C10.1407 15.3714 10.265 15.221 10.265 15.221C10.265 15.221 10.0966 14.9653 10.315 14.6908C10.5333 14.4163 11.0323 14.5037 11.0323 14.5037C11.0838 14.2736 10.8897 14.1296 10.8271 14.1359Z" fill="#5AA587"/>
<path d="M10.3198 15.0439C10.4012 15.0314 10.7801 14.9061 10.7738 14.7371C10.7675 14.568 10.5421 14.6275 10.5547 14.7183C10.5672 14.8091 10.6486 14.7903 10.6486 14.7903C10.6486 14.7903 10.6407 14.8312 10.4732 14.8654C10.3355 14.8936 10.3198 15.0439 10.3198 15.0439Z" fill="#5AA587"/>
<path d="M11.3219 16.8254C11.3219 16.8254 11.5567 16.7879 11.5473 16.9569C11.5378 17.126 11.4032 17.3045 11.1246 17.3828C11.1246 17.3828 11.228 17.2936 11.2045 17.2419C11.181 17.1902 11.0636 17.1762 11.0025 17.2654C10.9415 17.3546 10.8381 17.3922 10.7489 17.378C10.7489 17.378 10.9086 17.2606 10.7959 17.2184C10.6944 17.1803 10.7333 17.3452 10.4906 17.3734C10.4906 17.3734 10.6691 17.2325 10.5658 17.1949C10.4624 17.1574 10.4061 17.4015 10.2229 17.3828C10.2229 17.3828 10.3763 17.2294 10.2933 17.2043C10.1626 17.1649 10.1289 17.3922 9.89414 17.2935C9.89414 17.2935 10.0116 17.2419 9.91762 17.1151C9.82369 16.9882 9.95517 16.8286 10.021 16.7629C10.0868 16.6971 10.1337 16.6549 10.1149 16.5891C10.1149 16.5891 10.2825 16.694 10.1979 16.8786C10.1185 17.0521 10.4399 16.9563 10.6895 16.935C10.9462 16.9131 11.0985 17.0604 11.2625 17.0102C11.4158 16.9632 11.3219 16.8254 11.3219 16.8254Z" fill="#5AA587"/>
<path d="M6.77808 16.9051C6.77808 16.9051 7.08614 17.0472 7.26079 16.9037C7.43545 16.7602 7.48288 16.93 7.68876 16.8053C7.89463 16.6805 7.88212 16.7492 8.0443 16.7492C8.20644 16.7492 8.32499 16.4872 8.22519 16.3063C8.22519 16.3063 8.56391 16.1749 8.49439 15.9033C8.44274 15.7014 8.18774 15.7637 8.18774 15.7637C8.18774 15.7637 7.91868 15.5945 7.7324 15.8136C7.5802 15.9926 7.66377 16.113 7.40803 16.1442C7.15232 16.1754 7.11487 16.4373 6.84042 16.4062C6.84042 16.4062 7.02754 16.6494 7.31446 16.4935C7.31446 16.4935 7.30781 16.7284 6.77808 16.9051Z" fill="#5AA587"/>
<path d="M9.50423 17.364C9.50423 17.364 9.76724 17.5989 9.25064 17.7397C9.25064 17.7397 9.28354 17.6974 9.32109 17.6223C9.32109 17.6223 9.16143 17.7397 8.95472 17.7303C8.95472 17.7303 9.01575 17.6833 9.02986 17.6269C9.02986 17.6269 8.84198 17.6786 8.70581 17.5894C8.70581 17.5894 8.8702 17.58 8.97351 17.425C8.97351 17.425 9.02048 17.5189 9.11911 17.472C9.21773 17.425 9.27426 17.4925 9.36332 17.4955C9.43607 17.4978 9.49949 17.4603 9.50423 17.364Z" fill="#5AA587"/>
<path d="M9.37435 15.9143C9.37435 15.9143 9.18648 16.002 9.27418 16.1679C9.33263 16.2785 9.51572 16.3051 9.58726 16.2024C9.64829 16.1147 9.59986 16.0296 9.5356 16.0176C9.46829 16.0051 9.4276 16.0332 9.39624 16.0896C9.39624 16.0896 9.28037 16.0458 9.37435 15.9143Z" fill="#5AA587"/>
<path d="M10.2181 16.2063C10.2181 16.2063 10.6261 16.2218 10.6056 16.5045C10.5966 16.6289 10.4283 16.7158 10.3222 16.6505C10.2316 16.5949 10.2463 16.5022 10.2936 16.4611C10.3456 16.4158 10.3971 16.4321 10.4482 16.4711C10.4482 16.4711 10.4741 16.3166 10.2181 16.2063Z" fill="#5AA587"/>
<path d="M11.033 15.6567C11.033 15.6567 11.2531 15.509 11.3389 15.6849C11.3766 15.7623 11.3063 15.8724 11.2203 15.8702C11.147 15.8683 11.1237 15.8079 11.1375 15.767C11.1529 15.722 11.1893 15.7139 11.2333 15.7195C11.2333 15.7195 11.2466 15.6051 11.033 15.6567Z" fill="#5AA587"/>
<path d="M11.3323 15.547C11.3323 15.547 11.5354 15.4107 11.6145 15.5729C11.6492 15.6443 11.5844 15.7459 11.5051 15.7439C11.4374 15.7422 11.4159 15.6865 11.4287 15.6487C11.4429 15.6072 11.4765 15.5997 11.5171 15.6048C11.5171 15.6048 11.5294 15.4993 11.3323 15.547Z" fill="#5AA587"/>
<path d="M10.5714 16.4479C10.5714 16.4479 10.9225 16.4613 10.9048 16.7046C10.8971 16.8116 10.7523 16.8864 10.6609 16.8302C10.583 16.7823 10.5788 16.6944 10.6126 16.6525C10.6713 16.5797 10.7418 16.6126 10.7418 16.6126C10.7418 16.6126 10.7916 16.5429 10.5714 16.4479Z" fill="#5AA587"/>
<path d="M10.8287 16.6407C10.8287 16.6407 11.2162 16.6031 11.1874 16.8646C11.1799 16.9328 11.0899 16.9809 11.0314 16.945C10.9815 16.9144 10.9789 16.8582 11.0005 16.8313C11.0381 16.7848 11.0831 16.8058 11.0831 16.8058C11.0831 16.8058 11.0588 16.69 10.8287 16.6407Z" fill="#5AA587"/>
<path d="M8.3437 17.8844C8.3437 17.8844 8.39671 17.9921 8.43103 18.0965C8.46042 18.1859 8.61192 18.2462 8.69301 18.1901C8.7741 18.134 8.91102 17.9661 8.85491 17.9287C8.7988 17.8913 8.55581 17.9219 8.5184 17.7908C8.48095 17.6598 8.49346 17.5725 8.49346 17.5725C8.49346 17.5725 8.81854 17.6692 8.97355 17.425C9.12857 17.1808 9.1064 16.9423 9.16715 16.8239C9.21463 16.7314 9.29816 16.6867 9.29816 16.6867C9.20268 16.3087 8.03817 16.038 8.17331 17.0194L7.99036 17.4353L8.3437 17.8844Z" fill="#FFE6D7"/>
<path d="M7.93083 17.8681C8.01071 17.9197 8.30344 18.0685 8.48503 17.9557C8.63353 17.8636 8.63536 17.7584 8.54142 17.7349C8.44749 17.7115 8.39583 17.7772 8.34413 17.7349C8.29247 17.6927 8.00124 17.4531 8.10929 17.378C8.21733 17.3029 8.27579 17.2421 8.27368 17.1103C8.27213 17.0132 8.18757 16.9193 8.08735 16.9099C7.96243 16.8982 7.86502 16.9506 7.73354 16.9506L7.88696 17.0289C7.78834 17.0758 7.78051 17.2089 7.66309 17.2324C7.66309 17.2324 7.74296 17.3232 7.84313 17.295C7.84313 17.295 7.80868 17.389 7.71474 17.4015C7.71474 17.4015 7.8024 17.5016 7.88382 17.5299C7.88382 17.5299 7.83062 17.5674 7.74765 17.5518C7.74765 17.5518 7.87758 17.7428 8.07169 17.7913L7.93083 17.8681Z" fill="#5AA587"/>
<path d="M8.49659 17.5104C8.49659 17.5104 8.54876 17.5014 8.55321 17.4378C8.55579 17.4012 8.51923 17.3537 8.45703 17.3573C8.38414 17.3615 8.33468 17.4583 8.36961 17.5224C8.459 17.6866 8.79181 17.6206 8.83249 17.5612C8.83249 17.5612 8.56643 17.5737 8.49659 17.5104Z" fill="#5AA587"/>
<path d="M8.6526 18.2908C8.66709 18.2705 8.67881 18.2153 8.65063 18.1812C8.65063 18.1812 8.66592 18.1026 8.72577 18.1307C8.72577 18.1307 8.75123 18.1937 8.73084 18.2376C8.71054 18.2814 8.6526 18.2908 8.6526 18.2908Z" fill="#FFE15A"/>
<path d="M8.77478 18.2466C8.77375 18.1899 8.761 18.1588 8.71525 18.1541C8.71525 18.1541 8.70353 18.072 8.77164 18.072C8.77164 18.072 8.82212 18.1165 8.82259 18.1649C8.82301 18.2132 8.77478 18.2466 8.77478 18.2466Z" fill="#FFE15A"/>
<path d="M8.85037 18.1916C8.83921 18.1359 8.82866 18.0972 8.77771 18.0935C8.77771 18.0935 8.75062 18.0262 8.82571 18.0168C8.82571 18.0168 8.87361 18.0552 8.88276 18.1027C8.89185 18.1501 8.85037 18.1916 8.85037 18.1916Z" fill="#FFE15A"/>
<path d="M8.92585 18.1053C8.90274 18.0535 8.87972 18.0328 8.82919 18.0403C8.82919 18.0403 8.78574 17.9793 8.84564 17.9464C8.84564 17.9464 8.91858 17.9672 8.93785 18.0115C8.95716 18.0558 8.92585 18.1053 8.92585 18.1053Z" fill="#FFE15A"/>
<path d="M9.8174 17.7877C9.82804 17.7651 9.82982 17.7087 9.79602 17.6802C9.79602 17.6802 9.79705 17.6001 9.86099 17.6171C9.86099 17.6171 9.89718 17.6746 9.88494 17.7213C9.87271 17.7681 9.8174 17.7877 9.8174 17.7877Z" fill="#FFE15A"/>
<path d="M9.92974 17.7226C9.91868 17.667 9.90063 17.6386 9.85474 17.6422C9.85474 17.6422 9.82863 17.5634 9.89562 17.5513C9.89562 17.5513 9.95318 17.5862 9.96223 17.6337C9.97127 17.6812 9.92974 17.7226 9.92974 17.7226Z" fill="#FFE15A"/>
<path d="M9.9943 17.6551C9.97344 17.6023 9.95619 17.5661 9.90533 17.5714C9.90533 17.5714 9.86671 17.51 9.93894 17.4874C9.93894 17.4874 9.9929 17.5168 10.0103 17.5618C10.0278 17.6069 9.9943 17.6551 9.9943 17.6551Z" fill="#FFE15A"/>
<path d="M10.0534 17.5567C10.0214 17.5098 9.99507 17.4935 9.9467 17.5098C9.9467 17.5098 9.89312 17.4574 9.94618 17.4144C9.94618 17.4144 10.0216 17.422 10.0486 17.4621C10.0754 17.5024 10.0534 17.5567 10.0534 17.5567Z" fill="#FFE15A"/>
<path d="M11.3781 14.665C11.3883 14.7159 11.3624 14.7714 11.2404 14.8246C11.1183 14.8779 11.1214 14.856 11.04 14.9593C10.9586 15.0626 10.9492 15.0657 10.849 15.0845C10.7488 15.1033 10.7018 15.4132 10.8208 15.3663C10.9398 15.3193 10.9554 15.2222 11.0869 15.2536C11.2184 15.285 11.2873 15.3287 11.3906 15.2129C11.3906 15.2129 11.4908 15.3475 11.303 15.4039C11.1151 15.4603 11.0126 15.4646 10.9199 15.5078C10.827 15.5511 10.498 15.6568 10.4764 15.3491C10.4701 15.2599 10.5359 15.2255 10.5734 15.1597C10.611 15.094 10.6486 15.0501 10.7394 14.9781C10.8302 14.9061 10.7738 14.8466 10.921 14.8247C11.0681 14.8028 11.1903 14.8059 11.2341 14.6995C11.2779 14.593 11.3656 14.6024 11.3781 14.665Z" fill="#FFE6D7"/>
<path d="M8.91247 16.1577C8.91247 16.1577 8.88425 16.0456 9.01507 15.998C8.98437 16.0074 8.95611 16.0157 8.92386 16.0257C8.89634 16.0341 8.8745 16.042 8.84876 16.0503C8.83873 16.0639 8.82523 16.071 8.81843 16.09C8.77864 16.2015 8.87707 16.3461 8.9945 16.3303C9.09462 16.3168 9.12303 16.2287 9.09031 16.1763C9.05595 16.1213 8.98053 16.1084 8.91247 16.1577Z" fill="#5AA587"/>
<path d="M8.95293 17.3488C8.81095 17.3805 8.74706 17.3257 8.74706 17.3257C8.74706 17.3257 8.79923 17.3167 8.80368 17.2531C8.80626 17.2165 8.7697 17.1691 8.70749 17.1726C8.6346 17.1768 8.58515 17.2736 8.62012 17.3378C8.69704 17.4789 8.91552 17.4456 9.0118 17.3455C9.01687 17.3352 9.02212 17.325 9.02666 17.3147C9.00562 17.3281 8.97871 17.343 8.95293 17.3488Z" fill="#5AA587"/>
<path d="M9.0964 17.1115C9.10001 17.0954 9.10512 17.0792 9.10822 17.0639C8.94134 17.1314 8.89269 17.0464 8.89269 17.0464C8.89269 17.0464 8.94486 17.0373 8.94931 16.9738C8.95189 16.9372 8.91533 16.8897 8.85312 16.8933C8.78023 16.8975 8.73078 16.9943 8.76575 17.0585C8.84731 17.208 8.99258 17.1664 9.0964 17.1115Z" fill="#5AA587"/>
<path d="M9.47189 17.1909C9.3749 17.2778 9.3008 17.273 9.3008 17.273C9.3008 17.273 9.33951 17.2369 9.30862 17.1813C9.29076 17.1492 9.23423 17.1294 9.18408 17.1663C9.12525 17.2096 9.13669 17.3177 9.201 17.3524C9.35934 17.4378 9.46209 17.3058 9.51703 17.1995C9.50203 17.1975 9.48689 17.1939 9.47189 17.1909Z" fill="#5AA587"/>
<path d="M11.9714 17.1068C11.9644 17.0722 11.9282 17.0063 11.8836 17.0018C11.8836 17.0018 11.831 16.9094 11.8907 16.8759C11.8907 16.8759 11.9565 16.9114 11.9783 16.9749C12.0003 17.0385 11.9714 17.1068 11.9714 17.1068Z" fill="#FFE15A"/>
<path d="M12.013 16.9391C11.9676 16.8848 11.935 16.8675 11.9026 16.9096C11.9026 16.9096 11.8303 16.8413 11.873 16.7719C11.873 16.7719 11.9399 16.764 11.9784 16.8107C12.0169 16.8574 12.013 16.9391 12.013 16.9391Z" fill="#FFE15A"/>
<path d="M12.0169 16.8085C11.9659 16.7656 11.9288 16.7385 11.8939 16.7869C11.8939 16.7869 11.8237 16.7488 11.8633 16.663C11.8633 16.663 11.9238 16.6517 11.9669 16.6887C12.0102 16.7257 12.0169 16.8085 12.0169 16.8085Z" fill="#FFE15A"/>
<path d="M11.9961 16.6473C11.9407 16.6203 11.9098 16.6234 11.8841 16.6823C11.8841 16.6823 11.8086 16.667 11.8202 16.5738C11.8202 16.5738 11.8823 16.5198 11.9295 16.5433C11.9766 16.5668 11.9961 16.6473 11.9961 16.6473Z" fill="#FFE15A"/>
<path d="M10.7864 14.9278C10.8348 14.9278 10.874 14.8886 10.874 14.8402C10.874 14.7917 10.8348 14.7525 10.7864 14.7525C10.738 14.7525 10.6987 14.7917 10.6987 14.8402C10.6987 14.8886 10.738 14.9278 10.7864 14.9278Z" fill="#F5F5F5"/>
<path d="M10.7863 14.872C10.8038 14.872 10.8181 14.8577 10.8181 14.8402C10.8181 14.8226 10.8038 14.8084 10.7863 14.8084C10.7687 14.8084 10.7545 14.8226 10.7545 14.8402C10.7545 14.8577 10.7687 14.872 10.7863 14.872Z" fill="#41479B"/>
<path d="M10.9668 14.5912C11.0062 14.5912 11.038 14.5593 11.038 14.52C11.038 14.4807 11.0062 14.4488 10.9668 14.4488C10.9275 14.4488 10.8956 14.4807 10.8956 14.52C10.8956 14.5593 10.9275 14.5912 10.9668 14.5912Z" fill="#F5F5F5"/>
<path d="M10.9669 14.5459C10.9811 14.5459 10.9927 14.5343 10.9927 14.52C10.9927 14.5058 10.9811 14.4942 10.9669 14.4942C10.9526 14.4942 10.941 14.5058 10.941 14.52C10.941 14.5343 10.9526 14.5459 10.9669 14.5459Z" fill="#41479B"/>
<path d="M8.43807 16.2415C8.35698 16.3039 8.07643 16.1664 7.87919 16.2321C7.62423 16.3171 7.62634 16.4809 7.62634 16.4809C7.62634 16.4809 7.78525 16.2838 8.04981 16.3808C8.1962 16.4345 8.28132 16.4373 8.28132 16.4373L8.43807 16.2415Z" fill="#FFF5E6"/>
<path d="M13.0457 15.2787C12.9917 15.2717 12.9236 15.2552 12.9188 15.173C12.9188 15.173 13.0409 15.1613 13.0409 15.1707C13.0409 15.1801 13.0457 15.2787 13.0457 15.2787Z" fill="#FFE15A"/>
<path d="M14.2715 14.9734C14.2105 14.9906 14.1509 15.0031 14.1321 15.0783C14.1321 15.0783 14.0695 14.9531 14.1572 14.8779C14.1732 14.8642 14.2715 14.9734 14.2715 14.9734Z" fill="#FF4B55"/>
<path d="M14.0116 14.7636C13.9506 14.7808 13.8911 14.7933 13.8723 14.8685C13.8723 14.8685 13.8096 14.7433 13.8973 14.6681C13.9133 14.6544 14.0116 14.7636 14.0116 14.7636Z" fill="#FF4B55"/>
<path d="M14.2527 15.1988C14.2902 15.1894 14.356 15.1049 14.2715 14.9734C14.1869 14.8419 14.558 15.0391 14.572 15.1472C14.5861 15.2553 14.6002 15.4478 14.5157 15.3962C14.4311 15.3444 14.2527 15.1988 14.2527 15.1988Z" fill="#FFE15A"/>
<path d="M13.8503 15.2129C13.8378 15.144 13.8503 15.0971 13.7626 15.0345C13.675 14.9719 13.6625 14.9374 13.6625 14.8967C13.6625 14.8967 13.7102 14.9476 13.7948 14.9687C13.8465 14.9816 13.8911 15.0188 13.8911 15.0188C13.8911 15.0188 13.913 14.9405 13.8347 14.8967C13.8347 14.8967 13.9725 14.8967 13.9943 15.0219C14.0163 15.1471 13.9442 15.1659 14.0476 15.1784C14.1509 15.1909 14.392 15.1409 14.4765 15.3319C14.561 15.5228 14.3043 15.3851 14.2354 15.36C14.1665 15.335 13.9474 15.3882 13.9129 15.3412C13.8785 15.2943 13.8503 15.2129 13.8503 15.2129Z" fill="#FF4B55"/>
<path d="M14.7529 15.5558L14.3819 14.9453C14.3819 14.9453 14.0132 14.8028 14.01 14.784C14.0069 14.7652 13.8879 14.6118 13.8879 14.5898C13.8879 14.5679 13.9005 14.4615 13.9474 14.4427C13.9944 14.4239 14.1439 14.4871 14.2089 14.5036C14.2739 14.5202 14.3764 14.3989 14.3764 14.3989C14.3764 14.3989 14.9744 14.5116 15.0183 14.5837C15.0621 14.6557 15.2688 15.1723 15.2781 15.2256C15.2876 15.2788 15.2781 15.6451 15.2656 15.6389C15.2531 15.6325 14.7529 15.5558 14.7529 15.5558Z" fill="#FFF5E6"/>
<path d="M13.9004 14.6963C13.9004 14.6963 14.0163 14.7683 14.0789 14.7903C14.1415 14.8122 14.2465 14.6948 14.2292 14.6306C14.2073 14.5492 14.1133 14.5492 14.0695 14.4835C14.0257 14.4177 13.9224 14.4177 13.866 14.4991C13.8096 14.5805 13.9004 14.6963 13.9004 14.6963ZM14.0478 14.6007C14.0747 14.5818 14.1285 14.5839 14.128 14.6203C14.1276 14.6568 14.0631 14.6976 14.0374 14.6648C14.0164 14.6381 14.0304 14.6131 14.0478 14.6007ZM13.922 14.5216C13.9376 14.4927 13.9869 14.4709 14.0026 14.5037C14.0183 14.5366 13.9785 14.6017 13.9409 14.5836C13.9103 14.569 13.9118 14.5404 13.922 14.5216Z" fill="#FF4B55"/>
<path d="M13.7473 16.8676C13.6849 16.8739 13.6023 16.8653 13.5852 16.7242C13.5655 16.5623 13.5166 16.5058 13.4355 16.5433C13.3545 16.5807 13.3745 16.6454 13.3745 16.6454C13.3745 16.6454 13.2853 16.8802 13.3322 16.9741C13.3792 17.068 13.4872 17.1807 13.5671 17.1995C13.647 17.2183 13.8113 17.1103 13.8113 17.1103L13.7473 16.8676Z" fill="#FFF5E6"/>
<path d="M14.1979 16.3213C14.1447 16.2963 13.4872 15.8392 13.4089 15.6669C13.3306 15.4947 13.3744 15.3695 13.2711 15.3632C13.1677 15.3569 12.9924 15.3507 13.0081 15.2223C13.0237 15.0939 13.1959 15.1754 13.2429 15.1503C13.2899 15.1253 13.437 15.0564 13.4652 15.1566C13.4934 15.2568 13.4652 15.3476 13.5059 15.3977C13.5466 15.4478 13.7282 15.5355 13.7595 15.5292C13.7908 15.5228 13.8577 15.5147 13.9088 15.547C13.9599 15.5793 13.9881 15.6231 13.9881 15.6231C13.9881 15.6231 14.1807 15.6309 14.2081 15.6568C14.2355 15.6826 14.3388 15.8204 14.3388 15.8204L14.1979 16.3213Z" fill="#FFE6D7"/>
<path d="M14.129 16.218C14.129 16.218 14.0038 16.171 13.9145 15.9972C13.8253 15.8234 13.736 15.8939 13.6045 15.7999C13.473 15.706 13.5575 15.5651 13.5951 15.5087C13.6326 15.4524 13.6068 15.3068 13.4777 15.3114C13.3927 15.3145 13.1207 15.5791 13.2428 15.8422C13.2428 15.8422 13.2616 15.7952 13.3085 15.7388C13.3085 15.7388 13.2381 15.9126 13.4025 16.1051C13.4025 16.1051 13.3978 16.0065 13.4494 15.9407C13.4494 15.9407 13.4541 16.185 13.642 16.3399C13.642 16.3399 13.6185 16.1803 13.6467 16.1145C13.6467 16.1145 13.6749 16.3259 13.952 16.5184C13.952 16.5184 13.9098 16.4433 13.9191 16.3211L14.1539 16.4432L14.129 16.218Z" fill="#5AA587"/>
<path d="M15.9154 17.0211C15.9154 17.0211 15.9999 17.2794 15.7698 17.3546C15.5397 17.4297 15.4128 17.3311 15.3283 17.3546C15.2438 17.3781 15.2626 17.5284 15.38 17.6551C15.4974 17.782 15.6148 17.796 15.7463 17.7021C15.8778 17.6082 15.8872 17.5236 16.0234 17.5565C16.1596 17.5894 16.3475 17.4579 16.3475 17.4579C16.3475 17.4579 16.2253 16.9272 16.2113 16.9319C16.1971 16.9366 15.9154 17.0211 15.9154 17.0211Z" fill="#F5DCD2"/>
<path d="M17.1095 16.3749C17.1095 16.3749 16.9473 16.219 16.3173 16.0256C15.6873 15.8322 15.3504 15.7512 15.3504 15.7512L14.8576 15.5952C14.8576 15.5952 14.6257 15.5943 14.4735 15.5511C14.3213 15.5079 14.3212 15.5079 14.3212 15.5079C14.3212 15.5079 13.9157 16.0818 14.2214 16.6618L14.1153 16.7617C14.1153 16.7617 14.0039 16.7957 13.9193 16.8255C13.8346 16.8553 13.897 17.0174 13.897 17.0174L14.2214 17.1671L15.1695 17.1235C15.1695 17.1235 15.1882 17.0798 15.5001 17.1796C15.8121 17.2794 15.9493 17.0548 16.5481 17.0361C17.1469 17.0174 17.1095 16.3749 17.1095 16.3749Z" fill="#FFF5E6"/>
<path d="M14.4139 14.1359C14.4139 14.1359 14.3185 14.2314 14.3701 14.3331C14.3701 14.3331 14.4766 14.2235 14.5642 14.1985C14.6992 14.1599 14.7271 14.2337 15.0253 14.2478C15.2129 14.2566 15.2887 14.4364 15.4722 14.3926C15.6687 14.3456 15.8307 14.4356 15.8307 14.4356C15.8307 14.4356 15.718 14.4216 15.6264 14.5085C15.5349 14.5953 15.3728 14.5765 15.3728 14.5765C15.3728 14.5765 15.5207 14.6799 15.6452 14.6305C15.7697 14.5812 15.9482 14.6728 15.9482 14.6728C15.9153 14.6705 15.8425 14.6822 15.7603 14.7691C15.6781 14.856 15.4949 14.8348 15.4949 14.8348C15.5277 14.8747 15.6193 14.9193 15.7059 14.9027C15.902 14.8652 16.1113 14.9527 16.1113 14.9527C16.1113 14.9527 15.9866 14.909 15.8182 15.0338C15.6497 15.1585 15.4563 15.0837 15.4563 15.0837C15.4563 15.1648 15.6251 15.4772 15.9246 15.4666C16.2975 15.4534 16.392 15.67 16.392 15.67C16.392 15.67 16.2423 15.6201 16.0489 15.6513C15.6744 15.7118 15.4189 15.4954 15.4189 15.4954C15.4189 15.4954 15.4813 15.7885 15.737 15.7761C15.9927 15.7636 16.3171 16.0256 16.3171 16.0256C16.3171 16.0256 16.029 15.9736 15.6568 15.9691C15.5344 15.9676 15.4349 15.9193 15.3498 15.8619C15.1261 15.7108 14.9194 15.7108 14.9194 15.7108C15.1637 15.7672 15.2905 16.0349 15.2905 16.0349C15.2905 16.0349 15.1026 15.8705 14.8302 15.8705C14.5578 15.8705 14.4732 15.5511 14.4732 15.5511C14.7268 15.5558 14.7644 15.3491 14.7644 15.3491C14.7644 15.3491 14.8396 15.3726 14.91 15.4572C14.9546 15.5107 15.0299 15.5288 15.0815 15.536C15.1003 15.3714 14.9759 15.221 14.9759 15.221C14.9759 15.221 15.1443 14.9653 14.926 14.6908C14.7077 14.4163 14.2086 14.5037 14.2086 14.5037C14.1573 14.2736 14.3514 14.1296 14.4139 14.1359Z" fill="#5AA587"/>
<path d="M14.9212 15.0439C14.8398 15.0314 14.4609 14.9061 14.4672 14.7371C14.4736 14.568 14.6989 14.6275 14.6864 14.7183C14.6739 14.8091 14.5924 14.7903 14.5924 14.7903C14.5924 14.7903 14.6003 14.8312 14.7678 14.8654C14.9055 14.8936 14.9212 15.0439 14.9212 15.0439Z" fill="#5AA587"/>
<path d="M13.9193 16.8254C13.9193 16.8254 13.6845 16.7879 13.6939 16.9569C13.7033 17.126 13.8379 17.3045 14.1165 17.3828C14.1165 17.3828 14.0132 17.2936 14.0367 17.2419C14.0602 17.1902 14.1776 17.1762 14.2386 17.2654C14.2996 17.3546 14.403 17.3922 14.4922 17.378C14.4922 17.378 14.3325 17.2606 14.4452 17.2184C14.5468 17.1803 14.5079 17.3452 14.7505 17.3734C14.7505 17.3734 14.5721 17.2325 14.6754 17.1949C14.7787 17.1574 14.835 17.4015 15.0183 17.3828C15.0183 17.3828 14.8649 17.2294 14.9478 17.2043C15.0785 17.1649 15.1122 17.3922 15.347 17.2935C15.347 17.2935 15.2296 17.2419 15.3235 17.1151C15.4175 16.9882 15.286 16.8286 15.2202 16.7629C15.1544 16.6971 15.1075 16.6549 15.1262 16.5891C15.1262 16.5891 14.9587 16.694 15.0433 16.8786C15.1227 17.0521 14.8013 16.9563 14.5517 16.935C14.2949 16.9131 14.1426 17.0604 13.9787 17.0102C13.8254 16.9632 13.9193 16.8254 13.9193 16.8254Z" fill="#5AA587"/>
<path d="M18.463 16.9051C18.463 16.9051 18.155 17.0472 17.9803 16.9037C17.8057 16.7602 17.7582 16.93 17.5524 16.8053C17.3465 16.6805 17.359 16.7492 17.1968 16.7492C17.0347 16.7492 16.9161 16.4872 17.0159 16.3063C17.0159 16.3063 16.6772 16.1749 16.7467 15.9033C16.7984 15.7014 17.0534 15.7637 17.0534 15.7637C17.0534 15.7637 17.3224 15.5945 17.5087 15.8136C17.6609 15.9926 17.5773 16.113 17.8331 16.1442C18.0888 16.1754 18.1262 16.4373 18.4007 16.4062C18.4007 16.4062 18.2136 16.6494 17.9266 16.4935C17.9266 16.4935 17.9334 16.7284 18.463 16.9051Z" fill="#5AA587"/>
<path d="M15.7369 17.364C15.7369 17.364 15.4739 17.5989 15.9905 17.7397C15.9905 17.7397 15.9576 17.6974 15.92 17.6223C15.92 17.6223 16.0797 17.7397 16.2864 17.7303C16.2864 17.7303 16.2254 17.6833 16.2112 17.6269C16.2112 17.6269 16.3991 17.6786 16.5353 17.5894C16.5353 17.5894 16.3709 17.58 16.2676 17.425C16.2676 17.425 16.2206 17.5189 16.122 17.472C16.0234 17.425 15.9668 17.4925 15.8777 17.4955C15.805 17.4978 15.7416 17.4603 15.7369 17.364Z" fill="#5AA587"/>
<path d="M15.8668 15.9143C15.8668 15.9143 16.0547 16.002 15.967 16.1679C15.9085 16.2785 15.7254 16.3051 15.6539 16.2024C15.5929 16.1147 15.6413 16.0296 15.7055 16.0176C15.7729 16.0051 15.8135 16.0332 15.8449 16.0896C15.8449 16.0896 15.9607 16.0458 15.8668 15.9143Z" fill="#5AA587"/>
<path d="M15.023 16.2063C15.023 16.2063 14.615 16.2218 14.6355 16.5045C14.6445 16.6289 14.8127 16.7158 14.9189 16.6505C15.0095 16.5949 14.9948 16.5022 14.9476 16.4611C14.8955 16.4158 14.8441 16.4321 14.793 16.4711C14.793 16.4711 14.767 16.3166 15.023 16.2063Z" fill="#5AA587"/>
<path d="M14.2081 15.6567C14.2081 15.6567 13.9879 15.509 13.9021 15.6849C13.8645 15.7623 13.9348 15.8724 14.0207 15.8702C14.0941 15.8683 14.1174 15.8079 14.1035 15.767C14.0881 15.722 14.0517 15.7139 14.0078 15.7195C14.0078 15.7195 13.9944 15.6051 14.2081 15.6567Z" fill="#5AA587"/>
<path d="M13.9089 15.547C13.9089 15.547 13.7058 15.4107 13.6267 15.5729C13.5919 15.6443 13.6568 15.7459 13.7361 15.7439C13.8037 15.7422 13.8252 15.6865 13.8124 15.6487C13.7982 15.6072 13.7647 15.5997 13.724 15.6048C13.724 15.6048 13.7118 15.4993 13.9089 15.547Z" fill="#5AA587"/>
<path d="M14.6696 16.4479C14.6696 16.4479 14.3186 16.4613 14.3362 16.7046C14.344 16.8116 14.4887 16.8864 14.5801 16.8302C14.6581 16.7823 14.6622 16.6944 14.6284 16.6525C14.5697 16.5797 14.4993 16.6126 14.4993 16.6126C14.4993 16.6126 14.4494 16.5429 14.6696 16.4479Z" fill="#5AA587"/>
<path d="M14.4123 16.6407C14.4123 16.6407 14.0249 16.6031 14.0537 16.8646C14.0612 16.9328 14.1512 16.9809 14.2097 16.945C14.2595 16.9144 14.2622 16.8582 14.2405 16.8313C14.203 16.7848 14.1579 16.8058 14.1579 16.8058C14.1579 16.8058 14.1822 16.69 14.4123 16.6407Z" fill="#5AA587"/>
<path d="M16.8974 17.8844C16.8974 17.8844 16.8444 17.9921 16.8101 18.0965C16.7807 18.1859 16.6292 18.2462 16.5481 18.1901C16.467 18.134 16.3301 17.9661 16.3862 17.9287C16.4423 17.8913 16.6853 17.9219 16.7228 17.7908C16.7602 17.6598 16.7477 17.5725 16.7477 17.5725C16.7477 17.5725 16.4226 17.6692 16.2676 17.425C16.1126 17.1807 16.1348 16.9423 16.074 16.8239C16.0265 16.7314 15.943 16.6867 15.943 16.6867C16.0385 16.3087 17.203 16.038 17.0678 17.0194L17.2508 17.4353L16.8974 17.8844Z" fill="#FFE6D7"/>
<path d="M17.3101 17.8681C17.2303 17.9197 16.9375 18.0685 16.7559 17.9557C16.6074 17.8636 16.6056 17.7584 16.6995 17.7349C16.7935 17.7115 16.8451 17.7772 16.8968 17.7349C16.9485 17.6927 17.2397 17.4531 17.1317 17.378C17.0236 17.3029 16.9652 17.2421 16.9673 17.1103C16.9688 17.0132 17.0534 16.9193 17.1536 16.9099C17.2785 16.8982 17.3759 16.9506 17.5074 16.9506L17.354 17.0289C17.4526 17.0758 17.4605 17.2089 17.5779 17.2324C17.5779 17.2324 17.498 17.3232 17.3978 17.295C17.3978 17.295 17.4323 17.389 17.5262 17.4015C17.5262 17.4015 17.4386 17.5016 17.3571 17.5299C17.3571 17.5299 17.4103 17.5674 17.4933 17.5518C17.4933 17.5518 17.3634 17.7428 17.1693 17.7913L17.3101 17.8681Z" fill="#5AA587"/>
<path d="M16.7444 17.5104C16.7444 17.5104 16.6922 17.5014 16.6877 17.4378C16.6851 17.4012 16.7217 17.3537 16.7839 17.3573C16.8568 17.3615 16.9063 17.4583 16.8713 17.5224C16.7819 17.6866 16.4491 17.6206 16.4084 17.5612C16.4084 17.5612 16.6745 17.5737 16.7444 17.5104Z" fill="#5AA587"/>
<path d="M16.5885 18.2908C16.574 18.2705 16.5623 18.2153 16.5904 18.1812C16.5904 18.1812 16.5752 18.1026 16.5153 18.1307C16.5153 18.1307 16.4898 18.1937 16.5102 18.2376C16.5305 18.2814 16.5885 18.2908 16.5885 18.2908Z" fill="#FFE15A"/>
<path d="M16.4664 18.2466C16.4674 18.1899 16.4801 18.1588 16.5259 18.1541C16.5259 18.1541 16.5376 18.072 16.4695 18.072C16.4695 18.072 16.4191 18.1165 16.4186 18.1649C16.4182 18.2132 16.4664 18.2466 16.4664 18.2466Z" fill="#FFE15A"/>
<path d="M16.3909 18.1916C16.402 18.1359 16.4126 18.0972 16.4635 18.0935C16.4635 18.0935 16.4906 18.0262 16.4155 18.0168C16.4155 18.0168 16.3676 18.0552 16.3585 18.1027C16.3494 18.15 16.3909 18.1916 16.3909 18.1916Z" fill="#FFE15A"/>
<path d="M16.3154 18.1053C16.3385 18.0535 16.3615 18.0328 16.412 18.0403C16.412 18.0403 16.4555 17.9793 16.3956 17.9464C16.3956 17.9464 16.3226 17.9672 16.3033 18.0115C16.284 18.0558 16.3154 18.1053 16.3154 18.1053Z" fill="#FFE15A"/>
<path d="M15.4238 17.7877C15.4131 17.7651 15.4114 17.7087 15.4452 17.6802C15.4452 17.6802 15.4441 17.6001 15.3801 17.6171C15.3801 17.6171 15.344 17.6746 15.3561 17.7213C15.3684 17.7681 15.4238 17.7877 15.4238 17.7877Z" fill="#FFE15A"/>
<path d="M15.3114 17.7226C15.3224 17.667 15.3405 17.6386 15.3864 17.6422C15.3864 17.6422 15.4125 17.5634 15.3455 17.5513C15.3455 17.5513 15.2879 17.5862 15.2789 17.6337C15.2698 17.6812 15.3114 17.7226 15.3114 17.7226Z" fill="#FFE15A"/>
<path d="M15.2469 17.6551C15.2678 17.6023 15.285 17.5661 15.3359 17.5714C15.3359 17.5714 15.3745 17.51 15.3023 17.4874C15.3023 17.4874 15.2483 17.5168 15.2309 17.5618C15.2134 17.6069 15.2469 17.6551 15.2469 17.6551Z" fill="#FFE15A"/>
<path d="M15.1878 17.5567C15.2198 17.5098 15.2461 17.4935 15.2945 17.5098C15.2945 17.5098 15.3481 17.4574 15.295 17.4144C15.295 17.4144 15.2196 17.422 15.1927 17.4621C15.1658 17.5024 15.1878 17.5567 15.1878 17.5567Z" fill="#FFE15A"/>
<path d="M13.8628 14.665C13.8527 14.7159 13.8785 14.7714 14.0006 14.8246C14.1228 14.8779 14.1196 14.856 14.201 14.9593C14.2825 15.0626 14.2918 15.0657 14.3921 15.0845C14.4922 15.1033 14.5392 15.4132 14.4202 15.3663C14.3013 15.3193 14.2856 15.2222 14.1541 15.2536C14.0226 15.285 13.9537 15.3287 13.8504 15.2129C13.8504 15.2129 13.7502 15.3475 13.9381 15.4039C14.1259 15.4603 14.2285 15.4646 14.3212 15.5078C14.414 15.5511 14.743 15.6568 14.7647 15.3491C14.7709 15.2599 14.7052 15.2255 14.6676 15.1597C14.63 15.094 14.5924 15.0501 14.5016 14.9781C14.4108 14.9061 14.4672 14.8466 14.3201 14.8247C14.1729 14.8028 14.0508 14.8059 14.007 14.6995C13.963 14.593 13.8754 14.6024 13.8628 14.665Z" fill="#FFE6D7"/>
<path d="M16.3286 16.1577C16.3286 16.1577 16.3568 16.0456 16.226 15.998C16.2567 16.0074 16.285 16.0157 16.3172 16.0257C16.3447 16.0341 16.3666 16.042 16.3923 16.0503C16.4023 16.0639 16.4158 16.071 16.4226 16.09C16.4624 16.2015 16.364 16.3461 16.2466 16.3303C16.1464 16.3168 16.118 16.2287 16.1508 16.1763C16.1851 16.1213 16.2605 16.1084 16.3286 16.1577Z" fill="#5AA587"/>
<path d="M16.2881 17.3488C16.4301 17.3805 16.494 17.3257 16.494 17.3257C16.494 17.3257 16.4418 17.3167 16.4373 17.2531C16.4348 17.2165 16.4713 17.1691 16.5335 17.1726C16.6064 17.1768 16.6559 17.2736 16.6209 17.3378C16.544 17.4789 16.3255 17.4456 16.2292 17.3455C16.2242 17.3352 16.2189 17.325 16.2144 17.3147C16.2354 17.3281 16.2624 17.343 16.2881 17.3488Z" fill="#5AA587"/>
<path d="M16.1446 17.1115C16.141 17.0954 16.1359 17.0792 16.1328 17.0639C16.2997 17.1314 16.3483 17.0464 16.3483 17.0464C16.3483 17.0464 16.2962 17.0373 16.2917 16.9738C16.2891 16.9372 16.3257 16.8897 16.3879 16.8933C16.4608 16.8975 16.5102 16.9943 16.4753 17.0585C16.3938 17.208 16.2484 17.1664 16.1446 17.1115Z" fill="#5AA587"/>
<path d="M15.7693 17.1909C15.8662 17.2778 15.9404 17.273 15.9404 17.273C15.9404 17.273 15.9016 17.2369 15.9325 17.1813C15.9504 17.1492 16.0069 17.1294 16.0571 17.1663C16.1159 17.2096 16.1045 17.3177 16.0402 17.3524C15.8818 17.4378 15.7791 17.3058 15.7241 17.1995C15.739 17.1975 15.7542 17.1939 15.7693 17.1909Z" fill="#5AA587"/>
<path d="M13.2697 17.1068C13.2767 17.0722 13.3129 17.0063 13.3575 17.0018C13.3575 17.0018 13.4101 16.9094 13.3504 16.8759C13.3504 16.8759 13.2846 16.9114 13.2627 16.9749C13.2408 17.0385 13.2697 17.1068 13.2697 17.1068Z" fill="#FFE15A"/>
<path d="M13.228 16.9391C13.2735 16.8848 13.306 16.8675 13.3385 16.9096C13.3385 16.9096 13.4108 16.8413 13.3681 16.7719C13.3681 16.7719 13.3012 16.764 13.2627 16.8107C13.2241 16.8573 13.228 16.9391 13.228 16.9391Z" fill="#FFE15A"/>
<path d="M13.2241 16.8085C13.2751 16.7656 13.3123 16.7385 13.3472 16.7869C13.3472 16.7869 13.4174 16.7488 13.3777 16.663C13.3777 16.663 13.3173 16.6517 13.2741 16.6887C13.2309 16.7257 13.2241 16.8085 13.2241 16.8085Z" fill="#FFE15A"/>
<path d="M13.245 16.6473C13.3004 16.6203 13.3313 16.6234 13.357 16.6823C13.357 16.6823 13.4325 16.667 13.421 16.5738C13.421 16.5738 13.3588 16.5198 13.3117 16.5433C13.2645 16.5669 13.245 16.6473 13.245 16.6473Z" fill="#FFE15A"/>
<path d="M14.4547 14.9278C14.5031 14.9278 14.5424 14.8886 14.5424 14.8402C14.5424 14.7917 14.5031 14.7525 14.4547 14.7525C14.4063 14.7525 14.3671 14.7917 14.3671 14.8402C14.3671 14.8886 14.4063 14.9278 14.4547 14.9278Z" fill="#F5F5F5"/>
<path d="M14.4548 14.872C14.4723 14.872 14.4865 14.8577 14.4865 14.8402C14.4865 14.8226 14.4723 14.8084 14.4548 14.8084C14.4372 14.8084 14.423 14.8226 14.423 14.8402C14.423 14.8577 14.4372 14.872 14.4548 14.872Z" fill="#41479B"/>
<path d="M14.2738 14.5912C14.3132 14.5912 14.345 14.5593 14.345 14.52C14.345 14.4807 14.3132 14.4488 14.2738 14.4488C14.2345 14.4488 14.2026 14.4807 14.2026 14.52C14.2026 14.5593 14.2345 14.5912 14.2738 14.5912Z" fill="#F5F5F5"/>
<path d="M14.2739 14.5459C14.2881 14.5459 14.2997 14.5343 14.2997 14.52C14.2997 14.5058 14.2881 14.4942 14.2739 14.4942C14.2596 14.4942 14.248 14.5058 14.248 14.52C14.248 14.5343 14.2596 14.5459 14.2739 14.5459Z" fill="#41479B"/>
<path d="M16.803 16.2415C16.8841 16.3039 17.1646 16.1664 17.3619 16.2321C17.6168 16.3171 17.6147 16.4809 17.6147 16.4809C17.6147 16.4809 17.4558 16.2838 17.1912 16.3808C17.0449 16.4345 16.9597 16.4373 16.9597 16.4373L16.803 16.2415Z" fill="#FFF5E6"/>
</svg>
