<svg width="24" height="24" viewBox="0 0 24 24" fill="none" xmlns="http://www.w3.org/2000/svg">
<path d="M0 14.6207H24V19.4482C24 19.6767 23.8147 19.862 23.5861 19.862H0.413812C0.185297 19.862 0 19.6767 0 19.4482V14.6207Z" fill="#73AF00"/>
<path d="M0.413812 4.13792H23.5862C23.8147 4.13792 24 4.32322 24 4.55174V9.37929H0V4.55174C0 4.32322 0.185297 4.13792 0.413812 4.13792Z" fill="#82AFFF"/>
<path d="M24 9.3792H0V14.6203H24V9.3792Z" fill="#FF4B55"/>
<path d="M12.5644 13.716C11.6358 13.716 10.8825 12.9626 10.8825 12.0333C10.8825 11.1055 11.6358 10.3505 12.5644 10.3505C12.9099 10.3505 13.2285 10.4568 13.494 10.6366C13.5347 10.6642 13.5811 10.6107 13.547 10.5753C13.1502 10.1628 12.5885 9.911 11.9659 9.93228C10.896 9.9688 10.0103 10.8265 9.94194 11.8948C9.86361 13.1185 10.8325 14.1354 12.0389 14.1354C12.6331 14.1354 13.1671 13.8869 13.5485 13.4898C13.5822 13.4547 13.5357 13.4021 13.4955 13.4293C13.2297 13.6096 12.9105 13.716 12.5644 13.716Z" fill="#F5F5F5"/>
<path d="M14.0368 10.9974L14.2113 11.488L14.6817 11.2645C14.7171 11.2476 14.7541 11.2846 14.7372 11.32L14.5137 11.7904L15.0043 11.9649C15.0413 11.978 15.0413 12.0303 15.0043 12.0434L14.5137 12.2179L14.7372 12.6883C14.7541 12.7237 14.7171 12.7607 14.6817 12.7438L14.2113 12.5203L14.0368 13.0109C14.0237 13.0479 13.9714 13.0479 13.9582 13.0109L13.7837 12.5203L13.3134 12.7438C13.278 12.7607 13.241 12.7237 13.2578 12.6883L13.4814 12.2179L12.9908 12.0434C12.9538 12.0303 12.9538 11.978 12.9908 11.9649L13.4814 11.7904L13.2578 11.32C13.241 11.2846 13.278 11.2476 13.3134 11.2645L13.7837 11.488L13.9582 10.9974C13.9714 10.9604 14.0237 10.9604 14.0368 10.9974Z" fill="#F5F5F5"/>
</svg>
