<svg width="24" height="24" viewBox="0 0 24 24" fill="none" xmlns="http://www.w3.org/2000/svg">
<path d="M0 7.03448V16.9655L6.62067 12L0 7.03448Z" fill="#464655"/>
<path d="M3.3103 4.13793L10.7586 9.93102H23.9999V4.55169C23.9999 4.32318 23.8146 4.13788 23.5861 4.13788L3.3103 4.13793Z" fill="#FF4B55"/>
<path d="M3.3103 19.8621L10.7586 14.069H23.9999V19.4483C23.9999 19.6768 23.8146 19.8621 23.5861 19.8621H3.3103V19.8621Z" fill="#41479B"/>
<path d="M2.66667 4.13794H0.413813C0.185297 4.13794 0 4.32319 0 4.5517V6.24905L7.26441 12L0 17.7511V19.4483C0 19.6768 0.185297 19.8621 0.413813 19.8621H2.66644L10.5069 13.6552H24V10.3448H10.5069L2.66667 4.13794Z" fill="#73AF00"/>
<path d="M3.99994 4.13794H2.66663L10.5069 10.3448H24V9.51722H10.7948L3.99994 4.13794Z" fill="#F5F5F5"/>
<path d="M0 6.24902V7.30455L5.93109 12L0 16.6956V17.7511L7.26441 12L0 6.24902Z" fill="#FFE15A"/>
<path d="M10.5068 13.6552L2.66638 19.8621H3.99974L10.7947 14.4828H23.9999V13.6552H10.5068Z" fill="#F5F5F5"/>
</svg>
