<svg width="24" height="24" viewBox="0 0 24 24" fill="none" xmlns="http://www.w3.org/2000/svg">
<g clip-path="url(#clip0_2058_9008)">
<path d="M8.00002 19.8619H0.413813C0.185297 19.8619 0 19.6766 0 19.4481V4.5516C0 4.32308 0.185297 4.13779 0.413813 4.13779H8.00002V19.8619Z" fill="#F5F5F5"/>
<path d="M16.0003 4.13797H8.00012V19.8622H16.0003V4.13797Z" fill="#4173CD"/>
<path d="M23.5862 19.8619H16V4.13779H23.5862C23.8147 4.13779 24 4.32308 24 4.5516V19.4481C24 19.6767 23.8147 19.8619 23.5862 19.8619Z" fill="#FFE15A"/>
<path d="M10.7511 12.4589C10.7463 12.5825 10.561 12.6347 10.561 12.6347C10.5421 12.4257 10.7559 12.0408 10.7986 12.0076C10.8414 11.9743 11.0124 11.8175 10.8414 11.8507C10.6703 11.884 10.504 12.2688 10.466 12.3353C10.428 12.4019 10.3377 12.3971 10.3377 12.3971C10.3377 12.3971 10.3377 12.0883 10.3377 12.0218C10.3377 11.9552 10.6323 11.8127 10.6323 11.8127C10.6323 11.8127 10.6798 11.5276 10.6371 11.4991C10.5943 11.4706 10.504 11.5514 10.3757 11.5609C10.2474 11.5704 10.0906 11.5752 9.95757 11.6987C9.82454 11.8223 9.81976 11.9078 9.81976 12.1168C9.81976 12.3259 9.81976 12.1168 9.81976 12.6205C9.81976 13.1242 9.34932 13.4758 9.17354 13.6516C9.12568 13.6995 9.10735 13.758 9.10576 13.8194C9.07041 13.8525 8.99246 13.9007 8.92735 13.8868C8.82727 13.8653 8.81236 13.6893 8.81236 13.5863C8.81236 13.5548 8.78686 13.5293 8.75536 13.5293C8.72386 13.5293 8.69836 13.5548 8.69836 13.5863C8.69836 13.9347 8.84668 13.9967 8.93499 14.0027C8.93986 14.0031 8.94469 14.0032 8.94966 14.0032C9.00821 14.0032 9.07116 13.9801 9.12338 13.9478C9.15736 14.0708 9.22894 14.1852 9.24947 14.2313C9.28749 14.3169 9.07843 14.4547 9.07843 14.4547L9.24947 14.9821H9.48235C9.48235 14.8515 9.32321 14.8776 9.2994 14.8443C9.27568 14.8111 9.24718 14.5093 9.24718 14.5093L9.57755 14.2329C9.60305 14.2116 9.61777 14.18 9.61777 14.1468V13.9997C9.61777 13.9997 9.86011 14.0389 9.92072 14.0923C9.98129 14.1458 9.92785 14.3062 9.92785 14.3275C9.92785 14.3489 10.2343 14.6197 10.2343 14.6197H10.4446C10.4446 14.5235 10.3448 14.5271 10.2949 14.5092C10.245 14.4914 10.0954 14.3061 10.0954 14.3061C10.0954 14.3061 10.1762 14.0555 10.1762 13.9937C10.1762 13.9319 9.82932 13.6801 9.82932 13.6801C9.82932 13.6801 9.87685 13.5993 10.2285 13.3807C10.5801 13.1621 10.5516 12.9151 10.5516 12.9151L10.8557 12.573V12.3259C10.8557 12.3259 10.7558 12.3353 10.7511 12.4589Z" fill="#C17400"/>
<path d="M13.2577 12.4589C13.2625 12.5825 13.4478 12.6347 13.4478 12.6347C13.4668 12.4257 13.2529 12.0408 13.2102 12.0076C13.1674 11.9743 12.9964 11.8175 13.1674 11.8507C13.3385 11.884 13.5048 12.2688 13.5428 12.3353C13.5809 12.4019 13.6711 12.3971 13.6711 12.3971C13.6711 12.3971 13.6711 12.0883 13.6711 12.0218C13.6711 11.9552 13.3765 11.8127 13.3765 11.8127C13.3765 11.8127 13.329 11.5276 13.3717 11.4991C13.4145 11.4706 13.5048 11.5514 13.6331 11.5609C13.7614 11.5704 13.9182 11.5752 14.0512 11.6987C14.1843 11.8223 14.1891 11.9078 14.1891 12.1168C14.1891 12.3259 14.1891 12.1168 14.1891 12.6205C14.1891 13.1242 14.6595 13.4758 14.8353 13.6516C14.8831 13.6995 14.9015 13.758 14.903 13.8194C14.9384 13.8525 15.0163 13.9007 15.0814 13.8868C15.1815 13.8653 15.1964 13.6893 15.1964 13.5863C15.1964 13.5548 15.2219 13.5293 15.2534 13.5293C15.2849 13.5293 15.3104 13.5548 15.3104 13.5863C15.3104 13.9347 15.1621 13.9967 15.0738 14.0027C15.0689 14.0031 15.0641 14.0032 15.0591 14.0032C15.0006 14.0032 14.9376 13.9801 14.8854 13.9478C14.8514 14.0708 14.7798 14.1852 14.7593 14.2313C14.7213 14.3169 14.9303 14.4547 14.9303 14.4547L14.7593 14.9821H14.5264C14.5264 14.8515 14.6856 14.8776 14.7094 14.8443C14.7331 14.8111 14.7616 14.5093 14.7616 14.5093L14.4312 14.2329C14.4057 14.2116 14.391 14.18 14.391 14.1468V13.9997C14.391 13.9997 14.1487 14.0389 14.088 14.0923C14.0275 14.1458 14.0809 14.3062 14.0809 14.3275C14.0809 14.3488 13.7745 14.6197 13.7745 14.6197H13.5642C13.5642 14.5235 13.664 14.5271 13.7138 14.5092C13.7638 14.4914 13.9134 14.3061 13.9134 14.3061C13.9134 14.3061 13.8326 14.0555 13.8326 13.9937C13.8326 13.9319 14.1795 13.6801 14.1795 13.6801C14.1795 13.6801 14.1319 13.5993 13.7803 13.3807C13.4287 13.1621 13.4572 12.9151 13.4572 12.9151L13.1531 12.573V12.3259C13.1532 12.3258 13.2529 12.3353 13.2577 12.4589Z" fill="#C17400"/>
<path d="M11.5469 12.1334L11.2048 12.4755H11.8891L11.5469 12.1334Z" fill="#C8C8C8"/>
<path d="M12.4593 12.1334L12.1172 12.4755H12.8014L12.4593 12.1334Z" fill="#C8C8C8"/>
<path d="M11.5469 12.7036L11.2048 13.0457H11.8891L11.5469 12.7036Z" fill="#C8C8C8"/>
<path d="M12.4593 12.7036L12.1172 13.0457H12.8014L12.4593 12.7036Z" fill="#C8C8C8"/>
<path d="M11.5469 13.2738L11.2048 13.6159H11.8891L11.5469 13.2738Z" fill="#C8C8C8"/>
<path d="M12.4593 13.2738L12.1172 13.6159H12.8014L12.4593 13.2738Z" fill="#C8C8C8"/>
<path d="M12.0032 13.844L11.661 14.1861H12.3453L12.0032 13.844Z" fill="#C8C8C8"/>
<path d="M12.0601 10.3091H11.946V10.9933H12.0601V10.3091Z" fill="#FFE15A"/>
<path d="M11.3776 11.0068C11.3757 10.9994 11.3337 10.8244 11.4516 10.6968C11.5555 10.5843 11.7444 10.55 12.0125 10.5947L11.9938 10.7072C11.7689 10.6695 11.6104 10.6928 11.5354 10.7741C11.46 10.8557 11.4879 10.978 11.4882 10.9792L11.3776 11.0068Z" fill="#FFE15A"/>
<path d="M11.0652 11.3861C10.9227 11.3148 10.8527 11.1079 10.9123 10.9342C10.9373 10.8614 11.0496 10.63 11.4441 10.709L11.4217 10.8209C11.2133 10.7789 11.0673 10.8341 11.0202 10.9712C10.9795 11.0896 11.0253 11.2387 11.1162 11.2842L11.0652 11.3861Z" fill="#FFE15A"/>
<path d="M12.6286 11.0068L12.518 10.9792L12.5733 10.993L12.5179 10.9794C12.5182 10.9782 12.5465 10.8553 12.4702 10.7734C12.3948 10.6926 12.2365 10.6696 12.0125 10.7072L11.9938 10.5947C12.2622 10.5498 12.4508 10.5843 12.5546 10.6967C12.6725 10.8244 12.6304 10.9995 12.6286 11.0068Z" fill="#FFE15A"/>
<path d="M12.9409 11.3861L12.8899 11.2841C12.9807 11.2387 13.0265 11.0895 12.9859 10.9712C12.9388 10.8341 12.7925 10.779 12.5844 10.8208L12.562 10.709C12.9568 10.63 13.0688 10.8614 13.0938 10.9341C13.1534 11.1079 13.0834 11.3148 12.9409 11.3861Z" fill="#FFE15A"/>
<path d="M12.4593 10.993C12.4593 10.993 12.2312 10.8789 12.0031 10.8789C11.7751 10.8789 11.547 10.993 11.547 10.993C11.3189 10.8789 10.9768 10.993 10.9768 11.2211C10.9768 11.4492 11.3189 11.7913 11.3189 11.7913H12.0032H12.6874C12.6874 11.7913 13.0295 11.4492 13.0295 11.2211C13.0295 10.993 12.6874 10.8789 12.4593 10.993Z" fill="#FF4B55"/>
<path d="M12.1175 10.3658H11.8894V10.4798H12.1175V10.3658Z" fill="#FFE15A"/>
<path d="M13.1438 9.73862H10.8628V10.1948H13.1438V9.73862Z" fill="#C8C8C8"/>
<path d="M11.1451 10.3561L11.037 10.0316L10.3528 10.2596L10.4609 10.5841L11.1451 10.3561Z" fill="#C8C8C8"/>
<path d="M13.6546 10.2606L12.9703 10.0325L12.8622 10.357L13.5464 10.5851L13.6546 10.2606Z" fill="#C8C8C8"/>
<path d="M12.0031 14.5853C11.3429 14.5853 10.8057 14.2528 10.8057 13.8441V11.9054C10.8057 11.811 10.8824 11.7343 10.9767 11.7343H13.0295C13.1238 11.7343 13.2005 11.811 13.2005 11.9054V13.8441C13.2006 14.2528 12.6634 14.5853 12.0031 14.5853ZM10.9767 11.8483C10.9453 11.8483 10.9197 11.8739 10.9197 11.9053V13.844C10.9197 14.1898 11.4057 14.4712 12.0031 14.4712C12.6006 14.4712 13.0866 14.1898 13.0866 13.844V11.9053C13.0866 11.8739 13.061 11.8483 13.0296 11.8483H10.9767Z" fill="#464655"/>
</g>
<defs>
<clipPath id="clip0_2058_9008">
<rect width="24" height="24" fill="white"/>
</clipPath>
</defs>
</svg>
