<svg width="24" height="24" viewBox="0 0 24 24" fill="none" xmlns="http://www.w3.org/2000/svg">
<path d="M24 9.37935H0V4.55175C0 4.32324 0.185297 4.13794 0.413812 4.13794H23.5862C23.8147 4.13794 24 4.32324 24 4.55175L24 9.37935Z" fill="#73AF00"/>
<path d="M23.5861 19.8621H0.413812C0.185297 19.8621 0 19.6768 0 19.4483V14.6207H24V19.4483C24 19.6768 23.8147 19.8621 23.5861 19.8621Z" fill="#FF4B55"/>
<path d="M24 9.37924H0V14.6203H24V9.37924Z" fill="#FFE15A"/>
<path d="M16.9661 12.0046C16.9661 14.7433 14.7426 16.9708 12 16.9708C9.25733 16.9708 7.03381 14.7433 7.03381 12.0046C7.03381 9.25803 9.25733 7.03452 12 7.03452C14.7426 7.03452 16.9661 9.25803 16.9661 12.0046Z" fill="#4173CD"/>
<path d="M8.22278 10.7561H11.1082L11.7611 8.74672L11.9345 9.28569L10.9863 12.2067L10.7039 12.0007L10.9992 11.0931H8.67864L8.22278 10.7561ZM9.66446 15.1991L10.5563 12.4565L8.84711 11.2119H9.41082L11.895 13.0153L11.6126 13.2214L10.8387 12.6586L10.1204 14.8702L9.66446 15.1991ZM14.3354 15.1991L12 13.5029L10.2917 14.7434L10.4662 14.2123L12.9483 12.4049L13.0543 12.7378L12.2824 13.2967L14.16 14.6642L14.3354 15.1991ZM15.777 10.7561L13.4436 12.4565L14.0966 14.4659L13.6408 14.1329L12.6935 11.2119H13.0403L13.3355 12.1235L15.2142 10.7561H15.777V10.7561H15.777ZM12 8.01346L12.8918 10.7561H15.0052L14.5485 11.0931H11.4788L11.5868 10.7561H12.5439L11.8255 8.54849L12 8.01346Z" fill="#F2DD30"/>
<path d="M12.0832 15.9761H11.9177V13.8239H12.0832V15.9761ZM15.7524 13.3046L13.7062 12.6427L13.7578 12.4882L15.8049 13.1501L15.7524 13.3046ZM8.24663 13.3046L8.19507 13.1501L10.2431 12.4882L10.2938 12.6427L8.24663 13.3046ZM13.1385 10.5778L13.0037 10.4827L14.2691 8.74271L14.4009 8.83786L13.1385 10.5778ZM10.8645 10.5778L9.5971 8.83786L9.73092 8.74271L10.9953 10.4827L10.8645 10.5778Z" fill="#F2DD30"/>
</svg>
