<svg width="24" height="24" viewBox="0 0 24 24" fill="none" xmlns="http://www.w3.org/2000/svg">
<path d="M23.5861 19.862H0.413812C0.185297 19.862 0 19.6767 0 19.4482V4.55175C0 4.32324 0.185297 4.13794 0.413812 4.13794H23.5862C23.8147 4.13794 24 4.32324 24 4.55175V19.4482C24 19.6768 23.8147 19.862 23.5861 19.862Z" fill="#F5F5F5"/>
<path d="M23.5861 19.862H0.413812C0.185297 19.862 0 19.6767 0 19.4482V14.4827H24V19.4482C24 19.6768 23.8147 19.862 23.5861 19.862Z" fill="#FF4B55"/>
<path d="M16.5517 9.931V9.10342H15.7241V7.03446H16.1379V6.20688H13.6551V7.03446H14.0689V9.10342H12.8276V6.20688H13.2413V5.3793H10.7586V6.20688H11.1724V9.10342H9.93102V7.03446H10.3448V6.20688H7.86205V7.03446H8.27582V9.10342H7.44824V9.931H7.86205V13.2414H7.44824V14.0689H16.5517V13.2414H16.1379V9.931H16.5517Z" fill="#FF4B55"/>
<path d="M12.8275 13.6552H11.1724V12C11.1724 11.5429 11.5429 11.1724 11.9999 11.1724C12.457 11.1724 12.8275 11.5429 12.8275 12V13.6552Z" fill="#464655"/>
<path d="M11.9999 7.86206C11.7714 7.86206 11.5861 8.04736 11.5861 8.27587V9.51726H12.4136V8.27587C12.4137 8.04736 12.2284 7.86206 11.9999 7.86206Z" fill="#464655"/>
<path d="M14.8965 8.27588C14.668 8.27588 14.4827 8.46118 14.4827 8.68969V9.51727H15.3102V8.68969C15.3103 8.46113 15.1251 8.27588 14.8965 8.27588Z" fill="#464655"/>
<path d="M9.10339 8.27588C8.87487 8.27588 8.68958 8.46118 8.68958 8.68969V9.51727H9.51715V8.68969C9.5172 8.46113 9.3319 8.27588 9.10339 8.27588Z" fill="#464655"/>
<path d="M15.3103 13.6551H13.6552V12.4138C13.6552 11.9567 14.0257 11.5862 14.4827 11.5862C14.9398 11.5862 15.3103 11.9567 15.3103 12.4138V13.6551Z" fill="#464655"/>
<path d="M10.3447 13.6551H8.68958V12.4138C8.68958 11.9567 9.06007 11.5862 9.51715 11.5862C9.97423 11.5862 10.3447 11.9567 10.3447 12.4138V13.6551Z" fill="#464655"/>
<path d="M13.1378 15.1034C13.1378 15.0343 13.1033 14.9696 13.0457 14.9313L12.2068 14.3721V14.1969L12.92 13.8403C13.0223 13.7892 13.0636 13.6649 13.0125 13.5627C12.9612 13.4603 12.8373 13.4191 12.7349 13.4702L11.9999 13.8377L11.2648 13.4702C11.163 13.4191 11.0383 13.4603 10.9872 13.5627C10.9361 13.665 10.9775 13.7892 11.0798 13.8403L11.793 14.1969V14.3721L10.954 14.9314C10.8965 14.9697 10.8619 15.0344 10.8619 15.1035C10.8619 15.1726 10.8965 15.2373 10.954 15.2756L11.793 15.8349V17.5863H10.9654V17.9031C10.9654 18.0175 11.0579 18.11 11.1723 18.11C11.2515 18.11 11.3204 18.0655 11.3552 18.0001H11.793V18.4139H11.3515C11.3158 18.352 11.2489 18.3104 11.1723 18.3104C11.058 18.3104 10.9654 18.403 10.9654 18.5173V18.8277H11.793V19.0346C11.793 19.149 11.8855 19.2415 11.9999 19.2415C12.1143 19.2415 12.2068 19.149 12.2068 19.0346V18.8277V17.5863V15.835L13.0457 15.2756C13.1033 15.2372 13.1378 15.1725 13.1378 15.1034ZM11.9999 15.4754L11.4418 15.1034L11.9999 14.7315L12.5579 15.1034L11.9999 15.4754Z" fill="#FFE15A"/>
</svg>
