<svg width="24" height="24" viewBox="0 0 24 24" fill="none" xmlns="http://www.w3.org/2000/svg">
<path d="M23.5861 19.862H0.413812C0.185297 19.862 0 19.6767 0 19.4482V4.55174C0 4.32323 0.185297 4.13793 0.413812 4.13793H23.5862C23.8147 4.13793 24 4.32323 24 4.55174V19.4482C24 19.6768 23.8147 19.862 23.5861 19.862Z" fill="#41479B"/>
<path d="M11.5862 4.13793H10.8674L7.03447 6.64916V4.13793H4.96551V6.64916L1.13254 4.13793H0.413812C0.185297 4.13793 0 4.32323 0 4.55174V4.87996L3.28851 7.03447H0V9.10344H3.28851L0 11.258V11.5862C0 11.8147 0.185297 12 0.413812 12H1.13254L4.96551 9.48875V12H7.03447V9.48875L10.8674 12H11.5861C11.8146 12 11.9999 11.8147 11.9999 11.5862V11.2579L8.71147 9.10344H11.9999V7.03447H8.71142L11.9999 4.87996V4.55174C11.9999 4.32323 11.8147 4.13793 11.5862 4.13793Z" fill="#F5F5F5"/>
<path d="M11.9999 7.44829H6.62066V4.13793H5.37927V7.44829H0V8.68963H5.37927V12H6.62066V8.68963H11.9999V7.44829Z" fill="#FF4B55"/>
<path d="M4.55169 7.03447L0.197203 4.20787C0.081328 4.28123 0 4.40442 0 4.55174V4.57321L3.79166 7.03447H4.55169Z" fill="#FF4B55"/>
<path d="M7.79445 7.03447L11.937 4.34545C11.865 4.22362 11.7379 4.13793 11.5861 4.13793H11.4966L7.03442 7.03447H7.79445Z" fill="#FF4B55"/>
<path d="M4.19405 9.10344L0.0594482 11.7873C0.130745 11.9121 0.259745 12 0.413776 12H0.491822L4.95408 9.10344H4.19405Z" fill="#FF4B55"/>
<path d="M11.9933 11.6187L8.11838 9.10349H7.3584L11.7587 11.9598C11.8905 11.8986 11.9809 11.7704 11.9933 11.6187Z" fill="#FF4B55"/>
<path d="M15.4035 9.03106C15.348 9.77066 15.1185 14.4707 18.1005 15.5332C21.0835 14.4704 20.8531 9.77056 20.7975 9.03106C20.4362 9.17267 19.1283 9.60195 18.1005 8.87042C17.0727 9.60186 15.765 9.17286 15.4035 9.03106Z" fill="#F5F5F5"/>
<path d="M19.5657 9.97934C19.4022 9.85221 19.0995 10.0883 18.7604 10.0641C18.4459 10.0417 18.0583 9.72321 17.5546 9.86051C17.4154 9.73235 17.4827 9.43446 17.4827 9.43446C17.133 9.66054 17.1079 9.97001 17.1299 10.1379C16.8805 10.4674 16.8974 10.9703 16.9439 11.1237C17.0044 11.3236 17.1195 11.3478 17.1376 11.5718C17.1558 11.7958 17.2406 11.7171 17.2406 11.7171C17.4157 11.6189 17.4412 11.4336 17.5148 11.1304C17.7993 11.1667 17.9853 10.9119 17.9853 10.9119C17.7986 10.9704 17.6809 10.8675 17.6167 10.7769C17.6267 10.747 17.6348 10.7194 17.6462 10.6879C17.8582 10.1066 18.8722 10.2664 18.9662 10.4275C19.1357 10.7181 19.3598 10.8271 19.3598 10.8271C19.3598 10.5241 19.1357 10.258 19.1357 10.258C19.4748 10.1973 19.5657 9.97934 19.5657 9.97934ZM17.1256 11.2266C17.0922 11.2266 17.0651 11.1995 17.0651 11.1661C17.0651 11.1326 17.0922 11.1056 17.1256 11.1056C17.1591 11.1056 17.1862 11.1326 17.1862 11.1661C17.1862 11.1995 17.1591 11.2266 17.1256 11.2266Z" fill="#FFA028"/>
<path d="M18.5672 13.6987C18.7646 13.6362 18.742 13.253 18.9543 12.9875C19.1512 12.7413 19.6333 12.6029 19.8061 12.1101C19.9906 12.0682 20.1977 12.2927 20.1977 12.2927C20.2099 11.8764 19.9693 11.6802 19.8186 11.6031C19.6887 11.2107 19.2651 10.9393 19.1123 10.8905C18.9134 10.827 18.8282 10.908 18.6334 10.7959C18.4386 10.6838 18.4553 10.7982 18.4553 10.7982C18.4369 10.9982 18.5749 11.1243 18.7829 11.3569C18.5915 11.5706 18.6959 11.8684 18.6959 11.8684C18.7536 11.6814 18.9051 11.6429 19.0162 11.6414C19.0352 11.6666 19.0534 11.689 19.0728 11.7163C19.4313 12.2205 18.7243 12.9649 18.5383 12.9509C18.2028 12.9256 17.986 13.0483 17.986 13.0483C18.2355 13.2202 18.5817 13.1868 18.5817 13.1868C18.4392 13.5003 18.5672 13.6987 18.5672 13.6987ZM18.9244 10.9818C18.9434 10.9542 18.9811 10.9473 19.0086 10.9662C19.0361 10.9852 19.0431 11.0229 19.0241 11.0504C19.0052 11.0779 18.9675 11.0849 18.94 11.0659C18.9124 11.047 18.9055 11.0093 18.9244 10.9818Z" fill="#FFA028"/>
<path d="M15.8978 11.0074C15.8713 11.2129 16.2286 11.3535 16.38 11.6579C16.5205 11.9401 16.4432 12.4358 16.8175 12.7998C16.7779 12.9848 16.4871 13.0782 16.4871 13.0782C16.8596 13.2645 17.1388 13.1288 17.2722 13.0245C17.6828 13.0718 18.1073 12.8017 18.2158 12.6836C18.3571 12.53 18.3195 12.4186 18.5032 12.2891C18.6869 12.1595 18.576 12.1265 18.576 12.1265C18.4024 12.0256 18.23 12.0979 17.9314 12.1886C17.818 11.9251 17.504 11.8945 17.504 11.8945C17.6494 12.0255 17.6205 12.1791 17.5751 12.2805C17.5442 12.287 17.5163 12.2942 17.4834 12.3003C16.8751 12.4133 16.4974 11.4588 16.5884 11.296C16.7525 11.0022 16.7325 10.7539 16.7325 10.7539C16.4715 10.9079 16.3561 11.2361 16.3561 11.2361C16.1317 10.9749 15.8978 11.0074 15.8978 11.0074ZM18.2121 12.4749C18.2291 12.5037 18.2196 12.5409 18.1907 12.5578C18.1619 12.5748 18.1248 12.5653 18.1078 12.5365C18.0908 12.5076 18.1004 12.4706 18.1292 12.4535C18.158 12.4365 18.1951 12.4461 18.2121 12.4749Z" fill="#FFA028"/>
<path d="M18.1005 15.6872L18.0767 15.679C14.7188 14.5109 15.2614 8.97411 15.2673 8.91819L15.2778 8.81816L15.3695 8.85974C15.3854 8.86695 16.9432 9.55789 18.0569 8.72235L18.1005 8.68972L18.144 8.72235C19.2594 9.55902 20.8158 8.86681 20.8314 8.85974L20.9232 8.81802L20.9337 8.91819C20.9396 8.97411 21.4822 14.5109 18.1243 15.679L18.1005 15.6872ZM15.4035 9.03106C15.348 9.77066 15.1185 14.4707 18.1005 15.5332C21.0836 14.4704 20.8531 9.77056 20.7975 9.03106C20.4362 9.17267 19.1283 9.60195 18.1005 8.87042C17.0728 9.60186 15.7651 9.17286 15.4035 9.03106Z" fill="#CDCE0C"/>
<path d="M16.2302 13.8665C16.6375 14.6051 17.2321 15.2238 18.1004 15.5332C18.969 15.2237 19.5638 14.605 19.9711 13.8665H16.2302Z" fill="#82AFFF"/>
</svg>
