<svg width="24" height="24" viewBox="0 0 24 24" fill="none" xmlns="http://www.w3.org/2000/svg">
<path d="M0 16.1379V4.55169C0 4.32318 0.185297 4.13788 0.413812 4.13788H18.2069L0 16.1379Z" fill="#73AF00"/>
<path d="M24 7.86206V19.4482C24 19.6768 23.8147 19.8621 23.5862 19.8621H5.79309L24 7.86206Z" fill="#4173CD"/>
<path d="M24 8.09539V4.55169C24 4.32318 23.8147 4.13788 23.5862 4.13788H17.9596L0 15.9046V19.4482C0 19.6768 0.185297 19.8621 0.413813 19.8621H6.04036L24 8.09539Z" fill="#FFE15A"/>
<path d="M24 6.61157V4.55169C24 4.32318 23.8147 4.13788 23.5862 4.13788H20.2244L0 17.3884V19.4483C0 19.6768 0.185297 19.8621 0.413813 19.8621H3.77559L24 6.61157Z" fill="#464655"/>
</svg>
