<svg width="24" height="24" viewBox="0 0 24 24" fill="none" xmlns="http://www.w3.org/2000/svg">
<path d="M23.5861 19.862H0.413812C0.185297 19.862 0 19.6767 0 19.4482V4.55175C0 4.32324 0.185297 4.13794 0.413812 4.13794H23.5862C23.8147 4.13794 24 4.32324 24 4.55175V19.4482C24 19.6768 23.8147 19.862 23.5861 19.862Z" fill="#41479B"/>
<path d="M22.3448 17.3793H5.79308C5.56457 17.3793 5.37927 17.194 5.37927 16.9654C5.37927 16.7369 5.56457 16.5516 5.79308 16.5516H22.3448L22.7586 16.9654L22.3448 17.3793Z" fill="#FFE15A"/>
<path d="M22.5516 16.1379H5.79309C5.79309 16.1379 12.4138 8.6897 18.6206 7.03455C18.6206 7.03455 16.5517 12.4138 21.5172 15.7242H22.5517C22.6659 15.7242 22.7586 15.8168 22.7586 15.9311C22.7585 16.0453 22.6659 16.1379 22.5516 16.1379Z" fill="#FFE15A"/>
<path d="M5.07008 13.7425L5.23063 14.2239L5.73809 14.2279C5.80377 14.2284 5.83105 14.3123 5.77817 14.3513L5.36994 14.6527L5.52303 15.1366C5.54286 15.1992 5.47152 15.2511 5.41808 15.2128L5.00521 14.9177L4.59233 15.2128C4.53889 15.251 4.46755 15.1992 4.48738 15.1366L4.64047 14.6527L4.23224 14.3513C4.17936 14.3122 4.20664 14.2284 4.27232 14.2279L4.77978 14.2239L4.94033 13.7425C4.9611 13.6802 5.04927 13.6802 5.07008 13.7425Z" fill="#F5F5F5"/>
<path d="M5.05784 7.12359L5.18806 7.51415L5.59976 7.51734C5.6531 7.51776 5.67518 7.58578 5.63229 7.61742L5.30112 7.86201L5.42529 8.25454C5.44137 8.3054 5.38348 8.3474 5.34017 8.31642L5.0052 8.07698L4.67023 8.31642C4.62687 8.3474 4.56903 8.30536 4.58511 8.25454L4.70928 7.86201L4.37811 7.61742C4.33522 7.58578 4.35729 7.51776 4.41064 7.51734L4.82234 7.51415L4.95256 7.12359C4.96948 7.07306 5.04101 7.07306 5.05784 7.12359Z" fill="#F5F5F5"/>
<path d="M1.9387 9.54044L2.06892 9.931L2.48062 9.93418C2.53396 9.93461 2.55604 10.0026 2.51315 10.0343L2.18198 10.2789L2.30615 10.6714C2.32223 10.7222 2.26434 10.7642 2.22103 10.7333L1.88606 10.4938L1.55109 10.7333C1.50773 10.7642 1.44989 10.7222 1.46597 10.6714L1.59014 10.2789L1.25897 10.0343C1.21608 10.0026 1.23815 9.93461 1.2915 9.93418L1.7032 9.931L1.83342 9.54044C1.85034 9.48986 1.92187 9.48986 1.9387 9.54044Z" fill="#F5F5F5"/>
<path d="M7.28853 9.37577L7.38875 9.67633L7.70558 9.67877C7.7466 9.6791 7.76361 9.73141 7.73061 9.75579L7.47571 9.94399L7.57128 10.2461C7.58366 10.2851 7.53913 10.3175 7.50575 10.2936L7.24803 10.1094L6.99032 10.2936C6.95694 10.3175 6.91241 10.2851 6.92478 10.2461L7.02036 9.94399L6.76546 9.75579C6.73246 9.73141 6.74947 9.6791 6.79049 9.67877L7.10732 9.67633L7.20753 9.37577C7.22052 9.33682 7.27555 9.33682 7.28853 9.37577Z" fill="#F5F5F5"/>
</svg>
