<svg width="24" height="24" viewBox="0 0 24 24" fill="none" xmlns="http://www.w3.org/2000/svg">
<path d="M23.5861 19.8621H0.413812C0.185297 19.8621 0 19.6768 0 19.4483V4.55175C0 4.32324 0.185297 4.13794 0.413812 4.13794H23.5862C23.8147 4.13794 24 4.32324 24 4.55175V19.4483C24 19.6768 23.8147 19.8621 23.5861 19.8621Z" fill="#F5F5F5"/>
<path d="M24 5.34755H0V4.55175C0 4.32324 0.185297 4.13794 0.413812 4.13794H23.5862C23.8147 4.13794 24 4.32324 24 4.55175L24 5.34755Z" fill="#FF4B55"/>
<path d="M24 8.97607H0V10.1856H24V8.97607Z" fill="#FF4B55"/>
<path d="M24 6.55688H0V7.76645H24V6.55688Z" fill="#FF4B55"/>
<path d="M24 12.6049H0.413812C0.185297 12.6049 0 12.4196 0 12.1911V11.3953H24V12.6049Z" fill="#FF4B55"/>
<path d="M24 16.2338H0V17.4433H24V16.2338Z" fill="#FF4B55"/>
<path d="M23.5861 19.862H0.413812C0.185297 19.862 0 19.6767 0 19.4482V18.6525H24V19.4483C24 19.6768 23.8147 19.862 23.5861 19.862Z" fill="#FF4B55"/>
<path d="M24 13.8146H0V15.0241H24V13.8146Z" fill="#FF4B55"/>
<path d="M10.7586 4.13794H0.413812C0.185297 4.13794 0 4.32319 0 4.5517V12.1909C0 12.4194 0.185297 12.6047 0.413812 12.6047H10.7586C10.9872 12.6047 11.1724 12.4194 11.1724 12.1909V4.5517C11.1724 4.32319 10.9871 4.13794 10.7586 4.13794Z" fill="#41479B"/>
<path d="M1.16198 5.08783L1.25358 5.36252L1.54312 5.36472C1.58062 5.36505 1.59614 5.41287 1.566 5.43513L1.33308 5.60716L1.42045 5.88321C1.43179 5.91893 1.39106 5.94855 1.36054 5.92671L1.125 5.75838L0.889451 5.92676C0.858935 5.94855 0.818295 5.91897 0.829545 5.88326L0.91692 5.60721L0.683998 5.43518C0.653858 5.41287 0.669373 5.3651 0.706873 5.36477L0.99642 5.36257L1.08801 5.08788C1.09983 5.05226 1.15008 5.05226 1.16198 5.08783Z" fill="#F5F5F5"/>
<path d="M1.16198 6.52457L1.25358 6.79925L1.54312 6.80146C1.58062 6.80179 1.59614 6.8496 1.566 6.87186L1.33308 7.04389L1.42045 7.31994C1.43179 7.35566 1.39106 7.38528 1.36054 7.36344L1.125 7.19511L0.889451 7.36349C0.858935 7.38528 0.818295 7.35571 0.829545 7.31999L0.91692 7.04394L0.683998 6.87191C0.653858 6.8496 0.669373 6.80183 0.706873 6.8015L0.99642 6.7993L1.08801 6.52461C1.09983 6.48904 1.15008 6.48904 1.16198 6.52457Z" fill="#F5F5F5"/>
<path d="M1.16198 7.96158L1.25358 8.23627L1.54312 8.23847C1.58062 8.2388 1.59614 8.28661 1.566 8.30888L1.33308 8.48091L1.42045 8.75695C1.43179 8.79267 1.39106 8.8223 1.36054 8.80045L1.125 8.63212L0.889451 8.8005C0.858935 8.8223 0.818295 8.79272 0.829545 8.757L0.91692 8.48095L0.683998 8.30892C0.653858 8.28661 0.669373 8.23884 0.706873 8.23852L0.99642 8.23631L1.08801 7.96163C1.09983 7.92605 1.15008 7.92605 1.16198 7.96158Z" fill="#F5F5F5"/>
<path d="M1.16198 9.3985L1.25358 9.67319L1.54312 9.67539C1.58062 9.67572 1.59614 9.72353 1.566 9.7458L1.33308 9.91783L1.42045 10.1939C1.43179 10.2296 1.39106 10.2592 1.36054 10.2374L1.125 10.069L0.889451 10.2374C0.858935 10.2592 0.818295 10.2296 0.829545 10.1939L0.91692 9.91788L0.683998 9.74585C0.653858 9.72353 0.669373 9.67577 0.706873 9.67544L0.99642 9.67324L1.08801 9.39855C1.09983 9.36293 1.15008 9.36293 1.16198 9.3985Z" fill="#F5F5F5"/>
<path d="M1.16198 10.8354L1.25358 11.1101L1.54312 11.1123C1.58062 11.1126 1.59614 11.1605 1.566 11.1827L1.33308 11.3548L1.42045 11.6308C1.43179 11.6665 1.39106 11.6961 1.36054 11.6743L1.125 11.506L0.889451 11.6743C0.858935 11.6961 0.818295 11.6666 0.829545 11.6308L0.91692 11.3548L0.683998 11.1828C0.653858 11.1605 0.669373 11.1127 0.706873 11.1124L0.99642 11.1102L1.08801 10.8355C1.09983 10.7998 1.15008 10.7998 1.16198 10.8354Z" fill="#F5F5F5"/>
<path d="M2.27722 5.79215L2.36881 6.06684L2.65836 6.06904C2.69586 6.06937 2.71137 6.11718 2.68123 6.13945L2.44831 6.31148L2.53568 6.58752C2.54703 6.62324 2.50629 6.65287 2.47578 6.63102L2.24023 6.46265L2.00469 6.63102C1.97417 6.65282 1.93353 6.62324 1.94478 6.58752L2.03215 6.31148L1.79923 6.13945C1.76909 6.11713 1.78461 6.06937 1.82211 6.06904L2.11165 6.06684L2.20325 5.79215C2.21501 5.75662 2.26536 5.75662 2.27722 5.79215Z" fill="#F5F5F5"/>
<path d="M2.27722 7.2292L2.36881 7.50389L2.65836 7.50609C2.69586 7.50642 2.71137 7.55423 2.68123 7.57649L2.44831 7.74853L2.53568 8.02457C2.54703 8.06029 2.50629 8.08992 2.47578 8.06807L2.24023 7.8997L2.00469 8.06807C1.97417 8.08987 1.93353 8.06034 1.94478 8.02457L2.03215 7.74853L1.79923 7.57649C1.76909 7.55418 1.78461 7.50642 1.82211 7.50609L2.11165 7.50389L2.20325 7.2292C2.21501 7.19362 2.26536 7.19362 2.27722 7.2292Z" fill="#F5F5F5"/>
<path d="M2.27722 8.66609L2.36881 8.94077L2.65836 8.94298C2.69586 8.94331 2.71137 8.99112 2.68123 9.01338L2.44831 9.18541L2.53568 9.46146C2.54703 9.49718 2.50629 9.5268 2.47578 9.50496L2.24023 9.33659L2.00469 9.50496C1.97417 9.52676 1.93353 9.49718 1.94478 9.46146L2.03215 9.18541L1.79923 9.01338C1.76909 8.99107 1.78461 8.94331 1.82211 8.94298L2.11165 8.94077L2.20325 8.66609C2.21501 8.63051 2.26536 8.63051 2.27722 8.66609Z" fill="#F5F5F5"/>
<path d="M2.27722 10.1029L2.36881 10.3776L2.65836 10.3798C2.69586 10.3802 2.71137 10.428 2.68123 10.4502L2.44831 10.6223L2.53568 10.8983C2.54703 10.934 2.50629 10.9637 2.47578 10.9418L2.24023 10.7734L2.00469 10.9418C1.97417 10.9636 1.93353 10.934 1.94478 10.8983L2.03215 10.6223L1.79923 10.4502C1.76909 10.4279 1.78461 10.3802 1.82211 10.3798L2.11165 10.3776L2.20325 10.1029C2.21501 10.0674 2.26536 10.0674 2.27722 10.1029Z" fill="#F5F5F5"/>
<path d="M3.39257 5.08772L3.48417 5.36241L3.77371 5.36461C3.81121 5.36494 3.82673 5.41275 3.79659 5.43501L3.56367 5.60705L3.65104 5.88309C3.66238 5.91881 3.62165 5.94844 3.59113 5.92659L3.35559 5.75822L3.12004 5.92659C3.08953 5.94839 3.04889 5.91881 3.06014 5.88309L3.14751 5.60705L2.91459 5.43501C2.88445 5.4127 2.89996 5.36494 2.93746 5.36461L3.22701 5.36241L3.3186 5.08772C3.33042 5.05214 3.38071 5.05214 3.39257 5.08772Z" fill="#F5F5F5"/>
<path d="M3.39257 6.52457L3.48417 6.79926L3.77371 6.80146C3.81121 6.80179 3.82673 6.8496 3.79659 6.87187L3.56367 7.0439L3.65104 7.31995C3.66238 7.35567 3.62165 7.38529 3.59113 7.36345L3.35559 7.19507L3.12004 7.36345C3.08953 7.38524 3.04889 7.35567 3.06014 7.31995L3.14751 7.0439L2.91459 6.87187C2.88445 6.84956 2.89996 6.80179 2.93746 6.80146L3.22701 6.79926L3.3186 6.52457C3.33042 6.48904 3.38071 6.48904 3.39257 6.52457Z" fill="#F5F5F5"/>
<path d="M3.39257 7.96158L3.48417 8.23627L3.77371 8.23848C3.81121 8.2388 3.82673 8.28662 3.79659 8.30888L3.56367 8.48091L3.65104 8.75696C3.66238 8.79268 3.62165 8.8223 3.59113 8.80046L3.35559 8.63208L3.12004 8.80046C3.08953 8.82226 3.04889 8.79268 3.06014 8.75696L3.14751 8.48091L2.91459 8.30888C2.88445 8.28657 2.89996 8.2388 2.93746 8.23848L3.22701 8.23627L3.3186 7.96158C3.33042 7.92605 3.38071 7.92605 3.39257 7.96158Z" fill="#F5F5F5"/>
<path d="M3.39257 9.39851L3.48417 9.6732L3.77371 9.6754C3.81121 9.67573 3.82673 9.72354 3.79659 9.74581L3.56367 9.91784L3.65104 10.1939C3.66238 10.2296 3.62165 10.2592 3.59113 10.2374L3.35559 10.069L3.12004 10.2374C3.08953 10.2592 3.04889 10.2296 3.06014 10.1939L3.14751 9.91784L2.91459 9.74581C2.88445 9.72349 2.89996 9.67573 2.93746 9.6754L3.22701 9.6732L3.3186 9.39851C3.33042 9.36293 3.38071 9.36293 3.39257 9.39851Z" fill="#F5F5F5"/>
<path d="M3.39257 10.8354L3.48417 11.1101L3.77371 11.1123C3.81121 11.1127 3.82673 11.1605 3.79659 11.1827L3.56367 11.3548L3.65104 11.6308C3.66238 11.6665 3.62165 11.6962 3.59113 11.6743L3.35559 11.5059L3.12004 11.6743C3.08953 11.6961 3.04889 11.6665 3.06014 11.6308L3.14751 11.3548L2.91459 11.1827C2.88445 11.1604 2.89996 11.1127 2.93746 11.1123L3.22701 11.1101L3.3186 10.8354C3.33042 10.7998 3.38071 10.7998 3.39257 10.8354Z" fill="#F5F5F5"/>
<path d="M4.50793 5.79215L4.59952 6.06684L4.88907 6.06904C4.92657 6.06937 4.94208 6.11718 4.91194 6.13945L4.67902 6.31148L4.7664 6.58752C4.77774 6.62324 4.73701 6.65287 4.70649 6.63102L4.47094 6.46265L4.2354 6.63102C4.20488 6.65282 4.16424 6.62324 4.17549 6.58752L4.26287 6.31148L4.02995 6.13945C3.9998 6.11713 4.01532 6.06937 4.05282 6.06904L4.34237 6.06684L4.43396 5.79215C4.44573 5.75662 4.49607 5.75662 4.50793 5.79215Z" fill="#F5F5F5"/>
<path d="M4.50793 7.2292L4.59952 7.50389L4.88907 7.50609C4.92657 7.50642 4.94208 7.55423 4.91194 7.57649L4.67902 7.74853L4.7664 8.02457C4.77774 8.06029 4.73701 8.08992 4.70649 8.06807L4.47094 7.8997L4.2354 8.06807C4.20488 8.08987 4.16424 8.06034 4.17549 8.02457L4.26287 7.74853L4.02995 7.57649C3.9998 7.55418 4.01532 7.50642 4.05282 7.50609L4.34237 7.50389L4.43396 7.2292C4.44573 7.19362 4.49607 7.19362 4.50793 7.2292Z" fill="#F5F5F5"/>
<path d="M4.50793 8.66609L4.59952 8.94077L4.88907 8.94298C4.92657 8.94331 4.94208 8.99112 4.91194 9.01338L4.67902 9.18541L4.7664 9.46146C4.77774 9.49718 4.73701 9.5268 4.70649 9.50496L4.47094 9.33659L4.2354 9.50496C4.20488 9.52676 4.16424 9.49718 4.17549 9.46146L4.26287 9.18541L4.02995 9.01338C3.9998 8.99107 4.01532 8.94331 4.05282 8.94298L4.34237 8.94077L4.43396 8.66609C4.44573 8.63051 4.49607 8.63051 4.50793 8.66609Z" fill="#F5F5F5"/>
<path d="M4.50793 10.1029L4.59952 10.3776L4.88907 10.3798C4.92657 10.3802 4.94208 10.428 4.91194 10.4502L4.67902 10.6223L4.7664 10.8983C4.77774 10.934 4.73701 10.9637 4.70649 10.9418L4.47094 10.7734L4.2354 10.9418C4.20488 10.9636 4.16424 10.934 4.17549 10.8983L4.26287 10.6223L4.02995 10.4502C3.9998 10.4279 4.01532 10.3802 4.05282 10.3798L4.34237 10.3776L4.43396 10.1029C4.44573 10.0674 4.49607 10.0674 4.50793 10.1029Z" fill="#F5F5F5"/>
<path d="M5.62321 5.08772L5.7148 5.36241L6.00435 5.36461C6.04185 5.36494 6.05737 5.41275 6.02722 5.43501L5.7943 5.60705L5.88168 5.88309C5.89302 5.91881 5.85229 5.94844 5.82177 5.92659L5.58618 5.75822L5.35063 5.92659C5.32012 5.94839 5.27948 5.91881 5.29073 5.88309L5.3781 5.60705L5.14518 5.43501C5.11504 5.4127 5.13055 5.36494 5.16805 5.36461L5.4576 5.36241L5.54919 5.08772C5.56105 5.05214 5.61135 5.05214 5.62321 5.08772Z" fill="#F5F5F5"/>
<path d="M5.62321 6.52457L5.7148 6.79926L6.00435 6.80146C6.04185 6.80179 6.05737 6.8496 6.02722 6.87187L5.7943 7.0439L5.88168 7.31995C5.89302 7.35567 5.85229 7.38529 5.82177 7.36345L5.58618 7.19507L5.35063 7.36345C5.32012 7.38524 5.27948 7.35567 5.29073 7.31995L5.3781 7.0439L5.14518 6.87187C5.11504 6.84956 5.13055 6.80179 5.16805 6.80146L5.4576 6.79926L5.54919 6.52457C5.56105 6.48904 5.61135 6.48904 5.62321 6.52457Z" fill="#F5F5F5"/>
<path d="M5.62321 7.96158L5.7148 8.23627L6.00435 8.23848C6.04185 8.2388 6.05737 8.28662 6.02722 8.30888L5.7943 8.48091L5.88168 8.75696C5.89302 8.79268 5.85229 8.8223 5.82177 8.80046L5.58618 8.63208L5.35063 8.80046C5.32012 8.82226 5.27948 8.79268 5.29073 8.75696L5.3781 8.48091L5.14518 8.30888C5.11504 8.28657 5.13055 8.2388 5.16805 8.23848L5.4576 8.23627L5.54919 7.96158C5.56105 7.92605 5.61135 7.92605 5.62321 7.96158Z" fill="#F5F5F5"/>
<path d="M5.62321 9.39851L5.7148 9.6732L6.00435 9.6754C6.04185 9.67573 6.05737 9.72354 6.02722 9.74581L5.7943 9.91784L5.88168 10.1939C5.89302 10.2296 5.85229 10.2592 5.82177 10.2374L5.58618 10.069L5.35063 10.2374C5.32012 10.2592 5.27948 10.2296 5.29073 10.1939L5.3781 9.91784L5.14518 9.74581C5.11504 9.72349 5.13055 9.67573 5.16805 9.6754L5.4576 9.6732L5.54919 9.39851C5.56105 9.36293 5.61135 9.36293 5.62321 9.39851Z" fill="#F5F5F5"/>
<path d="M5.62321 10.8354L5.7148 11.1101L6.00435 11.1123C6.04185 11.1127 6.05737 11.1605 6.02722 11.1827L5.7943 11.3548L5.88168 11.6308C5.89302 11.6665 5.85229 11.6962 5.82177 11.6743L5.58618 11.5059L5.35063 11.6743C5.32012 11.6961 5.27948 11.6665 5.29073 11.6308L5.3781 11.3548L5.14518 11.1827C5.11504 11.1604 5.13055 11.1127 5.16805 11.1123L5.4576 11.1101L5.54919 10.8354C5.56105 10.7998 5.61135 10.7998 5.62321 10.8354Z" fill="#F5F5F5"/>
<path d="M6.73852 5.79215L6.83011 6.06684L7.11966 6.06904C7.15716 6.06937 7.17267 6.11718 7.14253 6.13945L6.90961 6.31148L6.99699 6.58752C7.00833 6.62324 6.9676 6.65287 6.93708 6.63102L6.70154 6.46265L6.46599 6.63102C6.43547 6.65282 6.39483 6.62324 6.40608 6.58752L6.49346 6.31148L6.26054 6.13945C6.2304 6.11713 6.24591 6.06937 6.28341 6.06904L6.57296 6.06684L6.66455 5.79215C6.67641 5.75662 6.72666 5.75662 6.73852 5.79215Z" fill="#F5F5F5"/>
<path d="M6.73852 7.2292L6.83011 7.50389L7.11966 7.50609C7.15716 7.50642 7.17267 7.55423 7.14253 7.57649L6.90961 7.74853L6.99699 8.02457C7.00833 8.06029 6.9676 8.08992 6.93708 8.06807L6.70154 7.8997L6.46599 8.06807C6.43547 8.08987 6.39483 8.06034 6.40608 8.02457L6.49346 7.74853L6.26054 7.57649C6.2304 7.55418 6.24591 7.50642 6.28341 7.50609L6.57296 7.50389L6.66455 7.2292C6.67641 7.19362 6.72666 7.19362 6.73852 7.2292Z" fill="#F5F5F5"/>
<path d="M6.73852 8.66609L6.83011 8.94077L7.11966 8.94298C7.15716 8.94331 7.17267 8.99112 7.14253 9.01338L6.90961 9.18541L6.99699 9.46146C7.00833 9.49718 6.9676 9.5268 6.93708 9.50496L6.70154 9.33659L6.46599 9.50496C6.43547 9.52676 6.39483 9.49718 6.40608 9.46146L6.49346 9.18541L6.26054 9.01338C6.2304 8.99107 6.24591 8.94331 6.28341 8.94298L6.57296 8.94077L6.66455 8.66609C6.67641 8.63051 6.72666 8.63051 6.73852 8.66609Z" fill="#F5F5F5"/>
<path d="M6.73852 10.1029L6.83011 10.3776L7.11966 10.3798C7.15716 10.3802 7.17267 10.428 7.14253 10.4502L6.90961 10.6223L6.99699 10.8983C7.00833 10.934 6.9676 10.9637 6.93708 10.9418L6.70154 10.7734L6.46599 10.9418C6.43547 10.9636 6.39483 10.934 6.40608 10.8983L6.49346 10.6223L6.26054 10.4502C6.2304 10.4279 6.24591 10.3802 6.28341 10.3798L6.57296 10.3776L6.66455 10.1029C6.67641 10.0674 6.72666 10.0674 6.73852 10.1029Z" fill="#F5F5F5"/>
<path d="M7.85388 5.08772L7.94547 5.36241L8.23502 5.36461C8.27252 5.36494 8.28803 5.41275 8.25789 5.43501L8.02497 5.60705L8.11234 5.88309C8.12369 5.91881 8.08295 5.94844 8.05244 5.92659L7.81689 5.75822L7.58135 5.92659C7.55083 5.94839 7.51019 5.91881 7.52144 5.88309L7.60881 5.60705L7.37589 5.43501C7.34575 5.4127 7.36127 5.36494 7.39877 5.36461L7.68831 5.36241L7.77991 5.08772C7.79167 5.05214 7.84202 5.05214 7.85388 5.08772Z" fill="#F5F5F5"/>
<path d="M7.85388 6.52457L7.94547 6.79926L8.23502 6.80146C8.27252 6.80179 8.28803 6.8496 8.25789 6.87187L8.02497 7.0439L8.11234 7.31995C8.12369 7.35567 8.08295 7.38529 8.05244 7.36345L7.81689 7.19507L7.58135 7.36345C7.55083 7.38524 7.51019 7.35567 7.52144 7.31995L7.60881 7.0439L7.37589 6.87187C7.34575 6.84956 7.36127 6.80179 7.39877 6.80146L7.68831 6.79926L7.77991 6.52457C7.79167 6.48904 7.84202 6.48904 7.85388 6.52457Z" fill="#F5F5F5"/>
<path d="M7.85388 7.96158L7.94547 8.23627L8.23502 8.23848C8.27252 8.2388 8.28803 8.28662 8.25789 8.30888L8.02497 8.48091L8.11234 8.75696C8.12369 8.79268 8.08295 8.8223 8.05244 8.80046L7.81689 8.63208L7.58135 8.80046C7.55083 8.82226 7.51019 8.79268 7.52144 8.75696L7.60881 8.48091L7.37589 8.30888C7.34575 8.28657 7.36127 8.2388 7.39877 8.23848L7.68831 8.23627L7.77991 7.96158C7.79167 7.92605 7.84202 7.92605 7.85388 7.96158Z" fill="#F5F5F5"/>
<path d="M7.85388 9.39851L7.94547 9.6732L8.23502 9.6754C8.27252 9.67573 8.28803 9.72354 8.25789 9.74581L8.02497 9.91784L8.11234 10.1939C8.12369 10.2296 8.08295 10.2592 8.05244 10.2374L7.81689 10.069L7.58135 10.2374C7.55083 10.2592 7.51019 10.2296 7.52144 10.1939L7.60881 9.91784L7.37589 9.74581C7.34575 9.72349 7.36127 9.67573 7.39877 9.6754L7.68831 9.6732L7.77991 9.39851C7.79167 9.36293 7.84202 9.36293 7.85388 9.39851Z" fill="#F5F5F5"/>
<path d="M7.85388 10.8354L7.94547 11.1101L8.23502 11.1123C8.27252 11.1127 8.28803 11.1605 8.25789 11.1827L8.02497 11.3548L8.11234 11.6308C8.12369 11.6665 8.08295 11.6962 8.05244 11.6743L7.81689 11.5059L7.58135 11.6743C7.55083 11.6961 7.51019 11.6665 7.52144 11.6308L7.60881 11.3548L7.37589 11.1827C7.34575 11.1604 7.36127 11.1127 7.39877 11.1123L7.68831 11.1101L7.77991 10.8354C7.79167 10.7998 7.84202 10.7998 7.85388 10.8354Z" fill="#F5F5F5"/>
<path d="M8.96911 5.79215L9.0607 6.06684L9.35025 6.06904C9.38775 6.06937 9.40327 6.11718 9.37313 6.13945L9.1402 6.31148L9.22758 6.58752C9.23892 6.62324 9.19819 6.65287 9.16767 6.63102L8.93213 6.46265L8.69658 6.63102C8.66606 6.65282 8.62542 6.62324 8.63667 6.58752L8.72405 6.31148L8.49113 6.13945C8.46099 6.11713 8.4765 6.06937 8.514 6.06904L8.80355 6.06684L8.89514 5.79215C8.90695 5.75662 8.9573 5.75662 8.96911 5.79215Z" fill="#F5F5F5"/>
<path d="M8.96911 7.2292L9.0607 7.50389L9.35025 7.50609C9.38775 7.50642 9.40327 7.55423 9.37313 7.57649L9.1402 7.74853L9.22758 8.02457C9.23892 8.06029 9.19819 8.08992 9.16767 8.06807L8.93213 7.8997L8.69658 8.06807C8.66606 8.08987 8.62542 8.06034 8.63667 8.02457L8.72405 7.74853L8.49113 7.57649C8.46099 7.55418 8.4765 7.50642 8.514 7.50609L8.80355 7.50389L8.89514 7.2292C8.90695 7.19362 8.9573 7.19362 8.96911 7.2292Z" fill="#F5F5F5"/>
<path d="M8.96911 8.66609L9.0607 8.94077L9.35025 8.94298C9.38775 8.94331 9.40327 8.99112 9.37313 9.01338L9.1402 9.18541L9.22758 9.46146C9.23892 9.49718 9.19819 9.5268 9.16767 9.50496L8.93213 9.33659L8.69658 9.50496C8.66606 9.52676 8.62542 9.49718 8.63667 9.46146L8.72405 9.18541L8.49113 9.01338C8.46099 8.99107 8.4765 8.94331 8.514 8.94298L8.80355 8.94077L8.89514 8.66609C8.90695 8.63051 8.9573 8.63051 8.96911 8.66609Z" fill="#F5F5F5"/>
<path d="M8.96911 10.1029L9.0607 10.3776L9.35025 10.3798C9.38775 10.3802 9.40327 10.428 9.37313 10.4502L9.1402 10.6223L9.22758 10.8983C9.23892 10.934 9.19819 10.9637 9.16767 10.9418L8.93213 10.7734L8.69658 10.9418C8.66606 10.9636 8.62542 10.934 8.63667 10.8983L8.72405 10.6223L8.49113 10.4502C8.46099 10.4279 8.4765 10.3802 8.514 10.3798L8.80355 10.3776L8.89514 10.1029C8.90695 10.0674 8.9573 10.0674 8.96911 10.1029Z" fill="#F5F5F5"/>
<path d="M10.0845 5.08772L10.1761 5.36241L10.4656 5.36461C10.5031 5.36494 10.5186 5.41275 10.4885 5.43501L10.2556 5.60705L10.3429 5.88309C10.3543 5.91881 10.3135 5.94844 10.283 5.92659L10.0475 5.75822L9.81194 5.92659C9.78142 5.94839 9.74078 5.91881 9.75203 5.88309L9.83941 5.60705L9.60648 5.43501C9.57634 5.4127 9.59186 5.36494 9.62936 5.36461L9.91891 5.36241L10.0105 5.08772C10.0223 5.05214 10.0726 5.05214 10.0845 5.08772Z" fill="#F5F5F5"/>
<path d="M10.0845 6.52457L10.1761 6.79926L10.4656 6.80146C10.5031 6.80179 10.5186 6.8496 10.4885 6.87187L10.2556 7.0439L10.3429 7.31995C10.3543 7.35567 10.3135 7.38529 10.283 7.36345L10.0475 7.19507L9.81194 7.36345C9.78142 7.38524 9.74078 7.35567 9.75203 7.31995L9.83941 7.0439L9.60648 6.87187C9.57634 6.84956 9.59186 6.80179 9.62936 6.80146L9.91891 6.79926L10.0105 6.52457C10.0223 6.48904 10.0726 6.48904 10.0845 6.52457Z" fill="#F5F5F5"/>
<path d="M10.0845 7.96158L10.1761 8.23627L10.4656 8.23848C10.5031 8.2388 10.5186 8.28662 10.4885 8.30888L10.2556 8.48091L10.3429 8.75696C10.3543 8.79268 10.3135 8.8223 10.283 8.80046L10.0475 8.63208L9.81194 8.80046C9.78142 8.82226 9.74078 8.79268 9.75203 8.75696L9.83941 8.48091L9.60648 8.30888C9.57634 8.28657 9.59186 8.2388 9.62936 8.23848L9.91891 8.23627L10.0105 7.96158C10.0223 7.92605 10.0726 7.92605 10.0845 7.96158Z" fill="#F5F5F5"/>
<path d="M10.0845 9.39851L10.1761 9.6732L10.4656 9.6754C10.5031 9.67573 10.5186 9.72354 10.4885 9.74581L10.2556 9.91784L10.3429 10.1939C10.3543 10.2296 10.3135 10.2592 10.283 10.2374L10.0475 10.069L9.81194 10.2374C9.78142 10.2592 9.74078 10.2296 9.75203 10.1939L9.83941 9.91784L9.60648 9.74581C9.57634 9.72349 9.59186 9.67573 9.62936 9.6754L9.91891 9.6732L10.0105 9.39851C10.0223 9.36293 10.0726 9.36293 10.0845 9.39851Z" fill="#F5F5F5"/>
<path d="M10.0845 10.8354L10.1761 11.1101L10.4656 11.1123C10.5031 11.1127 10.5186 11.1605 10.4885 11.1827L10.2556 11.3548L10.3429 11.6308C10.3543 11.6665 10.3135 11.6962 10.283 11.6743L10.0475 11.5059L9.81194 11.6743C9.78142 11.6961 9.74078 11.6665 9.75203 11.6308L9.83941 11.3548L9.60648 11.1827C9.57634 11.1604 9.59186 11.1127 9.62936 11.1123L9.91891 11.1101L10.0105 10.8354C10.0223 10.7998 10.0726 10.7998 10.0845 10.8354Z" fill="#F5F5F5"/>
</svg>
