<svg width="24" height="24" viewBox="0 0 24 24" fill="none" xmlns="http://www.w3.org/2000/svg">
<path d="M24 12H0V4.55174C0 4.32323 0.185297 4.13793 0.413812 4.13793H23.5862C23.8147 4.13793 24 4.32323 24 4.55174L24 12Z" fill="#FF4B55"/>
<path d="M0 12H24V19.4482C24 19.6767 23.8147 19.862 23.5861 19.862H0.413812C0.185297 19.862 0 19.6767 0 19.4482V12Z" fill="#464655"/>
<path d="M11.0579 8.54497L11.3409 9.39321L12.2351 9.40015C12.3043 9.40067 12.3331 9.48912 12.2773 9.53023L11.558 10.0614L11.8277 10.914C11.8486 10.98 11.7734 11.0346 11.717 10.9944L10.9895 10.4744L10.262 10.9944C10.2057 11.0347 10.1305 10.98 10.1514 10.914L10.4211 10.0614L9.70175 9.53023C9.64606 9.48907 9.67475 9.40067 9.74403 9.40015L10.6382 9.39321L10.9212 8.54497C10.9431 8.47929 11.036 8.47929 11.0579 8.54497Z" fill="#FFE15A"/>
<path d="M14.8821 15.7473C14.8821 15.7473 9.76311 11.8856 9.61199 11.7587C9.37841 11.5625 9.19817 11.2156 9.18955 10.7931C9.18955 10.7931 8.6375 11.3586 8.7456 11.944C8.87061 12.6207 9.25855 12.8621 9.75856 13.1897C10.1099 13.4199 12.9033 15.1816 14.5339 16.2093L14.8821 15.7473Z" fill="#FFE15A"/>
<path d="M16.4138 16.8792C16.3471 16.8316 15.8109 16.4353 15.0671 15.8842L14.7971 16.3751C15.3433 16.7192 15.7069 16.9482 15.7069 16.9482C15.7069 16.9482 15.7586 17.6207 16.3018 17.5086C16.4975 17.4682 16.6551 17.0517 16.4138 16.8792Z" fill="#FFE15A"/>
<path d="M11.9935 15.0962C11.6065 15.2324 11.1921 15.3103 10.7586 15.3103C9.65974 15.3103 8.67523 14.8316 7.99357 14.0747L7.38757 14.62C7.59068 14.8456 7.80757 15.0582 8.05202 15.2396L7.93137 15.4486L8.82724 15.9658L8.94584 15.7604C9.35055 15.9364 9.78565 16.0548 10.2414 16.1065V16.3448H11.2758V16.1065C11.7316 16.0548 12.1667 15.9364 12.5714 15.7604L12.69 15.9658L13.046 15.7603C12.6983 15.541 12.3422 15.3164 11.9935 15.0962Z" fill="#FFE15A"/>
<path d="M15.2789 11.0689C15.2273 10.6132 15.1088 10.1781 14.9328 9.77347L15.1383 9.65487L14.6211 8.75895L14.412 8.87961C14.1445 8.5191 13.8257 8.2003 13.4651 7.93274L13.5858 7.72372L12.6899 7.2065L12.5713 7.41196C12.2356 7.26594 11.8781 7.16225 11.5062 7.10075L11.3702 7.91656C13.1354 8.20892 14.4827 9.73822 14.4827 11.5862C14.4827 12.5813 14.0901 13.483 13.4542 14.1511C13.6741 14.3171 13.8924 14.482 14.1082 14.6449C14.2128 14.5304 14.3194 14.4177 14.4121 14.2928L14.6211 14.4135L15.1383 13.5176L14.9329 13.399C15.1089 12.9943 15.2273 12.5592 15.2789 12.1035H15.5172V11.069H15.2789L15.2789 11.0689Z" fill="#FFE15A"/>
</svg>
