<svg width="24" height="24" viewBox="0 0 24 24" fill="none" xmlns="http://www.w3.org/2000/svg">
<g clip-path="url(#clip0_2058_12592)">
<path d="M23.5861 19.862H0.413812C0.185297 19.862 0 19.6767 0 19.4482V4.55175C0 4.32324 0.185297 4.13794 0.413812 4.13794H23.5862C23.8147 4.13794 24 4.32324 24 4.55175V19.4482C24 19.6768 23.8147 19.862 23.5861 19.862Z" fill="#464655"/>
<path d="M24 11.5861H11.6927L0 5.13489V6.08031L10.7295 12L0 17.9196V18.8651L11.6927 12.4138H24V11.5861Z" fill="#FFE15A"/>
<path d="M0.165527 19.7707C0.235418 19.8245 0.318808 19.862 0.413824 19.862H23.5862C23.8147 19.862 24 19.6767 24 19.4482V13.2413H11.9999L0.165527 19.7707Z" fill="#73AF00"/>
<path d="M23.5862 4.13794H0.413824C0.318808 4.13794 0.235371 4.17544 0.165527 4.2293L11.9999 10.7586H23.9999V4.55175C24 4.32324 23.8147 4.13794 23.5862 4.13794Z" fill="#FF4B55"/>
<path d="M3.58374 9.679C2.40225 9.30733 1.51027 10.1658 1.30641 10.6077C1.13377 10.9821 0.813054 12.678 2.41177 12.9484C4.01039 13.2189 3.99239 11.7104 3.99239 11.7104C3.9203 11.9508 3.79102 12.6359 2.63705 12.6359C2.20421 12.6359 1.58232 11.9928 1.69951 11.2837C1.8098 10.6164 2.40591 10.275 2.85647 10.256C3.28313 10.238 4.27781 10.5325 4.27781 11.7435C4.27781 13.1047 2.87485 13.258 2.87485 13.258V14.08C4.09608 13.9603 4.7872 13.2838 4.97011 12.2002C5.15236 11.1214 4.78505 10.057 3.58374 9.679Z" fill="#FFE15A"/>
<path d="M2.27559 11.6975C2.2477 11.7329 2.23289 11.7769 2.23214 11.822L2.22867 12.043L2.18564 12.1181C2.17012 12.1452 2.17931 12.1798 2.20631 12.1955C2.23364 12.2115 2.2687 12.2021 2.2844 12.1746L2.32851 12.0975L2.50504 12.0335C2.55853 12.0142 2.60151 11.974 2.62476 11.9221C2.67089 11.8191 2.76993 11.63 2.93043 11.4327C3.09093 11.63 3.18998 11.8191 3.23611 11.9221C3.25931 11.974 3.30229 12.0141 3.35578 12.0335L3.53235 12.0975L3.57646 12.1746C3.59212 12.2021 3.62728 12.2115 3.65456 12.1955C3.68156 12.1797 3.69074 12.1452 3.67523 12.1181L3.6322 12.043L3.62873 11.822C3.62803 11.7769 3.61317 11.7329 3.58528 11.6975C3.43739 11.5097 3.28007 11.362 3.12506 11.2314C3.24895 11.1149 3.38901 11.0038 3.5654 10.918C3.60623 10.8981 3.62756 10.8523 3.61701 10.8081C3.60262 10.7478 3.53671 10.7162 3.48056 10.7425C3.36234 10.7975 3.15904 10.906 2.93039 11.0728C2.70168 10.9061 2.49843 10.7976 2.38022 10.7425C2.32406 10.7163 2.25815 10.7479 2.24376 10.8081C2.23326 10.8523 2.25459 10.8981 2.29533 10.918C2.47176 11.0038 2.61182 11.115 2.73572 11.2314C2.58079 11.362 2.42348 11.5098 2.27559 11.6975Z" fill="#FFE15A"/>
</g>
<defs>
<clipPath id="clip0_2058_12592">
<rect width="24" height="24" fill="white"/>
</clipPath>
</defs>
</svg>
