<svg width="24" height="24" viewBox="0 0 24 24" fill="none" xmlns="http://www.w3.org/2000/svg">
<path d="M23.5862 4.13794H12V19.8621H23.5862C23.8147 19.8621 24 19.6768 24 19.4483V4.5517C24 4.32319 23.8147 4.13794 23.5862 4.13794Z" fill="#FF4B55"/>
<path d="M0.413813 19.8621H12V4.13794H0.413813C0.185297 4.13794 0 4.32319 0 4.5517V19.4483C0 19.6768 0.185297 19.8621 0.413813 19.8621Z" fill="#F5F5F5"/>
<path d="M3.44837 5.10347V6.21066C3.50936 6.21305 3.57737 6.2407 3.6339 6.29723C3.69043 6.35377 3.71818 6.42178 3.72048 6.48276H4.82767V7.5862H3.72043C3.71804 7.64719 3.69039 7.7152 3.63386 7.77173C3.57732 7.82826 3.50931 7.85592 3.44832 7.85831V8.9655H2.34489V7.85831C2.2839 7.85592 2.21589 7.82826 2.15936 7.77173C2.10282 7.7152 2.07517 7.64719 2.07278 7.5862H0.96559V6.48281H2.07278C2.07517 6.42183 2.10282 6.35381 2.15936 6.29728C2.21589 6.24075 2.2839 6.21309 2.34489 6.2107V5.10352L3.44837 5.10347ZM3.58623 4.96552H3.44828H2.34484H2.20693V5.10347V6.10205C2.15429 6.12361 2.10489 6.15666 2.06181 6.19969C2.01873 6.24276 1.98573 6.29217 1.96412 6.34481H0.96559H0.827637V6.48276V7.5862V7.72416H0.96559H1.96417C1.98578 7.7768 2.01878 7.82625 2.06186 7.86928C2.10489 7.91231 2.15429 7.94536 2.20693 7.96692V8.9655V9.10341H2.34489H3.44832H3.58628V8.96545V7.96687C3.63892 7.94531 3.68832 7.91227 3.7314 7.86919C3.77443 7.82616 3.80748 7.77675 3.82904 7.72411H4.82762H4.96553V7.58616V6.48272V6.34476H4.82757H3.82909C3.80753 6.29212 3.77448 6.24272 3.7314 6.19964C3.68837 6.15661 3.63896 6.12356 3.58628 6.102V5.10347L3.58623 4.96552Z" fill="#FF4B55"/>
<path d="M4.82761 6.4827H3.44836V5.10345H2.34487V6.4827H0.965576V7.58619H2.34487V8.96549H3.44836V7.58619H4.82761V6.4827Z" fill="#CDCDCD"/>
<path d="M2.89657 7.58629C3.20127 7.58629 3.44829 7.33927 3.44829 7.03457C3.44829 6.72986 3.20127 6.48285 2.89657 6.48285C2.59186 6.48285 2.34485 6.72986 2.34485 7.03457C2.34485 7.33927 2.59186 7.58629 2.89657 7.58629Z" fill="#B4A08C"/>
<path d="M2.40223 7.52895C2.30641 7.43314 2.17439 7.40982 2.10733 7.47688C2.04028 7.54393 2.06359 7.67596 2.1594 7.77177C2.25522 7.86758 2.38724 7.89089 2.4543 7.82384C2.52135 7.75679 2.49804 7.62476 2.40223 7.52895Z" fill="#B4A08C"/>
<path d="M3.63396 7.7713C3.72977 7.67549 3.75308 7.54346 3.68603 7.47641C3.61897 7.40936 3.48695 7.43267 3.39113 7.52848C3.29532 7.62429 3.27201 7.75632 3.33906 7.82338C3.40612 7.89043 3.53814 7.86712 3.63396 7.7713Z" fill="#B4A08C"/>
<path d="M3.39062 6.54027C3.48643 6.63608 3.61846 6.65939 3.68551 6.59234C3.75257 6.52528 3.72926 6.39326 3.63344 6.29744C3.53763 6.20163 3.4056 6.17832 3.33855 6.24537C3.2715 6.31243 3.29481 6.44446 3.39062 6.54027Z" fill="#B4A08C"/>
<path d="M2.15913 6.29724C2.06332 6.39305 2.04001 6.52508 2.10706 6.59213C2.17412 6.65918 2.30615 6.63587 2.40196 6.54006C2.49777 6.44425 2.52108 6.31222 2.45403 6.24517C2.38697 6.17811 2.25495 6.20143 2.15913 6.29724Z" fill="#B4A08C"/>
<path d="M2.89665 7.78983C2.48017 7.78983 2.14136 7.45111 2.14136 7.03453C2.14136 6.61795 2.48017 6.27924 2.89665 6.27924C3.31314 6.27924 3.65195 6.61805 3.65195 7.03453C3.65195 7.45102 3.31314 7.78983 2.89665 7.78983ZM2.89665 6.34824C2.51828 6.34824 2.21036 6.65616 2.21036 7.03453C2.21036 7.41291 2.51828 7.72083 2.89665 7.72083C3.27503 7.72083 3.58295 7.41291 3.58295 7.03453C3.58295 6.65616 3.27503 6.34824 2.89665 6.34824Z" fill="#B4A08C"/>
</svg>
