<svg width="24" height="24" viewBox="0 0 24 24" fill="none" xmlns="http://www.w3.org/2000/svg">
<path d="M23.5861 19.862H0.413812C0.185297 19.862 0 19.6767 0 19.4482V4.55174C0 4.32322 0.185297 4.13792 0.413812 4.13792H23.5862C23.8147 4.13792 24 4.32322 24 4.55174V19.4482C24 19.6768 23.8147 19.862 23.5861 19.862Z" fill="#FFE15A"/>
<path d="M0 4.55174V7.03447L24 16.9655V14.0689L0.186468 4.21513C0.0766405 4.28948 0 4.40906 0 4.55174Z" fill="#F5F5F5"/>
<path d="M0 9.93101L23.8134 19.7848C23.9233 19.7104 23.9999 19.5909 23.9999 19.4482V16.9655L0 7.03447V9.93101Z" fill="#464655"/>
<path d="M14.3244 11.2653L14.3248 11.2535C14.3248 11.2535 14.3193 11.1969 14.3089 11.0905C14.3058 11.0374 14.2935 10.9726 14.2774 10.8972C14.2649 10.8211 14.2409 10.736 14.2099 10.642C14.1478 10.4556 14.0521 10.233 13.8869 10.0175C13.8669 9.99092 13.8433 9.96463 13.8216 9.93814C13.9153 9.8307 14.0067 9.70574 14.0929 9.55494C14.0929 9.55494 13.6204 9.5766 13.0897 9.34503C12.9145 9.25381 12.7243 9.17896 12.5156 9.12992L12.4166 8.73397C12.3954 8.64932 12.3193 8.58988 12.232 8.58988H12.0952V8.39966H12.7611L12.5708 8.01913L12.7611 7.6386H12.0952V7.44833H11.9048V8.58988H11.768C11.6806 8.58988 11.6046 8.64932 11.5834 8.73397L11.4866 9.12139C11.358 9.14877 11.23 9.1835 11.1058 9.23633C11.0041 9.27702 10.9058 9.32802 10.8098 9.38511C10.3216 9.57247 9.90708 9.55499 9.90708 9.55499C9.99324 9.70569 10.0845 9.83061 10.1782 9.938C10.1592 9.96106 10.1381 9.98178 10.1198 10.0055C9.99015 10.1815 9.88665 10.3794 9.80766 10.5896C9.73252 10.7936 9.68982 11.0526 9.67552 11.2419L9.67515 11.425C9.67322 11.4824 9.67979 11.5394 9.68583 11.5965C9.69333 11.7117 9.71879 11.8241 9.74279 11.9374C9.80213 12.1604 9.88894 12.3774 10.0073 12.5766C10.2442 12.9756 10.6055 13.2902 11.0107 13.4853C11.22 13.5775 11.4177 13.6477 11.6536 13.6812C11.7793 13.7046 11.8575 13.7043 11.9506 13.7124L11.9676 13.7136L11.976 13.7142L12.0037 13.7149L12.0433 13.7133L12.1222 13.7097C12.1746 13.7062 12.227 13.7068 12.2783 13.6992C12.6923 13.6538 13.0655 13.4928 13.3569 13.2838C13.6482 13.0711 13.8575 12.8116 14.0008 12.5643C14.1464 12.3168 14.2215 12.0772 14.2678 11.881C14.2899 11.783 14.3064 11.6935 14.3124 11.6093C14.3218 11.526 14.3273 11.4577 14.3248 11.4132C14.3246 11.3167 14.3244 11.2653 14.3244 11.2653ZM10.8666 12.6061C10.7344 12.5031 10.6149 12.3803 10.506 12.2448C10.4011 12.1061 10.3173 11.9496 10.2516 11.7833C10.1896 11.6205 10.1554 11.4248 10.1386 11.2653C10.134 11.0439 10.1444 10.8929 10.1866 10.7041C10.2327 10.5248 10.2999 10.3493 10.3935 10.1874C10.3989 10.178 10.4063 10.1701 10.4118 10.1608C10.8443 10.4987 11.301 10.4747 11.6195 10.3107V10.6828C11.7245 10.6828 11.8097 10.8957 11.8097 11.1584C11.8097 11.4211 11.7245 11.6341 11.6195 11.6341V11.8243C11.9763 12.3 11.8126 12.7015 11.5933 12.9355C11.4938 12.9139 11.3905 12.8848 11.294 12.8468C11.1442 12.7886 11.0019 12.7047 10.8666 12.6061ZM13.8611 11.2439C13.8607 11.2467 13.8557 11.2956 13.846 11.3888C13.8431 11.4408 13.8316 11.49 13.8184 11.5445C13.8089 11.5995 13.7888 11.6661 13.763 11.7416C13.7114 11.8894 13.634 12.0659 13.4992 12.2351C13.3676 12.4047 13.19 12.5722 12.9684 12.7033C12.7999 12.8033 12.6019 12.871 12.3927 12.919C12.1808 12.6829 12.0316 12.2896 12.3806 11.8243V11.6341C12.2756 11.6341 12.1904 11.4212 12.1904 11.1585C12.1904 10.8958 12.2756 10.6828 12.3806 10.6828V10.3108C12.6995 10.4749 13.1568 10.4989 13.5898 10.1598C13.5972 10.1722 13.6063 10.1849 13.6132 10.1973C13.7284 10.3985 13.7853 10.592 13.8209 10.7495C13.838 10.829 13.8505 10.9 13.8534 10.9631C13.86 11.0255 13.8648 11.0782 13.8621 11.1217C13.8614 11.1954 13.8611 11.2328 13.8611 11.2439Z" fill="#FF4B55"/>
<path d="M11.9999 14.1075C11.2974 14.1075 10.6602 13.8338 10.1846 13.3891C10.0973 13.3075 9.95916 13.3174 9.88134 13.4081L9.15281 14.2581C9.07538 14.3485 9.13959 14.488 9.25852 14.488H9.71672L10.3275 14.7934C10.4134 14.8364 10.5177 14.8086 10.571 14.7288L10.7676 14.4339C11.1475 14.5907 11.5634 14.6783 11.9999 14.6783C12.4364 14.6783 12.8523 14.5907 13.2322 14.4339L13.4288 14.7288C13.482 14.8087 13.5864 14.8363 13.6723 14.7934L14.2831 14.488H14.7413C14.8603 14.488 14.9245 14.3485 14.847 14.2581L14.1185 13.4081C14.0406 13.3173 13.9025 13.3075 13.8152 13.3891C13.3397 13.8338 12.7026 14.1075 11.9999 14.1075Z" fill="#FF4B55"/>
<path d="M9.33631 13.3464H8.38498L8.5752 11.634C8.5752 11.634 7.90925 11.301 7.979 10.3236C7.98748 10.2047 8.08798 10.1119 8.20714 10.1119H8.36951C8.48164 10.1119 8.57562 10.1932 8.59418 10.3038C8.63421 10.5424 8.75876 10.9341 9.146 11.0632L9.33631 13.3464Z" fill="#FF4B55"/>
<path d="M14.6637 13.3464H15.615L15.4248 11.634C15.4248 11.634 16.0908 11.301 16.021 10.3236C16.0125 10.2047 15.912 10.1119 15.7929 10.1119H15.6305C15.5184 10.1119 15.4244 10.1932 15.4058 10.3038C15.3658 10.5424 15.2412 10.9341 14.854 11.0632L14.6637 13.3464Z" fill="#FF4B55"/>
<path d="M9.43148 13.5367H8.28993C8.23739 13.5367 8.19482 13.4941 8.19482 13.4416C8.19482 13.389 8.23739 13.3465 8.28993 13.3465H9.43148C9.48403 13.3465 9.52659 13.389 9.52659 13.4416C9.52659 13.4941 9.48398 13.5367 9.43148 13.5367Z" fill="#FFE15A"/>
<path d="M15.71 13.5367H14.5685C14.516 13.5367 14.4734 13.4941 14.4734 13.4416C14.4734 13.389 14.516 13.3465 14.5685 13.3465H15.71C15.7626 13.3465 15.8052 13.389 15.8052 13.4416C15.8052 13.4941 15.7626 13.5367 15.71 13.5367Z" fill="#FFE15A"/>
</svg>
