<svg width="24" height="24" viewBox="0 0 24 24" fill="none" xmlns="http://www.w3.org/2000/svg">
<g clip-path="url(#clip0_2058_10430)">
<path d="M23.5861 19.862H0.413811C0.185296 19.862 0 19.6767 0 19.4482V4.55175C0 4.32324 0.185296 4.13794 0.413811 4.13794H23.5861C23.8147 4.13794 24 4.32324 24 4.55175V19.4482C23.9999 19.6768 23.8146 19.862 23.5861 19.862Z" fill="#FF4B55"/>
<path d="M14.3186 12.1303C14.2137 12.04 14.0946 11.9743 13.9751 11.9262C14.6506 11.7931 15.1937 11.2224 15.1937 11.2224C14.8654 11.3664 14.7128 11.3956 14.1902 11.2238C14.0587 11.1806 13.9235 11.1654 13.7948 11.1668C14.3678 10.7852 14.6513 10.0502 14.6513 10.0502C14.4031 10.3089 14.2732 10.3943 13.7246 10.4356C13.5866 10.446 13.456 10.4837 13.3375 10.5342C13.7209 9.96252 13.7015 9.17483 13.7015 9.17483C13.5712 9.50886 13.4839 9.63744 12.9929 9.88545C12.8693 9.94789 12.763 10.0328 12.6729 10.1247C12.8083 9.4498 12.489 8.72961 12.489 8.72961C12.4964 9.08807 12.4649 9.24027 12.1063 9.65736C12.016 9.76231 11.9503 9.88138 11.9022 10.0009C11.7691 9.32544 11.1984 8.78225 11.1984 8.78225C11.3424 9.11061 11.3716 9.26324 11.1998 9.78584C11.1566 9.91733 11.1414 10.0525 11.1428 10.1812C10.7612 9.60824 10.0262 9.32474 10.0262 9.32474C10.2849 9.57294 10.3703 9.70283 10.4116 10.2514C10.422 10.3894 10.4597 10.52 10.5102 10.6385C9.93837 10.2551 9.15083 10.2745 9.15083 10.2745C9.48486 10.4048 9.61344 10.4921 9.86145 10.9831C9.92389 11.1067 10.0088 11.2129 10.1008 11.3031C9.4258 11.1677 8.70557 11.487 8.70557 11.487C9.06406 11.4796 9.21622 11.5111 9.63336 11.8697C9.73831 11.96 9.85737 12.0257 9.97686 12.0738C9.30144 12.2069 8.75825 12.7776 8.75825 12.7776C9.08661 12.6336 9.23924 12.6044 9.76184 12.7762C9.89337 12.8194 10.0285 12.8346 10.1573 12.8332C9.58428 13.2147 9.30074 13.9498 9.30074 13.9498C9.54894 13.6911 9.67883 13.6057 10.2274 13.5644C10.3654 13.554 10.496 13.5163 10.6145 13.4658C10.2311 14.0377 10.2505 14.8252 10.2505 14.8252C10.3808 14.4911 10.4681 14.3626 10.9591 14.1145C11.0827 14.0521 11.1889 13.9672 11.2791 13.8753C11.1437 14.5502 11.463 15.2704 11.463 15.2704C11.4556 14.9119 11.4871 14.7598 11.8457 14.3426C11.936 14.2377 12.0017 14.1186 12.0498 13.9991C12.1829 14.6745 12.7536 15.2177 12.7536 15.2177C12.6096 14.8894 12.5804 14.7367 12.7522 14.2142C12.7954 14.0827 12.8106 13.9475 12.8092 13.8188C13.1908 14.3918 13.9258 14.6753 13.9258 14.6753C13.6671 14.4271 13.5817 14.2972 13.5404 13.7486C13.53 13.6106 13.4923 13.48 13.4418 13.3615C14.0135 13.7449 14.8012 13.7255 14.8012 13.7255C14.4671 13.5951 14.3386 13.5079 14.0905 13.0169C14.0281 12.8933 13.9432 12.787 13.8512 12.6969C14.5262 12.8323 15.2464 12.513 15.2464 12.513C14.8879 12.5204 14.7357 12.4891 14.3186 12.1303Z" fill="#FFE15A"/>
<path d="M13.6596 12.3302L15.3103 12L13.6596 11.6699L15.0583 10.7332L13.407 11.0598L14.3408 9.65922L12.9402 10.593L13.2668 8.94166L12.3302 10.3403L12 8.68976L11.6699 10.3404L10.7333 8.94176L11.0599 10.5931L9.6593 9.65932L10.5931 11.0599L8.94174 10.7333L10.3404 11.67L8.6897 12.0001L10.3403 12.3302L8.94165 13.2668L10.593 12.9402L9.65921 14.3408L11.0598 13.407L10.7332 15.0584L11.6698 13.6597L12 15.3103L12.3301 13.6597L13.2668 15.0583L12.9401 13.407L14.3407 14.3408L13.4069 12.9401L15.0583 13.2668L13.6596 12.3302Z" fill="#FFD25A"/>
<path d="M12 13.6551C12.9141 13.6551 13.6551 12.9141 13.6551 11.9999C13.6551 11.0858 12.9141 10.3448 12 10.3448C11.0859 10.3448 10.3448 11.0858 10.3448 11.9999C10.3448 12.9141 11.0859 13.6551 12 13.6551Z" fill="#FFE15A"/>
<path d="M4.79365 16.9654C5.99412 16.9654 5.99412 17.3793 7.19463 17.3793C8.39598 17.3793 8.39598 16.9654 9.59724 16.9654C10.7985 16.9654 10.7986 17.3793 11.9999 17.3793C13.1985 17.3793 13.1985 16.9654 14.3972 16.9654C15.5965 16.9654 15.5965 17.3793 16.7957 17.3793C17.9955 17.3793 17.9955 16.9654 19.1953 16.9654C20.395 16.9654 20.395 17.3793 21.5948 17.3793C22.7946 17.3793 22.7946 16.9654 23.9944 16.9654C23.9963 16.9654 23.9979 16.9655 23.9999 16.9655V15.7242C23.9979 15.7242 23.9963 15.7241 23.9944 15.7241C22.7946 15.7241 22.7946 16.1379 21.5948 16.1379C20.3951 16.1379 20.3951 15.7241 19.1953 15.7241C17.9955 15.7241 17.9955 16.1379 16.7957 16.1379C15.5964 16.1379 15.5964 15.7241 14.3972 15.7241C13.1985 15.7241 13.1985 16.1379 11.9999 16.1379C10.7985 16.1379 10.7985 15.7241 9.59724 15.7241C8.39598 15.7241 8.39589 16.1379 7.19463 16.1379C5.99412 16.1379 5.99412 15.7241 4.79365 15.7241C3.59422 15.7241 3.59422 16.1379 2.39474 16.1379C1.19657 16.1379 1.19432 15.7255 0 15.7242V16.9656C1.19437 16.9669 1.19657 17.3793 2.39474 17.3793C3.59422 17.3793 3.59422 16.9654 4.79365 16.9654Z" fill="#41479B"/>
<path d="M0 14.4828C1.19437 14.4842 1.19657 14.8965 2.39474 14.8965C3.59422 14.8965 3.59422 14.4827 4.79365 14.4827C5.99412 14.4827 5.99412 14.8965 7.19463 14.8965C8.39598 14.8965 8.39598 14.4827 9.59724 14.4827C10.7985 14.4827 10.7986 14.8965 11.9999 14.8965C13.1985 14.8965 13.1985 14.4827 14.3972 14.4827C15.5965 14.4827 15.5965 14.8965 16.7957 14.8965C17.9955 14.8965 17.9955 14.4827 19.1953 14.4827C20.395 14.4827 20.395 14.8965 21.5948 14.8965C22.7946 14.8965 22.7946 14.4827 23.9944 14.4827C23.9963 14.4827 23.9979 14.4828 23.9999 14.4828V13.2414C23.9979 13.2414 23.9963 13.2413 23.9944 13.2413C22.7946 13.2413 22.7946 13.6551 21.5948 13.6551C20.3951 13.6551 20.3951 13.2413 19.1953 13.2413C17.9955 13.2413 17.9955 13.6551 16.7957 13.6551C15.5964 13.6551 15.5964 13.2413 14.3972 13.2413C13.1985 13.2413 13.1985 13.6551 11.9999 13.6551C10.7985 13.6551 10.7985 13.2413 9.59724 13.2413C8.39598 13.2413 8.39589 13.6551 7.19463 13.6551C5.99412 13.6551 5.99412 13.2413 4.79365 13.2413C3.59422 13.2413 3.59422 13.6551 2.39474 13.6551C1.19657 13.6551 1.19432 13.2427 0 13.2414L0 14.4828Z" fill="#41479B"/>
<path d="M0 18.207C1.19437 18.2083 1.19657 18.6206 2.39474 18.6206C3.59422 18.6206 3.59422 18.2068 4.79365 18.2068C5.99412 18.2068 5.99412 18.6206 7.19463 18.6206C8.39598 18.6206 8.39598 18.2068 9.59724 18.2068C10.7985 18.2068 10.7986 18.6206 11.9999 18.6206C13.1985 18.6206 13.1985 18.2068 14.3972 18.2068C15.5965 18.2068 15.5965 18.6206 16.7957 18.6206C17.9955 18.6206 17.9955 18.2068 19.1953 18.2068C20.395 18.2068 20.395 18.6206 21.5948 18.6206C22.7946 18.6206 22.7946 18.2068 23.9944 18.2068C23.9963 18.2068 23.9979 18.2069 23.9999 18.2069V16.9655C23.9979 16.9655 23.9963 16.9654 23.9944 16.9654C22.7946 16.9654 22.7946 17.3792 21.5948 17.3792C20.3951 17.3792 20.3951 16.9654 19.1953 16.9654C17.9955 16.9654 17.9955 17.3792 16.7957 17.3792C15.5964 17.3792 15.5964 16.9654 14.3972 16.9654C13.1985 16.9654 13.1985 17.3792 11.9999 17.3792C10.7985 17.3792 10.7985 16.9654 9.59724 16.9654C8.39598 16.9654 8.39589 17.3792 7.19463 17.3792C5.99412 17.3792 5.99412 16.9654 4.79365 16.9654C3.59422 16.9654 3.59422 17.3792 2.39474 17.3792C1.19657 17.3792 1.19432 16.9668 0 16.9655L0 18.207Z" fill="#F5F5F5"/>
<path d="M0 15.7242C1.19437 15.7256 1.19657 16.1379 2.39474 16.1379C3.59422 16.1379 3.59422 15.7241 4.79365 15.7241C5.99412 15.7241 5.99412 16.1379 7.19463 16.1379C8.39598 16.1379 8.39598 15.7241 9.59724 15.7241C10.7985 15.7241 10.7986 16.1379 11.9999 16.1379C13.1985 16.1379 13.1985 15.7241 14.3972 15.7241C15.5965 15.7241 15.5965 16.1379 16.7957 16.1379C17.9955 16.1379 17.9955 15.7241 19.1953 15.7241C20.395 15.7241 20.395 16.1379 21.5948 16.1379C22.7946 16.1379 22.7946 15.7241 23.9944 15.7241C23.9963 15.7241 23.9979 15.7241 23.9999 15.7241V14.4828C23.9979 14.4828 23.9963 14.4827 23.9944 14.4827C22.7946 14.4827 22.7946 14.8965 21.5948 14.8965C20.3951 14.8965 20.3951 14.4827 19.1953 14.4827C17.9955 14.4827 17.9955 14.8965 16.7957 14.8965C15.5964 14.8965 15.5964 14.4827 14.3972 14.4827C13.1985 14.4827 13.1985 14.8965 11.9999 14.8965C10.7985 14.8965 10.7985 14.4827 9.59724 14.4827C8.39598 14.4827 8.39589 14.8965 7.19463 14.8965C5.99412 14.8965 5.99412 14.4827 4.79365 14.4827C3.59422 14.4827 3.59422 14.8965 2.39474 14.8965C1.19657 14.8965 1.19432 14.4841 0 14.4828L0 15.7242Z" fill="#F5F5F5"/>
<path d="M0 13.2415C1.19437 13.2428 1.19657 13.6551 2.39474 13.6551C3.59422 13.6551 3.59422 13.2413 4.79365 13.2413C5.99412 13.2413 5.99412 13.6551 7.19463 13.6551C8.39598 13.6551 8.39598 13.2413 9.59724 13.2413C10.7985 13.2413 10.7986 13.6551 11.9999 13.6551C13.1985 13.6551 13.1985 13.2413 14.3972 13.2413C15.5965 13.2413 15.5965 13.6551 16.7957 13.6551C17.9955 13.6551 17.9955 13.2413 19.1953 13.2413C20.395 13.2413 20.395 13.6551 21.5948 13.6551C22.7946 13.6551 22.7946 13.2413 23.9944 13.2413C23.9963 13.2413 23.9979 13.2414 23.9999 13.2414V12C23.9979 12 23.9963 11.9999 23.9944 11.9999C22.7946 11.9999 22.7946 12.4137 21.5948 12.4137C20.3951 12.4137 20.3951 11.9999 19.1953 11.9999C17.9955 11.9999 17.9955 12.4137 16.7957 12.4137C15.5964 12.4137 15.5964 11.9999 14.3972 11.9999C13.1985 11.9999 13.1985 12.4137 11.9999 12.4137C10.7985 12.4137 10.7985 11.9999 9.59724 11.9999C8.39598 11.9999 8.39589 12.4137 7.19463 12.4137C5.99412 12.4137 5.99412 11.9999 4.79365 11.9999C3.59422 11.9999 3.59422 12.4137 2.39474 12.4137C1.19657 12.4137 1.19432 12.0014 0 12.0001L0 13.2415Z" fill="#F5F5F5"/>
<path d="M21.5949 18.6207C20.3952 18.6207 20.3952 18.2068 19.1954 18.2068C17.9956 18.2068 17.9956 18.6207 16.7958 18.6207C15.5965 18.6207 15.5965 18.2068 14.3973 18.2068C13.1986 18.2068 13.1986 18.6207 12 18.6207C10.7986 18.6207 10.7986 18.2068 9.59737 18.2068C8.3961 18.2068 8.39601 18.6207 7.19475 18.6207C5.99424 18.6207 5.99424 18.2068 4.79378 18.2068C3.59434 18.2068 3.59434 18.6207 2.39486 18.6207C1.1967 18.6207 1.19445 18.2083 0.00012207 18.207V19.4482C0.00012207 19.6767 0.185418 19.862 0.413933 19.862H23.5863C23.8119 19.862 23.9937 19.681 23.9984 19.4565C23.9989 18.7284 23.9995 18.207 24 18.207C23.9981 18.207 23.9965 18.2069 23.9946 18.2069C22.7947 18.2068 22.7947 18.6207 21.5949 18.6207Z" fill="#41479B"/>
<path d="M12.8615 6.33582C14.8737 6.25801 15.8964 5.37976 15.8964 5.37976C15.7519 5.43531 13.4952 5.62431 12.8504 5.6799C12.4432 5.71496 11.9352 6.17926 11.6153 6.51732C11.5291 6.28323 11.3607 6.04041 11.0272 5.9912C10.349 5.89117 8.54805 5.78003 8.10339 5.56871C8.10339 5.56871 8.39041 6.01238 9.87381 6.21352C10.5845 6.3099 10.9764 6.55365 11.163 6.71958L10.9938 6.71377C10.9938 6.71377 10.9938 6.71377 10.7048 6.56921C10.4158 6.42469 10.1267 6.66924 10.1267 6.66924H9.66629C9.60864 6.66924 9.57573 6.7351 9.61033 6.78118L9.65462 6.84024C9.69981 6.90057 9.77082 6.93605 9.8462 6.93605H10.3157C10.4824 7.22508 11.1161 7.52527 11.6386 7.52527C12.1611 7.52527 13.762 6.8138 13.9176 6.8138L12.4695 6.76426L12.8615 6.33582Z" fill="#FFE15A"/>
</g>
<defs>
<clipPath id="clip0_2058_10430">
<rect width="24" height="24" fill="white"/>
</clipPath>
</defs>
</svg>
