<svg width="24" height="24" viewBox="0 0 24 24" fill="none" xmlns="http://www.w3.org/2000/svg">
<path d="M23.5861 19.862H0.413812C0.185297 19.862 0 19.6767 0 19.4482V4.55175C0 4.32324 0.185297 4.13794 0.413812 4.13794H23.5862C23.8147 4.13794 24 4.32324 24 4.55175V19.4482C24 19.6768 23.8147 19.862 23.5861 19.862Z" fill="#FF4B55"/>
<path d="M9.10339 12H0.413812C0.185297 12 0 11.8147 0 11.5862V4.55175C0 4.32324 0.185297 4.13794 0.413812 4.13794H9.10344C9.33195 4.13794 9.51725 4.32324 9.51725 4.55175V11.5862C9.5172 11.8148 9.3319 12 9.10339 12Z" fill="#F5F5F5"/>
<path d="M7.86205 7.03448H5.79308V4.96552H3.72412V7.03448H1.65515V9.10344H3.72412V11.1724H5.79308V9.10344H7.86205V7.03448Z" fill="#FF4B55"/>
</svg>
