<svg width="24" height="24" viewBox="0 0 24 24" fill="none" xmlns="http://www.w3.org/2000/svg">
<path d="M23.5861 19.862H0.413812C0.185297 19.862 0 19.6767 0 19.4482V4.55175C0 4.32324 0.185297 4.13794 0.413812 4.13794H23.5862C23.8147 4.13794 24 4.32324 24 4.55175V19.4482C24 19.6768 23.8147 19.862 23.5861 19.862Z" fill="#41479B"/>
<path d="M24 7.86185H0V16.1376H24V7.86185Z" fill="#FF4B55"/>
<path d="M17.4758 15.1375V14.5507H17.2802V14.1596H17.0846V13.7685H16.889V13.3774H16.3024V12.204H16.3023L16.4979 12.0085V11.4218H16.3024V11.0306H16.1068V10.444H15.9113V10.0528H15.7157V9.66171H15.5202V9.46615H15.129V9.66171H14.9334V10.0528H14.7379V10.444H14.5423V11.0306H14.3468V11.4218H13.1734V10.8351H12.9778V10.2484H12.7823V9.66171H12.5867V9.27059H12.3912V8.87947H12.1956V8.6839H12.0978V8.48834H11.9023V8.6839H11.8044V8.87947H11.6089V9.27059H11.4134V9.66171H11.2178V10.2484H11.0222V10.8351H10.8267V11.4218H9.65329V11.0306H9.45773V10.444H9.26217V10.0528H9.06661V9.66171H8.87104V9.46615H8.47992V9.66171H8.28436V10.0528H8.08879V10.444H7.89323V11.0306H7.69767V11.4218H7.50211V12.0085L7.69758 12.204H7.69767V13.3774H7.11103V13.7685H6.91547V14.1596H6.71986V14.5507H6.5243V15.1375H6.32874V15.7241H17.6713V15.1375H17.4758Z" fill="#F5F5F5"/>
</svg>
