<svg width="24" height="24" viewBox="0 0 24 24" fill="none" xmlns="http://www.w3.org/2000/svg">
<path d="M23.5861 4.13794H0.413812C0.185297 4.13794 0 4.32319 0 4.5517V19.4482C0 19.6767 0.185297 19.862 0.413812 19.862H23.5862C23.8147 19.862 24 19.6767 24 19.4482V4.5517C24 4.32319 23.8147 4.13794 23.5861 4.13794Z" fill="#F5F5F5"/>
<path d="M24 5.88513H8.6897V7.63216H24V5.88513Z" fill="#4173CD"/>
<path d="M24 7.6322H0V9.37923H24V7.6322Z" fill="#F5F5F5"/>
<path d="M24 9.37915H8.6897V11.1262H24V9.37915Z" fill="#4173CD"/>
<path d="M24 11.1262H0V12.8732H24V11.1262Z" fill="#F5F5F5"/>
<path d="M24 12.8738H0V14.6208H24V12.8738Z" fill="#4173CD"/>
<path d="M24 14.6207H0V16.3678H24V14.6207Z" fill="#F5F5F5"/>
<path d="M24 16.3678H0V18.1148H24V16.3678Z" fill="#4173CD"/>
<path d="M2.9989 5.23315L3.6911 8.43626L4.77424 7.98757L2.9989 5.23315Z" fill="#FFE15A"/>
<path d="M2.9989 5.23315L4.23265 8.21191L3.6911 8.43626L2.9989 5.23315Z" fill="#FFCD5A"/>
<path d="M5.69079 11.7323L4.99854 8.52917L3.91541 8.97786L5.69079 11.7323Z" fill="#FFE15A"/>
<path d="M5.69083 11.7323L4.45703 8.75352L4.99858 8.52917L5.69083 11.7323Z" fill="#FFCD5A"/>
<path d="M7.59429 7.13684L4.39124 7.82904L4.83988 8.91218L7.59429 7.13684Z" fill="#FFE15A"/>
<path d="M7.59429 7.13684L4.61553 8.37059L4.39124 7.82904L7.59429 7.13684Z" fill="#FFCD5A"/>
<path d="M1.09534 9.82869L4.29839 9.13648L3.84971 8.05334L1.09534 9.82869Z" fill="#FFE15A"/>
<path d="M1.09534 9.82872L4.07405 8.59497L4.29839 9.13652L1.09534 9.82872Z" fill="#FFCD5A"/>
<path d="M5.69079 5.23315L3.91541 7.98757L4.99854 8.43626L5.69079 5.23315Z" fill="#FFE15A"/>
<path d="M5.69079 5.23315L4.457 8.21191L3.91541 7.98757L5.69079 5.23315Z" fill="#FFCD5A"/>
<path d="M2.9989 11.7323L4.77424 8.97786L3.6911 8.52917L2.9989 11.7323Z" fill="#FFE15A"/>
<path d="M2.9989 11.7323L4.23265 8.75354L4.77424 8.97788L2.9989 11.7323Z" fill="#FFCD5A"/>
<path d="M7.59429 9.82869L4.83988 8.05334L4.39124 9.13648L7.59429 9.82869Z" fill="#FFE15A"/>
<path d="M7.59436 9.82869L4.6156 8.59494L4.83994 8.05334L7.59436 9.82869Z" fill="#FFCD5A"/>
<path d="M1.09534 7.13684L3.84971 8.91218L4.29839 7.82904L1.09534 7.13684Z" fill="#FFE15A"/>
<path d="M1.09534 7.13684L4.07405 8.37059L3.84971 8.91218L1.09534 7.13684Z" fill="#FFCD5A"/>
<path d="M4.34488 4.96545L3.75867 8.18956H4.93106L4.34488 4.96545Z" fill="#FFE15A"/>
<path d="M4.34488 4.96545V8.18956H3.75867L4.34488 4.96545Z" fill="#FFCD5A"/>
<path d="M4.34488 12L4.93106 8.77588H3.75867L4.34488 12Z" fill="#FFE15A"/>
<path d="M4.34485 12V8.77588H4.93102L4.34485 12Z" fill="#FFCD5A"/>
<path d="M7.86204 8.48282L4.63794 7.89661V9.06899L7.86204 8.48282Z" fill="#FFE15A"/>
<path d="M7.86204 8.48282H4.63794V7.89661L7.86204 8.48282Z" fill="#FFCD5A"/>
<path d="M0.827637 8.48282L4.05174 9.06899V7.89661L0.827637 8.48282Z" fill="#FFE15A"/>
<path d="M0.827637 8.48279H4.05174V9.06896L0.827637 8.48279Z" fill="#FFCD5A"/>
<path d="M6.8319 5.99573L4.13757 7.86102L4.9666 8.69005L6.8319 5.99573Z" fill="#FFE15A"/>
<path d="M6.8319 5.99573L4.55209 8.27554L4.13757 7.86102L6.8319 5.99573Z" fill="#FFCD5A"/>
<path d="M1.85779 10.9698L4.55206 9.10454L3.72303 8.27551L1.85779 10.9698Z" fill="#FFE15A"/>
<path d="M1.85779 10.9697L4.13755 8.68994L4.55206 9.10446L1.85779 10.9697Z" fill="#FFCD5A"/>
<path d="M6.8319 10.9698L4.9666 8.27551L4.13757 9.10454L6.8319 10.9698Z" fill="#FFE15A"/>
<path d="M6.83193 10.9698L4.55212 8.69003L4.96664 8.27551L6.83193 10.9698Z" fill="#FFCD5A"/>
<path d="M1.85779 5.99573L3.72303 8.69005L4.55206 7.86102L1.85779 5.99573Z" fill="#FFE15A"/>
<path d="M1.85779 5.99573L4.13755 8.27554L3.72303 8.69005L1.85779 5.99573Z" fill="#FFCD5A"/>
<path d="M4.34483 9.65535C4.99229 9.65535 5.51717 9.13048 5.51717 8.48301C5.51717 7.83554 4.99229 7.31067 4.34483 7.31067C3.69736 7.31067 3.17249 7.83554 3.17249 8.48301C3.17249 9.13048 3.69736 9.65535 4.34483 9.65535Z" fill="#FFE15A"/>
</svg>
