<svg width="24" height="24" viewBox="0 0 24 24" fill="none" xmlns="http://www.w3.org/2000/svg">
<path d="M0.413812 4.13794H23.5862C23.8147 4.13794 24 4.32324 24 4.55175V8.06896H0V4.55175C0 4.32324 0.185297 4.13794 0.413812 4.13794Z" fill="#FFE15A"/>
<path d="M24 8.06906H0V12H24V8.06906Z" fill="#F5F5F5"/>
<path d="M24 12H0V15.9309H24V12Z" fill="#FF4B55"/>
<path d="M0 15.931H24V19.4482C24 19.6767 23.8147 19.862 23.5861 19.862H0.413812C0.185297 19.862 0 19.6767 0 19.4482V15.931Z" fill="#4173CD"/>
<path d="M0.152625 19.7621L11.7487 12.1646C11.8673 12.0869 11.8673 11.9131 11.7487 11.8353L0.152625 4.23798C0.061453 4.31382 0 4.42383 0 4.55176V19.4482C0 19.5761 0.061453 19.6862 0.152625 19.7621Z" fill="#73AF00"/>
<path d="M2.28904 12C2.28904 10.5038 3.26709 9.23776 4.61821 8.80173C4.68922 8.77881 4.67933 8.67512 4.60532 8.66542C4.46624 8.64723 4.32454 8.63739 4.18044 8.63739C2.32335 8.63739 0.817871 10.1429 0.817871 12C0.817871 13.8571 2.32335 15.3625 4.18044 15.3625C4.32454 15.3625 4.46624 15.3527 4.60532 15.3345C4.67933 15.3248 4.68922 15.2211 4.61821 15.1982C3.26709 14.7622 2.28904 13.4963 2.28904 12Z" fill="#F5F5F5"/>
<path d="M4.63543 9.4316L4.72801 9.70914L5.02056 9.71144C5.05843 9.71177 5.07414 9.76005 5.04367 9.78255L4.80831 9.95636L4.89653 10.2353C4.90797 10.2714 4.86686 10.3013 4.83601 10.2793L4.59798 10.1092L4.35995 10.2793C4.32911 10.3013 4.288 10.2714 4.29944 10.2353L4.38765 9.95636L4.1523 9.78255C4.12183 9.76005 4.13758 9.71168 4.1754 9.71144L4.46795 9.70914L4.56053 9.4316C4.57258 9.39564 4.62343 9.39564 4.63543 9.4316Z" fill="#F5F5F5"/>
<path d="M4.63543 10.8381L4.72801 11.1157L5.02056 11.118C5.05843 11.1183 5.07414 11.1666 5.04367 11.1891L4.80831 11.3629L4.89653 11.6418C4.90797 11.6779 4.86686 11.7078 4.83601 11.6858L4.59798 11.5157L4.35995 11.6858C4.32911 11.7078 4.288 11.6779 4.29944 11.6418L4.38765 11.3629L4.1523 11.1891C4.12183 11.1666 4.13758 11.1182 4.1754 11.118L4.46795 11.1157L4.56053 10.8381C4.57258 10.8022 4.62343 10.8022 4.63543 10.8381Z" fill="#F5F5F5"/>
<path d="M4.63543 12.2446L4.72801 12.5222L5.02056 12.5245C5.05843 12.5248 5.07414 12.5731 5.04367 12.5956L4.80831 12.7694L4.89653 13.0484C4.90797 13.0845 4.86686 13.1144 4.83601 13.0923L4.59798 12.9222L4.35995 13.0923C4.32911 13.1144 4.288 13.0845 4.29944 13.0484L4.38765 12.7694L4.1523 12.5956C4.12183 12.5731 4.13758 12.5247 4.1754 12.5245L4.46795 12.5222L4.56053 12.2446C4.57258 12.2087 4.62343 12.2087 4.63543 12.2446Z" fill="#F5F5F5"/>
<path d="M4.63543 13.6512L4.72801 13.9288L5.02056 13.9311C5.05843 13.9314 5.07414 13.9797 5.04367 14.0022L4.80831 14.176L4.89653 14.4549C4.90797 14.491 4.86686 14.521 4.83601 14.4989L4.59798 14.3288L4.35995 14.4989C4.32911 14.521 4.288 14.491 4.29944 14.4549L4.38765 14.176L4.1523 14.0022C4.12183 13.9797 4.13758 13.9313 4.1754 13.9311L4.46795 13.9288L4.56053 13.6512C4.57258 13.6153 4.62343 13.6153 4.63543 13.6512Z" fill="#F5F5F5"/>
</svg>
