<svg width="24" height="24" viewBox="0 0 24 24" fill="none" xmlns="http://www.w3.org/2000/svg">
<path d="M23.5861 4.13794H0.413812C0.185297 4.13794 0 4.32319 0 4.5517V19.4482C0 19.6767 0.185297 19.862 0.413812 19.862H23.5862C23.8147 19.862 24 19.6767 24 19.4482V4.5517C24 4.32319 23.8147 4.13794 23.5861 4.13794Z" fill="#FFD250"/>
<path d="M8.68958 5.79308V18.2069C8.68958 18.4354 8.87487 18.6207 9.10339 18.6207H22.3448C22.5733 18.6207 22.7586 18.4354 22.7586 18.2069V5.79308C22.7586 5.56457 22.5733 5.37927 22.3448 5.37927H9.10339C8.87487 5.37932 8.68958 5.56457 8.68958 5.79308Z" fill="#963C3C"/>
<path d="M4.34483 5.37933H1.65514C1.42663 5.37933 1.24133 5.56463 1.24133 5.79315V18.2069C1.24133 18.4354 1.42663 18.6207 1.65514 18.6207H4.34483V5.37933Z" fill="#5AA587"/>
<path d="M7.03448 5.37933H4.34485V18.6207H7.03448C7.263 18.6207 7.4483 18.4354 7.4483 18.2069V5.7931C7.4483 5.56458 7.263 5.37933 7.03448 5.37933Z" fill="#FF7350"/>
<path d="M18.4477 15.3157C18.4339 15.2232 18.5153 15.1037 18.6411 14.9321C18.6866 14.8701 18.7524 14.7803 18.7701 14.7372C18.7584 14.7364 18.7423 14.7373 18.7303 14.7379C18.6606 14.7413 18.5553 14.7461 18.4633 14.644C18.4273 14.6039 18.41 14.5539 18.4133 14.4992C18.4202 14.388 18.511 14.2788 18.5673 14.221C18.4221 14.119 18.2834 14.0131 18.1555 13.8852C17.9111 13.6408 17.6323 13.5231 17.3245 13.5295C17.296 13.8357 17.4538 14.037 17.6222 14.2489C17.6718 14.3113 17.7213 14.3736 17.7662 14.4387C17.9877 14.7594 17.9414 15.3785 17.9133 15.4441C17.8815 15.5185 17.7064 15.6833 17.4661 15.6512C17.3556 15.6366 17.2285 15.6738 17.1483 15.7438C17.1139 15.774 17.0728 15.8241 17.0728 15.8913C17.0728 15.8947 17.073 15.9117 17.0783 15.9149C17.1106 15.9344 17.2312 15.8963 17.3174 15.8497C17.3413 15.8367 17.3709 15.8405 17.3909 15.8592C17.5608 16.0182 17.7313 15.8808 17.75 15.8646C17.7733 15.8447 17.8077 15.844 17.8314 15.8631C18.0052 16.0032 18.1864 15.8501 18.194 15.8435C18.2154 15.8251 18.2466 15.8229 18.2704 15.8384C18.3458 15.8878 18.4147 15.9019 18.4763 15.8808C18.53 15.8622 18.5585 15.8218 18.5618 15.812C18.5634 15.7863 18.5289 15.6538 18.506 15.5661C18.482 15.474 18.4573 15.3788 18.4477 15.3157Z" fill="#FFD250"/>
<path d="M20.3301 9.45305C20.2777 9.44906 20.2398 9.46041 20.2139 9.4861C20.1663 9.53311 20.1702 9.61781 20.1703 9.61866C20.1712 9.6375 20.1638 9.65588 20.1501 9.66872C20.1362 9.68152 20.1176 9.68808 20.0987 9.68531C20.0046 9.67299 19.8654 9.57366 19.6071 9.38433C19.1967 9.08353 18.5765 8.62894 17.9847 8.55418C17.2969 8.4668 16.6847 8.68622 16.5292 9.0751C16.3561 9.50803 16.7241 9.90249 16.7278 9.90647C16.7465 9.9263 16.7506 9.95588 16.7378 9.97992C16.6408 10.1627 16.7143 10.2976 16.7805 10.3716C16.8013 10.3105 16.8323 10.2689 16.875 10.2432C16.9783 10.1815 17.1131 10.2326 17.2995 10.3032C17.4097 10.3448 17.5345 10.392 17.6801 10.4277C18.0534 10.5192 18.5087 10.4377 18.9104 10.3657C19.0524 10.3402 19.1894 10.3158 19.3167 10.2996C19.6371 10.2587 19.9582 10.4007 20.0465 10.6233C20.0893 10.7311 20.1121 10.9474 19.7849 11.1855C19.1963 11.6136 16.5123 11.416 16.3542 11.4039C16.3507 11.4043 16.3472 11.4045 16.3398 11.4051C16.3985 11.471 16.4674 11.5352 16.4974 11.5432C16.5279 11.5514 16.5479 11.5808 16.544 11.6123C16.5401 11.6437 16.5136 11.6675 16.482 11.6679L16.207 11.6721L16.2323 11.9367C16.2342 11.9562 16.2269 11.9755 16.2126 11.9889C16.1983 12.0023 16.1785 12.008 16.1593 12.0054C16.1485 12.0036 15.9112 11.9657 15.7471 11.8745L15.4365 12.0704C15.4263 12.0768 15.4145 12.0801 15.4027 12.0801C15.3958 12.0801 15.3888 12.079 15.3823 12.0767C15.3641 12.0705 15.3497 12.0565 15.3431 12.0385L15.2246 11.7164L15.0841 11.9974C15.0739 12.018 15.0533 12.0314 15.0305 12.0324C15.0076 12.0348 14.9859 12.0223 14.9736 12.0028L14.8532 11.8109C14.7981 11.8797 14.7098 11.9798 14.6195 12.0424C14.603 12.0539 14.5821 12.0568 14.5629 12.0503C14.5438 12.0438 14.529 12.0286 14.5229 12.0094L14.4598 11.8102C14.404 11.8808 14.3232 11.9744 14.2377 12.0446C14.2194 12.0598 14.1941 12.0633 14.1722 12.0537C14.1504 12.0442 14.1357 12.0233 14.1343 11.9996L14.1139 11.6794C14.0416 11.7163 13.9433 11.7643 13.8887 11.7813C13.8639 11.7891 13.8366 11.7808 13.8203 11.7604C13.804 11.74 13.8018 11.7118 13.8149 11.6891C13.9127 11.5192 14.0025 11.3071 14.0093 11.2016C13.9445 11.2793 13.8537 11.3536 13.7522 11.4362C13.5363 11.612 13.2676 11.8305 13.0699 12.2132C12.9318 12.4806 12.8326 12.9471 13.0075 13.382C13.1568 13.753 13.4781 14.0299 13.9594 14.2077C13.9433 14.1375 13.931 14.0685 13.9297 14.0037C13.9234 13.6742 13.9918 13.3735 13.9948 13.3609C14.0026 13.3267 14.0366 13.3051 14.0708 13.3134C14.1049 13.3213 14.1262 13.3553 14.1183 13.3894C14.1177 13.3923 14.0506 13.688 14.0566 14.0012C14.0595 14.1546 14.1255 14.3437 14.1892 14.5266C14.2738 14.7698 14.3615 15.0213 14.3234 15.2329C14.2715 15.5205 13.9134 15.5934 13.581 15.5379C13.4865 15.522 13.4005 15.5454 13.3388 15.603C13.2761 15.6614 13.2439 15.7511 13.2528 15.8428C13.257 15.8859 13.2731 15.8946 13.2784 15.8976C13.3184 15.9192 13.4124 15.8898 13.4633 15.8632C13.4889 15.8497 13.5205 15.8553 13.5401 15.8772C13.6734 16.0265 13.853 15.8775 13.8605 15.871C13.8863 15.8493 13.9247 15.8512 13.9478 15.8759C13.9981 15.9295 14.0513 15.9561 14.1105 15.9575C14.2187 15.9641 14.3215 15.8676 14.3225 15.8668C14.3412 15.8486 14.3693 15.8439 14.3931 15.8547C14.6023 15.9504 14.712 15.8948 14.7165 15.8922C14.8981 15.7374 14.7932 15.3701 14.7921 15.3664C14.7871 15.3496 14.7893 15.3315 14.7982 15.3165C14.8071 15.3014 14.8217 15.2906 14.8388 15.2867C15.093 15.2284 15.2352 15.0652 15.3039 14.957C15.1783 14.9558 15.0784 14.9117 15.0196 14.8199C14.9249 14.6715 14.9704 14.4481 15.1356 14.2507C15.4182 13.9131 15.591 13.2296 15.565 12.9513C15.5618 12.9164 15.5875 12.8856 15.6224 12.8822C15.6563 12.8788 15.6881 12.9047 15.6914 12.9396C15.714 13.1834 15.6041 13.689 15.4035 14.0703C15.6577 14 15.8896 13.8971 16.1317 13.7866C16.3722 13.6769 16.6211 13.5634 16.9201 13.4697C17.4255 13.3115 17.8712 13.4211 18.2454 13.7955C18.4267 13.9769 18.6247 14.1096 18.8539 14.2635C18.9545 14.331 19.0593 14.4014 19.1679 14.4796C19.4625 14.6917 19.4573 14.8688 19.4518 15.0562C19.4502 15.1134 19.4483 15.1724 19.4548 15.2364C19.4852 15.5409 19.2431 15.589 19.1267 15.6121C19.1108 15.6153 19.0958 15.6182 19.0828 15.6215C19.0664 15.6256 19.0467 15.6296 19.025 15.634C18.9068 15.658 18.7282 15.6942 18.6844 15.8455C18.6764 15.8726 18.6795 15.882 18.6795 15.882C18.6982 15.8905 18.7949 15.8686 18.8719 15.8336C18.8883 15.8261 18.9068 15.826 18.9233 15.833C18.9397 15.84 18.9524 15.8538 18.9583 15.8706C18.9808 15.9365 19.0158 15.9477 19.0273 15.9515C19.1071 15.9764 19.2378 15.9029 19.2772 15.8749C19.3017 15.8576 19.3348 15.8594 19.3569 15.8797C19.4224 15.9396 19.4829 15.9658 19.5374 15.9585C19.6102 15.9484 19.6544 15.8798 19.6549 15.8791C19.6654 15.8622 19.6832 15.8511 19.7031 15.8493C19.7232 15.8482 19.7425 15.8553 19.7559 15.87C19.7561 15.8703 19.8116 15.9288 19.9251 15.9647C19.9996 15.988 20.0184 15.9611 20.0246 15.9522C20.056 15.9063 20.0447 15.7891 19.9834 15.7124C19.9029 15.6118 19.8656 15.4589 19.8883 15.3228C19.9091 15.1975 19.9767 15.0954 20.0835 15.0273C20.2793 14.9027 20.3241 14.7684 20.3115 14.7428C20.3079 14.741 20.2866 14.7382 20.2696 14.736C20.1823 14.7244 20.036 14.7051 19.8856 14.4274C19.7527 14.1823 19.8813 13.7942 20.0301 13.3447C20.1055 13.117 20.1835 12.8815 20.2316 12.6505C20.3647 12.0115 19.9463 11.5041 19.9421 11.4991C19.9205 11.4733 19.9227 11.4351 19.9473 11.412C20.2409 11.1365 20.3672 10.8811 20.3224 10.6529C20.2757 10.415 20.0453 10.2486 19.8622 10.1785C19.634 10.091 19.2177 10.1407 18.8149 10.1886C18.4783 10.2286 18.1602 10.2665 17.9549 10.2236C17.8491 10.2014 17.7716 10.1513 17.7246 10.0746C17.6858 10.0114 17.6764 9.94219 17.6767 9.88819C17.5747 9.92653 17.5058 10.021 17.505 10.0222C17.4934 10.0385 17.4746 10.0483 17.4546 10.0487C17.4296 10.0477 17.4154 10.04 17.4032 10.0242C17.3513 9.95709 17.3304 9.88313 17.3414 9.80414C17.3553 9.70205 17.4212 9.61425 17.4752 9.55763C17.2391 9.4747 17.0581 9.67261 17.0498 9.68203C17.0292 9.70491 16.9952 9.70974 16.9691 9.69403C16.8552 9.624 16.7846 9.48656 16.7891 9.34392C16.7934 9.20925 16.8629 9.09633 16.9796 9.03431C17.0596 8.99185 17.1364 8.98402 17.2076 9.01088C17.2753 9.03638 17.3227 9.08907 17.3527 9.13378C17.439 9.03525 17.4463 8.86519 17.4463 8.86322C17.4468 8.84621 17.454 8.83013 17.4665 8.81855C17.4789 8.80697 17.4961 8.79971 17.5124 8.80153C17.6626 8.80772 17.7793 8.862 17.8589 8.96274C17.9679 9.1006 17.9781 9.29203 17.9717 9.41058C18.2117 9.2881 18.1813 9.00539 18.1797 8.99217C18.1772 8.97033 18.186 8.94881 18.2031 8.93513C18.2202 8.92153 18.243 8.91727 18.2639 8.92491C18.5185 9.01477 18.6112 9.24183 18.633 9.41081C18.7051 9.342 18.7062 9.25374 18.7062 9.25261C18.7062 9.22364 18.7258 9.19833 18.7539 9.19116C18.7822 9.18408 18.8114 9.19678 18.8253 9.22219C18.9235 9.40172 19.0733 9.51352 19.1829 9.576L19.1074 9.39305C19.0972 9.36825 19.1036 9.3397 19.1235 9.32175C19.1435 9.30375 19.1726 9.30028 19.1961 9.31303C19.3217 9.38067 19.4212 9.45722 19.5266 9.53836C19.6536 9.63619 19.785 9.73725 19.9701 9.8242C20.1508 9.90919 20.2726 9.89302 20.3428 9.86461C20.4154 9.83527 20.4569 9.78352 20.4704 9.74808C20.4959 9.68109 20.5034 9.58491 20.4624 9.52111C20.4361 9.47991 20.3916 9.45713 20.3301 9.45305Z" fill="#FFD250"/>
<path d="M12.8414 10.3651C12.8416 10.3651 12.8416 10.3652 12.8416 10.3652C12.842 10.3653 12.8421 10.3653 12.8423 10.3653C12.847 10.3669 13.3213 10.5165 13.7518 10.5422C13.7755 10.5436 13.7964 10.5581 13.806 10.5798C13.8155 10.6015 13.8124 10.6268 13.7975 10.6452L13.7825 10.6639C13.8679 10.6512 13.9753 10.6393 14.0807 10.6389C14.0375 10.5875 13.9838 10.5222 13.9287 10.4537C13.8135 10.4516 13.3921 10.4332 13.0492 10.268C12.9659 10.2276 12.8219 10.1578 12.7534 10.1931C12.7416 10.1992 12.7221 10.2278 12.7253 10.2629C12.7296 10.3075 12.7707 10.3438 12.8414 10.3651Z" fill="#FFD250"/>
<path d="M14.2704 9.4483C14.2638 9.4483 14.2578 9.44901 14.2525 9.45065C14.2249 9.45894 14.2109 9.49021 14.2071 9.51458C14.2025 9.5458 14.2104 9.58776 14.2467 9.61199C14.294 9.64344 14.3446 9.62193 14.3735 9.59347C14.3826 9.58462 14.4261 9.53807 14.394 9.48716L14.3939 9.48702C14.3443 9.46419 14.3009 9.4483 14.2704 9.4483Z" fill="#FFD250"/>
<path d="M13.648 10.9775C13.6787 11.0507 13.7264 11.1075 13.7658 11.1455C13.7807 11.1131 13.8036 11.0795 13.8382 11.0543C13.872 11.0297 13.9307 11.0056 14.0167 11.0235C14.018 11.0236 14.0192 11.0239 14.0205 11.024C14.023 11.0246 14.0249 11.0244 14.0275 11.025C14.0297 11.0255 14.0311 11.0273 14.0333 11.0279C14.0363 11.029 14.0396 11.0291 14.0425 11.0307C14.0447 11.0319 14.046 11.0339 14.048 11.0353C14.0804 11.0491 14.1074 11.0712 14.1217 11.1047C14.1697 11.2168 14.0851 11.4345 14.0105 11.5894C14.0632 11.5632 14.1137 11.5368 14.141 11.5222C14.16 11.512 14.183 11.5121 14.2018 11.5227C14.2207 11.5332 14.2329 11.5526 14.2343 11.5741L14.2522 11.8571C14.3514 11.7525 14.4295 11.6389 14.4305 11.6374C14.4442 11.6174 14.4679 11.6073 14.4921 11.6105C14.5161 11.6141 14.536 11.631 14.5433 11.6541L14.6157 11.8826C14.717 11.7895 14.8052 11.6647 14.8063 11.6631C14.8186 11.6458 14.8386 11.6366 14.8598 11.6362C14.881 11.6367 14.9006 11.6479 14.9119 11.6659L15.021 11.8399L15.1767 11.5286C15.188 11.5059 15.2093 11.4916 15.237 11.4935C15.2623 11.4949 15.2842 11.5112 15.293 11.535L15.435 11.9213L15.7123 11.7464C15.7333 11.733 15.7599 11.7334 15.7809 11.747C15.8713 11.8062 16.0102 11.8444 16.0978 11.8641L16.0741 11.6158C16.0725 11.5981 16.0783 11.5806 16.0901 11.5675C16.1019 11.5543 16.1186 11.5466 16.1363 11.5463L16.295 11.5439C16.2568 11.5053 16.2253 11.4679 16.2098 11.449C16.1995 11.4364 16.1954 11.421 16.1961 11.4059C16.0792 11.401 15.9164 11.3801 15.7535 11.3098L15.6566 11.4593C15.6473 11.4736 15.6328 11.4835 15.6162 11.4868C15.612 11.4878 15.6077 11.4882 15.6035 11.4882C15.591 11.4882 15.5787 11.4845 15.5681 11.4774L15.2017 11.2316L15.1344 11.4149C15.1267 11.4359 15.1084 11.4513 15.0864 11.4553C15.0644 11.4596 15.0419 11.4515 15.0271 11.4347C14.9641 11.3625 14.8653 11.2519 14.8065 11.1911C14.7535 11.2422 14.6606 11.3246 14.5613 11.3797C14.5451 11.3887 14.5258 11.3901 14.5085 11.3837C14.4912 11.3773 14.4775 11.3637 14.471 11.3464L14.3706 11.0768C14.3584 11.044 14.375 11.0074 14.4079 10.9952C14.4406 10.983 14.4773 10.9998 14.4895 11.0325L14.5627 11.2292C14.6691 11.1553 14.7577 11.0603 14.7588 11.0591C14.7815 11.0347 14.8191 11.0318 14.8449 11.0526C14.8819 11.0822 14.9821 11.1926 15.0521 11.2711L15.1105 11.112C15.1171 11.0937 15.1319 11.0795 15.1505 11.0736C15.1688 11.0673 15.1892 11.0703 15.2054 11.0812L15.5853 11.3361L15.6772 11.1946C15.6949 11.1673 15.7302 11.1578 15.7587 11.1724C15.9274 11.2567 16.1094 11.2771 16.2257 11.2802C16.1548 11.1476 16.1485 10.9796 16.1481 10.9402C16.0531 10.8983 15.9365 10.835 15.819 10.7385L15.7734 10.8513C15.766 10.8693 15.7508 10.883 15.732 10.8884C15.7133 10.8936 15.693 10.8902 15.6773 10.8788L15.4941 10.7458L15.4762 10.8832C15.4734 10.9045 15.4601 10.9229 15.4407 10.9322C15.4214 10.9414 15.3987 10.9405 15.3803 10.9292C15.3739 10.9254 15.2231 10.8333 15.1333 10.7321C15.11 10.706 15.1124 10.6659 15.1386 10.6426C15.1644 10.6193 15.2046 10.6216 15.2281 10.6479C15.2661 10.6906 15.3193 10.733 15.3636 10.7652L15.382 10.6237C15.3849 10.6015 15.3993 10.5825 15.4199 10.5737C15.4405 10.5648 15.4642 10.5675 15.4822 10.5806L15.6862 10.7285L15.7351 10.608C15.743 10.5887 15.7599 10.5744 15.7804 10.57C15.8007 10.5656 15.8222 10.5714 15.8374 10.5858C15.9955 10.7346 16.1667 10.8149 16.2731 10.8544C16.2367 10.685 16.2229 10.4727 16.2222 10.4615C16.2221 10.4599 16.2228 10.4586 16.2228 10.457C16.1239 10.4025 15.9842 10.3086 15.8634 10.161C15.8628 10.2392 15.8564 10.3188 15.8373 10.369C15.8307 10.3864 15.8169 10.3999 15.7994 10.4062C15.7819 10.4122 15.7626 10.4106 15.7467 10.4016C15.7391 10.3972 15.601 10.318 15.4983 10.2022C15.4806 10.266 15.4592 10.3332 15.4413 10.3632C15.4241 10.3916 15.3883 10.4021 15.3585 10.3873C15.3524 10.3843 15.2552 10.3351 15.1686 10.2598C15.1602 10.3443 15.1471 10.4397 15.1286 10.4862C15.1219 10.5031 15.1082 10.5162 15.0912 10.5224C15.0741 10.5282 15.0552 10.5269 15.0393 10.5184C15.0335 10.5152 14.9234 10.4548 14.8206 10.3783L14.7928 10.4841C14.7879 10.5022 14.7755 10.5173 14.7586 10.5253C14.7416 10.5332 14.7222 10.5334 14.7051 10.5257C14.6975 10.5222 14.5161 10.4388 14.4128 10.3126C14.3906 10.2855 14.3945 10.2455 14.4217 10.2234C14.4487 10.2012 14.4888 10.2051 14.5109 10.2323C14.5603 10.2927 14.6358 10.3431 14.6903 10.3747L14.7229 10.2511C14.7285 10.2297 14.7449 10.2127 14.7662 10.2064C14.7873 10.1998 14.8103 10.2054 14.8268 10.2203C14.8874 10.2751 14.9694 10.3291 15.0277 10.3648C15.0402 10.2865 15.0498 10.1733 15.0539 10.0999C15.0555 10.0715 15.0757 10.0477 15.1034 10.0415C15.1313 10.0353 15.1595 10.0483 15.173 10.0732C15.2078 10.1374 15.2916 10.2 15.3548 10.2395C15.3722 10.1853 15.3936 10.1052 15.4096 10.0362C15.4158 10.0097 15.4381 9.99012 15.4652 9.98749C15.4923 9.98412 15.5181 9.99964 15.5292 10.0245C15.5688 10.1123 15.6648 10.1925 15.7334 10.2417C15.7408 10.1492 15.7339 10.0177 15.7254 9.93551C15.7223 9.90495 15.7415 9.87654 15.7709 9.86801C15.8011 9.85985 15.8319 9.87345 15.8454 9.90092C15.973 10.1597 16.1986 10.3031 16.316 10.3633C16.38 9.66331 16.1748 9.39546 16.1726 9.39275C16.1611 9.37831 16.1563 9.35937 16.1597 9.34123C16.1632 9.32314 16.1742 9.3072 16.1901 9.29792C16.3041 9.23196 16.3732 9.1115 16.4157 8.99459C16.1578 9.24462 15.7491 9.34067 15.5501 9.3739L15.6473 9.49236C15.6621 9.51045 15.6658 9.53525 15.6569 9.55685C15.6479 9.57846 15.6278 9.59337 15.6045 9.59567C15.3606 9.62004 15.1826 9.58775 15.0628 9.54734L15.1043 9.62389C15.1152 9.64395 15.1144 9.66842 15.1023 9.68773C15.0903 9.70714 15.0681 9.72021 15.0458 9.71745C14.8471 9.70896 14.6733 9.62707 14.5304 9.55475C14.5236 9.60139 14.5006 9.64681 14.4623 9.68426C14.4154 9.73006 14.3557 9.75373 14.2965 9.75373C14.2546 9.75373 14.213 9.74182 14.1765 9.71745C14.1048 9.66959 14.0685 9.5846 14.0819 9.49573C14.0942 9.41407 14.1457 9.35023 14.2164 9.32909C14.3109 9.30101 14.4189 9.35567 14.5554 9.42523C14.6638 9.48045 14.793 9.54621 14.9339 9.5757L14.8554 9.43067C14.8408 9.40367 14.8476 9.37015 14.8715 9.35089C14.8956 9.33195 14.9296 9.33246 14.9529 9.35267C14.9543 9.35389 15.1122 9.48359 15.4705 9.47689L15.3801 9.36673C15.3652 9.34864 15.3616 9.3237 15.3706 9.30209C15.3797 9.28048 15.3999 9.26557 15.4233 9.26337C15.4301 9.26276 15.9507 9.20993 16.2709 8.95189C16.1666 8.9824 16.0859 8.97757 16.0797 8.97748C16.0621 8.97607 16.0459 8.9675 16.035 8.95367C15.8883 8.76931 15.7381 8.71231 15.6624 8.69468C15.6199 8.82865 15.517 8.93708 15.512 8.94228C15.4984 8.95639 15.4789 8.96332 15.4596 8.9614C15.4401 8.95934 15.4227 8.94842 15.4123 8.93178C15.2991 8.74939 15.136 8.70143 15.0412 8.68958C15.0528 8.82439 14.9586 8.93511 14.8959 8.98118C14.8715 8.99886 14.8382 8.99726 14.816 8.97739C14.5438 8.73406 14.3336 8.80606 14.2485 8.85467C14.2754 8.92137 14.2627 8.97589 14.2446 9.01273C14.1146 9.27612 13.3105 9.32909 13.1506 9.33701C13.1308 9.33842 13.1109 9.32937 13.0981 9.31357C13.0853 9.29778 13.081 9.27692 13.0861 9.25737C13.0979 9.2135 13.09 9.1662 13.0642 9.12392C13.0377 9.08075 12.9953 9.04929 12.9509 9.03978C12.9091 9.03092 12.8294 9.03664 12.7817 9.0889C12.7272 9.14886 12.7235 9.25971 12.7709 9.40957C12.8561 9.67859 13.1183 9.94362 13.2816 10.0889C13.2801 10.0554 13.2811 10.0308 13.2815 10.0247C13.2829 9.99757 13.3013 9.97437 13.3274 9.96696C13.3536 9.95932 13.3814 9.96935 13.3969 9.99162C13.451 10.0693 13.5155 10.1218 13.5639 10.154L13.5958 9.95107C13.6002 9.92299 13.6228 9.90124 13.651 9.89792C13.6791 9.89553 13.7062 9.91048 13.717 9.93682C13.7745 10.0764 14.1383 10.5134 14.2737 10.67C14.291 10.69 14.2941 10.7186 14.2813 10.7419C14.2686 10.765 14.2429 10.7775 14.2167 10.7743C13.9848 10.7412 13.6442 10.8184 13.6409 10.8191C13.6146 10.8252 13.5873 10.8139 13.5729 10.7911C13.5586 10.7682 13.5603 10.7388 13.5772 10.7176L13.6241 10.6592C13.3022 10.6257 12.9888 10.5411 12.8621 10.5041L12.7557 10.7933L13.0425 10.7647C13.0642 10.762 13.0864 10.772 13.0996 10.7899C13.113 10.8077 13.1159 10.8311 13.1075 10.8518L13.0534 10.984L13.2897 10.9215C13.321 10.9128 13.3531 10.9295 13.365 10.9594C13.3963 11.0388 13.4347 11.0908 13.4654 11.1231L13.5319 10.976C13.5424 10.953 13.5653 10.937 13.5906 10.9388C13.6156 10.9389 13.6382 10.9541 13.648 10.9775Z" fill="#FFD250"/>
<path d="M12.8265 14.2211C13.0767 14.3881 13.2789 14.1975 13.387 14.0508C13.1565 13.8826 12.9887 13.6758 12.8896 13.4294C12.8572 13.349 12.8362 13.2676 12.8197 13.1864C12.7962 13.1679 12.4481 12.8922 12.1566 12.5699C12.1417 12.6088 12.1222 12.6396 12.1063 12.6605C12.1268 12.7438 12.1069 12.8118 12.0813 12.8554C12.0989 12.9148 12.0847 12.9737 12.0641 13.0167C12.1083 13.0833 12.1163 13.1484 12.088 13.2111C12.0815 13.2254 12.0728 13.2386 12.0637 13.2516C12.1 13.2954 12.157 13.3956 12.157 13.5973C12.157 13.7329 12.2073 13.8142 12.2448 13.8561C12.2666 13.8371 12.2906 13.8265 12.3169 13.8237C12.397 13.8148 12.4627 13.8832 12.5525 13.9776C12.6229 14.0516 12.7104 14.1437 12.8265 14.2211Z" fill="#FFD250"/>
<path d="M11.5821 12.5014C11.5775 12.5014 11.5727 12.5014 11.568 12.5014C11.4768 12.5005 11.3934 12.4914 11.3166 12.4766C11.3092 12.4978 11.3249 12.5594 11.3414 12.5721C11.3576 12.5845 11.3684 12.605 11.3678 12.6254C11.3673 12.6458 11.3585 12.6657 11.3417 12.6772C11.3308 12.6848 11.2986 12.7136 11.2982 12.7416C11.2978 12.769 11.3301 12.7973 11.3494 12.8118C11.3635 12.8224 11.3726 12.8384 11.3744 12.8559C11.3763 12.8735 11.3707 12.891 11.3591 12.9043C11.3509 12.914 11.3276 12.9493 11.3316 12.9789C11.3325 12.9852 11.3351 13.0044 11.3682 13.0268C11.3825 13.0365 11.3922 13.0518 11.3951 13.0689C11.3979 13.086 11.3936 13.1035 11.3832 13.1173C11.3833 13.1173 11.3655 13.1433 11.3723 13.1692C11.3799 13.1979 11.4156 13.2199 11.4441 13.2333C11.4975 13.2584 11.5743 13.2746 11.6544 13.2777C11.6569 13.2773 11.6593 13.2777 11.6618 13.2776C11.7293 13.2796 11.7987 13.273 11.8579 13.2512C11.9159 13.2297 11.9545 13.1987 11.9724 13.1589C11.978 13.1464 11.9897 13.1207 11.9398 13.0624C11.9203 13.0396 11.9194 13.0064 11.9376 12.9825C11.9377 12.9824 11.98 12.9242 11.9539 12.8778C11.9399 12.8529 11.9442 12.8219 11.9643 12.8018C11.968 12.7977 12.0074 12.7513 11.9762 12.6681C11.9672 12.6442 11.9735 12.6172 11.9922 12.5996C11.9945 12.5974 12.0518 12.5376 12.0506 12.4468C12.0428 12.4374 12.035 12.4279 12.0275 12.4183C11.9046 12.4704 11.7541 12.5014 11.5821 12.5014Z" fill="#FFD250"/>
<path d="M12.1623 8.08008C11.9058 8.21803 11.3588 8.65055 11.343 9.83461L11.3571 11.83C11.3588 11.8328 11.3613 11.8356 11.3627 11.8384C11.3958 11.9008 11.3801 11.9818 11.3615 12.0378C11.52 12.0944 11.7176 12.0712 11.8023 12.0502C11.7854 12.0008 11.7721 11.9209 11.8294 11.8304C11.8205 9.45084 12.0474 8.43853 12.1623 8.08008Z" fill="#FFD250"/>
<path d="M12.1887 12.0785C12.1887 11.977 12.1122 11.8981 12.0366 11.8725C12.021 11.8671 11.9676 11.8523 11.9431 11.8844C11.8973 11.9444 11.9135 11.9867 11.9291 12.0278C11.9379 12.0506 11.9469 12.0742 11.9401 12.1011C11.9315 12.1354 11.9002 12.1495 11.8899 12.1542C11.8038 12.1933 11.4766 12.2445 11.2505 12.1278C11.2199 12.1119 11.2074 12.0744 11.2226 12.0434C11.2465 11.9945 11.2638 11.9227 11.2506 11.8978C11.2495 11.8957 11.2465 11.89 11.2287 11.8877C11.2118 11.8853 11.195 11.8842 11.1784 11.8842C11.1012 11.8842 11.0296 11.9085 10.9908 11.9499C10.9597 11.9833 10.95 12.0257 10.9611 12.0796C10.9987 12.2611 11.226 12.3713 11.5691 12.3744C11.8119 12.3736 12.0206 12.3163 12.1248 12.213C12.1673 12.171 12.1887 12.1258 12.1887 12.0785Z" fill="#FFD250"/>
<path d="M11.6428 13.5835C11.6575 13.5641 11.6817 13.5548 11.7056 13.5598C11.7497 13.569 11.8593 13.5923 11.9222 13.5435C11.9442 13.5266 11.9492 13.4806 11.9323 13.4506C11.9265 13.4403 11.9089 13.4091 11.8428 13.4345C11.7803 13.4586 11.6905 13.4847 11.6342 13.4339C11.6229 13.4238 11.6157 13.412 11.6103 13.3998C11.5933 13.3984 11.5765 13.3974 11.5598 13.3949C11.5544 13.4089 11.547 13.4225 11.5342 13.4339C11.4781 13.4846 11.3882 13.4586 11.3256 13.4345C11.2598 13.4094 11.2419 13.4403 11.2362 13.4506C11.2193 13.4806 11.2242 13.5266 11.2461 13.5433C11.3091 13.5919 11.4188 13.5689 11.4548 13.5614C11.4782 13.5567 11.5068 13.5647 11.5218 13.5839C11.5367 13.6033 11.5429 13.6285 11.532 13.6502C11.5177 13.6788 11.4556 13.8002 11.3949 13.8761C11.4742 13.992 11.5429 14.1987 11.382 14.3826C11.3689 14.3975 11.3485 14.4049 11.3296 14.4041C11.3097 14.4026 11.2916 14.3919 11.281 14.3751C11.2718 14.3612 11.2396 14.3227 11.204 14.3158C11.1932 14.3137 11.1763 14.3129 11.1517 14.3297C11.1351 14.3412 11.1258 14.3791 11.1398 14.4207C11.1648 14.4951 11.2426 14.5363 11.3523 14.5312C11.3773 14.5287 11.4043 14.5459 11.4144 14.5711C11.4243 14.5963 11.4173 14.625 11.3967 14.6427L11.2933 14.7313L11.4621 14.7725C11.4845 14.7779 11.5022 14.7951 11.5083 14.8173C11.5086 14.8184 11.5338 14.9083 11.5843 14.9842C11.6347 14.9083 11.6599 14.8184 11.6602 14.8173C11.6663 14.7951 11.684 14.7779 11.7063 14.7725L11.8752 14.7313L11.7717 14.6427C11.7511 14.6251 11.744 14.5963 11.754 14.5711C11.764 14.5459 11.7892 14.529 11.816 14.5312C11.9245 14.536 12.0036 14.4951 12.0287 14.4206C12.0427 14.3791 12.0334 14.3412 12.0168 14.3297C11.9919 14.3128 11.9747 14.3136 11.9641 14.3158C11.9273 14.3233 11.8943 14.3645 11.8875 14.3751C11.8767 14.3918 11.8586 14.4026 11.8389 14.404C11.8183 14.4051 11.7994 14.3976 11.7864 14.3826C11.6256 14.1987 11.6943 13.992 11.7736 13.876C11.7129 13.8002 11.6508 13.6788 11.6365 13.6502C11.6256 13.6287 11.6281 13.6027 11.6428 13.5835Z" fill="#FFD250"/>
<path d="M20.569 9.45232C20.5351 9.39954 20.4675 9.33494 20.3381 9.32651C20.2482 9.32004 20.1761 9.34422 20.1236 9.39668C20.0814 9.43872 20.0611 9.4908 20.0514 9.53482C19.9649 9.4893 19.8264 9.38787 19.6819 9.28193C19.2609 8.9734 18.6248 8.50713 18.0003 8.42815C17.4939 8.36379 16.9179 8.4648 16.6011 8.75871C16.6059 8.71985 16.6073 8.69383 16.6075 8.68938C16.6075 8.68854 16.6068 8.68793 16.6068 8.68704C16.6069 8.67518 16.6037 8.66412 16.5977 8.65423C16.5963 8.65212 16.595 8.65052 16.5934 8.64855C16.5864 8.63941 16.5776 8.63154 16.566 8.62723C16.5658 8.62713 16.5656 8.62685 16.5654 8.6268H16.5652C16.5533 8.62263 16.5412 8.62329 16.5297 8.62601C16.5275 8.62652 16.5256 8.6269 16.5234 8.6276C16.5124 8.63149 16.5026 8.63801 16.4951 8.64738C16.4946 8.64799 16.4937 8.64804 16.4933 8.64869C16.3617 8.82532 16.1812 8.84857 16.1146 8.85077C15.8771 8.56873 15.6261 8.55996 15.6152 8.55973C15.5789 8.56212 15.5558 8.58227 15.5511 8.61382C15.5411 8.6808 15.5022 8.74713 15.4692 8.79316C15.2599 8.53296 14.9653 8.55902 14.9522 8.5601C14.9318 8.56207 14.9137 8.57379 14.9035 8.59155C14.8933 8.60923 14.8922 8.63074 14.9007 8.64944C14.9385 8.73251 14.8927 8.80488 14.8562 8.8451C14.4441 8.51491 14.1271 8.78393 14.1237 8.78688C14.0995 8.80807 14.095 8.84416 14.1133 8.8706C14.144 8.91513 14.1386 8.93969 14.1304 8.95629C14.0638 9.09138 13.5801 9.17951 13.2179 9.20538C13.216 9.15443 13.2005 9.10371 13.1721 9.05721C13.1271 8.98385 13.0561 8.93219 12.9772 8.91523C12.8895 8.89615 12.7661 8.9163 12.6875 9.00312C12.5996 9.09973 12.587 9.24921 12.6498 9.44744C12.7478 9.75715 13.0422 10.0485 13.2139 10.1985C13.1721 10.183 13.1306 10.1661 13.0904 10.1468C12.9894 10.0976 12.8201 10.0152 12.695 10.0803C12.6319 10.1129 12.5915 10.1946 12.5989 10.2744C12.6026 10.3144 12.625 10.4043 12.742 10.4616L12.6012 10.8441C12.5937 10.8646 12.5972 10.8876 12.6106 10.9048C12.6239 10.9221 12.6452 10.9315 12.667 10.9291L12.9498 10.9009L12.8875 11.0534C12.8784 11.0757 12.8826 11.1013 12.8985 11.1193C12.9144 11.1373 12.9385 11.1453 12.9625 11.1387L13.2694 11.0575C13.3488 11.2203 13.4545 11.2773 13.4595 11.2799C13.4751 11.2882 13.4931 11.2894 13.5095 11.2837C13.526 11.278 13.5395 11.2658 13.5467 11.2499L13.5956 11.1416C13.6463 11.2126 13.7011 11.2596 13.735 11.2856C13.7144 11.3027 13.694 11.3194 13.6717 11.3376C13.4585 11.5111 13.1666 11.7487 12.9568 12.1548C12.8515 12.3588 12.7694 12.67 12.7939 13.0009C12.6411 12.8725 12.353 12.6177 12.1409 12.3569C12.1664 12.3395 12.1936 12.323 12.2141 12.3028C12.2804 12.2372 12.3154 12.1594 12.3154 12.0782C12.3154 11.9095 12.1919 11.7909 12.0771 11.752C12.0344 11.7377 11.9933 11.7355 11.9559 11.7419C11.9522 8.97724 12.2671 8.13087 12.331 7.98832C12.3411 7.96577 12.3372 7.93934 12.3209 7.92068C12.3048 7.90212 12.279 7.89457 12.2553 7.90156C12.2138 7.91374 11.2375 8.21871 11.216 9.83402L11.2296 11.7611C11.0971 11.7472 10.9713 11.7849 10.898 11.8631C10.8564 11.9076 10.812 11.9857 10.8367 12.1053C10.8695 12.2638 10.9975 12.3809 11.1938 12.4452C11.1884 12.466 11.1866 12.4895 11.1892 12.5159C11.1922 12.5469 11.2019 12.5852 11.2198 12.6184C11.1958 12.647 11.1723 12.6878 11.1711 12.7381C11.17 12.7866 11.1892 12.8321 11.2286 12.8738C11.213 12.9051 11.1995 12.9474 11.2054 12.9943C11.2091 13.0223 11.2208 13.0593 11.2539 13.0952C11.2446 13.1229 11.2388 13.159 11.2488 13.1988C11.259 13.24 11.2845 13.2753 11.3224 13.3055C11.2253 13.2875 11.1571 13.3313 11.1251 13.3883C11.0771 13.4739 11.0966 13.5885 11.1685 13.6438C11.227 13.6888 11.2966 13.7032 11.36 13.6998C11.3277 13.7545 11.2936 13.805 11.2721 13.8218C11.2582 13.8326 11.2493 13.8488 11.2479 13.8663C11.2463 13.8839 11.2522 13.9014 11.264 13.9145C11.2706 13.9218 11.409 14.0777 11.3266 14.2396C11.3012 14.2187 11.2682 14.1992 11.229 14.1912C11.1781 14.1808 11.1265 14.1926 11.0796 14.2248C11.0126 14.2707 10.9877 14.3678 11.0191 14.4608C11.0432 14.5321 11.1031 14.6052 11.2054 14.6389L11.1164 14.7152C11.0983 14.7307 11.0905 14.755 11.096 14.7782C11.1016 14.8013 11.1196 14.8194 11.1427 14.825L11.3972 14.887C11.4167 14.9429 11.4612 15.0509 11.5357 15.1254C11.5476 15.1373 11.5702 15.1439 11.5871 15.1439C11.604 15.1439 11.6201 15.1373 11.632 15.1254C11.7064 15.0509 11.7511 14.9429 11.7705 14.887L12.025 14.825C12.0481 14.8194 12.0661 14.8013 12.0716 14.7782C12.0772 14.7549 12.0693 14.7307 12.0513 14.7152L11.9622 14.6389C12.0645 14.6051 12.1246 14.5321 12.1486 14.4608C12.18 14.3677 12.1551 14.2706 12.0881 14.2248C12.0411 14.1925 11.9892 14.1809 11.9386 14.1912C11.8995 14.1991 11.8666 14.2186 11.8411 14.2395C11.7601 14.0785 11.8972 13.9216 11.9039 13.9143C11.9156 13.9012 11.9214 13.8837 11.9198 13.8662C11.9183 13.8487 11.9095 13.8326 11.8956 13.8218C11.8742 13.8051 11.8402 13.7547 11.8079 13.7C11.8713 13.7006 11.9405 13.6891 11.9993 13.6437C12.0122 13.6338 12.0213 13.6202 12.0308 13.607C12.0353 13.8854 12.2117 13.9956 12.2193 14.0002C12.2494 14.0181 12.288 14.0087 12.3061 13.9788C12.321 13.9544 12.3299 13.9497 12.3297 13.9495C12.352 13.9507 12.4146 14.0166 12.4604 14.0646C12.535 14.1431 12.628 14.241 12.7559 14.3262C12.8496 14.3887 12.9382 14.4133 13.0195 14.4133C13.2479 14.4133 13.419 14.2206 13.492 14.1216C13.6342 14.2108 13.7954 14.2883 13.9793 14.3511C13.9855 14.3532 13.9919 14.3541 13.9982 14.3542C14.0202 14.4254 14.0441 14.4971 14.0689 14.5682C14.1482 14.7958 14.2303 15.0313 14.198 15.2101C14.1564 15.4418 13.7897 15.4442 13.6014 15.4125C13.4673 15.3906 13.3429 15.4249 13.2517 15.51C13.1604 15.5953 13.1134 15.7241 13.1261 15.8547C13.135 15.946 13.1807 15.9889 13.2176 16.0089C13.3023 16.0544 13.4167 16.0203 13.4789 15.9949C13.6218 16.1193 13.7926 16.0671 13.8959 16.0014C13.9595 16.0545 14.0304 16.0823 14.1071 16.084C14.1096 16.0841 14.1121 16.0841 14.1147 16.0841C14.2307 16.0841 14.3282 16.0231 14.377 15.9857C14.6227 16.0851 14.7632 16.011 14.7878 15.9958C14.9872 15.8275 14.9544 15.5251 14.9284 15.3936C15.3383 15.2695 15.4704 14.9132 15.4761 14.8974C15.484 14.8752 15.479 14.8504 15.4631 14.833C15.447 14.8157 15.4224 14.8088 15.3999 14.8148C15.2735 14.8487 15.1737 14.8256 15.1262 14.7512C15.0618 14.6506 15.1036 14.4859 15.2325 14.3319C15.2596 14.2995 15.2852 14.2637 15.3102 14.2265C15.627 14.1557 15.8975 14.0325 16.184 13.9018C16.4211 13.7937 16.6663 13.6819 16.9578 13.5905C17.0395 13.5649 17.1189 13.5498 17.1972 13.5397C17.1735 13.8833 17.3498 14.1097 17.5229 14.3275C17.5707 14.3876 17.6185 14.4477 17.6618 14.5104C17.8474 14.7792 17.8118 15.3429 17.7968 15.3937C17.7836 15.4226 17.6592 15.5493 17.4828 15.5251C17.3363 15.5056 17.1723 15.5539 17.0648 15.648C16.9881 15.7151 16.9458 15.8015 16.9458 15.891C16.9458 15.9673 16.9825 16.0052 17.0133 16.0236C17.1052 16.0781 17.2572 16.0198 17.3387 15.9808C17.4148 16.0396 17.493 16.0613 17.5652 16.0613C17.6551 16.0613 17.7359 16.0278 17.7925 15.9907C17.9626 16.0981 18.1407 16.0352 18.24 15.9675C18.3644 16.035 18.4644 16.0217 18.5288 15.9963C18.5498 15.9881 18.5689 15.9777 18.5863 15.966C18.5889 15.9686 18.5912 15.9722 18.5939 15.9744C18.6614 16.0325 18.7862 16.0016 18.8662 15.9726C18.9025 16.0328 18.9506 16.0599 18.9886 16.072C19.1061 16.1094 19.241 16.0451 19.3088 16.0049C19.3912 16.0686 19.473 16.0953 19.5548 16.0839C19.6268 16.0739 19.6812 16.0351 19.7162 16.0012C19.7536 16.0281 19.8103 16.0612 19.8869 16.0854C19.9207 16.0961 19.9504 16.1004 19.9765 16.1004C20.0649 16.1004 20.111 16.0501 20.1291 16.0238C20.2025 15.9166 20.1642 15.7353 20.0823 15.6329C20.034 15.5725 19.9939 15.4595 20.0132 15.3434C20.0236 15.2814 20.0558 15.1949 20.1514 15.1341C20.3237 15.0245 20.4368 14.8761 20.4394 14.7561C20.4405 14.7066 20.4217 14.6657 20.3863 14.6409C20.355 14.6191 20.32 14.6144 20.2861 14.61C20.2106 14.6 20.1166 14.5876 19.997 14.3666C19.8904 14.1697 20.0166 13.7882 20.1504 13.3843C20.2269 13.1531 20.3061 12.9141 20.3557 12.6761C20.4784 12.0869 20.1826 11.6122 20.0754 11.4644C20.3733 11.1714 20.4983 10.8902 20.4468 10.6281C20.3902 10.3392 20.1209 10.1414 19.9076 10.0597C19.6497 9.96086 19.2176 10.0122 18.7998 10.0623C18.474 10.1013 18.1659 10.1383 17.9809 10.0991C17.9109 10.0845 17.8612 10.0541 17.8331 10.0087C17.7842 9.92983 17.8104 9.82615 17.8106 9.82507C17.8157 9.80566 17.8113 9.78476 17.7987 9.76915C17.7861 9.75354 17.7653 9.74355 17.7468 9.74547C17.6252 9.75035 17.5284 9.81808 17.4686 9.874C17.4651 9.85699 17.4646 9.83951 17.467 9.82141C17.4835 9.69949 17.6239 9.59294 17.6252 9.59191C17.642 9.5793 17.6516 9.5591 17.6506 9.53805C17.6496 9.51705 17.6382 9.49793 17.6202 9.48696C17.3619 9.3296 17.1206 9.44613 16.9972 9.55558C16.945 9.50449 16.9135 9.4263 16.916 9.3476C16.9175 9.2959 16.9358 9.20093 17.0391 9.14599C17.0859 9.1211 17.126 9.11566 17.1624 9.12907C17.2234 9.15176 17.2639 9.22666 17.2744 9.25371C17.281 9.27101 17.2951 9.2846 17.3126 9.29069C17.3301 9.29707 17.3496 9.29515 17.3656 9.28572C17.507 9.20322 17.5522 9.02993 17.5666 8.93379C17.6497 8.94733 17.7131 8.98263 17.7592 9.04076C17.8885 9.20379 17.8356 9.49094 17.8351 9.49385C17.831 9.51532 17.8382 9.53735 17.8542 9.55226C17.8701 9.56711 17.8927 9.57265 17.9138 9.56711C18.2009 9.49019 18.2927 9.25708 18.3069 9.08477C18.5264 9.22146 18.5115 9.50416 18.5106 9.51743C18.5092 9.53927 18.5191 9.56032 18.5368 9.57302C18.5545 9.58582 18.5775 9.58854 18.5977 9.58047C18.7028 9.53787 18.7609 9.46854 18.7931 9.40455C18.993 9.66658 19.2707 9.75752 19.2841 9.76188C19.3076 9.76905 19.3332 9.76254 19.35 9.74435C19.3666 9.72621 19.3714 9.70001 19.362 9.67722L19.2999 9.5269C19.3504 9.56247 19.399 9.59993 19.449 9.63841C19.5815 9.74032 19.7183 9.84574 19.9159 9.93855C20.138 10.0429 20.2962 10.0195 20.3902 9.98186C20.4839 9.94394 20.5582 9.87326 20.5889 9.79272C20.6247 9.69893 20.6382 9.56008 20.569 9.45232ZM20.4703 9.74782C20.4569 9.78325 20.4153 9.83501 20.3426 9.86435C20.2725 9.89276 20.1506 9.90893 19.9699 9.82394C19.7849 9.73699 19.6534 9.63588 19.5264 9.5381C19.4211 9.45701 19.3216 9.38046 19.196 9.31277C19.1725 9.30007 19.1434 9.30349 19.1234 9.32149C19.1034 9.3394 19.097 9.36799 19.1073 9.39279L19.1828 9.57574C19.0732 9.51321 18.9233 9.40146 18.8251 9.22193C18.8113 9.19648 18.7821 9.18377 18.7538 9.1909C18.7257 9.19807 18.706 9.22338 18.706 9.25235C18.706 9.25348 18.705 9.34179 18.6329 9.41055C18.611 9.24157 18.5184 9.01455 18.2638 8.92465C18.2429 8.91705 18.2201 8.92127 18.203 8.93487C18.1859 8.94855 18.1771 8.97016 18.1796 8.99191C18.1811 9.00508 18.2116 9.28783 17.9716 9.41032C17.9781 9.29182 17.9678 9.10033 17.8588 8.96248C17.7791 8.86169 17.6625 8.80746 17.5123 8.80127C17.496 8.79944 17.4788 8.80671 17.4663 8.81829C17.4539 8.82987 17.4467 8.84594 17.4462 8.86296C17.4462 8.86493 17.4389 9.03499 17.3525 9.13352C17.3226 9.08885 17.2751 9.03612 17.2074 9.01062C17.1363 8.98376 17.0595 8.99163 16.9795 9.03405C16.8627 9.09607 16.7932 9.20899 16.7889 9.34366C16.7845 9.4863 16.8551 9.62374 16.969 9.69377C16.9951 9.70957 17.029 9.70469 17.0497 9.68177C17.058 9.67235 17.239 9.47444 17.4751 9.55737C17.4211 9.61399 17.3552 9.70183 17.3412 9.80388C17.3303 9.88282 17.3512 9.95683 17.4031 10.0239C17.4152 10.0397 17.4294 10.0474 17.4545 10.0484C17.4744 10.0481 17.4932 10.0382 17.5049 10.0219C17.5057 10.0208 17.5746 9.92627 17.6766 9.88793C17.6761 9.94193 17.6857 10.0111 17.7244 10.0743C17.7714 10.151 17.8489 10.2011 17.9547 10.2234C18.1601 10.2663 18.4782 10.2283 18.8147 10.1883C19.2175 10.1404 19.6339 10.0908 19.8621 10.1782C20.0452 10.2483 20.2756 10.4147 20.3222 10.6526C20.3671 10.8808 20.2408 11.1363 19.9471 11.4118C19.9225 11.4348 19.9203 11.4731 19.9419 11.4988C19.9461 11.5038 20.3646 12.0112 20.2314 12.6502C20.1834 12.8812 20.1054 13.1168 20.0299 13.3444C19.8811 13.7939 19.7527 14.182 19.8855 14.4271C20.0359 14.7049 20.1821 14.7242 20.2695 14.7357C20.2865 14.7379 20.3077 14.7407 20.3114 14.7425C20.324 14.7681 20.2792 14.9024 20.0834 15.0271C19.9765 15.0951 19.9089 15.1973 19.8881 15.3226C19.8655 15.4586 19.9028 15.6116 19.9832 15.7122C20.0446 15.7888 20.0559 15.9061 20.0244 15.9519C20.0183 15.9608 19.9995 15.9877 19.925 15.9644C19.8114 15.9284 19.7559 15.8699 19.7558 15.8697C19.7424 15.855 19.7231 15.8478 19.7029 15.8489C19.683 15.8507 19.6651 15.8618 19.6547 15.8787C19.6542 15.8794 19.6101 15.9481 19.5372 15.9582C19.4828 15.9655 19.4222 15.9392 19.3568 15.8794C19.3346 15.8592 19.3016 15.8574 19.2771 15.8746C19.2376 15.9025 19.107 15.976 19.0271 15.9511C19.0156 15.9474 18.9806 15.9361 18.9582 15.8703C18.9523 15.8534 18.9396 15.8397 18.9232 15.8327C18.9067 15.8256 18.8881 15.8257 18.8718 15.8332C18.7947 15.8682 18.698 15.8902 18.6794 15.8818C18.6794 15.8818 18.6763 15.8722 18.6842 15.8451C18.7281 15.6939 18.9067 15.6576 19.0248 15.6337C19.0465 15.6293 19.0662 15.6252 19.0827 15.6211C19.0957 15.6179 19.1107 15.6149 19.1266 15.6118C19.243 15.5887 19.4851 15.5405 19.4546 15.2361C19.4482 15.1721 19.45 15.113 19.4517 15.0559C19.4572 14.8684 19.4625 14.6913 19.1678 14.4793C19.0591 14.4009 18.9544 14.3307 18.8537 14.2631C18.6246 14.1092 18.4266 13.9765 18.2453 13.7952C17.8711 13.4208 17.4254 13.3111 16.92 13.4694C16.621 13.563 16.3721 13.6765 16.1315 13.7863C15.8895 13.8967 15.6575 13.9996 15.4034 14.0699C15.604 13.6886 15.7139 13.183 15.6913 12.9392C15.6879 12.9043 15.6562 12.8784 15.6222 12.8819C15.5874 12.8852 15.5617 12.916 15.5649 12.9509C15.5908 13.2293 15.418 13.9127 15.1354 14.2504C14.9703 14.4478 14.9248 14.6712 15.0195 14.8195C15.0783 14.9114 15.1781 14.9554 15.3038 14.9567C15.2351 15.0648 15.0929 15.2281 14.8386 15.2863C14.8216 15.2903 14.8069 15.301 14.7981 15.3161C14.7892 15.3312 14.787 15.3492 14.792 15.366C14.7931 15.3697 14.898 15.737 14.7164 15.8918C14.7119 15.8944 14.6021 15.95 14.3929 15.8543C14.3693 15.8435 14.3411 15.8483 14.3224 15.8665C14.3213 15.8673 14.2186 15.9637 14.1103 15.9571C14.0511 15.9557 13.9979 15.9291 13.9477 15.8756C13.9246 15.8509 13.8862 15.8489 13.8604 15.8706C13.8529 15.8771 13.6733 16.0261 13.54 15.8768C13.5205 15.8549 13.4888 15.8494 13.4632 15.8628C13.4123 15.8894 13.3182 15.9189 13.2783 15.8972C13.273 15.8943 13.2568 15.8856 13.2527 15.8424C13.2438 15.7508 13.276 15.6611 13.3386 15.6026C13.4004 15.545 13.4864 15.5217 13.5808 15.5376C13.9133 15.5931 14.2713 15.5201 14.3232 15.2325C14.3613 15.0209 14.2737 14.7695 14.189 14.5263C14.1252 14.3433 14.0594 14.1542 14.0564 14.0009C14.0505 13.6877 14.1175 13.392 14.1182 13.389C14.1261 13.3549 14.1048 13.3209 14.0706 13.313C14.0365 13.3047 14.0025 13.3263 13.9946 13.3605C13.9917 13.3731 13.9232 13.6739 13.9296 14.0033C13.9309 14.0681 13.9432 14.1371 13.9593 14.2074C13.4779 14.0295 13.1567 13.7527 13.0074 13.3817C12.8324 12.9468 12.9317 12.4802 13.0698 12.2128C13.2675 11.8302 13.5362 11.6116 13.7521 11.4358C13.8535 11.3533 13.9444 11.2789 14.0092 11.2013C14.0024 11.3067 13.9127 11.5188 13.8148 11.6887C13.8018 11.7114 13.8039 11.7396 13.8202 11.76C13.8365 11.7804 13.8638 11.7887 13.8886 11.7809C13.9431 11.7639 14.0416 11.7159 14.1138 11.6791L14.1341 11.9993C14.1356 12.0229 14.1503 12.0438 14.1721 12.0534C14.194 12.0629 14.2193 12.0594 14.2376 12.0442C14.3231 11.9741 14.4038 11.8805 14.4597 11.8099L14.5228 12.0091C14.5288 12.0282 14.5437 12.0434 14.5628 12.0499C14.5819 12.0564 14.6028 12.0535 14.6193 12.042C14.7097 11.9795 14.798 11.8793 14.8531 11.8105L14.9735 12.0025C14.9857 12.022 15.0076 12.0345 15.0304 12.0321C15.0533 12.031 15.0738 12.0176 15.0841 11.9971L15.2245 11.716L15.343 12.0382C15.3497 12.0562 15.364 12.0701 15.3822 12.0763C15.3888 12.0787 15.3957 12.0797 15.4026 12.0797C15.4144 12.0797 15.4262 12.0764 15.4365 12.07L15.747 11.8741C15.9111 11.9653 16.1485 12.0033 16.1592 12.005C16.1783 12.0076 16.1982 12.002 16.2125 11.9885C16.2268 11.9751 16.234 11.9559 16.2323 11.9364L16.2069 11.6718L16.4819 11.6676C16.5136 11.6671 16.54 11.6433 16.5439 11.6119C16.5478 11.5805 16.5279 11.551 16.4973 11.5429C16.4673 11.5349 16.3985 11.4706 16.3397 11.4047C16.3472 11.4042 16.3506 11.4039 16.3541 11.4036C16.5122 11.4156 19.1963 11.6132 19.7848 11.1851C20.1121 10.9471 20.0893 10.7307 20.0464 10.6229C19.9581 10.4004 19.6369 10.2584 19.3166 10.2992C19.1892 10.3155 19.0523 10.3399 18.9104 10.3653C18.5086 10.4373 18.0533 10.5189 17.68 10.4274C17.5344 10.3917 17.4096 10.3444 17.2994 10.3028C17.113 10.2322 16.9782 10.1812 16.875 10.2429C16.8322 10.2685 16.8011 10.3102 16.7804 10.3712C16.7141 10.2973 16.6406 10.1623 16.7377 9.97957C16.7505 9.95552 16.7464 9.92599 16.7277 9.90611C16.724 9.90213 16.356 9.50768 16.5292 9.07474C16.6847 8.68591 17.2968 8.46644 17.9846 8.55382C18.5764 8.62868 19.1966 9.08323 19.607 9.38397C19.8654 9.5733 20.0045 9.67263 20.0986 9.68496C20.1175 9.68768 20.1361 9.68116 20.15 9.66837C20.1638 9.65557 20.1712 9.63715 20.1702 9.6183C20.1701 9.61746 20.1662 9.53276 20.2138 9.48574C20.2397 9.46005 20.2776 9.44876 20.33 9.45269C20.3915 9.45672 20.436 9.47955 20.4624 9.52052C20.5033 9.5846 20.4959 9.68083 20.4703 9.74782ZM18.4763 15.8807C18.4147 15.9019 18.3458 15.8878 18.2703 15.8383C18.2467 15.8228 18.2154 15.825 18.194 15.8434C18.1864 15.85 18.0051 16.0031 17.8314 15.863C17.8077 15.8439 17.7734 15.8446 17.75 15.8645C17.7312 15.8807 17.5607 16.018 17.3909 15.8591C17.3709 15.8404 17.3412 15.8366 17.3174 15.8496C17.2311 15.8962 17.1105 15.9343 17.0783 15.9148C17.073 15.9116 17.0727 15.8946 17.0727 15.8912C17.0727 15.824 17.1138 15.7739 17.1483 15.7437C17.2284 15.6737 17.3556 15.6365 17.4661 15.6511C17.7064 15.6832 17.8816 15.5184 17.9133 15.444C17.9414 15.3784 17.9877 14.7594 17.7662 14.4386C17.7212 14.3736 17.6718 14.3112 17.6221 14.2488C17.4537 14.037 17.296 13.8356 17.3245 13.5295C17.6323 13.523 17.911 13.6407 18.1554 13.8851C18.2834 14.0131 18.422 14.119 18.5672 14.2209C18.5109 14.2787 18.4202 14.3879 18.4133 14.4991C18.4099 14.5537 18.4273 14.6038 18.4633 14.6439C18.5553 14.746 18.6606 14.7413 18.7302 14.7378C18.7422 14.7372 18.7583 14.7363 18.7701 14.7371C18.7523 14.7802 18.6866 14.87 18.6411 14.932C18.5153 15.1037 18.4339 15.2231 18.4477 15.3156C18.4572 15.3787 18.482 15.4738 18.506 15.5658C18.5289 15.6535 18.5634 15.7861 18.5619 15.8118C18.5585 15.8216 18.53 15.862 18.4763 15.8807ZM18.7433 15.007C18.8653 14.8407 18.9272 14.7506 18.8913 14.6789C18.8545 14.6053 18.7793 14.6085 18.7243 14.6113C18.6653 14.6141 18.6093 14.6166 18.5575 14.5591C18.5441 14.5442 18.5386 14.5281 18.5399 14.5072C18.5443 14.4347 18.626 14.3407 18.6731 14.2945C18.7095 14.3192 18.7457 14.3439 18.7829 14.3689C18.8825 14.4357 18.986 14.5052 19.0935 14.5826C19.3334 14.7554 19.3299 14.8736 19.3247 15.0526C19.323 15.1109 19.321 15.177 19.3283 15.2492C19.3459 15.4253 19.2454 15.4592 19.1018 15.4877C19.0836 15.4914 19.0666 15.4948 19.0517 15.4985C19.0368 15.5022 19.0191 15.5058 18.9994 15.5099C18.9077 15.5284 18.7613 15.5598 18.6594 15.6548C18.651 15.6204 18.6408 15.5806 18.6286 15.5341C18.6055 15.4452 18.5815 15.3534 18.573 15.297C18.566 15.2491 18.6814 15.0917 18.7433 15.007ZM12.3169 13.8236C12.2905 13.8265 12.2666 13.8371 12.2447 13.856C12.2072 13.8142 12.157 13.7329 12.157 13.5972C12.157 13.3956 12.1 13.2953 12.0637 13.2516C12.0727 13.2386 12.0815 13.2254 12.088 13.211C12.1162 13.1485 12.1082 13.0832 12.0641 13.0167C12.0847 12.9737 12.0989 12.9148 12.0812 12.8554C12.1069 12.8118 12.1268 12.7437 12.1063 12.6605C12.1222 12.6396 12.1417 12.6088 12.1566 12.5699C12.4481 12.8921 12.7961 13.1678 12.8197 13.1863C12.8361 13.2675 12.8572 13.3489 12.8896 13.4294C12.9886 13.6757 13.1564 13.8826 13.3869 14.0507C13.2789 14.1975 13.0767 14.3881 12.8265 14.221C12.7104 14.1437 12.6228 14.0515 12.5525 13.9776C12.4626 13.8832 12.3969 13.8147 12.3169 13.8236ZM11.7862 14.3826C11.7993 14.3976 11.8181 14.4051 11.8387 14.404C11.8585 14.4025 11.8766 14.3919 11.8873 14.3751C11.8942 14.3645 11.9272 14.3233 11.9639 14.3159C11.9745 14.3135 11.9916 14.3127 12.0166 14.3297C12.0332 14.3412 12.0425 14.3792 12.0285 14.4206C12.0034 14.4951 11.9243 14.536 11.8158 14.5312C11.789 14.529 11.7638 14.5459 11.7538 14.5711C11.7438 14.5963 11.7509 14.6251 11.7715 14.6427L11.875 14.7314L11.7062 14.7725C11.6838 14.7779 11.6661 14.7951 11.66 14.8173C11.6597 14.8184 11.6345 14.9084 11.5841 14.9843C11.5336 14.9084 11.5084 14.8184 11.5081 14.8173C11.502 14.7951 11.4843 14.7779 11.4619 14.7725L11.2931 14.7314L11.3965 14.6427C11.4171 14.625 11.4242 14.5963 11.4142 14.5711C11.4041 14.5459 11.3771 14.5287 11.3522 14.5312C11.2424 14.5363 11.1646 14.4951 11.1396 14.4207C11.1256 14.3792 11.1349 14.3412 11.1515 14.3297C11.176 14.3129 11.193 14.3138 11.2038 14.3158C11.2394 14.3228 11.2716 14.3612 11.2808 14.3751C11.2916 14.3919 11.3096 14.4026 11.3294 14.4041C11.3483 14.4049 11.3687 14.3975 11.3818 14.3826C11.5427 14.1988 11.474 13.9921 11.3947 13.8761C11.4554 13.8002 11.5175 13.6789 11.5318 13.6502C11.5428 13.6285 11.5364 13.6032 11.5216 13.5839C11.5067 13.5648 11.478 13.5566 11.4546 13.5614C11.4186 13.569 11.3089 13.5919 11.2459 13.5434C11.2241 13.5266 11.2192 13.4806 11.236 13.4507C11.2417 13.4403 11.2596 13.4095 11.3254 13.4345C11.388 13.4586 11.4779 13.4846 11.534 13.434C11.5468 13.4225 11.5542 13.4089 11.5596 13.3949C11.5763 13.3975 11.5931 13.3983 11.6101 13.3998C11.6156 13.412 11.6227 13.4238 11.634 13.434C11.6904 13.4846 11.7801 13.4586 11.8427 13.4345C11.9087 13.4092 11.9263 13.4403 11.9321 13.4507C11.949 13.4807 11.944 13.5266 11.922 13.5435C11.8591 13.5922 11.7495 13.569 11.7054 13.5598C11.6816 13.5549 11.6574 13.5642 11.6426 13.5835C11.6279 13.6027 11.6254 13.6286 11.6362 13.6503C11.6505 13.6789 11.7126 13.8003 11.7733 13.8762C11.6941 13.992 11.6254 14.1988 11.7862 14.3826ZM11.992 12.5996C11.9733 12.6172 11.967 12.6442 11.976 12.6681C12.0072 12.7514 11.9679 12.7977 11.9641 12.8018C11.944 12.8219 11.9397 12.8529 11.9537 12.8778C11.9798 12.9242 11.9375 12.9823 11.9374 12.9825C11.9193 13.0064 11.9201 13.0396 11.9396 13.0624C11.9895 13.1206 11.9778 13.1464 11.9722 13.1589C11.9543 13.1987 11.9157 13.2297 11.8577 13.2512C11.7984 13.273 11.7291 13.2796 11.6616 13.2776C11.6591 13.2777 11.6567 13.2773 11.6542 13.2777C11.5742 13.2745 11.4973 13.2584 11.4439 13.2333C11.4154 13.2199 11.3797 13.1979 11.3721 13.1692C11.3652 13.1433 11.383 13.1173 11.383 13.1173C11.3934 13.1035 11.3977 13.0859 11.3949 13.0689C11.392 13.0517 11.3823 13.0366 11.368 13.0268C11.3349 13.0044 11.3323 12.9852 11.3314 12.9789C11.3274 12.9493 11.3507 12.914 11.3589 12.9043C11.3705 12.891 11.376 12.8735 11.3742 12.8559C11.3724 12.8384 11.3633 12.8224 11.3492 12.8118C11.3298 12.7973 11.2976 12.7689 11.298 12.7416C11.2984 12.7135 11.3306 12.6848 11.3415 12.6772C11.3583 12.6657 11.3671 12.6458 11.3676 12.6254C11.3682 12.605 11.3574 12.5845 11.3412 12.5721C11.3247 12.5594 11.309 12.4979 11.3164 12.4766C11.3932 12.4915 11.4766 12.5005 11.5678 12.5013C11.5725 12.5013 11.5773 12.5014 11.5819 12.5014C11.7539 12.5014 11.9044 12.4704 12.0271 12.4183C12.0347 12.4278 12.0424 12.4374 12.0502 12.4468C12.0516 12.5376 11.9943 12.5974 11.992 12.5996ZM11.5691 12.3745C11.226 12.3714 10.9986 12.2612 10.9611 12.0797C10.9499 12.0257 10.9597 11.9833 10.9908 11.95C11.0295 11.9085 11.1011 11.8842 11.1783 11.8842C11.1949 11.8842 11.2118 11.8854 11.2286 11.8877C11.2465 11.8901 11.2495 11.8958 11.2505 11.8978C11.2638 11.9228 11.2465 11.9945 11.2226 12.0434C11.2074 12.0745 11.2198 12.112 11.2504 12.1278C11.4766 12.2445 11.8038 12.1933 11.8899 12.1543C11.9002 12.1496 11.9315 12.1354 11.9401 12.1011C11.9469 12.0742 11.9379 12.0506 11.9291 12.0279C11.9135 11.9868 11.8972 11.9445 11.9431 11.8845C11.9675 11.8524 12.0209 11.8672 12.0366 11.8726C12.1122 11.8982 12.1887 11.9771 12.1887 12.0786C12.1887 12.1258 12.1672 12.1711 12.1248 12.2131C12.0206 12.3164 11.8118 12.3737 11.5691 12.3745ZM11.8023 12.0502C11.7176 12.0712 11.5199 12.0945 11.3614 12.0378C11.38 11.9817 11.3958 11.9008 11.3626 11.8383C11.3611 11.8357 11.3587 11.8328 11.357 11.83L11.3429 9.83458C11.3587 8.65048 11.9057 8.21796 12.1623 8.08006C12.0473 8.43851 11.8204 9.45077 11.8293 11.8303C11.772 11.9208 11.7854 12.0008 11.8023 12.0502ZM13.5316 10.9758L13.465 11.1229C13.4344 11.0906 13.396 11.0385 13.3646 10.9593C13.3528 10.9293 13.3207 10.9126 13.2894 10.9213L13.0531 10.9838L13.1072 10.8516C13.1156 10.831 13.1126 10.8075 13.0993 10.7897C13.0861 10.7718 13.0638 10.7617 13.0422 10.7645L12.7554 10.7931L12.8618 10.5039C12.9885 10.5409 13.3019 10.6256 13.6238 10.659L13.5769 10.7174C13.56 10.7386 13.5583 10.768 13.5726 10.7909C13.587 10.8138 13.6142 10.825 13.6405 10.819C13.6439 10.8183 13.9845 10.7411 14.2164 10.7741C14.2427 10.7773 14.2683 10.7648 14.281 10.7417C14.2937 10.7185 14.2907 10.6898 14.2734 10.6698C14.138 10.5133 13.7742 10.0762 13.7167 9.93663C13.7059 9.91029 13.6787 9.89533 13.6507 9.89772C13.6225 9.9011 13.5999 9.9228 13.5955 9.95088L13.5636 10.1538C13.5152 10.1217 13.4507 10.0691 13.3966 9.99143C13.381 9.96911 13.3533 9.95904 13.3271 9.96677C13.301 9.97422 13.2826 9.99738 13.2812 10.0245C13.2808 10.0307 13.2798 10.0553 13.2813 10.0887C13.118 9.94338 12.8558 9.67835 12.7706 9.40938C12.7232 9.25947 12.7269 9.14866 12.7814 9.08871C12.829 9.0364 12.9088 9.03073 12.9506 9.03958C12.9951 9.0491 13.0375 9.08055 13.0638 9.12373C13.0897 9.16605 13.0975 9.2133 13.0858 9.25718C13.0806 9.27672 13.085 9.29763 13.0978 9.31338C13.1105 9.32918 13.1305 9.33827 13.1503 9.33682C13.3102 9.3289 14.1143 9.27593 14.2442 9.01254C14.2624 8.97569 14.2751 8.92118 14.2482 8.85448C14.3333 8.80591 14.5435 8.73391 14.8157 8.97719C14.8379 8.99712 14.8712 8.99866 14.8956 8.98099C14.9582 8.93491 15.0525 8.82415 15.0409 8.68938C15.1357 8.70129 15.2988 8.74929 15.412 8.93158C15.4224 8.94827 15.4398 8.95915 15.4593 8.96121C15.4787 8.96313 15.498 8.95619 15.5117 8.94208C15.5167 8.93688 15.6196 8.82846 15.6621 8.69449C15.7378 8.71216 15.888 8.76912 16.0347 8.95348C16.0457 8.9673 16.0618 8.97588 16.0794 8.97729C16.0856 8.97738 16.1664 8.98221 16.2706 8.95169C15.9503 9.20974 15.4298 9.26252 15.423 9.26318C15.3996 9.26538 15.3794 9.28029 15.3703 9.3019C15.3613 9.32351 15.3649 9.34849 15.3798 9.36654L15.4702 9.47669C15.1118 9.48335 14.954 9.35369 14.9526 9.35247C14.9294 9.33232 14.8952 9.33185 14.8712 9.35069C14.8472 9.36991 14.8405 9.40348 14.8551 9.43047L14.9336 9.57551C14.7927 9.54602 14.6635 9.4803 14.5551 9.42504C14.4186 9.35552 14.3107 9.30082 14.2161 9.3289C14.1454 9.35004 14.0939 9.41388 14.0815 9.49554C14.0682 9.58451 14.1045 9.66949 14.1762 9.71726C14.2127 9.74163 14.2543 9.75354 14.2962 9.75354C14.3553 9.75354 14.4151 9.72986 14.462 9.68407C14.5003 9.64666 14.5233 9.60119 14.5301 9.55455C14.673 9.62693 14.8469 9.70872 15.0455 9.71726C15.0678 9.71997 15.09 9.7069 15.102 9.68754C15.1142 9.66818 15.1149 9.64376 15.104 9.62369L15.0625 9.54715C15.1824 9.58755 15.3603 9.6198 15.6042 9.59547C15.6275 9.59313 15.6475 9.57832 15.6565 9.55666C15.6654 9.53505 15.6617 9.51026 15.647 9.49216L15.5498 9.37371C15.7489 9.34057 16.1575 9.24443 16.4154 8.9944C16.3729 9.1113 16.3038 9.23177 16.1898 9.29773C16.1739 9.30701 16.1629 9.3229 16.1594 9.34104C16.156 9.35918 16.1608 9.37812 16.1723 9.39255C16.1745 9.39527 16.3797 9.66311 16.3157 10.3631C16.1983 10.3028 15.9727 10.1595 15.8451 9.90072C15.8316 9.8733 15.8008 9.85966 15.7706 9.86782C15.7412 9.8763 15.722 9.90475 15.7251 9.93532C15.7336 10.0175 15.7405 10.149 15.733 10.2415C15.6645 10.1923 15.5685 10.112 15.5289 10.0243C15.5177 9.9994 15.492 9.98388 15.4649 9.9873C15.4378 9.98993 15.4155 10.0095 15.4093 10.036C15.3933 10.1051 15.3719 10.1851 15.3545 10.2393C15.2914 10.1998 15.2075 10.1373 15.1727 10.073C15.1592 10.0481 15.131 10.0351 15.103 10.0413C15.0754 10.0474 15.0552 10.0713 15.0536 10.0997C15.0495 10.1731 15.0398 10.2863 15.0274 10.3646C14.9691 10.3289 14.8871 10.2749 14.8265 10.2201C14.81 10.2052 14.787 10.1997 14.7659 10.2063C14.7447 10.2125 14.7283 10.2295 14.7226 10.2509L14.69 10.3745C14.6355 10.3429 14.56 10.2925 14.5105 10.2321C14.4884 10.205 14.4484 10.201 14.4214 10.2232C14.3942 10.2453 14.3903 10.2853 14.4125 10.3124C14.5158 10.4387 14.6972 10.5221 14.7048 10.5255C14.722 10.5332 14.7413 10.533 14.7583 10.5251C14.7752 10.5171 14.7877 10.502 14.7925 10.4839L14.8203 10.3781C14.9231 10.4546 15.0332 10.515 15.039 10.5182C15.0549 10.5267 15.0737 10.5281 15.0909 10.5222C15.108 10.516 15.1216 10.5028 15.1283 10.4861C15.1468 10.4396 15.1599 10.3442 15.1683 10.2596C15.2549 10.3349 15.3521 10.3841 15.3582 10.3871C15.3879 10.4019 15.4238 10.3914 15.441 10.363C15.4589 10.333 15.4802 10.2658 15.498 10.202C15.6007 10.3177 15.7388 10.397 15.7464 10.4014C15.7623 10.4104 15.7817 10.412 15.7992 10.406C15.8166 10.3997 15.8304 10.3862 15.837 10.3688C15.8561 10.3185 15.8625 10.239 15.8631 10.1608C15.9839 10.3083 16.1237 10.4023 16.2225 10.4568C16.2225 10.4584 16.2218 10.4598 16.2219 10.4613C16.2226 10.4725 16.2364 10.6848 16.2728 10.8542C16.1664 10.8147 15.9952 10.7344 15.8371 10.5856C15.8219 10.5712 15.8004 10.5654 15.7801 10.5698C15.7596 10.5742 15.7427 10.5885 15.7348 10.6078L15.686 10.7283L15.482 10.5804C15.464 10.5673 15.4403 10.5646 15.4196 10.5735C15.399 10.5823 15.3847 10.6013 15.3818 10.6235L15.3633 10.765C15.319 10.7329 15.2658 10.6904 15.2278 10.6477C15.2044 10.6214 15.1642 10.6192 15.1383 10.6424C15.1121 10.6657 15.1097 10.7058 15.133 10.732C15.2229 10.833 15.3737 10.9252 15.38 10.929C15.3984 10.9404 15.4211 10.9412 15.4404 10.932C15.4598 10.9227 15.4731 10.9043 15.4759 10.883L15.4938 10.7456L15.6771 10.8786C15.6927 10.89 15.713 10.8934 15.7317 10.8882C15.7506 10.8828 15.7658 10.8691 15.7731 10.8511L15.8188 10.7383C15.9362 10.8348 16.0529 10.8981 16.1478 10.94C16.1483 10.9795 16.1545 11.1475 16.2254 11.28C16.1092 11.2769 15.9271 11.2565 15.7584 11.1722C15.7299 11.1576 15.6946 11.1671 15.6769 11.1944L15.5851 11.3359L15.2051 11.081C15.189 11.0701 15.1686 11.0671 15.1502 11.0734C15.1317 11.0794 15.1169 11.0936 15.1102 11.1118L15.0518 11.2709C14.9819 11.1924 14.8816 11.082 14.8447 11.0524C14.8188 11.0316 14.7812 11.0345 14.7586 11.0589C14.7575 11.06 14.6687 11.1551 14.5625 11.229L14.4893 11.0323C14.4771 10.9997 14.4404 10.9828 14.4077 10.995C14.3748 11.0072 14.3581 11.0438 14.3703 11.0766L14.4707 11.3462C14.4772 11.3635 14.4909 11.3771 14.5082 11.3835C14.5255 11.3899 14.5448 11.3885 14.561 11.3795C14.6604 11.3243 14.7533 11.242 14.8062 11.191C14.8651 11.2517 14.9639 11.3623 15.0268 11.4345C15.0416 11.4514 15.064 11.4595 15.0861 11.4551C15.1082 11.4511 15.1264 11.4357 15.1342 11.4147L15.2015 11.2314L15.5679 11.4772C15.5784 11.4843 15.5907 11.488 15.6032 11.488C15.6074 11.488 15.6117 11.4876 15.6159 11.4866C15.6326 11.4833 15.6472 11.4733 15.6564 11.4591L15.7532 11.3096C15.9161 11.38 16.0789 11.4008 16.1958 11.4057C16.1951 11.4208 16.1992 11.4362 16.2096 11.4488C16.225 11.4678 16.2566 11.505 16.2947 11.5437L16.1361 11.5461C16.1184 11.5464 16.1016 11.554 16.0899 11.5673C16.078 11.5804 16.0723 11.5979 16.0739 11.6156L16.0976 11.8639C16.01 11.8443 15.8711 11.806 15.7807 11.7468C15.7597 11.7332 15.733 11.7328 15.712 11.7462L15.4348 11.9211L15.2928 11.5348C15.2841 11.511 15.2621 11.4948 15.2368 11.4933C15.2092 11.4914 15.1878 11.5057 15.1764 11.5284L15.0208 11.8397L14.9117 11.6657C14.9004 11.6477 14.8808 11.6365 14.8596 11.636C14.8384 11.6363 14.8184 11.6455 14.806 11.6629C14.805 11.6645 14.7167 11.7892 14.6155 11.8824L14.5431 11.6539C14.5357 11.6308 14.5159 11.6139 14.4919 11.6103C14.4677 11.6071 14.444 11.6172 14.4303 11.6373C14.4293 11.6388 14.3512 11.7523 14.252 11.8569L14.2341 11.5739C14.2327 11.5525 14.2205 11.533 14.2016 11.5225C14.1827 11.512 14.1598 11.5118 14.1408 11.522C14.1135 11.5367 14.0631 11.5631 14.0103 11.5892C14.0849 11.4342 14.1696 11.2166 14.1214 11.1045C14.1071 11.071 14.0801 11.0488 14.0478 11.0351C14.0458 11.0337 14.0444 11.0317 14.0423 11.0305C14.0393 11.0289 14.0361 11.0288 14.0331 11.0277C14.0309 11.0271 14.0295 11.0253 14.0273 11.0248C14.0247 11.0242 14.0228 11.0244 14.0203 11.0238C14.019 11.0237 14.0178 11.0234 14.0164 11.0233C13.9304 11.0054 13.8718 11.0294 13.8379 11.0541C13.8033 11.0794 13.7805 11.113 13.7656 11.1453C13.7261 11.1073 13.6785 11.0505 13.6478 10.9773C13.6381 10.954 13.6154 10.9387 13.5902 10.9384C13.5649 10.9368 13.5421 10.9528 13.5316 10.9758ZM13.0492 10.268C13.3921 10.4333 13.8135 10.4516 13.9287 10.4537C13.9838 10.5221 14.0376 10.5875 14.0807 10.6389C13.9753 10.6393 13.8678 10.6512 13.7825 10.6639L13.7975 10.6452C13.8124 10.6267 13.8156 10.6015 13.806 10.5798C13.7965 10.5581 13.7755 10.5436 13.7519 10.5422C13.3213 10.5166 12.847 10.3669 12.8423 10.3653C12.8421 10.3653 12.8419 10.3653 12.8418 10.3653C12.8418 10.3653 12.8416 10.3651 12.8414 10.3651C12.7707 10.3437 12.7295 10.3074 12.7254 10.2629C12.7222 10.2278 12.7417 10.1993 12.7535 10.1931C12.8219 10.1578 12.9659 10.2276 13.0492 10.268ZM13.6485 10.3038C13.6622 10.2939 13.6723 10.2798 13.675 10.2629L13.6935 10.144C13.7315 10.1993 13.7776 10.2605 13.8251 10.3222C13.7761 10.3188 13.7157 10.313 13.6485 10.3038ZM13.5368 10.2858C13.5059 10.2801 13.474 10.2734 13.4418 10.266C13.4447 10.2524 13.443 10.2378 13.4365 10.2248C13.4347 10.2212 13.433 10.2173 13.4314 10.2134C13.4715 10.2463 13.5086 10.2699 13.5368 10.2858ZM14.3733 9.59336C14.3445 9.62177 14.2939 9.64333 14.2465 9.61188C14.2103 9.58769 14.2024 9.54574 14.207 9.51447C14.2107 9.4901 14.2247 9.45883 14.2524 9.45054C14.2577 9.44899 14.2637 9.44819 14.2703 9.44819C14.3007 9.44819 14.3441 9.46413 14.3937 9.48682L14.3938 9.48696C14.426 9.53796 14.3824 9.58451 14.3733 9.59336ZM16.7851 10.5429C16.8032 10.5544 16.8262 10.5558 16.8459 10.5468C16.8655 10.5376 16.879 10.519 16.8819 10.4975C16.8924 10.4178 16.9119 10.3688 16.9399 10.352C16.9905 10.3217 17.1129 10.3681 17.2544 10.4217C17.3623 10.4626 17.4966 10.5134 17.6496 10.5509C18.0489 10.6487 18.5184 10.5647 18.9324 10.4905C19.0724 10.4655 19.2071 10.4414 19.3324 10.4253C19.5944 10.392 19.8615 10.5017 19.9283 10.67C19.9788 10.7971 19.9013 10.9437 19.71 11.0829C19.1797 11.4685 16.6405 11.2972 16.3816 11.2787C16.3127 11.2131 16.2858 11.0789 16.2778 10.9904C16.3196 11.0038 16.3477 11.0104 16.3513 11.0112C16.3556 11.0122 16.36 11.0126 16.3644 11.0126C16.3825 11.0126 16.4001 11.0047 16.4124 10.9907C16.4274 10.9732 16.4319 10.949 16.4239 10.9273C16.3844 10.8194 16.3626 10.6199 16.3536 10.5178C16.3704 10.5224 16.3881 10.5208 16.403 10.5116C16.4195 10.5014 16.4304 10.4842 16.4327 10.465C16.5077 9.82774 16.3769 9.49549 16.3083 9.37104C16.3249 9.35833 16.3405 9.3446 16.3554 9.33026C16.3599 9.63143 16.5347 9.87363 16.6061 9.96011C16.4785 10.249 16.6637 10.4659 16.7851 10.5429Z" fill="#464655"/>
<path d="M10.4229 7.27685C10.3983 6.76586 10.277 5.93946 9.88924 5.92052C9.67071 5.91044 9.56303 6.04497 9.55858 6.05074C9.54578 6.06733 9.52478 6.07666 9.50444 6.07563L9.35627 6.06672L9.3828 6.16493C9.38917 6.1886 9.38116 6.21405 9.36241 6.22994C9.35341 6.23754 9.14388 6.41951 9.27138 6.65125C9.3685 6.82783 9.68242 6.91141 9.9116 6.97235C10.0139 6.99963 10.1024 7.02316 10.1598 7.05124C10.262 7.10125 10.3516 7.18563 10.4229 7.27685Z" fill="#FFD250"/>
<path d="M9.89528 5.79384C9.67229 5.78292 9.53349 5.89406 9.48132 5.94717L9.27578 5.93484C9.25628 5.93329 9.23575 5.94234 9.22281 5.95814C9.20992 5.97393 9.20537 5.99498 9.21067 6.01472L9.25014 6.16115C9.14935 6.264 9.03085 6.47756 9.16004 6.71236C9.28323 6.93651 9.62753 7.02806 9.87882 7.09499C9.97477 7.12049 10.0576 7.14257 10.104 7.16517C10.2526 7.23782 10.3719 7.4031 10.434 7.5336C10.4446 7.55606 10.4672 7.56974 10.4913 7.56974C10.4958 7.56974 10.5004 7.56923 10.505 7.56824C10.5338 7.56187 10.5544 7.53642 10.5547 7.50693C10.5553 7.4384 10.5634 5.82642 9.89528 5.79384ZM9.91145 6.97232C9.68228 6.91139 9.36835 6.82781 9.27123 6.65123C9.14373 6.41953 9.35326 6.23756 9.36226 6.22992C9.38096 6.21403 9.38898 6.18862 9.38265 6.1649L9.35612 6.0667L9.50429 6.07561C9.52468 6.07668 9.54568 6.06731 9.55843 6.05072C9.56289 6.0449 9.67056 5.91037 9.88909 5.9205C10.2769 5.93943 10.3981 6.76584 10.4228 7.27682C10.3515 7.18565 10.2619 7.10123 10.1596 7.05121C10.1023 7.02309 10.0138 6.99956 9.91145 6.97232Z" fill="#464655"/>
<path d="M21.0254 7.27685C21.05 6.76586 21.1713 5.93946 21.5591 5.92052C21.7776 5.91044 21.8853 6.04497 21.8897 6.05074C21.9025 6.06733 21.9235 6.07666 21.9439 6.07563L22.092 6.06672L22.0655 6.16493C22.0591 6.1886 22.0671 6.21405 22.0859 6.22994C22.0949 6.23754 22.3044 6.41951 22.1769 6.65125C22.0798 6.82783 21.7659 6.91141 21.5367 6.97235C21.4344 6.99963 21.3459 7.02316 21.2885 7.05124C21.1863 7.10125 21.0966 7.18563 21.0254 7.27685Z" fill="#FFD250"/>
<path d="M20.8935 7.50704C20.8938 7.53653 20.9144 7.56198 20.9432 7.56835C20.9478 7.56934 20.9523 7.56985 20.9569 7.56985C20.9809 7.56985 21.0035 7.55617 21.0141 7.53371C21.0762 7.40321 21.1956 7.23793 21.3442 7.16528C21.3905 7.14264 21.4733 7.1206 21.5693 7.0951C21.8206 7.02821 22.1648 6.93662 22.2881 6.71246C22.4172 6.47762 22.2987 6.26406 22.198 6.16126L22.2374 6.01482C22.2427 5.99504 22.2382 5.974 22.2253 5.95825C22.2124 5.94245 22.1918 5.93336 22.1723 5.93495L21.9668 5.94728C21.9146 5.89426 21.7758 5.78312 21.5528 5.79395C20.8848 5.82643 20.8929 7.43842 20.8935 7.50704ZM21.2886 7.05118C21.1862 7.10125 21.0966 7.18567 21.0254 7.27679C21.05 6.76581 21.1713 5.9394 21.559 5.92047C21.7776 5.91039 21.8852 6.04492 21.8897 6.05068C21.9025 6.06728 21.9235 6.07661 21.9438 6.07558L22.092 6.06667L22.0655 6.16487C22.0591 6.18854 22.0671 6.214 22.0859 6.22989C22.0949 6.23748 22.3044 6.41945 22.1769 6.6512C22.0798 6.82778 21.7658 6.91135 21.5367 6.97229C21.4344 6.99957 21.3459 7.0231 21.2886 7.05118Z" fill="#464655"/>
<path d="M21.0254 16.7231C21.05 17.2341 21.1713 18.0605 21.5591 18.0794C21.7776 18.0895 21.8853 17.955 21.8897 17.9491C21.9025 17.9325 21.9235 17.9232 21.9439 17.9243L22.092 17.9332L22.0655 17.835C22.0591 17.8113 22.0671 17.7858 22.0859 17.7699C22.0949 17.7623 22.3044 17.5804 22.1769 17.3486C22.0798 17.1721 21.7659 17.0885 21.5367 17.0275C21.4344 17.0003 21.3459 16.9767 21.2885 16.9486C21.1863 16.8987 21.0966 16.8143 21.0254 16.7231Z" fill="#FFD250"/>
<path d="M21.553 18.2061C21.776 18.2171 21.9147 18.1059 21.9669 18.0528L22.1725 18.0651C22.192 18.0667 22.2125 18.0576 22.2254 18.0418C22.2383 18.026 22.2429 18.005 22.2376 17.9853L22.1981 17.8388C22.2989 17.736 22.4174 17.5224 22.2882 17.2876C22.165 17.0635 21.8207 16.9719 21.5694 16.905C21.4735 16.8795 21.3906 16.8574 21.3443 16.8348C21.1957 16.7622 21.0764 16.5969 21.0142 16.4664C21.0036 16.4439 20.9811 16.4302 20.957 16.4302C20.9525 16.4302 20.9479 16.4308 20.9433 16.4317C20.9145 16.4381 20.8939 16.4636 20.8936 16.493C20.8929 16.5616 20.8848 18.1736 21.553 18.2061ZM21.5368 17.0277C21.766 17.0886 22.0799 17.1722 22.177 17.3488C22.3045 17.5805 22.095 17.7624 22.086 17.7701C22.0673 17.786 22.0593 17.8114 22.0656 17.8351L22.0921 17.9333L21.944 17.9244C21.9236 17.9233 21.9026 17.9327 21.8898 17.9493C21.8854 17.9551 21.7777 18.0896 21.5592 18.0795C21.1714 18.0605 21.0501 17.2341 21.0255 16.7232C21.0968 16.8143 21.1864 16.8988 21.2887 16.9488C21.346 16.9769 21.4345 17.0004 21.5368 17.0277Z" fill="#464655"/>
<path d="M10.4229 16.7231C10.3983 17.2341 10.277 18.0605 9.88924 18.0794C9.67071 18.0895 9.56303 17.955 9.55858 17.9491C9.54578 17.9325 9.52478 17.9232 9.50444 17.9243L9.35627 17.9332L9.3828 17.835C9.38917 17.8113 9.38116 17.7858 9.36241 17.7699C9.35341 17.7623 9.14388 17.5804 9.27138 17.3486C9.3685 17.1721 9.68242 17.0885 9.9116 17.0275C10.0139 17.0003 10.1024 16.9767 10.1598 16.9486C10.262 16.8987 10.3516 16.8143 10.4229 16.7231Z" fill="#FFD250"/>
<path d="M10.5546 16.4929C10.5543 16.4634 10.5337 16.438 10.5049 16.4316C10.5004 16.4306 10.4958 16.4301 10.4913 16.4301C10.4672 16.4301 10.4447 16.4438 10.434 16.4663C10.3719 16.5968 10.2525 16.762 10.1039 16.8347C10.0576 16.8573 9.97479 16.8794 9.87879 16.9049C9.62745 16.9718 9.28325 17.0633 9.16001 17.2875C9.03087 17.5223 9.14937 17.7359 9.25011 17.8387L9.21064 17.9851C9.20534 18.0049 9.20993 18.026 9.22278 18.0417C9.23567 18.0575 9.25625 18.0666 9.27575 18.065L9.48129 18.0527C9.53346 18.1057 9.67226 18.2168 9.89525 18.206C10.5634 18.1735 10.5553 16.5616 10.5546 16.4929ZM10.1596 16.9488C10.2619 16.8988 10.3515 16.8143 10.4228 16.7232C10.3982 17.2342 10.2769 18.0606 9.8891 18.0795C9.67057 18.0896 9.5629 17.9551 9.55845 17.9493C9.54565 17.9327 9.52465 17.9234 9.50431 17.9244L9.35614 17.9333L9.38267 17.8351C9.38904 17.8115 9.38103 17.786 9.36228 17.7701C9.35328 17.7625 9.14375 17.5806 9.27125 17.3488C9.36837 17.1722 9.68229 17.0887 9.91146 17.0277C10.0137 17.0004 10.1022 16.9769 10.1596 16.9488Z" fill="#464655"/>
</svg>
