<svg width="24" height="24" viewBox="0 0 24 24" fill="none" xmlns="http://www.w3.org/2000/svg">
<path d="M23.5861 4.13794H0.413812C0.185297 4.13794 0 4.32319 0 4.5517V19.4482C0 19.6767 0.185297 19.862 0.413812 19.862H23.5862C23.8147 19.862 24 19.6767 24 19.4482V4.5517C24 4.32319 23.8147 4.13794 23.5861 4.13794Z" fill="#82AFFF"/>
<path d="M11.9649 15.0775C14.0697 15.0775 15.782 13.3651 15.782 11.2604C15.782 9.15579 14.0696 7.44336 11.9649 7.44336C9.86017 7.44336 8.14783 9.15579 8.14783 11.2604C8.14783 13.3651 9.86012 15.0775 11.9649 15.0775ZM12.4004 7.84259L12.7284 7.7217C13.1914 7.82155 13.6219 8.00919 14.0009 8.26784C13.9683 8.26456 13.8822 8.25575 13.8673 8.25078C13.8489 8.24469 13.8205 8.36769 13.8205 8.36769L13.9711 8.42759L14.0122 8.27637C14.1685 8.38395 14.3145 8.50493 14.4519 8.63515L14.2306 8.8565H14.1915L14.1597 8.73158L14.0386 8.51393L13.6109 8.35976L13.3151 8.50292L13.4829 8.86634C13.0693 8.60314 12.584 8.44503 12.0628 8.42717V7.92064L12.3642 8.0158L12.2389 7.79492L12.0628 7.8703V7.64412C12.1936 7.64764 12.3224 7.65833 12.4493 7.67548L12.3013 7.72484L12.4004 7.84259ZM14.3811 10.6365L14.4532 10.606L14.4713 10.4286C14.5485 10.6608 14.5931 10.907 14.6025 11.1625H13.9386L13.9631 11.0565L14.1507 11.0402L14.306 10.7757L14.3016 10.7261L14.1425 10.9301L14.0454 10.9539L13.9835 10.8811L14.0563 10.7573L13.8978 10.6405L13.7555 10.7653C13.7171 10.6269 13.6649 10.4944 13.5974 10.3709L13.6746 10.3428L13.7365 10.3059L13.736 10.233L13.7757 10.1837L13.7527 10.1696C13.7357 10.1776 13.6472 10.2034 13.6472 10.2034L13.6165 10.303L13.5724 10.3298C13.5075 10.218 13.4311 10.114 13.3451 10.0185L13.7111 9.65248L13.7143 9.65764L13.8034 9.60406L13.7896 9.57392L13.8984 9.46512C14.1437 9.72912 14.3352 10.0426 14.4568 10.3894L14.3657 10.254L14.3187 10.2716L14.3811 10.6365ZM13.8985 13.0556L13.7005 12.8576L13.6258 12.6596L13.5874 12.7445L13.5108 12.6679L13.5893 12.4272L13.5384 12.2525L13.5348 12.253C13.5886 12.1682 13.6372 12.0798 13.6768 11.9865L13.6778 11.9864C13.69 11.9864 13.7348 11.9293 13.7348 11.9293L13.845 11.9416L14.1296 11.8291L14.0203 11.7254L13.9559 11.668L13.906 11.5664L13.8168 11.4111C13.8182 11.3937 13.8186 11.376 13.8195 11.3584H14.6025C14.5784 12.0129 14.3161 12.6063 13.8985 13.0556ZM10.0991 12.9304L10.1972 12.7591L9.98617 12.0217L9.81981 11.6111L9.9707 11.5459L10.0115 11.4235L10.1134 11.4206C10.149 11.8349 10.3214 12.2099 10.5847 12.5022L10.1524 12.9345L10.0991 12.9304ZM10.3346 11.1228L10.3325 11.1626H10.3059C10.3068 11.1476 10.307 11.1323 10.3082 11.1173L10.3346 11.1228ZM12.8475 12.6684L12.814 12.6502L12.3871 12.8153L12.1658 12.7301L12.0628 12.7586V12.6178L12.1693 12.5857L12.2339 12.6012L12.3699 12.6544L12.2879 12.5045L12.4636 12.6518L12.5479 12.671L12.5222 12.5587L12.5794 12.373L12.7785 12.2516L12.7958 12.3634L12.5529 12.4953L12.5995 12.5883L12.8521 12.5373L12.856 12.6633C12.8532 12.6649 12.8503 12.6665 12.8475 12.6684ZM11.8412 11.933L11.8336 11.9167L11.7878 11.9194C11.7288 11.9034 11.6733 11.88 11.6218 11.8499L11.7922 11.8292L11.867 11.6283V11.9356C11.8585 11.9344 11.8496 11.9346 11.8412 11.933ZM11.1256 11.5139L10.9592 11.4883L11.0441 11.3583H11.0939C11.0999 11.4119 11.1104 11.4636 11.1256 11.5139ZM12.0627 10.8367L12.1086 10.8506L12.1663 10.9206L12.0627 11.0242V10.8367ZM12.3714 12.0808L12.292 12.1738L12.1596 12.2396L12.1152 12.1618L12.0885 12.3165L12.0628 12.3266V12.1314C12.0813 12.1293 12.1004 12.129 12.1186 12.1258L12.182 12.2052L12.2346 12.1398L12.2305 12.096C12.2597 12.0866 12.2895 12.0789 12.3174 12.0667L12.3714 12.0808ZM12.3119 11.0519L12.3098 11.1578L12.3059 11.1626H12.2011L12.3119 11.0519ZM12.3747 11.4164L12.5014 11.4124L12.5705 11.47L12.5475 11.5114L12.4508 11.4561L12.3978 11.4976L12.4244 11.577L12.4233 11.5804L12.2012 11.3583H12.3492L12.3747 11.4164ZM12.2909 11.7249L12.1699 11.7118L12.0844 11.9335C12.0774 11.9347 12.0699 11.9346 12.0628 11.9356V11.4967L12.2909 11.7249ZM11.6625 11.1626L11.654 11.1269L11.569 11.1626H11.5314L11.5439 11.1109L11.5988 11.0578L11.5552 11.0479L11.5099 11.1123L11.4629 11.1338L11.4684 11.1626H11.419L11.4487 11.047L11.5357 10.9699L11.7286 11.1627H11.6625V11.1626ZM11.2994 11.3584L11.3194 11.382L11.333 11.3584H11.403L11.3119 11.4568C11.3023 11.4248 11.2946 11.3922 11.2897 11.3584H11.2994ZM11.4077 11.6563L11.5342 11.4378L11.5011 11.4082L11.5569 11.3794L11.5639 11.3583H11.6529L11.6325 11.3693L11.624 11.3986L11.693 11.3939L11.6416 11.4453L11.5895 11.4563L11.5786 11.5083L11.4181 11.6689C11.4148 11.6644 11.4109 11.6607 11.4077 11.6563ZM11.867 10.6056L11.8305 10.6L11.8588 10.7174L11.8671 10.7239V11.0242L11.7026 10.8597L11.818 10.7973L11.7137 10.6245C11.7623 10.6053 11.8138 10.5929 11.8671 10.5852L11.867 10.6056ZM10.3221 11.3584L10.3202 11.3956L10.3119 11.4453C10.3088 11.4166 10.3077 11.3874 10.306 11.3583L10.3221 11.3584ZM10.4179 11.5908L10.5397 11.7131L10.6396 11.6436L10.8749 11.841L11.128 11.8856L11.1988 11.6864C11.2226 11.7291 11.2494 11.7693 11.2798 11.8073L11.0624 12.0247L11.0973 11.9356L10.9679 11.9146L11.0094 12.0666L11.0155 12.0717L10.7231 12.364C10.5326 12.1498 10.3952 11.8875 10.3353 11.5965L10.4179 11.5908ZM11.4181 11.9456C11.5445 12.0467 11.6979 12.1124 11.867 12.1314V12.3578L11.8648 12.3631L11.867 12.3624V12.5317L11.81 12.5432L11.777 12.7556L11.867 12.7452V12.8126L11.7244 12.852L11.6769 12.8978C11.3671 12.8433 11.0872 12.7033 10.8614 12.5024L11.4181 11.9456ZM13.0691 12.7532L13.2128 12.7836L13.354 12.788L13.4317 12.8657L13.1944 12.857L13.0415 12.7739C13.0509 12.7671 13.0599 12.7601 13.0691 12.7532ZM13.2068 12.3639L13.1639 12.3211L13.2511 12.3144C13.2371 12.3315 13.2215 12.3473 13.2068 12.3639ZM13.4312 10.4756C13.3646 10.4765 13.3001 10.4774 13.2943 10.4774C13.282 10.4774 13.1861 10.5594 13.1861 10.5594L13.1128 10.6543L13.0907 10.5385L13.1427 10.4202L13.1026 10.3835L12.9232 10.4977L12.8851 10.4785L13.0253 10.3384L13.0561 10.3485L13.1455 10.3275L13.1001 10.2636L13.2067 10.1569C13.2931 10.2541 13.3693 10.3603 13.4312 10.4756ZM12.9063 10.1806L12.8978 10.1532L12.8396 10.1623L12.8035 10.2322L12.6439 10.2479C12.6556 10.2713 12.7053 10.3684 12.7098 10.3771L12.5117 10.5751C12.4696 10.5415 12.4247 10.512 12.3768 10.4864L12.4013 10.4733L12.3722 10.3749L12.3524 10.3386L12.2641 10.4352C12.2001 10.4119 12.1327 10.3972 12.0629 10.3893V9.60143C12.4479 9.62398 12.7974 9.77731 13.0685 10.0185L12.9063 10.1806ZM11.867 10.3894C11.8038 10.3966 11.743 10.4097 11.6845 10.4295L11.7138 10.3615L11.5612 10.4815L11.5614 10.482C11.5104 10.5086 11.4627 10.5396 11.4181 10.5753L10.8614 10.0186C11.1325 9.77745 11.482 9.62412 11.867 9.60157V10.3894ZM11.2483 10.6823L10.9851 10.7283L10.9943 10.6283L10.7762 10.553L10.4274 10.626C10.4992 10.4527 10.6002 10.295 10.7229 10.1569L11.2483 10.6823ZM10.4035 10.691L10.5131 10.714L10.3818 10.7503C10.3883 10.7301 10.3963 10.7108 10.4035 10.691ZM10.1102 11.1626H10.0932L10.111 11.1461C10.1107 11.1516 10.1105 11.1571 10.1102 11.1626ZM10.3189 13.0448L10.723 12.6407C10.9436 12.8393 11.2111 12.9855 11.5075 13.0608L11.3684 13.195L11.6679 13.5908L11.867 13.6018V13.8982C11.3442 13.879 10.8599 13.7089 10.457 13.4277L10.5217 13.3857L10.3189 13.0448ZM12.0627 13.6125L12.3151 13.6264L12.3216 13.6843L12.4751 13.8526C12.3412 13.879 12.2031 13.893 12.0627 13.8981V13.6125ZM13.6662 13.1L13.7602 13.194C13.7152 13.2357 13.67 13.2771 13.6223 13.3158L13.6662 13.1ZM13.7601 9.32684L13.7028 9.38417L13.6348 9.23567L13.5113 9.16995C13.5113 9.16995 13.3962 9.06842 13.3363 9.00589C13.4884 9.09879 13.6302 9.20614 13.7601 9.32684ZM13.3096 8.98962L13.3961 9.2922L13.5982 9.46807L13.606 9.48096L13.2067 9.88025C12.8999 9.60382 12.5016 9.42879 12.0627 9.40582V8.62283C12.5171 8.63956 12.9416 8.7709 13.3096 8.98962ZM11.867 9.40582C11.4281 9.42884 11.0299 9.60387 10.723 9.88025L10.1696 9.32684C10.6191 8.90928 11.2125 8.64697 11.867 8.62283V9.40582ZM10.5846 10.0186C10.3749 10.2515 10.2228 10.5365 10.1517 10.8527L9.97965 11.1626H9.3272C9.35134 10.508 9.61365 9.9146 10.0312 9.46521L10.5846 10.0186ZM9.88534 11.3584L9.69943 11.7579L9.43647 11.6601L9.38711 11.8351C9.3527 11.6808 9.33325 11.5213 9.32725 11.3583H9.88529L9.88534 11.3584ZM9.68936 13.3403L9.71973 13.3672L9.33953 13.7474C9.07703 13.4704 8.85887 13.1523 8.69369 12.8035L8.79479 12.8625L9.46918 13.4626L9.68936 13.3403ZM9.8664 13.4972L9.95846 13.5788L10.2571 13.5221C10.7084 13.8638 11.2635 14.0731 11.867 14.0939V14.8769C10.9427 14.852 10.105 14.4803 9.47786 13.8858L9.8664 13.4972ZM12.0627 14.0938C12.2286 14.0882 12.3915 14.0709 12.549 14.0377L12.5672 14.1583L13.0337 14.5023L13.559 14.2109L13.7098 13.893L13.6999 13.6963L13.7991 13.4636L13.7749 13.4447C13.8178 13.4091 13.8578 13.3704 13.8984 13.3324L13.9887 13.4226L14.0162 13.5931L14.1187 13.5525L14.452 13.8858C13.8248 14.4802 12.9871 14.8519 12.0628 14.8768V14.0938H12.0627ZM14.1654 13.3225L14.1467 13.0997L14.1216 13.1008C14.5256 12.628 14.7755 12.022 14.7983 11.3583H15.5813C15.5564 12.2826 15.1847 13.1202 14.5904 13.7474L14.1654 13.3225ZM14.7983 11.1626C14.7813 10.6686 14.6381 10.2073 14.3991 9.80824L14.7319 10.1195L14.999 9.89018L14.5891 9.27232L14.3186 9.06434L14.3193 9.04442L14.5903 8.77343C15.1846 9.40057 15.5563 10.2382 15.5812 11.1625L14.7983 11.1626ZM11.867 8.42708C11.1585 8.4514 10.5163 8.73561 10.0313 9.18851L9.47786 8.63511C10.105 8.04069 10.9427 7.66897 11.867 7.64408V8.42708ZM9.89289 9.32693C9.44003 9.81195 9.15587 10.4541 9.1315 11.1626H8.3485C8.37339 10.2382 8.74511 9.40062 9.33943 8.77348L9.89289 9.32693ZM9.1315 11.3584C9.14148 11.6494 9.19501 11.9289 9.28661 12.1915L9.25708 12.2963L8.49208 12.2795C8.40578 11.9861 8.35712 11.6773 8.34855 11.3584L9.1315 11.3584Z" fill="#F5F5F5"/>
<path d="M9.32777 15.7953L10.0345 15.6808C10.0976 15.6706 10.1238 15.5943 10.0801 15.5476C9.9101 15.366 9.57227 14.9899 9.37666 14.6697C9.10751 14.2293 8.6336 13.8662 8.6336 13.8662C8.6336 13.8662 8.72421 15.0776 9.63766 15.4935C9.63766 15.4935 8.73232 15.2651 8.15323 15.1102C7.57413 14.9552 7.41565 14.7847 7.41565 14.7847C7.41565 14.7847 7.86785 15.9421 9.32777 15.7953Z" fill="#F5F5F5"/>
<path d="M8.62637 14.4414C8.60191 14.1396 8.38131 13.368 7.96553 12.7302C7.96553 12.7302 7.96605 14.2803 8.51641 14.8053C8.51641 14.8053 7.73735 14.058 7.27244 13.7154C6.83716 13.3948 6.64441 13.0303 6.64441 13.0303C6.64441 13.0303 6.76136 14.0098 7.39478 14.4984C7.82299 14.8287 8.77319 15.0612 8.77319 15.0612C8.77319 15.0612 8.65084 14.7431 8.62637 14.4414Z" fill="#F5F5F5"/>
<path d="M7.13385 13.2831L7.60981 13.6947C7.65946 13.7376 7.7368 13.7038 7.73783 13.6381C7.74041 13.4726 7.75053 13.2213 7.78635 13.0628C7.84344 12.81 7.91403 11.989 7.62589 11.3922C7.62589 11.3922 7.27757 12.4617 7.54981 13.3524C7.54981 13.3524 7.12222 12.6725 6.68525 12.1575C6.45688 11.8883 6.36646 11.571 6.36646 11.571C6.36646 11.571 6.359 12.6388 7.13385 13.2831Z" fill="#F5F5F5"/>
<path d="M7.00318 12.2296C7.04049 12.2799 7.11788 12.2692 7.13921 12.2104C7.20179 12.0378 7.3232 11.7273 7.48449 11.4317C7.77812 10.8934 7.64265 10.2598 7.64265 10.2598C7.64265 10.2598 7.17127 11.0678 7.03463 11.9657C7.02573 11.9257 7.01598 11.8829 7.00431 11.834C6.87493 11.2902 6.37173 9.93359 6.37173 9.93359C6.37173 9.93359 6.19473 10.6786 6.41593 11.2686C6.5296 11.5714 6.84723 12.0191 7.00318 12.2296Z" fill="#F5F5F5"/>
<path d="M6.90615 11.0385C6.92035 11.0927 6.99615 11.094 7.01227 11.0404C7.05732 10.8909 7.15098 10.6848 7.34588 10.4856C7.71291 10.1104 7.99121 9.58954 8.13343 9.12407C8.13343 9.12407 7.35033 9.75238 7.1034 10.176C7.1034 10.176 7.12782 9.59343 7.04405 9.1724C6.97266 8.81352 7.12435 8.46777 7.12435 8.46777C7.12435 8.46777 6.62813 8.94407 6.70149 9.81674C6.74771 10.3659 6.84235 10.7954 6.90615 11.0385Z" fill="#F5F5F5"/>
<path d="M7.4021 9.54266C7.55064 9.40648 7.8108 9.1745 8.06163 9.03378C8.39467 8.84694 8.65806 8.24422 8.71614 8.11011C8.71614 8.11011 7.78816 8.86953 7.53555 9.11328C7.53555 9.11328 7.6885 8.4343 7.78638 8.14067C7.88425 7.84705 7.87202 7.74917 7.95766 7.62683C7.95766 7.62683 7.51113 8.01833 7.38874 8.33028C7.28819 8.58669 7.30746 9.16948 7.29377 9.49123C7.29124 9.54955 7.35911 9.58203 7.4021 9.54266Z" fill="#F5F5F5"/>
<path d="M8.3409 8.17739C8.6019 7.96533 9.01786 7.34546 9.01786 7.34546C8.91483 7.40433 8.49586 7.54937 8.14519 7.90824C7.79448 8.26711 7.72107 8.75644 7.72107 8.75644C7.72107 8.75644 8.0799 8.38946 8.3409 8.17739Z" fill="#F5F5F5"/>
<path d="M14.2674 15.9746C13.5007 15.8237 12.8442 15.7136 12.0745 15.9138C12.0367 15.9237 12.0012 15.935 11.9648 15.9457C11.9282 15.935 11.8928 15.9237 11.855 15.9138C11.0854 15.7137 10.4288 15.8237 9.66212 15.9746C8.97109 16.1106 8.30945 15.9929 8.30945 15.9929C8.30945 15.9929 8.78945 16.4803 9.88238 16.4803C10.3592 16.4803 10.9584 16.079 11.3365 16.0576C11.4296 16.0523 11.5216 16.058 11.6126 16.0682C10.8008 16.3993 10.426 16.9016 10.4186 16.9113C10.3861 16.9543 10.3944 17.0157 10.4375 17.0482C10.4551 17.0617 10.4759 17.0682 10.4965 17.0682C10.5261 17.0682 10.5553 17.0548 10.5745 17.0296C10.6044 16.9904 11.2041 16.3699 11.9648 16.1407C12.7254 16.3699 13.3252 16.9903 13.355 17.0296C13.3741 17.0549 13.4034 17.0682 13.433 17.0682C13.4536 17.0682 13.4744 17.0617 13.492 17.0482C13.5351 17.0157 13.5435 16.9543 13.5109 16.9113C13.5035 16.9016 13.1288 16.3993 12.3169 16.0682C12.408 16.058 12.4999 16.0524 12.593 16.0576C12.9711 16.079 13.5704 16.4803 14.0471 16.4803C15.1401 16.4803 15.6201 15.9929 15.6201 15.9929C15.6201 15.9929 14.9584 16.1106 14.2674 15.9746Z" fill="#F5F5F5"/>
<path d="M14.2919 15.4935C15.2054 15.0776 15.296 13.8662 15.296 13.8662C15.296 13.8662 14.822 14.2293 14.5529 14.6697C14.3573 14.9898 14.0194 15.366 13.8495 15.5476C13.8058 15.5943 13.832 15.6706 13.8951 15.6808L14.6018 15.7953C16.0618 15.9421 16.5139 14.7846 16.5139 14.7846C16.5139 14.7846 16.3554 14.9552 15.7763 15.1101C15.1972 15.2651 14.2919 15.4935 14.2919 15.4935Z" fill="#F5F5F5"/>
<path d="M16.6571 13.7154C16.1922 14.058 15.4132 14.8053 15.4132 14.8053C15.9636 14.2803 15.964 12.7302 15.964 12.7302C15.5482 13.3681 15.3277 14.1396 15.3032 14.4414C15.2787 14.7432 15.1564 15.0613 15.1564 15.0613C15.1564 15.0613 16.1065 14.8288 16.5348 14.4985C17.1682 14.0099 17.2851 13.0304 17.2851 13.0304C17.2851 13.0304 17.0924 13.3947 16.6571 13.7154Z" fill="#F5F5F5"/>
<path d="M16.3799 13.3525C16.6521 12.4618 16.3038 11.3923 16.3038 11.3923C16.0157 11.9891 16.0862 12.8102 16.1433 13.063C16.1792 13.2214 16.1893 13.4726 16.1919 13.6383C16.1929 13.7039 16.2702 13.7378 16.3199 13.6948L16.7958 13.2832C17.5707 12.6388 17.5632 11.5712 17.5632 11.5712C17.5632 11.5712 17.4728 11.8885 17.2444 12.1577C16.8075 12.6725 16.3799 13.3525 16.3799 13.3525Z" fill="#F5F5F5"/>
<path d="M16.8949 11.9658C16.7583 11.0679 16.2869 10.2599 16.2869 10.2599C16.2869 10.2599 16.1515 10.8935 16.4451 11.4318C16.6063 11.7274 16.7277 12.0378 16.7904 12.2104C16.8117 12.2693 16.8891 12.2799 16.9264 12.2296C17.0824 12.0192 17.4 11.5714 17.5135 11.2686C17.7347 10.6786 17.5577 9.93359 17.5577 9.93359C17.5577 9.93359 17.0545 11.2902 16.9252 11.834C16.9135 11.8829 16.9038 11.9257 16.8949 11.9658Z" fill="#F5F5F5"/>
<path d="M16.8855 9.1724C16.8018 9.59343 16.8262 10.176 16.8262 10.176C16.5792 9.75238 15.7961 9.12407 15.7961 9.12407C15.9384 9.58954 16.2167 10.1104 16.5837 10.4856C16.7786 10.6847 16.8723 10.8909 16.9173 11.0404C16.9334 11.094 17.0092 11.0926 17.0234 11.0385C17.0873 10.7954 17.1819 10.3658 17.228 9.81674C17.3014 8.94402 16.8052 8.46777 16.8052 8.46777C16.8052 8.46777 16.9569 8.81357 16.8855 9.1724Z" fill="#F5F5F5"/>
<path d="M16.3941 9.11336C16.1415 8.86956 15.2135 8.11019 15.2135 8.11019C15.2716 8.2443 15.535 8.84706 15.868 9.03386C16.1188 9.17453 16.379 9.40651 16.5275 9.54273C16.5705 9.58211 16.6384 9.54962 16.6359 9.49136C16.6222 9.16965 16.6415 8.58681 16.541 8.33041C16.4186 8.01845 15.972 7.62695 15.972 7.62695C16.0577 7.7493 16.0454 7.84717 16.1433 8.1408C16.2411 8.43437 16.3941 9.11336 16.3941 9.11336Z" fill="#F5F5F5"/>
<path d="M15.5887 8.17739C15.8497 8.38946 16.2085 8.75644 16.2085 8.75644C16.2085 8.75644 16.1351 8.26707 15.7844 7.90824C15.4337 7.54937 15.0148 7.40433 14.9117 7.34546C14.9117 7.34546 15.3277 7.96533 15.5887 8.17739Z" fill="#F5F5F5"/>
<path d="M13.9896 10.1948L13.8232 10.3044L14.0007 10.3321L14.1946 10.5466L14.3032 10.4766L14.173 10.2102L13.9896 10.1948Z" fill="#F5F5F5"/>
<path d="M14.2522 11.1083L14.3138 11.1319L14.4698 10.7129L14.4269 10.6548L14.3596 10.6884L14.2526 11.0677L14.2522 11.1083Z" fill="#F5F5F5"/>
<path d="M12.6866 10.3979L12.6377 10.3459L12.5276 10.4866L12.555 10.5292L12.6866 10.3979Z" fill="#F5F5F5"/>
<path d="M13.8136 10.0707L13.8434 9.97498L13.7449 9.99494L13.7171 10.0028L13.6879 10.0419L13.7943 10.1654L13.8374 10.1287L13.8136 10.0707Z" fill="#F5F5F5"/>
<path d="M11.8363 12.3126L11.8379 12.2531L11.7629 12.3616L11.7844 12.3982L11.8363 12.3126Z" fill="#F5F5F5"/>
</svg>
