<svg width="24" height="24" viewBox="0 0 24 24" fill="none" xmlns="http://www.w3.org/2000/svg">
<path d="M23.5861 19.8621H0.413812C0.185297 19.8621 0 19.6768 0 19.4483V4.55175C0 4.32324 0.185297 4.13794 0.413812 4.13794H23.5862C23.8147 4.13794 24 4.32324 24 4.55175V19.4483C24 19.6768 23.8147 19.8621 23.5861 19.8621Z" fill="#FF4B55"/>
<path d="M12.047 7.86212C14.3306 7.86212 16.1816 9.71809 16.1816 12.0001C16.1816 14.2886 14.3306 16.138 12.047 16.138C9.7584 16.138 7.90576 14.2886 7.90576 12.0001C7.90571 9.71809 9.7584 7.86212 12.047 7.86212Z" fill="#F5F5F5"/>
<path d="M12.7988 14.3187C11.5179 14.3187 10.4788 13.2797 10.4788 12.0002C10.4788 10.7238 11.5179 9.68485 12.7988 9.68485C13.2345 9.68485 13.6417 9.80691 13.9897 10.0178C14.0418 10.0493 14.0966 9.9811 14.0532 9.9383C13.5311 9.42389 12.8162 9.10529 12.0265 9.10529C10.4234 9.10529 9.12537 10.4033 9.12537 12.0003C9.12537 13.6004 10.4234 14.8984 12.0265 14.8984C12.8158 14.8984 13.5304 14.58 14.0524 14.0657C14.0959 14.0229 14.041 13.9547 13.9889 13.9862C13.641 14.1969 13.2341 14.3187 12.7988 14.3187Z" fill="#FF4B55"/>
<path d="M12.5868 10.3775L13.2264 11.2459L14.2551 10.9219C14.3882 10.8799 14.4982 11.0317 14.4169 11.1451L13.7887 12.0217L14.4147 12.8999C14.4957 13.0136 14.3854 13.165 14.2523 13.1228L13.2244 12.7961L12.5826 13.6629C12.4996 13.7751 12.3214 13.717 12.3205 13.5773L12.3136 12.4989L11.2909 12.1563C11.1585 12.112 11.1588 11.9246 11.2913 11.8807L12.3148 11.5407L12.3245 10.4623C12.3258 10.3227 12.5041 10.265 12.5868 10.3775Z" fill="#FF4B55"/>
</svg>
