<svg width="24" height="24" viewBox="0 0 24 24" fill="none" xmlns="http://www.w3.org/2000/svg">
<path d="M8.00002 19.8619H0.413813C0.185297 19.8619 0 19.6766 0 19.4481V4.55163C0 4.32311 0.185297 4.13782 0.413813 4.13782H8.00002V19.8619Z" fill="#73AF00"/>
<path d="M16.0003 4.138H8.00012V19.8622H16.0003V4.138Z" fill="#F5F5F5"/>
<path d="M23.5862 19.8619H16V4.13782H23.5862C23.8147 4.13782 24 4.32311 24 4.55163V19.4481C24 19.6767 23.8147 19.8619 23.5862 19.8619Z" fill="#73AF00"/>
<path d="M14.7637 16.0592L13.4795 8.56797C13.4304 8.28194 13.3287 8.00748 13.1794 7.75862L12 5.79297L10.8205 7.75867C10.6712 8.00753 10.5695 8.28198 10.5204 8.56802L9.23621 16.0592C9.2117 16.2023 9.32186 16.333 9.46707 16.333H11.5315V18.2068H12.4684V16.333H14.5328C14.678 16.333 14.7882 16.2023 14.7637 16.0592Z" fill="#73AF00"/>
</svg>
