<svg width="24" height="24" viewBox="0 0 24 24" fill="none" xmlns="http://www.w3.org/2000/svg">
<path d="M23.5861 19.8621H0.413812C0.185297 19.8621 0 19.6768 0 19.4483V4.55175C0 4.32324 0.185297 4.13794 0.413812 4.13794H23.5862C23.8147 4.13794 24 4.32324 24 4.55175V19.4483C24 19.6768 23.8147 19.8621 23.5861 19.8621Z" fill="#41479B"/>
<path d="M12.5301 9.49145C12.2909 9.44617 11.9999 9.14232 12.1034 8.97423C12.2068 8.80614 12.0129 8.43114 11.7801 8.56042C11.5473 8.68975 11.3922 8.8449 11.1723 8.89661C10.9525 8.94831 10.7714 9.11645 10.9395 9.27161C11.1076 9.42676 11.3662 9.73712 11.1206 10.0604C10.8749 10.3837 10.9525 10.1639 10.6551 10.3061C10.3576 10.4483 10.1507 10.7328 10.2412 10.9009C10.3318 11.069 10.4093 11.1337 10.1507 11.2501C9.89212 11.3664 9.77573 11.2889 9.56882 11.3406C9.36192 11.3923 8.85764 11.6509 8.70243 11.8707C8.54728 12.0906 8.21104 11.8837 8.06883 11.8578C7.92661 11.8319 7.64212 11.9354 7.57744 12.1035C7.5128 12.2716 7.62914 12.4268 7.87486 12.5043C8.12053 12.5819 8.22398 12.5948 8.10764 12.8018C7.99129 13.0087 8.06883 13.4095 8.26279 13.5259C8.45676 13.6423 8.83176 14.0043 8.83176 14.25C8.83176 14.4957 8.78006 14.8578 9.14212 14.9095C9.50418 14.9612 10.0602 15.1164 10.2542 15.4526C10.4481 15.7888 10.4999 15.9827 10.5387 16.1896C10.5775 16.3965 10.6162 16.5646 10.7326 16.7974C10.849 17.0302 10.9266 17.431 10.8102 17.5215C10.6938 17.6121 10.6033 17.6767 10.6938 17.8513C10.7843 18.0258 10.8037 18.0905 10.9718 17.9935C11.1399 17.8965 11.1399 17.9999 11.2304 17.9805C11.321 17.9611 11.7348 17.8124 11.6571 17.612C11.5796 17.4116 11.4115 16.9525 11.6507 16.7133C11.8899 16.4741 12.2132 16.4353 12.4201 16.2737C12.627 16.1121 12.9696 16.0862 13.2347 15.8276C13.4998 15.569 13.7843 15.7241 13.8296 15.9052C13.8748 16.0862 13.946 16.4353 14.1529 16.4288C14.3598 16.4224 14.405 16.4224 14.4438 16.1702C14.4826 15.9181 14.8059 15.3556 14.9352 15.4267C15.0645 15.4978 15.1809 15.4396 15.1873 15.3297C15.1938 15.2198 15.4395 15.1228 15.5429 15.278C15.6464 15.4332 15.8727 15.556 15.8662 15.3621C15.8598 15.1681 15.5947 15.194 15.5882 14.9806C15.5817 14.7672 15.8016 14.6315 15.9956 14.541C16.1895 14.4504 16.0731 14.2177 16.1314 14.0884C16.1895 13.959 16.5064 13.7974 16.5193 13.6681C16.5322 13.5388 16.4417 13.4871 16.5775 13.4547C16.7133 13.4224 16.8814 13.3642 16.7844 13.2155C16.6874 13.0668 16.7197 12.9569 16.8232 12.8858C16.9266 12.8147 16.9752 12.4771 16.8243 12.4333C16.6733 12.3894 16.4007 12.5161 16.3326 12.5988C16.2644 12.6816 15.987 12.3262 15.8555 12.2385C15.7241 12.1509 14.877 12.2044 14.8965 12.0584C14.916 11.9124 15.2715 11.3793 15.1163 11.2953C14.9612 11.2112 14.7155 11.0884 14.515 11.0237C14.3146 10.9591 14.3599 11.1789 14.2499 11.0043C14.14 10.8298 14.1013 10.2091 13.9784 10.2091C13.8555 10.2091 13.765 10.4677 13.7133 10.3707C13.6616 10.2737 13.7327 9.60128 13.4482 9.58834C13.1638 9.5754 13.1573 9.74349 12.9957 9.62068C12.834 9.49792 12.8571 9.55328 12.5301 9.49145Z" fill="#FF9B55"/>
<path d="M10.7736 5.81312L10.5587 6.45718L9.87981 6.46248C9.84259 6.46281 9.82717 6.51029 9.85712 6.53237L10.4033 6.93568L10.1985 7.58302C10.1873 7.61851 10.2276 7.6479 10.2579 7.62619L10.8103 7.23137L11.3626 7.62619C11.3929 7.6478 11.4333 7.61851 11.4221 7.58302L11.2173 6.93568L11.7635 6.53237C11.7934 6.51029 11.778 6.46276 11.7408 6.46248L11.0619 6.45718L10.847 5.81312C10.8353 5.77787 10.7853 5.77787 10.7736 5.81312Z" fill="#F5F5F5"/>
<path d="M13.1659 5.81312L12.9511 6.45718L12.2721 6.46248C12.2349 6.46281 12.2195 6.51029 12.2495 6.53237L12.7956 6.93568L12.5908 7.58302C12.5796 7.61851 12.62 7.6479 12.6503 7.62619L13.2027 7.23137L13.755 7.62619C13.7853 7.6478 13.8257 7.61851 13.8145 7.58302L13.6097 6.93568L14.1559 6.53237C14.1858 6.51029 14.1703 6.46276 14.1332 6.46248L13.4542 6.45718L13.2394 5.81312C13.2276 5.77787 13.1776 5.77787 13.1659 5.81312Z" fill="#F5F5F5"/>
<path d="M8.41371 6.2075L8.19888 6.85156L7.51994 6.85686C7.48272 6.85719 7.4673 6.90467 7.49726 6.92675L8.04339 7.33006L7.8386 7.97741C7.8274 8.01289 7.86775 8.04228 7.89808 8.02058L8.45046 7.62575L9.00283 8.02058C9.03311 8.04219 9.07352 8.01289 9.06231 7.97741L8.85752 7.33006L9.40366 6.92675C9.43361 6.90467 9.41819 6.85714 9.38097 6.85686L8.70203 6.85156L8.48721 6.2075C8.47544 6.17221 8.42547 6.17221 8.41371 6.2075Z" fill="#F5F5F5"/>
<path d="M6.18092 7.01905L5.96609 7.66311L5.28715 7.66841C5.24994 7.66874 5.23451 7.71622 5.26447 7.7383L5.81061 8.14161L5.60581 8.78895C5.59461 8.82444 5.63497 8.85383 5.66529 8.83213L6.21767 8.4373L6.77004 8.83213C6.80032 8.85374 6.84073 8.82444 6.82953 8.78895L6.62473 8.14161L7.17087 7.7383C7.20082 7.71622 7.1854 7.66869 7.14818 7.66841L6.46925 7.66311L6.25442 7.01905C6.24265 6.9838 6.19268 6.9838 6.18092 7.01905Z" fill="#F5F5F5"/>
<path d="M15.5928 6.2075L15.8076 6.85156L16.4866 6.85686C16.5238 6.85719 16.5392 6.90467 16.5092 6.92675L15.9631 7.33006L16.1679 7.97741C16.1791 8.01289 16.1387 8.04228 16.1084 8.02058L15.556 7.62575L15.0037 8.02058C14.9734 8.04219 14.933 8.01289 14.9442 7.97741L15.149 7.33006L14.6028 6.92675C14.5729 6.90467 14.5883 6.85714 14.6255 6.85686L15.3044 6.85156L15.5193 6.2075C15.5311 6.17221 15.581 6.17221 15.5928 6.2075Z" fill="#F5F5F5"/>
<path d="M17.8256 7.01905L18.0404 7.66311L18.7193 7.66841C18.7566 7.66874 18.772 7.71622 18.742 7.7383L18.1959 8.14161L18.4007 8.78895C18.4119 8.82444 18.3715 8.85383 18.3412 8.83213L17.7888 8.4373L17.2364 8.83213C17.2062 8.85374 17.1658 8.82444 17.177 8.78895L17.3818 8.14161L16.8356 7.7383C16.8057 7.71622 16.8211 7.66869 16.8583 7.66841L17.5372 7.66311L17.7521 7.01905C17.7638 6.9838 17.8138 6.9838 17.8256 7.01905Z" fill="#F5F5F5"/>
</svg>
