<svg width="24" height="24" viewBox="0 0 24 24" fill="none" xmlns="http://www.w3.org/2000/svg">
<path d="M24 5.88519H0V7.63222H24V5.88519Z" fill="#F5F5F5"/>
<path d="M24 9.37924H0V11.1263H24V9.37924Z" fill="#F5F5F5"/>
<path d="M24 12.8738H0V14.6208H24V12.8738Z" fill="#F5F5F5"/>
<path d="M24 14.6208H0V16.3678H24V14.6208Z" fill="#41479B"/>
<path d="M24 16.3678H0V18.1149H24V16.3678Z" fill="#F5F5F5"/>
<path d="M0.413812 19.8621H23.5862C23.8147 19.8621 24 19.6768 24 19.4483V18.1149H0V19.4483C0 19.6768 0.185297 19.8621 0.413812 19.8621Z" fill="#41479B"/>
<path d="M24 5.88511V4.55175C24 4.32324 23.8147 4.13794 23.5861 4.13794H0.413812C0.185297 4.13799 0 4.32324 0 4.55175V7.63223V9.3793V12.8736H24V11.1265H8.27586V9.37935H24V7.63223H8.27586V5.88511H24Z" fill="#41479B"/>
<path d="M8.27586 7.63221H5.01149V4.13797H3.26437V7.63221H0V9.37934H3.26437V12.8736H5.01149V9.37934H8.27586V7.63221Z" fill="#F5F5F5"/>
</svg>
