<svg width="24" height="24" viewBox="0 0 24 24" fill="none" xmlns="http://www.w3.org/2000/svg">
<path d="M23.5861 19.8621H0.413812C0.185297 19.8621 0 19.6768 0 19.4483V4.55175C0 4.32324 0.185297 4.13794 0.413812 4.13794H23.5862C23.8147 4.13794 24 4.32324 24 4.55175V19.4483C24 19.6768 23.8147 19.8621 23.5861 19.8621Z" fill="#41479B"/>
<path d="M12.1683 5.93838L12.3343 6.43586L12.8587 6.43994C12.9266 6.44046 12.9547 6.52708 12.9001 6.56744L12.4782 6.87897L12.6364 7.37894C12.6569 7.44363 12.5832 7.49725 12.5279 7.45774L12.1013 7.15277L11.6747 7.45774C11.6195 7.49721 11.5457 7.44367 11.5662 7.37894L11.7244 6.87897L11.3025 6.56744C11.2479 6.52708 11.276 6.44046 11.3439 6.43994L11.8683 6.43586L12.0343 5.93838C12.0557 5.87397 12.1469 5.87397 12.1683 5.93838Z" fill="#FFE15A"/>
<path d="M12.1683 16.6194L12.3343 17.1169L12.8587 17.1209C12.9266 17.1215 12.9547 17.2081 12.9001 17.2484L12.4782 17.56L12.6364 18.0599C12.6569 18.1246 12.5832 18.1783 12.5279 18.1387L12.1013 17.8338L11.6747 18.1387C11.6195 18.1782 11.5457 18.1247 11.5662 18.0599L11.7244 17.56L11.3025 17.2484C11.2479 17.2081 11.276 17.1215 11.3439 17.1209L11.8683 17.1169L12.0343 16.6194C12.0557 16.555 12.1469 16.555 12.1683 16.6194Z" fill="#FFE15A"/>
<path d="M17.5088 11.2789L17.6747 11.7764L18.1991 11.7805C18.267 11.781 18.2952 11.8676 18.2405 11.908L17.8187 12.2195L17.9768 12.7195C17.9973 12.7841 17.9236 12.8378 17.8684 12.7983L17.4418 12.4933L17.0151 12.7983C16.9599 12.8377 16.8862 12.7842 16.9067 12.7195L17.0648 12.2195L16.643 11.908C16.5883 11.8676 16.6165 11.781 16.6844 11.7805L17.2088 11.7764L17.3747 11.2789C17.3961 11.2145 17.4873 11.2145 17.5088 11.2789Z" fill="#FFE15A"/>
<path d="M6.82775 11.2789L6.99369 11.7764L7.51808 11.7805C7.586 11.781 7.61412 11.8676 7.55951 11.908L7.13764 12.2195L7.2958 12.7195C7.31628 12.7841 7.24259 12.8378 7.18733 12.7983L6.76072 12.4933L6.33411 12.7983C6.27889 12.8377 6.20516 12.7842 6.22564 12.7195L6.3838 12.2195L5.96192 11.908C5.90731 11.8676 5.93544 11.781 6.00336 11.7805L6.52775 11.7764L6.69369 11.2789C6.71516 11.2145 6.80633 11.2145 6.82775 11.2789Z" fill="#FFE15A"/>
<path d="M7.62951 8.49002L7.79545 8.9875L8.31983 8.99158C8.38776 8.99209 8.41588 9.07872 8.36127 9.11908L7.9394 9.43061L8.09755 9.93058C8.11804 9.99526 8.04435 10.0489 7.98909 10.0094L7.56248 9.7044L7.13587 10.0094C7.08065 10.0488 7.00692 9.99531 7.0274 9.93058L7.18556 9.43061L6.76368 9.11908C6.70907 9.07872 6.7372 8.99209 6.80512 8.99158L7.32951 8.9875L7.49545 8.49002C7.51691 8.42561 7.60799 8.42561 7.62951 8.49002Z" fill="#FFE15A"/>
<path d="M16.8795 13.8305L17.0454 14.328L17.5698 14.3321C17.6378 14.3326 17.6659 14.4192 17.6113 14.4596L17.1894 14.7711L17.3476 15.2711C17.368 15.3358 17.2944 15.3894 17.2391 15.3499L16.8125 15.0449L16.3859 15.3499C16.3306 15.3894 16.2569 15.3358 16.2774 15.2711L16.4356 14.7711L16.0137 14.4596C15.9591 14.4192 15.9872 14.3326 16.0551 14.3321L16.5795 14.328L16.7454 13.8305C16.7669 13.7661 16.858 13.7661 16.8795 13.8305Z" fill="#FFE15A"/>
<path d="M14.9248 6.53524L15.0907 7.03273L15.6151 7.0368C15.683 7.03732 15.7112 7.12394 15.6566 7.1643L15.2347 7.47583L15.3928 7.9758C15.4133 8.04049 15.3396 8.09411 15.2844 8.0546L14.8578 7.74963L14.4312 8.0546C14.3759 8.09407 14.3022 8.04054 14.3227 7.9758L14.4808 7.47583L14.059 7.1643C14.0044 7.12394 14.0325 7.03732 14.1004 7.0368L14.6248 7.03273L14.7907 6.53524C14.8122 6.47084 14.9032 6.47084 14.9248 6.53524Z" fill="#FFE15A"/>
<path d="M9.58422 15.7853L9.75016 16.2828L10.2745 16.2869C10.3425 16.2874 10.3706 16.374 10.316 16.4144L9.89411 16.7259L10.0523 17.2259C10.0727 17.2906 9.99906 17.3442 9.9438 17.3047L9.51719 16.9997L9.09058 17.3047C9.03536 17.3441 8.96163 17.2906 8.98211 17.2259L9.14027 16.7259L8.71839 16.4144C8.66378 16.374 8.69191 16.2874 8.75983 16.2869L9.28422 16.2828L9.45016 15.7853C9.47163 15.7209 9.5627 15.7209 9.58422 15.7853Z" fill="#FFE15A"/>
<path d="M16.7454 8.49002L16.5795 8.9875L16.0551 8.99158C15.9872 8.99209 15.9591 9.07872 16.0137 9.11908L16.4356 9.43061L16.2774 9.93058C16.2569 9.99526 16.3306 10.0489 16.3859 10.0094L16.8125 9.7044L17.2391 10.0094C17.2943 10.0488 17.368 9.99531 17.3476 9.93058L17.1894 9.43061L17.6113 9.11908C17.6659 9.07872 17.6378 8.99209 17.5698 8.99158L17.0454 8.9875L16.8795 8.49002C16.858 8.42561 16.7669 8.42561 16.7454 8.49002Z" fill="#FFE15A"/>
<path d="M7.49545 13.8305L7.32951 14.328L6.80512 14.3321C6.7372 14.3326 6.70907 14.4192 6.76368 14.4596L7.18556 14.7711L7.0274 15.2711C7.00692 15.3358 7.0806 15.3894 7.13587 15.3499L7.56248 15.0449L7.98909 15.3499C8.0443 15.3894 8.11804 15.3358 8.09755 15.2711L7.9394 14.7711L8.36127 14.4596C8.41588 14.4192 8.38776 14.3326 8.31983 14.3321L7.79545 14.328L7.62951 13.8305C7.60799 13.7661 7.51691 13.7661 7.49545 13.8305Z" fill="#FFE15A"/>
<path d="M9.45016 6.53524L9.28422 7.03273L8.75983 7.0368C8.69191 7.03732 8.66378 7.12394 8.71839 7.1643L9.14027 7.47583L8.98211 7.9758C8.96163 8.04049 9.03531 8.09411 9.09058 8.0546L9.51719 7.74963L9.9438 8.0546C9.99902 8.09407 10.0727 8.04054 10.0523 7.9758L9.89411 7.47583L10.316 7.1643C10.3706 7.12394 10.3425 7.03732 10.2745 7.0368L9.75016 7.03273L9.58422 6.53524C9.5627 6.47084 9.47163 6.47084 9.45016 6.53524Z" fill="#FFE15A"/>
<path d="M14.7907 15.7853L14.6248 16.2828L14.1004 16.2869C14.0325 16.2874 14.0044 16.374 14.059 16.4144L14.4808 16.7259L14.3227 17.2259C14.3022 17.2906 14.3759 17.3442 14.4312 17.3047L14.8578 16.9997L15.2844 17.3047C15.3396 17.3441 15.4133 17.2906 15.3928 17.2259L15.2347 16.7259L15.6566 16.4144C15.7112 16.374 15.683 16.2874 15.6151 16.2869L15.0907 16.2828L14.9248 15.7853C14.9033 15.7209 14.8122 15.7209 14.7907 15.7853Z" fill="#FFE15A"/>
</svg>
