<svg width="24" height="24" viewBox="0 0 24 24" fill="none" xmlns="http://www.w3.org/2000/svg">
<path d="M23.5861 4.13792H0.413812C0.185297 4.13792 0 4.32322 0 4.55174V19.4482C0 19.6767 0.185297 19.862 0.413812 19.862H23.5862C23.8147 19.862 24 19.6767 24 19.4482V4.55174C24 4.32322 23.8147 4.13792 23.5861 4.13792Z" fill="#FF6E55"/>
<path d="M0.152625 19.762L23.8473 4.23796C23.7756 4.17828 23.6867 4.13792 23.5861 4.13792H0.413812C0.185297 4.13792 0 4.32322 0 4.55174V19.4482C0 19.5761 0.061453 19.6861 0.152625 19.762Z" fill="#FFE15A"/>
<path d="M13.1962 8.34497C12.9882 8.3895 12.6616 8.27812 12.6616 8.27812C12.7289 8.39404 12.9089 8.47209 13.0712 8.52121C12.9401 8.53429 12.7907 8.5417 12.6244 8.53804C11.9561 8.52314 11.6443 8.96128 11.6443 8.96128C11.8819 8.81273 12.1269 8.81273 12.4908 8.86476C12.8546 8.91675 13.6268 8.68659 13.6268 8.68659L13.6937 8.38959C13.6937 8.38959 13.4041 8.30043 13.1962 8.34497Z" fill="#FFF5DC"/>
<path d="M13.883 6.95277C13.883 6.95277 14.2285 7.02599 14.5792 7.22723C14.5581 7.23829 14.5379 7.25184 14.5187 7.26773C14.4053 7.21138 14.2684 7.16577 14.0908 7.14768C14.0908 7.14768 14.2746 7.19549 14.4512 7.33377C14.4055 7.38763 14.3678 7.4489 14.3388 7.50337C13.9504 7.08684 13.5303 7.36485 13.5303 7.36485C14.0514 7.32524 14.1743 7.66007 14.2037 7.82179C14.1028 7.75434 14.0077 7.69874 13.9185 7.65351C13.9316 7.64371 13.9382 7.6349 13.9536 7.62482C13.9536 7.62482 13.9209 7.62613 13.8756 7.63288C13.2106 7.31324 12.8843 7.56538 12.8843 7.56538C13.1796 7.52929 13.4526 7.60607 13.6692 7.70169C13.574 7.75649 13.5096 7.85301 13.5627 8.01707C13.1897 7.91558 12.721 7.8156 12.4907 7.87724C12.0749 7.98862 12.2086 8.37472 12.2086 8.37472C12.2086 8.37472 12.216 8.11485 12.4982 8.05541C12.7094 8.01093 13.7604 8.34501 13.7604 8.34501L14.102 8.18165L13.9609 8.06282C13.9609 8.06282 13.6898 7.95398 13.806 7.76694C14.0004 7.87058 14.1242 7.97366 14.1242 7.97366L14.2078 7.85155C14.2119 7.88315 14.2133 7.90687 14.2133 7.90687L14.4509 7.80294L14.5029 7.72865C14.5237 7.61596 14.5581 7.5358 14.5978 7.4758C14.6665 7.56219 14.7233 7.66888 14.7517 7.80098L14.967 7.82329C14.967 7.82329 14.9321 7.57438 14.6911 7.37643C14.7125 7.36124 14.7336 7.34863 14.7544 7.34024C14.913 7.4541 15.061 7.59646 15.1638 7.77505L15.561 7.76948C15.5611 7.76957 14.9076 7.04188 13.883 6.95277Z" fill="#FFF5DC"/>
<path d="M17.6738 10.9586C17.9485 10.9586 18.1712 10.7358 18.1712 10.4611C18.1712 10.1863 17.9485 9.96359 17.6738 9.96359C17.399 9.96359 17.1763 10.1863 17.1763 10.4611C17.1763 10.7358 17.399 10.9586 17.6738 10.9586Z" fill="#FFF5DC"/>
<path d="M16.5121 15.3158C16.8807 15.3158 17.1795 15.017 17.1795 14.6484C17.1795 14.2798 16.8807 13.981 16.5121 13.981C16.1435 13.981 15.8447 14.2798 15.8447 14.6484C15.8447 15.017 16.1435 15.3158 16.5121 15.3158Z" fill="#FFF5DC"/>
<path d="M11.4244 14.854C11.7165 14.854 11.9534 14.6171 11.9534 14.325C11.9534 14.0328 11.7165 13.796 11.4244 13.796C11.1322 13.796 10.8954 14.0328 10.8954 14.325C10.8954 14.6171 11.1322 14.854 11.4244 14.854Z" fill="#FFF5DC"/>
<path d="M10.2075 17.4478C10.5448 17.4478 10.8182 17.1743 10.8182 16.837C10.8182 16.4997 10.5448 16.2262 10.2075 16.2262C9.87014 16.2262 9.59668 16.4997 9.59668 16.837C9.59668 17.1743 9.87014 17.4478 10.2075 17.4478Z" fill="#FFF5DC"/>
<path d="M16.0251 9.1618C16.0251 9.1618 17.169 9.56942 17.4452 9.70752C17.835 9.90242 18.4476 9.33439 18.8764 9.77436C18.8764 9.77436 18.8021 9.48106 18.4457 9.4588C18.4457 9.4588 18.4532 9.16921 18.119 9.18411C18.119 9.18411 18.3641 9.36228 18.223 9.48856C18.223 9.48856 18.1265 9.27322 17.8517 9.31039C17.8517 9.31039 18.0596 9.39205 18.0077 9.51828C18.0077 9.51828 17.6772 9.67789 17.5287 9.57397C17.3802 9.47 16.2071 8.837 15.8358 8.82214L16.0251 9.1618Z" fill="#FFF5DC"/>
<path d="M15.7319 9.51813C15.7319 9.51813 15.9769 9.59055 16.3334 9.96363C16.4985 10.1366 16.9236 10.1474 16.8568 9.81326C16.79 9.47913 15.9658 9.27312 15.8767 9.27312C15.7877 9.27312 15.7319 9.51813 15.7319 9.51813Z" fill="#F5F5F5"/>
<path d="M17.5177 8.7831L17.0499 8.93905C17.0499 8.93905 17.1019 9.25649 16.8346 9.3957C16.6699 9.48149 16.5599 9.70381 16.5672 9.86717C16.5672 9.86717 16.7232 9.65183 16.9459 9.53305C16.9984 9.50506 17.0467 9.48055 17.0908 9.45566C17.0819 9.56699 17.0796 9.68384 17.0944 9.78552C17.139 10.0899 17.0425 10.1939 17.0425 10.1939C17.0425 10.1939 17.3024 9.99341 17.2726 9.66674C17.2612 9.5412 17.2818 9.45228 17.3137 9.38478C17.3367 9.61227 17.4582 9.71877 17.4582 9.71877C17.3691 9.54059 17.5547 9.34747 17.629 9.19156C17.7033 9.03552 17.5177 8.7831 17.5177 8.7831Z" fill="#FFF5DC"/>
<path d="M18.7001 8.13711C18.516 8.07448 18.3382 8.18722 18.2323 8.28191C18.1873 8.32222 18.0686 8.3427 17.9471 8.35372C18.0282 8.29634 18.1146 8.22861 18.16 8.17058C18.2602 8.04252 18.444 8.0202 18.5999 7.97009C18.7559 7.91999 18.8227 7.7195 18.8227 7.7195C18.8227 7.7195 18.7392 7.84203 18.5053 7.83088C18.2714 7.81972 18.1934 7.80856 18.0375 7.97567C17.9895 8.02705 17.9224 8.06675 17.8528 8.09867C17.8543 8.02569 17.8606 7.93283 17.8815 7.86988C17.9205 7.75292 18.0987 7.65828 18.1098 7.42438C18.1209 7.19047 18.1321 7.21278 18.2658 7.07352C18.3994 6.9343 18.4384 6.67255 18.3994 6.75608C18.3604 6.83961 18.1823 6.93988 18.0319 7.0791C17.8815 7.21831 17.9874 7.37422 17.9094 7.49675C17.8314 7.61928 17.6476 7.64713 17.6364 7.87541C17.6253 8.10374 17.4638 8.23738 17.4638 8.23738C17.4638 8.23738 17.0684 8.45455 17.5418 8.62723C18.0151 8.79987 18.3981 8.31959 18.6332 8.33211C19.1567 8.35995 19.2959 8.18731 19.2959 8.18731C19.2069 8.18727 18.9786 8.2318 18.7001 8.13711Z" fill="#FFF5DC"/>
<path d="M12.9587 11.8051C12.929 11.7828 12.4167 11.2185 12.2459 11.1368L12.283 11.2779C12.283 11.2779 12.1716 11.2705 11.9711 11.0255C11.7706 10.7804 11.6221 10.7136 11.6221 10.7136C11.6221 10.7136 11.7632 10.9364 11.7558 11.0774C11.7558 11.0774 11.4513 11.0551 11.1247 11.2111C11.1247 11.2111 10.9762 10.9215 10.85 10.8695C10.85 10.8695 10.8945 11.174 10.7906 11.2482C10.6866 11.3225 11.7707 11.8348 11.9192 11.8497C12.0677 11.8645 12.9587 11.8051 12.9587 11.8051Z" fill="#FFF5DC"/>
<path d="M13.6344 10.6988C13.6238 10.6962 13.569 10.7347 13.4983 10.7852C13.4671 10.6048 13.4042 10.2403 13.4042 10.2236C13.4042 10.2013 12.8993 9.49593 12.8844 9.46621C12.8841 9.46569 12.8825 9.46565 12.8821 9.46518C12.9311 9.34658 12.984 9.14465 12.6839 9.30285C12.2755 9.51824 12.1122 10.0157 12.1122 10.0157C12.2053 9.91855 12.3677 9.84439 12.4974 9.79621C12.5001 9.85677 12.5005 9.92868 12.4166 10.0528C12.2458 10.3052 12.3423 10.4018 12.3423 10.4018C12.4759 10.1716 12.7729 10.1493 12.7729 10.1493C12.7284 10.424 12.8843 10.58 12.8843 10.58L13.0105 10.4315C12.9949 10.644 13.1087 10.8721 13.1794 10.992C13.1515 11.0055 13.126 11.0158 13.1071 11.018C12.9808 11.0329 12.7804 11.1294 12.7804 11.1294C12.7804 11.1294 12.9429 11.0947 13.0351 11.166C13.1273 11.2373 13.2741 11.2918 13.3538 11.275C13.3538 11.275 13.316 11.4679 13.3579 11.5392C13.3579 11.5392 13.2531 11.5097 13.1315 11.514C13.0099 11.5182 12.9214 11.4338 12.9214 11.4338C12.9214 11.4338 13.1442 11.753 13.3075 11.8199C13.4708 11.8867 13.753 11.6417 13.753 11.6417C13.753 11.6417 13.6641 10.7061 13.6344 10.6988Z" fill="#FFF5DC"/>
<path d="M9.7956 15.3543C9.7956 15.3543 9.65451 15.3692 9.52092 15.5697L9.46153 15.3618C9.46153 15.3618 9.29817 15.4806 9.12 15.4063C9.12 15.4063 9.28335 15.3692 9.31303 15.2207C9.3427 15.0722 9.40214 15.0573 9.40214 15.0573C9.40214 15.0573 9.29076 14.9385 9.17198 14.946C9.17198 14.946 9.49865 14.7752 9.67692 14.9385C9.85495 15.1019 9.7956 15.3543 9.7956 15.3543Z" fill="#FFF5DC"/>
<path d="M13.7235 13.7134C13.7235 13.7134 13.5824 13.7283 13.4488 13.9287L13.3894 13.7208C13.3894 13.7208 13.226 13.8396 13.0479 13.7653C13.0479 13.7653 13.2112 13.7282 13.2409 13.5797C13.2706 13.4312 13.33 13.4164 13.33 13.4164C13.33 13.4164 13.2186 13.2975 13.0998 13.305C13.0998 13.305 13.4265 13.1342 13.6048 13.2975C13.7829 13.4609 13.7235 13.7134 13.7235 13.7134Z" fill="#FFF5DC"/>
<path d="M16.1319 11.601C16.1319 11.601 16.063 11.725 16.1504 11.9495L15.946 11.8787C15.946 11.8787 15.9495 12.0807 15.7863 12.1839C15.7863 12.1839 15.8498 12.0288 15.7453 11.9192C15.6408 11.8096 15.6627 11.7524 15.6627 11.7524C15.6627 11.7524 15.5015 11.7753 15.4393 11.8769C15.4393 11.8769 15.4872 11.5113 15.7233 11.4593C15.9594 11.4073 16.1319 11.601 16.1319 11.601Z" fill="#FFF5DC"/>
<path d="M16.8468 14.1103L16.9905 14.196C16.9487 14.1601 16.8991 14.1331 16.8468 14.1103Z" fill="#FF6E55"/>
<path d="M8.74109 14.8271C8.74109 14.8271 8.08025 15.7553 7.32289 15.9557L7.59022 15.6142C7.59022 15.6142 7.23378 15.9261 6.83286 15.9929L7.31549 15.436C7.31549 15.436 6.23886 16.4384 4.85779 16.6463C4.85779 16.6463 5.927 15.9707 6.14235 15.733C6.14235 15.733 5.62255 15.9409 5.15479 15.9483C5.15479 15.9483 6.49874 15.4285 6.72149 15.2207C6.72149 15.2207 6.18688 15.3395 5.85275 15.2282C5.85275 15.2282 7.01108 14.894 7.17439 14.9386C7.17439 14.9386 6.5061 14.6712 6.10518 14.701C6.10518 14.701 6.78828 14.5376 7.58277 14.701L7.41196 14.5153C7.41196 14.5153 7.86491 14.3965 8.31041 14.3668C8.75591 14.3372 8.5332 14.3 8.5332 14.3L8.58519 14.1515C8.58519 14.1515 8.29559 14.1886 8.05803 14.1515C8.05803 14.1515 8.77086 13.7505 8.97134 13.5723C9.17183 13.3942 9.03819 13.4758 9.03819 13.4758C9.03819 13.4758 8.66689 13.602 8.53325 13.6243C8.53325 13.6243 8.86737 13.2382 8.97134 12.9858C8.97134 12.9858 8.66689 13.1046 8.40702 12.9858C8.40702 12.9858 8.71887 12.8966 8.87483 12.7407C9.03078 12.5848 9.26094 12.1968 9.26094 12.1968L8.99361 12.3138C8.99361 12.3138 9.22751 11.9128 9.43358 11.8126C9.43358 11.8126 9.08272 11.8405 8.97139 11.7569C8.97139 11.7569 9.34451 11.6678 9.45589 11.5788C9.56726 11.4896 9.81233 11.2557 10.0629 11.3449C10.0629 11.3449 10.4137 11.0218 10.2968 10.8102C10.2968 10.8102 10.5251 10.8269 10.6421 10.9662C10.759 11.1054 10.9428 11.2224 10.9428 11.2224L9.98862 11.9686L9.26098 14.3298L8.74109 14.8271Z" fill="#FFF5DC"/>
<path d="M18.0894 10.372C18.3642 10.8175 18.0225 10.8621 18.0225 10.8621C17.9706 10.4388 17.6142 10.4909 17.6142 10.4909L17.7107 10.8027C17.1167 10.877 17.1612 10.2829 17.1612 10.2829C17.0721 10.3572 16.9236 10.6616 16.9236 10.6616C16.9236 10.6616 15.3198 11.1962 14.2357 9.60724C14.2357 9.60724 14.206 9.32505 14.2951 9.19137L13.6268 8.68648L12.7655 8.80531C12.7655 8.80531 12.424 9.57748 12.8398 10.0527C13.2556 10.5279 13.7457 11.1962 13.6566 11.5081C13.6037 11.6929 13.4466 11.7682 13.2284 11.7525C13.0784 11.7416 12.8997 11.6879 12.7062 11.5972C12.231 11.3744 11.0727 10.8993 10.2411 11.2853C9.40947 11.6714 9.31923 12.3395 9.157 12.8595C9.01337 13.3197 8.69467 14.4947 6.42424 15.5666C6.31577 15.6178 6.37094 15.7827 6.48733 15.7538C7.47152 15.5091 8.81331 15.1014 9.2275 14.6192L9.56162 14.6304L9.43909 15.1427C9.43909 15.1427 9.87348 15.2763 9.94028 15.9112C9.94028 15.9112 9.17922 16.1191 9.60986 16.7725C9.60986 16.7725 9.6767 16.2973 10.2039 16.2751C10.2039 16.2751 10.3227 16.431 10.5825 16.4532C10.5825 16.4532 10.7162 16.6686 10.6494 16.8468C10.6494 16.8468 11.1765 16.6834 10.731 16.0523C10.731 16.0523 11.2285 15.9335 11.2953 16.5572C11.2953 16.5572 11.6146 15.5474 10.4749 15.6216C10.4749 15.6216 10.4749 15.4434 10.1742 15.1204C10.1742 15.1204 10.1 14.9385 10.1742 14.686C10.1965 14.6101 10.2167 14.5312 10.2336 14.4509C10.2955 14.4852 10.3907 14.5258 10.5157 14.5302C10.5157 14.5302 10.7013 14.8346 11.2508 14.7826C11.2508 14.7826 10.8498 14.597 10.887 14.2406C10.9241 13.8842 11.3919 13.6911 11.5924 13.8322C11.5924 13.8322 11.5404 13.3644 10.8128 13.6688C10.8128 13.6688 10.8128 13.3198 11.1989 13.2976C11.1989 13.2976 10.5752 12.8224 10.4341 13.7282L10.176 13.7927C10.0499 13.4432 9.89012 12.6316 10.5974 12.336C11.3436 12.0242 12.1233 12.7259 13.5044 12.7927C13.5044 12.7927 13.3707 13.6057 13.8162 13.8062C14.2617 14.0067 15.3532 14.1961 15.3532 14.1961C15.3421 15.3692 16.1959 15.2132 16.1959 15.2132C15.7815 14.9649 15.7815 14.4911 16.0373 14.2143C16.3859 13.8372 16.9904 14.196 16.9904 14.196C16.9819 13.6249 16.1811 13.7133 16.1811 13.7133C16.3073 13.3421 16.8047 13.2455 16.8047 13.2455C16.1142 12.9931 15.5425 13.7393 15.5425 13.7393L14.373 13.4052C14.373 13.4052 14.3285 13.1713 14.6069 12.8595C14.8853 12.5477 15.1193 12.0241 15.0413 11.4673C15.0413 11.4673 15.3643 11.2408 15.7652 11.4636C16.1662 11.6864 17.0275 11.1963 17.0275 11.1963C17.3988 11.6714 18.2823 11.5824 18.4011 11.0107C18.5201 10.4388 18.0894 10.372 18.0894 10.372Z" fill="#F5F5F5"/>
<path d="M16.8643 9.00584C16.6434 8.87698 16.248 8.76823 16.1144 9.06523C15.9807 9.36223 15.8322 9.65923 15.3719 9.64437C14.9115 9.62951 14.7036 10.023 14.3843 9.9117C14.3843 9.9117 14.6813 9.81518 14.7407 9.67409C14.8001 9.533 15.0377 9.27312 15.0377 9.27312L15.0081 9.00579C15.0081 9.00579 14.4586 9.03542 14.2952 9.19137C14.1319 9.34733 13.5156 9.05778 13.5156 9.05778L13.5899 8.4118C13.5899 8.4118 14.0651 7.68416 14.726 7.73614C15.3868 7.78813 15.4982 7.61731 15.8175 7.63963C16.1368 7.66194 16.3001 7.98861 16.6416 8.06286C16.9831 8.13716 17.6663 7.99602 17.7554 8.20395C17.8445 8.41184 17.5846 8.49355 17.5178 8.78309C17.4509 9.07264 17.3098 9.26576 16.8643 9.00584Z" fill="#F5F5F5"/>
<path d="M14.9337 8.82022C14.9337 8.82022 14.6144 9.03556 14.3471 8.94641C14.0798 8.8573 13.8422 8.88702 13.5675 8.97608C13.5675 8.97608 14.0724 8.91669 14.2803 9.10972C14.4882 9.30275 15.0154 9.17656 15.0525 9.09486L14.9337 8.82022Z" fill="#FFF5DC"/>
<path d="M15.0971 9.31766C15.0971 9.31766 14.7852 9.54045 14.4734 9.48101C14.1615 9.42162 13.8794 9.54786 13.8794 9.54786C13.8794 9.54786 14.1095 9.29539 14.4214 9.33997C14.7333 9.3845 14.8446 9.08009 14.8446 9.08009L15.0525 9.09495L15.0971 9.31766Z" fill="#FFF5DC"/>
<path d="M15.3496 9.45898C15.5793 9.45898 15.7655 9.27278 15.7655 9.0431C15.7655 8.81342 15.5793 8.62723 15.3496 8.62723C15.1199 8.62723 14.9337 8.81342 14.9337 9.0431C14.9337 9.27278 15.1199 9.45898 15.3496 9.45898Z" fill="#FFF5DC"/>
<path d="M15.1044 8.73112C15.1044 8.73112 14.941 8.52323 14.5326 8.60493C14.1243 8.68659 14.0277 8.53809 14.0277 8.53809C14.0277 8.53809 14.2207 8.83509 14.5252 8.79796C14.8296 8.76084 14.9558 8.96877 14.9558 8.96877L15.1044 8.73112Z" fill="#FFF5DC"/>
<path d="M16.4783 8.21122C16.515 8.16064 16.5612 8.11241 16.6243 8.0757C16.6615 8.05405 16.6998 8.04036 16.7377 8.02911C16.7461 7.97272 16.7378 7.91192 16.7057 7.85671C16.6355 7.73624 16.4896 7.69049 16.3797 7.75452C16.2699 7.8185 16.2377 7.96803 16.3079 8.0885C16.3473 8.15609 16.4109 8.19683 16.4783 8.21122Z" fill="#FFF5DC"/>
<path d="M16.1136 8.68954C16.1345 8.63062 16.1651 8.57137 16.2152 8.51821C16.2448 8.4869 16.2776 8.46299 16.3108 8.44143C16.3029 8.38499 16.2778 8.32897 16.2313 8.2851C16.1299 8.18943 15.9769 8.1868 15.8897 8.27924C15.8024 8.37168 15.8139 8.52421 15.9153 8.61988C15.9724 8.67379 16.0448 8.69488 16.1136 8.68954Z" fill="#FFF5DC"/>
</svg>
