<svg width="24" height="24" viewBox="0 0 24 24" fill="none" xmlns="http://www.w3.org/2000/svg">
<path d="M23.5861 19.8621H0.413812C0.185297 19.8621 0 19.6768 0 19.4483V4.55175C0 4.32324 0.185297 4.13794 0.413812 4.13794H23.5862C23.8147 4.13794 24 4.32324 24 4.55175V19.4483C24 19.6768 23.8147 19.8621 23.5861 19.8621Z" fill="#F5F5F5"/>
<path d="M24 10.7586H13.2414V4.13797H10.7586V10.7586H0V13.2414H10.7586V19.8621H13.2414V13.2414H24V10.7586Z" fill="#FF4B55"/>
<path d="M7.0345 6.88284C6.62463 6.92404 6.2231 6.96534 5.821 7.00668C5.86235 6.60454 5.9036 6.20301 5.9449 5.79318C5.56901 5.84179 5.18974 5.84179 4.81385 5.79318C4.85505 6.20301 4.89635 6.60459 4.93774 7.00668C4.5356 6.96538 4.13402 6.92409 3.72424 6.88284C3.77285 7.25868 3.77285 7.63799 3.72424 8.01383C4.13412 7.97263 4.53565 7.93133 4.93774 7.88999C4.8964 8.29213 4.8551 8.69366 4.81385 9.10349C5.18974 9.05488 5.56901 9.05488 5.9449 9.10349C5.90369 8.69366 5.86235 8.29208 5.821 7.88999C6.22314 7.93129 6.62468 7.97258 7.0345 8.01383C6.98594 7.63799 6.98594 7.25863 7.0345 6.88284Z" fill="#FF4B55"/>
<path d="M20.2758 6.88284C19.866 6.92404 19.4644 6.96534 19.0623 7.00668C19.1037 6.60454 19.1449 6.20301 19.1862 5.79318C18.8103 5.84179 18.4311 5.84179 18.0552 5.79318C18.0964 6.20301 18.1377 6.60459 18.1791 7.00668C17.7769 6.96538 17.3754 6.92409 16.9656 6.88284C17.0142 7.25868 17.0142 7.63799 16.9656 8.01383C17.3755 7.97263 17.777 7.93133 18.1791 7.88999C18.1377 8.29213 18.0964 8.69366 18.0552 9.10349C18.4311 9.05488 18.8103 9.05488 19.1862 9.10349C19.145 8.69366 19.1037 8.29208 19.0623 7.88999C19.4645 7.93129 19.866 7.97258 20.2758 8.01383C20.2273 7.63799 20.2273 7.25863 20.2758 6.88284Z" fill="#FF4B55"/>
<path d="M7.0345 15.9862C6.62463 16.0274 6.2231 16.0687 5.821 16.11C5.86235 15.7079 5.9036 15.3064 5.9449 14.8965C5.56901 14.9452 5.18974 14.9452 4.81385 14.8965C4.85505 15.3064 4.89635 15.708 4.93774 16.11C4.5356 16.0687 4.13402 16.0274 3.72424 15.9862C3.77285 16.362 3.77285 16.7414 3.72424 17.1172C4.13412 17.076 4.53565 17.0347 4.93774 16.9934C4.8964 17.3955 4.8551 17.797 4.81385 18.2069C5.18974 18.1582 5.56901 18.1582 5.9449 18.2069C5.90369 17.797 5.86235 17.3954 5.821 16.9934C6.22314 17.0347 6.62468 17.0759 7.0345 17.1172C6.98594 16.7414 6.98594 16.362 7.0345 15.9862Z" fill="#FF4B55"/>
<path d="M20.2758 15.9862C19.866 16.0274 19.4644 16.0687 19.0623 16.11C19.1037 15.7079 19.1449 15.3064 19.1862 14.8965C18.8103 14.9452 18.4311 14.9452 18.0552 14.8965C18.0964 15.3064 18.1377 15.708 18.1791 16.11C17.7769 16.0687 17.3754 16.0274 16.9656 15.9862C17.0142 16.362 17.0142 16.7414 16.9656 17.1172C17.3755 17.076 17.777 17.0347 18.1791 16.9934C18.1377 17.3955 18.0964 17.797 18.0552 18.2069C18.4311 18.1582 18.8103 18.1582 19.1862 18.2069C19.145 17.797 19.1037 17.3954 19.0623 16.9934C19.4645 17.0347 19.866 17.0759 20.2758 17.1172C20.2273 16.7414 20.2273 16.362 20.2758 15.9862Z" fill="#FF4B55"/>
</svg>
