<svg width="24" height="24" viewBox="0 0 24 24" fill="none" xmlns="http://www.w3.org/2000/svg">
<path d="M24 9.3793H0V4.55175C0 4.32324 0.185297 4.13794 0.413812 4.13794H23.5862C23.8147 4.13794 24 4.32324 24 4.55175L24 9.3793Z" fill="#73AF00"/>
<path d="M23.5861 19.8621H0.413812C0.185297 19.8621 0 19.6768 0 19.4483V14.6207H24V19.4483C24 19.6768 23.8147 19.8621 23.5861 19.8621Z" fill="#FF4B55"/>
<path d="M24 9.37912H0V14.6202H24V9.37912Z" fill="#F5F5F5"/>
<path d="M0.0651093 9.10199H0.0687186C0.104672 9.10199 0.133828 9.07289 0.133828 9.03689V8.89589C0.133828 8.85993 0.162937 8.83078 0.198937 8.83078H0.472077C0.50803 8.83078 0.537187 8.85989 0.537187 8.89589V9.03689C0.537187 9.07284 0.566296 9.10199 0.602296 9.10199H1.14145C1.1774 9.10199 1.20656 9.07289 1.20656 9.03689V8.75854C1.20656 8.72259 1.17745 8.69343 1.14145 8.69343H0.870045C0.834092 8.69343 0.804936 8.72254 0.804936 8.75854V8.76567C0.804936 8.80162 0.834045 8.83078 0.870045 8.83078H1.00762C1.04358 8.83078 1.07273 8.85989 1.07273 8.89589V8.90296C1.07273 8.93892 1.04362 8.96807 1.00762 8.96807H0.736124C0.700171 8.96807 0.671014 8.93896 0.671014 8.90296V8.75854C0.671014 8.72259 0.641905 8.69343 0.605905 8.69343H0.0651093C0.0291562 8.69343 0 8.72254 0 8.75854V9.03689C0 9.07279 0.0291093 9.10199 0.0651093 9.10199ZM0.334546 9.10199H0.338249C0.374202 9.10199 0.403359 9.07289 0.403359 9.03689V9.03318C0.403359 8.99723 0.374249 8.96807 0.338249 8.96807H0.334546C0.298593 8.96807 0.269437 8.99718 0.269437 9.03318V9.03689C0.269437 9.07279 0.298593 9.10199 0.334546 9.10199ZM0.0651093 8.55614H1.67868C1.71464 8.55614 1.74379 8.52703 1.74379 8.49103V8.4839C1.74379 8.44795 1.71468 8.41879 1.67868 8.41879H0.0651093C0.0291562 8.41879 0 8.4479 0 8.4839V8.49103C0 8.52703 0.0291093 8.55614 0.0651093 8.55614ZM1.67864 9.10199H1.40723C1.37128 9.10199 1.34212 9.07289 1.34212 9.03689V8.75854C1.34212 8.72259 1.37123 8.69343 1.40723 8.69343H1.81261C1.84856 8.69343 1.87772 8.66432 1.87772 8.62832V8.4839C1.87772 8.44795 1.90682 8.41879 1.94282 8.41879H1.94643C1.98239 8.41879 2.01154 8.4479 2.01154 8.4839V8.90296C2.01154 8.93892 2.04065 8.96807 2.07665 8.96807H2.08036C2.11631 8.96807 2.14546 8.93896 2.14546 8.90296V8.4839C2.14546 8.44795 2.17457 8.41879 2.21057 8.41879H2.21418C2.25014 8.41879 2.27929 8.4479 2.27929 8.4839V8.90296C2.27929 8.93892 2.3084 8.96807 2.3444 8.96807H2.34979C2.38575 8.96807 2.4149 8.93896 2.4149 8.90296V8.4839C2.4149 8.44795 2.44401 8.41879 2.48001 8.41879H2.48198C2.51793 8.41879 2.54709 8.4479 2.54709 8.4839V9.03689C2.54709 9.07284 2.51798 9.10199 2.48198 9.10199H1.94282C1.90687 9.10199 1.87772 9.07289 1.87772 9.03689V8.89589C1.87772 8.85993 1.84861 8.83078 1.81261 8.83078H1.5412C1.50525 8.83078 1.47609 8.85989 1.47609 8.89589V8.90296C1.47609 8.93892 1.5052 8.96807 1.5412 8.96807H1.67868C1.71464 8.96807 1.74379 8.99718 1.74379 9.03318V9.03689C1.74379 9.07279 1.71459 9.10199 1.67864 9.10199Z" fill="#F5F5F5"/>
<path d="M2.74773 9.10199H2.75312C2.78907 9.10199 2.81823 9.07289 2.81823 9.03689V8.89589C2.81823 8.85993 2.84734 8.83078 2.88334 8.83078H3.15305C3.18901 8.83078 3.21816 8.85989 3.21816 8.89589V9.03689C3.21816 9.07284 3.24727 9.10199 3.28327 9.10199H3.82243C3.85838 9.10199 3.88754 9.07289 3.88754 9.03689V8.75854C3.88754 8.72259 3.85843 8.69343 3.82243 8.69343H3.55102C3.51507 8.69343 3.48591 8.72254 3.48591 8.75854V8.76567C3.48591 8.80162 3.51502 8.83078 3.55102 8.83078H3.6886C3.72455 8.83078 3.75371 8.85989 3.75371 8.89589V8.90296C3.75371 8.93892 3.7246 8.96807 3.6886 8.96807H3.41719C3.38124 8.96807 3.35208 8.93896 3.35208 8.90296V8.75854C3.35208 8.72259 3.32298 8.69343 3.28698 8.69343H2.74773C2.71177 8.69343 2.68262 8.72254 2.68262 8.75854V9.03689C2.68266 9.07279 2.71182 9.10199 2.74773 9.10199ZM3.01552 9.10199H3.01913C3.05509 9.10199 3.08424 9.07289 3.08424 9.03689V9.03318C3.08424 8.99723 3.05513 8.96807 3.01913 8.96807H3.01552C2.97957 8.96807 2.95041 8.99718 2.95041 9.03318V9.03689C2.95046 9.07279 2.97957 9.10199 3.01552 9.10199ZM2.74773 8.55614H4.35966C4.39561 8.55614 4.42477 8.52703 4.42477 8.49103V8.4839C4.42477 8.44795 4.39566 8.41879 4.35966 8.41879H2.74773C2.71177 8.41879 2.68262 8.4479 2.68262 8.4839V8.49103C2.68266 8.52703 2.71182 8.55614 2.74773 8.55614ZM4.35966 9.10199H4.08652C4.05057 9.10199 4.02141 9.07289 4.02141 9.03689V8.75854C4.02141 8.72259 4.05052 8.69343 4.08652 8.69343H4.4919C4.52785 8.69343 4.557 8.66432 4.557 8.62832V8.4839C4.557 8.44795 4.58611 8.41879 4.62211 8.41879H4.6275C4.66346 8.41879 4.69261 8.4479 4.69261 8.4839V8.90296C4.69261 8.93892 4.72172 8.96807 4.75772 8.96807H4.76311C4.79907 8.96807 4.82822 8.93896 4.82822 8.90296V8.4839C4.82822 8.44795 4.85733 8.41879 4.89333 8.41879H4.8953C4.93125 8.41879 4.96041 8.4479 4.96041 8.4839V8.90296C4.96041 8.93892 4.98952 8.96807 5.02552 8.96807H5.03091C5.06686 8.96807 5.09602 8.93896 5.09602 8.90296V8.4839C5.09602 8.44795 5.12513 8.41879 5.16113 8.41879H5.16474C5.20069 8.41879 5.22985 8.4479 5.22985 8.4839V9.03689C5.22985 9.07284 5.20074 9.10199 5.16474 9.10199H4.62221C4.58625 9.10199 4.5571 9.07289 4.5571 9.03689V8.89589C4.5571 8.85993 4.52799 8.83078 4.49199 8.83078H4.22227C4.18632 8.83078 4.15716 8.85989 4.15716 8.89589V8.90296C4.15716 8.93892 4.18627 8.96807 4.22227 8.96807H4.35985C4.3958 8.96807 4.42496 8.99718 4.42496 9.03318V9.03689C4.42472 9.07279 4.39561 9.10199 4.35966 9.10199Z" fill="#F5F5F5"/>
<path d="M5.42876 9.10199H5.43237C5.46832 9.10199 5.49748 9.07289 5.49748 9.03689V8.89589C5.49748 8.85993 5.52658 8.83078 5.56258 8.83078H5.83408C5.87004 8.83078 5.89919 8.85989 5.89919 8.89589V9.03689C5.89919 9.07284 5.9283 9.10199 5.9643 9.10199H6.50514C6.5411 9.10199 6.57025 9.07289 6.57025 9.03689V8.75854C6.57025 8.72259 6.54114 8.69343 6.50514 8.69343H6.23374C6.19779 8.69343 6.16863 8.72254 6.16863 8.75854V8.76567C6.16863 8.80162 6.19774 8.83078 6.23374 8.83078H6.37132C6.40727 8.83078 6.43643 8.85989 6.43643 8.89589V8.90296C6.43643 8.93892 6.40732 8.96807 6.37132 8.96807H6.09818C6.06222 8.96807 6.03307 8.93896 6.03307 8.90296V8.75854C6.03307 8.72259 6.00396 8.69343 5.96796 8.69343H5.4288C5.39285 8.69343 5.36369 8.72254 5.36369 8.75854V9.03689C5.3636 9.07279 5.3928 9.10199 5.42876 9.10199ZM5.69651 9.10199H5.70012C5.73607 9.10199 5.76522 9.07289 5.76522 9.03689V9.03318C5.76522 8.99723 5.73612 8.96807 5.70012 8.96807H5.69651C5.66055 8.96807 5.6314 8.99718 5.6314 9.03318V9.03689C5.6314 9.07279 5.66055 9.10199 5.69651 9.10199ZM5.42876 8.55614H7.04238C7.07833 8.55614 7.10749 8.52703 7.10749 8.49103V8.4839C7.10749 8.44795 7.07838 8.41879 7.04238 8.41879H5.42876C5.3928 8.41879 5.36365 8.4479 5.36365 8.4839V8.49103C5.3636 8.52703 5.3928 8.55614 5.42876 8.55614ZM7.04238 9.10199H6.76924C6.73329 9.10199 6.70413 9.07289 6.70413 9.03689V8.75854C6.70413 8.72259 6.73324 8.69343 6.76924 8.69343H7.17452C7.21047 8.69343 7.23963 8.66432 7.23963 8.62832V8.4839C7.23963 8.44795 7.26874 8.41879 7.30474 8.41879H7.30844C7.34439 8.41879 7.37355 8.4479 7.37355 8.4839V8.90296C7.37355 8.93892 7.40266 8.96807 7.43866 8.96807H7.44405C7.48 8.96807 7.50916 8.93896 7.50916 8.90296V8.4839C7.50916 8.44795 7.53827 8.41879 7.57427 8.41879H7.57966C7.61561 8.41879 7.64477 8.4479 7.64477 8.4839V8.90296C7.64477 8.93892 7.67388 8.96807 7.70988 8.96807H7.71185C7.7478 8.96807 7.77696 8.93896 7.77696 8.90296V8.4839C7.77696 8.44795 7.80606 8.41879 7.84206 8.41879H7.84567C7.88163 8.41879 7.91078 8.4479 7.91078 8.4839V9.03689C7.91078 9.07284 7.88167 9.10199 7.84567 9.10199H7.30474C7.26878 9.10199 7.23963 9.07289 7.23963 9.03689V8.89589C7.23963 8.85993 7.21052 8.83078 7.17452 8.83078H6.90311C6.86716 8.83078 6.838 8.85989 6.838 8.89589V8.90296C6.838 8.93892 6.86711 8.96807 6.90311 8.96807H7.04247C7.07843 8.96807 7.10758 8.99718 7.10758 9.03318V9.03689C7.10749 9.07279 7.07833 9.10199 7.04238 9.10199Z" fill="#F5F5F5"/>
<path d="M8.10967 9.10199H8.11327C8.14923 9.10199 8.17838 9.07289 8.17838 9.03689V8.89589C8.17838 8.85993 8.20749 8.83078 8.24349 8.83078H8.5149C8.55085 8.83078 8.58001 8.85989 8.58001 8.89589V9.03689C8.58001 9.07284 8.60912 9.10199 8.64512 9.10199H9.18605C9.22201 9.10199 9.25116 9.07289 9.25116 9.03689V8.75854C9.25116 8.72259 9.22205 8.69343 9.18605 8.69343H8.91291C8.87696 8.69343 8.8478 8.72254 8.8478 8.75854V8.76567C8.8478 8.80162 8.87691 8.83078 8.91291 8.83078H9.05049C9.08644 8.83078 9.1156 8.85989 9.1156 8.89589V8.90296C9.1156 8.93892 9.08649 8.96807 9.05049 8.96807H8.77909C8.74313 8.96807 8.71398 8.93896 8.71398 8.90296V8.75854C8.71398 8.72259 8.68487 8.69343 8.64887 8.69343H8.10971C8.07376 8.69343 8.0446 8.72254 8.0446 8.75854V9.03689C8.0446 9.07279 8.07376 9.10199 8.10967 9.10199ZM8.37746 9.10199H8.38107C8.41702 9.10199 8.44618 9.07289 8.44618 9.03689V9.03318C8.44618 8.99723 8.41707 8.96807 8.38107 8.96807H8.37746C8.34151 8.96807 8.31235 8.99718 8.31235 9.03318V9.03689C8.3124 9.07279 8.34151 9.10199 8.37746 9.10199ZM8.10967 8.55614H9.7216C9.75755 8.55614 9.78671 8.52703 9.78671 8.49103V8.4839C9.78671 8.44795 9.7576 8.41879 9.7216 8.41879H8.10967C8.07371 8.41879 8.04456 8.4479 8.04456 8.4839V8.49103C8.0446 8.52703 8.07376 8.55614 8.10967 8.55614ZM9.7216 9.10199H9.44846C9.41251 9.10199 9.38335 9.07289 9.38335 9.03689V8.75854C9.38335 8.72259 9.41246 8.69343 9.44846 8.69343H9.85726C9.89321 8.69343 9.92236 8.66432 9.92236 8.62832V8.4839C9.92236 8.44795 9.95147 8.41879 9.98747 8.41879H9.99108C10.027 8.41879 10.0562 8.4479 10.0562 8.4839V8.90296C10.0562 8.93892 10.0853 8.96807 10.1213 8.96807H10.1233C10.1592 8.96807 10.1884 8.93896 10.1884 8.90296V8.4839C10.1884 8.44795 10.2175 8.41879 10.2535 8.41879H10.2589C10.2948 8.41879 10.324 8.4479 10.324 8.4839V8.90296C10.324 8.93892 10.3531 8.96807 10.3891 8.96807H10.3928C10.4288 8.96807 10.4579 8.93896 10.4579 8.90296V8.4839C10.4579 8.44795 10.487 8.41879 10.523 8.41879H10.5266C10.5626 8.41879 10.5917 8.4479 10.5917 8.4839V9.03689C10.5917 9.07284 10.5626 9.10199 10.5266 9.10199H9.98724C9.95129 9.10199 9.92213 9.07289 9.92213 9.03689V8.89589C9.92213 8.85993 9.89302 8.83078 9.85702 8.83078H9.58388C9.54793 8.83078 9.51877 8.85989 9.51877 8.89589V8.90296C9.51877 8.93892 9.54788 8.96807 9.58388 8.96807H9.72146C9.75741 8.96807 9.78657 8.99718 9.78657 9.03318V9.03689C9.78666 9.07279 9.75755 9.10199 9.7216 9.10199Z" fill="#F5F5F5"/>
<path d="M10.7906 9.10199H10.7943C10.8302 9.10199 10.8594 9.07289 10.8594 9.03689V8.89589C10.8594 8.85993 10.8885 8.83078 10.9245 8.83078H11.1959C11.2319 8.83078 11.261 8.85989 11.261 8.89589V9.03689C11.261 9.07284 11.2901 9.10199 11.3261 9.10199H11.8671C11.903 9.10199 11.9322 9.07289 11.9322 9.03689V8.75854C11.9322 8.72259 11.9031 8.69343 11.8671 8.69343H11.5939C11.558 8.69343 11.5288 8.72254 11.5288 8.75854V8.76567C11.5288 8.80162 11.5579 8.83078 11.5939 8.83078H11.7331C11.7691 8.83078 11.7982 8.85989 11.7982 8.89589V8.90296C11.7982 8.93892 11.7691 8.96807 11.7331 8.96807H11.4617C11.4258 8.96807 11.3966 8.93896 11.3966 8.90296V8.75854C11.3966 8.72259 11.3675 8.69343 11.3315 8.69343H10.7906C10.7546 8.69343 10.7255 8.72254 10.7255 8.75854V9.03689C10.7255 9.07279 10.7546 9.10199 10.7906 9.10199ZM11.0601 9.10199H11.0621C11.098 9.10199 11.1272 9.07289 11.1272 9.03689V9.03318C11.1272 8.99723 11.0981 8.96807 11.0621 8.96807H11.0601C11.0242 8.96807 10.995 8.99718 10.995 9.03318V9.03689C10.995 9.07279 11.0242 9.10199 11.0601 9.10199ZM10.7906 8.55614H12.4042C12.4402 8.55614 12.4694 8.52703 12.4694 8.49103V8.4839C12.4694 8.44795 12.4402 8.41879 12.4042 8.41879H10.7906C10.7546 8.41879 10.7255 8.4479 10.7255 8.4839V8.49103C10.7255 8.52703 10.7546 8.55614 10.7906 8.55614ZM12.4043 9.10199H12.1311C12.0952 9.10199 12.066 9.07289 12.066 9.03689V8.75854C12.066 8.72259 12.0951 8.69343 12.1311 8.69343H12.5382C12.5742 8.69343 12.6033 8.66432 12.6033 8.62832V8.4839C12.6033 8.44795 12.6324 8.41879 12.6684 8.41879H12.672C12.708 8.41879 12.7371 8.4479 12.7371 8.4839V8.90296C12.7371 8.93892 12.7663 8.96807 12.8023 8.96807H12.806C12.8419 8.96807 12.8711 8.93896 12.8711 8.90296V8.4839C12.8711 8.44795 12.9002 8.41879 12.9362 8.41879H12.9398C12.9757 8.41879 13.0049 8.4479 13.0049 8.4839V8.90296C13.0049 8.93892 13.034 8.96807 13.07 8.96807H13.0736C13.1096 8.96807 13.1387 8.93896 13.1387 8.90296V8.4839C13.1387 8.44795 13.1678 8.41879 13.2038 8.41879H13.2075C13.2435 8.41879 13.2726 8.4479 13.2726 8.4839V9.03689C13.2726 9.07284 13.2435 9.10199 13.2075 9.10199H12.6684C12.6324 9.10199 12.6033 9.07289 12.6033 9.03689V8.89589C12.6033 8.85993 12.5742 8.83078 12.5382 8.83078H12.265C12.2291 8.83078 12.1999 8.85989 12.1999 8.89589V8.90296C12.1999 8.93892 12.229 8.96807 12.265 8.96807H12.4042C12.4402 8.96807 12.4694 8.99718 12.4694 9.03318V9.03689C12.4694 9.07279 12.4402 9.10199 12.4043 9.10199Z" fill="#F5F5F5"/>
<path d="M13.4716 9.10199H13.4753C13.5113 9.10199 13.5404 9.07289 13.5404 9.03689V8.89589C13.5404 8.85993 13.5695 8.83078 13.6055 8.83078H13.8769C13.9129 8.83078 13.942 8.85989 13.942 8.89589V9.03689C13.942 9.07284 13.9711 9.10199 14.0071 9.10199H14.5481C14.584 9.10199 14.6132 9.07289 14.6132 9.03689V8.75854C14.6132 8.72259 14.5841 8.69343 14.5481 8.69343H14.2766C14.2406 8.69343 14.2115 8.72254 14.2115 8.75854V8.76567C14.2115 8.80162 14.2406 8.83078 14.2766 8.83078H14.4125C14.4484 8.83078 14.4776 8.85989 14.4776 8.89589V8.90296C14.4776 8.93892 14.4485 8.96807 14.4125 8.96807H14.1428C14.1068 8.96807 14.0776 8.93896 14.0776 8.90296V8.75854C14.0776 8.72259 14.0485 8.69343 14.0125 8.69343H13.4716C13.4356 8.69343 13.4065 8.72254 13.4065 8.75854V9.03689C13.4065 9.07279 13.4356 9.10199 13.4716 9.10199ZM13.7411 9.10199H13.7431C13.779 9.10199 13.8082 9.07289 13.8082 9.03689V9.03318C13.8082 8.99723 13.7791 8.96807 13.7431 8.96807H13.7411C13.7051 8.96807 13.676 8.99718 13.676 9.03318V9.03689C13.676 9.07279 13.7051 9.10199 13.7411 9.10199ZM13.4716 8.55614H15.0852C15.1212 8.55614 15.1503 8.52703 15.1503 8.49103V8.4839C15.1503 8.44795 15.1212 8.41879 15.0852 8.41879H13.4716C13.4356 8.41879 13.4065 8.4479 13.4065 8.4839V8.49103C13.4065 8.52703 13.4356 8.55614 13.4716 8.55614ZM15.0853 9.10199H14.8139C14.7779 9.10199 14.7488 9.07289 14.7488 9.03689V8.75854C14.7488 8.72259 14.7779 8.69343 14.8139 8.69343H15.2191C15.2551 8.69343 15.2843 8.66432 15.2843 8.62832V8.4839C15.2843 8.44795 15.3134 8.41879 15.3494 8.41879H15.3531C15.389 8.41879 15.4182 8.4479 15.4182 8.4839V8.90296C15.4182 8.93892 15.4473 8.96807 15.4833 8.96807H15.4869C15.5228 8.96807 15.552 8.93896 15.552 8.90296V8.4839C15.552 8.44795 15.5811 8.41879 15.6171 8.41879H15.6208C15.6568 8.41879 15.6859 8.4479 15.6859 8.4839V8.90296C15.6859 8.93892 15.715 8.96807 15.751 8.96807H15.7546C15.7906 8.96807 15.8198 8.93896 15.8198 8.90296V8.4839C15.8198 8.44795 15.8489 8.41879 15.8849 8.41879H15.8886C15.9245 8.41879 15.9537 8.4479 15.9537 8.4839V9.03689C15.9537 9.07284 15.9246 9.10199 15.8886 9.10199H15.3493C15.3133 9.10199 15.2842 9.07289 15.2842 9.03689V8.89589C15.2842 8.85993 15.2551 8.83078 15.2191 8.83078H14.946C14.91 8.83078 14.8809 8.85989 14.8809 8.89589V8.90296C14.8809 8.93892 14.91 8.96807 14.946 8.96807H15.0852C15.1211 8.96807 15.1503 8.99718 15.1503 9.03318V9.03689C15.1504 9.07279 15.1212 9.10199 15.0853 9.10199Z" fill="#F5F5F5"/>
<path d="M16.1526 9.10199H16.1563C16.1923 9.10199 16.2214 9.07289 16.2214 9.03689V8.89589C16.2214 8.85993 16.2506 8.83078 16.2866 8.83078H16.5596C16.5956 8.83078 16.6248 8.85989 16.6248 8.89589V9.03689C16.6248 9.07284 16.6539 9.10199 16.6899 9.10199H17.2292C17.2651 9.10199 17.2943 9.07289 17.2943 9.03689V8.75854C17.2943 8.72259 17.2652 8.69343 17.2292 8.69343H16.9577C16.9217 8.69343 16.8926 8.72254 16.8926 8.75854V8.76567C16.8926 8.80162 16.9217 8.83078 16.9577 8.83078H17.097C17.133 8.83078 17.1621 8.85989 17.1621 8.89589V8.90296C17.1621 8.93892 17.133 8.96807 17.097 8.96807H16.8221C16.7861 8.96807 16.757 8.93896 16.757 8.90296V8.75854C16.757 8.72259 16.7279 8.69343 16.6919 8.69343H16.1527C16.1168 8.69343 16.0876 8.72254 16.0876 8.75854V9.03689C16.0876 9.07279 16.1167 9.10199 16.1526 9.10199ZM16.4204 9.10199H16.4258C16.4618 9.10199 16.4909 9.07289 16.4909 9.03689V9.03318C16.4909 8.99723 16.4618 8.96807 16.4258 8.96807H16.4204C16.3845 8.96807 16.3553 8.99718 16.3553 9.03318V9.03689C16.3553 9.07279 16.3845 9.10199 16.4204 9.10199ZM16.1526 8.55614H17.7663C17.8022 8.55614 17.8314 8.52703 17.8314 8.49103V8.4839C17.8314 8.44795 17.8023 8.41879 17.7663 8.41879H16.1526C16.1167 8.41879 16.0875 8.4479 16.0875 8.4839V8.49103C16.0876 8.52703 16.1167 8.55614 16.1526 8.55614ZM17.7663 9.10199H17.4949C17.459 9.10199 17.4298 9.07289 17.4298 9.03689V8.75854C17.4298 8.72259 17.4589 8.69343 17.4949 8.69343H17.9002C17.9362 8.69343 17.9653 8.66432 17.9653 8.62832V8.4839C17.9653 8.44795 17.9944 8.41879 18.0304 8.41879H18.0341C18.0701 8.41879 18.0993 8.4479 18.0993 8.4839V8.90296C18.0993 8.93892 18.1284 8.96807 18.1644 8.96807H18.168C18.2039 8.96807 18.2331 8.93896 18.2331 8.90296V8.4839C18.2331 8.44795 18.2622 8.41879 18.2982 8.41879H18.3019C18.3378 8.41879 18.367 8.4479 18.367 8.4839V8.90296C18.367 8.93892 18.3961 8.96807 18.4321 8.96807H18.4375C18.4735 8.96807 18.5026 8.93896 18.5026 8.90296V8.4839C18.5026 8.44795 18.5317 8.41879 18.5677 8.41879H18.5696C18.6056 8.41879 18.6347 8.4479 18.6347 8.4839V9.03689C18.6347 9.07284 18.6056 9.10199 18.5696 9.10199H18.0304C17.9945 9.10199 17.9653 9.07289 17.9653 9.03689V8.89589C17.9653 8.85993 17.9362 8.83078 17.9002 8.83078H17.6305C17.5946 8.83078 17.5654 8.85989 17.5654 8.89589V8.90296C17.5654 8.93892 17.5945 8.96807 17.6305 8.96807H17.7664C17.8023 8.96807 17.8315 8.99718 17.8315 9.03318V9.03689C17.8314 9.07279 17.8023 9.10199 17.7663 9.10199Z" fill="#F5F5F5"/>
<path d="M18.8353 9.10199H18.8372C18.8732 9.10199 18.9023 9.07289 18.9023 9.03689V8.89589C18.9023 8.85993 18.9314 8.83078 18.9674 8.83078H19.2389C19.2749 8.83078 19.304 8.85989 19.304 8.89589V9.03689C19.304 9.07284 19.3332 9.10199 19.3692 9.10199H19.91C19.946 9.10199 19.9751 9.07289 19.9751 9.03689V8.75854C19.9751 8.72259 19.946 8.69343 19.91 8.69343H19.6404C19.6044 8.69343 19.5753 8.72254 19.5753 8.75854V8.76567C19.5753 8.80162 19.6044 8.83078 19.6404 8.83078H19.7779C19.8138 8.83078 19.843 8.85989 19.843 8.89589V8.90296C19.843 8.93892 19.8139 8.96807 19.7779 8.96807H19.5048C19.4688 8.96807 19.4397 8.93896 19.4397 8.90296V8.75854C19.4397 8.72259 19.4105 8.69343 19.3745 8.69343H18.8353C18.7993 8.69343 18.7701 8.72254 18.7701 8.75854V9.03689C18.7701 9.07279 18.7993 9.10199 18.8353 9.10199ZM19.103 9.10199H19.1067C19.1427 9.10199 19.1718 9.07289 19.1718 9.03689V9.03318C19.1718 8.99723 19.1427 8.96807 19.1067 8.96807H19.103C19.067 8.96807 19.0379 8.99718 19.0379 9.03318V9.03689C19.0379 9.07279 19.067 9.10199 19.103 9.10199ZM18.8353 8.55614H20.4507C20.4866 8.55614 20.5158 8.52703 20.5158 8.49103V8.4839C20.5158 8.44795 20.4867 8.41879 20.4507 8.41879H18.8353C18.7993 8.41879 18.7701 8.4479 18.7701 8.4839V8.49103C18.7701 8.52703 18.7993 8.55614 18.8353 8.55614ZM20.4506 9.10199H20.1757C20.1397 9.10199 20.1106 9.07289 20.1106 9.03689V8.75854C20.1106 8.72259 20.1397 8.69343 20.1757 8.69343H20.5811C20.617 8.69343 20.6462 8.66432 20.6462 8.62832V8.4839C20.6462 8.44795 20.6753 8.41879 20.7113 8.41879H20.7167C20.7526 8.41879 20.7818 8.4479 20.7818 8.4839V8.90296C20.7818 8.93892 20.8109 8.96807 20.8469 8.96807H20.8505C20.8865 8.96807 20.9156 8.93896 20.9156 8.90296V8.4839C20.9156 8.44795 20.9447 8.41879 20.9807 8.41879H20.9827C21.0186 8.41879 21.0478 8.4479 21.0478 8.4839V8.90296C21.0478 8.93892 21.0769 8.96807 21.1129 8.96807H21.1183C21.1542 8.96807 21.1834 8.93896 21.1834 8.90296V8.4839C21.1834 8.44795 21.2125 8.41879 21.2485 8.41879H21.2522C21.2882 8.41879 21.3173 8.4479 21.3173 8.4839V9.03689C21.3173 9.07284 21.2882 9.10199 21.2522 9.10199H20.7113C20.6753 9.10199 20.6462 9.07289 20.6462 9.03689V8.89589C20.6462 8.85993 20.6171 8.83078 20.5811 8.83078H20.3097C20.2737 8.83078 20.2445 8.85989 20.2445 8.89589V8.90296C20.2445 8.93892 20.2737 8.96807 20.3097 8.96807H20.4507C20.4866 8.96807 20.5158 8.99718 20.5158 9.03318V9.03689C20.5158 9.07279 20.4866 9.10199 20.4506 9.10199Z" fill="#F5F5F5"/>
<path d="M21.5162 9.10199H21.5199C21.5558 9.10199 21.585 9.07289 21.585 9.03689V8.89589C21.585 8.85993 21.6141 8.83078 21.6501 8.83078H21.9215C21.9574 8.83078 21.9866 8.85989 21.9866 8.89589V9.03689C21.9866 9.07284 22.0157 9.10199 22.0517 9.10199H22.5926C22.6286 9.10199 22.6578 9.07289 22.6578 9.03689V8.75854C22.6578 8.72259 22.6286 8.69343 22.5926 8.69343H22.3229C22.287 8.69343 22.2578 8.72254 22.2578 8.75854V8.76567C22.2578 8.80162 22.2869 8.83078 22.3229 8.83078H22.4605C22.4965 8.83078 22.5256 8.85989 22.5256 8.89589V8.90296C22.5256 8.93892 22.4965 8.96807 22.4605 8.96807H22.1856C22.1496 8.96807 22.1205 8.93896 22.1205 8.90296V8.75854C22.1205 8.72259 22.0914 8.69343 22.0554 8.69343H21.5162C21.4803 8.69343 21.4511 8.72254 21.4511 8.75854V9.03689C21.4511 9.07279 21.4803 9.10199 21.5162 9.10199ZM21.784 9.10199H21.7877C21.8236 9.10199 21.8528 9.07289 21.8528 9.03689V9.03318C21.8528 8.99723 21.8237 8.96807 21.7877 8.96807H21.784C21.748 8.96807 21.7188 8.99718 21.7188 9.03318V9.03689C21.7189 9.07279 21.748 9.10199 21.784 9.10199ZM21.5162 8.55614H23.1281C23.164 8.55614 23.1932 8.52703 23.1932 8.49103V8.4839C23.1932 8.44795 23.1641 8.41879 23.1281 8.41879H21.5162C21.4802 8.41879 21.451 8.4479 21.451 8.4839V8.49103C21.4511 8.52703 21.4803 8.55614 21.5162 8.55614ZM23.1281 9.10199H22.8567C22.8207 9.10199 22.7916 9.07289 22.7916 9.03689V8.75854C22.7916 8.72259 22.8207 8.69343 22.8567 8.69343H23.2655C23.3014 8.69343 23.3306 8.66432 23.3306 8.62832V8.4839C23.3306 8.44795 23.3597 8.41879 23.3957 8.41879H23.3959C23.4318 8.41879 23.461 8.4479 23.461 8.4839V8.90296C23.461 8.93892 23.4901 8.96807 23.5261 8.96807H23.5332C23.5692 8.96807 23.5983 8.93896 23.5983 8.90296V8.4839C23.5983 8.44795 23.6275 8.41879 23.6635 8.41879H23.6636C23.6996 8.41879 23.7287 8.4479 23.7287 8.4839V8.90296C23.7287 8.93892 23.7579 8.96807 23.7939 8.96807H23.7976C23.8335 8.96807 23.8627 8.93896 23.8627 8.90296V8.4839C23.8627 8.44795 23.8918 8.41879 23.9278 8.41879H23.9349C23.9708 8.41879 24 8.4479 24 8.4839V9.03689C24 9.07284 23.9709 9.10199 23.9349 9.10199H23.3957C23.3597 9.10199 23.3306 9.07289 23.3306 9.03689V8.89589C23.3306 8.85993 23.3015 8.83078 23.2655 8.83078H22.9906C22.9547 8.83078 22.9255 8.85989 22.9255 8.89589V8.90296C22.9255 8.93892 22.9546 8.96807 22.9906 8.96807H23.1281C23.164 8.96807 23.1932 8.99718 23.1932 9.03318V9.03689C23.1932 9.07279 23.164 9.10199 23.1281 9.10199Z" fill="#F5F5F5"/>
<path d="M0.0651093 9.51726H1.1415C1.17745 9.51726 1.20661 9.48815 1.20661 9.45215V9.30772C1.20661 9.27177 1.1775 9.24261 1.1415 9.24261H0.0651093C0.0291562 9.24261 0 9.27172 0 9.30772V9.45215C0 9.48815 0.0291093 9.51726 0.0651093 9.51726ZM1.40728 9.51726H2.48198C2.51793 9.51726 2.54709 9.48815 2.54709 9.45215V9.30772C2.54709 9.27177 2.51798 9.24261 2.48198 9.24261H1.40728C1.37133 9.24261 1.34217 9.27172 1.34217 9.30772V9.45215C1.34217 9.48815 1.37133 9.51726 1.40728 9.51726Z" fill="#F5F5F5"/>
<path d="M2.74773 9.51726H3.82243C3.85838 9.51726 3.88754 9.48815 3.88754 9.45215V9.30772C3.88754 9.27177 3.85843 9.24261 3.82243 9.24261H2.74773C2.71177 9.24261 2.68262 9.27172 2.68262 9.30772V9.45215C2.68266 9.48815 2.71182 9.51726 2.74773 9.51726ZM4.08652 9.51726H5.16464C5.2006 9.51726 5.22975 9.48815 5.22975 9.45215V9.30772C5.22975 9.27177 5.20064 9.24261 5.16464 9.24261H4.08652C4.05057 9.24261 4.02141 9.27172 4.02141 9.30772V9.45215C4.02141 9.48815 4.05057 9.51726 4.08652 9.51726Z" fill="#F5F5F5"/>
<path d="M5.42876 9.51726H6.50514C6.5411 9.51726 6.57025 9.48815 6.57025 9.45215V9.30772C6.57025 9.27177 6.54114 9.24261 6.50514 9.24261H5.42876C5.3928 9.24261 5.36365 9.27172 5.36365 9.30772V9.45215C5.3636 9.48815 5.3928 9.51726 5.42876 9.51726ZM6.76919 9.51726H7.84558C7.88153 9.51726 7.91069 9.48815 7.91069 9.45215V9.30772C7.91069 9.27177 7.88158 9.24261 7.84558 9.24261H6.76919C6.73324 9.24261 6.70408 9.27172 6.70408 9.30772V9.45215C6.70413 9.48815 6.73329 9.51726 6.76919 9.51726Z" fill="#F5F5F5"/>
<path d="M8.10967 9.51726H9.18605C9.22201 9.51726 9.25116 9.48815 9.25116 9.45215V9.30772C9.25116 9.27177 9.22205 9.24261 9.18605 9.24261H8.10967C8.07371 9.24261 8.04456 9.27172 8.04456 9.30772V9.45215C8.0446 9.48815 8.07376 9.51726 8.10967 9.51726ZM9.44846 9.51726H10.5266C10.5625 9.51726 10.5917 9.48815 10.5917 9.45215V9.30772C10.5917 9.27177 10.5626 9.24261 10.5266 9.24261H9.44846C9.41251 9.24261 9.38335 9.27172 9.38335 9.30772V9.45215C9.38335 9.48815 9.41246 9.51726 9.44846 9.51726Z" fill="#F5F5F5"/>
<path d="M10.7906 9.51726H11.8671C11.903 9.51726 11.9322 9.48815 11.9322 9.45215V9.30772C11.9322 9.27177 11.9031 9.24261 11.8671 9.24261H10.7906C10.7546 9.24261 10.7255 9.27172 10.7255 9.30772V9.45215C10.7255 9.48815 10.7546 9.51726 10.7906 9.51726ZM12.1311 9.51726H13.2075C13.2435 9.51726 13.2726 9.48815 13.2726 9.45215V9.30772C13.2726 9.27177 13.2435 9.24261 13.2075 9.24261H12.1311C12.0951 9.24261 12.0659 9.27172 12.0659 9.30772V9.45215C12.066 9.48815 12.0951 9.51726 12.1311 9.51726Z" fill="#F5F5F5"/>
<path d="M13.4716 9.51726H14.5481C14.584 9.51726 14.6132 9.48815 14.6132 9.45215V9.30772C14.6132 9.27177 14.5841 9.24261 14.5481 9.24261H13.4716C13.4356 9.24261 13.4065 9.27172 13.4065 9.30772V9.45215C13.4065 9.48815 13.4356 9.51726 13.4716 9.51726ZM14.8139 9.51726H15.8886C15.9245 9.51726 15.9537 9.48815 15.9537 9.45215V9.30772C15.9537 9.27177 15.9246 9.24261 15.8886 9.24261H14.8139C14.7779 9.24261 14.7488 9.27172 14.7488 9.30772V9.45215C14.7488 9.48815 14.7779 9.51726 14.8139 9.51726Z" fill="#F5F5F5"/>
<path d="M16.1526 9.51726H17.2291C17.2651 9.51726 17.2942 9.48815 17.2942 9.45215V9.30772C17.2942 9.27177 17.2651 9.24261 17.2291 9.24261H16.1526C16.1167 9.24261 16.0875 9.27172 16.0875 9.30772V9.45215C16.0876 9.48815 16.1167 9.51726 16.1526 9.51726ZM17.4949 9.51726H18.5695C18.6055 9.51726 18.6346 9.48815 18.6346 9.45215V9.30772C18.6346 9.27177 18.6055 9.24261 18.5695 9.24261H17.4949C17.4589 9.24261 17.4298 9.27172 17.4298 9.30772V9.45215C17.4298 9.48815 17.4589 9.51726 17.4949 9.51726Z" fill="#F5F5F5"/>
<path d="M18.8353 9.51726H19.91C19.9459 9.51726 19.9751 9.48815 19.9751 9.45215V9.30772C19.9751 9.27177 19.946 9.24261 19.91 9.24261H18.8353C18.7993 9.24261 18.7701 9.27172 18.7701 9.30772V9.45215C18.7701 9.48815 18.7993 9.51726 18.8353 9.51726ZM20.1757 9.51726H21.2522C21.2882 9.51726 21.3173 9.48815 21.3173 9.45215V9.30772C21.3173 9.27177 21.2882 9.24261 21.2522 9.24261H20.1757C20.1398 9.24261 20.1106 9.27172 20.1106 9.30772V9.45215C20.1106 9.48815 20.1398 9.51726 20.1757 9.51726Z" fill="#F5F5F5"/>
<path d="M21.5162 9.51726H22.5926C22.6286 9.51726 22.6578 9.48815 22.6578 9.45215V9.30772C22.6578 9.27177 22.6286 9.24261 22.5926 9.24261H21.5162C21.4802 9.24261 21.451 9.27172 21.451 9.30772V9.45215C21.4511 9.48815 21.4803 9.51726 21.5162 9.51726ZM22.8567 9.51726H23.9349C23.9708 9.51726 24 9.48815 24 9.45215V9.30772C24 9.27177 23.9709 9.24261 23.9349 9.24261H22.8567C22.8208 9.24261 22.7916 9.27172 22.7916 9.30772V9.45215C22.7916 9.48815 22.8207 9.51726 22.8567 9.51726Z" fill="#F5F5F5"/>
<path d="M23.9349 14.8981H23.9313C23.8953 14.8981 23.8661 14.9272 23.8661 14.9632V15.1042C23.8661 15.1401 23.837 15.1693 23.801 15.1693H23.5279C23.4919 15.1693 23.4628 15.1402 23.4628 15.1042V14.9632C23.4628 14.9272 23.4337 14.8981 23.3977 14.8981H22.8585C22.8226 14.8981 22.7934 14.9272 22.7934 14.9632V15.2416C22.7934 15.2775 22.8225 15.3067 22.8585 15.3067H23.1299C23.1659 15.3067 23.195 15.2776 23.195 15.2416V15.2344C23.195 15.1985 23.1659 15.1693 23.1299 15.1693H22.9923C22.9564 15.1693 22.9272 15.1402 22.9272 15.1042V15.0971C22.9272 15.0612 22.9563 15.032 22.9923 15.032H23.2638C23.2998 15.032 23.329 15.0611 23.329 15.0971V15.2416C23.329 15.2775 23.3581 15.3067 23.3941 15.3067H23.9349C23.9709 15.3067 24 15.2776 24 15.2416V14.9632C24 14.9272 23.9709 14.8981 23.9349 14.8981ZM23.6654 14.8981H23.6617C23.6258 14.8981 23.5966 14.9272 23.5966 14.9632V14.9669C23.5966 15.0028 23.6257 15.032 23.6617 15.032H23.6654C23.7014 15.032 23.7305 15.0029 23.7305 14.9669V14.9632C23.7305 14.9272 23.7014 14.8981 23.6654 14.8981ZM23.9349 15.4439H22.3213C22.2853 15.4439 22.2562 15.473 22.2562 15.509V15.5162C22.2562 15.5521 22.2853 15.5813 22.3213 15.5813H23.9349C23.9708 15.5813 24 15.5522 24 15.5162V15.509C24 15.473 23.9709 15.4439 23.9349 15.4439ZM22.3213 14.8981H22.5927C22.6287 14.8981 22.6578 14.9272 22.6578 14.9632V15.2416C22.6578 15.2775 22.6287 15.3067 22.5927 15.3067H22.1874C22.1514 15.3067 22.1223 15.3358 22.1223 15.3718V15.5162C22.1223 15.5522 22.0931 15.5813 22.0571 15.5813H22.0535C22.0176 15.5813 21.9884 15.5522 21.9884 15.5162V15.0971C21.9884 15.0612 21.9593 15.032 21.9233 15.032H21.9196C21.8837 15.032 21.8545 15.0611 21.8545 15.0971V15.5162C21.8545 15.5522 21.8254 15.5813 21.7894 15.5813H21.7858C21.7498 15.5813 21.7207 15.5522 21.7207 15.5162V15.0971C21.7207 15.0612 21.6916 15.032 21.6556 15.032H21.6502C21.6142 15.032 21.5851 15.0611 21.5851 15.0971V15.5162C21.5851 15.5522 21.556 15.5813 21.52 15.5813H21.518C21.482 15.5813 21.4529 15.5522 21.4529 15.5162V14.9632C21.4529 14.9273 21.482 14.8981 21.518 14.8981H22.0571C22.0931 14.8981 22.1223 14.9272 22.1223 14.9632V15.1042C22.1223 15.1402 22.1514 15.1693 22.1874 15.1693H22.4588C22.4947 15.1693 22.5239 15.1402 22.5239 15.1042V15.0971C22.5239 15.0612 22.4948 15.032 22.4588 15.032H22.3213C22.2853 15.032 22.2562 15.0029 22.2562 14.9669V14.9632C22.2562 14.9272 22.2854 14.8981 22.3213 14.8981Z" fill="#F5F5F5"/>
<path d="M21.2523 14.8981H21.2469C21.2109 14.8981 21.1818 14.9272 21.1818 14.9632V15.1042C21.1818 15.1401 21.1527 15.1693 21.1167 15.1693H20.8469C20.811 15.1693 20.7818 15.1402 20.7818 15.1042V14.9632C20.7818 14.9272 20.7527 14.8981 20.7167 14.8981H20.1776C20.1416 14.8981 20.1125 14.9272 20.1125 14.9632V15.2416C20.1125 15.2775 20.1416 15.3067 20.1776 15.3067H20.449C20.4849 15.3067 20.5141 15.2776 20.5141 15.2416V15.2344C20.5141 15.1985 20.485 15.1693 20.449 15.1693H20.3114C20.2754 15.1693 20.2463 15.1402 20.2463 15.1042V15.0971C20.2463 15.0612 20.2754 15.032 20.3114 15.032H20.5829C20.6188 15.032 20.648 15.0611 20.648 15.0971V15.2416C20.648 15.2775 20.6771 15.3067 20.7131 15.3067H21.2523C21.2882 15.3067 21.3174 15.2776 21.3174 15.2416V14.9632C21.3173 14.9272 21.2882 14.8981 21.2523 14.8981ZM20.9845 14.8981H20.9809C20.9449 14.8981 20.9157 14.9272 20.9157 14.9632V14.9669C20.9157 15.0028 20.9449 15.032 20.9809 15.032H20.9845C21.0204 15.032 21.0496 15.0029 21.0496 14.9669V14.9632C21.0495 14.9272 21.0204 14.8981 20.9845 14.8981ZM21.2523 15.4439H19.6403C19.6044 15.4439 19.5752 15.473 19.5752 15.509V15.5162C19.5752 15.5521 19.6043 15.5813 19.6403 15.5813H21.2523C21.2882 15.5813 21.3174 15.5522 21.3174 15.5162V15.509C21.3173 15.473 21.2882 15.4439 21.2523 15.4439ZM19.6403 14.8981H19.9135C19.9494 14.8981 19.9786 14.9272 19.9786 14.9632V15.2416C19.9786 15.2775 19.9495 15.3067 19.9135 15.3067H19.5081C19.4721 15.3067 19.443 15.3358 19.443 15.3718V15.5162C19.443 15.5522 19.4139 15.5813 19.3779 15.5813H19.3725C19.3365 15.5813 19.3074 15.5522 19.3074 15.5162V15.0971C19.3074 15.0612 19.2783 15.032 19.2423 15.032H19.2369C19.2009 15.032 19.1718 15.0611 19.1718 15.0971V15.5162C19.1718 15.5522 19.1427 15.5813 19.1067 15.5813H19.1047C19.0687 15.5813 19.0396 15.5522 19.0396 15.5162V15.0971C19.0396 15.0612 19.0105 15.032 18.9745 15.032H18.9691C18.9331 15.032 18.904 15.0611 18.904 15.0971V15.5162C18.904 15.5522 18.8749 15.5813 18.8389 15.5813H18.8353C18.7993 15.5813 18.7701 15.5522 18.7701 15.5162V14.9632C18.7701 14.9273 18.7993 14.8981 18.8353 14.8981H19.3778C19.4138 14.8981 19.4429 14.9272 19.4429 14.9632V15.1042C19.4429 15.1402 19.472 15.1693 19.508 15.1693H19.7778C19.8137 15.1693 19.8429 15.1402 19.8429 15.1042V15.0971C19.8429 15.0612 19.8138 15.032 19.7778 15.032H19.6402C19.6042 15.032 19.5751 15.0029 19.5751 14.9669V14.9632C19.5752 14.9272 19.6044 14.8981 19.6403 14.8981Z" fill="#F5F5F5"/>
<path d="M18.5711 14.8981H18.5675C18.5316 14.8981 18.5024 14.9272 18.5024 14.9632V15.1042C18.5024 15.1401 18.4733 15.1693 18.4373 15.1693H18.1658C18.1299 15.1693 18.1007 15.1402 18.1007 15.1042V14.9632C18.1007 14.9272 18.0716 14.8981 18.0356 14.8981H17.4947C17.4588 14.8981 17.4296 14.9272 17.4296 14.9632V15.2416C17.4296 15.2775 17.4587 15.3067 17.4947 15.3067H17.7662C17.8021 15.3067 17.8313 15.2776 17.8313 15.2416V15.2344C17.8313 15.1985 17.8022 15.1693 17.7662 15.1693H17.6286C17.5926 15.1693 17.5635 15.1402 17.5635 15.1042V15.0971C17.5635 15.0612 17.5926 15.032 17.6286 15.032H17.9017C17.9377 15.032 17.9668 15.0611 17.9668 15.0971V15.2416C17.9668 15.2775 17.9959 15.3067 18.0319 15.3067H18.5711C18.607 15.3067 18.6362 15.2776 18.6362 15.2416V14.9632C18.6363 14.9272 18.6071 14.8981 18.5711 14.8981ZM18.3034 14.8981H18.2998C18.2638 14.8981 18.2347 14.9272 18.2347 14.9632V14.9669C18.2347 15.0028 18.2638 15.032 18.2998 15.032H18.3034C18.3393 15.032 18.3685 15.0029 18.3685 14.9669V14.9632C18.3685 14.9272 18.3393 14.8981 18.3034 14.8981ZM18.5711 15.4439H16.9575C16.9215 15.4439 16.8924 15.473 16.8924 15.509V15.5162C16.8924 15.5521 16.9215 15.5813 16.9575 15.5813H18.5711C18.6071 15.5813 18.6362 15.5522 18.6362 15.5162V15.509C18.6363 15.473 18.6071 15.4439 18.5711 15.4439ZM16.9575 14.8981H17.2307C17.2666 14.8981 17.2958 14.9272 17.2958 14.9632V15.2416C17.2958 15.2775 17.2667 15.3067 17.2307 15.3067H16.8254C16.7894 15.3067 16.7603 15.3358 16.7603 15.3718V15.5162C16.7603 15.5522 16.7312 15.5813 16.6952 15.5813H16.6915C16.6555 15.5813 16.6263 15.5522 16.6263 15.5162V15.0971C16.6263 15.0612 16.5972 15.032 16.5612 15.032H16.5558C16.5199 15.032 16.4907 15.0611 16.4907 15.0971V15.5162C16.4907 15.5522 16.4616 15.5813 16.4256 15.5813H16.4202C16.3843 15.5813 16.3551 15.5522 16.3551 15.5162V15.0971C16.3551 15.0612 16.326 15.032 16.29 15.032H16.288C16.2521 15.032 16.2229 15.0611 16.2229 15.0971V15.5162C16.2229 15.5522 16.1938 15.5813 16.1578 15.5813H16.1542C16.1183 15.5813 16.0891 15.5522 16.0891 15.5162V14.9632C16.0891 14.9273 16.1182 14.8981 16.1542 14.8981H16.6952C16.7311 14.8981 16.7603 14.9272 16.7603 14.9632V15.1042C16.7603 15.1402 16.7894 15.1693 16.8254 15.1693H17.0968C17.1327 15.1693 17.1619 15.1402 17.1619 15.1042V15.0971C17.1619 15.0612 17.1328 15.032 17.0968 15.032H16.9574C16.9215 15.032 16.8923 15.0029 16.8923 14.9669V14.9632C16.8924 14.9272 16.9216 14.8981 16.9575 14.8981Z" fill="#F5F5F5"/>
<path d="M15.8903 14.8981H15.8867C15.8507 14.8981 15.8216 14.9272 15.8216 14.9632V15.1042C15.8216 15.1401 15.7924 15.1693 15.7564 15.1693H15.485C15.4491 15.1693 15.4199 15.1402 15.4199 15.1042V14.9632C15.4199 14.9272 15.3908 14.8981 15.3548 14.8981H14.8139C14.7779 14.8981 14.7488 14.9272 14.7488 14.9632V15.2416C14.7488 15.2775 14.7779 15.3067 14.8139 15.3067H15.087C15.123 15.3067 15.1521 15.2776 15.1521 15.2416V15.2344C15.1521 15.1985 15.123 15.1693 15.087 15.1693H14.9495C14.9135 15.1693 14.8843 15.1402 14.8843 15.1042V15.0971C14.8843 15.0612 14.9135 15.032 14.9495 15.032H15.2209C15.2568 15.032 15.286 15.0611 15.286 15.0971V15.2416C15.286 15.2775 15.3151 15.3067 15.3511 15.3067H15.8902C15.9262 15.3067 15.9553 15.2776 15.9553 15.2416V14.9632C15.9553 14.9272 15.9262 14.8981 15.8903 14.8981ZM15.6225 14.8981H15.6189C15.5829 14.8981 15.5538 14.9272 15.5538 14.9632V14.9669C15.5538 15.0028 15.5829 15.032 15.6189 15.032H15.6225C15.6584 15.032 15.6876 15.0029 15.6876 14.9669V14.9632C15.6875 14.9272 15.6584 14.8981 15.6225 14.8981ZM15.8903 15.4439H14.2783C14.2424 15.4439 14.2132 15.473 14.2132 15.509V15.5162C14.2132 15.5521 14.2423 15.5813 14.2783 15.5813H15.8903C15.9262 15.5813 15.9554 15.5522 15.9554 15.5162V15.509C15.9553 15.473 15.9262 15.4439 15.8903 15.4439ZM14.2783 14.8981H14.5515C14.5874 14.8981 14.6166 14.9272 14.6166 14.9632V15.2416C14.6166 15.2775 14.5875 15.3067 14.5515 15.3067H14.1427C14.1067 15.3067 14.0776 15.3358 14.0776 15.3718V15.5162C14.0776 15.5522 14.0485 15.5813 14.0125 15.5813H14.0089C13.9729 15.5813 13.9437 15.5522 13.9437 15.5162V15.0971C13.9437 15.0612 13.9146 15.032 13.8786 15.032H13.8767C13.8407 15.032 13.8116 15.0611 13.8116 15.0971V15.5162C13.8116 15.5522 13.7825 15.5813 13.7465 15.5813H13.7411C13.7051 15.5813 13.676 15.5522 13.676 15.5162V15.0971C13.676 15.0612 13.6468 15.032 13.6108 15.032H13.6071C13.5712 15.032 13.542 15.0611 13.542 15.0971V15.5162C13.542 15.5522 13.5129 15.5813 13.4769 15.5813H13.4733C13.4374 15.5813 13.4082 15.5522 13.4082 15.5162V14.9632C13.4082 14.9273 13.4373 14.8981 13.4733 14.8981H14.0125C14.0484 14.8981 14.0776 14.9272 14.0776 14.9632V15.1042C14.0776 15.1402 14.1067 15.1693 14.1427 15.1693H14.4158C14.4518 15.1693 14.4809 15.1402 14.4809 15.1042V15.0971C14.4809 15.0612 14.4518 15.032 14.4158 15.032H14.2782C14.2423 15.032 14.2131 15.0029 14.2131 14.9669V14.9632C14.2133 14.9272 14.2424 14.8981 14.2783 14.8981Z" fill="#F5F5F5"/>
<path d="M13.2094 14.8981H13.2057C13.1697 14.8981 13.1406 14.9272 13.1406 14.9632V15.1042C13.1406 15.1401 13.1114 15.1693 13.0754 15.1693H12.804C12.7681 15.1693 12.7389 15.1402 12.7389 15.1042V14.9632C12.7389 14.9272 12.7098 14.8981 12.6738 14.8981H12.1329C12.0969 14.8981 12.0678 14.9272 12.0678 14.9632V15.2416C12.0678 15.2775 12.0969 15.3067 12.1329 15.3067H12.406C12.442 15.3067 12.4711 15.2776 12.4711 15.2416V15.2344C12.4711 15.1985 12.442 15.1693 12.406 15.1693H12.2668C12.2309 15.1693 12.2017 15.1402 12.2017 15.1042V15.0971C12.2017 15.0612 12.2308 15.032 12.2668 15.032H12.5382C12.5742 15.032 12.6033 15.0611 12.6033 15.0971V15.2416C12.6033 15.2775 12.6324 15.3067 12.6684 15.3067H13.2094C13.2453 15.3067 13.2745 15.2776 13.2745 15.2416V14.9632C13.2744 14.9272 13.2453 14.8981 13.2094 14.8981ZM12.9398 14.8981H12.9379C12.9019 14.8981 12.8728 14.9272 12.8728 14.9632V14.9669C12.8728 15.0028 12.9019 15.032 12.9379 15.032H12.9398C12.9758 15.032 13.0049 15.0029 13.0049 14.9669V14.9632C13.0049 14.9272 12.9758 14.8981 12.9398 14.8981ZM13.2094 15.4439H11.5957C11.5597 15.4439 11.5306 15.473 11.5306 15.509V15.5162C11.5306 15.5521 11.5597 15.5813 11.5957 15.5813H13.2094C13.2453 15.5813 13.2745 15.5522 13.2745 15.5162V15.509C13.2744 15.473 13.2453 15.4439 13.2094 15.4439ZM11.5957 14.8981H11.8688C11.9047 14.8981 11.9339 14.9272 11.9339 14.9632V15.2416C11.9339 15.2775 11.9048 15.3067 11.8688 15.3067H11.4617C11.4258 15.3067 11.3966 15.3358 11.3966 15.3718V15.5162C11.3966 15.5522 11.3675 15.5813 11.3315 15.5813H11.3279C11.292 15.5813 11.2628 15.5522 11.2628 15.5162V15.0971C11.2628 15.0612 11.2337 15.032 11.1977 15.032H11.194C11.158 15.032 11.1289 15.0611 11.1289 15.0971V15.5162C11.1289 15.5522 11.0998 15.5813 11.0638 15.5813H11.0602C11.0242 15.5813 10.995 15.5522 10.995 15.5162V15.0971C10.995 15.0612 10.9659 15.032 10.9299 15.032H10.9263C10.8904 15.032 10.8612 15.0611 10.8612 15.0971V15.5162C10.8612 15.5522 10.8321 15.5813 10.7961 15.5813H10.7924C10.7565 15.5813 10.7273 15.5522 10.7273 15.5162V14.9632C10.7273 14.9273 10.7564 14.8981 10.7924 14.8981H11.3316C11.3675 14.8981 11.3967 14.9272 11.3967 14.9632V15.1042C11.3967 15.1402 11.4258 15.1693 11.4618 15.1693H11.7349C11.7709 15.1693 11.8 15.1402 11.8 15.1042V15.0971C11.8 15.0612 11.7709 15.032 11.7349 15.032H11.5957C11.5597 15.032 11.5306 15.0029 11.5306 14.9669V14.9632C11.5306 14.9272 11.5597 14.8981 11.5957 14.8981Z" fill="#F5F5F5"/>
<path d="M10.5283 14.8981H10.5246C10.4887 14.8981 10.4595 14.9272 10.4595 14.9632V15.1042C10.4595 15.1401 10.4304 15.1693 10.3944 15.1693H10.123C10.0871 15.1693 10.0579 15.1402 10.0579 15.1042V14.9632C10.0579 14.9272 10.0288 14.8981 9.99279 14.8981H9.45186C9.4159 14.8981 9.38675 14.9272 9.38675 14.9632V15.2416C9.38675 15.2775 9.41586 15.3067 9.45186 15.3067H9.72336C9.75931 15.3067 9.78846 15.2776 9.78846 15.2416V15.2344C9.78846 15.1985 9.75936 15.1693 9.72336 15.1693H9.58746C9.55151 15.1693 9.52236 15.1402 9.52236 15.1042V15.0971C9.52236 15.0612 9.55146 15.032 9.58746 15.032H9.85718C9.89314 15.032 9.92229 15.0611 9.92229 15.0971V15.2416C9.92229 15.2775 9.9514 15.3067 9.9874 15.3067H10.5283C10.5643 15.3067 10.5934 15.2776 10.5934 15.2416V14.9632C10.5934 14.9272 10.5643 14.8981 10.5283 14.8981ZM10.2589 14.8981H10.2569C10.2209 14.8981 10.1918 14.9272 10.1918 14.9632V14.9669C10.1918 15.0028 10.2209 15.032 10.2569 15.032H10.2589C10.2948 15.032 10.324 15.0029 10.324 14.9669V14.9632C10.3239 14.9272 10.2948 14.8981 10.2589 14.8981ZM10.5283 15.4439H8.91467C8.87872 15.4439 8.84956 15.473 8.84956 15.509V15.5162C8.84956 15.5521 8.87867 15.5813 8.91467 15.5813H10.5283C10.5642 15.5813 10.5934 15.5522 10.5934 15.5162V15.509C10.5934 15.473 10.5643 15.4439 10.5283 15.4439ZM8.91467 14.8981H9.18607C9.22203 14.8981 9.25118 14.9272 9.25118 14.9632V15.2416C9.25118 15.2775 9.22207 15.3067 9.18607 15.3067H8.78079C8.74484 15.3067 8.71568 15.3358 8.71568 15.3718V15.5162C8.71568 15.5522 8.68658 15.5813 8.65058 15.5813H8.64687C8.61092 15.5813 8.58176 15.5522 8.58176 15.5162V15.0971C8.58176 15.0612 8.55265 15.032 8.51665 15.032H8.51304C8.47709 15.032 8.44794 15.0611 8.44794 15.0971V15.5162C8.44794 15.5522 8.41883 15.5813 8.38283 15.5813H8.37912C8.34317 15.5813 8.31401 15.5522 8.31401 15.5162V15.0971C8.31401 15.0612 8.2849 15.032 8.2489 15.032H8.24529C8.20934 15.032 8.18019 15.0611 8.18019 15.0971V15.5162C8.18019 15.5522 8.15108 15.5813 8.11508 15.5813H8.11137C8.07542 15.5813 8.04626 15.5522 8.04626 15.5162V14.9632C8.04626 14.9273 8.07537 14.8981 8.11137 14.8981H8.65067C8.68662 14.8981 8.71578 14.9272 8.71578 14.9632V15.1042C8.71578 15.1402 8.74489 15.1693 8.78089 15.1693H9.05398C9.08993 15.1693 9.11909 15.1402 9.11909 15.1042V15.0971C9.11909 15.0612 9.08998 15.032 9.05398 15.032H8.91476C8.87881 15.032 8.84965 15.0029 8.84965 14.9669V14.9632C8.84956 14.9272 8.87876 14.8981 8.91467 14.8981Z" fill="#F5F5F5"/>
<path d="M7.84735 14.8981H7.84365C7.8077 14.8981 7.77854 14.9272 7.77854 14.9632V15.1042C7.77854 15.1401 7.74943 15.1693 7.71343 15.1693H7.44034C7.40439 15.1693 7.37523 15.1402 7.37523 15.1042V14.9632C7.37523 14.9272 7.34612 14.8981 7.31012 14.8981H6.77083C6.73487 14.8981 6.70572 14.9272 6.70572 14.9632V15.2416C6.70572 15.2775 6.73483 15.3067 6.77083 15.3067H7.04232C7.07828 15.3067 7.10743 15.2776 7.10743 15.2416V15.2344C7.10743 15.1985 7.07832 15.1693 7.04232 15.1693H6.90297C6.86701 15.1693 6.83786 15.1402 6.83786 15.1042V15.0971C6.83786 15.0612 6.86697 15.032 6.90297 15.032H7.17789C7.21384 15.032 7.243 15.0611 7.243 15.0971V15.2416C7.243 15.2775 7.27211 15.3067 7.30811 15.3067H7.84726C7.88321 15.3067 7.91237 15.2776 7.91237 15.2416V14.9632C7.91242 14.9272 7.88331 14.8981 7.84735 14.8981ZM7.57956 14.8981H7.57417C7.53821 14.8981 7.50906 14.9272 7.50906 14.9632V14.9669C7.50906 15.0028 7.53817 15.032 7.57417 15.032H7.57956C7.61551 15.032 7.64467 15.0029 7.64467 14.9669V14.9632C7.64467 14.9272 7.61551 14.8981 7.57956 14.8981ZM7.84735 15.4439H6.23373C6.19778 15.4439 6.16862 15.473 6.16862 15.509V15.5162C6.16862 15.5521 6.19773 15.5813 6.23373 15.5813H7.84735C7.88331 15.5813 7.91246 15.5522 7.91246 15.5162V15.509C7.91242 15.473 7.88331 15.4439 7.84735 15.4439ZM6.23364 14.8981H6.50504C6.541 14.8981 6.57015 14.9272 6.57015 14.9632V15.2416C6.57015 15.2775 6.54104 15.3067 6.50504 15.3067H6.09976C6.06381 15.3067 6.03466 15.3358 6.03466 15.3718V15.5162C6.03466 15.5522 6.00555 15.5813 5.96955 15.5813H5.96584C5.92989 15.5813 5.90073 15.5522 5.90073 15.5162V15.0971C5.90073 15.0612 5.87162 15.032 5.83562 15.032H5.83201C5.79606 15.032 5.76691 15.0611 5.76691 15.0971V15.5162C5.76691 15.5522 5.7378 15.5813 5.7018 15.5813H5.69809C5.66214 15.5813 5.63298 15.5522 5.63298 15.5162V15.0971C5.63298 15.0612 5.60387 15.032 5.56787 15.032H5.56248C5.52653 15.032 5.49737 15.0611 5.49737 15.0971V15.5162C5.49737 15.5522 5.46827 15.5813 5.43227 15.5813H5.43034C5.39439 15.5813 5.36523 15.5522 5.36523 15.5162V14.9632C5.36523 14.9273 5.39434 14.8981 5.43034 14.8981H5.9695C6.00545 14.8981 6.03461 14.9272 6.03461 14.9632V15.1042C6.03461 15.1402 6.06372 15.1693 6.09972 15.1693H6.36944C6.40539 15.1693 6.43454 15.1402 6.43454 15.1042V15.0971C6.43454 15.0612 6.40544 15.032 6.36944 15.032H6.23355C6.19759 15.032 6.16844 15.0029 6.16844 14.9669V14.9632C6.16858 14.9272 6.19769 14.8981 6.23364 14.8981Z" fill="#F5F5F5"/>
<path d="M5.16469 14.8981H5.16272C5.12677 14.8981 5.09761 14.9272 5.09761 14.9632V15.1042C5.09761 15.1401 5.0685 15.1693 5.0325 15.1693H4.761C4.72505 15.1693 4.69589 15.1402 4.69589 15.1042V14.9632C4.69589 14.9272 4.66679 14.8981 4.63079 14.8981H4.09004C4.05408 14.8981 4.02493 14.9272 4.02493 14.9632V15.2416C4.02493 15.2775 4.05404 15.3067 4.09004 15.3067H4.35966C4.39561 15.3067 4.42477 15.2776 4.42477 15.2416V15.2344C4.42477 15.1985 4.39566 15.1693 4.35966 15.1693H4.22218C4.18622 15.1693 4.15707 15.1402 4.15707 15.1042V15.0971C4.15707 15.0612 4.18618 15.032 4.22218 15.032H4.49532C4.53127 15.032 4.56043 15.0611 4.56043 15.0971V15.2416C4.56043 15.2775 4.58954 15.3067 4.62554 15.3067H5.16483C5.20078 15.3067 5.22994 15.2776 5.22994 15.2416V14.9632C5.22985 14.9272 5.20064 14.8981 5.16469 14.8981ZM4.89694 14.8981H4.89324C4.85729 14.8981 4.82813 14.9272 4.82813 14.9632V14.9669C4.82813 15.0028 4.85724 15.032 4.89324 15.032H4.89694C4.93289 15.032 4.96205 15.0029 4.96205 14.9669V14.9632C4.96205 14.9272 4.93289 14.8981 4.89694 14.8981ZM5.16469 15.4439H3.54933C3.51338 15.4439 3.48423 15.473 3.48423 15.509V15.5162C3.48423 15.5521 3.51333 15.5813 3.54933 15.5813H5.16474C5.20069 15.5813 5.22985 15.5522 5.22985 15.5162V15.509C5.22985 15.473 5.20064 15.4439 5.16469 15.4439ZM3.54933 14.8981H3.82426C3.86021 14.8981 3.88936 14.9272 3.88936 14.9632V15.2416C3.88936 15.2775 3.86026 15.3067 3.82426 15.3067H3.41888C3.38293 15.3067 3.35377 15.3358 3.35377 15.3718V15.5162C3.35377 15.5522 3.32466 15.5813 3.28866 15.5813H3.28327C3.24732 15.5813 3.21816 15.5522 3.21816 15.5162V15.0971C3.21816 15.0612 3.18905 15.032 3.15305 15.032H3.14944C3.11349 15.032 3.08434 15.0611 3.08434 15.0971V15.5162C3.08434 15.5522 3.05523 15.5813 3.01923 15.5813H3.01726C2.9813 15.5813 2.95215 15.5522 2.95215 15.5162V15.0971C2.95215 15.0612 2.92304 15.032 2.88704 15.032H2.88165C2.84569 15.032 2.81654 15.0611 2.81654 15.0971V15.5162C2.81654 15.5522 2.78743 15.5813 2.75143 15.5813H2.74773C2.71177 15.5813 2.68262 15.5522 2.68262 15.5162V14.9632C2.68262 14.9273 2.71173 14.8981 2.74773 14.8981H3.28866C3.32462 14.8981 3.35377 14.9272 3.35377 14.9632V15.1042C3.35377 15.1402 3.38288 15.1693 3.41888 15.1693H3.69029C3.72624 15.1693 3.7554 15.1402 3.7554 15.1042V15.0971C3.7554 15.0612 3.72629 15.032 3.69029 15.032H3.54943C3.51348 15.032 3.48432 15.0029 3.48432 14.9669V14.9632C3.48418 14.9272 3.51338 14.8981 3.54933 14.8981Z" fill="#F5F5F5"/>
<path d="M2.48371 14.8981H2.48001C2.44406 14.8981 2.4149 14.9272 2.4149 14.9632V15.1042C2.4149 15.1401 2.38579 15.1693 2.34979 15.1693H2.07839C2.04243 15.1693 2.01328 15.1402 2.01328 15.1042V14.9632C2.01328 14.9272 1.98417 14.8981 1.94817 14.8981H1.40728C1.37133 14.8981 1.34217 14.9272 1.34217 14.9632V15.2416C1.34217 15.2775 1.37128 15.3067 1.40728 15.3067H1.677C1.71295 15.3067 1.74211 15.2776 1.74211 15.2416V15.2344C1.74211 15.1985 1.713 15.1693 1.677 15.1693H1.53942C1.50347 15.1693 1.47431 15.1402 1.47431 15.1042V15.0971C1.47431 15.0612 1.50342 15.032 1.53942 15.032H1.81434C1.85029 15.032 1.87945 15.0611 1.87945 15.0971V15.2416C1.87945 15.2775 1.90856 15.3067 1.94456 15.3067H2.48371C2.51967 15.3067 2.54882 15.2776 2.54882 15.2416V14.9632C2.54882 14.9272 2.51967 14.8981 2.48371 14.8981ZM2.21596 14.8981H2.21226C2.17631 14.8981 2.14715 14.9272 2.14715 14.9632V14.9669C2.14715 15.0028 2.17626 15.032 2.21226 15.032H2.21596C2.25192 15.032 2.28107 15.0029 2.28107 14.9669V14.9632C2.28103 14.9272 2.25192 14.8981 2.21596 14.8981ZM2.48371 15.4439H0.871827C0.835873 15.4439 0.806717 15.473 0.806717 15.509V15.5162C0.806717 15.5521 0.835827 15.5813 0.871827 15.5813H2.48376C2.51971 15.5813 2.54887 15.5522 2.54887 15.5162V15.509C2.54882 15.473 2.51967 15.4439 2.48371 15.4439ZM0.871827 14.8981H1.14323C1.17919 14.8981 1.20834 14.9272 1.20834 14.9632V15.2416C1.20834 15.2775 1.17923 15.3067 1.14323 15.3067H0.73453C0.698577 15.3067 0.669421 15.3358 0.669421 15.3718V15.5162C0.669421 15.5522 0.640311 15.5813 0.604311 15.5813H0.604124C0.568171 15.5813 0.539015 15.5522 0.539015 15.5162V15.0971C0.539015 15.0612 0.509905 15.032 0.473905 15.032H0.466687C0.430734 15.032 0.401577 15.0611 0.401577 15.0971V15.5162C0.401577 15.5522 0.372468 15.5813 0.336468 15.5813H0.336327C0.300374 15.5813 0.271218 15.5522 0.271218 15.5162V15.0971C0.271218 15.0612 0.242109 15.032 0.206109 15.032H0.202359C0.166406 15.032 0.13725 15.0611 0.13725 15.0971V15.5162C0.13725 15.5522 0.10814 15.5813 0.0721405 15.5813H0.0651093C0.0291562 15.5813 0 15.5522 0 15.5162V14.9632C0 14.9273 0.0291093 14.8981 0.0651093 14.8981H0.604264C0.640218 14.8981 0.669374 14.9272 0.669374 14.9632V15.1042C0.669374 15.1402 0.698483 15.1693 0.734483 15.1693H1.00936C1.04531 15.1693 1.07447 15.1402 1.07447 15.1042V15.0971C1.07447 15.0612 1.04536 15.032 1.00936 15.032H0.871873C0.83592 15.032 0.806764 15.0029 0.806764 14.9669V14.9632C0.806717 14.9272 0.835873 14.8981 0.871827 14.8981Z" fill="#F5F5F5"/>
<path d="M23.9349 14.4828H22.8585C22.8225 14.4828 22.7934 14.5119 22.7934 14.5479V14.6923C22.7934 14.7282 22.8225 14.7574 22.8585 14.7574H23.9349C23.9708 14.7574 24 14.7283 24 14.6923V14.5479C24 14.5119 23.9709 14.4828 23.9349 14.4828ZM22.5927 14.4828H21.518C21.482 14.4828 21.4529 14.5119 21.4529 14.5479V14.6923C21.4529 14.7282 21.482 14.7574 21.518 14.7574H22.5927C22.6286 14.7574 22.6578 14.7283 22.6578 14.6923V14.5479C22.6578 14.5119 22.6286 14.4828 22.5927 14.4828Z" fill="#F5F5F5"/>
<path d="M21.2523 14.4828H20.1776C20.1416 14.4828 20.1125 14.5119 20.1125 14.5479V14.6923C20.1125 14.7282 20.1416 14.7574 20.1776 14.7574H21.2523C21.2882 14.7574 21.3174 14.7283 21.3174 14.6923V14.5479C21.3174 14.5119 21.2882 14.4828 21.2523 14.4828ZM19.9135 14.4828H18.8354C18.7994 14.4828 18.7703 14.5119 18.7703 14.5479V14.6923C18.7703 14.7282 18.7994 14.7574 18.8354 14.7574H19.9135C19.9494 14.7574 19.9786 14.7283 19.9786 14.6923V14.5479C19.9786 14.5119 19.9495 14.4828 19.9135 14.4828Z" fill="#F5F5F5"/>
<path d="M18.5712 14.4828H17.4948C17.4588 14.4828 17.4297 14.5119 17.4297 14.5479V14.6923C17.4297 14.7282 17.4588 14.7574 17.4948 14.7574H18.5712C18.6071 14.7574 18.6363 14.7283 18.6363 14.6923V14.5479C18.6363 14.5119 18.6071 14.4828 18.5712 14.4828ZM17.2307 14.4828H16.1543C16.1184 14.4828 16.0892 14.5119 16.0892 14.5479V14.6923C16.0892 14.7282 16.1183 14.7574 16.1543 14.7574H17.2307C17.2667 14.7574 17.2958 14.7283 17.2958 14.6923V14.5479C17.2958 14.5119 17.2666 14.4828 17.2307 14.4828Z" fill="#F5F5F5"/>
<path d="M15.8902 14.4828H14.8138C14.7779 14.4828 14.7487 14.5119 14.7487 14.5479V14.6923C14.7487 14.7282 14.7778 14.7574 14.8138 14.7574H15.8902C15.9262 14.7574 15.9553 14.7283 15.9553 14.6923V14.5479C15.9553 14.5119 15.9261 14.4828 15.8902 14.4828ZM14.5514 14.4828H13.4733C13.4374 14.4828 13.4082 14.5119 13.4082 14.5479V14.6923C13.4082 14.7282 13.4373 14.7574 13.4733 14.7574H14.5514C14.5874 14.7574 14.6165 14.7283 14.6165 14.6923V14.5479C14.6165 14.5119 14.5874 14.4828 14.5514 14.4828Z" fill="#F5F5F5"/>
<path d="M13.2094 14.4828H12.1329C12.0969 14.4828 12.0678 14.5119 12.0678 14.5479V14.6923C12.0678 14.7282 12.0969 14.7574 12.1329 14.7574H13.2094C13.2453 14.7574 13.2745 14.7283 13.2745 14.6923V14.5479C13.2744 14.5119 13.2453 14.4828 13.2094 14.4828ZM11.8689 14.4828H10.7924C10.7565 14.4828 10.7273 14.5119 10.7273 14.5479V14.6923C10.7273 14.7282 10.7564 14.7574 10.7924 14.7574H11.8689C11.9048 14.7574 11.934 14.7283 11.934 14.6923V14.5479C11.9339 14.5119 11.9048 14.4828 11.8689 14.4828Z" fill="#F5F5F5"/>
<path d="M10.5283 14.4828H9.45186C9.4159 14.4828 9.38675 14.5119 9.38675 14.5479V14.6923C9.38675 14.7282 9.41586 14.7574 9.45186 14.7574H10.5283C10.5643 14.7574 10.5934 14.7283 10.5934 14.6923V14.5479C10.5934 14.5119 10.5643 14.4828 10.5283 14.4828ZM9.18607 14.4828H8.11137C8.07542 14.4828 8.04626 14.5119 8.04626 14.5479V14.6923C8.04626 14.7282 8.07537 14.7574 8.11137 14.7574H9.18607C9.22203 14.7574 9.25118 14.7283 9.25118 14.6923V14.5479C9.25118 14.5119 9.22203 14.4828 9.18607 14.4828Z" fill="#F5F5F5"/>
<path d="M7.84734 14.4828H6.77085C6.7349 14.4828 6.70574 14.5119 6.70574 14.5479V14.6923C6.70574 14.7282 6.73485 14.7574 6.77085 14.7574H7.84734C7.88329 14.7574 7.91245 14.7283 7.91245 14.6923V14.5479C7.9124 14.5119 7.88329 14.4828 7.84734 14.4828ZM6.50507 14.4828H5.43047C5.39451 14.4828 5.36536 14.5119 5.36536 14.5479V14.6923C5.36536 14.7282 5.39447 14.7574 5.43047 14.7574H6.50507C6.54103 14.7574 6.57018 14.7283 6.57018 14.6923V14.5479C6.57014 14.5119 6.54103 14.4828 6.50507 14.4828Z" fill="#F5F5F5"/>
<path d="M5.16469 14.4828H4.09004C4.05408 14.4828 4.02493 14.5119 4.02493 14.5479V14.6923C4.02493 14.7282 4.05404 14.7574 4.09004 14.7574H5.16474C5.20069 14.7574 5.22985 14.7283 5.22985 14.6923V14.5479C5.22985 14.5119 5.20064 14.4828 5.16469 14.4828ZM3.82421 14.4828H2.74773C2.71177 14.4828 2.68262 14.5119 2.68262 14.5479V14.6923C2.68262 14.7282 2.71173 14.7574 2.74773 14.7574H3.82421C3.86016 14.7574 3.88932 14.7283 3.88932 14.6923V14.5479C3.88932 14.5119 3.86016 14.4828 3.82421 14.4828Z" fill="#F5F5F5"/>
<path d="M2.48371 14.4828H1.40728C1.37133 14.4828 1.34217 14.5119 1.34217 14.5479V14.6923C1.34217 14.7282 1.37128 14.7574 1.40728 14.7574H2.48376C2.51971 14.7574 2.54887 14.7283 2.54887 14.6923V14.5479C2.54882 14.5119 2.51967 14.4828 2.48371 14.4828ZM1.14319 14.4828H0.0651093C0.0291093 14.4828 0 14.5119 0 14.5479V14.6923C0 14.7282 0.0291093 14.7574 0.0651093 14.7574H1.14323C1.17919 14.7574 1.20834 14.7283 1.20834 14.6923V14.5479C1.20834 14.5119 1.17919 14.4828 1.14319 14.4828Z" fill="#F5F5F5"/>
<path d="M11.6577 10.0441C11.7804 10.0768 11.9115 10.0408 12.0015 9.94911C12.1373 10.0866 12.3599 10.0899 12.5007 9.95572C12.5924 9.86731 12.6301 9.73306 12.5973 9.61194C12.4779 9.80511 12.2258 9.86731 12.0326 9.74614C12.0228 9.73953 12.0097 9.73302 12.0016 9.72645C11.8199 9.86066 11.563 9.82466 11.4254 9.64466C11.4205 9.63477 11.4107 9.62169 11.4041 9.61194C11.3549 9.80192 11.4695 9.99824 11.6577 10.0441Z" fill="#FF4B55"/>
<path d="M12.4202 13.8682C12.8602 13.6266 13.2274 13.2461 13.4287 12.7448C13.7716 11.8856 13.5556 10.9157 12.8998 10.2867C12.8773 10.265 12.843 10.294 12.8594 10.3206C13.5062 11.3754 13.2514 12.7616 12.2505 13.5211L12.2983 10.457C12.299 10.4155 12.2804 10.3759 12.2481 10.3497L12.0853 10.2181C12.0354 10.1778 11.9642 10.178 11.9146 10.2185L11.7542 10.3497C11.7222 10.3758 11.7039 10.4152 11.7046 10.4565L11.7511 13.5228C10.75 12.7636 10.4946 11.3762 11.1405 10.3206C11.1568 10.294 11.1225 10.2651 11.1 10.2867C10.4455 10.9158 10.2282 11.8856 10.571 12.7448C10.7723 13.246 11.1394 13.6266 11.5795 13.8681C11.2995 13.9641 11.0051 14.015 10.7074 14.0065C10.676 14.0056 10.6697 14.0499 10.6998 14.059C11.078 14.1738 11.4669 14.1816 11.8327 14.0996L11.9762 14.3782C11.9862 14.3974 12.0137 14.3975 12.0237 14.3783L12.1682 14.0998C12.534 14.1816 12.9231 14.1736 13.3015 14.0588C13.3316 14.0497 13.3254 14.0055 13.2939 14.0064C12.9959 14.015 12.7008 13.9641 12.4202 13.8682Z" fill="#FF4B55"/>
<path d="M14.2111 11.0196C13.9859 10.5989 13.6119 10.2801 13.1668 10.1238C13.1389 10.114 13.1171 10.1509 13.1399 10.1697C14.1227 10.9792 14.3197 12.4212 13.5597 13.4651C13.5204 13.5175 13.4778 13.5731 13.4369 13.6189C14.3699 13.118 14.7153 11.9526 14.2111 11.0196Z" fill="#FF4B55"/>
<path d="M10.4416 13.4651C9.68156 12.4212 9.87703 10.9793 10.8596 10.1697C10.8825 10.1509 10.8607 10.1141 10.8328 10.1239C10.3882 10.2802 10.0168 10.5989 9.79012 11.0196C9.28275 11.9526 9.63141 13.118 10.566 13.6188C10.5218 13.5731 10.4793 13.5175 10.4416 13.4651Z" fill="#FF4B55"/>
</svg>
