<svg width="24" height="24" viewBox="0 0 24 24" fill="none" xmlns="http://www.w3.org/2000/svg">
<path d="M24 9.37935H0V4.55175C0 4.32324 0.185297 4.13794 0.413812 4.13794H23.5862C23.8147 4.13794 24 4.32324 24 4.55175L24 9.37935Z" fill="#464655"/>
<path d="M23.5861 19.8621H0.413812C0.185297 19.8621 0 19.6768 0 19.4483V14.6207H24V19.4483C24 19.6768 23.8147 19.8621 23.5861 19.8621Z" fill="#73AF00"/>
<path d="M24 9.37927H0V14.6204H24V9.37927Z" fill="#F5F5F5"/>
<path d="M0.152625 19.7621L9.66078 12.2145C9.79887 12.1049 9.79887 11.8952 9.66078 11.7856L0.152625 4.23804C0.061453 4.31393 0 4.4239 0 4.55177V19.4483C0 19.5762 0.061453 19.6862 0.152625 19.7621Z" fill="#FF4B55"/>
<path d="M12.4199 12.0001C12.4199 11.0562 13.0363 10.2566 13.8885 9.98126C13.9374 9.96541 13.931 9.89374 13.8798 9.88872C13.7162 9.87265 13.5472 9.87518 13.3746 9.89937C12.3736 10.0398 11.6014 10.8863 11.5531 11.8959C11.4949 13.1149 12.466 14.1215 13.6722 14.1215C13.742 14.1215 13.8109 14.1181 13.8789 14.1115C13.9303 14.1064 13.937 14.0345 13.8878 14.0186C13.036 13.7431 12.4199 12.9437 12.4199 12.0001Z" fill="#FF4B55"/>
<path d="M14.2211 10.6062L13.9424 11.4419L13.0614 11.4488C12.9473 11.4497 12.9 11.5952 12.9918 11.663L13.7005 12.1863L13.4347 13.0263C13.4003 13.1351 13.5241 13.225 13.6169 13.1587L14.3336 12.6463L15.0503 13.1587C15.1431 13.225 15.2669 13.1351 15.2325 13.0263L14.9668 12.1863L15.6755 11.663C15.7672 11.5952 15.7199 11.4496 15.6058 11.4488L14.7248 11.4419L14.4461 10.6062C14.4103 10.498 14.2573 10.498 14.2211 10.6062Z" fill="#FF4B55"/>
</svg>
