<svg width="24" height="24" viewBox="0 0 24 24" fill="none" xmlns="http://www.w3.org/2000/svg">
<path d="M24 9.37935H0V4.55175C0 4.32324 0.185297 4.13794 0.413812 4.13794H23.5862C23.8147 4.13794 24 4.32324 24 4.55175L24 9.37935Z" fill="#4173CD"/>
<path d="M23.5861 19.8621H0.413812C0.185297 19.8621 0 19.6768 0 19.4483V14.6207H24V19.4483C24 19.6768 23.8147 19.8621 23.5861 19.8621Z" fill="#4173CD"/>
<path d="M24 9.37924H0V14.6203H24V9.37924Z" fill="#F5F5F5"/>
<path d="M12.0599 11.324L12.208 11.768L12.6761 11.7716C12.7367 11.7721 12.7617 11.8495 12.713 11.8855L12.3365 12.1635L12.4777 12.6098C12.4959 12.6676 12.4302 12.7154 12.3808 12.6802L12.0001 12.408L11.6193 12.6801C11.5699 12.7153 11.5042 12.6676 11.5224 12.6098L11.6636 12.1635L11.2871 11.8854C11.2384 11.8494 11.2634 11.7721 11.324 11.7716L11.7921 11.768L11.9402 11.3239C11.9594 11.2665 12.0407 11.2665 12.0599 11.324Z" fill="#4173CD"/>
<path d="M7.83305 12.5157L7.98112 12.9597L8.44917 12.9634C8.50978 12.9638 8.53486 13.0412 8.48615 13.0772L8.10961 13.3552L8.25079 13.8015C8.26908 13.8593 8.20331 13.9071 8.15395 13.8719L7.77314 13.5997L7.39233 13.8719C7.34301 13.9071 7.27725 13.8593 7.29548 13.8015L7.43667 13.3552L7.06013 13.0772C7.01142 13.0412 7.0365 12.9638 7.09711 12.9634L7.56516 12.9597L7.71323 12.5157C7.73255 12.4582 7.81387 12.4582 7.83305 12.5157Z" fill="#4173CD"/>
<path d="M7.83305 10.1322L7.98112 10.5763L8.44917 10.5799C8.50978 10.5804 8.53486 10.6577 8.48615 10.6937L8.10961 10.9718L8.25079 11.4181C8.26908 11.4759 8.20331 11.5236 8.15395 11.4884L7.77314 11.2163L7.39233 11.4884C7.34301 11.5236 7.27725 11.4759 7.29548 11.4181L7.43667 10.9718L7.06013 10.6937C7.01142 10.6577 7.0365 10.5804 7.09711 10.5799L7.56516 10.5763L7.71323 10.1322C7.73255 10.0748 7.81387 10.0748 7.83305 10.1322Z" fill="#4173CD"/>
<path d="M16.2867 12.5157L16.4348 12.9597L16.9028 12.9634C16.9634 12.9638 16.9885 13.0412 16.9398 13.0772L16.5633 13.3552L16.7044 13.8015C16.7227 13.8593 16.657 13.9071 16.6076 13.8719L16.2268 13.5997L15.846 13.8719C15.7967 13.9071 15.7309 13.8593 15.7491 13.8015L15.8903 13.3552L15.5138 13.0772C15.465 13.0412 15.4902 12.9638 15.5508 12.9634L16.0188 12.9597L16.1669 12.5157C16.1862 12.4582 16.2675 12.4582 16.2867 12.5157Z" fill="#4173CD"/>
<path d="M16.2867 10.1322L16.4348 10.5763L16.9028 10.5799C16.9634 10.5804 16.9885 10.6577 16.9398 10.6937L16.5633 10.9718L16.7044 11.4181C16.7227 11.4759 16.657 11.5236 16.6076 11.4884L16.2268 11.2163L15.846 11.4884C15.7967 11.5236 15.7309 11.4759 15.7491 11.4181L15.8903 10.9718L15.5138 10.6937C15.465 10.6577 15.4902 10.5804 15.5508 10.5799L16.0188 10.5763L16.1669 10.1322C16.1862 10.0748 16.2675 10.0748 16.2867 10.1322Z" fill="#4173CD"/>
</svg>
