<svg width="24" height="24" viewBox="0 0 24 24" fill="none" xmlns="http://www.w3.org/2000/svg">
<path d="M0 14.6207H24V19.4482C24 19.6767 23.8147 19.862 23.5861 19.862H0.413812C0.185297 19.862 0 19.6767 0 19.4482V14.6207Z" fill="#73AF00"/>
<path d="M0.413812 4.13794H23.5862C23.8147 4.13794 24 4.32324 24 4.55175V9.3793H0V4.5517C0 4.32319 0.185297 4.13794 0.413812 4.13794Z" fill="#FF9B55"/>
<path d="M24 9.37921H0V14.6203H24V9.37921Z" fill="#F5F5F5"/>
<path d="M12 14.069C13.1427 14.069 14.069 13.1427 14.069 12C14.069 10.8573 13.1427 9.93091 12 9.93091C10.8573 9.93091 9.93091 10.8573 9.93091 12C9.93091 13.1427 10.8573 14.069 12 14.069Z" fill="#FF9B55"/>
</svg>
