<svg width="24" height="24" viewBox="0 0 24 24" fill="none" xmlns="http://www.w3.org/2000/svg">
<path d="M24 7.28282H0V4.55175C0 4.32324 0.185297 4.13794 0.413812 4.13794H23.5862C23.8147 4.13794 24 4.32324 24 4.55175L24 7.28282Z" fill="#FF4B55"/>
<path d="M24 7.28302H0V10.4279H24V7.28302Z" fill="#F5F5F5"/>
<path d="M24 10.4279H0V13.5727H24V10.4279Z" fill="#FF4B55"/>
<path d="M23.5861 19.8621H0.413812C0.185297 19.8621 0 19.6768 0 19.4482V16.7172H24V19.4482C24 19.6768 23.8147 19.8621 23.5861 19.8621Z" fill="#FF4B55"/>
<path d="M24 13.5727H0V16.7175H24V13.5727Z" fill="#F5F5F5"/>
<path d="M0.152625 19.7621L11.6061 12.2581C11.792 12.1362 11.792 11.8637 11.6061 11.742L0.152625 4.23804C0.061453 4.31393 0 4.4239 0 4.55177V19.4483C0 19.5762 0.061453 19.6862 0.152625 19.7621Z" fill="#41479B"/>
<path d="M4.22736 10.0794L4.65922 11.3742L6.02412 11.3848C6.20079 11.3861 6.2741 11.6117 6.13198 11.7167L5.03398 12.5275L5.44568 13.8289C5.49903 13.9974 5.30717 14.1368 5.16336 14.034L4.05289 13.2403L2.94242 14.034C2.7987 14.1368 2.60685 13.9974 2.6601 13.8289L3.0718 12.5275L1.9738 11.7167C1.83167 11.6117 1.90489 11.3862 2.08166 11.3848L3.44656 11.3742L3.87842 10.0794C3.93434 9.9117 4.17144 9.9117 4.22736 10.0794Z" fill="#F5F5F5"/>
</svg>
