<svg width="24" height="24" viewBox="0 0 24 24" fill="none" xmlns="http://www.w3.org/2000/svg">
<path d="M23.5861 4.13793H0.413812C0.185297 4.13793 0 4.32323 0 4.55174V19.4482C0 19.6767 0.185297 19.862 0.413812 19.862H23.5862C23.8147 19.862 24 19.6767 24 19.4482V4.55174C24 4.32323 23.8147 4.13793 23.5861 4.13793Z" fill="#464655"/>
<path d="M11.9999 4.96551L12.5246 7.70685L14.0584 5.37501L13.4942 8.10847L15.8036 6.54107L14.2363 8.85055L16.9697 8.28627L14.6379 9.82011L17.3792 10.3448L14.6379 10.8695L16.9697 12.4034L14.2363 11.8391L15.8036 14.1485L13.4942 12.5812L14.0584 15.3147L12.5246 12.9828L11.9999 15.7241L11.4752 12.9828L9.94132 15.3147L10.5056 12.5812L8.19616 14.1485L9.76357 11.8391L7.03011 12.4034L9.36194 10.8695L6.62061 10.3448L9.36194 9.82011L7.03011 8.28627L9.76357 8.85055L8.19616 6.54107L10.5056 8.10847L9.94132 5.37501L11.4752 7.70685L11.9999 4.96551Z" fill="#FFE15A"/>
<path d="M0 4.55174V19.4482C0 19.6767 0.185297 19.862 0.413812 19.862H12L0.107719 4.27916C0.0426562 4.35224 0 4.44617 0 4.55174Z" fill="#FF4B55"/>
<path d="M11.9999 19.862H23.586C23.8146 19.862 23.9999 19.6767 23.9999 19.4482V4.55174C23.9999 4.44618 23.9572 4.35224 23.8921 4.27911L11.9999 19.862Z" fill="#FF4B55"/>
<path d="M7.26314 13.6551H16.7368L19.2631 10.3448H4.73682L7.26314 13.6551Z" fill="#4173CD"/>
<path d="M7.26318 13.6551L12 19.862L16.7368 13.6551H7.26318Z" fill="#F5F5F5"/>
</svg>
