<svg width="24" height="24" viewBox="0 0 24 24" fill="none" xmlns="http://www.w3.org/2000/svg">
<path d="M23.5861 19.8621H0.413812C0.185297 19.8621 0 19.6768 0 19.4483V4.55175C0 4.32324 0.185297 4.13794 0.413812 4.13794H23.5862C23.8147 4.13794 24 4.32324 24 4.55175V19.4483C24 19.6768 23.8147 19.8621 23.5861 19.8621Z" fill="#FF4B55"/>
<path d="M0.152625 4.23804C0.061453 4.31393 0 4.4239 0 4.55177V19.4483C0 19.6768 0.185297 19.8621 0.413812 19.8621H23.5862C23.6868 19.8621 23.7756 19.8218 23.8473 19.7621L0.152625 4.23804Z" fill="#464655"/>
<path d="M2.41396 11.7323L2.17715 12.4423L1.42865 12.4481C1.35683 12.4487 1.32712 12.5403 1.38482 12.5829L1.98693 13.0276L1.76113 13.7412C1.73947 13.8096 1.81743 13.8662 1.87579 13.8245L2.48474 13.3892L3.09369 13.8245C3.1521 13.8663 3.23 13.8096 3.20835 13.7412L2.98255 13.0276L3.58466 12.5829C3.64236 12.5403 3.61264 12.4487 3.54083 12.4481L2.79233 12.4423L2.55552 11.7323C2.53297 11.6642 2.43664 11.6642 2.41396 11.7323Z" fill="#F5F5F5"/>
<path d="M7.5132 11.7323L7.27639 12.4423L6.52789 12.4481C6.45608 12.4487 6.42636 12.5403 6.48406 12.5829L7.08617 13.0276L6.86037 13.7412C6.83872 13.8096 6.91667 13.8662 6.97503 13.8245L7.58398 13.3892L8.19293 13.8245C8.25134 13.8663 8.32925 13.8096 8.30759 13.7412L8.08179 13.0276L8.6839 12.5829C8.74161 12.5403 8.71189 12.4487 8.64007 12.4481L7.89158 12.4423L7.65476 11.7323C7.63226 11.6642 7.53594 11.6642 7.5132 11.7323Z" fill="#F5F5F5"/>
<path d="M4.96352 8.6415L4.72671 9.35156L3.97821 9.35737C3.9064 9.35794 3.87668 9.44953 3.93438 9.49219L4.53649 9.9368L4.31069 10.6504C4.28903 10.7189 4.36699 10.7755 4.42535 10.7338L5.0343 10.2985L5.64325 10.7338C5.70166 10.7755 5.77956 10.7189 5.75791 10.6504L5.53211 9.9368L6.13422 9.49219C6.19192 9.44958 6.1622 9.35798 6.09039 9.35737L5.34189 9.35156L5.10508 8.6415C5.08253 8.57344 4.98625 8.57344 4.96352 8.6415Z" fill="#F5F5F5"/>
<path d="M4.96352 16.2421L4.72671 16.9522L3.97821 16.958C3.9064 16.9586 3.87668 17.0502 3.93438 17.0928L4.53649 17.5374L4.31069 18.2511C4.28903 18.3195 4.36699 18.3761 4.42535 18.3344L5.0343 17.8991L5.64325 18.3344C5.70166 18.3762 5.77956 18.3195 5.75791 18.2511L5.53211 17.5374L6.13422 17.0928C6.19192 17.0502 6.1622 16.9586 6.09039 16.958L5.34189 16.9522L5.10508 16.2421C5.08253 16.1741 4.98625 16.1741 4.96352 16.2421Z" fill="#F5F5F5"/>
<path d="M6.15135 14.3902L6.0254 14.7678L5.62738 14.7709C5.58923 14.7712 5.57338 14.8199 5.60409 14.8426L5.92424 15.079L5.80419 15.4585C5.79266 15.4949 5.8341 15.525 5.86518 15.5028L6.18904 15.2713L6.5129 15.5028C6.54393 15.525 6.58536 15.4949 6.57388 15.4585L6.45383 15.079L6.77399 14.8426C6.80469 14.8199 6.7889 14.7712 6.75069 14.7709L6.35268 14.7678L6.22673 14.3902C6.21463 14.3541 6.1634 14.3541 6.15135 14.3902Z" fill="#F5F5F5"/>
<path d="M20.5108 11.6412C20.4503 11.1723 20.2499 10.7089 20.1044 10.4227C20.1763 10.4587 20.288 10.5234 20.288 10.5234L20.1894 10.1658C20.4359 10.2645 20.6209 10.4556 20.6209 10.4556C20.4976 9.83912 20.3065 9.54943 20.3065 9.54943L20.4606 9.60493C20.1708 8.88981 19.7393 8.68637 19.7393 8.68637L19.9858 8.62473C19.6221 8.16854 19.1105 8.01442 19.1105 8.01442L19.4434 7.85411C18.5618 7.35475 17.7111 7.87876 17.7111 7.87876C17.7111 7.87876 18.007 7.57056 18.1179 7.44109C18.2289 7.31162 17.9638 7.2685 17.9638 7.2685C17.9638 7.2685 18.2227 7.08972 18.2104 6.9849C18.198 6.88005 17.9638 6.93559 17.9638 6.93559C17.9638 6.93559 18.1672 6.72601 18.1672 6.60887C18.1672 6.49173 17.9577 6.56575 17.9577 6.56575C17.9577 6.56575 18.0255 6.42395 18.044 6.31295C18.0625 6.202 17.859 6.29444 17.859 6.29444C17.859 6.29444 18.0871 5.88756 18.0748 5.80127C18.0625 5.71492 17.4769 6.07867 17.0577 6.47941C16.6385 6.88019 16.6888 7.52406 16.7259 7.67729C16.763 7.83053 16.7863 8.1879 16.6005 8.3132C16.4149 8.43854 16.0836 8.13161 15.9192 7.94256C15.7548 7.75351 15.5493 7.81923 15.3356 7.89325C15.1219 7.96722 14.7191 7.86859 14.5958 7.85214C14.4725 7.83568 14.7355 7.97546 14.9574 8.05764C15.1794 8.13981 15.278 8.33711 15.5904 8.45218C15.8639 8.55301 16.083 8.8089 15.8678 8.92684C15.7001 9.01876 15.7013 8.87134 14.9616 8.68028C14.2218 8.48921 13.3341 10.3694 13.3341 10.3694C13.8093 10.3106 14.0522 10.026 14.0522 10.026L13.9238 10.3943C14.275 10.3277 14.4468 10.1142 14.4468 10.1142L14.3539 10.4856C14.6231 10.402 14.8088 10.1142 14.8088 10.1142L14.7299 10.4809C14.9945 10.3555 15.1338 10.1142 15.1338 10.1142C15.1616 10.2488 15.1836 10.5235 15.1836 10.5235C15.5933 10.3045 15.6891 9.99338 15.6891 9.99338C16.1576 11.4113 16.8357 11.6455 16.8357 11.6455L16.8727 11.2756C17.0823 11.5716 17.3782 11.7195 17.3782 11.7195L17.3289 11.3989C18.0563 12.2866 18.8947 12.5086 18.8947 12.5086L18.68 12.0173L18.944 12.0708C18.6605 11.8304 18.5556 11.4112 18.5556 11.4112L18.7776 11.4482C18.42 11.1215 18.2413 10.7454 18.2413 10.7454L18.4571 10.7824C18.3892 10.6776 18.3337 10.3077 18.3337 10.3077C18.7283 10.4311 18.9317 10.5851 18.9317 10.5851L18.9551 10.4508C19.2936 10.6947 19.8494 11.1488 20.2347 11.7196C20.2352 11.9057 20.2051 12.0938 20.1277 12.2825C19.7744 13.1443 18.8454 13.088 18.4344 12.9071C18.4344 12.9071 19.7085 13.9017 20.4072 12.4879C20.4515 12.3984 20.4792 12.3025 20.499 12.2041C20.5862 12.412 20.6464 12.6287 20.6579 12.8537C20.7319 14.2963 19.2277 14.1607 19.2277 14.1607C19.2277 14.1607 20.8922 14.8265 20.9662 12.903C20.9825 12.4754 20.8015 12.0478 20.5108 11.6412ZM18.9985 10.2013L19.0057 10.1596C19.2585 10.2336 19.5236 10.4124 19.5236 10.4124L19.5822 10.2368C19.8322 10.5373 20.032 10.8607 20.1432 11.1954C19.8056 10.8327 19.401 10.4959 18.9985 10.2013Z" fill="#FFE15A"/>
</svg>
