<svg width="24" height="24" viewBox="0 0 24 24" fill="none" xmlns="http://www.w3.org/2000/svg">
<path d="M23.5861 19.8621H0.413812C0.185297 19.8621 0 19.6768 0 19.4483V4.55175C0 4.32324 0.185297 4.13794 0.413812 4.13794H23.5862C23.8147 4.13794 24 4.32324 24 4.55175V19.4483C24 19.6768 23.8147 19.8621 23.5861 19.8621Z" fill="#FF4B55"/>
<path d="M0.413812 4.138H11.5862C11.8147 4.138 12 4.3233 12 4.55181V11.5863C12 11.8148 11.8147 12.0001 11.5862 12.0001H0.413812C0.185297 12 0 11.8148 0 11.5862V4.55177C0 4.32325 0.185297 4.138 0.413812 4.138Z" fill="#41479B"/>
<path d="M4.51889 8.06902C4.51889 7.66017 4.68455 7.29005 4.95239 7.02207L3.71142 6.66708C3.63938 6.6465 3.58777 6.73594 3.64158 6.78802L4.57022 7.68591L3.31707 7.99922C3.24441 8.01736 3.24441 8.12067 3.31707 8.13886L4.57022 8.45217L3.64158 9.35006C3.58772 9.40214 3.63938 9.49158 3.71142 9.471L4.95239 9.11602C4.68455 8.84799 4.51889 8.47786 4.51889 8.06902Z" fill="#F5F5F5"/>
<path d="M4.95302 7.02141C5.22101 6.75356 5.59113 6.58791 5.99997 6.58791C6.40882 6.58791 6.77894 6.75356 7.04692 7.02141L7.40191 5.78044C7.42249 5.70839 7.33305 5.65678 7.28097 5.7106L6.38308 6.63919L6.06977 5.38604C6.05163 5.31338 5.94832 5.31338 5.93013 5.38604L5.61682 6.63919L4.71893 5.7106C4.66685 5.65674 4.57741 5.70839 4.59799 5.78044L4.95302 7.02141Z" fill="#F5F5F5"/>
<path d="M7.047 9.11664C6.77902 9.38448 6.40889 9.55014 6.00005 9.55014C5.5912 9.55014 5.22108 9.38448 4.9531 9.11664L4.59811 10.3576C4.57754 10.4297 4.66697 10.4813 4.71905 10.4274L5.61694 9.49886L5.93025 10.752C5.94839 10.8247 6.0517 10.8247 6.06989 10.752L6.3832 9.49886L7.28109 10.4274C7.33317 10.4813 7.42261 10.4297 7.40203 10.3576L7.047 9.11664Z" fill="#F5F5F5"/>
<path d="M8.68298 7.99916L7.42983 7.68585L8.35842 6.78796C8.41228 6.73588 8.36062 6.64644 8.28857 6.66702L7.04761 7.02201C7.31545 7.28999 7.48111 7.66011 7.48111 8.06896C7.48111 8.4778 7.31545 8.84792 7.04761 9.11591L8.28857 9.47089C8.36062 9.49147 8.41223 9.40203 8.35842 9.34995L7.42983 8.45207L8.68298 8.13875C8.75568 8.12066 8.75568 8.01739 8.68298 7.99916Z" fill="#F5F5F5"/>
<path d="M6.00005 9.24845C6.6514 9.24845 7.17942 8.72043 7.17942 8.06908C7.17942 7.41773 6.6514 6.88971 6.00005 6.88971C5.3487 6.88971 4.82068 7.41773 4.82068 8.06908C4.82068 8.72043 5.3487 9.24845 6.00005 9.24845Z" fill="#F5F5F5"/>
</svg>
