<svg width="24" height="24" viewBox="0 0 24 24" fill="none" xmlns="http://www.w3.org/2000/svg">
<path d="M24 9.37935H0V4.55175C0 4.32324 0.185297 4.13794 0.413812 4.13794H23.5862C23.8147 4.13794 24 4.32324 24 4.55175L24 9.37935Z" fill="#73AF00"/>
<path d="M23.5861 19.862H0.413812C0.185297 19.862 0 19.6767 0 19.4482V14.6207H24V19.4482C24 19.6768 23.8147 19.862 23.5861 19.862Z" fill="#FF4B55"/>
<path d="M24 9.37921H0V14.6203H24V9.37921Z" fill="#F5F5F5"/>
<path d="M12.1043 10.8039L12.3625 11.578L13.1784 11.5843C13.284 11.5852 13.3278 11.7199 13.2429 11.7827L12.5865 12.2674L12.8326 13.0454C12.8644 13.146 12.7497 13.2294 12.6638 13.1679L11.9999 12.6935L11.3361 13.168C11.2501 13.2294 11.1355 13.1461 11.1673 13.0454L11.4134 12.2674L10.757 11.7827C10.672 11.72 10.7158 11.5852 10.8214 11.5844L11.6374 11.578L11.8955 10.804C11.9291 10.7038 12.0709 10.7038 12.1043 10.8039Z" fill="#464655"/>
<path d="M6.39776 6.27471C6.43024 6.48288 6.5561 6.54823 6.66555 6.53974C6.79455 6.52971 6.90771 6.41173 6.90771 6.28718V5.57267C6.90771 5.53685 6.93682 5.5077 6.97268 5.5077C7.00854 5.5077 7.03765 5.53685 7.03765 5.57267V6.29023C7.03765 6.37652 7.08026 6.45691 7.15174 6.50524C7.19538 6.53477 7.24619 6.55005 7.29738 6.55005C7.32996 6.55005 7.36272 6.54387 7.39394 6.5314L7.45886 6.50543C7.46486 7.10515 7.42835 7.6323 7.42769 7.64196C7.42263 7.71349 7.47649 7.77565 7.54802 7.78076C7.55116 7.78104 7.5543 7.78113 7.55744 7.78113C7.62499 7.78113 7.68204 7.72882 7.68691 7.66047C7.68991 7.61819 7.72994 7.04097 7.71794 6.40184L7.75722 6.38618C7.79168 6.37249 7.8303 6.37413 7.86339 6.39063C8.0065 6.46193 8.17863 6.43413 8.29178 6.32112L8.31522 6.29777C8.42022 6.19263 8.45627 6.03987 8.4093 5.89891L8.29867 5.56704C8.35849 5.58504 8.42421 5.55856 8.45308 5.50095C8.48519 5.43677 8.45917 5.35873 8.395 5.32662L8.13517 5.19668C8.08816 5.1731 8.03177 5.18032 7.99197 5.21468C7.95227 5.24918 7.93727 5.30412 7.95386 5.35399L8.16288 5.98109C8.17853 6.02805 8.16649 6.07905 8.13152 6.11402L8.10818 6.13737C8.07428 6.17126 8.02272 6.17946 7.9796 6.15818C7.89541 6.11613 7.79955 6.10821 7.7096 6.13118C7.69132 5.71423 7.64646 5.29901 7.55074 5.01199C7.5281 4.94398 7.45465 4.90709 7.38635 4.92992C7.31829 4.95251 7.28149 5.02606 7.30422 5.09421C7.39779 5.3749 7.43861 5.80273 7.4531 6.22812L7.29761 6.29032V5.57276C7.29761 5.39365 7.15193 5.24796 6.97282 5.24796C6.79376 5.24796 6.64802 5.3936 6.64802 5.57276V6.20163L6.51551 5.54702C6.5014 5.47662 6.43291 5.43068 6.36246 5.4454C6.2921 5.45974 6.24663 5.52827 6.26093 5.59849L6.39776 6.27471Z" fill="#F5F5F5"/>
<path d="M6.64788 5.18292C6.7196 5.18292 6.77782 5.12484 6.77782 5.05298V4.92309C6.77782 4.85128 6.71965 4.79315 6.64788 4.79315C6.57616 4.79315 6.51794 4.85123 6.51794 4.92309V5.05303C6.51804 5.12484 6.57616 5.18292 6.64788 5.18292Z" fill="#F5F5F5"/>
<path d="M7.94708 5.05297H8.07701C8.14873 5.05297 8.20695 4.99489 8.20695 4.92303C8.20695 4.85117 8.14878 4.79309 8.07701 4.79309H7.94708C7.87536 4.79309 7.81714 4.85117 7.81714 4.92303C7.81714 4.99489 7.87531 5.05297 7.94708 5.05297Z" fill="#F5F5F5"/>
<path d="M7.10069 6.76035L6.45115 7.15006C6.3896 7.187 6.36968 7.26678 6.40662 7.32828C6.43099 7.36888 6.47398 7.39133 6.51813 7.39133C6.54091 7.39133 6.56393 7.38538 6.58484 7.37281L7.23438 6.9831C7.29593 6.94616 7.31585 6.86638 7.27891 6.80488C7.24198 6.74338 7.16229 6.72346 7.10069 6.76035Z" fill="#F5F5F5"/>
<path d="M8.85218 6.99014L8.85523 6.98808C8.86615 7.032 8.88485 7.07447 8.91518 7.11014C8.96796 7.1723 9.04713 7.20352 9.13657 7.19616C9.26346 7.18688 9.34971 7.12894 9.40675 7.05408C9.41543 7.06003 9.42461 7.06552 9.43418 7.0703C9.5044 7.10569 9.58558 7.10302 9.66288 7.06294C9.85924 6.96183 9.90152 6.72788 9.89552 6.60558C9.89205 6.53428 9.83139 6.48394 9.76024 6.48253C9.68885 6.48558 9.63335 6.5461 9.63588 6.61739C9.63593 6.61903 9.63888 6.7732 9.54457 6.83039C9.52919 6.80892 9.51096 6.76074 9.50411 6.72089C9.49315 6.654 9.43174 6.60745 9.36565 6.6128C9.29829 6.61814 9.24626 6.67472 9.24602 6.74231C9.24597 6.7612 9.2418 6.92789 9.11308 6.94186C9.09813 6.92142 9.0979 6.83541 9.11257 6.77184C9.12499 6.71972 9.10408 6.6653 9.05997 6.63483C9.01577 6.60427 8.95746 6.60427 8.91312 6.63431L8.8406 6.68367C8.80615 5.9303 8.72688 5.05243 8.7259 5.04118C8.71943 4.96988 8.65662 4.91672 8.58476 4.92357C8.51327 4.93004 8.46063 4.99322 8.4671 5.06475C8.46823 5.07675 8.56001 6.09244 8.58827 6.86817C8.58166 6.8745 8.57477 6.88139 8.56826 6.88739C8.51688 6.75788 8.41507 6.67631 8.28387 6.66384C8.09876 6.64749 7.89823 6.77344 7.82632 6.95334C7.76435 7.10813 7.80335 7.26023 7.92565 7.34081C8.01359 7.3988 8.14624 7.41703 8.31312 7.35853C8.27243 7.50164 8.19823 7.64676 8.1018 7.75903C8.01546 7.85962 7.87127 7.97569 7.68677 7.97053C7.57938 7.96636 7.49684 7.9312 7.43449 7.86295C7.28407 7.69866 7.29701 7.40128 7.29715 7.39809C7.30085 7.32656 7.2461 7.26553 7.17462 7.26159C7.10262 7.254 7.04168 7.3125 7.0377 7.38413C7.03681 7.40062 7.01801 7.79133 7.2417 8.03709C7.35181 8.15822 7.49815 8.22309 7.6766 8.23008C7.68527 8.23045 7.69399 8.23059 7.70271 8.23059C7.92007 8.23059 8.13087 8.12404 8.29882 7.92825C8.45683 7.74426 8.56413 7.49437 8.59629 7.26239C8.59587 7.70681 8.32812 8.20805 7.97295 8.42887C7.82215 8.52248 7.58707 8.607 7.32227 8.47645C6.99584 8.31534 7.03474 7.94226 7.03643 7.92698C7.04538 7.85583 6.99485 7.79086 6.92365 7.782C6.85278 7.77337 6.78748 7.82348 6.77867 7.89478C6.77576 7.91798 6.71332 8.46567 7.20734 8.70937C7.33423 8.77204 7.46688 8.80317 7.60066 8.80317C7.77246 8.80317 7.9458 8.75179 8.11015 8.64956C8.54248 8.38087 8.85626 7.79705 8.85626 7.26141C8.85644 7.17783 8.85485 7.08633 8.85218 6.99014ZM8.06885 7.12402C8.04565 7.10864 8.06379 7.05956 8.06773 7.04981C8.0951 6.98133 8.18065 6.92203 8.24904 6.92203C8.25251 6.92203 8.25607 6.92213 8.25949 6.92255C8.27609 6.92405 8.32019 6.92822 8.33913 7.02633C8.34115 7.03673 8.34283 7.04738 8.34419 7.0583C8.1994 7.14333 8.10237 7.146 8.06885 7.12402Z" fill="#F5F5F5"/>
<path d="M6.71352 8.31888C6.65197 8.28274 6.57247 8.30341 6.53591 8.36491C6.52995 8.37494 6.52199 8.38587 6.51397 8.39576C6.51256 8.39243 6.51116 8.38891 6.5098 8.38512C6.45566 8.2406 6.49419 8.01799 6.51369 7.9444C6.53202 7.87512 6.49077 7.80406 6.42153 7.78554C6.35239 7.76782 6.28124 7.80813 6.26267 7.87741C6.2532 7.91252 6.17333 8.22794 6.26652 8.47633C6.32614 8.63519 6.41764 8.67527 6.48402 8.68071C6.48992 8.68123 6.49574 8.68151 6.5015 8.68151C6.64138 8.68151 6.73442 8.54055 6.76034 8.49593C6.79616 8.43396 6.77516 8.35521 6.71352 8.31888Z" fill="#F5F5F5"/>
<path d="M9.11087 5.96241C9.13895 5.96241 9.16726 5.95341 9.19102 5.93462L9.84596 5.42045C9.85501 5.41337 9.86077 5.40404 9.86738 5.39532C9.9617 5.33842 10.0255 5.23599 10.0255 5.11801C10.0255 4.9389 9.87985 4.79321 9.70074 4.79321C9.52168 4.79321 9.37595 4.93885 9.37595 5.11801C9.37595 5.21823 9.42249 5.30687 9.49402 5.36645L9.03048 5.73038C8.97409 5.77468 8.96429 5.85638 9.00854 5.91273C9.03423 5.9454 9.07234 5.96241 9.11087 5.96241ZM9.70079 5.05299C9.73665 5.05299 9.76576 5.08215 9.76576 5.11796C9.76576 5.15377 9.73665 5.18293 9.70079 5.18293C9.66493 5.18293 9.63582 5.15377 9.63582 5.11796C9.63582 5.0822 9.66493 5.05299 9.70079 5.05299Z" fill="#F5F5F5"/>
<path d="M9.54712 5.83922C9.47868 5.81639 9.40541 5.85328 9.38273 5.9213C9.3688 5.96287 9.30604 6.17719 9.43335 6.3044C9.48276 6.3539 9.54773 6.37861 9.62746 6.37847C9.68076 6.37847 9.74062 6.36754 9.8069 6.34537C9.87496 6.32278 9.91176 6.24923 9.88902 6.18108C9.86634 6.11306 9.79288 6.07603 9.72463 6.099C9.65207 6.12309 9.62132 6.11915 9.6186 6.12169C9.61096 6.10237 9.61602 6.04439 9.62929 6.00291C9.65179 5.93508 9.61499 5.86181 9.54712 5.83922Z" fill="#F5F5F5"/>
<path d="M11.0338 5.3022C11.046 5.30577 11.0582 5.30741 11.0703 5.30741C11.1266 5.30741 11.1784 5.27061 11.1949 5.21389L11.2708 4.95406C11.2909 4.88516 11.2513 4.81302 11.1825 4.79296C11.1134 4.77303 11.0415 4.81236 11.0214 4.88127L10.9456 5.1411C10.9254 5.20991 10.9651 5.28214 11.0338 5.3022Z" fill="#F5F5F5"/>
<path d="M10.2766 5.28692C10.2973 5.29897 10.3198 5.30464 10.3421 5.30464C10.3867 5.30464 10.4302 5.28167 10.4544 5.24028C10.4906 5.17836 10.4698 5.09872 10.4079 5.06258C10.3818 5.04739 10.3853 5.00436 10.3863 4.99588C10.3902 4.96175 10.4105 4.92018 10.4459 4.90907C10.5144 4.88774 10.5527 4.81494 10.5313 4.74646C10.5099 4.67783 10.4372 4.63991 10.3686 4.66096C10.2391 4.70132 10.1447 4.82118 10.1281 4.96635C10.1126 5.10144 10.1696 5.2243 10.2766 5.28692Z" fill="#F5F5F5"/>
<path d="M9.24615 7.39136C9.17443 7.39136 9.11621 7.44944 9.11621 7.52129C9.11621 7.58472 9.16163 7.6375 9.22177 7.64889C9.22862 7.65892 9.24615 7.69328 9.24615 7.78108C9.24615 7.85289 9.30432 7.91101 9.37609 7.91101C9.44785 7.91101 9.50602 7.85293 9.50602 7.78108C9.50598 7.39581 9.25674 7.39136 9.24615 7.39136Z" fill="#F5F5F5"/>
<path d="M11.4502 6.85346C11.4665 6.85613 11.4827 6.8574 11.499 6.8574C11.6011 6.8574 11.7042 6.80588 11.8064 6.70379C11.8571 6.65307 11.8571 6.57085 11.8064 6.52008C11.7557 6.46937 11.6734 6.46937 11.6227 6.52008C11.545 6.5979 11.5032 6.59949 11.4925 6.5971C11.4676 6.59354 11.4452 6.56119 11.4401 6.55229C11.4076 6.48915 11.3303 6.46384 11.2667 6.49571C11.2025 6.52782 11.1765 6.60582 11.2086 6.67004C11.2166 6.68616 11.2916 6.82772 11.4502 6.85346Z" fill="#F5F5F5"/>
<path d="M13.6583 5.94052C13.6574 5.9385 13.6567 5.93658 13.6561 5.93485C13.633 5.86735 13.5595 5.83069 13.4921 5.85366C13.424 5.87625 13.3872 5.9498 13.4099 6.01796C13.42 6.04842 13.4779 6.20114 13.6213 6.22046C13.6308 6.22177 13.6404 6.22238 13.6498 6.22238C13.7398 6.22238 13.8242 6.16416 13.9011 6.04894C13.9409 5.98932 13.9247 5.9086 13.8651 5.8688C13.8054 5.8291 13.7246 5.84508 13.6849 5.90485C13.6746 5.92013 13.6657 5.9318 13.6583 5.94052Z" fill="#F5F5F5"/>
<path d="M13.4032 8.30082C13.4032 7.74681 13.3788 7.22711 13.3451 6.77176C13.5296 7.09169 13.6955 7.41494 13.8012 7.69693C13.8208 7.74906 13.8703 7.78122 13.9229 7.78122C13.938 7.78122 13.9534 7.77854 13.9685 7.77301C14.0357 7.74779 14.0697 7.67293 14.0445 7.60567C13.8801 7.16729 13.5845 6.64525 13.2932 6.1818C13.2222 5.48195 13.1427 5.03781 13.1412 5.02989C13.1284 4.95925 13.0609 4.91153 12.9902 4.92536C12.9196 4.93821 12.8728 5.0058 12.8856 5.07635C12.8867 5.08197 12.9276 5.31081 12.9765 5.69589C12.8767 5.54781 12.784 5.41417 12.7061 5.3042L12.7125 5.30622C12.7809 5.32905 12.8541 5.29216 12.8769 5.22414C12.8996 5.15603 12.8628 5.08244 12.7948 5.05985L12.4051 4.92991C12.351 4.91163 12.2917 4.93094 12.2586 4.97706C12.2497 4.98939 12.2436 5.00289 12.2396 5.01691C12.1618 4.95939 12.0621 4.91271 11.9685 4.95185C11.9118 4.97533 11.8443 5.03444 11.8443 5.18299C11.8443 5.29703 11.8878 5.42036 11.934 5.551C12.0105 5.76766 12.0584 5.92703 11.9774 6.00302C11.9326 6.04502 11.8879 6.06086 11.8442 6.04984C11.7641 6.02955 11.6848 5.92286 11.632 5.76438C11.6297 5.75749 11.625 5.75252 11.6217 5.74633C11.649 5.54505 11.6371 5.30266 11.5821 5.0276C11.5681 4.95719 11.4998 4.91139 11.4292 4.92569C11.3588 4.93975 11.3132 5.00814 11.3273 5.0786C11.4121 5.50281 11.3867 5.84894 11.2592 6.00433C11.2099 6.06447 11.1482 6.09236 11.0649 6.09236C11.0386 6.09236 11.0206 6.08397 11.0027 6.06344C10.9002 5.94531 10.9007 5.56422 10.9337 5.3312C10.939 5.29403 10.9278 5.2562 10.9032 5.2278C10.8785 5.19939 10.8427 5.18299 10.8051 5.18299C10.5816 5.18299 10.4968 5.43719 10.4221 5.66153C10.3893 5.76011 10.3281 5.94344 10.2855 5.96247C10.2069 5.96247 10.156 5.73156 10.1556 5.57261C10.1554 5.50094 10.0973 5.44295 10.0256 5.44295H10.0255C9.95378 5.44295 9.89575 5.50103 9.89575 5.57275C9.89575 5.87238 9.9978 6.2223 10.2855 6.2223C10.4996 6.2223 10.5865 5.98886 10.6591 5.77192C10.6717 5.94447 10.7106 6.12325 10.8064 6.23359C10.8737 6.31122 10.9631 6.35219 11.0649 6.35219C11.2253 6.35219 11.3619 6.28886 11.4601 6.16914C11.4779 6.14748 11.4932 6.12259 11.5083 6.09747C11.5838 6.20467 11.6763 6.27541 11.7805 6.30175C11.8111 6.30953 11.8419 6.31342 11.8724 6.31342C11.9727 6.31342 12.0707 6.27203 12.1553 6.19253C12.1729 6.17598 12.1853 6.15794 12.1987 6.14012C12.2305 6.14922 12.2627 6.15461 12.2947 6.15461C12.3999 6.15461 12.5012 6.11223 12.5641 6.07192C12.6242 6.03334 12.6416 5.9537 12.6034 5.89333C12.5651 5.83305 12.4851 5.81505 12.4245 5.85288C12.4234 5.85339 12.3366 5.90327 12.2775 5.89155C12.2776 5.74914 12.2261 5.59788 12.179 5.46461C12.1522 5.38872 12.1247 5.311 12.1119 5.24744C12.1225 5.25644 12.133 5.26586 12.1424 5.27495C12.193 5.32567 12.2753 5.32567 12.326 5.27495C12.3344 5.26656 12.3392 5.25639 12.3449 5.24655C12.4795 5.43208 12.7565 5.82189 13.0414 6.27123C13.0958 6.82356 13.1435 7.52818 13.1435 8.30092C13.1435 8.37273 13.2017 8.43086 13.2735 8.43086C13.345 8.43071 13.4032 8.37259 13.4032 8.30082Z" fill="#F5F5F5"/>
<path d="M13.5331 5.44272C13.5331 5.51453 13.5913 5.57265 13.663 5.57265C13.7348 5.57265 13.793 5.51457 13.793 5.44272C13.793 5.28981 13.6734 5.04283 13.6494 4.99487C13.6173 4.93079 13.5393 4.90492 13.475 4.93679C13.4109 4.9689 13.3848 5.0469 13.417 5.11112C13.4638 5.20483 13.5331 5.37493 13.5331 5.44272Z" fill="#F5F5F5"/>
<path d="M12.942 8.31498C12.8783 8.28249 12.8 8.30827 12.7676 8.37216C12.7536 8.39945 12.732 8.42977 12.7138 8.44927C12.7079 8.39766 12.7218 8.29449 12.7479 8.20899C12.7654 8.1519 12.7417 8.09021 12.6905 8.05956C12.6396 8.02871 12.574 8.03673 12.5319 8.07896L12.272 8.33879C12.2213 8.38951 12.2213 8.47173 12.272 8.52249C12.3228 8.5733 12.405 8.57321 12.4558 8.52249L12.4624 8.51588C12.4736 8.56801 12.4951 8.61559 12.5319 8.65238C12.5806 8.70109 12.6395 8.72687 12.7007 8.72687C12.7125 8.72687 12.7245 8.72584 12.7363 8.72396C12.8835 8.7001 12.9751 8.53787 12.9997 8.48879C13.0318 8.42476 13.0059 8.34723 12.942 8.31498Z" fill="#F5F5F5"/>
<path d="M12.8917 7.26962H11.9762C11.9843 7.23727 11.9927 7.20648 12.0012 7.17713C12.3663 7.10124 12.5832 6.98345 12.6471 6.82609C12.6692 6.77152 12.6922 6.66128 12.5982 6.53457C12.5136 6.42043 12.394 6.36915 12.2698 6.39451C12.0852 6.43196 11.9208 6.63085 11.8027 6.94932C11.436 7.01213 11.2012 7.14376 11.0526 7.2737C10.9999 6.74134 10.7932 6.42512 10.7832 6.41007C10.7434 6.35035 10.6627 6.33418 10.6031 6.37403C10.5434 6.41387 10.5273 6.49445 10.5671 6.55417C10.5694 6.55773 10.805 6.91815 10.805 7.52138C10.805 8.11435 10.3322 8.56069 10.0256 8.56069C9.87969 8.56069 9.81589 8.3873 9.78776 8.24072C10.088 8.0303 10.3529 7.78684 10.4114 7.55288C10.4906 7.23634 10.3909 7.00304 10.325 6.84868C10.3219 6.8416 10.3186 6.83396 10.3154 6.82609C10.3182 6.82862 10.3208 6.83129 10.3235 6.83387C10.3741 6.88459 10.4564 6.88459 10.5071 6.83387C10.5578 6.78315 10.5578 6.70093 10.5071 6.65017C10.4312 6.57418 10.2837 6.45479 10.1496 6.51085C10.093 6.53434 10.0255 6.59345 10.0255 6.74199C10.0255 6.80912 10.0535 6.8747 10.086 6.95082C10.1445 7.08774 10.2172 7.25813 10.1592 7.48998C10.1249 7.62718 9.95637 7.79368 9.73405 7.95896C9.71019 7.93046 9.67573 7.91129 9.63575 7.91129H9.63556C9.56389 7.91138 9.50586 7.96937 9.50586 8.04108C9.50586 8.06448 9.50689 8.08946 9.50839 8.1151C9.23037 8.29515 8.9158 8.46179 8.67256 8.57246C8.60727 8.60213 8.57844 8.67915 8.60811 8.74449C8.62991 8.79235 8.67706 8.82061 8.72642 8.82061C8.74442 8.82061 8.7627 8.81696 8.78009 8.80894C8.85313 8.77575 9.19981 8.61422 9.55601 8.39349C9.62159 8.61619 9.76058 8.82061 10.0255 8.82061C10.3371 8.82061 10.6907 8.56576 10.8947 8.18527C10.9193 8.22877 10.9477 8.2704 10.9814 8.3093C11.3084 8.68636 11.9471 8.69068 11.9741 8.69068C12.0441 8.69068 12.1014 8.63536 12.1039 8.56547C12.1064 8.49558 12.0531 8.43619 11.9834 8.43127C11.9824 8.43118 11.8789 8.41974 11.8213 8.35247C11.7865 8.31188 11.7726 8.25605 11.7788 8.18185C11.7921 8.02177 12.3085 7.90215 12.7637 7.89498C12.8179 7.89408 12.8659 7.85968 12.8841 7.80858L13.0141 7.44319C13.0282 7.40349 13.0221 7.3592 12.9978 7.32484C12.9736 7.2902 12.9339 7.26962 12.8917 7.26962ZM12.3214 6.64927C12.3239 6.64876 12.3273 6.64796 12.3313 6.64796C12.3438 6.64796 12.3634 6.65406 12.3895 6.68935C12.3945 6.69596 12.4103 6.71851 12.4063 6.7284C12.3914 6.7652 12.3017 6.82595 12.1148 6.88102C12.197 6.72071 12.2774 6.65809 12.3214 6.64927ZM11.5369 8.35697C11.4049 8.31408 11.2705 8.24607 11.1774 8.1384C11.075 8.02004 11.0373 7.87032 11.062 7.6809C11.0657 7.67096 11.0742 7.65132 11.0891 7.62582C11.2721 7.60904 11.7607 7.68118 11.7946 7.82115C11.6439 7.89812 11.5328 8.00626 11.52 8.1601C11.5136 8.23726 11.5214 8.30255 11.5369 8.35697Z" fill="#F5F5F5"/>
<path d="M14.306 5.40169L14.1761 5.01197C14.1551 4.9493 14.0901 4.9119 14.0256 4.9261C13.9609 4.93993 13.9169 5.00016 13.9235 5.06602C14.0132 5.96246 14.1827 7.71066 14.1827 7.91109C14.1827 8.09109 13.8625 8.44556 13.3452 8.70426C13.281 8.73637 13.255 8.81437 13.2871 8.87859C13.3099 8.92415 13.3557 8.9504 13.4034 8.9504C13.4229 8.9504 13.4427 8.94595 13.4614 8.93672C13.9339 8.70037 14.4425 8.27869 14.4425 7.91114C14.4425 7.71919 14.3097 6.33811 14.2337 5.56238C14.2954 5.53599 14.3276 5.46633 14.306 5.40169Z" fill="#F5F5F5"/>
<path d="M15.39 6.5739C15.4149 6.59888 15.4482 6.61196 15.4819 6.61196C15.5038 6.61196 15.5259 6.60638 15.5461 6.59495C15.5969 6.56602 15.6221 6.50663 15.6077 6.44996C15.5844 6.3586 15.5767 6.24446 15.589 6.19777C15.6541 6.19979 15.7145 6.15348 15.724 6.08635C15.7342 6.01529 15.6849 5.94943 15.6139 5.93931C15.528 5.92764 15.4525 5.95285 15.3999 6.01149C15.3657 6.04956 15.3454 6.0984 15.3344 6.15095L15.1839 6.00048C15.1332 5.94976 15.051 5.94976 15.0002 6.00048C14.9495 6.0512 14.9495 6.13342 15.0002 6.18418L15.39 6.5739Z" fill="#F5F5F5"/>
<path d="M15.6823 6.70937L15.1951 7.05849C15.1368 7.10021 15.1234 7.18145 15.1652 7.23981C15.1906 7.2752 15.2305 7.29395 15.2709 7.29395C15.2971 7.29395 15.3235 7.28607 15.3464 7.26957L15.8336 6.92045C15.8919 6.87873 15.9053 6.7975 15.8636 6.73914C15.8217 6.68087 15.7404 6.66728 15.6823 6.70937Z" fill="#F5F5F5"/>
<path d="M15.639 7.1979C15.5982 7.25054 15.604 7.3246 15.6504 7.37021C15.656 7.37963 15.6813 7.42932 15.6768 7.5572C15.6743 7.62901 15.7303 7.68915 15.802 7.69168C15.8036 7.69177 15.8051 7.69177 15.8067 7.69177C15.8763 7.69177 15.9339 7.6366 15.9365 7.56657C15.9459 7.30145 15.8591 7.20451 15.8214 7.17516C15.7649 7.13091 15.6831 7.14132 15.639 7.1979Z" fill="#F5F5F5"/>
<path d="M16.7729 8.1546C16.8446 8.1546 16.9028 8.09652 16.9028 8.02466C16.9028 7.83299 16.8929 7.619 16.8768 7.39635C17.0056 7.60743 17.1126 7.802 17.1813 7.96208C17.2023 8.01144 17.2503 8.04088 17.3007 8.04088C17.3178 8.04088 17.3352 8.03755 17.3518 8.03033C17.4177 8.00202 17.4483 7.92571 17.42 7.85985C17.301 7.5823 17.0788 7.21466 16.8256 6.83502C16.7746 6.35816 16.7081 5.89101 16.6564 5.55585C16.6839 5.55866 16.7124 5.55191 16.7375 5.5357C16.7785 5.5094 16.7978 5.46374 16.795 5.41832C16.7983 5.43112 16.802 5.44391 16.8094 5.45568C16.8103 5.45699 16.8938 5.59485 16.8568 5.77373C16.8422 5.84385 16.8874 5.91266 16.9577 5.92724C16.9666 5.92902 16.9754 5.92991 16.9841 5.92991C17.0444 5.92991 17.0985 5.88763 17.1112 5.82627C17.1699 5.54245 17.0344 5.32527 17.0286 5.31618C16.9901 5.25576 16.9098 5.23804 16.8493 5.27634C16.8081 5.30263 16.7886 5.34829 16.7913 5.39381C16.7879 5.38096 16.7842 5.36802 16.7766 5.35626L16.5575 5.01524C16.5239 4.96321 16.4585 4.94217 16.4009 4.96453C16.3432 4.98712 16.3095 5.04712 16.3202 5.10801C16.3221 5.11818 16.4213 5.68832 16.5093 6.37541C16.4097 6.23479 16.3101 6.09726 16.2135 5.96601C16.1978 5.76946 16.1821 5.58773 16.1685 5.43749C16.1757 5.43534 16.1827 5.43252 16.1896 5.4291C16.2538 5.39699 16.2798 5.31899 16.2477 5.25477L16.1177 4.99495C16.0897 4.93888 16.0257 4.91095 15.9654 4.92824C15.9052 4.94573 15.866 5.00362 15.8722 5.06606C15.8878 5.22107 15.9038 5.39273 15.9197 5.57301C15.8376 5.46468 15.7615 5.36554 15.6965 5.28159C15.7092 5.27067 15.72 5.25712 15.728 5.24113C15.7601 5.17696 15.7341 5.09892 15.6699 5.06681L15.4101 4.93687C15.3556 4.90973 15.2894 4.92393 15.251 4.97137C15.2126 5.01881 15.2125 5.08654 15.2506 5.13426C15.2576 5.14298 15.5774 5.54395 15.9601 6.06149C16.0265 6.91986 16.0706 7.81269 16.0082 7.99991C15.9968 8.03413 15.9769 8.07449 15.9582 8.07589C15.8796 8.08682 15.6922 7.91122 15.5981 7.72307C15.5438 7.61469 15.4658 7.60344 15.4241 7.60536C15.2845 7.61399 15.23 7.76764 15.131 8.04646C15.06 8.24628 14.9719 8.49467 14.8729 8.5963C14.8192 8.53077 14.7499 8.31083 14.7113 8.0848C14.7294 8.13477 14.7762 8.17091 14.8324 8.17091C14.9041 8.17091 14.9624 8.11283 14.9624 8.04097C14.9624 7.84729 14.8268 6.3718 14.7512 5.56321C14.8143 5.53781 14.8476 5.46716 14.8258 5.40173L14.6958 5.01201C14.6749 4.94934 14.6108 4.91245 14.5457 4.92599C14.481 4.93968 14.437 4.99968 14.4432 5.06545C14.5315 5.99216 14.6971 7.78222 14.7022 8.02935C14.7019 8.02714 14.7014 8.02489 14.7011 8.02274C14.691 7.95168 14.6247 7.90302 14.5542 7.91253C14.4831 7.92285 14.4338 7.98852 14.444 8.05958C14.4819 8.32513 14.5789 8.78169 14.8021 8.85603C14.8198 8.86199 14.8435 8.86733 14.8713 8.86733C14.9225 8.86733 14.9876 8.84919 15.0541 8.78263C15.1956 8.64116 15.2914 8.37149 15.3758 8.1336C15.3949 8.07978 15.4175 8.01613 15.4388 7.96157C15.558 8.13561 15.7659 8.35227 15.9766 8.3353C16.0507 8.32996 16.1855 8.29016 16.2547 8.08232C16.3238 7.87504 16.2965 7.15232 16.2499 6.4604C16.3594 6.61382 16.4689 6.77085 16.5734 6.92601C16.6139 7.31502 16.643 7.70483 16.643 8.02494C16.6429 8.09652 16.7011 8.1546 16.7729 8.1546Z" fill="#F5F5F5"/>
<path d="M17.7587 7.47133C17.6667 6.78573 17.5385 5.99158 17.4572 5.50417C17.4939 5.51317 17.5338 5.50581 17.5661 5.48111C17.6232 5.43761 17.6341 5.35605 17.5905 5.29905L17.3551 4.99052C17.3187 4.94308 17.2547 4.92635 17.1998 4.9503C17.1449 4.9743 17.1136 5.03266 17.1238 5.09163C17.1261 5.10499 17.3578 6.43858 17.5011 7.50587C17.5558 7.91378 17.4759 8.27823 17.2872 8.48073C17.1659 8.61076 17.0052 8.66964 16.8107 8.65834C16.7393 8.6545 16.6774 8.70831 16.6729 8.77988C16.6684 8.85146 16.7227 8.91306 16.7944 8.9177C16.8163 8.9191 16.8379 8.91971 16.8594 8.91971C17.1044 8.91971 17.317 8.82985 17.4773 8.65787C17.722 8.39509 17.8246 7.96267 17.7587 7.47133Z" fill="#F5F5F5"/>
<path d="M16.3296 8.32773C16.2818 8.37962 16.2855 8.46132 16.336 8.51026C16.343 8.5171 16.3515 8.53055 16.3515 8.53716C16.3515 8.54082 16.3463 8.55174 16.3319 8.56623C16.2811 8.61694 16.2811 8.69916 16.3319 8.74993C16.3573 8.77533 16.3905 8.78799 16.4237 8.78799C16.457 8.78799 16.4902 8.77533 16.5156 8.74993C16.598 8.66757 16.6131 8.58399 16.6112 8.5283C16.6073 8.4084 16.5256 8.33101 16.5093 8.31671C16.4563 8.27045 16.3773 8.27602 16.3296 8.32773Z" fill="#F5F5F5"/>
</svg>
