<svg width="24" height="24" viewBox="0 0 24 24" fill="none" xmlns="http://www.w3.org/2000/svg">
<g clip-path="url(#clip0_2058_11557)">
<path d="M8.00002 19.8619H0.413813C0.185297 19.8619 0 19.6766 0 19.4481V4.55157C0 4.32305 0.185297 4.13776 0.413813 4.13776H8.00002V19.8619Z" fill="#73AF00"/>
<path d="M16.0003 4.138H8.00012V19.8622H16.0003V4.138Z" fill="#FFE15A"/>
<path d="M23.5862 19.8619H16V4.13782H23.5862C23.8147 4.13782 24 4.32311 24 4.55163V19.4482C24 19.6767 23.8147 19.8619 23.5862 19.8619Z" fill="#FF4B55"/>
<path d="M12.0956 9.64579L12.6437 11.2893L14.3761 11.3028C14.473 11.3036 14.5132 11.4272 14.4353 11.4847L13.0416 12.5138L13.5641 14.1657C13.5933 14.2581 13.4882 14.3345 13.4094 14.2781L12 13.2706L10.5905 14.2781C10.5116 14.3344 10.4065 14.258 10.4357 14.1656L10.9583 12.5138L9.56457 11.4846C9.48662 11.4271 9.52679 11.3035 9.62368 11.3027L11.3561 11.2893L11.9042 9.64574C11.9349 9.55387 12.065 9.55387 12.0956 9.64579Z" fill="#73AF00"/>
</g>
<defs>
<clipPath id="clip0_2058_11557">
<rect width="24" height="24" fill="white"/>
</clipPath>
</defs>
</svg>
