<svg width="24" height="24" viewBox="0 0 24 24" fill="none" xmlns="http://www.w3.org/2000/svg">
<g clip-path="url(#clip0_2058_11179)">
<path d="M23.5862 19.8621H6.20691V4.138H23.5862C23.8147 4.138 24 4.3233 24 4.55181V19.4483C24 19.6768 23.8147 19.8621 23.5862 19.8621Z" fill="#73AF00"/>
<path d="M6.20689 19.8621H0.413812C0.185297 19.8621 0 19.6768 0 19.4483V4.55175C0 4.32324 0.185297 4.13794 0.413812 4.13794H6.20689V19.8621Z" fill="#F5F5F5"/>
<path d="M19.315 14.1651C17.4103 15.8618 14.4947 15.6875 12.8014 13.7795C11.1114 11.875 11.2824 8.9509 13.187 7.25431C13.1898 7.25182 13.1925 7.24938 13.1954 7.24695C13.2404 7.20738 13.1969 7.13552 13.141 7.15727C11.2627 7.88871 9.93103 9.71566 9.93103 11.8548C9.93103 14.6412 12.1844 16.8979 14.9641 16.8979C16.8871 16.8979 18.5535 15.8159 19.4 14.2275C19.4283 14.1745 19.3621 14.1229 19.3173 14.163C19.3166 14.1637 19.3157 14.1644 19.315 14.1651Z" fill="#F5F5F5"/>
<path d="M16.865 8.09013L17.5269 8.83267L18.4438 8.4468C18.5625 8.39683 18.6765 8.52672 18.6115 8.63791L18.1098 9.49689L18.7601 10.2496C18.8443 10.3471 18.756 10.4956 18.6301 10.4682L17.6582 10.2565L17.1432 11.1076C17.0766 11.2177 16.908 11.1797 16.8952 11.0515L16.7962 10.0617L15.8276 9.83491C15.7022 9.80552 15.6864 9.63349 15.8043 9.58169L16.7151 9.18171L16.6314 8.19054C16.6206 8.06224 16.7794 7.99404 16.865 8.09013Z" fill="#F5F5F5"/>
</g>
<defs>
<clipPath id="clip0_2058_11179">
<rect width="24" height="24" fill="white"/>
</clipPath>
</defs>
</svg>
