<svg width="24" height="24" viewBox="0 0 24 24" fill="none" xmlns="http://www.w3.org/2000/svg">
<path d="M24 9.37935H0V4.55175C0 4.32324 0.185297 4.13794 0.413812 4.13794H23.5862C23.8147 4.13794 24 4.32324 24 4.55175L24 9.37935Z" fill="#FFE15A"/>
<path d="M23.5861 19.8621H0.413812C0.185297 19.8621 0 19.6768 0 19.4483V14.6207H24V19.4483C24 19.6768 23.8147 19.8621 23.5861 19.8621Z" fill="#FF4B55"/>
<path d="M24 9.37927H0V14.6204H24V9.37927Z" fill="#41479B"/>
<path d="M8.35027 13.0077L8.45396 13.3186L8.78166 13.3212C8.82408 13.3215 8.8417 13.3756 8.80758 13.4008L8.54396 13.5955L8.64281 13.908C8.65561 13.9485 8.60953 13.982 8.57499 13.9572L8.30836 13.7667L8.04174 13.9572C8.00724 13.9819 7.96116 13.9484 7.97391 13.908L8.07277 13.5955L7.80914 13.4008C7.77502 13.3757 7.7926 13.3215 7.83507 13.3212L8.16277 13.3186L8.26646 13.0077C8.27991 12.9675 8.33686 12.9675 8.35027 13.0077Z" fill="#F5F5F5"/>
<path d="M8.98698 12.018L8.93143 12.341L9.21906 12.4981C9.25628 12.5185 9.2462 12.5745 9.2042 12.5806L8.87983 12.6276L8.81926 12.9496C8.81139 12.9913 8.75504 12.9991 8.73625 12.961L8.59136 12.667L8.26628 12.709C8.22419 12.7144 8.19939 12.6631 8.22981 12.6335L8.46465 12.4048L8.32431 12.1087C8.30617 12.0704 8.34723 12.0309 8.38478 12.0507L8.67479 12.2034L8.91315 11.9784C8.944 11.9493 8.99415 11.9762 8.98698 12.018Z" fill="#F5F5F5"/>
<path d="M9.79272 11.1518L9.63887 11.4412L9.86289 11.6804C9.89191 11.7114 9.86481 11.7614 9.823 11.754L9.50017 11.6972L9.34188 11.9842C9.32139 12.0213 9.26538 12.011 9.25947 11.969L9.21381 11.6445L8.89192 11.5826C8.85025 11.5746 8.84275 11.5181 8.88091 11.4995L9.17547 11.3558L9.13483 11.0306C9.12953 10.9885 9.18091 10.9639 9.21039 10.9945L9.43811 11.2301L9.73483 11.091C9.77336 11.073 9.81259 11.1143 9.79272 11.1518Z" fill="#F5F5F5"/>
<path d="M10.7624 10.6142L10.5363 10.8515L10.6876 11.1422C10.7072 11.1799 10.6676 11.2208 10.6293 11.2024L10.3338 11.0606L10.1039 11.2943C10.0742 11.3246 10.023 11.2995 10.0287 11.2575L10.0722 10.9326L9.77887 10.7862C9.7409 10.7673 9.74887 10.7109 9.79059 10.7033L10.113 10.6443L10.1615 10.3201C10.1678 10.2782 10.2239 10.2683 10.2441 10.3057L10.3998 10.5941L10.7231 10.5401C10.765 10.5332 10.7917 10.5835 10.7624 10.6142Z" fill="#F5F5F5"/>
<path d="M11.8768 10.3652L11.5954 10.5332L11.6633 10.8538C11.6721 10.8954 11.6229 10.9242 11.591 10.8962L11.3443 10.6805L11.0603 10.8441C11.0235 10.8653 10.9809 10.8275 10.9976 10.7885L11.1266 10.4871L10.8832 10.2676C10.8517 10.2392 10.8746 10.187 10.9168 10.1909L11.2432 10.2204L11.3768 9.92106C11.3941 9.88234 11.4508 9.88787 11.4602 9.92922L11.5331 10.2488L11.859 10.2833C11.901 10.2879 11.9133 10.3435 11.8768 10.3652Z" fill="#F5F5F5"/>
<path d="M15.6496 13.0077L15.5459 13.3186L15.2182 13.3212C15.1758 13.3215 15.1582 13.3756 15.1923 13.4008L15.4559 13.5955L15.3571 13.908C15.3443 13.9485 15.3904 13.982 15.4249 13.9572L15.6915 13.7667L15.9582 13.9572C15.9927 13.9819 16.0387 13.9484 16.026 13.908L15.9271 13.5955L16.1907 13.4008C16.2249 13.3757 16.2073 13.3215 16.1648 13.3212L15.8371 13.3186L15.7334 13.0077C15.72 12.9675 15.663 12.9675 15.6496 13.0077Z" fill="#F5F5F5"/>
<path d="M15.0129 12.018L15.0684 12.341L14.7808 12.4981C14.7436 12.5185 14.7537 12.5745 14.7957 12.5806L15.1201 12.6276L15.1806 12.9496C15.1885 12.9913 15.2449 12.9991 15.2636 12.961L15.4085 12.667L15.7336 12.709C15.7757 12.7144 15.8005 12.6631 15.7701 12.6335L15.5352 12.4048L15.6756 12.1087C15.6937 12.0704 15.6526 12.0309 15.6151 12.0507L15.3251 12.2034L15.0867 11.9784C15.0559 11.9493 15.0057 11.9762 15.0129 12.018Z" fill="#F5F5F5"/>
<path d="M14.2071 11.1518L14.361 11.4412L14.137 11.6804C14.108 11.7114 14.1351 11.7614 14.1769 11.754L14.4997 11.6972L14.658 11.9842C14.6785 12.0213 14.7345 12.011 14.7404 11.969L14.7861 11.6445L15.1079 11.5826C15.1496 11.5746 15.1571 11.5181 15.119 11.4995L14.8244 11.3558L14.865 11.0306C14.8703 10.9885 14.819 10.9639 14.7895 10.9945L14.5618 11.2301L14.265 11.091C14.2265 11.073 14.1873 11.1143 14.2071 11.1518Z" fill="#F5F5F5"/>
<path d="M13.2376 10.6142L13.4637 10.8515L13.3124 11.1422C13.2928 11.1799 13.3324 11.2208 13.3707 11.2024L13.6662 11.0606L13.896 11.2943C13.9257 11.3246 13.9769 11.2995 13.9712 11.2575L13.9277 10.9326L14.221 10.7862C14.259 10.7673 14.251 10.7109 14.2093 10.7033L13.8869 10.6443L13.8384 10.3201C13.8321 10.2782 13.776 10.2683 13.7559 10.3057L13.6001 10.5941L13.2768 10.5401C13.2349 10.5332 13.2083 10.5835 13.2376 10.6142Z" fill="#F5F5F5"/>
<path d="M12.123 10.3652L12.4045 10.5332L12.3366 10.8538C12.3278 10.8954 12.3769 10.9242 12.4089 10.8962L12.6556 10.6805L12.9396 10.8441C12.9764 10.8653 13.0189 10.8275 13.0022 10.7885L12.8733 10.4871L13.1166 10.2676C13.1481 10.2392 13.1253 10.187 13.0831 10.1909L12.7566 10.2204L12.623 9.92106C12.6057 9.88234 12.5491 9.88787 12.5396 9.92922L12.4668 10.2488L12.1409 10.2833C12.0988 10.2879 12.0866 10.3435 12.123 10.3652Z" fill="#F5F5F5"/>
</svg>
