<svg width="24" height="24" viewBox="0 0 24 24" fill="none" xmlns="http://www.w3.org/2000/svg">
<path d="M23.5861 19.862H0.413812C0.185297 19.862 0 19.6767 0 19.4482V4.55175C0 4.32324 0.185297 4.13794 0.413812 4.13794H23.5862C23.8147 4.13794 24 4.32324 24 4.55175V19.4482C24 19.6768 23.8147 19.862 23.5861 19.862Z" fill="#F5F5F5"/>
<path d="M6.66773 12.8129C6.66773 12.8129 6.67921 13.0324 6.49438 13.2287C6.30955 13.4252 6.40194 13.6793 6.64457 13.7948C6.64457 13.7948 6.47713 14.1934 6.72547 14.3608C6.88227 14.4667 7.09513 14.4533 7.09513 14.4533C7.09513 14.4533 7.21068 14.927 7.11824 15.2272C7.0258 15.5276 7.15288 16.394 9.26689 15.8973C9.26689 15.8973 9.28606 16.4517 10.1333 16.883C10.9804 17.3143 10.8145 18.3359 10.8145 18.3359C10.8145 18.3359 11.9805 19.011 13.2693 17.4153C14.5581 15.8197 14.6501 15.6049 15.5707 15.2367C15.5707 15.2367 14.1285 13.7638 14.6502 12.475C14.7189 12.3051 14.7965 12.1269 14.8775 11.9436C15.0268 12.4287 15.3219 13.137 15.8489 13.549C16.0128 13.6765 16.2152 13.7168 16.4108 13.7561C16.6208 13.7983 16.802 13.8347 16.8874 13.9641C16.9624 14.0795 16.9693 14.2828 16.9113 14.5643C16.2846 15.2479 15.6791 15.43 15.6706 15.4322L15.5248 15.4715L15.8312 16.482L14.9169 17.3232L14.9332 17.4047C15.0463 17.9686 15.3944 18.0433 15.5382 18.0501C15.5469 18.0501 15.5555 18.0511 15.5642 18.0511C15.8969 18.0511 16.2354 17.7711 16.3428 17.4019C16.5288 16.7643 17.1358 16.6914 17.1425 16.6914L17.2346 16.6808L17.2653 16.5935C17.2787 16.5552 17.5942 15.6461 17.7495 14.7199C17.8119 14.3452 17.8238 14.0469 17.8111 13.786C17.8159 13.777 17.8214 13.772 17.8262 13.7629L17.8103 13.7546C17.7517 12.7669 17.216 12.504 16.6869 12.2602C16.2359 12.0508 16.0588 11.8475 15.9712 11.6863C15.9894 11.6867 16.0049 11.6916 16.0233 11.6916C16.1672 11.6916 16.3187 11.6752 16.4721 11.6321C16.8997 11.5132 17.2459 11.2207 17.501 10.7634C17.6563 10.4834 18.8118 7.3132 18.9432 6.95269L19.0343 6.70238L17.5427 7.02075L17.6563 6.11363L15.7231 6.79542L15.7691 6.93352C15.7758 6.9517 16.3915 8.80054 16.332 9.92915C16.3157 10.2255 16.2227 10.4402 16.053 10.5668C15.8396 10.7244 15.5504 10.716 15.3993 10.6997C15.7358 9.80578 15.9528 8.86654 15.632 8.02566C15.1006 6.63249 12.7475 5.35604 10.9678 5.54016C9.18814 5.72429 7.71308 6.15432 7.22211 7.93411C6.73115 9.71386 6.86802 10.1841 6.92943 10.4909C6.99079 10.7978 5.83485 12.1523 6.04387 12.5704C6.18252 12.8475 6.66773 12.8129 6.66773 12.8129ZM15.1988 11.2034C15.2298 11.1304 15.2607 11.0577 15.2907 10.9838C15.3453 10.9935 15.4261 11.005 15.5448 11.005C15.7462 11.005 16.0099 10.9666 16.2295 10.8026C16.4721 10.6214 16.6054 10.3327 16.6255 9.94443C16.6802 8.93184 16.2391 7.43878 16.0934 6.97753L17.3054 6.55083L17.011 8.90208L17.3026 8.9385L17.5041 7.32966L18.576 7.10119C18.0649 8.5012 17.3467 10.4353 17.2441 10.6194C17.0283 11.0059 16.7416 11.2514 16.3925 11.3482C15.8684 11.4969 15.3691 11.2869 15.1988 11.2034ZM15.9259 16.7951L16.0755 17.2887C16.0717 17.3007 16.0644 17.3071 16.0608 17.3194C15.9908 17.5591 15.7654 17.7557 15.565 17.7557C15.5602 17.7557 15.5554 17.7557 15.5516 17.7557C15.3694 17.748 15.2821 17.5706 15.2409 17.4258L15.9259 16.7951ZM17.5097 14.2482C17.4978 14.3805 17.485 14.5145 17.4588 14.6718C17.3342 15.4169 17.0944 16.1725 17.0139 16.4151C16.849 16.4537 16.5086 16.5703 16.2656 16.9001L15.891 15.6672C16.1897 15.5485 16.8892 15.1565 17.5097 14.2482ZM15.0684 11.5108C15.074 11.498 15.0796 11.4862 15.0851 11.4734C15.1958 11.5259 15.3827 11.6031 15.632 11.6518C15.7013 11.8579 15.8636 12.2029 16.5632 12.5268C17.0484 12.7508 17.4565 12.9408 17.5215 13.6907C17.4299 13.8591 17.3296 13.9761 17.2318 14.1144C17.2175 13.9953 17.1899 13.8883 17.1338 13.8031C16.9803 13.5701 16.7089 13.5154 16.4683 13.4675C16.2986 13.433 16.1384 13.4013 16.0301 13.3169C15.4109 12.8334 15.1455 11.8506 15.0684 11.5108ZM7.40708 9.33557C7.40708 9.33557 7.45321 8.29598 7.91544 7.41797L14.9853 10.6987L14.3845 11.9926L7.40708 9.33557Z" fill="#464655"/>
</svg>
