<svg width="24" height="24" viewBox="0 0 24 24" fill="none" xmlns="http://www.w3.org/2000/svg">
<path d="M23.5861 19.8619H0.413812C0.185297 19.8619 0 19.6766 0 19.4481V4.5516C0 4.32308 0.185297 4.13779 0.413812 4.13779H23.5862C23.8147 4.13779 24 4.32308 24 4.5516V19.4481C24 19.6767 23.8147 19.8619 23.5861 19.8619Z" fill="#73AF00"/>
<path d="M24 10.3447H0V11.4481H24V10.3447Z" fill="#FFE15A"/>
<path d="M24 11.4481H0V12.5516H24V11.4481Z" fill="#464655"/>
<path d="M24 12.5515H0V13.655H24V12.5515Z" fill="#F5F5F5"/>
<path d="M11.4483 4.13797H10.3448V19.8622H11.4483V4.13797Z" fill="#FFE15A"/>
<path d="M12.5517 4.13797H11.4482V19.8622H12.5517V4.13797Z" fill="#464655"/>
<path d="M13.6551 4.13797H12.5516V19.8622H13.6551V4.13797Z" fill="#F5F5F5"/>
<path d="M11.9999 16.138C14.2854 16.138 16.1381 14.2853 16.1381 11.9998C16.1381 9.71442 14.2854 7.86172 11.9999 7.86172C9.71451 7.86172 7.86182 9.71442 7.86182 11.9998C7.86182 14.2853 9.71451 16.138 11.9999 16.138Z" fill="#FF4B55"/>
<path d="M11.6447 12.7116C11.6447 12.7116 11.5964 13.0499 11.925 13.5525H12.5629L12.4179 12.9436L11.6447 12.7116Z" fill="#73AF00"/>
<path d="M11.5996 10.4469C11.5996 10.4469 10.5559 12.1543 12.0892 13.1723L12.2503 12.2058L12.3534 10.9559L12.1923 10.4211L11.5996 10.4469Z" fill="#A561CD"/>
<path d="M11.5996 10.4469C11.5996 10.4469 11.4803 10.6455 11.3815 10.9443C11.5158 11.0848 11.8831 11.2588 12.3347 11.1824L12.3534 10.9558L12.1923 10.4211L11.5996 10.4469Z" fill="#73AF00"/>
<path d="M11.3998 10.2021C11.3998 10.2021 11.4126 9.8606 11.7477 9.8606C12.1666 9.8606 12.508 9.9572 13.0492 11.0783C13.0492 11.0783 12.5679 11.5508 12.2632 10.8979C12.173 10.7046 12.1407 10.4727 12.1407 10.4727C12.1407 10.4727 11.767 10.6015 11.5093 10.4533L11.3998 10.2021Z" fill="#A561CD"/>
<path d="M11.5674 10.3631L11.4901 10.157C11.4901 10.157 11.0584 10.0861 11.2388 10.608C11.2388 10.608 11.2517 10.5049 11.3612 10.5178C11.4708 10.5307 11.5867 10.4469 11.5674 10.3631Z" fill="#FFE15A"/>
<path d="M12.289 12.3218C12.289 12.3218 11.8348 12.6777 12.0893 13.5137C12.2246 13.9583 12.7658 14.4464 12.7658 14.4464C12.7658 14.4464 13.1668 13.3978 13.0364 12.9919C12.9596 12.753 12.289 12.3218 12.289 12.3218Z" fill="#73AF00"/>
<path d="M13.1524 13.6684C13.1524 13.6684 11.9797 12.5506 11.9024 11.6711C11.8251 10.7916 12.3322 10.9312 12.4243 10.9881C12.6434 11.1234 13.1975 11.6904 13.1524 13.6684Z" fill="#73AF00"/>
<path d="M13.0068 13.9245H11.0653C11.025 13.9245 10.9923 13.8918 10.9923 13.8515V13.7076C10.9923 13.6672 11.025 13.6346 11.0653 13.6346H13.0068C13.0472 13.6346 13.0798 13.6672 13.0798 13.7076V13.8515C13.0798 13.8918 13.0471 13.9245 13.0068 13.9245Z" fill="#B34900"/>
<path d="M12.5338 13.6491C12.4662 13.6772 12.3309 13.712 12.3647 13.8327C12.3906 13.9252 12.5677 13.9148 12.5338 14.0212C12.5109 14.093 12.1514 14.0997 12.0119 14.0792C11.9265 14.0666 11.7413 14.0163 11.7671 13.8037C11.7929 13.5911 11.8702 13.5584 11.9669 13.5202C12.0627 13.4824 12.482 13.4907 12.5435 13.5428C12.5749 13.5694 12.585 13.6279 12.5338 13.6491Z" fill="#FFE15A"/>
<path d="M12.0381 8.30315L12.1322 8.58557L12.4299 8.58791C12.4684 8.58824 12.4844 8.63741 12.4534 8.66029L12.2139 8.83715L12.3037 9.12097C12.3154 9.15768 12.2736 9.1881 12.2422 9.16569L12 8.99258L11.7578 9.16569C11.7265 9.1881 11.6847 9.15772 11.6963 9.12097L11.7861 8.83715L11.5466 8.66029C11.5156 8.63737 11.5316 8.58819 11.5701 8.58791L11.8678 8.58557L11.962 8.30315C11.9741 8.26659 12.0258 8.26659 12.0381 8.30315Z" fill="#73AF00"/>
<path d="M12.0381 14.9056L12.1322 15.188L12.4299 15.1904C12.4684 15.1907 12.4844 15.2399 12.4534 15.2628L12.2139 15.4396L12.3037 15.7235C12.3154 15.7602 12.2736 15.7906 12.2422 15.7682L12 15.5951L11.7578 15.7682C11.7265 15.7906 11.6847 15.7602 11.6963 15.7235L11.7861 15.4396L11.5466 15.2628C11.5156 15.2398 11.5316 15.1907 11.5701 15.1904L11.8678 15.188L11.962 14.9056C11.9741 14.8691 12.0258 14.8691 12.0381 14.9056Z" fill="#73AF00"/>
<path d="M12.0381 8.30315L12.1322 8.58557L12.4299 8.58791C12.4684 8.58824 12.4844 8.63741 12.4534 8.66029L12.2139 8.83715L12.3037 9.12097C12.3154 9.15768 12.2736 9.1881 12.2422 9.16569L12 8.99258L11.7578 9.16569C11.7265 9.1881 11.6847 9.15772 11.6963 9.12097L11.7861 8.83715L11.5466 8.66029C11.5156 8.63737 11.5316 8.58819 11.5701 8.58791L11.8678 8.58557L11.962 8.30315C11.9741 8.26659 12.0258 8.26659 12.0381 8.30315Z" fill="#73AF00"/>
<path d="M12.0381 14.9056L12.1322 15.188L12.4299 15.1904C12.4684 15.1907 12.4844 15.2399 12.4534 15.2628L12.2139 15.4396L12.3037 15.7235C12.3154 15.7602 12.2736 15.7906 12.2422 15.7682L12 15.5951L11.7578 15.7682C11.7265 15.7906 11.6847 15.7602 11.6963 15.7235L11.7861 15.4396L11.5466 15.2628C11.5156 15.2398 11.5316 15.1907 11.5701 15.1904L11.8678 15.188L11.962 14.9056C11.9741 14.8691 12.0258 14.8691 12.0381 14.9056Z" fill="#73AF00"/>
<path d="M9.73747 8.98072L9.81997 9.26676L9.57603 9.43738C9.54444 9.45946 9.55915 9.50905 9.59769 9.51032L9.8952 9.52025L9.98215 9.80497C9.99345 9.84186 10.0451 9.84313 10.0582 9.80694L10.1596 9.52705L10.4573 9.5324C10.4958 9.53305 10.5131 9.48435 10.4826 9.46068L10.2477 9.27777L10.3447 8.99624C10.3573 8.95982 10.3162 8.92832 10.2843 8.94993L10.0378 9.1168L9.80014 8.9376C9.76934 8.91435 9.72673 8.94369 9.73747 8.98072Z" fill="#73AF00"/>
<path d="M13.4804 14.4197L13.5629 14.7057L13.3189 14.8764C13.2874 14.8984 13.3021 14.948 13.3406 14.9493L13.6381 14.9592L13.7251 15.244C13.7364 15.2809 13.788 15.2821 13.8012 15.2459L13.9025 14.966L14.2002 14.9714C14.2387 14.972 14.256 14.9233 14.2256 14.8997L13.9907 14.7168L14.0877 14.4353C14.1003 14.3989 14.0592 14.3674 14.0273 14.389L13.7808 14.5559L13.5431 14.3767C13.5124 14.3534 13.4697 14.3827 13.4804 14.4197Z" fill="#73AF00"/>
<path d="M8.33829 10.8762L8.57595 11.0554L8.48332 11.3383C8.47132 11.3749 8.51286 11.4058 8.54445 11.3837L8.78839 11.213L9.02885 11.3885C9.05998 11.4112 9.10217 11.3813 9.09087 11.3444L9.00392 11.0597L9.24514 10.8853C9.27635 10.8627 9.26084 10.8133 9.22231 10.8127L8.92465 10.8074L8.83329 10.524C8.82143 10.4874 8.76978 10.4869 8.75721 10.5232L8.66023 10.8047L8.36257 10.804C8.324 10.8039 8.30754 10.8529 8.33829 10.8762Z" fill="#73AF00"/>
<path d="M14.5968 12.9791L14.8345 13.1583L14.7419 13.4412C14.7299 13.4778 14.7714 13.5087 14.803 13.4866L15.0469 13.3159L15.2874 13.4914C15.3185 13.5141 15.3607 13.4841 15.3494 13.4473L15.2625 13.1626L15.5037 12.9882C15.5349 12.9656 15.5194 12.9163 15.4808 12.9156L15.1832 12.9103L15.0918 12.6269C15.08 12.5903 15.0283 12.5898 15.0157 12.6261L14.9188 12.9076L14.6211 12.9069C14.5826 12.9068 14.5661 12.9559 14.5968 12.9791Z" fill="#73AF00"/>
<path d="M14.1052 8.98072L14.0227 9.26675L14.2666 9.43737C14.2982 9.45945 14.2835 9.50904 14.245 9.51031L13.9475 9.52025L13.8605 9.80496C13.8492 9.84185 13.7976 9.84312 13.7844 9.80693L13.6831 9.52704L13.3854 9.53239C13.3469 9.53304 13.3296 9.48434 13.36 9.46067L13.5949 9.27776L13.4979 8.99632C13.4853 8.9599 13.5264 8.9284 13.5583 8.95001L13.8048 9.11689L14.0425 8.93768C14.0733 8.91434 14.1159 8.94368 14.1052 8.98072Z" fill="#73AF00"/>
<path d="M10.3623 14.4197L10.2798 14.7057L10.5237 14.8764C10.5553 14.8984 10.5406 14.948 10.5021 14.9493L10.2046 14.9592L10.1176 15.244C10.1063 15.2809 10.0546 15.2821 10.0415 15.2459L9.94013 14.966L9.64248 14.9714C9.60395 14.972 9.5867 14.9233 9.61712 14.8997L9.85201 14.7168L9.75498 14.4353C9.74242 14.3989 9.78348 14.3674 9.8154 14.389L10.0619 14.5559L10.2996 14.3767C10.3304 14.3534 10.373 14.3827 10.3623 14.4197Z" fill="#73AF00"/>
<path d="M15.5043 10.8762L15.2667 11.0554L15.3593 11.3383C15.3713 11.3749 15.3298 11.4058 15.2982 11.3837L15.0542 11.213L14.8138 11.3885C14.7826 11.4112 14.7404 11.3813 14.7517 11.3444L14.8387 11.0597L14.5975 10.8853C14.5663 10.8627 14.5818 10.8133 14.6203 10.8127L14.918 10.8074L15.0093 10.524C15.0212 10.4874 15.0728 10.4869 15.0854 10.5232L15.1824 10.8047L15.48 10.804C15.5186 10.8039 15.5351 10.8529 15.5043 10.8762Z" fill="#73AF00"/>
<path d="M9.24577 12.9791L9.00811 13.1583L9.10074 13.4412C9.11274 13.4778 9.07121 13.5087 9.03961 13.4866L8.79568 13.3159L8.55521 13.4914C8.52408 13.5141 8.48189 13.4841 8.49319 13.4473L8.58015 13.1626L8.33893 12.9882C8.30771 12.9656 8.32322 12.9163 8.36175 12.9156L8.65941 12.9103L8.75077 12.6269C8.76263 12.5903 8.81429 12.5898 8.82685 12.6261L8.92383 12.9076L9.22149 12.9069C9.26011 12.9068 9.27657 12.9559 9.24577 12.9791Z" fill="#73AF00"/>
</svg>
