<svg width="24" height="24" viewBox="0 0 24 24" fill="none" xmlns="http://www.w3.org/2000/svg">
<path d="M23.5861 19.862H0.413812C0.185297 19.862 0 19.6767 0 19.4482V4.55175C0 4.32324 0.185297 4.13794 0.413812 4.13794H23.5862C23.8147 4.13794 24 4.32324 24 4.55175V19.4482C24 19.6768 23.8147 19.862 23.5861 19.862Z" fill="#3CC8FF"/>
<path d="M11.9999 5.37933L6.20691 18.6207H17.793L11.9999 5.37933Z" fill="#464655"/>
<path d="M11.9999 7.44408L16.5276 17.7931H7.47225L11.9999 7.44408ZM11.9999 5.37933L6.20691 18.6207H17.7931L11.9999 5.37933Z" fill="#F5F5F5"/>
<path d="M6.20691 18.6207L11.9999 12L17.793 18.6207H6.20691Z" fill="#FFE15A"/>
</svg>
