<svg width="24" height="24" viewBox="0 0 24 24" fill="none" xmlns="http://www.w3.org/2000/svg">
<path d="M0 16.9655H24V19.4483C24 19.6768 23.8147 19.8621 23.5861 19.8621H0.413812C0.185297 19.8621 0 19.6768 0 19.4483V16.9655Z" fill="#4173CD"/>
<path d="M0.413812 4.13794H23.5862C23.8147 4.13794 24 4.32324 24 4.55175V7.03453H0V4.5517C0 4.32319 0.185297 4.13794 0.413812 4.13794Z" fill="#4173CD"/>
<path d="M24 7.03455H0V16.9655H24V7.03455Z" fill="#FF4B55"/>
<path d="M24 6.62061H0V7.44818H24V6.62061Z" fill="#FFE15A"/>
<path d="M24 16.5515H0V17.3791H24V16.5515Z" fill="#FFE15A"/>
<path d="M21.042 12.3993H2.94068C2.81782 12.3993 2.71826 12.2997 2.71826 12.1769V12.1065C2.71826 11.9837 2.81782 11.8841 2.94068 11.8841H21.042C21.1649 11.8841 21.2645 11.9837 21.2645 12.1065V12.1769C21.2645 12.2997 21.1649 12.3993 21.042 12.3993Z" fill="#FFE15A"/>
<path d="M17.5294 11.3689L18.431 10.9825L19.3325 11.3689L18.431 11.7553L17.5294 11.3689Z" fill="#F5F5F5"/>
<path d="M17.7513 11.2043H4.52139C4.4305 11.2043 4.35681 11.278 4.35681 11.3689C4.35681 11.4598 4.43045 11.5335 4.52139 11.5335H17.7513C17.8422 11.5335 17.9158 11.4598 17.9158 11.3689C17.9158 11.278 17.8422 11.2043 17.7513 11.2043Z" fill="#FFE15A"/>
<path d="M18.4668 10.4674L19.3683 10.081L20.2699 10.4674L19.3683 10.8538L18.4668 10.4674Z" fill="#F5F5F5"/>
<path d="M18.6885 10.3028H5.45865C5.36775 10.3028 5.29407 10.3764 5.29407 10.4674C5.29407 10.5583 5.36771 10.632 5.45865 10.632H18.6885C18.7794 10.632 18.8531 10.5583 18.8531 10.4674C18.8531 10.3765 18.7795 10.3028 18.6885 10.3028Z" fill="#FFE15A"/>
<path d="M11.9914 8.79309C9.70353 8.79309 7.7075 10.0887 6.63843 12.0129C7.70746 13.9371 9.70353 15.2328 11.9914 15.2328C14.2793 15.2328 16.2753 13.9372 17.3444 12.0129C16.2753 10.0887 14.2792 8.79309 11.9914 8.79309Z" fill="#F5F5F5"/>
<path d="M6.63843 12.0129C7.70746 13.9371 9.70353 15.2327 11.9914 15.2327C12.3734 15.2327 12.7464 15.1936 13.1092 15.1244C12.8322 14.5164 11.858 14.5174 11.7982 14.2883C11.7338 14.0414 12.5924 14.0951 12.7427 13.8911C12.893 13.6872 11.927 13.6014 11.8841 13.3975C11.8412 13.1935 12.2705 13.054 12.3456 12.732C12.4208 12.41 12.5925 12.3135 12.7212 12.1203C12.8501 11.9271 12.5066 11.8627 12.4207 11.2188C12.3349 10.5748 11.8304 10.4889 11.5836 9.96307C11.3367 9.43718 11.7339 9.05079 11.9914 8.79321C9.70353 8.79307 7.70746 10.0886 6.63843 12.0129Z" fill="#464655"/>
<path d="M8.89991 10.8539H8.64233V11.8842H8.89991V10.8539Z" fill="#F5F5F5"/>
<path d="M9.41554 10.8539H9.15796V11.8842H9.41554V10.8539Z" fill="#F5F5F5"/>
<path d="M9.93067 10.8539H9.6731V11.8842H9.93067V10.8539Z" fill="#F5F5F5"/>
<path d="M10.4458 10.8539H10.1882V11.8842H10.4458V10.8539Z" fill="#F5F5F5"/>
<path d="M10.9609 10.8539H10.7034V11.8842H10.9609V10.8539Z" fill="#F5F5F5"/>
<path d="M11.4762 10.8539H11.2186V11.8842H11.4762V10.8539Z" fill="#F5F5F5"/>
<path d="M8.89991 12.3994H8.64233V13.4297H8.89991V12.3994Z" fill="#F5F5F5"/>
<path d="M9.41554 12.3994H9.15796V13.4297H9.41554V12.3994Z" fill="#F5F5F5"/>
<path d="M9.93067 12.3994H9.6731V13.4297H9.93067V12.3994Z" fill="#F5F5F5"/>
<path d="M10.4458 12.3994H10.1882V13.4297H10.4458V12.3994Z" fill="#F5F5F5"/>
<path d="M10.9609 12.3994H10.7034V13.4297H10.9609V12.3994Z" fill="#F5F5F5"/>
<path d="M11.4762 12.3994H11.2186V13.4297H11.4762V12.3994Z" fill="#F5F5F5"/>
<path d="M12.7638 10.8539H12.5062V11.8842H12.7638V10.8539Z" fill="#464655"/>
<path d="M13.2789 10.8539H13.0214V11.8842H13.2789V10.8539Z" fill="#464655"/>
<path d="M13.7941 10.8539H13.5365V11.8842H13.7941V10.8539Z" fill="#464655"/>
<path d="M14.3092 10.8539H14.0516V11.8842H14.3092V10.8539Z" fill="#464655"/>
<path d="M14.8245 10.8539H14.5669V11.8842H14.8245V10.8539Z" fill="#464655"/>
<path d="M15.3396 10.8539H15.082V11.8842H15.3396V10.8539Z" fill="#464655"/>
<path d="M12.7638 12.3994H12.5062V13.4297H12.7638V12.3994Z" fill="#464655"/>
<path d="M13.2789 12.3994H13.0214V13.4297H13.2789V12.3994Z" fill="#464655"/>
<path d="M13.7941 12.3994H13.5365V13.4297H13.7941V12.3994Z" fill="#464655"/>
<path d="M14.3092 12.3994H14.0516V13.4297H14.3092V12.3994Z" fill="#464655"/>
<path d="M14.8245 12.3994H14.5669V13.4297H14.8245V12.3994Z" fill="#464655"/>
<path d="M15.3396 12.3994H15.082V13.4297H15.3396V12.3994Z" fill="#464655"/>
<path d="M19.9399 11.8439C19.7336 12.3231 19.1465 12.3795 19.4718 13.601L19.6384 13.4319C19.6384 13.4319 19.8129 13.8924 20.2334 14.2024C20.2334 14.2024 20.749 13.7701 20.7887 13.0843L21.0029 13.1783C21.0029 13.1781 20.8998 11.9284 19.9399 11.8439Z" fill="#245DBD"/>
<path d="M20.7015 12.8258C20.685 12.8258 20.6686 12.8182 20.6562 12.8033C20.4542 12.5595 20.1968 12.4814 20.1944 12.4806C20.1604 12.4706 20.1396 12.4298 20.148 12.3895C20.1564 12.3496 20.1909 12.3246 20.2247 12.3346C20.2366 12.3381 20.5186 12.423 20.7467 12.6981C20.7712 12.7275 20.7708 12.7753 20.746 12.8044C20.7336 12.8188 20.7176 12.8258 20.7015 12.8258Z" fill="#FF4B55"/>
<path d="M20.5561 13.3943C20.5371 13.3943 20.5183 13.3843 20.5058 13.3649C20.3559 13.1341 20.1859 13.0085 20.1842 13.0073C20.1543 12.9856 20.1451 12.9392 20.1635 12.9036C20.182 12.8684 20.221 12.8576 20.2509 12.8793C20.2588 12.8849 20.4426 13.0211 20.6064 13.2734C20.6278 13.3063 20.6226 13.3535 20.5948 13.3788C20.5833 13.3893 20.5696 13.3943 20.5561 13.3943Z" fill="#FF4B55"/>
<path d="M20.2231 14.0271C20.2195 14.0271 20.2159 14.0268 20.2122 14.0259C20.1777 14.0189 20.1544 13.9801 20.1603 13.9393C20.1853 13.7672 20.1644 13.485 20.13 13.3394C20.1206 13.2994 20.1403 13.258 20.1741 13.2466C20.2081 13.2357 20.2429 13.2589 20.2522 13.2989C20.2911 13.4633 20.3137 13.7702 20.2854 13.9646C20.2802 14.0013 20.2533 14.0271 20.2231 14.0271Z" fill="#FF4B55"/>
<path d="M19.7766 13.3329C19.7585 13.3329 19.7406 13.3239 19.7281 13.3062C19.7055 13.2745 19.7089 13.2269 19.7356 13.2002C19.7372 13.1988 19.8992 13.0343 19.9415 12.8068C19.9491 12.7663 19.9827 12.7407 20.0171 12.7495C20.0513 12.7584 20.0731 12.7986 20.0655 12.8391C20.0137 13.1175 19.8254 13.3075 19.8174 13.3154C19.8054 13.3271 19.791 13.3329 19.7766 13.3329Z" fill="#FF4B55"/>
<path d="M19.6004 12.8519C19.5791 12.8519 19.5583 12.8393 19.5463 12.8161C19.5279 12.7809 19.5372 12.7345 19.5671 12.7127C19.5695 12.7109 19.7997 12.5415 19.8711 12.3566C19.8856 12.3184 19.9235 12.3016 19.9552 12.3193C19.9871 12.3366 20.0011 12.3812 19.9866 12.4188C19.899 12.6458 19.6443 12.8329 19.6336 12.8408C19.6231 12.8484 19.6117 12.8519 19.6004 12.8519Z" fill="#FF4B55"/>
<path d="M3.85708 12.0051C3.68463 12.4058 3.19371 12.453 3.46568 13.4744L3.60499 13.333C3.60499 13.333 3.75091 13.718 4.10252 13.9773C4.10252 13.9773 4.53368 13.6158 4.56686 13.0423L4.74597 13.1208C4.74597 13.1208 4.65977 12.0759 3.85708 12.0051Z" fill="#245DBD"/>
<path d="M4.49401 12.8263C4.48018 12.8263 4.46654 12.8199 4.45618 12.8073C4.28724 12.6035 4.07209 12.5382 4.06998 12.5375C4.04157 12.5291 4.02413 12.495 4.03126 12.4614C4.03829 12.4279 4.06712 12.4071 4.09538 12.4154C4.10532 12.4184 4.3411 12.4893 4.53183 12.7194C4.55237 12.744 4.55204 12.7839 4.53123 12.8083C4.52087 12.8204 4.50746 12.8263 4.49401 12.8263Z" fill="#FF4B55"/>
<path d="M4.37243 13.3016C4.35654 13.3016 4.34083 13.2933 4.33033 13.277C4.20499 13.0841 4.06291 12.979 4.06146 12.978C4.03648 12.9598 4.02883 12.921 4.04412 12.8913C4.05958 12.8618 4.09221 12.8528 4.11719 12.8709C4.12371 12.8756 4.27741 12.9895 4.41447 13.2004C4.43233 13.228 4.42797 13.2675 4.40477 13.2886C4.39512 13.2974 4.38368 13.3016 4.37243 13.3016Z" fill="#FF4B55"/>
<path d="M4.09389 13.8307C4.09089 13.8307 4.08789 13.8305 4.0848 13.8298C4.05597 13.8238 4.03647 13.7914 4.04144 13.7573C4.06239 13.6134 4.04486 13.3775 4.01613 13.2557C4.00825 13.2223 4.02471 13.1877 4.05293 13.1781C4.08143 13.169 4.11044 13.1885 4.11832 13.2218C4.15075 13.3593 4.16974 13.6159 4.14611 13.7785C4.14166 13.8091 4.11916 13.8307 4.09389 13.8307Z" fill="#FF4B55"/>
<path d="M3.72063 13.2503C3.70549 13.2503 3.69049 13.2427 3.67999 13.2279C3.6611 13.2014 3.66391 13.1616 3.68632 13.1393C3.68768 13.1381 3.82315 13.0006 3.85844 12.8103C3.86477 12.7764 3.89285 12.755 3.92163 12.7624C3.95023 12.7697 3.96841 12.8034 3.96209 12.8373C3.91873 13.07 3.76127 13.2289 3.75457 13.2356C3.74468 13.2454 3.73268 13.2503 3.72063 13.2503Z" fill="#FF4B55"/>
<path d="M3.57322 12.8481C3.55536 12.8481 3.53802 12.8375 3.5279 12.8181C3.51252 12.7886 3.52035 12.7498 3.54533 12.7317C3.5473 12.7302 3.73977 12.5885 3.79949 12.4338C3.81158 12.4019 3.84336 12.3879 3.8699 12.4027C3.89652 12.4172 3.90824 12.4545 3.8961 12.4859C3.82279 12.6757 3.60993 12.832 3.60093 12.8387C3.59221 12.8451 3.58265 12.8481 3.57322 12.8481Z" fill="#FF4B55"/>
</svg>
