<svg width="24" height="24" viewBox="0 0 24 24" fill="none" xmlns="http://www.w3.org/2000/svg">
<path d="M23.5861 19.8621H0.413812C0.185297 19.8621 0 19.6768 0 19.4483V4.55175C0 4.32324 0.185297 4.13794 0.413812 4.13794H23.5862C23.8147 4.13794 24 4.32324 24 4.55175V19.4483C24 19.6768 23.8147 19.8621 23.5861 19.8621Z" fill="#F5F5F5"/>
<path d="M24 5.79333H0V7.44849H24V5.79333Z" fill="#FF4B55"/>
<path d="M24 16.5516H0V18.2067H24V16.5516Z" fill="#FF4B55"/>
<path d="M11.6485 10.7266L12.231 11.4886L13.1405 11.1842C13.1914 11.1671 13.2347 11.2247 13.2042 11.2688L12.6595 12.0582L13.2301 12.8292C13.262 12.8723 13.2207 12.9312 13.1693 12.9159L12.2501 12.6418L11.6933 13.4227C11.6621 13.4664 11.5933 13.4453 11.5921 13.3917L11.5687 12.4328L10.6539 12.1445C10.6028 12.1284 10.6016 12.0564 10.6521 12.0386L11.5568 11.7201L11.5483 10.761C11.5479 10.7074 11.6159 10.684 11.6485 10.7266Z" fill="#FF4B55"/>
<path d="M8.64789 14.9811C7.00281 14.9811 5.66833 13.6466 5.66833 12C5.66833 10.3565 7.00281 9.01903 8.64789 9.01903C9.25994 9.01903 9.8244 9.20723 10.2948 9.52588C10.3668 9.57468 10.449 9.47999 10.3887 9.41732C9.68575 8.6864 8.69073 8.24053 7.58758 8.27822C5.69224 8.34286 4.12324 9.86249 4.00212 11.755C3.86341 13.9227 5.57983 15.7242 7.71695 15.7242C8.76962 15.7242 9.71575 15.2841 10.3914 14.5804C10.451 14.5183 10.3687 14.425 10.2973 14.4734C9.82637 14.7926 9.26101 14.9811 8.64789 14.9811Z" fill="#FF4B55"/>
</svg>
