<svg width="24" height="24" viewBox="0 0 24 24" fill="none" xmlns="http://www.w3.org/2000/svg">
<path d="M23.5861 19.862H0.413812C0.185297 19.862 0 19.6767 0 19.4482V4.55175C0 4.32324 0.185297 4.13794 0.413812 4.13794H23.5862C23.8147 4.13794 24 4.32324 24 4.55175V19.4482C24 19.6768 23.8147 19.862 23.5861 19.862Z" fill="#FF4B55"/>
<path d="M21.5172 6.6207V17.3793H2.48279V6.6207H21.5172Z" fill="#FFE15A"/>
<path d="M2.48279 6.6207L12 12L2.48279 17.3792V6.6207Z" fill="#73AF00"/>
<path d="M21.5172 6.6207L12 12L21.5172 17.3792V6.6207Z" fill="#73AF00"/>
<path d="M12 13.6551C12.9141 13.6551 13.6552 12.9141 13.6552 12C13.6552 11.0859 12.9141 10.3448 12 10.3448C11.0859 10.3448 10.3448 11.0859 10.3448 12C10.3448 12.9141 11.0859 13.6551 12 13.6551Z" fill="#FF4B55"/>
<path d="M12.1046 10.7873L12.3635 11.5634L13.1816 11.5698C13.2876 11.5706 13.3315 11.7058 13.2463 11.7687L12.5881 12.2548L12.8349 13.0349C12.8669 13.1359 12.7519 13.2194 12.6657 13.1578L12 12.682L11.3344 13.1578C11.2482 13.2194 11.1332 13.1359 11.1652 13.0349L11.412 12.2548L10.7538 11.7687C10.6686 11.7058 10.7125 11.5706 10.8185 11.5698L11.6366 11.5634L11.8955 10.7873C11.9289 10.6868 12.0711 10.6868 12.1046 10.7873Z" fill="#FFE15A"/>
<path d="M12.0618 4.68716L12.2148 5.14574L12.6982 5.14945C12.7608 5.14991 12.7867 5.22984 12.7363 5.26696L12.3474 5.55412L12.4933 6.01504C12.5121 6.07471 12.4442 6.12407 12.3933 6.08765L12 5.80668L11.6067 6.08779C11.5558 6.12421 11.4878 6.0748 11.5067 6.01518L11.6526 5.55426L11.2636 5.2671C11.2133 5.22993 11.2392 5.15005 11.3018 5.14959L11.7852 5.14588L11.9382 4.68731C11.958 4.62777 12.042 4.62777 12.0618 4.68716Z" fill="#FFE15A"/>
<path d="M17.5058 4.68715L17.6587 5.14573L18.1421 5.14943C18.2047 5.1499 18.2307 5.22982 18.1803 5.26695L17.7914 5.5541L17.9372 6.01502C17.9561 6.0747 17.8881 6.12406 17.8372 6.08763L17.4439 5.80652L17.0506 6.08763C16.9997 6.12406 16.9317 6.07465 16.9506 6.01502L17.0964 5.5541L16.7075 5.26695C16.6571 5.22978 16.6831 5.1499 16.7456 5.14943L17.2291 5.14573L17.382 4.68715C17.402 4.62776 17.4859 4.62776 17.5058 4.68715Z" fill="#FFE15A"/>
<path d="M6.61782 4.68715L6.77077 5.14573L7.25419 5.14943C7.31677 5.1499 7.34274 5.22982 7.29235 5.26695L6.90343 5.5541L7.04926 6.01502C7.06815 6.0747 7.00018 6.12406 6.94927 6.08763L6.55594 5.80652L6.16262 6.08763C6.11171 6.12406 6.04374 6.07465 6.06263 6.01502L6.20846 5.5541L5.81954 5.26695C5.7692 5.22978 5.79512 5.1499 5.8577 5.14943L6.34112 5.14573L6.49407 4.68715C6.51404 4.62776 6.59804 4.62776 6.61782 4.68715Z" fill="#FFE15A"/>
<path d="M12.0618 17.9059L12.2148 18.3645L12.6982 18.3682C12.7608 18.3686 12.7867 18.4485 12.7363 18.4857L12.3474 18.7728L12.4933 19.2338C12.5121 19.2934 12.4442 19.3428 12.3933 19.3064L12 19.0254L11.6067 19.3065C11.5558 19.3429 11.4878 19.2935 11.5067 19.2339L11.6526 18.773L11.2636 18.4858C11.2133 18.4486 11.2392 18.3688 11.3018 18.3683L11.7852 18.3646L11.9382 17.906C11.958 17.8465 12.042 17.8465 12.0618 17.9059Z" fill="#FFE15A"/>
<path d="M17.5058 17.9059L17.6587 18.3644L18.1421 18.3681C18.2047 18.3686 18.2307 18.4485 18.1803 18.4857L17.7914 18.7728L17.9372 19.2337C17.9561 19.2934 17.8881 19.3428 17.8372 19.3063L17.4439 19.0252L17.0506 19.3063C16.9997 19.3428 16.9317 19.2934 16.9506 19.2337L17.0964 18.7728L16.7075 18.4857C16.6571 18.4485 16.6831 18.3686 16.7456 18.3681L17.2291 18.3644L17.382 17.9059C17.402 17.8465 17.4859 17.8465 17.5058 17.9059Z" fill="#FFE15A"/>
<path d="M6.61782 17.9059L6.77077 18.3644L7.25419 18.3681C7.31677 18.3686 7.34274 18.4485 7.29235 18.4857L6.90343 18.7728L7.04926 19.2337C7.06815 19.2934 7.00018 19.3428 6.94927 19.3063L6.55594 19.0252L6.16262 19.3063C6.11171 19.3428 6.04374 19.2934 6.06263 19.2337L6.20846 18.7728L5.81954 18.4857C5.7692 18.4485 5.79512 18.3686 5.8577 18.3681L6.34112 18.3644L6.49407 17.9059C6.51404 17.8465 6.59804 17.8465 6.61782 17.9059Z" fill="#FFE15A"/>
<path d="M5.53448 10.9655H4.5V12C4.5 12.5713 4.96312 13.0344 5.53448 13.0344C6.10584 13.0344 6.56896 12.5713 6.56896 12C6.56896 11.4286 6.10579 10.9655 5.53448 10.9655Z" fill="#FFE15A"/>
<path d="M6.56891 13.0345L6.00022 12.9242L5.53442 12L6.45866 12.4659L6.56891 13.0345Z" fill="#FF4B55"/>
</svg>
