<svg width="24" height="24" viewBox="0 0 24 24" fill="none" xmlns="http://www.w3.org/2000/svg">
<path d="M23.5861 19.862H0.413812C0.185297 19.862 0 19.6767 0 19.4482V4.55175C0 4.32324 0.185297 4.13794 0.413812 4.13794H23.5862C23.8147 4.13794 24 4.32324 24 4.55175V19.4482C24 19.6768 23.8147 19.862 23.5861 19.862Z" fill="#73AF00"/>
<path d="M13.2945 14.4208C11.9575 14.4208 10.8736 13.337 10.8736 12C10.8736 10.663 11.9574 9.57911 13.2945 9.57911C13.4719 9.57911 13.6438 9.6004 13.8095 9.63841C13.8755 9.65355 13.9105 9.56491 13.8529 9.52924C13.3459 9.2149 12.7354 9.05187 12.0837 9.10488C10.6651 9.22029 9.52463 10.3768 9.42807 11.7968C9.31266 13.4932 10.6545 14.905 12.3262 14.905C12.8865 14.905 13.4094 14.7458 13.8531 14.4707C13.9107 14.435 13.8758 14.3463 13.8097 14.3615C13.6439 14.3995 13.4719 14.4208 13.2945 14.4208Z" fill="#FFE15A"/>
<path d="M15.4045 9.95023L15.5863 10.4107L16.0597 10.2657C16.086 10.2577 16.1086 10.286 16.0948 10.3098L15.8482 10.7391L16.2567 11.0188C16.2794 11.0343 16.2713 11.0697 16.2441 11.0738L15.7547 11.1486L15.7907 11.6424C15.7927 11.6698 15.7601 11.6855 15.7399 11.6668L15.3763 11.3308L15.0128 11.6668C14.9926 11.6855 14.9599 11.6698 14.962 11.6424L14.998 11.1486L14.5085 11.0738C14.4814 11.0697 14.4733 11.0343 14.496 11.0188L14.9045 10.7391L14.6578 10.3098C14.6441 10.286 14.6667 10.2577 14.693 10.2657L15.1664 10.4107L15.3482 9.95023C15.3582 9.92463 15.3944 9.92463 15.4045 9.95023Z" fill="#FFE15A"/>
<path d="M22.0251 8.70886L22.2069 9.16936L22.6803 9.02437C22.7066 9.01631 22.7292 9.04467 22.7154 9.06848L22.4688 9.49776L22.8773 9.77746C22.9 9.79298 22.8919 9.82832 22.8647 9.83245L22.3753 9.90726L22.4113 10.401C22.4133 10.4285 22.3807 10.4442 22.3605 10.4255L21.9969 10.0895L21.6334 10.4255C21.6132 10.4442 21.5805 10.4285 21.5826 10.401L21.6186 9.90726L21.1291 9.83245C21.102 9.82832 21.0939 9.79298 21.1166 9.77746L21.5251 9.49776L21.2784 9.06848C21.2648 9.04462 21.2873 9.01636 21.3136 9.02437L21.787 9.16936L21.9688 8.70886C21.9788 8.68331 22.015 8.68331 22.0251 8.70886Z" fill="#FFE15A"/>
<path d="M18.7148 5.72357L18.8966 6.18407L19.37 6.03909C19.3963 6.03102 19.4189 6.05938 19.4051 6.0832L19.1585 6.51248L19.567 6.79218C19.5897 6.80769 19.5816 6.84304 19.5544 6.84716L19.065 6.92198L19.101 7.41571C19.103 7.44313 19.0704 7.45883 19.0502 7.44018L18.6866 7.10418L18.3231 7.44018C18.3029 7.45883 18.2702 7.44313 18.2723 7.41571L18.3083 6.92198L17.8188 6.84716C17.7917 6.84304 17.7836 6.80769 17.8063 6.79218L18.2148 6.51248L17.9681 6.0832C17.9545 6.05934 17.977 6.03107 18.0033 6.03909L18.4767 6.18407L18.6585 5.72357C18.6684 5.69798 18.7047 5.69798 18.7148 5.72357Z" fill="#FFE15A"/>
<path d="M18.7148 16.5709L18.8966 17.0314L19.37 16.8864C19.3963 16.8783 19.4189 16.9067 19.4051 16.9305L19.1585 17.3598L19.567 17.6395C19.5897 17.655 19.5816 17.6904 19.5544 17.6945L19.065 17.7693L19.101 18.263C19.103 18.2904 19.0704 18.3061 19.0502 18.2875L18.6866 17.9515L18.3231 18.2875C18.3029 18.3061 18.2702 18.2904 18.2723 18.263L18.3083 17.7693L17.8188 17.6945C17.7917 17.6904 17.7836 17.655 17.8063 17.6395L18.2148 17.3598L17.9681 16.9305C17.9545 16.9067 17.977 16.8784 18.0033 16.8864L18.4767 17.0314L18.6585 16.5709C18.6684 16.5453 18.7047 16.5453 18.7148 16.5709Z" fill="#FFE15A"/>
<path d="M20.0699 10.367L20.1968 10.7475L20.5979 10.7506C20.629 10.7509 20.6419 10.7905 20.6169 10.8089L20.2942 11.0473L20.4152 11.4297C20.4246 11.4593 20.3908 11.4839 20.3655 11.4658L20.0392 11.2325L19.7128 11.4658C19.6875 11.4838 19.6537 11.4593 19.6631 11.4297L19.7841 11.0473L19.4614 10.8089C19.4364 10.7905 19.4493 10.7508 19.4804 10.7506L19.8815 10.7475L20.0084 10.367C20.0183 10.3375 20.06 10.3375 20.0699 10.367Z" fill="#FFE15A"/>
<path d="M4.34483 11.1726C5.8303 11.1726 7.03452 9.96843 7.03452 8.48296C7.03452 6.99749 5.8303 5.79327 4.34483 5.79327C2.85936 5.79327 1.65515 6.99749 1.65515 8.48296C1.65515 9.96843 2.85936 11.1726 4.34483 11.1726Z" fill="#FFE15A"/>
<path d="M4.06824 10.5783H4.79461C4.79461 10.5783 5.2073 8.72933 4.82761 8.069L4.59652 8.21755C4.59652 8.21755 4.9762 9.48865 4.06824 10.5783Z" fill="#964B50"/>
<path d="M4.09572 8.1515C4.09572 8.1515 3.67755 8.43762 3.80959 9.28507C3.80959 9.28507 4.12872 9.02093 4.30483 8.43762C4.30483 8.43762 4.0517 8.92184 4.40387 9.30706C4.40387 9.30706 4.77803 8.77878 4.723 8.31654C4.723 8.31654 5.96701 9.61563 5.70249 9.28502C5.65848 9.22999 5.76854 8.67968 5.33931 8.22851C5.33931 8.22851 6.0437 8.40457 6.30779 8.33857C6.30779 8.33857 6.32982 7.77725 5.65843 7.6782L5.81251 7.238C5.81251 7.238 5.29529 7.205 5.02009 7.46909C5.02009 7.46909 4.95404 6.78673 5.2292 6.45659C5.2292 6.45659 4.41479 6.33551 4.38175 7.40309C4.38175 7.40309 4.08461 6.72073 3.17116 6.88587C3.17116 6.88587 3.68837 7.26003 3.7765 7.42517C3.7765 7.42517 3.05012 6.92994 2.70897 7.62326C2.70897 7.62326 3.29228 7.46918 3.50139 7.74434C3.50139 7.74434 2.56591 7.64529 2.48889 8.44873C2.48889 8.44873 3.35837 8.04143 4.09572 8.1515Z" fill="#73AF00"/>
</svg>
