<svg width="24" height="24" viewBox="0 0 24 24" fill="none" xmlns="http://www.w3.org/2000/svg">
<path d="M23.5861 19.862H0.413812C0.185297 19.862 0 19.6767 0 19.4482V4.55175C0 4.32324 0.185297 4.13794 0.413812 4.13794H23.5862C23.8147 4.13794 24 4.32324 24 4.55175V19.4482C24 19.6768 23.8147 19.862 23.5861 19.862Z" fill="#4173CD"/>
<path d="M10.1493 16.1379C10.1145 16.756 10.5237 16.8322 10.7454 16.8355C10.9671 16.8389 11.303 16.9363 11.6154 17.0001C11.9278 17.064 12.0286 16.8053 12.0286 16.8053C12.2133 17.0471 12.3936 16.9733 12.3936 16.9733C12.5414 16.8255 12.9355 16.7515 13.09 16.7414C13.2445 16.7313 13.2076 16.5197 13.2076 16.5197C13.3695 16.4297 13.4791 16.3265 13.5574 16.2222C13.5608 16.2237 13.5637 16.2261 13.567 16.2275C13.8324 16.3417 14.0373 16.0999 14.081 16.0092C14.108 15.9531 14.1574 15.9283 14.1928 15.9162L14.2053 16.0562C14.3195 15.8916 14.5681 15.9521 14.5681 15.9521C14.3128 15.5591 14.0542 15.7405 14.0542 15.7405L14.1544 15.8357C14.0023 15.9123 13.912 16.2158 13.688 16.1268C13.6689 16.1192 13.6527 16.1083 13.6356 16.0983C13.726 15.919 13.729 15.7499 13.7048 15.6532C13.6612 15.4786 13.3924 15.4382 13.2614 15.6163C13.1699 15.7407 13.2278 15.933 13.3605 16.0772C13.2904 16.126 13.201 16.1715 13.0834 16.2041C12.7206 16.3049 12.1765 15.8279 11.8003 15.8078C11.4241 15.7876 11.0949 16.1034 10.9068 16.3049C10.7186 16.5064 10.4662 16.3279 10.4701 16.1974M13.4428 15.6867C13.5134 15.6565 13.5436 15.7103 13.5537 15.7976C13.5579 15.8342 13.5378 15.8941 13.4885 15.9585C13.4107 15.8389 13.398 15.7059 13.4428 15.6867Z" fill="#73AF00"/>
<path d="M11.2147 16.8834L11.0142 16.9866L11.0702 16.848L11.2147 16.8834Z" fill="#F5F5F5"/>
<path d="M11.0276 16.8357L10.8422 16.9311L10.894 16.803L11.0276 16.8357Z" fill="#F5F5F5"/>
<path d="M10.8547 16.8008L10.7177 16.8781L10.753 16.78L10.8547 16.8008Z" fill="#F5F5F5"/>
<path d="M12.3936 16.9732L12.1752 17.0301L12.2602 16.9071L12.3936 16.9732Z" fill="#F5F5F5"/>
<path d="M12.2419 16.8925L12.0386 16.9386L12.1207 16.8275L12.2419 16.8925Z" fill="#F5F5F5"/>
<path d="M12.1002 16.818L11.9606 16.8907L11.9992 16.7938L12.1002 16.818Z" fill="#F5F5F5"/>
<path d="M9.2078 9.36815C9.16502 9.39824 9.1622 9.4679 9.20148 9.52374C9.24076 9.57957 9.30727 9.60044 9.35005 9.57035C9.39282 9.54026 9.39565 9.47061 9.35637 9.41477C9.31708 9.35893 9.25057 9.33806 9.2078 9.36815Z" fill="#F5F5F5"/>
<path d="M14.6499 9.57101C14.6927 9.6011 14.7592 9.58023 14.7985 9.5244C14.8378 9.46856 14.8349 9.3989 14.7922 9.36881C14.7494 9.33872 14.6829 9.3596 14.6436 9.41543C14.6043 9.47127 14.6071 9.54092 14.6499 9.57101Z" fill="#F5F5F5"/>
<path d="M13.298 11.5169V13.9279C13.298 14.6437 12.7157 15.226 11.9999 15.226C11.2841 15.226 10.7017 14.6436 10.7017 13.9279V11.5169H13.298ZM14.0398 10.5897H9.95985C9.85743 10.5897 9.77441 10.6727 9.77441 10.7751V13.9278C9.77441 15.1569 10.7708 16.1532 11.9998 16.1532C13.2289 16.1532 14.2253 15.1569 14.2253 13.9278V10.7751C14.2253 10.6727 14.1423 10.5897 14.0398 10.5897Z" fill="#F5F5F5"/>
<path d="M10.7019 11.5169H9.77466V11.0035C9.77466 10.775 9.95995 10.5897 10.1885 10.5897H10.7019L10.7019 11.5169Z" fill="#FF4B55"/>
<path d="M12.4637 10.5895H11.5365V11.5168H12.4637V10.5895Z" fill="#FF4B55"/>
<path d="M10.7016 12.4444H9.77441V13.3716H10.7016V12.4444Z" fill="#FF4B55"/>
<path d="M14.2257 12.4444H13.2985V13.3716H14.2257V12.4444Z" fill="#FF4B55"/>
<path d="M14.2255 11.517H13.2982V10.5897H13.8117C14.0402 10.5897 14.2255 10.775 14.2255 11.0035L14.2255 11.517Z" fill="#FF4B55"/>
<path d="M12.7889 16.0067L12.4322 15.1505C12.2968 15.1986 12.1517 15.226 12 15.226C11.8484 15.226 11.7033 15.1985 11.5679 15.1505L11.2112 16.0067C11.4567 16.1 11.7219 16.1533 12.0001 16.1533C12.2782 16.1533 12.5434 16.1 12.7889 16.0067Z" fill="#FF4B55"/>
<path d="M10.3583 15.4267L11.0836 14.8465C10.9001 14.6634 10.772 14.4255 10.7238 14.1601L9.82983 14.4155C9.9159 14.7999 10.1018 15.1457 10.3583 15.4267Z" fill="#FF4B55"/>
<path d="M14.1702 14.4155L13.2762 14.16C13.2281 14.4254 13.0999 14.6633 12.9164 14.8464L13.6417 15.4266C13.8983 15.1457 14.0842 14.7999 14.1702 14.4155Z" fill="#FF4B55"/>
<path d="M10.4237 10.7751H10.0527V11.3315H10.4237V10.7751Z" fill="#FFE15A"/>
<path d="M10.4237 12.6295H10.0527V13.1859H10.4237V12.6295Z" fill="#FFE15A"/>
<path d="M10.6093 14.4844H10.2384V15.0407H10.6093V14.4844Z" fill="#FFE15A"/>
<path d="M13.7617 14.4844H13.3907V15.0407H13.7617V14.4844Z" fill="#FFE15A"/>
<path d="M13.9472 10.7751H13.5763V11.3315H13.9472V10.7751Z" fill="#FFE15A"/>
<path d="M10.4237 11.6962H10.0527V12.2526H10.4237V11.6962Z" fill="#FF4B55"/>
<path d="M13.9472 11.6962H13.5763V12.2526H13.9472V11.6962Z" fill="#FF4B55"/>
<path d="M10.4237 13.5356H10.0527V14.0919H10.4237V13.5356Z" fill="#FF4B55"/>
<path d="M11.2229 15.1758H10.8519V15.7321H11.2229V15.1758Z" fill="#FF4B55"/>
<path d="M13.147 15.1758H12.7761V15.7321H13.147V15.1758Z" fill="#FF4B55"/>
<path d="M13.9472 13.5356H13.5763V14.0919H13.9472V13.5356Z" fill="#FF4B55"/>
<path d="M12.1853 10.7751H11.8143V11.3315H12.1853V10.7751Z" fill="#FFE15A"/>
<path d="M11.3045 10.7751H10.9336V11.3315H11.3045V10.7751Z" fill="#FF4B55"/>
<path d="M13.0511 10.7751H12.6802V11.3315H13.0511V10.7751Z" fill="#FF4B55"/>
<path d="M13.9472 12.6295H13.5763V13.1859H13.9472V12.6295Z" fill="#FFE15A"/>
<path d="M12.1853 15.4116H11.8143V15.9679H12.1853V15.4116Z" fill="#FFE15A"/>
<path d="M11.9999 11.8705C12.3578 11.8705 12.649 12.1616 12.649 12.5196C12.649 12.8775 12.3578 13.1686 11.9999 13.1686C11.642 13.1686 11.3508 12.8775 11.3508 12.5196C11.3508 12.1617 11.6421 11.8705 11.9999 11.8705ZM11.9999 11.7777C11.5902 11.7777 11.2581 12.1098 11.2581 12.5196C11.2581 12.9292 11.5902 13.2614 11.9999 13.2614C12.4096 13.2614 12.7417 12.9293 12.7417 12.5196C12.7417 12.1098 12.4096 11.7777 11.9999 11.7777Z" fill="#FFE15A"/>
<path d="M11.8879 12.4674C11.704 12.4674 11.5891 12.5192 11.5173 12.5835C11.5468 12.4379 11.6082 12.2819 11.7372 12.2819C11.7628 12.2819 11.7836 12.261 11.7836 12.2355C11.7836 12.21 11.7628 12.1892 11.7372 12.1892C11.6093 12.1892 11.5298 12.2782 11.48 12.39C11.4494 11.7818 11.355 11.7795 11.32 11.7795C11.2944 11.7795 11.2736 11.8004 11.2736 11.8259C11.2736 11.8482 11.2892 11.8667 11.3101 11.8712C11.3295 11.8943 11.3461 11.9723 11.3595 12.0805C11.2995 11.9531 11.2123 11.8607 11.0843 11.8607C11.0587 11.8607 11.038 11.8815 11.038 11.907C11.038 11.9325 11.0587 11.9534 11.0843 11.9534C11.2109 11.9534 11.2887 12.1079 11.3351 12.2934C11.2461 12.1665 11.1119 12.0733 10.9144 12.0733C10.8888 12.0733 10.868 12.0942 10.868 12.1197C10.868 12.1452 10.8888 12.166 10.9144 12.166C11.1195 12.166 11.2372 12.2843 11.3051 12.4211C11.2256 12.3537 11.1121 12.3051 10.9491 12.3051C10.9235 12.3051 10.9028 12.326 10.9028 12.3515C10.9028 12.377 10.9235 12.3978 10.9491 12.3978C11.3903 12.3978 11.3972 12.8129 11.3973 12.8307C11.3973 12.8374 11.4019 12.8421 11.4044 12.848C11.4068 12.853 11.4069 12.8593 11.4108 12.8631L11.4109 12.8633C11.4192 12.8717 11.4308 12.8769 11.4436 12.8769H11.4437C11.4484 12.8768 11.4515 12.8732 11.4559 12.8718C11.47 12.8674 11.4798 12.8578 11.4844 12.8438C11.486 12.8392 11.4899 12.836 11.4899 12.8309C11.4901 12.8198 11.4979 12.5601 11.8879 12.5601C11.9135 12.5601 11.9343 12.5392 11.9343 12.5137C11.9343 12.4881 11.9135 12.4674 11.8879 12.4674Z" fill="#73AF00"/>
<path d="M12.1158 12.4674C12.2998 12.4674 12.4146 12.5192 12.4865 12.5835C12.4569 12.4379 12.3955 12.2819 12.2665 12.2819C12.2409 12.2819 12.2202 12.261 12.2202 12.2355C12.2202 12.21 12.2409 12.1892 12.2665 12.1892C12.3944 12.1892 12.4739 12.2782 12.5237 12.39C12.5543 11.7818 12.6487 11.7795 12.6838 11.7795C12.7093 11.7795 12.7301 11.8004 12.7301 11.8259C12.7301 11.8482 12.7146 11.8667 12.6936 11.8712C12.6742 11.8943 12.6576 11.9723 12.6442 12.0805C12.7042 11.9531 12.7914 11.8607 12.9194 11.8607C12.945 11.8607 12.9658 11.8815 12.9658 11.907C12.9658 11.9325 12.945 11.9534 12.9194 11.9534C12.7928 11.9534 12.715 12.1079 12.6686 12.2934C12.7576 12.1665 12.8918 12.0733 13.0893 12.0733C13.1149 12.0733 13.1357 12.0942 13.1357 12.1197C13.1357 12.1452 13.115 12.166 13.0893 12.166C12.8842 12.166 12.7665 12.2843 12.6986 12.4211C12.7782 12.3537 12.8916 12.3051 13.0546 12.3051C13.0802 12.3051 13.1009 12.326 13.1009 12.3515C13.1009 12.377 13.0802 12.3978 13.0546 12.3978C12.6134 12.3978 12.6065 12.8129 12.6065 12.8307C12.6065 12.8374 12.6019 12.8421 12.5993 12.848C12.5969 12.853 12.5968 12.8593 12.593 12.8631L12.5929 12.8633C12.5845 12.8717 12.5729 12.8769 12.5601 12.8769H12.5601C12.5553 12.8768 12.5522 12.8732 12.5479 12.8718C12.5337 12.8674 12.524 12.8578 12.5193 12.8438C12.5177 12.8392 12.5138 12.836 12.5138 12.8309C12.5136 12.8198 12.5058 12.5601 12.1158 12.5601C12.0902 12.5601 12.0695 12.5392 12.0695 12.5137C12.0695 12.4881 12.0902 12.4674 12.1158 12.4674Z" fill="#73AF00"/>
<path d="M11.2843 12.705C11.367 13.0244 11.6547 13.2614 11.9999 13.2614C12.3451 13.2614 12.6328 13.0244 12.7155 12.705H11.2843Z" fill="#FF4B55"/>
<path d="M11.9999 13.2614C12.3452 13.2614 12.6327 13.0244 12.7155 12.705H11.9999V13.2614Z" fill="#FFE15A"/>
<path d="M11.9999 13.5511C12.3578 13.5511 12.649 13.8423 12.649 14.2002C12.649 14.5581 12.3578 14.8493 11.9999 14.8493C11.642 14.8493 11.3508 14.5581 11.3508 14.2002C11.3508 13.8424 11.6421 13.5511 11.9999 13.5511ZM11.9999 13.4585C11.5902 13.4585 11.2581 13.7906 11.2581 14.2003C11.2581 14.61 11.5902 14.9422 11.9999 14.9422C12.4096 14.9422 12.7417 14.6101 12.7417 14.2003C12.7417 13.7906 12.4096 13.4585 11.9999 13.4585Z" fill="#FFE15A"/>
<path d="M11.8879 14.148C11.704 14.148 11.5891 14.1998 11.5173 14.2642C11.5468 14.1185 11.6082 13.9626 11.7372 13.9626C11.7628 13.9626 11.7836 13.9417 11.7836 13.9162C11.7836 13.8907 11.7628 13.8698 11.7372 13.8698C11.6093 13.8698 11.5298 13.9589 11.48 14.0707C11.4494 13.4625 11.355 13.4602 11.32 13.4602C11.2944 13.4602 11.2736 13.4811 11.2736 13.5066C11.2736 13.5289 11.2892 13.5473 11.3101 13.5518C11.3295 13.575 11.3461 13.653 11.3595 13.7611C11.2995 13.6337 11.2123 13.5413 11.0843 13.5413C11.0587 13.5413 11.038 13.5622 11.038 13.5877C11.038 13.6133 11.0587 13.6341 11.0843 13.6341C11.2109 13.6341 11.2887 13.7885 11.3351 13.9741C11.2461 13.8472 11.1119 13.754 10.9144 13.754C10.8888 13.754 10.868 13.7748 10.868 13.8003C10.868 13.8259 10.8888 13.8467 10.9144 13.8467C11.1195 13.8467 11.2372 13.965 11.3051 14.1017C11.2256 14.0344 11.1121 13.9858 10.9491 13.9858C10.9235 13.9858 10.9028 14.0066 10.9028 14.0321C10.9028 14.0576 10.9235 14.0785 10.9491 14.0785C11.3903 14.0785 11.3972 14.4936 11.3973 14.5113C11.3973 14.518 11.4019 14.5228 11.4044 14.5285C11.4068 14.5336 11.4069 14.5399 11.4108 14.5437L11.4109 14.5439C11.4192 14.5522 11.4308 14.5575 11.4436 14.5575H11.4437C11.4484 14.5574 11.4515 14.5537 11.4559 14.5524C11.47 14.548 11.4798 14.5384 11.4844 14.5244C11.486 14.5198 11.4899 14.5165 11.4899 14.5115C11.4901 14.5004 11.4979 14.2407 11.8879 14.2407C11.9135 14.2407 11.9343 14.2198 11.9343 14.1943C11.9343 14.1689 11.9135 14.148 11.8879 14.148Z" fill="#73AF00"/>
<path d="M12.1158 14.148C12.2998 14.148 12.4146 14.1998 12.4865 14.2642C12.4569 14.1185 12.3955 13.9626 12.2665 13.9626C12.2409 13.9626 12.2202 13.9417 12.2202 13.9162C12.2202 13.8907 12.2409 13.8698 12.2665 13.8698C12.3944 13.8698 12.4739 13.9589 12.5237 14.0707C12.5543 13.4625 12.6487 13.4602 12.6838 13.4602C12.7093 13.4602 12.7301 13.4811 12.7301 13.5066C12.7301 13.5289 12.7146 13.5473 12.6936 13.5518C12.6742 13.575 12.6576 13.653 12.6442 13.7611C12.7042 13.6337 12.7914 13.5413 12.9194 13.5413C12.945 13.5413 12.9658 13.5622 12.9658 13.5877C12.9658 13.6133 12.945 13.6341 12.9194 13.6341C12.7928 13.6341 12.715 13.7885 12.6686 13.9741C12.7576 13.8472 12.8918 13.754 13.0893 13.754C13.1149 13.754 13.1357 13.7748 13.1357 13.8003C13.1357 13.8259 13.115 13.8467 13.0893 13.8467C12.8842 13.8467 12.7665 13.965 12.6986 14.1017C12.7782 14.0344 12.8916 13.9858 13.0546 13.9858C13.0802 13.9858 13.1009 14.0066 13.1009 14.0321C13.1009 14.0576 13.0802 14.0785 13.0546 14.0785C12.6134 14.0785 12.6065 14.4936 12.6065 14.5113C12.6065 14.518 12.6019 14.5228 12.5993 14.5285C12.5969 14.5336 12.5968 14.5399 12.593 14.5437L12.5929 14.5439C12.5845 14.5522 12.5729 14.5575 12.5601 14.5575H12.5601C12.5553 14.5574 12.5522 14.5537 12.5479 14.5524C12.5337 14.548 12.524 14.5384 12.5193 14.5244C12.5177 14.5198 12.5138 14.5165 12.5138 14.5115C12.5136 14.5004 12.5058 14.2407 12.1158 14.2407C12.0902 14.2407 12.0695 14.2198 12.0695 14.1943C12.0695 14.1689 12.0902 14.148 12.1158 14.148Z" fill="#73AF00"/>
<path d="M11.2843 14.3857C11.367 14.7051 11.6547 14.942 11.9999 14.942C12.3451 14.942 12.6328 14.7051 12.7155 14.3857H11.2843Z" fill="#FF4B55"/>
<path d="M11.9999 14.942C12.3452 14.942 12.6327 14.7051 12.7155 14.3857H11.9999V14.942Z" fill="#FFE15A"/>
<path d="M9.4036 11.146V10.7751H8.47632V11.146H8.66176V15.2261H8.47632V15.5969H8.66176H9.21811H9.4036V15.2261H9.21811V11.146H9.4036Z" fill="#F5F5F5"/>
<path d="M15.5236 11.146V10.7751H14.5963V11.146H14.7818V15.2261H14.5963V15.5969H14.7818H15.3381H15.5236V15.2261H15.3381V11.146H15.5236Z" fill="#F5F5F5"/>
<path d="M14.0399 10.5897H9.95991C9.75507 10.5897 9.58899 10.4236 9.58899 10.2188C9.58899 10.0139 9.75507 9.84784 9.95991 9.84784H14.0399C14.2447 9.84784 14.4108 10.0139 14.4108 10.2188C14.4108 10.4237 14.2448 10.5897 14.0399 10.5897Z" fill="#FFE15A"/>
<path d="M12.139 10.3579H11.8609C11.7841 10.3579 11.7218 10.2956 11.7218 10.2188C11.7218 10.142 11.7841 10.0797 11.8609 10.0797H12.139C12.2159 10.0797 12.2781 10.142 12.2781 10.2188C12.2781 10.2956 12.2158 10.3579 12.139 10.3579Z" fill="#FF4B55"/>
<path d="M13.5299 10.3579H13.2517C13.1749 10.3579 13.1127 10.2956 13.1127 10.2188C13.1127 10.142 13.175 10.0797 13.2517 10.0797H13.5299C13.6067 10.0797 13.669 10.142 13.669 10.2188C13.669 10.2956 13.6067 10.3579 13.5299 10.3579Z" fill="#73AF00"/>
<path d="M10.7482 10.3579H10.47C10.3932 10.3579 10.3309 10.2956 10.3309 10.2188C10.3309 10.142 10.3932 10.0797 10.47 10.0797H10.7482C10.825 10.0797 10.8872 10.142 10.8872 10.2188C10.8873 10.2956 10.825 10.3579 10.7482 10.3579Z" fill="#73AF00"/>
<path d="M14.6042 9.07895L14.3337 9.17167L14.3598 9.42967C14.0611 9.76909 13.9112 9.79098 13.8494 9.76951C13.773 9.74312 13.7378 9.63423 13.7236 9.5508L13.8352 9.6624C14.3916 9.10605 14.0728 8.28888 14.0728 8.28888C13.9164 8.31784 13.8468 8.46273 13.8468 8.46273C13.7019 8.45116 13.5513 8.46273 13.5513 8.46273C13.5397 8.59023 13.586 8.76986 13.586 8.76986C13.268 8.83544 13.1371 9.0078 13.1371 9.0078C13.1916 9.16051 13.3659 9.29144 13.3659 9.29144C13.3137 9.41894 13.3774 9.56959 13.3774 9.56959C13.457 9.56959 13.5259 9.54559 13.5746 9.52206C13.3669 9.781 13.2691 9.78719 13.236 9.77472C13.1356 9.7375 13.1102 9.44111 13.1243 9.24255C13.1257 9.22225 13.1137 9.20336 13.0947 9.196C13.0759 9.18892 13.0542 9.19469 13.0415 9.21067L12.8816 9.41458C12.2142 8.52541 12.7419 7.99324 12.7419 7.99324V7.62231H12.5565V7.80775H12.3975V7.62231H12.2386V7.80775H12.0796V7.62231H11.9207V7.80775H11.7617V7.62231H11.6028V7.80775H11.4438V7.62231H11.2584V7.99324C11.2584 7.99324 11.786 8.52531 11.1187 9.41458L10.9587 9.21067C10.9461 9.19455 10.9244 9.18859 10.9056 9.196C10.8866 9.20336 10.8746 9.2223 10.876 9.24255C10.8901 9.44111 10.8648 9.73745 10.7643 9.77472C10.731 9.78676 10.6331 9.78081 10.425 9.52117C10.4738 9.54508 10.5432 9.56964 10.6239 9.56964C10.6239 9.56964 10.6877 9.41898 10.6355 9.29148C10.6355 9.29148 10.8096 9.16056 10.8642 9.00784C10.8642 9.00784 10.7333 8.83548 10.4153 8.76991C10.4153 8.76991 10.4616 8.59028 10.4501 8.46278C10.4501 8.46278 10.2994 8.4512 10.1545 8.46278C10.1545 8.46278 10.085 8.31789 9.92848 8.28892C9.92848 8.28892 9.60969 9.10605 10.1661 9.66245L10.2764 9.55211C10.2621 9.63545 10.2269 9.74331 10.1509 9.76961C10.0888 9.79112 9.9394 9.76923 9.64147 9.43089L9.66762 9.17181L9.39716 9.07909C9.25808 8.65797 8.92578 8.70817 8.92578 8.70817C9.146 8.8975 9.19236 9.3804 9.19236 9.3804L9.76419 9.93676L9.79512 9.84789C9.78233 9.77359 9.76245 9.71547 9.74103 9.6684C9.92042 9.83411 10.0661 9.89753 10.1813 9.85712C10.2945 9.81793 10.3425 9.69006 10.3628 9.59354C10.5149 9.78151 10.6371 9.87198 10.7391 9.87198C10.7591 9.87198 10.7782 9.86851 10.7966 9.86162C10.9424 9.80767 10.9705 9.55042 10.9726 9.37853L11.073 9.50659V9.84789H11.8149C11.8149 9.74547 11.8979 9.66245 12.0003 9.66245C12.1027 9.66245 12.1857 9.74547 12.1857 9.84789H12.9276V9.50659L13.028 9.37853C13.0301 9.55042 13.0583 9.80767 13.2041 9.86162C13.2224 9.86851 13.2416 9.87198 13.2615 9.87198C13.3635 9.87198 13.4857 9.78142 13.6378 9.59354C13.6581 9.69006 13.7061 9.81793 13.8193 9.85712C13.9351 9.89753 14.0812 9.83373 14.2613 9.66695C14.2397 9.71429 14.2194 9.77284 14.2065 9.84793L14.2374 9.93681L14.8092 9.38045C14.8092 9.38045 14.8556 8.8975 15.0758 8.70822C15.0755 8.70803 14.7432 8.65783 14.6042 9.07895Z" fill="#FFE15A"/>
<path d="M11.3045 10.3579C11.2277 10.3579 11.1654 10.2956 11.1654 10.2188C11.1654 10.142 11.2277 10.0797 11.3045 10.0797C11.3813 10.0797 11.4436 10.142 11.4436 10.2188C11.4436 10.2956 11.3813 10.3579 11.3045 10.3579Z" fill="#F5F5F5"/>
<path d="M12.6954 10.3579C12.6185 10.3579 12.5563 10.2956 12.5563 10.2188C12.5563 10.142 12.6186 10.0797 12.6954 10.0797C12.7722 10.0797 12.8344 10.142 12.8344 10.2188C12.8345 10.2956 12.7722 10.3579 12.6954 10.3579Z" fill="#F5F5F5"/>
<path d="M14.0863 10.3579C14.0095 10.3579 13.9473 10.2956 13.9473 10.2188C13.9473 10.142 14.0096 10.0797 14.0863 10.0797C14.1632 10.0797 14.2254 10.142 14.2254 10.2188C14.2254 10.2956 14.1632 10.3579 14.0863 10.3579Z" fill="#FF4B55"/>
<path d="M9.91361 10.3579C9.83679 10.3579 9.77454 10.2956 9.77454 10.2188C9.77454 10.142 9.83683 10.0797 9.91361 10.0797C9.99044 10.0797 10.0527 10.142 10.0527 10.2188C10.0527 10.2956 9.99039 10.3579 9.91361 10.3579Z" fill="#FF4B55"/>
<path d="M12 8.92056C12.1024 8.92056 12.1854 8.83753 12.1854 8.73512C12.1854 8.63271 12.1024 8.54968 12 8.54968C11.8976 8.54968 11.8146 8.63271 11.8146 8.73512C11.8146 8.83753 11.8976 8.92056 12 8.92056Z" fill="#F5F5F5"/>
<path d="M10.1046 8.90519C10.0404 8.92138 10.0037 8.99488 10.0224 9.06936C10.0412 9.14383 10.1085 9.19108 10.1726 9.17489C10.2368 9.15869 10.2736 9.08519 10.2548 9.01072C10.236 8.93624 10.1687 8.88899 10.1046 8.90519Z" fill="#F5F5F5"/>
<path d="M13.829 9.17493C13.8931 9.19113 13.9604 9.14388 13.9792 9.0694C13.998 8.99493 13.9612 8.92143 13.8971 8.90523C13.8329 8.88904 13.7656 8.93629 13.7469 9.01077C13.7281 9.08524 13.7648 9.15874 13.829 9.17493Z" fill="#F5F5F5"/>
<path d="M9.77453 12.3838C9.59936 12.3506 9.36597 12.3265 9.1098 12.3535C8.85888 12.3799 8.56581 12.4579 8.29089 12.6447V13.8194C8.67475 12.8916 9.53078 13.071 9.77453 13.1446V12.3838Z" fill="#F5F5F5"/>
<path d="M14.2253 12.3838C14.4005 12.3506 14.6339 12.3265 14.8901 12.3535C15.141 12.3799 15.4341 12.4579 15.709 12.6447V13.8194C15.3251 12.8916 14.4691 13.071 14.2253 13.1446V12.3838Z" fill="#F5F5F5"/>
<path d="M10.988 15.5225C10.988 15.5225 10.7882 15.8361 10.687 15.8665C10.687 15.8665 10.5499 15.9664 10.5221 15.9563L11.0032 15.3986L10.988 15.5225Z" fill="#FF4B55"/>
<path d="M10.9705 15.7035C10.8764 15.6934 10.8025 15.7471 10.7555 15.811C10.7085 15.8748 10.5818 15.8958 10.5687 15.8129C10.5569 15.7383 10.8196 15.5053 10.8196 15.5053C10.8196 15.5053 10.776 15.4267 10.656 15.4573C10.5419 15.4863 10.4297 15.6699 10.4297 15.6699C10.4297 15.6699 10.3156 15.6253 10.224 15.7016L9.83179 16.1502C9.83179 16.1502 10.3135 16.5618 10.9268 15.9553L10.8227 15.9217C10.8562 15.7942 10.9705 15.7035 10.9705 15.7035Z" fill="#73AF00"/>
<path d="M10.3917 15.8649C10.4168 15.8649 10.4372 15.8445 10.4372 15.8194C10.4372 15.7942 10.4168 15.7739 10.3917 15.7739C10.3666 15.7739 10.3462 15.7942 10.3462 15.8194C10.3462 15.8445 10.3666 15.8649 10.3917 15.8649Z" fill="#F5F5F5"/>
<path d="M8.47632 7.88374C9.04599 7.88177 9.6113 7.98133 10.1454 8.17882V7.59771C9.60933 7.41288 9.04444 7.32513 8.47632 7.33901V7.88374Z" fill="#F5F5F5"/>
<path d="M13.1128 7.25153C12.3813 7.07594 11.6187 7.07594 10.8873 7.25153C10.8873 7.06609 10.8873 6.88061 10.8873 6.69517C11.6188 6.51958 12.3814 6.51958 13.1128 6.69517C13.1128 6.88061 13.1128 7.06605 13.1128 7.25153Z" fill="#F5F5F5"/>
<path d="M11.0727 6.8277C10.619 6.86984 10.1721 6.9761 9.74609 7.14621C9.77277 7.32973 9.79944 7.51329 9.82611 7.69681C10.227 7.53673 10.6466 7.4344 11.0727 7.38748V6.8277Z" fill="#F5F5F5"/>
<path d="M8.29089 8.51881C8.54355 8.44827 8.8008 8.39628 9.06119 8.36769V7.80786C8.80113 7.832 8.54388 7.87977 8.29089 7.94596V8.51881Z" fill="#F5F5F5"/>
<path d="M15.5237 7.88374C14.954 7.88177 14.3887 7.98133 13.8546 8.17882V7.59771C14.3907 7.41288 14.9556 7.32513 15.5237 7.33901V7.88374Z" fill="#F5F5F5"/>
<path d="M12.9272 6.8277C13.3809 6.86984 13.8279 6.9761 14.2539 7.14621C14.2272 7.32973 14.2005 7.51329 14.1738 7.69681C13.773 7.53673 13.3534 7.4344 12.9272 7.38748V6.8277Z" fill="#F5F5F5"/>
<path d="M15.709 8.51881C15.4564 8.44827 15.1991 8.39628 14.9387 8.36769V7.80786C15.1988 7.832 15.456 7.87977 15.709 7.94596V8.51881Z" fill="#F5F5F5"/>
</svg>
