<svg width="24" height="24" viewBox="0 0 24 24" fill="none" xmlns="http://www.w3.org/2000/svg">
<g clip-path="url(#clip0_2058_8278)">
<path d="M8.00002 19.8619H0.413813C0.185297 19.8619 0 19.6766 0 19.4481V4.55161C0 4.32309 0.185297 4.13779 0.413813 4.13779H8.00002V19.8619Z" fill="#41479B"/>
<path d="M16.0003 4.13799H8.00012V19.8622H16.0003V4.13799Z" fill="#FFE15A"/>
<path d="M23.5862 19.8619H16V4.13779H23.5862C23.8147 4.13779 24 4.32309 24 4.55161V19.4481C24 19.6767 23.8147 19.8619 23.5862 19.8619Z" fill="#FF4B55"/>
<path d="M14.8136 13.3447C14.8136 13.2247 14.7162 13.1272 14.5961 13.1272C14.57 13.1272 14.5454 13.1326 14.5222 13.141C14.4145 13.0453 14.2195 12.8078 14.4152 12.4724C14.4416 12.493 14.4745 12.5057 14.5106 12.5057C14.5969 12.5057 14.6668 12.4358 14.6668 12.3495C14.6668 12.2814 14.6228 12.224 14.562 12.2027C14.7228 12.1207 14.9521 11.9465 14.9403 11.6209C14.9235 11.1591 14.5452 10.9042 14.3131 11.0061C14.314 10.9996 14.3151 10.9932 14.3151 10.9866C14.3151 10.9015 14.2462 10.8325 14.1611 10.8325C14.1088 10.8325 14.0627 10.8587 14.0349 10.8986C14.0255 10.8524 14.0266 10.7667 14.1339 10.674C14.3333 10.5018 14.5598 10.0895 14.1475 9.79955C13.9192 9.639 13.4828 9.56208 13.3365 9.78145C13.2731 9.87656 13.324 10.0132 13.3964 10.044C13.2797 10.109 13.0584 10.2067 12.8835 10.1303C12.6343 10.0216 12.7782 9.80569 12.8337 9.70898C12.9311 9.53906 12.87 9.26044 12.5437 9.26044C12.3262 9.26044 12.2175 9.47794 12 9.47794C11.7826 9.47794 11.6738 9.26044 11.4564 9.26044C11.1302 9.26044 11.069 9.53906 11.1664 9.70898C11.2219 9.80564 11.3658 10.0216 11.1166 10.1303C10.9417 10.2067 10.7204 10.109 10.6037 10.044C10.6761 10.0133 10.727 9.87661 10.6635 9.78145C10.5173 9.56212 10.0809 9.639 9.85256 9.79955C9.44025 10.0895 9.66685 10.5018 9.86616 10.674C9.9735 10.7667 9.97463 10.8525 9.96516 10.8986C9.93732 10.8587 9.89128 10.8325 9.83902 10.8325C9.75394 10.8325 9.68499 10.9015 9.68499 10.9866C9.68499 10.9932 9.68611 10.9996 9.68696 11.0061C9.45488 10.9041 9.07655 11.1591 9.05977 11.6209C9.04791 11.9465 9.27731 12.1206 9.43814 12.2027C9.37725 12.2241 9.33333 12.2814 9.33333 12.3495C9.33333 12.4358 9.40327 12.5057 9.48952 12.5057C9.52561 12.5057 9.55842 12.493 9.58491 12.4724C9.78061 12.8078 9.58561 13.0453 9.47794 13.141C9.45478 13.1326 9.43008 13.1272 9.40402 13.1272C9.28392 13.1272 9.18652 13.2246 9.18652 13.3447C9.18652 13.4575 9.27263 13.5491 9.38255 13.5601C9.23264 13.7141 9.09816 14.0535 9.39042 14.439C9.70983 14.8603 10.471 14.8263 10.838 14.8399C11.0707 14.8485 11.2457 14.969 11.3429 15.0562C11.2808 15.0945 11.2389 15.1625 11.2389 15.2408C11.2389 15.3507 11.3206 15.4405 11.4264 15.4553C11.4649 15.5168 11.5326 15.558 11.6105 15.558C11.6975 15.558 11.772 15.5066 11.8068 15.4327C11.9216 15.5273 12.0001 15.567 12.0001 15.567C12.0001 15.567 12.0787 15.5274 12.1935 15.4327C12.2283 15.5065 12.3028 15.558 12.3898 15.558C12.4677 15.558 12.5354 15.5168 12.5738 15.4553C12.6796 15.4405 12.7613 15.3507 12.7613 15.2408C12.7613 15.1625 12.7195 15.0944 12.6574 15.0562C12.7545 14.969 12.9296 14.8485 13.1623 14.8399C13.5293 14.8263 14.2905 14.8603 14.6099 14.439C14.9021 14.0535 14.7676 13.714 14.6177 13.5601C14.7275 13.5491 14.8136 13.4575 14.8136 13.3447Z" fill="#DCBE82"/>
<path d="M10.0427 10.5515V13.7049C10.0427 14.0653 10.3348 14.3574 10.6952 14.3574H11.5651C11.8913 14.3574 12 14.5749 12 14.5749C12 14.5749 12.1087 14.3574 12.435 14.3574H13.3049C13.6652 14.3574 13.9573 14.0653 13.9573 13.7049V10.5515C13.9573 10.4915 13.9087 10.4428 13.8486 10.4428H10.1516C10.0914 10.4428 10.0427 10.4915 10.0427 10.5515Z" fill="#D2AA73"/>
<path d="M11.8911 10.6602H10.26V12.2912H11.8911V10.6602Z" fill="#FF4B55"/>
<path d="M11.8913 14.1399C10.9905 14.1399 10.2603 13.4097 10.2603 12.5088H11.8913V14.1399Z" fill="#FF4B55"/>
<path d="M12.1088 14.1399V12.5088H13.7398C13.7398 13.4096 13.0095 14.1399 12.1088 14.1399Z" fill="#FFE15A"/>
<path d="M12.3418 10.6602H12.1088V12.2912H12.3418V10.6602Z" fill="#FFE15A"/>
<path d="M12.5747 10.6602H12.3417V12.2912H12.5747V10.6602Z" fill="#FF4B55"/>
<path d="M12.8077 10.6602H12.5747V12.2912H12.8077V10.6602Z" fill="#FFE15A"/>
<path d="M13.0411 10.6602H12.8081V12.2912H13.0411V10.6602Z" fill="#FF4B55"/>
<path d="M13.2737 10.6602H13.0406V12.2912H13.2737V10.6602Z" fill="#FFE15A"/>
<path d="M13.7396 10.6602H13.5066V12.2912H13.7396V10.6602Z" fill="#FFE15A"/>
<path d="M13.5071 10.6602H13.274V12.2912H13.5071V10.6602Z" fill="#FF4B55"/>
<path d="M10.9849 12.5089H10.8037V14.14H10.9849V12.5089Z" fill="#FF4B55"/>
<path d="M11.1663 12.5089H10.9851V14.14H11.1663V12.5089Z" fill="#FFE15A"/>
<path d="M11.5291 12.5089H11.3479V14.14H11.5291V12.5089Z" fill="#FFE15A"/>
<path d="M11.3474 12.5089H11.1661V14.14H11.3474V12.5089Z" fill="#FF4B55"/>
<path d="M11.8911 12.5089H11.7098V14.14H11.8911V12.5089Z" fill="#FFE15A"/>
<path d="M11.7101 12.5089H11.5289V14.14H11.7101V12.5089Z" fill="#FF4B55"/>
<path d="M10.4414 14.0569V12.5088H10.2601V13.7049C10.2601 13.8501 10.332 13.9779 10.4414 14.0569Z" fill="#FFE15A"/>
<path d="M10.6226 14.1326V12.5088H10.4414V14.0569C10.4942 14.095 10.5556 14.1213 10.6226 14.1326Z" fill="#FF4B55"/>
<path d="M10.6227 12.5088V14.1326C10.6464 14.1366 10.6703 14.1399 10.6952 14.1399H10.8039V12.5089L10.6227 12.5088Z" fill="#FFE15A"/>
<path d="M10.5033 12.1987C10.4952 12.1987 10.487 12.1964 10.4797 12.1917C10.3728 12.1209 10.3665 12.0472 10.3724 12.0096C10.3802 11.9588 10.418 11.9167 10.4686 11.9022C10.5168 11.8886 10.5649 11.9028 10.5974 11.9406C10.6649 12.019 10.7346 12.0499 10.7932 12.0282C10.8397 12.011 10.8674 11.9652 10.8674 11.931C10.8674 11.9073 10.8865 11.8882 10.9102 11.8882C10.934 11.8882 10.9531 11.9073 10.9531 11.931C10.9531 12.0059 10.8984 12.0806 10.8231 12.1085C10.768 12.1289 10.6572 12.1414 10.5324 11.9964C10.519 11.981 10.5033 11.9814 10.4921 11.9845C10.4769 11.9889 10.4601 12.0024 10.457 12.0226C10.4525 12.0521 10.478 12.0877 10.5269 12.1201C10.5467 12.1332 10.5521 12.1598 10.539 12.1795C10.5308 12.1919 10.5172 12.1987 10.5033 12.1987Z" fill="#F5F5F5"/>
<path d="M11.6533 12.1987C11.6394 12.1987 11.6257 12.1919 11.6175 12.1796C11.6045 12.1598 11.6099 12.1333 11.6296 12.1202C11.6786 12.0877 11.7041 12.0522 11.6996 12.0227C11.6964 12.0025 11.6796 11.989 11.6645 11.9846C11.6533 11.9815 11.6375 11.981 11.6241 11.9965C11.4994 12.1416 11.3886 12.129 11.3335 12.1086C11.2581 12.0807 11.2035 12.0059 11.2035 11.9311C11.2035 11.9074 11.2226 11.8882 11.2463 11.8882C11.27 11.8882 11.2892 11.9074 11.2892 11.9311C11.2892 11.9653 11.3169 12.0111 11.3633 12.0283C11.422 12.0501 11.4918 12.0191 11.5592 11.9407C11.5917 11.9027 11.6398 11.8886 11.6879 11.9023C11.7386 11.9167 11.7764 11.9589 11.7842 12.0097C11.79 12.0472 11.7838 12.121 11.6769 12.1918C11.6696 12.1964 11.6614 12.1987 11.6533 12.1987Z" fill="#F5F5F5"/>
<path d="M10.4797 12.2496C10.4707 12.2496 10.4616 12.2467 10.4538 12.2409C10.4349 12.2265 10.4313 12.1997 10.4456 12.1808L11.3768 10.9565C11.3857 10.9404 11.389 10.9182 11.3929 10.8925C11.4001 10.8444 11.4091 10.7846 11.4825 10.7404C11.5303 10.7117 11.5871 10.7125 11.6346 10.7429C11.687 10.7763 11.7179 10.8387 11.7115 10.898C11.7076 10.934 11.6866 10.9998 11.5891 11.0359C11.5667 11.0442 11.5422 11.0328 11.534 11.0107C11.5258 10.9885 11.5371 10.9638 11.5592 10.9557C11.5877 10.9451 11.6224 10.925 11.6263 10.8889C11.6292 10.8615 11.6137 10.8313 11.5884 10.8151C11.5743 10.806 11.5521 10.7983 11.5266 10.8139C11.4877 10.8372 11.4839 10.8628 11.4775 10.9052C11.473 10.9353 11.4679 10.9693 11.4478 11.004L10.5137 12.2327C10.5054 12.2438 10.4926 12.2496 10.4797 12.2496Z" fill="#FFE15A"/>
<path d="M11.0817 10.9029L10.6533 11.417L10.8246 11.931H11.3387L11.51 11.417L11.0817 10.9029Z" fill="#FFE15A"/>
<path d="M11.0816 10.836L10.6051 11.4078L10.7937 11.9738H11.3694L11.5581 11.4078L11.0816 10.836ZM10.7014 11.4261L11.0388 11.0212V11.8881H10.8555L10.7014 11.4261ZM11.3078 11.8882H11.1244V11.0213L11.4618 11.4261L11.3078 11.8882Z" fill="#F5F5F5"/>
<path d="M13.3387 13.0238L13.3452 12.9288C13.3452 12.9288 13.4295 12.8683 13.3884 12.8122C13.3474 12.756 13.2998 12.7452 13.2005 12.7582C13.1011 12.7711 12.9456 12.769 12.8786 12.7733C12.8116 12.7776 12.7771 12.8143 12.6712 12.7841L12.6993 12.7193C12.6993 12.7193 12.6497 12.7236 12.6194 12.7387C12.6029 12.747 12.5632 12.6933 12.5244 12.702C12.4857 12.7106 12.4467 12.7905 12.3861 12.8316L12.4185 12.8964C12.4185 12.8964 12.4552 12.8791 12.4833 12.8986C12.5114 12.918 12.52 12.931 12.5676 12.931L12.5979 12.944C12.5979 12.944 12.5871 13.0131 12.6324 13.0455C12.6324 13.0455 12.5806 13.1125 12.5871 13.1232C12.5935 13.134 12.6367 13.2161 12.654 13.2636L12.693 13.1902C12.693 13.1902 12.6346 13.1383 12.6454 13.1318C12.6562 13.1253 12.6951 13.1167 12.6886 13.0994C12.6821 13.0821 12.7189 13.1016 12.7599 13.108C12.7599 13.108 12.762 13.1729 12.7707 13.1815C12.7794 13.1901 12.7923 13.2247 12.7902 13.2614C12.788 13.2981 12.7556 13.3089 12.7556 13.3089L12.814 13.3262C12.814 13.3262 12.8291 13.3046 12.8399 13.3068C12.8399 13.3068 12.8355 13.1275 12.8594 13.0994C12.8594 13.0994 12.9997 13.1275 13.0645 13.0929C13.0645 13.0929 13.0728 13.1034 13.089 13.1133C13.0825 13.1284 13.077 13.1434 13.0795 13.1478C13.0849 13.1576 13.1023 13.1565 13.1066 13.1456C13.1082 13.1415 13.1107 13.1332 13.1133 13.1245C13.1211 13.1271 13.1297 13.1291 13.1395 13.1301C13.1385 13.1437 13.1385 13.1563 13.1416 13.1592C13.1497 13.1667 13.1659 13.1603 13.1667 13.1486C13.167 13.1448 13.1668 13.1377 13.1666 13.13C13.1777 13.129 13.1896 13.1271 13.2028 13.1232L13.1293 13.2442L13.0926 13.2593L13.1401 13.283L13.1833 13.2657C13.1833 13.2657 13.2243 13.162 13.2913 13.1318C13.2913 13.1318 13.3367 13.2398 13.2805 13.2982L13.3301 13.3262L13.3539 13.2765C13.3539 13.2765 13.3453 13.1794 13.3777 13.1167L13.3387 13.0238Z" fill="#FF4B55"/>
<path d="M12.5254 12.7151C12.5254 12.7151 12.5038 12.6945 12.4983 12.6674C12.4929 12.6403 12.4864 12.6284 12.4625 12.6208C12.4625 12.6208 12.4777 12.6382 12.4756 12.6652C12.4734 12.6923 12.4756 12.7292 12.4907 12.7411L12.5254 12.7151Z" fill="#4173CD"/>
<path d="M12.714 12.7915C12.714 12.7915 12.6846 12.8918 12.5979 12.9439L12.5677 12.9309C12.5677 12.9309 12.6602 12.8519 12.6714 12.784L12.714 12.7915Z" fill="#4173CD"/>
<path d="M12.5666 12.7389C12.5635 12.7358 12.6045 12.7238 12.5947 12.6913C12.5849 12.6587 12.5849 12.6349 12.6045 12.6197C12.6045 12.6197 12.6067 12.6468 12.6219 12.6642C12.637 12.6815 12.6457 12.7249 12.6208 12.7498C12.6208 12.7498 12.5958 12.7693 12.5666 12.7389Z" fill="#4173CD"/>
<path d="M12.5713 13.0345C12.5661 13.032 12.5639 13.0257 12.5665 13.0205L12.5796 12.9939C12.5872 12.9783 12.5821 12.9589 12.5671 12.9502C12.5505 12.9407 12.5297 12.9473 12.5215 12.9641L12.5079 12.9917C12.5054 12.9969 12.499 12.9991 12.4939 12.9965L12.4857 13.0131C12.4857 13.0131 12.4977 13.019 12.5122 13.0261L12.5119 13.0268C12.5086 13.0335 12.5114 13.0416 12.5181 13.0449C12.5248 13.0482 12.533 13.0454 12.5362 13.0387L12.5366 13.0381C12.5511 13.0452 12.5631 13.0511 12.5631 13.0511L12.5713 13.0345Z" fill="#4173CD"/>
<path d="M12.6762 13.2171L12.7087 13.2236L12.6815 13.3071L12.6542 13.2635L12.6762 13.2171Z" fill="#4173CD"/>
<path d="M12.7557 13.3089L12.7358 13.344H12.8139L12.814 13.3262L12.7557 13.3089Z" fill="#4173CD"/>
<path d="M13.1401 13.283V13.3038H13.0515L13.0944 13.261L13.1401 13.283Z" fill="#4173CD"/>
<path d="M13.2806 13.2981L13.2368 13.3419H13.3289L13.3302 13.3262L13.2806 13.2981Z" fill="#4173CD"/>
<path d="M13.3387 13.7006L13.3452 13.6056C13.3452 13.6056 13.4295 13.5451 13.3884 13.4889C13.3474 13.4328 13.2998 13.422 13.2005 13.4349C13.1011 13.4479 12.9456 13.4458 12.8786 13.45C12.8116 13.4544 12.7771 13.491 12.6712 13.4609L12.6993 13.396C12.6993 13.396 12.6497 13.4004 12.6194 13.4155C12.6029 13.4238 12.5632 13.3701 12.5244 13.3788C12.4857 13.3874 12.4467 13.4673 12.3861 13.5084L12.4185 13.5732C12.4185 13.5732 12.4552 13.5559 12.4833 13.5754C12.5114 13.5948 12.52 13.6078 12.5676 13.6078L12.5979 13.6208C12.5979 13.6208 12.5871 13.6898 12.6324 13.7223C12.6324 13.7223 12.5806 13.7893 12.5871 13.8C12.5935 13.8108 12.6367 13.8929 12.654 13.9404L12.693 13.8669C12.693 13.8669 12.6346 13.8151 12.6454 13.8086C12.6562 13.8021 12.6951 13.7935 12.6886 13.7762C12.6821 13.7589 12.7189 13.7783 12.7599 13.7848C12.7599 13.7848 12.762 13.8496 12.7707 13.8583C12.7794 13.8669 12.7923 13.9014 12.7902 13.9382C12.788 13.9749 12.7556 13.9857 12.7556 13.9857L12.814 14.003C12.814 14.003 12.8291 13.9814 12.8399 13.9836C12.8399 13.9836 12.8355 13.8043 12.8594 13.7762C12.8594 13.7762 12.9997 13.8043 13.0645 13.7697C13.0645 13.7697 13.0728 13.7802 13.089 13.7901C13.0825 13.8052 13.077 13.8202 13.0795 13.8246C13.0849 13.8344 13.1023 13.8332 13.1066 13.8224C13.1082 13.8183 13.1107 13.8099 13.1133 13.8013C13.1211 13.8038 13.1297 13.8059 13.1395 13.8068C13.1385 13.8205 13.1385 13.833 13.1416 13.836C13.1497 13.8435 13.1659 13.8371 13.1667 13.8254C13.167 13.8216 13.1668 13.8144 13.1666 13.8068C13.1777 13.8058 13.1896 13.8038 13.2028 13.8L13.1293 13.9209L13.0926 13.936L13.1401 13.9598L13.1833 13.9425C13.1833 13.9425 13.2243 13.8388 13.2913 13.8086C13.2913 13.8086 13.3367 13.9166 13.2805 13.9749L13.3301 14.003L13.3539 13.9533C13.3539 13.9533 13.3453 13.8562 13.3777 13.7935L13.3387 13.7006Z" fill="#FF4B55"/>
<path d="M12.5254 13.3919C12.5254 13.3919 12.5038 13.3713 12.4983 13.3442C12.4929 13.3171 12.4864 13.3052 12.4625 13.2976C12.4625 13.2976 12.4777 13.315 12.4756 13.3421C12.4734 13.3692 12.4756 13.4061 12.4907 13.418L12.5254 13.3919Z" fill="#4173CD"/>
<path d="M12.7141 13.4684C12.7141 13.4684 12.6847 13.5686 12.598 13.6207L12.5677 13.6077C12.5677 13.6077 12.6602 13.5287 12.6714 13.4608L12.7141 13.4684Z" fill="#4173CD"/>
<path d="M12.5666 13.4158C12.5635 13.4126 12.6045 13.4006 12.5947 13.3681C12.5849 13.3356 12.5849 13.3117 12.6045 13.2966C12.6045 13.2966 12.6067 13.3237 12.6219 13.341C12.637 13.3583 12.6457 13.4017 12.6208 13.4266C12.6208 13.4266 12.5958 13.4461 12.5666 13.4158Z" fill="#4173CD"/>
<path d="M12.5713 13.7114C12.5661 13.7088 12.5639 13.7025 12.5665 13.6973L12.5796 13.6707C12.5872 13.6551 12.5821 13.6357 12.5671 13.627C12.5505 13.6175 12.5297 13.6241 12.5215 13.6409L12.5079 13.6686C12.5054 13.6737 12.499 13.6759 12.4939 13.6733L12.4857 13.6899C12.4857 13.6899 12.4977 13.6958 12.5122 13.703L12.5119 13.7036C12.5086 13.7103 12.5114 13.7184 12.5181 13.7217C12.5248 13.725 12.533 13.7222 12.5362 13.7155L12.5366 13.7149C12.5511 13.722 12.5631 13.728 12.5631 13.728L12.5713 13.7114Z" fill="#4173CD"/>
<path d="M12.6762 13.8939L12.7087 13.9004L12.6815 13.9839L12.6542 13.9403L12.6762 13.8939Z" fill="#4173CD"/>
<path d="M12.7557 13.9857L12.7358 14.0208H12.8139L12.814 14.003L12.7557 13.9857Z" fill="#4173CD"/>
<path d="M13.1401 13.9598V13.9807H13.0515L13.0944 13.9378L13.1401 13.9598Z" fill="#4173CD"/>
<path d="M13.2806 13.9749L13.2368 14.0187H13.3289L13.3302 14.003L13.2806 13.9749Z" fill="#4173CD"/>
</g>
<defs>
<clipPath id="clip0_2058_8278">
<rect width="24" height="24" fill="white"/>
</clipPath>
</defs>
</svg>
