<svg width="24" height="24" viewBox="0 0 24 24" fill="none" xmlns="http://www.w3.org/2000/svg">
<g clip-path="url(#clip0_2058_9982)">
<path d="M8.00002 19.8619H0.413813C0.185297 19.8619 0 19.6766 0 19.4481V4.55157C0 4.32305 0.185297 4.13776 0.413813 4.13776H8.00002V19.8619Z" fill="#82AFFF"/>
<path d="M16.0003 4.13797H8.00012V19.8622H16.0003V4.13797Z" fill="#F5F5F5"/>
<path d="M23.5862 19.8619H16V4.13779H23.5862C23.8147 4.13779 24 4.32308 24 4.5516V19.4481C24 19.6767 23.8147 19.8619 23.5862 19.8619Z" fill="#82AFFF"/>
<path d="M11.8956 9.9425L11.6583 10.0612L11.8766 10.1513L11.8956 9.9425Z" fill="#FFC855"/>
<path d="M12 14.3273C10.6812 14.3273 9.60828 13.2544 9.60828 11.9356C9.60828 11.1164 10.0206 10.3631 10.7113 9.92053L10.7727 10.0164C10.1149 10.438 9.72218 11.1555 9.72218 11.9356C9.72218 13.1917 10.7441 14.2135 12 14.2135L12 14.3273Z" fill="#73AF00"/>
<path d="M10.6311 14.4766C10.7222 14.4951 10.8628 14.4711 11.0072 14.4038C11.1516 14.3365 11.2604 14.2444 11.3048 14.1627C11.2137 14.1441 11.0731 14.1682 10.9287 14.2354C10.7844 14.3027 10.6755 14.3948 10.6311 14.4766Z" fill="#73AF00"/>
<path d="M11.3049 14.1627C11.3235 14.0716 11.2994 13.931 11.2322 13.7866C11.1649 13.6422 11.0727 13.5334 10.991 13.489C10.9725 13.5801 10.9965 13.7207 11.0637 13.8651C11.131 14.0094 11.2232 14.1182 11.3049 14.1627Z" fill="#73AF00"/>
<path d="M10.1547 14.1841C10.2421 14.2159 10.3847 14.2127 10.5374 14.1674C10.69 14.1221 10.8112 14.0468 10.8672 13.9725C10.7797 13.9408 10.6371 13.944 10.4845 13.9892C10.3318 14.0346 10.2106 14.1097 10.1547 14.1841Z" fill="#73AF00"/>
<path d="M10.8672 13.9724C10.899 13.885 10.8958 13.7424 10.8505 13.5898C10.8052 13.437 10.73 13.3159 10.6557 13.2599C10.6239 13.3474 10.6271 13.49 10.6724 13.6426C10.7177 13.7954 10.7929 13.9166 10.8672 13.9724Z" fill="#73AF00"/>
<path d="M9.71399 13.7853C9.79429 13.8322 9.9351 13.8547 10.0935 13.8376C10.2519 13.8204 10.3846 13.7681 10.4529 13.7051C10.3726 13.6582 10.2318 13.6356 10.0734 13.6528C9.91504 13.6699 9.78233 13.7222 9.71399 13.7853Z" fill="#73AF00"/>
<path d="M10.4529 13.7051C10.4998 13.6248 10.5224 13.484 10.5052 13.3256C10.488 13.1672 10.4358 13.0345 10.3727 12.9661C10.3258 13.0464 10.3033 13.1872 10.3204 13.3456C10.3376 13.504 10.3898 13.6368 10.4529 13.7051Z" fill="#73AF00"/>
<path d="M9.34961 13.2345C9.4203 13.2949 9.55492 13.342 9.71383 13.3531C9.87273 13.3643 10.0127 13.3364 10.091 13.2864C10.0203 13.226 9.88572 13.1789 9.72681 13.1678C9.56791 13.1567 9.42803 13.1846 9.34961 13.2345Z" fill="#73AF00"/>
<path d="M10.091 13.2864C10.1514 13.2157 10.1985 13.0811 10.2096 12.9222C10.2207 12.7633 10.1929 12.6234 10.1429 12.545C10.0825 12.6157 10.0354 12.7503 10.0243 12.9092C10.0131 13.0682 10.041 13.208 10.091 13.2864Z" fill="#73AF00"/>
<path d="M9.13635 12.6279C9.19279 12.7018 9.31443 12.7762 9.46748 12.8205C9.62052 12.8648 9.76307 12.867 9.85031 12.8346C9.79387 12.7607 9.67223 12.6863 9.51918 12.642C9.36613 12.5977 9.22354 12.5955 9.13635 12.6279Z" fill="#73AF00"/>
<path d="M9.85024 12.8346C9.92416 12.7782 9.99855 12.6565 10.0428 12.5035C10.0872 12.3504 10.0893 12.2079 10.057 12.1206C9.98304 12.1771 9.90864 12.2987 9.86435 12.4518C9.82005 12.6049 9.81794 12.7474 9.85024 12.8346Z" fill="#73AF00"/>
<path d="M9.04602 11.9195C9.08155 12.0055 9.17999 12.1086 9.31649 12.1908C9.45299 12.273 9.59019 12.3117 9.68282 12.3029C9.64729 12.2169 9.54885 12.1138 9.41235 12.0316C9.2759 11.9494 9.1386 11.9107 9.04602 11.9195Z" fill="#73AF00"/>
<path d="M9.68288 12.3029C9.76885 12.2674 9.87197 12.1689 9.95419 12.0324C10.0364 11.8959 10.0751 11.7587 10.0663 11.6661C9.9803 11.7016 9.87718 11.8001 9.79496 11.9366C9.71283 12.0731 9.67402 12.2103 9.68288 12.3029Z" fill="#73AF00"/>
<path d="M9.13159 11.2507C9.14828 11.3422 9.22295 11.4637 9.33915 11.5727C9.45536 11.6817 9.5815 11.7483 9.67379 11.7591C9.65711 11.6676 9.58244 11.5461 9.46623 11.4372C9.35003 11.3282 9.22398 11.2615 9.13159 11.2507Z" fill="#73AF00"/>
<path d="M9.67383 11.7592C9.76533 11.7425 9.88683 11.6678 9.99581 11.5516C10.1048 11.4354 10.1714 11.3093 10.1822 11.217C10.0907 11.2337 9.96923 11.3083 9.86025 11.4245C9.75127 11.5407 9.68456 11.6667 9.67383 11.7592Z" fill="#73AF00"/>
<path d="M9.46754 10.5271C9.44842 10.6181 9.47153 10.7588 9.5379 10.9037C9.60428 11.0485 9.69578 11.1579 9.7772 11.2028C9.79632 11.1118 9.77321 10.9711 9.70684 10.8263C9.64046 10.6814 9.54896 10.572 9.46754 10.5271Z" fill="#73AF00"/>
<path d="M9.77722 11.2028C9.86821 11.222 10.0089 11.1988 10.1538 11.1325C10.2986 11.0661 10.408 10.9746 10.4529 10.8932C10.3619 10.874 10.2212 10.8972 10.0764 10.9635C9.93153 11.0299 9.82213 11.1214 9.77722 11.2028Z" fill="#73AF00"/>
<path d="M9.86929 9.99121C9.8264 10.0737 9.81083 10.2155 9.83582 10.3728C9.8608 10.5302 9.91949 10.6602 9.98586 10.7253C10.0288 10.6428 10.0443 10.501 10.0193 10.3437C9.99435 10.1864 9.93561 10.0564 9.86929 9.99121Z" fill="#73AF00"/>
<path d="M9.98596 10.7253C10.0685 10.7682 10.2103 10.7838 10.3676 10.7588C10.5249 10.7338 10.6549 10.6751 10.72 10.6087C10.6375 10.5658 10.4957 10.5503 10.3384 10.5753C10.1811 10.6002 10.0511 10.6589 9.98596 10.7253Z" fill="#73AF00"/>
<path d="M10.2633 9.61823C10.2087 9.69355 10.1725 9.83141 10.174 9.99074C10.1755 10.1501 10.2145 10.2872 10.2705 10.3614C10.3251 10.2861 10.3614 10.1482 10.3598 9.98891C10.3583 9.82963 10.3194 9.69238 10.2633 9.61823Z" fill="#73AF00"/>
<path d="M10.2705 10.3614C10.3458 10.416 10.4837 10.4523 10.643 10.4507C10.8024 10.4492 10.9395 10.4102 11.0137 10.3542C10.9384 10.2996 10.8005 10.2634 10.6412 10.2649C10.4819 10.2665 10.3448 10.3055 10.2705 10.3614Z" fill="#73AF00"/>
<path d="M10.4617 10.166C10.5543 10.1735 10.6911 10.1329 10.8264 10.0488C10.9617 9.96467 11.0587 9.86014 11.093 9.77371C11.0003 9.76621 10.8636 9.80685 10.7283 9.89099C10.593 9.97503 10.496 10.0796 10.4617 10.166Z" fill="#73AF00"/>
<path d="M12 14.3273V14.2134C13.256 14.2134 14.2778 13.1916 14.2778 11.9356C14.2778 11.1554 13.8851 10.4379 13.2273 10.0164L13.2887 9.92047C13.9794 10.363 14.3917 11.1163 14.3917 11.9356C14.3917 13.2543 13.3188 14.3273 12 14.3273Z" fill="#73AF00"/>
<path d="M13.3689 14.4766C13.2778 14.4951 13.1372 14.4711 12.9928 14.4038C12.8484 14.3365 12.7396 14.2444 12.6952 14.1627C12.7863 14.1441 12.9269 14.1682 13.0713 14.2354C13.2156 14.3027 13.3244 14.3948 13.3689 14.4766Z" fill="#73AF00"/>
<path d="M12.695 14.1627C12.6765 14.0716 12.7005 13.931 12.7677 13.7866C12.835 13.6422 12.9272 13.5334 13.0089 13.489C13.0275 13.5801 13.0034 13.7207 12.9362 13.8651C12.8689 14.0094 12.7768 14.1182 12.695 14.1627Z" fill="#73AF00"/>
<path d="M13.8453 14.1841C13.7579 14.2159 13.6153 14.2127 13.4626 14.1674C13.31 14.1221 13.1887 14.0468 13.1328 13.9725C13.2202 13.9408 13.3628 13.944 13.5155 13.9892C13.6682 14.0346 13.7894 14.1097 13.8453 14.1841Z" fill="#73AF00"/>
<path d="M13.1327 13.9724C13.101 13.885 13.1041 13.7424 13.1494 13.5898C13.1948 13.437 13.27 13.3159 13.3443 13.2599C13.376 13.3474 13.3729 13.49 13.3276 13.6426C13.2823 13.7954 13.2071 13.9166 13.1327 13.9724Z" fill="#73AF00"/>
<path d="M14.2861 13.7853C14.2058 13.8322 14.0649 13.8547 13.9066 13.8376C13.7482 13.8204 13.6155 13.7681 13.5471 13.7051C13.6274 13.6582 13.7682 13.6356 13.9266 13.6528C14.085 13.6699 14.2177 13.7222 14.2861 13.7853Z" fill="#73AF00"/>
<path d="M13.5471 13.7051C13.5001 13.6248 13.4776 13.484 13.4947 13.3256C13.5119 13.1672 13.5642 13.0345 13.6272 12.9661C13.6741 13.0464 13.6967 13.1872 13.6795 13.3456C13.6624 13.504 13.6101 13.6368 13.5471 13.7051Z" fill="#73AF00"/>
<path d="M14.6504 13.2345C14.5797 13.2949 14.445 13.342 14.2861 13.3531C14.1272 13.3643 13.9874 13.3364 13.9089 13.2864C13.9796 13.226 14.1142 13.1789 14.2732 13.1678C14.4321 13.1567 14.5719 13.1846 14.6504 13.2345Z" fill="#73AF00"/>
<path d="M13.9089 13.2864C13.8485 13.2157 13.8014 13.0811 13.7903 12.9222C13.7792 12.7633 13.807 12.6234 13.857 12.545C13.9174 12.6157 13.9645 12.7503 13.9756 12.9092C13.9868 13.0682 13.9589 13.208 13.9089 13.2864Z" fill="#73AF00"/>
<path d="M14.8637 12.6279C14.8073 12.7018 14.6857 12.7762 14.5326 12.8205C14.3796 12.8648 14.237 12.867 14.1498 12.8346C14.2062 12.7607 14.3279 12.6863 14.4809 12.642C14.634 12.5977 14.7765 12.5955 14.8637 12.6279Z" fill="#73AF00"/>
<path d="M14.1498 12.8346C14.0758 12.7782 14.0015 12.6565 13.9572 12.5035C13.9128 12.3504 13.9107 12.2079 13.943 12.1206C14.017 12.1771 14.0914 12.2987 14.1357 12.4518C14.18 12.6049 14.1821 12.7474 14.1498 12.8346Z" fill="#73AF00"/>
<path d="M14.9539 11.9195C14.9184 12.0055 14.82 12.1086 14.6835 12.1908C14.547 12.273 14.4098 12.3117 14.3171 12.3029C14.3527 12.2169 14.4511 12.1138 14.5876 12.0316C14.7241 11.9494 14.8614 11.9107 14.9539 11.9195Z" fill="#73AF00"/>
<path d="M14.3171 12.3029C14.2312 12.2674 14.128 12.1689 14.0458 12.0324C13.9636 11.8959 13.9249 11.7587 13.9337 11.6661C14.0197 11.7016 14.1228 11.8001 14.205 11.9366C14.2873 12.0731 14.326 12.2103 14.3171 12.3029Z" fill="#73AF00"/>
<path d="M14.8684 11.2507C14.8517 11.3422 14.777 11.4637 14.6608 11.5727C14.5446 11.6817 14.4185 11.7483 14.3262 11.7591C14.3429 11.6676 14.4175 11.5461 14.5337 11.4372C14.6499 11.3282 14.776 11.2615 14.8684 11.2507Z" fill="#73AF00"/>
<path d="M14.3262 11.7592C14.2347 11.7425 14.1132 11.6678 14.0042 11.5516C13.8952 11.4354 13.8286 11.3093 13.8177 11.217C13.9092 11.2337 14.0307 11.3083 14.1397 11.4245C14.2487 11.5407 14.3154 11.6667 14.3262 11.7592Z" fill="#73AF00"/>
<path d="M14.5324 10.5271C14.5516 10.6181 14.5285 10.7588 14.4621 10.9037C14.3957 11.0485 14.3042 11.1579 14.2228 11.2028C14.2037 11.1118 14.2268 10.9711 14.2932 10.8263C14.3595 10.6814 14.451 10.572 14.5324 10.5271Z" fill="#73AF00"/>
<path d="M14.2228 11.2028C14.1318 11.222 13.9911 11.1988 13.8463 11.1325C13.7014 11.0661 13.5921 10.9746 13.5471 10.8932C13.6381 10.874 13.7788 10.8972 13.9237 10.9635C14.0685 11.0299 14.1779 11.1214 14.2228 11.2028Z" fill="#73AF00"/>
<path d="M14.1306 9.99121C14.1735 10.0737 14.1891 10.2155 14.1641 10.3728C14.1391 10.5302 14.0804 10.6602 14.0141 10.7253C13.9712 10.6428 13.9556 10.501 13.9806 10.3437C14.0056 10.1864 14.0643 10.0564 14.1306 9.99121Z" fill="#73AF00"/>
<path d="M14.014 10.7253C13.9315 10.7682 13.7897 10.7838 13.6324 10.7588C13.475 10.7338 13.345 10.6751 13.2799 10.6087C13.3624 10.5658 13.5042 10.5503 13.6615 10.5753C13.8189 10.6002 13.9489 10.6589 14.014 10.7253Z" fill="#73AF00"/>
<path d="M13.7367 9.61823C13.7913 9.69355 13.8275 9.83141 13.826 9.99074C13.8245 10.1501 13.7855 10.2872 13.7295 10.3614C13.6749 10.2861 13.6386 10.1482 13.6402 9.98891C13.6417 9.82963 13.6806 9.69238 13.7367 9.61823Z" fill="#73AF00"/>
<path d="M13.7294 10.3614C13.6541 10.416 13.5162 10.4523 13.3569 10.4507C13.1976 10.4492 13.0604 10.4102 12.9862 10.3542C13.0615 10.2996 13.1994 10.2634 13.3587 10.2649C13.518 10.2665 13.6552 10.3055 13.7294 10.3614Z" fill="#73AF00"/>
<path d="M13.5383 10.166C13.4456 10.1735 13.3089 10.1329 13.1736 10.0488C13.0383 9.96467 12.9413 9.86014 12.907 9.77371C12.9997 9.76621 13.1364 9.80685 13.2717 9.89099C13.407 9.97503 13.5039 10.0796 13.5383 10.166Z" fill="#73AF00"/>
<path d="M10.6943 13.7976L10.2797 14.2122L10.0753 13.8033L10.6886 13.19L10.8931 13.3944L10.834 13.5715C10.8056 13.6568 10.7578 13.7341 10.6943 13.7976Z" fill="#966446"/>
<path d="M12.9374 10.7368L10.6887 12.9855C10.6323 13.042 10.6323 13.1335 10.6887 13.19L10.7909 13.2921L11.1998 12.8833L12.8352 11.0434L13.0396 10.8389L12.9374 10.7368Z" fill="#B9B9B9"/>
<path d="M11.2421 12.6366C11.215 12.6637 11.1997 12.7005 11.1997 12.7388V12.8833L12.8351 11.0435L11.2421 12.6366Z" fill="#966446"/>
<path d="M13.0395 10.839L12.9373 10.7368L12.8351 10.839L12.9373 10.9413L13.0395 11.0435L14.1639 9.71478L13.0395 10.839Z" fill="#A0A0A0"/>
<path d="M13.4196 13.7976L13.8341 14.2122L14.0386 13.8033L13.4252 13.19L13.2208 13.3944L13.2799 13.5715C13.3083 13.6568 13.3561 13.7341 13.4196 13.7976Z" fill="#966446"/>
<path d="M11.1766 10.7368L13.4253 12.9855C13.4817 13.042 13.4817 13.1335 13.4253 13.19L13.3231 13.2921L12.9142 12.8833L11.2788 11.0434L11.0743 10.8389L11.1766 10.7368Z" fill="#B9B9B9"/>
<path d="M12.8719 12.6366C12.8989 12.6637 12.9142 12.7005 12.9142 12.7388V12.8833L11.2788 11.0435L12.8719 12.6366Z" fill="#966446"/>
<path d="M11.0743 10.839L11.1765 10.7368L11.2788 10.839L11.1765 10.9413L11.0743 11.0435L9.94995 9.71478L11.0743 10.839Z" fill="#A0A0A0"/>
<path d="M11.2179 13.7125L11.3195 13.8052C11.6901 13.3988 12.3386 12.6878 13.3666 11.7647C13.3666 11.7647 12.515 12.2905 11.2179 13.7125Z" fill="#B9B9B9"/>
<path d="M10.9305 14.1296C10.894 14.0963 10.8915 14.0398 10.9247 14.0033L11.1424 13.7646C11.1757 13.7281 11.2322 13.7256 11.2687 13.7588C11.3051 13.7921 11.3077 13.8486 11.2745 13.8851L11.0568 14.1238C11.0235 14.1603 10.967 14.1629 10.9305 14.1296Z" fill="#FFE15A"/>
<path d="M11.1354 13.6374L11.0764 13.6637C11.024 13.6898 10.886 13.7678 10.8622 13.8791C10.8509 13.9318 10.8668 13.9831 10.9078 14.0317C10.9116 14.0216 10.9169 14.0119 10.9247 14.0035L10.9521 13.9734C10.9336 13.9465 10.9237 13.9201 10.9293 13.8936C10.9442 13.824 11.037 13.7619 11.0954 13.7311L11.3562 13.969L11.421 13.8979L11.1354 13.6374Z" fill="#FFC855"/>
<path d="M12.895 13.825L12.7934 13.9176C12.4228 13.5113 11.7743 12.8003 10.7462 11.8772C10.7462 11.8772 11.5979 12.4029 12.895 13.825Z" fill="#B9B9B9"/>
<path d="M13.1824 14.2421C13.2188 14.2088 13.2214 14.1523 13.1882 14.1158L12.9705 13.8772C12.9372 13.8407 12.8807 13.8381 12.8442 13.8713C12.8077 13.9046 12.8052 13.9612 12.8384 13.9976L13.0561 14.2363C13.0894 14.2728 13.1459 14.2754 13.1824 14.2421Z" fill="#FFE15A"/>
<path d="M12.9774 13.7498L13.0364 13.7761C13.0889 13.8022 13.2269 13.8802 13.2506 13.9915C13.262 14.0442 13.246 14.0955 13.2051 14.1441C13.2012 14.134 13.1959 14.1243 13.1881 14.1159L13.1607 14.0858C13.1792 14.0589 13.1891 14.0325 13.1835 14.006C13.1686 13.9364 13.0758 13.8743 13.0175 13.8435L12.7566 14.0814L12.6918 14.0103L12.9774 13.7498Z" fill="#FFC855"/>
<path d="M12.1013 10.0633C12.1093 10.0435 12.1139 10.0221 12.1139 9.99947C12.1139 9.90511 12.0374 9.82861 11.9431 9.82861C11.8487 9.82861 11.7722 9.90511 11.7722 9.99947C11.7722 10.0557 11.7997 10.1051 11.8417 10.1363C11.7799 10.6325 12.2691 10.6704 12.4556 10.7398C12.7384 10.845 13.0932 11.0579 13.0709 11.6531C13.0492 12.2316 12.6834 12.7898 12.6834 12.7898L12.9871 12.377C12.876 12.8467 12.6167 13.445 12 14.1565C12 14.1565 12.4217 13.744 12.7735 13.2121C12.5146 13.8212 12.2278 14.3843 12.2278 14.3843C12.2278 14.3843 12.7356 13.7246 13.1461 12.5834C13.6437 11.1997 12.5969 10.3684 12.1013 10.0633Z" fill="#69B469"/>
<path d="M11.6587 12.1063H11.2031V12.3341H11.6587V12.1063Z" fill="#F4E08F"/>
<path d="M11.2032 12.5619C11.329 12.5619 11.431 12.46 11.431 12.3341C11.431 12.2083 11.329 12.1063 11.2032 12.1063C11.0773 12.1063 10.9753 12.2083 10.9753 12.3341C10.9753 12.46 11.0773 12.5619 11.2032 12.5619Z" fill="#ECD077"/>
<path d="M11.2032 11.0816C11.329 11.0816 11.431 10.9796 11.431 10.8538C11.431 10.728 11.329 10.626 11.2032 10.626C11.0773 10.626 10.9753 10.728 10.9753 10.8538C10.9753 10.9796 11.0773 11.0816 11.2032 11.0816Z" fill="#ECD077"/>
<path d="M12.5695 11.0814C12.6953 11.0814 12.7973 10.9794 12.7973 10.8536C12.7973 10.7278 12.6953 10.6258 12.5695 10.6258H11.2028C11.3286 10.6258 11.4306 10.7278 11.4306 10.8536C11.4306 10.9794 11.3286 11.0814 11.2028 11.0814C11.077 11.0814 10.975 10.9794 10.975 10.8536C10.975 11.236 11.2949 11.6983 11.3981 12.1065C11.3981 12.1065 11.4306 12.2085 11.4306 12.3343C11.4306 12.4601 11.3286 12.5621 11.2027 12.5621H12.5694C12.6952 12.5621 12.7972 12.4601 12.7972 12.3343C12.7972 11.9519 12.4773 11.4896 12.3741 11.0814H12.5695Z" fill="#FCF0A8"/>
<path d="M11.4306 10.8537C11.4306 10.9795 11.3286 11.0815 11.2028 11.0815H12.5694C12.6953 11.0815 12.7973 10.9795 12.7973 10.8537H11.4306Z" fill="#F4E08F"/>
<path d="M11.4306 12.3342C11.4306 12.46 11.3286 12.562 11.2028 12.562H12.5694C12.6953 12.562 12.7973 12.46 12.7973 12.3342H11.4306Z" fill="#F4E08F"/>
</g>
<defs>
<clipPath id="clip0_2058_9982">
<rect width="24" height="24" fill="white"/>
</clipPath>
</defs>
</svg>
