<svg width="24" height="24" viewBox="0 0 24 24" fill="none" xmlns="http://www.w3.org/2000/svg">
<path d="M23.5861 19.8621H0.413812C0.185297 19.8621 0 19.6768 0 19.4483V4.55175C0 4.32324 0.185297 4.13794 0.413812 4.13794H23.5862C23.8147 4.13794 24 4.32324 24 4.55175V19.4483C24 19.6768 23.8147 19.8621 23.5861 19.8621Z" fill="#82AFFF"/>
<path d="M11.5862 12H0.413812C0.185297 12 0 11.8147 0 11.5862V4.55175C0 4.32324 0.185297 4.13794 0.413812 4.13794H11.5862C11.8147 4.13794 12 4.32324 12 4.55175V11.5862C12 11.8147 11.8147 12 11.5862 12Z" fill="#41479B"/>
<path d="M11.5862 4.13797H10.8674L7.03442 6.64925V4.13797H4.96546V6.64925L1.1325 4.13797H0.413812C0.185297 4.13797 0 4.32322 0 4.55173V4.87995L3.28851 7.03446H0V9.10343H3.28851L0 11.258V11.5862C0 11.8147 0.185297 12 0.413812 12H1.13259L4.96555 9.48874V12H7.03452V9.48874L10.8674 12H11.5862C11.8147 12 12 11.8147 12 11.5862V11.258L8.71151 9.10348H12V7.03451H8.71147L12 4.88V4.55178C12 4.32322 11.8147 4.13797 11.5862 4.13797Z" fill="#F5F5F5"/>
<path d="M12 7.44832H6.62066V4.13797H5.37932V7.44832H0V8.68966H5.37932V12H6.62066V8.68966H12V7.44832Z" fill="#FF4B55"/>
<path d="M4.55169 7.03452L0.197203 4.20792C0.081328 4.28123 0 4.40446 0 4.55174V4.57321L3.79166 7.03452H4.55169Z" fill="#FF4B55"/>
<path d="M7.79445 7.03451L11.937 4.34549C11.865 4.22366 11.7379 4.13797 11.5861 4.13797H11.4966L7.03442 7.03451H7.79445Z" fill="#FF4B55"/>
<path d="M4.19405 9.10349L0.0594482 11.7874C0.130745 11.9121 0.259745 12 0.413776 12H0.491822L4.95413 9.10349H4.19405Z" fill="#FF4B55"/>
<path d="M11.9934 11.6187L8.11843 9.10349H7.3584L11.7587 11.9598C11.8905 11.8986 11.981 11.7704 11.9934 11.6187Z" fill="#FF4B55"/>
<path d="M15.0953 8.65396V13.1942C15.0953 15.0355 17.6818 15.9818 17.997 16.0902C18.3118 15.9818 20.8986 15.0339 20.8986 13.1942V8.65396H15.0953Z" fill="#F5F5F5"/>
<path d="M21.001 10.7363V8.55154H14.9929V10.7363H17.5874V12.7845H14.9929V13.6039H17.5874V16.0617L17.997 16.1982L18.4066 16.0617V13.6039H21.001V12.7845H18.4066V10.7363H21.001Z" fill="#FF4B55"/>
<path d="M15.6666 10.226C15.8554 10.226 16.0084 10.0729 16.0084 9.8841C16.0084 9.69529 15.8554 9.54224 15.6666 9.54224C15.4778 9.54224 15.3247 9.69529 15.3247 9.8841C15.3247 10.0729 15.4778 10.226 15.6666 10.226Z" fill="#F5F5F5"/>
<path d="M16.3233 9.42186C16.2139 9.36172 16.017 9.20033 15.9377 9.22771C15.8584 9.25508 15.8407 9.31115 15.7297 9.31968C15.6216 9.32802 15.4509 9.43349 15.5221 9.55039C15.6146 9.70255 15.9041 9.58424 15.9232 9.51308C15.9232 9.51308 15.9943 9.52447 16.0541 9.51022C16.0541 9.51022 16.173 9.67616 16.3206 9.66524C16.4683 9.65427 16.5367 9.47108 16.5039 9.47108C16.4712 9.47108 16.3233 9.42186 16.3233 9.42186Z" fill="#FFE15A"/>
<path d="M16.7773 10.1465C16.7527 10.1916 16.5653 10.3519 16.2522 10.4255C16.1825 10.4419 16.1948 10.5239 16.1251 10.4829C16.0554 10.4419 15.8625 10.409 15.6902 10.4009C15.5179 10.3927 15.5008 10.233 15.5302 10.1753C15.5676 10.1019 15.8426 10.0572 15.8919 10.1474C15.9411 10.2377 15.978 10.2189 16.1004 10.245C16.1763 10.2612 16.1784 10.2983 16.1784 10.2983C16.1784 10.2983 16.3179 10.1588 16.4369 10.1178C16.5558 10.0768 16.6584 9.98651 16.6789 9.98651C16.6994 9.98651 16.8061 10.0152 16.8061 10.0152L16.7773 10.1465Z" fill="#FFE15A"/>
<path d="M17.2326 9.66247C17.4131 9.72809 17.9464 9.70756 18.5166 9.52297C19.0868 9.33837 19.2509 9.30556 19.5299 9.40808C19.8089 9.51059 19.9296 9.18659 19.7464 9.1318C19.4587 9.04569 18.5687 9.56276 17.9243 9.27261C17.9243 9.27261 17.9054 9.35066 17.9258 9.38755C17.9258 9.38755 17.4582 9.40395 17.5689 8.91992C17.5689 8.91992 17.6008 9.09664 17.8219 9.07634C18.2401 9.03795 18.2999 9.33237 19.1853 9.05937C19.6769 8.90783 20.0588 8.98222 20.0622 9.22137C20.0662 9.50933 19.6693 9.57626 19.6693 9.57626C19.6693 9.57626 19.8238 9.89215 20.1356 9.75265C20.4474 9.61315 20.4638 9.85381 20.4912 9.93594C20.5185 10.018 20.5705 10.0973 20.6388 10.1055C20.6388 10.1055 20.688 10.2531 20.6689 10.2723C20.6498 10.2914 20.5213 10.4528 20.3927 10.4528C20.2642 10.4528 19.9852 10.4528 19.9852 10.4528C19.9852 10.4528 19.9114 10.2695 20.0536 10.2669C20.1958 10.2642 20.3682 10.2532 20.3463 10.1766C20.3244 10.1 20.2123 10.0645 20.215 9.97967C20.215 9.97967 19.884 10.2203 19.679 9.93589L19.6735 10.0699C19.6735 10.0699 19.4246 10.0234 19.3344 9.82376C19.3344 9.82376 19.359 10.0481 19.1457 10.0152C19.1457 10.0152 19.1895 10.0808 19.2633 10.1273C19.3372 10.1738 19.2606 10.275 19.1184 10.3598C18.9762 10.4446 18.5386 10.6907 18.339 10.4391C18.1393 10.1875 18.3827 10.0425 18.4429 10.0589C18.503 10.0753 18.6753 10.3406 18.7929 10.3051C18.9105 10.2695 18.968 10.1492 18.8695 10.0754C18.771 10.0016 18.6973 9.93176 18.7594 9.85723C18.8447 9.75481 19.1594 9.78551 19.1484 9.71717C19.1375 9.64878 18.8449 9.66795 18.6534 9.85934C18.462 10.0508 17.6306 10.4911 17.2996 10.2122C16.9688 9.93322 17.2326 9.66247 17.2326 9.66247Z" fill="#FFE15A"/>
<path d="M17.126 9.53941C17.126 9.53941 17.3762 9.78555 17.7988 9.86351C17.7988 9.86351 17.7209 9.98247 17.4953 9.94966C17.4953 9.94966 17.5855 10.0276 17.6471 10.1589C17.6471 10.1589 17.5035 10.1917 17.3763 10.1219C17.3763 10.1219 17.3927 10.2286 17.4542 10.3148C17.4542 10.3148 17.286 10.3148 17.1424 10.1876L17.085 10.3517C17.085 10.3517 16.9866 10.286 16.925 10.1588C16.925 10.1588 16.8101 10.2491 16.6953 10.2491C16.6953 10.2491 16.7363 10.1261 16.7363 10.0563C16.7363 10.0563 16.5723 10.1547 16.4369 10.1178C16.4369 10.1178 16.4409 9.94549 16.4861 9.89627C16.4861 9.89627 16.3794 9.9086 16.3097 9.87166C16.3097 9.87166 16.3507 9.7773 16.3712 9.71576C16.3712 9.71576 16.2563 9.71983 16.1866 9.65421C16.1866 9.65421 16.4082 9.56805 16.4574 9.48602L17.126 9.53941Z" fill="#FFD25A"/>
<path d="M16.7226 8.85022C16.7718 8.87759 16.8511 8.93774 16.884 9.03889C16.884 9.03889 16.9743 8.90759 17.1301 8.88299C17.1301 8.88299 17.1985 8.95953 17.1793 9.15917C17.1793 9.15917 17.3517 9.10995 17.4447 9.20019C17.4447 9.20019 17.2614 9.2412 17.1766 9.39434C17.1766 9.39434 17.1437 9.55081 17.2012 9.64381C17.2012 9.64381 17.1372 9.65234 17.0727 9.62412C17.0727 9.62412 17.0399 9.78003 17.0727 9.82925C17.0727 9.82925 16.9824 9.81828 16.9332 9.72261C16.9332 9.72261 16.8593 9.83473 16.8648 9.90312C16.8648 9.90312 16.7664 9.8457 16.7609 9.76095C16.7609 9.76095 16.6925 9.88948 16.6187 9.90045C16.6187 9.90045 16.6105 9.71994 16.5777 9.65155C16.5777 9.65155 16.5148 9.71994 16.4328 9.71717C16.4328 9.71717 16.4328 9.57767 16.5012 9.51205C16.5012 9.51205 16.3863 9.54758 16.3234 9.42177C16.3234 9.42177 16.512 9.47642 16.5585 9.36163C16.605 9.24673 16.6187 9.2112 16.6843 9.1483C16.75 9.08544 16.7226 8.85022 16.7226 8.85022Z" fill="#FFBE5A"/>
<path d="M17.126 9.37944C17.126 9.37944 16.8921 9.82658 16.6788 9.69125C16.4452 9.5429 16.7362 9.19485 16.7732 9.15796C16.7732 9.15796 16.9455 9.20305 17.126 9.37944Z" fill="#FFE15A"/>
<path d="M16.2826 11.6697C16.2826 11.6697 16.258 11.3485 16.084 11.2558C15.9203 11.1688 15.8236 11.1252 15.8048 11.0135C15.8048 11.0135 15.947 11.0789 16.0974 11.1197C16.2332 11.1566 16.3658 11.3865 16.3255 11.6451L16.2826 11.6697Z" fill="#5ABEA0"/>
<path d="M15.733 11.9337L15.7552 11.9745L15.7712 12.0623L15.739 12.1664C15.739 12.1664 15.867 12.2173 15.8961 12.391C15.916 12.5102 15.9685 12.536 16.0007 12.5115C16.0329 12.487 16.0524 12.458 16.0188 12.3277C15.9759 12.1613 15.8598 12.0031 15.8598 12.0031L15.7692 11.8642L15.733 11.9337Z" fill="#B46446"/>
<path d="M15.8599 12.0031C15.7432 11.852 15.425 11.5376 15.3647 11.9663C15.3647 11.9663 15.24 11.6051 15.4734 11.6192C15.7431 11.6356 15.8599 12.0031 15.8599 12.0031Z" fill="#5ABEA0"/>
<path d="M15.7552 11.9746C15.6545 11.8643 15.6223 11.7826 15.57 11.5785C15.5176 11.3743 15.5015 11.313 15.4411 11.3171C15.3807 11.3212 15.3445 11.3865 15.3445 11.5172C15.3445 11.5172 15.1674 11.3579 15.2881 11.2313C15.4089 11.1048 15.6786 11.1742 15.6948 11.3988C15.7108 11.6233 15.7068 11.7744 15.7873 11.9623L15.7552 11.9746Z" fill="#5ABEA0"/>
<path d="M15.7834 11.8766C15.7834 11.8766 15.57 11.407 16.1699 11.1537C16.1699 11.1537 15.6385 11.0108 15.7029 11.7663L15.7834 11.8766Z" fill="#5ABEA0"/>
<path d="M15.8519 12.044C15.8519 12.044 15.401 11.8725 15.4413 12.289C15.4413 12.289 15.5178 12.093 15.7392 12.1665L15.8519 12.044Z" fill="#5ABEA0"/>
<path d="M16.3631 11.8792C16.3631 12.001 16.411 12.3545 16.343 12.3992C16.3088 12.4217 16.2121 12.4033 16.2202 12.3175C16.2283 12.2318 16.2665 11.8152 16.2665 11.7132C16.2665 11.6111 16.3631 11.8792 16.3631 11.8792Z" fill="#B46446"/>
<path d="M16.076 12.1624C16.1539 12.0835 16.178 11.9038 16.1512 11.6642C16.1512 11.6642 16.3122 11.7758 16.3632 11.8793C16.3632 11.8793 16.4142 11.6424 16.2478 11.5798C16.0814 11.5172 15.9928 11.5526 15.9633 11.6288C15.9338 11.705 16.0142 11.7903 16.0492 11.9146C16.0814 12.029 16.076 12.1624 16.076 12.1624Z" fill="#5ABEA0"/>
<path d="M16.3525 11.8167C16.3525 11.8167 16.3794 11.6914 16.4679 11.6397C16.4679 11.6397 16.6504 11.7677 16.637 11.9392C16.637 11.9392 16.6853 11.7051 16.586 11.6125C16.4867 11.52 16.3739 11.4955 16.3176 11.5771C16.2612 11.6587 16.3525 11.8167 16.3525 11.8167Z" fill="#5ABEA0"/>
<path d="M16.3955 11.5771C16.3955 11.5771 16.4519 11.2422 16.5941 11.1687C16.7363 11.0952 16.9994 11.0271 17.0155 11.0108C17.0155 11.0108 16.7015 11.0271 16.6505 11.0271C16.5995 11.0271 16.3176 11.2313 16.3176 11.5335C16.3176 11.8357 16.3445 11.6288 16.3525 11.6261C16.3606 11.6234 16.3955 11.5771 16.3955 11.5771Z" fill="#5ABEA0"/>
<path d="M16.5262 12.4625C16.5584 12.5299 16.6349 12.5462 16.6511 12.5115C16.6672 12.4768 16.7396 12.2114 16.7396 12.2114L16.637 12.1624L16.5262 12.4625Z" fill="#B46446"/>
<path d="M17.1282 11.3484C17.2543 11.2749 17.3376 11.4927 17.3376 11.4927C17.3376 11.2363 17.257 11.1552 17.0557 11.2532C16.9951 11.2827 16.9507 11.3445 16.9181 11.4162C16.8162 11.1234 16.5914 11.1279 16.5914 11.1279L16.5404 11.1633C16.7244 11.1987 16.8299 11.4192 16.8744 11.5395C16.8504 11.6273 16.8388 11.7124 16.8338 11.7611C16.7132 11.8862 16.637 12.1623 16.637 12.1623C16.637 12.1623 16.7236 12.2134 16.7397 12.2113C16.7397 12.2113 16.7961 12.0378 16.8665 12.0419C16.937 12.0459 17.0195 12.1583 17.0215 12.2297C17.0215 12.2297 17.1262 12.0174 17.0014 11.9357C16.9545 11.9051 16.917 11.8934 16.8868 11.8929L16.9793 11.7887C17.1303 11.8173 17.235 11.9603 17.235 11.9603C17.238 11.7051 17.1253 11.6552 17.0065 11.6766C17.0277 11.5739 17.0745 11.3797 17.1282 11.3484Z" fill="#5ABEA0"/>
<path d="M19.6134 11.7018C19.6134 11.9158 19.6134 12.3905 19.6134 12.4255C19.6134 12.4605 19.4601 12.5967 19.4601 12.5967H19.8676C19.8676 12.5967 19.7367 12.4449 19.7367 12.4255C19.7367 12.4061 19.7666 11.7562 19.7666 11.7562L19.6134 11.7018Z" fill="#B46446"/>
<path d="M19.6396 11.7757C19.5424 11.7679 19.2732 11.9897 19.1947 12.3282C19.1947 12.3282 18.9554 11.9391 19.5536 11.6162C19.5536 11.6162 19.2881 11.5383 18.8844 11.9586C18.8626 11.9813 18.8433 11.3244 19.5686 11.4994C19.5686 11.4994 19.2919 11.0986 18.7236 11.4138C18.7236 11.4138 19.1012 10.7368 19.6583 11.3438C19.6583 11.3438 19.662 10.8185 19.6658 10.8729C19.6696 10.9274 19.7106 11.1686 19.7106 11.1686L19.8191 10.978L19.7331 11.3671C19.7331 11.3671 20.2303 10.7056 20.6528 11.3944C20.6528 11.3944 20.1069 11.1687 19.8453 11.4216C19.8453 11.4216 20.4061 11.2698 20.3612 11.9197C20.3612 11.9197 20.1406 11.5344 19.7817 11.585C19.7817 11.585 20.2042 11.7796 20.0696 12.3049C20.0696 12.3049 19.8149 11.7897 19.6396 11.7757Z" fill="#5ABEA0"/>
<path d="M16.0694 14.1142C16.0486 14.086 16.0194 14.0724 15.9908 14.0689C16.0018 14.0309 16.0092 14.0136 16.0063 13.9859C16.015 13.9881 16.0233 13.992 16.0323 13.9931L16.0361 13.9619C16.0029 13.9579 15.9667 13.943 15.9296 13.9203C15.9525 13.9006 15.9691 13.8705 15.9691 13.8335C15.9691 13.7933 15.9507 13.7596 15.9245 13.7406C15.8983 13.7597 15.8798 13.7934 15.8798 13.8335C15.8798 13.8636 15.8922 13.8878 15.9084 13.9072C15.8946 13.8976 15.8806 13.8865 15.8666 13.8746C15.863 13.8499 15.8535 13.825 15.8316 13.8051C15.8019 13.778 15.7647 13.769 15.7329 13.7754C15.7294 13.8076 15.7418 13.8439 15.7715 13.871C15.7944 13.8919 15.8214 13.8991 15.8473 13.8996C15.8533 13.9046 15.8594 13.9096 15.866 13.9148C15.8481 13.9126 15.829 13.9144 15.8098 13.9214C15.772 13.9352 15.7468 13.964 15.7378 13.9951C15.7647 14.0131 15.8026 14.019 15.8403 14.0052C15.8733 13.9932 15.8945 13.9691 15.9059 13.9426C15.928 13.9568 15.9522 13.9685 15.9773 13.9779L15.9733 13.9785C15.9725 14.0011 15.974 14.0104 15.9627 14.0525C15.9373 14.0361 15.9038 14.0287 15.8683 14.0391C15.8298 14.0505 15.8027 14.0776 15.7918 14.1082C15.8175 14.1279 15.8549 14.1361 15.8935 14.1247C15.9225 14.1162 15.9421 14.0976 15.9561 14.0764C15.9508 14.0924 15.9442 14.1089 15.9367 14.1257C15.9141 14.1362 15.8929 14.1523 15.8799 14.179C15.8623 14.2151 15.8642 14.2535 15.8794 14.2821C15.9113 14.2764 15.9425 14.2542 15.9602 14.2181C15.9737 14.1902 15.973 14.1623 15.9662 14.1373C15.9693 14.1302 15.9724 14.1228 15.9755 14.1151C15.9784 14.1328 15.9856 14.1507 15.9977 14.1671C16.0215 14.1995 16.0563 14.2156 16.0887 14.2155C16.0984 14.1845 16.0933 14.1465 16.0694 14.1142Z" fill="#5ABEA0"/>
<path d="M15.8846 14.0133C16.0211 14.0133 16.1996 14.0081 16.1943 14.1445C16.1891 14.281 16.0368 14.7429 16.3885 14.8846C16.7402 15.0264 16.7822 15.0054 16.7822 15.0054L16.9396 15.3675L17.3228 15.2311L16.9553 14.9371C16.9553 14.9371 16.9238 14.7377 16.8346 14.6012C16.8346 14.6012 17.0603 14.4857 17.1391 14.3859L16.9816 14.3754C16.9816 14.3754 17.1863 14.2442 17.2808 14.0973L17.1706 14.1078C17.1706 14.1078 17.2965 13.9818 17.328 13.8348C17.328 13.8348 17.1233 14.0395 16.9134 14.0658C16.9134 14.0658 17.0026 13.8348 17.0236 13.7456C17.0236 13.7456 16.8661 13.8453 16.7559 13.8873C16.6457 13.9293 16.4725 13.9345 16.5512 14.2915C16.5512 14.2915 16.4567 14.2128 16.399 14.0448C16.3413 13.8768 16.3203 13.8138 16.2415 13.8138C16.113 13.8138 16.0631 13.9293 16.0631 13.9293L15.8846 14.0133Z" fill="#FFECDE"/>
<path d="M19.7586 14.0808C19.8058 14.0179 19.9003 13.8212 19.9829 13.8723C20.0656 13.9234 20.1758 14.0493 20.2426 13.9903C20.3095 13.9313 20.3135 13.8565 20.2111 13.8212C20.1088 13.7858 19.9947 13.7267 19.9239 13.7503C19.8531 13.7739 19.6367 13.9983 19.6367 13.9983L19.7586 14.0808Z" fill="#B46446"/>
<path d="M19.1489 14.25C19.1449 14.1595 19.206 13.7666 19.4519 13.8172C19.5856 13.8448 19.6514 13.9865 19.8257 14.0533C20.0106 14.1241 20.1287 14.1673 20.0932 14.2893C20.0578 14.4113 19.9909 14.5569 19.8374 14.5923C19.684 14.6278 19.1489 14.25 19.1489 14.25Z" fill="#FFE15A"/>
<path d="M18.9875 14.574C18.935 14.5845 18.7409 14.8678 18.9718 15.1563C18.9718 15.1563 19.2551 15.2718 19.4807 15.0934C19.7063 14.915 19.5384 14.8258 19.5384 14.8258L18.9875 14.574Z" fill="#5ABEA0"/>
<path d="M19.0071 14.6356C18.9835 14.6002 18.9874 14.574 18.9874 14.574C18.9874 14.574 18.9756 14.1674 19.1448 14.1595C19.3141 14.1516 19.9239 14.553 19.9239 14.6199C19.9239 14.6868 19.7271 14.8796 19.5619 14.9189C19.3967 14.9583 19.0071 14.6356 19.0071 14.6356Z" fill="#5ABEA0"/>
<path d="M18.5901 15.6193C18.5901 15.6193 19.1276 15.3779 19.0265 15.1814C18.9536 15.0397 18.7898 15.1305 18.7639 15.2388C18.7315 15.3738 18.6265 15.562 18.5901 15.6193Z" fill="#B46446"/>
<path d="M17.997 16.3057L17.9659 16.2958C17.9347 16.2858 17.1928 16.0468 16.4386 15.5497C15.4259 14.8823 14.8905 14.0677 14.8905 13.1942V8.4491H21.1034V13.1942C21.1034 14.0677 20.5681 14.8823 19.5554 15.5497C18.8012 16.0468 18.0592 16.2858 18.028 16.2958L17.997 16.3057ZM15.0953 8.65394V13.1942C15.0953 15.0354 17.6818 15.9818 17.997 16.0902C18.3119 15.9818 20.8986 15.0339 20.8986 13.1942V8.65394H15.0953Z" fill="#464655"/>
</svg>
