<svg width="24" height="24" viewBox="0 0 24 24" fill="none" xmlns="http://www.w3.org/2000/svg">
<path d="M24 7.28278H0V4.55175C0 4.32324 0.185297 4.13794 0.413812 4.13794H23.5862C23.8147 4.13794 24 4.32324 24 4.55175L24 7.28278Z" fill="#41479B"/>
<path d="M23.5861 19.862H0.413812C0.185297 19.862 0 19.6767 0 19.4482V16.7172H24V19.4482C24 19.6768 23.8147 19.862 23.5861 19.862Z" fill="#41479B"/>
<path d="M24 7.28296H0V10.4278H24V7.28296Z" fill="#F5F5F5"/>
<path d="M24 10.4278H0V13.5726H24V10.4278Z" fill="#41479B"/>
<path d="M24 13.5726H0V16.7175H24V13.5726Z" fill="#F5F5F5"/>
<path d="M0.155156 19.7638L12.1271 12.1816C12.2603 12.0972 12.2603 11.9029 12.1271 11.8185L0.155156 4.23624C0.062578 4.31213 0 4.4227 0 4.55175V19.4482C0 19.5773 0.0626249 19.6878 0.155156 19.7638Z" fill="#FF4B55"/>
<path d="M4.14965 10.005L4.57452 11.2789L5.91734 11.2893C6.02136 11.2901 6.06449 11.4228 5.98081 11.4847L4.90058 12.2824L5.30563 13.5627C5.33703 13.6619 5.22406 13.7439 5.13946 13.6834L4.04699 12.9025L2.95452 13.6834C2.86991 13.744 2.75694 13.6619 2.78835 13.5627L3.1934 12.2825L2.11312 11.4848C2.02945 11.4229 2.07257 11.2902 2.17659 11.2894L3.51941 11.279L3.94429 10.0051C3.97715 9.90635 4.11674 9.90635 4.14965 10.005Z" fill="#F5F5F5"/>
</svg>
