<svg width="24" height="24" viewBox="0 0 24 24" fill="none" xmlns="http://www.w3.org/2000/svg">
<path d="M24 9.37935H0V4.55175C0 4.32324 0.185297 4.13794 0.413812 4.13794H23.5862C23.8147 4.13794 24 4.32324 24 4.55175L24 9.37935Z" fill="#FF4B55"/>
<path d="M23.5861 19.8621H0.413812C0.185297 19.8621 0 19.6768 0 19.4483V14.6207H24V19.4483C24 19.6768 23.8147 19.8621 23.5861 19.8621Z" fill="#464655"/>
<path d="M24 9.37924H0V14.6203H24V9.37924Z" fill="#F5F5F5"/>
<path d="M14.4405 10.9465C14.397 10.9239 14.3455 10.8429 14.3615 10.8074C14.3785 10.7702 14.3521 10.7734 14.441 10.7999C14.6018 10.8415 14.7059 10.8225 14.808 10.7356L14.8988 10.6637L15.0048 10.7167C15.0634 10.7431 15.1239 10.762 15.141 10.7582C15.1901 10.7469 15.2848 10.6258 15.2829 10.5842C15.2809 10.5275 15.3226 10.5426 15.3434 10.6031C15.3869 10.7167 15.3069 10.9125 15.1972 10.9389C15.1443 10.954 15.0951 10.9503 15.0118 10.9239C14.9134 10.886 14.8982 10.886 14.8454 10.9239C14.7356 11.0109 14.5786 11.0185 14.4405 10.9465Z" fill="#73AF00"/>
<path d="M14.8546 10.5086C14.8015 10.4342 14.7377 10.1739 14.7564 10.1102C14.7749 10.0517 14.7935 10.0411 14.8439 10.057C14.9343 10.0888 14.9556 10.1473 14.9449 10.3599C14.929 10.5191 14.9078 10.5724 14.8546 10.5086Z" fill="#73AF00"/>
<path d="M11.297 11.6593C11.079 11.7833 10.7548 11.8046 10.7548 12.1483C10.2799 12.166 9.71994 12.1873 9.21491 12.1767C9.35179 11.9998 10.2181 11.1992 10.5783 10.8818C10.6379 10.8293 10.6582 10.7277 10.6235 10.6562L10.6142 10.637C10.5622 10.5299 10.421 10.5044 10.3349 10.5867C9.97593 10.9301 9.62019 11.25 9.56226 11.3049C9.09754 11.7746 8.96123 11.9114 8.88819 11.9849C8.83621 12.0373 8.80729 12.108 8.80766 12.1818V12.1866C8.80851 12.3399 8.93296 12.4637 9.08619 12.4637H11.1197C11.2349 12.4637 11.0932 12.0633 11.242 12.0633C11.3454 12.0633 11.3549 12.2069 11.3504 12.3591C11.3469 12.4749 11.2515 12.5665 11.1358 12.5667C10.2566 12.5679 9.34143 12.5763 8.48024 12.5771C8.40913 12.5771 8.35204 12.5194 8.35204 12.4482V12.2933C8.35204 12.162 8.20616 12.0856 8.09638 12.1577C8.09235 12.1603 8.08841 12.1629 8.08448 12.1653C8.0271 12.2012 7.99776 12.2714 8.02016 12.3352C8.0347 12.3766 8.04102 12.4271 8.04238 12.4798C8.04426 12.5495 7.98749 12.607 7.91779 12.6091C7.63298 12.6178 7.32346 12.6204 7.23557 12.4525C7.18598 12.3578 7.08046 12.3131 6.98479 12.3609L6.97209 12.3672C6.8714 12.4176 6.83109 12.5421 6.88621 12.6402C6.99112 12.8268 7.08684 13.0431 7.03715 13.3462C6.99665 13.4417 6.92034 13.5015 6.83765 13.5553C6.74578 13.6151 6.80343 13.7551 6.9112 13.7352C7.17248 13.6869 7.35253 13.4801 7.4076 13.2363H11.4585C11.6071 13.2363 11.7275 13.1158 11.7275 12.9673V12.0882C11.6904 11.8258 11.4087 11.8365 11.297 11.6593Z" fill="#73AF00"/>
<path d="M16.4352 10.4975C16.495 10.536 16.5548 10.5745 16.6215 10.6063C16.6945 10.6411 16.7224 10.7301 16.6797 10.7988C16.6684 10.8169 16.659 10.8372 16.6536 10.8619V12.6055C16.7728 12.6303 16.8412 12.6068 16.8955 12.5693C16.9568 12.527 17.0397 12.5578 17.0591 12.6297C17.1002 12.7827 17.1675 12.932 17.2034 13.0681C17.2258 13.1531 17.162 13.2363 17.0741 13.2363H16.391C16.3305 13.2363 16.2815 13.1872 16.2815 13.1268V10.5815C16.2814 10.5026 16.3688 10.4548 16.4352 10.4975Z" fill="#73AF00"/>
<path d="M15.6082 10.9221C15.6087 11.4036 15.6143 11.9222 15.6151 12.4383C15.6152 12.5052 15.561 12.5594 15.4941 12.5594H15.4862C15.4194 12.5594 15.3653 12.5052 15.3653 12.4384V11.2155C15.3653 11.1489 15.2871 11.1133 15.237 11.1571L15.0767 11.2956C15.0439 11.324 15.025 11.3647 15.0249 11.408C15.0244 11.6069 15.0226 12.1861 15.0219 12.439C15.0217 12.5056 14.9676 12.5594 14.901 12.5594H14.89C14.8235 12.5594 14.7695 12.506 14.7691 12.4395C14.7679 12.2712 14.7658 11.9592 14.765 11.7252C14.7647 11.6579 14.6851 11.6228 14.6345 11.6671C14.4684 11.8127 14.4301 11.8456 14.3429 11.9356C14.35 11.9817 14.3855 11.9356 14.4067 11.971V12.205C13.8017 12.0911 13.7565 12.5744 13.7792 13.0931C13.7826 13.171 13.8466 13.2327 13.9246 13.2327H15.8242C15.8947 13.2327 15.9518 13.1756 15.9518 13.1051V10.7435C15.9518 10.6646 15.8582 10.6241 15.7999 10.6774C15.7535 10.7199 15.704 10.7624 15.6614 10.8009C15.6273 10.832 15.6081 10.8758 15.6082 10.9221ZM14.2101 12.5417C14.173 12.4354 14.3821 12.3964 14.4068 12.4921C14.4157 12.609 14.2562 12.6126 14.2101 12.5417Z" fill="#73AF00"/>
<path d="M7.93562 13.4241C8.00828 13.4241 8.06673 13.4844 8.06673 13.5552C8.06673 13.6297 8.00828 13.6863 7.93562 13.6863C7.86123 13.6863 7.8009 13.6297 7.8009 13.5552C7.80095 13.4844 7.86128 13.4241 7.93562 13.4241Z" fill="#73AF00"/>
<path d="M12.2549 10.551C12.2904 10.5723 12.3268 10.5927 12.3657 10.611C12.4358 10.6442 12.4635 10.7313 12.4206 10.7959C12.4077 10.8154 12.3967 10.8375 12.3902 10.8654V12.6055C12.5165 12.6335 12.5855 12.606 12.6406 12.5653C12.6955 12.5247 12.7744 12.5528 12.792 12.6186C12.8235 12.7368 12.871 12.8536 12.9076 12.9645C12.9524 13.1001 12.8518 13.2398 12.709 13.2398H12.1761C12.0898 13.2398 12.0199 13.1699 12.0199 13.0835V10.6857C12.0199 10.5652 12.1515 10.4889 12.2549 10.551Z" fill="#73AF00"/>
</svg>
