<svg width="24" height="24" viewBox="0 0 24 24" fill="none" xmlns="http://www.w3.org/2000/svg">
<path d="M23.5861 4.13792H0.413812C0.185297 4.13792 0 4.32322 0 4.55174V19.4482C0 19.6767 0.185297 19.862 0.413812 19.862H23.5862C23.8147 19.862 24 19.6767 24 19.4482V4.55174C24 4.32322 23.8147 4.13792 23.5861 4.13792Z" fill="#41479B"/>
<path d="M0.152625 19.762L23.8473 4.23796C23.7756 4.17828 23.6867 4.13792 23.5861 4.13792H0.413812C0.185297 4.13792 0 4.32322 0 4.55174V19.4482C0 19.5761 0.061453 19.6861 0.152625 19.762Z" fill="#F5F5F5"/>
<path d="M10.5365 4.13792H0.413812C0.185297 4.13792 0 4.32322 0 4.55174V11.0412L10.5365 4.13792Z" fill="#FFE15A"/>
<path d="M9.48152 10.7408C9.29374 9.48758 8.30547 8.49927 7.05218 8.31149L6.6206 7.44829L6.18902 8.31149C4.93578 8.49927 3.94751 9.48749 3.75969 10.7408L2.89648 11.1724L3.75969 11.604C3.94747 12.8572 4.93573 13.8455 6.18902 14.0333L6.6206 14.8965L7.05218 14.0333C8.30543 13.8455 9.29369 12.8573 9.48152 11.604L10.3447 11.1724L9.48152 10.7408ZM6.6206 13.6551C5.24942 13.6551 4.13787 12.5436 4.13787 11.1724C4.13787 9.80122 5.24942 8.68968 6.6206 8.68968C7.99179 8.68968 9.10333 9.80122 9.10333 11.1724C9.10333 12.5436 7.99179 13.6551 6.6206 13.6551Z" fill="#464655"/>
<path d="M6.62066 9.58128L7.0662 10.4008L7.99864 10.3768L7.5117 11.1724L7.99864 11.968L7.0662 11.9441L6.62066 12.7636L6.17516 11.9441L5.24268 11.968L5.72961 11.1724L5.24268 10.3768L6.17516 10.4008L6.62066 9.58128Z" fill="#FF4B55"/>
</svg>
