<svg width="24" height="24" viewBox="0 0 24 24" fill="none" xmlns="http://www.w3.org/2000/svg">
<path d="M23.5861 19.862H0.413812C0.185297 19.862 0 19.6767 0 19.4482V4.55175C0 4.32324 0.185297 4.13794 0.413812 4.13794H23.5862C23.8147 4.13794 24 4.32324 24 4.55175V19.4482C24 19.6768 23.8147 19.862 23.5861 19.862Z" fill="#F5F5F5"/>
<path d="M18.7058 13.5941L18.8568 14.1238L19.3817 12.564L17.9259 13.3316L18.473 13.396L16.7258 15.449L16.7107 15.4055L18.1062 12.5159L18.386 12.9905L18.5002 11.3488L17.2853 12.4589L17.8309 12.383L16.4355 15.2726L16.3919 15.2877L16.9137 12.6428L17.3042 13.0314L17.0002 11.414L16.1049 12.7948L16.6138 12.5837L16.0513 15.4355L15.8677 15.8158L15.6698 15.9485L15.5884 16.3611L14.8965 17.1741L15.4367 17.1306L15.3387 17.6275L15.5297 17.4994L15.5482 17.7287L15.8764 17.343L16.1782 17.7931L16.3848 16.7457L16.6573 16.4254L16.6382 16.1879L16.8219 15.8077L18.7058 13.5941Z" fill="#4173CD"/>
<path d="M6.13677 12.0435C6.19612 11.7767 6.15932 11.5267 6.0577 11.3729C5.90034 11.4692 5.76112 11.68 5.70177 11.9468C5.67431 12.0704 5.66938 12.1893 5.68007 12.2977L5.3534 11.8107C5.48643 11.7022 5.60095 11.5165 5.65293 11.2828C5.71227 11.016 5.67548 10.766 5.57385 10.6121C5.41649 10.7085 5.27728 10.9193 5.21793 11.1861C5.18634 11.3282 5.18362 11.4642 5.20185 11.5848L4.98098 11.2555C4.99204 11.0883 4.94067 10.8849 4.81743 10.6911C4.67076 10.4604 4.46798 10.3097 4.28728 10.2727C4.2442 10.4521 4.29478 10.6996 4.44145 10.9302C4.56609 11.1262 4.73076 11.2596 4.88849 11.3194L5.0909 11.6554C4.98937 11.5878 4.86506 11.5326 4.72293 11.501C4.45612 11.4416 4.20614 11.4784 4.05225 11.58C4.14862 11.7374 4.35942 11.8766 4.62623 11.936C4.8599 11.988 5.0767 11.963 5.23134 11.8884L5.53401 12.3908C5.44021 12.3352 5.33052 12.2893 5.20692 12.2617C4.9401 12.2024 4.69012 12.2392 4.53623 12.3408C4.6326 12.4981 4.8434 12.6374 5.11021 12.6967C5.33385 12.7465 5.54212 12.7257 5.69545 12.6587L5.97412 13.1213C5.88796 13.0748 5.79206 13.0349 5.6834 13.0108C5.41659 12.9514 5.1666 12.9882 5.01271 13.0898C5.10909 13.2472 5.31988 13.3864 5.5867 13.4458C5.80054 13.4933 6.00098 13.477 6.15238 13.4172L6.42116 13.8633C6.34396 13.8255 6.2608 13.7924 6.16734 13.7716C5.90052 13.7122 5.65054 13.749 5.49665 13.8507C5.59302 14.008 5.80382 14.1472 6.07063 14.2066C6.27445 14.2519 6.46762 14.2405 6.61649 14.1875L6.86132 14.5938C6.79396 14.5641 6.72238 14.5381 6.64387 14.5206C6.37705 14.4613 6.12707 14.4981 5.97318 14.5997C6.06955 14.757 6.28035 14.8963 6.54716 14.9556C6.74155 14.9989 6.92601 14.99 7.07183 14.9432L7.84939 16.2338L8.17963 16.0237L7.34024 14.7724C7.4444 14.6601 7.53065 14.4968 7.57386 14.3024C7.63321 14.0356 7.59641 13.7857 7.49479 13.6318C7.33743 13.7281 7.19821 13.9389 7.13887 14.2057C7.12138 14.2842 7.11458 14.3601 7.11294 14.4336L6.84876 14.0397C6.9598 13.9273 7.0521 13.7572 7.09738 13.5534C7.15672 13.2866 7.11993 13.0366 7.0183 12.8827C6.86094 12.9791 6.72172 13.1899 6.66238 13.4567C6.64157 13.5502 6.63641 13.6395 6.63787 13.7254L6.3478 13.2929C6.46621 13.1811 6.56591 13.0065 6.61349 12.7927C6.67283 12.5259 6.63604 12.2759 6.53441 12.122C6.37705 12.2184 6.23784 12.4292 6.17849 12.696C6.15435 12.8046 6.1498 12.9084 6.15538 13.0061L5.85454 12.5576C5.97998 12.447 6.08704 12.2671 6.13677 12.0435Z" fill="#73AF00"/>
<path d="M9.51725 12L9.10344 9.51723H9.03941C8.6638 9.51723 8.39849 9.14921 8.51731 8.79282L8.51867 8.78884C8.6136 8.50403 8.4628 8.19573 8.17972 8.09584L2.49815 6.09063C2.17612 5.97695 1.8728 6.30081 2.00733 6.61473L2.62345 8.05234C2.80073 8.46592 3.10795 8.81045 3.49861 9.03371L5.07468 9.93432C5.54549 10.2033 6.07832 10.3449 6.62057 10.3449H6.62066L6.76204 10.6276C7.18265 11.4686 8.04233 12 8.98274 12H9.51725Z" fill="#FFE15A"/>
<path d="M14.4828 12L14.8966 9.51728H14.9606C15.3362 9.51728 15.6016 9.14926 15.4827 8.79287L15.4814 8.78889C15.3864 8.50408 15.5372 8.19578 15.8203 8.09589L21.4996 6.09143C21.8225 5.97743 22.1266 6.30222 21.9917 6.61699L21.3766 8.05234C21.1993 8.46592 20.8921 8.81045 20.5014 9.03372L18.9254 9.93432C18.4545 10.2033 17.9217 10.3449 17.3795 10.3449H17.3793L17.238 10.6276C16.8174 11.4687 15.9578 12 15.0173 12H14.4828Z" fill="#FFE15A"/>
<path d="M13.6551 9.10345L12.6287 6.70847C12.4983 6.40416 12.1991 6.20691 11.8681 6.20691H11.5862L11.1723 6.62072H10.7585L10.3447 7.03453H10.9222C11.0686 7.03453 11.1673 7.1842 11.1096 7.31883L10.3447 9.1035L13.6551 9.10345Z" fill="#FFE15A"/>
<path d="M10.7587 13.2414L9.93111 12L9.17324 12.7579C8.85529 13.0758 8.61571 13.4635 8.47354 13.89L8.27596 14.4827L7.86215 14.8965H7.32431C7.14674 14.8965 6.98437 14.9969 6.90496 15.1557L6.78829 15.3891C6.71132 15.543 6.82326 15.7241 6.99534 15.7241H7.86215L8.13805 15.1724L9.45725 14.5127C9.49705 14.4928 9.53333 14.4667 9.56479 14.4352L10.7587 13.2414Z" fill="#FFE15A"/>
<path d="M13.2413 13.2414L14.0689 12L14.8268 12.7579C15.1447 13.0758 15.3843 13.4635 15.5265 13.89L15.7241 14.4827L16.1379 14.8965H16.6757C16.8533 14.8965 17.0157 14.9969 17.0951 15.1557L17.2117 15.3891C17.2887 15.543 17.1768 15.7241 17.0047 15.7241H16.1379L15.862 15.1724L14.5428 14.5127C14.503 14.4928 14.4667 14.4667 14.4353 14.4352L13.2413 13.2414Z" fill="#FFE15A"/>
<path d="M10.7587 13.6552L9.75302 15.3312C9.61736 15.5573 9.66668 15.8486 9.86922 16.0174L11.3964 17.29C11.746 17.5814 12.2539 17.5814 12.6036 17.29L14.1307 16.0174C14.3333 15.8485 14.3826 15.5573 14.2469 15.3312L13.2414 13.6552H10.7587Z" fill="#FFE15A"/>
<path d="M11.9999 8.68958C11.9999 8.68958 10.7585 9.10339 9.10339 8.68958C9.10339 8.68958 9.10339 9.51715 9.10339 10.3447C9.10339 11.1723 9.51721 13.6551 11.9999 14.4827C14.4827 13.6551 14.8965 11.1723 14.8965 10.3447C14.8965 9.51715 14.8965 8.68958 14.8965 8.68958C13.2413 9.10339 11.9999 8.68958 11.9999 8.68958Z" fill="#F5F5F5"/>
<path d="M11.9999 8.68958C11.9999 8.68958 10.7585 9.10339 9.10339 8.68958C9.10339 8.68958 9.10339 9.51715 9.10339 10.3447H14.8965C14.8965 9.51715 14.8965 8.68958 14.8965 8.68958C13.2413 9.10339 11.9999 8.68958 11.9999 8.68958Z" fill="#41479B"/>
<path d="M9.96862 12.992V10.3448H9.51721V12.1868C9.63449 12.4562 9.78182 12.729 9.96862 12.992Z" fill="#FF4B55"/>
<path d="M10.8714 10.3448H10.42V13.521C10.5567 13.6564 10.7062 13.7853 10.8714 13.9053V10.3448Z" fill="#FF4B55"/>
<path d="M14.0314 12.992C14.2182 12.729 14.3655 12.4561 14.4828 12.1867V10.3448H14.0314V12.992Z" fill="#FF4B55"/>
<path d="M11.7743 10.3448H11.3229V14.1854C11.4643 14.2616 11.6149 14.331 11.7743 14.394V10.3448Z" fill="#FF4B55"/>
<path d="M13.5799 10.3448H13.1285V13.9054C13.2938 13.7854 13.4432 13.6565 13.5799 13.521V10.3448Z" fill="#FF4B55"/>
<path d="M12.6771 14.1854V10.3448H12.2257V14.394C12.3851 14.331 12.5357 14.2616 12.6771 14.1854Z" fill="#FF4B55"/>
<path d="M7.64928 15.2334L7.35547 15.4142L7.84916 16.2337L8.17939 16.0237L7.64928 15.2334Z" fill="#73AF00"/>
<path d="M16.8113 15.8295L16.5517 15.3103H16.076L16.0513 15.4355L15.8677 15.8158L15.6698 15.9485L15.5884 16.3611L14.8965 17.1741L15.4367 17.1306L15.3387 17.6275L15.5297 17.4994L15.5482 17.7286L15.8764 17.343L16.1782 17.793L16.3848 16.7456L16.6573 16.4254L16.6382 16.1879L16.8113 15.8295Z" fill="#4173CD"/>
<path d="M3.96057 10.3448H2.89651L2.99199 10.6313L2.36448 12.8276L1.73696 10.6313L1.83249 10.3448H0.768433L1.05493 10.7268L1.92798 13.7825L1.83249 14.069H2.89651L2.80102 13.7825L3.67407 10.7268L3.96057 10.3448Z" fill="#4173CD"/>
<path d="M21.99 10.6109L22.1673 10.3448H21.99H21.2806H21.1033L21.2806 10.6109V13.803L21.1033 14.069H21.2806H21.99H22.1673L21.99 13.803V10.6109Z" fill="#4173CD"/>
</svg>
