<svg width="24" height="24" viewBox="0 0 24 24" fill="none" xmlns="http://www.w3.org/2000/svg">
<path d="M23.5861 19.862H0.413812C0.185297 19.862 0 19.6767 0 19.4482V4.55175C0 4.32324 0.185297 4.13794 0.413812 4.13794H23.5862C23.8147 4.13794 24 4.32324 24 4.55175V19.4483C24 19.6768 23.8147 19.862 23.5861 19.862Z" fill="#FF4B55"/>
<path d="M10.581 10.5008C10.5807 10.5009 10.5805 10.5012 10.5802 10.5014L4.55173 4.138H0.41385C0.313257 4.138 0.224429 4.17831 0.15271 4.23803L10.2713 10.8675C10.3597 10.7327 10.4645 10.6111 10.581 10.5008Z" fill="#FFE15A"/>
<path d="M9.95239 12.212C9.94507 12.1413 9.93101 12.0727 9.93101 12.0001C9.93101 11.9274 9.94507 11.8588 9.95239 11.7881V11.7882L0 10.7587V13.2414L9.95239 12.2119V12.212Z" fill="#FFE15A"/>
<path d="M11.6783 9.96341C11.7838 9.94682 11.8898 9.93102 11.9999 9.93102C12.1101 9.93102 12.216 9.94687 12.3215 9.96341H12.3215L13.2413 4.13794H10.7585L11.6783 9.96341Z" fill="#FFE15A"/>
<path d="M13.7286 10.8675L23.8473 4.23803C23.7755 4.17831 23.6868 4.138 23.5862 4.138H19.4482L13.4197 10.5014C13.4195 10.5012 13.4192 10.501 13.4189 10.5008C13.5355 10.6111 13.6402 10.7327 13.7286 10.8675Z" fill="#FFE15A"/>
<path d="M13.4189 13.4993C13.4192 13.4991 13.4195 13.4988 13.4197 13.4987L19.4482 19.8621H23.5862C23.6868 19.8621 23.7756 19.8218 23.8473 19.762L13.7286 13.1326C13.6402 13.2673 13.5355 13.389 13.4189 13.4993Z" fill="#FFE15A"/>
<path d="M14.0476 11.7882V11.7881C14.0549 11.8588 14.069 11.9275 14.069 12.0001C14.069 12.0727 14.0549 12.1414 14.0476 12.2121V12.212L24 13.2414V10.7587L14.0476 11.7882Z" fill="#FFE15A"/>
<path d="M12.3215 14.0366C12.216 14.0532 12.1101 14.069 11.9999 14.069C11.8898 14.069 11.7838 14.0532 11.6783 14.0366L10.7585 19.8621H13.2413L12.3215 14.0366Z" fill="#FFE15A"/>
<path d="M10.2712 13.1326L0.152588 19.762C0.224307 19.8218 0.313134 19.8621 0.413728 19.8621H4.55166L10.5801 13.4987C10.5804 13.4988 10.5807 13.4991 10.5809 13.4993C10.4644 13.389 10.3596 13.2673 10.2712 13.1326Z" fill="#FFE15A"/>
<path d="M12 13.6552C12.9141 13.6552 13.6552 12.9141 13.6552 12C13.6552 11.0859 12.9141 10.3448 12 10.3448C11.0859 10.3448 10.3448 11.0859 10.3448 12C10.3448 12.9141 11.0859 13.6552 12 13.6552Z" fill="#FFE15A"/>
</svg>
