<svg width="24" height="24" viewBox="0 0 24 24" fill="none" xmlns="http://www.w3.org/2000/svg">
<path d="M23.5861 19.8621H0.413812C0.185297 19.8621 0 19.6768 0 19.4483V4.55175C0 4.32324 0.185297 4.13794 0.413812 4.13794H23.5862C23.8147 4.13794 24 4.32324 24 4.55175V19.4483C24 19.6768 23.8147 19.8621 23.5861 19.8621Z" fill="#FF4B55"/>
<path d="M12.0593 12.0179L11.9447 12.0841C11.7461 11.7981 11.757 11.0987 11.757 11.0908C11.7591 11.0701 11.7466 11.0514 11.728 11.0431L10.8689 10.6671L10.8738 10.579C11.3218 10.6306 11.8397 10.839 11.8469 10.8426C11.8645 10.8537 11.8868 10.8509 11.9025 10.8379L12.6154 10.2436L12.7688 10.3807C12.5466 10.6537 12.0058 11.0308 11.9988 11.0347C11.9796 11.043 11.9693 11.0628 11.9712 11.0832L12.0593 12.0179Z" fill="#FFE15A"/>
<path d="M15.1764 7.78315C15.1939 7.79211 15.2149 7.79037 15.2308 7.77865L15.4171 7.64075L15.3579 7.81268C15.3513 7.83223 15.357 7.85407 15.3724 7.86823L15.4601 7.94661C15.434 7.99062 15.4237 8.04476 15.4227 8.10125L15.2927 8.16725C15.2817 8.17287 15.273 8.18225 15.2682 8.19368L15.1713 8.42839L15.1182 8.23376C15.1113 8.20812 15.087 8.19246 15.0612 8.19598L14.8273 8.22795L15.0172 8.01289C15.0273 8.00136 15.0318 7.98598 15.0295 7.97093L14.9872 7.68692L15.1764 7.78315Z" fill="#FFE15A"/>
<path d="M13.0575 15.4474C13.0412 15.4583 13.0325 15.4775 13.035 15.4971L13.0651 15.7268L12.9436 15.5916C12.9297 15.5763 12.9078 15.5708 12.888 15.5773L12.7769 15.6159C12.751 15.5718 12.7087 15.5365 12.6598 15.5082L12.6652 15.3626C12.6656 15.3502 12.6616 15.3381 12.654 15.3284L12.4958 15.1297L12.6918 15.1777C12.7175 15.1842 12.7431 15.1704 12.7524 15.1462L12.838 14.9262L12.9339 15.1966C12.9391 15.211 12.9503 15.2224 12.9646 15.2277L13.2334 15.3286L13.0575 15.4474Z" fill="#FFE15A"/>
<path d="M7.36812 10.0593C7.36564 10.0399 7.35228 10.0235 7.33367 10.017L7.11462 9.94136L7.28994 9.89298C7.30981 9.88741 7.32458 9.87034 7.32753 9.84963L7.34258 9.733C7.39358 9.72963 7.44411 9.7075 7.49126 9.67642L7.61919 9.74636C7.63006 9.75227 7.64267 9.75414 7.65481 9.75156L7.90325 9.69888L7.77275 9.85272C7.75545 9.87283 7.75634 9.9018 7.77383 9.92106L7.93245 10.096L7.64773 10.0609C7.63245 10.0591 7.61731 10.0641 7.60611 10.0744L7.39573 10.2699L7.36812 10.0593Z" fill="#FFE15A"/>
<path d="M11.9249 17.0926C11.7984 17.3477 11.5247 17.5592 11.4562 17.5717C11.4437 17.5737 11.4334 17.5696 11.423 17.5592C11.3919 17.5239 11.3774 17.4285 11.4189 17.302C11.423 17.2896 11.4273 17.273 11.4334 17.2544L11.9249 17.0926Z" fill="#F5F5F5"/>
<path d="M12.0161 16.8292C11.9995 16.879 11.985 16.9287 11.9746 16.9661L11.4686 17.1341C11.4832 17.0885 11.4976 17.0387 11.5122 16.9848L12.0161 16.8292Z" fill="#F5F5F5"/>
<path d="M12.1281 16.5451C12.1032 16.6011 12.0804 16.655 12.0596 16.7069L11.5453 16.8645C11.5598 16.8085 11.5764 16.7504 11.5909 16.6923L12.1281 16.5451Z" fill="#FFE15A"/>
<path d="M12.2298 16.3399C12.2153 16.3668 12.2008 16.3938 12.1863 16.4228L11.6201 16.5763C11.645 16.4788 11.6657 16.3834 11.6823 16.3005L12.2298 16.3399Z" fill="#F5F5F5"/>
<path d="M12.3894 16.1241C12.3563 16.1552 12.3251 16.1946 12.294 16.2402L11.6989 16.1967C11.7071 16.1427 11.7133 16.0951 11.7133 16.0598C11.7133 16.0329 11.7113 16.008 11.7092 15.981C11.732 15.983 11.7569 15.983 11.7776 15.983C11.927 15.983 12.0327 15.9561 12.1095 15.9167C12.1945 16.0412 12.3044 16.0972 12.3894 16.1241Z" fill="#F5F5F5"/>
<path d="M12.5098 16.0391C12.4724 16.035 12.3066 16.0184 12.1945 15.8566C12.2505 15.8089 12.2775 15.7571 12.2899 15.7218C12.3521 15.5476 11.9187 15.2759 11.6532 15.1307C11.5288 15.0623 11.4313 14.9275 11.3442 14.772C11.3546 14.774 11.3629 14.774 11.3733 14.774C11.506 14.774 11.6118 14.7118 11.6677 14.6641C11.7175 14.7471 11.7631 14.8237 11.8046 14.8901C11.9933 15.2095 12.0805 15.3547 12.2816 15.4957C12.2878 15.4998 12.2961 15.504 12.3044 15.504C12.4019 15.5165 12.6839 15.5786 12.7005 15.7031C12.7234 15.8731 12.6611 15.981 12.5098 16.0391Z" fill="#F5F5F5"/>
<path d="M12.1924 15.6866C12.1696 15.7529 12.0742 15.9022 11.6968 15.8774C11.6636 15.6617 11.5682 15.5082 11.4168 15.4377C11.2198 15.3444 10.4835 14.8177 10.1476 14.5045C10.214 14.2929 10.3881 14.1208 10.6349 14.0295C10.6702 14.015 10.7013 14.0026 10.7283 13.988C10.7946 14.042 10.8548 14.1021 10.9046 14.1705C10.9813 14.2784 11.0477 14.4152 11.1182 14.5604C11.2488 14.8259 11.3836 15.1017 11.6035 15.222C12.0099 15.446 12.2111 15.6389 12.1924 15.6866Z" fill="#F5F5F5"/>
<path d="M11.6119 14.5749C11.5724 14.6144 11.4418 14.7035 11.2842 14.6579C11.2593 14.6102 11.2365 14.5625 11.2116 14.5148C11.1391 14.3655 11.0706 14.2245 10.9877 14.1104C10.94 14.042 10.8798 13.9818 10.8156 13.9279C10.9089 13.847 10.9234 13.7599 10.9275 13.6853C11.0914 13.8263 11.2449 14.0026 11.3859 14.2203C11.4749 14.3551 11.5475 14.4712 11.6119 14.5749Z" fill="#F5F5F5"/>
<path d="M10.8299 13.6085C10.8278 13.6251 10.8258 13.6438 10.8258 13.6625C10.8216 13.733 10.8154 13.8015 10.7324 13.8636C10.5582 13.7392 10.3571 13.6541 10.1849 13.5982C10.2638 13.5173 10.3156 13.4364 10.3405 13.3576C10.3405 13.3576 10.3405 13.3576 10.3425 13.3576C10.5125 13.4052 10.6764 13.4903 10.8299 13.6085Z" fill="#F5F5F5"/>
<path d="M10.6309 13.9175C10.6205 13.9216 10.6122 13.9279 10.5998 13.932C10.3405 14.0274 10.1497 14.2037 10.0647 14.4215C9.96311 14.3198 9.89054 14.2286 9.83242 14.156C9.76811 14.073 9.71425 14.0087 9.64783 13.9631C9.83444 13.8677 9.98378 13.7723 10.0979 13.679C10.0999 13.679 10.0999 13.679 10.102 13.679C10.2638 13.7288 10.4608 13.8034 10.6309 13.9175Z" fill="#F5F5F5"/>
<path d="M10.0004 13.623C9.89254 13.708 9.74118 13.8034 9.52752 13.9071C9.47774 13.8947 9.42801 13.8843 9.38652 13.876C9.2849 13.8574 9.21852 13.8429 9.16668 13.7848C9.13555 13.7516 9.07541 13.6583 9.01733 13.5401C9.02568 13.5442 9.03393 13.5484 9.04222 13.5504C9.10237 13.565 9.18735 13.538 9.29315 13.5007C9.42379 13.4571 9.58349 13.4032 9.72866 13.4218C9.8593 13.4384 9.8946 13.4903 9.93604 13.5483C9.95479 13.5732 9.97344 13.6002 10.0004 13.623Z" fill="#F5F5F5"/>
<path d="M10.2471 13.312C10.2305 13.3763 10.1849 13.4571 10.0812 13.5546C10.0563 13.538 10.0397 13.5152 10.021 13.4882C9.97541 13.4239 9.91733 13.343 9.74309 13.3202C9.5751 13.2974 9.40091 13.3555 9.25991 13.4032C9.18106 13.4301 9.0981 13.4592 9.06496 13.4508C9.02966 13.4425 8.98405 13.3865 8.98199 13.3305C8.97992 13.2662 9.038 13.2372 9.08567 13.2227C9.19353 13.1895 9.32417 13.2144 9.45275 13.2372C9.58339 13.2621 9.70785 13.2849 9.80736 13.2455C9.8758 13.2185 9.95464 13.1335 10.05 13.0111C10.1164 13.0256 10.1723 13.0485 10.2055 13.0961C10.2533 13.1647 10.2658 13.2373 10.2471 13.312Z" fill="#FFE15A"/>
<path d="M9.92997 12.9967C9.86566 13.0756 9.80964 13.1336 9.76825 13.1502C9.69775 13.1792 9.58783 13.1585 9.47168 13.1357C9.33897 13.1108 9.18757 13.0838 9.05688 13.1232C8.97804 13.146 8.93454 13.1854 8.9096 13.2227C8.88677 13.1087 8.88677 12.9987 8.93861 12.9116C8.99046 12.8204 9.0589 12.7436 9.12944 12.667C9.22277 12.6794 9.29116 12.6981 9.5276 12.9055C9.6085 12.976 9.73914 12.9843 9.86566 12.9905C9.88638 12.9926 9.90921 12.9947 9.92997 12.9967Z" fill="#F5F5F5"/>
<path d="M11.8565 12.1402C11.6242 12.2937 10.5893 12.9739 10.3736 13.0631C10.3633 13.0672 10.355 13.0755 10.3487 13.0838C10.3425 13.0941 10.3384 13.1024 10.3321 13.1128C10.3218 13.0858 10.3072 13.0609 10.2907 13.0361C10.2492 12.976 10.187 12.9428 10.1185 12.9221C10.1497 12.8826 10.1807 12.8412 10.2139 12.7955C10.3633 12.5902 10.5354 12.36 10.7324 12.1547C11.0705 11.8022 11.5225 11.5699 11.6739 11.4994C11.6968 11.7192 11.7465 11.9785 11.8565 12.1402Z" fill="#F5F5F5"/>
<path d="M11.6636 11.3895C11.5557 11.4372 11.0435 11.6798 10.6577 12.0822C10.4545 12.2937 10.2741 12.5363 10.131 12.7333C10.0874 12.7914 10.0459 12.8474 10.0065 12.8993C9.9609 12.8952 9.91529 12.891 9.8717 12.8889C9.75765 12.8806 9.6498 12.8744 9.59584 12.8267C9.39676 12.6525 9.30339 12.6007 9.21423 12.5779C9.22258 12.5696 9.22876 12.5613 9.23706 12.553C9.3677 12.4203 9.50458 12.2813 9.61244 12.0884C9.79904 11.7546 10.4233 11.0266 10.8298 10.7632L11.6532 11.1241C11.6532 11.1738 11.6553 11.2713 11.6636 11.3895Z" fill="#F5F5F5"/>
<path d="M6.40253 8.31083C6.23087 8.08368 6.16398 7.74426 6.18344 7.67746C6.18714 7.66541 6.19548 7.65796 6.20941 7.65337C6.25487 7.64132 6.3467 7.67094 6.44134 7.76455C6.45062 7.77383 6.46356 7.78494 6.47748 7.79887L6.40253 8.31083Z" fill="#F5F5F5"/>
<path d="M6.59733 8.51014C6.56025 8.47306 6.52219 8.43781 6.49341 8.41184L6.5693 7.88412C6.60366 7.9175 6.64167 7.9527 6.68339 7.98978L6.59733 8.51014Z" fill="#F5F5F5"/>
<path d="M6.80147 8.73733C6.76247 8.69004 6.72446 8.64555 6.68738 8.60383L6.77625 8.0733C6.81985 8.11132 6.86438 8.15215 6.90985 8.19101L6.80147 8.73733Z" fill="#FFE15A"/>
<path d="M6.93971 8.91995C6.92209 8.89492 6.90442 8.86989 6.88501 8.84392L7.0007 8.26886C7.07678 8.33467 7.15285 8.39584 7.21965 8.44778L6.93971 8.91995Z" fill="#F5F5F5"/>
<path d="M7.06131 9.15917C7.04833 9.11558 7.02695 9.07016 7 9.02197L7.30492 8.50897C7.34945 8.54047 7.38934 8.56738 7.42089 8.58313C7.44498 8.59518 7.46823 8.60446 7.49326 8.61463C7.48122 8.63413 7.47011 8.65635 7.46083 8.67496C7.39412 8.80855 7.37092 8.91524 7.37191 9.00149C7.22261 9.02188 7.12342 9.09519 7.06131 9.15917Z" fill="#F5F5F5"/>
<path d="M7.08361 9.30479C7.104 9.27324 7.19296 9.13224 7.38773 9.10435C7.40536 9.17579 7.43971 9.22304 7.46568 9.24995C7.5937 9.38345 8.03048 9.1171 8.27896 8.94451C8.39582 8.86379 8.55993 8.83684 8.73801 8.8284C8.73154 8.83674 8.72784 8.8442 8.72315 8.85343C8.66381 8.97212 8.67224 9.09456 8.68987 9.16599C8.5934 9.17345 8.50438 9.17996 8.42648 9.18741C8.05645 9.21352 7.8876 9.22656 7.67156 9.34351C7.66504 9.34721 7.65764 9.35279 7.65398 9.3602C7.59932 9.4418 7.41759 9.66634 7.29886 9.6256C7.13657 9.57001 7.0679 9.46618 7.08361 9.30479Z" fill="#F5F5F5"/>
<path d="M7.54094 9.17847C7.49177 9.12841 7.40083 8.97635 7.59176 8.64982C7.79955 8.71647 7.97941 8.69974 8.11019 8.59582C8.28171 8.46128 9.082 8.038 9.51222 7.87741C9.67178 8.0313 9.74791 8.26408 9.71927 8.5256C9.71655 8.56361 9.71374 8.59703 9.71467 8.6276C9.63677 8.66289 9.5561 8.6898 9.47261 8.70372C9.34183 8.72416 9.18972 8.72238 9.02833 8.7206C8.73246 8.71882 8.42547 8.71619 8.21965 8.85911C7.83766 9.12274 7.57521 9.21649 7.54094 9.17847Z" fill="#F5F5F5"/>
<path d="M8.79478 9.15575C8.77715 9.10287 8.75573 8.94617 8.86697 8.82556C8.92078 8.82458 8.97361 8.82551 9.02742 8.82458C9.19345 8.8264 9.3502 8.82814 9.48932 8.80494C9.57187 8.79284 9.65249 8.76594 9.72951 8.73251C9.76017 8.85214 9.8316 8.90403 9.89653 8.94111C9.69712 9.02464 9.4709 9.08318 9.21304 9.11201C9.05259 9.13156 8.91628 9.14459 8.79478 9.15575Z" fill="#F5F5F5"/>
<path d="M10.0087 8.88819C9.99474 8.8789 9.97899 8.86873 9.96226 8.86034C9.90104 8.82514 9.84258 8.78895 9.82397 8.68695C10.0131 8.58673 10.1791 8.44475 10.3061 8.3158C10.3433 8.42244 10.3925 8.50494 10.4518 8.56245C10.4518 8.56245 10.4518 8.56245 10.4509 8.56433C10.3323 8.69515 10.183 8.80372 10.0087 8.88819Z" fill="#F5F5F5"/>
<path d="M9.82127 8.57199C9.82221 8.56088 9.82033 8.55066 9.82221 8.53768C9.85273 8.26313 9.78026 8.01366 9.62341 7.84027C9.75977 7.79476 9.87382 7.77062 9.96471 7.75112C10.0676 7.73068 10.1493 7.71118 10.2197 7.67218C10.2217 7.88176 10.2402 8.05801 10.2728 8.20173C10.2718 8.2036 10.2718 8.2036 10.2709 8.20543C10.1541 8.32796 9.9993 8.47083 9.82127 8.57199Z" fill="#F5F5F5"/>
<path d="M10.3664 8.13958C10.3385 8.0051 10.3208 7.82707 10.3235 7.5896C10.3569 7.55065 10.3884 7.51071 10.4144 7.47738C10.4765 7.39483 10.5191 7.34191 10.5942 7.32148C10.6378 7.30849 10.7481 7.2964 10.8799 7.29729C10.8725 7.30287 10.865 7.3084 10.8595 7.31491C10.8196 7.36226 10.8058 7.45033 10.7919 7.56162C10.7725 7.69797 10.7493 7.86494 10.6678 7.98644C10.5945 8.0959 10.5324 8.10429 10.4619 8.11544C10.4313 8.12102 10.3989 8.12566 10.3664 8.13958Z" fill="#F5F5F5"/>
<path d="M10.5344 8.49941C10.4843 8.45586 10.4324 8.37889 10.3915 8.24253C10.4174 8.22767 10.4453 8.22303 10.4777 8.21839C10.5556 8.2063 10.6539 8.1905 10.7521 8.04486C10.8476 7.9048 10.8735 7.72297 10.8938 7.5755C10.9049 7.49295 10.916 7.40572 10.9383 7.3798C10.9614 7.35195 11.0319 7.33616 11.0829 7.35931C11.1414 7.38622 11.1414 7.45114 11.133 7.50027C11.1145 7.61159 11.0339 7.71734 10.956 7.82216C10.8754 7.92795 10.7993 8.02906 10.7901 8.1357C10.7836 8.20902 10.8245 8.31748 10.8913 8.4575C10.8487 8.51037 10.8032 8.55031 10.7458 8.55866C10.6634 8.57075 10.5929 8.54947 10.5344 8.49941Z" fill="#FFE15A"/>
<path d="M10.9582 8.35645C10.9164 8.26373 10.8895 8.18765 10.8932 8.14312C10.8987 8.06704 10.9664 7.97803 11.0387 7.88428C11.1202 7.7767 11.212 7.65328 11.2352 7.51879C11.25 7.43812 11.2342 7.3815 11.2119 7.34259C11.3241 7.37315 11.4224 7.42228 11.4772 7.50759C11.5356 7.59473 11.5737 7.69026 11.6108 7.78762C11.5579 7.86557 11.5107 7.91845 11.2195 8.03723C11.1203 8.0781 11.0545 8.19126 10.9924 8.30165C10.9813 8.31932 10.9693 8.33882 10.9582 8.35645Z" fill="#F5F5F5"/>
<path d="M10.8634 10.4627C10.83 10.1863 10.6839 8.95658 10.7005 8.7238C10.7014 8.71269 10.6976 8.70158 10.693 8.69225C10.6865 8.68208 10.681 8.67467 10.6744 8.66441C10.7032 8.66722 10.732 8.66534 10.7616 8.66159C10.834 8.65138 10.8915 8.61055 10.9406 8.55856C10.962 8.60403 10.9851 8.65039 11.0111 8.70045C11.1281 8.92578 11.2571 9.18261 11.3527 9.45064C11.5171 9.91062 11.5228 10.4188 11.5182 10.5858C11.3151 10.5412 11.0799 10.4909 10.8634 10.4627Z" fill="#F5F5F5"/>
<path d="M11.6212 10.6257C11.6268 10.5079 11.6386 9.94119 11.4511 9.41628C11.3526 9.13991 11.2162 8.8701 11.1039 8.654C11.0714 8.58908 11.0399 8.52697 11.0111 8.46852C11.0352 8.42957 11.0593 8.39057 11.0806 8.35255C11.139 8.25421 11.1927 8.1605 11.2595 8.1336C11.5044 8.03338 11.5925 7.973 11.6527 7.90344C11.6564 7.91455 11.6611 7.92383 11.6647 7.93499C11.7251 8.11115 11.7882 8.29569 11.9126 8.47841C12.1279 8.79458 12.5001 9.67831 12.5541 10.1596L11.8634 10.7349C11.8188 10.7127 11.7307 10.6711 11.6212 10.6257Z" fill="#F5F5F5"/>
<path d="M17.1646 7.97504C17.449 7.96187 17.7668 8.09856 17.8109 8.15237C17.8188 8.16226 17.8202 8.17332 17.8161 8.18743C17.8004 8.23177 17.724 8.29074 17.5933 8.31587C17.5804 8.31831 17.5638 8.32271 17.5446 8.32632L17.1646 7.97504Z" fill="#F5F5F5"/>
<path d="M16.89 8.02306C16.9416 8.01345 16.9922 8.00197 17.0298 7.99292L17.4223 8.35386C17.3754 8.36333 17.3248 8.37476 17.2706 8.38826L16.89 8.02306Z" fill="#F5F5F5"/>
<path d="M16.5874 8.06306C16.6484 8.05762 16.7066 8.05143 16.762 8.0444L17.1494 8.41757C17.0934 8.43206 17.0346 8.4457 16.9768 8.46121L16.5874 8.06306Z" fill="#FFE15A"/>
<path d="M16.3585 8.07387C16.3891 8.07345 16.4197 8.07308 16.4522 8.07172L16.8611 8.49223C16.7638 8.51778 16.6703 8.54595 16.5898 8.57168L16.3585 8.07387Z" fill="#F5F5F5"/>
<path d="M16.0925 8.03891C16.1358 8.05283 16.1854 8.06089 16.2403 8.06596L16.4912 8.6075C16.44 8.62644 16.3953 8.64411 16.3645 8.66122C16.3409 8.6743 16.3201 8.68817 16.2976 8.70308C16.2883 8.68213 16.2762 8.66038 16.2662 8.64224C16.1937 8.51169 16.1188 8.43228 16.0471 8.38433C16.1146 8.24961 16.1102 8.12633 16.0925 8.03891Z" fill="#F5F5F5"/>
<path d="M15.9598 7.97502C15.9742 8.00966 16.0402 8.1628 15.9532 8.33919C15.8843 8.31336 15.8259 8.315 15.789 8.32119C15.6066 8.35133 15.5794 8.86217 15.5812 9.1647C15.5818 9.30669 15.5113 9.45734 15.4176 9.60903C15.4144 9.59895 15.4103 9.59168 15.4053 9.58264C15.3409 9.46662 15.2351 9.40428 15.1663 9.3785C15.2146 9.29469 15.2596 9.21758 15.2975 9.14909C15.4851 8.82908 15.5698 8.6825 15.5954 8.43814C15.5961 8.43069 15.5956 8.42145 15.5916 8.41419C15.5552 8.32297 15.4727 8.04612 15.5735 7.97122C15.711 7.8687 15.8355 7.87086 15.9598 7.97502Z" fill="#F5F5F5"/>
<path d="M15.8054 8.42351C15.8745 8.41123 16.0514 8.42215 16.2128 8.76429C16.0403 8.89798 15.9524 9.05585 15.9643 9.22245C15.9783 9.43999 15.8751 10.3394 15.7642 10.7851C15.5471 10.8297 15.312 10.7609 15.1124 10.5895C15.0826 10.5656 15.0567 10.5445 15.0309 10.528C15.0458 10.4438 15.0692 10.362 15.1049 10.2853C15.1619 10.1659 15.2494 10.0414 15.3421 9.90935C15.5107 9.66631 15.6865 9.41454 15.685 9.16395C15.6836 8.69984 15.7546 8.43036 15.8054 8.42351Z" fill="#F5F5F5"/>
<path d="M15.1154 9.4707C15.169 9.48603 15.3104 9.557 15.347 9.71689C15.3173 9.7618 15.2867 9.80487 15.2571 9.84983C15.1617 9.98576 15.0716 10.114 15.0122 10.2419C14.9755 10.3168 14.9521 10.3986 14.9362 10.481C14.8201 10.4386 14.737 10.4682 14.6697 10.5009C14.7135 10.2892 14.7931 10.0694 14.9151 9.84045C14.9896 9.69706 15.0559 9.57725 15.1154 9.4707Z" fill="#F5F5F5"/>
<path d="M14.6498 10.6234C14.6654 10.6171 14.6827 10.6099 14.699 10.6008C14.7626 10.5703 14.8255 10.5424 14.9201 10.5848C14.8958 10.7975 14.9191 11.0147 14.9537 11.1923C14.8448 11.1627 14.7489 11.1566 14.6679 11.1731C14.6679 11.1731 14.6679 11.1731 14.6669 11.1713C14.6261 10.9994 14.621 10.8149 14.6498 10.6234Z" fill="#F5F5F5"/>
<path d="M15.0167 10.6475C15.0253 10.6545 15.0348 10.6588 15.0445 10.6676C15.2537 10.848 15.5004 10.9292 15.7321 10.8979C15.6926 11.0361 15.648 11.1439 15.6127 11.2298C15.5713 11.3263 15.5413 11.4047 15.5337 11.4848C15.3597 11.3679 15.2038 11.2837 15.0668 11.2293C15.0658 11.2274 15.0658 11.2274 15.0648 11.2257C15.0298 11.06 14.9995 10.8515 15.0167 10.6475Z" fill="#F5F5F5"/>
<path d="M15.0651 11.3416C15.1918 11.3946 15.3487 11.4807 15.543 11.6171C15.5563 11.6667 15.5714 11.7153 15.5842 11.7556C15.6172 11.8535 15.6367 11.9185 15.6111 11.992C15.5972 12.0354 15.5448 12.1332 15.4696 12.2414C15.4692 12.2321 15.4688 12.2229 15.4666 12.2146C15.4501 12.1549 15.3853 12.0937 15.3013 12.0193C15.1998 11.9262 15.0751 11.8128 15.021 11.6768C14.9721 11.5545 15.0003 11.4985 15.0309 11.4341C15.0438 11.4056 15.0582 11.3762 15.0651 11.3416Z" fill="#F5F5F5"/>
<path d="M14.6733 11.2768C14.7376 11.2602 14.8305 11.2608 14.966 11.3042C14.9636 11.334 14.9517 11.3596 14.9371 11.389C14.9031 11.46 14.8605 11.5501 14.9251 11.7135C14.9867 11.8715 15.1221 11.9955 15.2322 12.0957C15.294 12.1515 15.3596 12.21 15.3685 12.243C15.3784 12.2779 15.3516 12.3449 15.3036 12.374C15.2484 12.407 15.1948 12.3703 15.159 12.3356C15.0776 12.2574 15.036 12.1311 14.9935 12.0076C14.9519 11.8813 14.9115 11.7615 14.8287 11.6936C14.7719 11.6468 14.6593 11.6192 14.506 11.5951C14.4865 11.5301 14.4793 11.4701 14.5049 11.4178C14.5416 11.3428 14.599 11.2967 14.6733 11.2768Z" fill="#FFE15A"/>
<path d="M14.5518 11.7072C14.6518 11.7251 14.7298 11.7459 14.7644 11.7741C14.824 11.8217 14.8593 11.9278 14.8956 12.0405C14.9383 12.1686 14.9882 12.314 15.086 12.4091C15.1442 12.467 15.1999 12.4859 15.2445 12.4896C15.1559 12.5649 15.0598 12.6182 14.9584 12.6152C14.8535 12.6141 14.7532 12.5915 14.6519 12.5671C14.6175 12.4795 14.6006 12.4106 14.6672 12.1032C14.6896 11.9982 14.6334 11.88 14.5775 11.7663C14.5692 11.7473 14.56 11.7264 14.5518 11.7072Z" fill="#F5F5F5"/>
<path d="M12.8679 10.4384C13.1148 10.567 14.2118 11.1417 14.3944 11.287C14.403 11.294 14.4143 11.2973 14.4246 11.2986C14.4367 11.2991 14.446 11.2986 14.4581 11.2991C14.4395 11.3212 14.4248 11.346 14.4111 11.3726C14.3786 11.438 14.3798 11.5085 14.3949 11.5784C14.3454 11.5704 14.294 11.5633 14.238 11.5564C13.986 11.5255 13.7012 11.4867 13.4261 11.4141C12.9537 11.2896 12.5312 11.0071 12.3961 10.9089C12.5452 10.7756 12.7424 10.6029 12.8679 10.4384Z" fill="#F5F5F5"/>
<path d="M12.305 10.9714C12.3991 11.0425 12.8598 11.3727 13.3988 11.5147C13.6824 11.5897 13.9821 11.6297 14.2238 11.6592C14.2957 11.6691 14.3648 11.6782 14.4292 11.6875C14.4477 11.7294 14.4663 11.7713 14.4856 11.8104C14.5337 11.9142 14.5806 12.0115 14.5651 12.0818C14.5094 12.3404 14.5094 12.4472 14.5327 12.5362C14.5214 12.5329 14.5111 12.5316 14.4998 12.5284C14.3203 12.4785 14.1324 12.4263 13.9114 12.4256C13.5289 12.4244 12.5895 12.2319 12.1619 12.0043L12.0779 11.1094C12.1215 11.0851 12.2057 11.036 12.305 10.9714Z" fill="#F5F5F5"/>
<path d="M17.9056 8.10921C17.9006 8.10017 17.8966 8.0929 17.8907 8.08667C17.8104 7.98898 17.3403 7.8087 17.0069 7.89176C16.6469 7.98246 16.1568 8.00543 16.0353 7.90207C15.8798 7.76445 15.7069 7.75901 15.5361 7.8755L15.4671 7.8139L15.5695 7.51662C15.5743 7.50232 15.5726 7.48714 15.5657 7.47457C15.5621 7.4682 15.5572 7.46248 15.551 7.45793C15.5326 7.44448 15.5078 7.44453 15.4894 7.45803L15.1947 7.67614L14.9446 7.54901C14.9273 7.5402 14.9065 7.54179 14.8908 7.55314C14.8751 7.56443 14.867 7.58365 14.8699 7.60278L14.9234 7.96231L14.6573 8.26381C14.6429 8.28012 14.6402 8.30351 14.6504 8.32264C14.6607 8.3351 14.6816 8.35245 14.7031 8.34954L15.0301 8.30482L15.1112 8.6022C15.1172 8.62418 15.1359 8.63899 15.158 8.64031C15.1801 8.64171 15.2006 8.62892 15.2092 8.60838L15.3568 8.25101L15.4317 8.21299C15.4471 8.3126 15.4781 8.40331 15.4914 8.43879C15.4664 8.65432 15.3833 8.79528 15.2098 9.09795C15.1086 9.27035 14.9851 9.48359 14.8238 9.79137C14.5553 10.3033 14.4689 10.7758 14.5668 11.1959C14.5372 11.1981 14.4927 11.199 14.4461 11.1964C14.1986 11.0112 12.9206 10.3496 12.8665 10.3204C12.8635 10.3189 12.6556 10.1404 12.6556 10.1404C12.598 9.6364 12.2221 8.75079 11.9998 8.4199C11.8819 8.2474 11.8216 8.07125 11.7631 7.90057C11.7074 7.74293 11.6572 7.5927 11.5654 7.45175C11.3613 7.13647 10.7223 7.18123 10.5683 7.22028C10.4588 7.24911 10.3995 7.32607 10.3318 7.41514C10.3049 7.45043 10.2744 7.48845 10.2364 7.53204C10.1733 7.60254 10.0852 7.62115 9.94329 7.64998C9.83201 7.67318 9.69195 7.70295 9.50928 7.76698C9.08084 7.91918 8.22776 8.37401 8.04598 8.51506C7.86701 8.65517 7.60639 8.55973 7.46726 8.49021C7.27062 8.39201 6.67681 7.84962 6.51538 7.6902C6.40306 7.58079 6.27603 7.5289 6.18238 7.55403C6.14249 7.5642 6.11094 7.59021 6.0943 7.62359C6.08966 7.63287 6.08595 7.64028 6.08413 7.64862C6.04892 7.77012 6.16597 8.25978 6.42298 8.48782C6.70133 8.73349 6.99734 9.12476 6.98066 9.28338C6.95506 9.48949 7.0483 9.63518 7.241 9.71027L7.22919 9.80196L6.92619 9.88559C6.9117 9.88966 6.90008 9.8996 6.89366 9.91245C6.89037 9.91896 6.88845 9.92627 6.88822 9.93396C6.88752 9.95674 6.90163 9.97718 6.92314 9.98463L7.26964 10.1044L7.3062 10.3827C7.30869 10.402 7.32176 10.4182 7.34 10.4247C7.35819 10.4314 7.37862 10.4272 7.39283 10.414L7.65917 10.1666L8.05831 10.2156C8.07987 10.2183 8.10073 10.2072 8.11072 10.1881C8.11522 10.1725 8.11765 10.1455 8.10312 10.1294L7.88131 9.88493L8.08076 9.64995C8.09548 9.63251 8.09717 9.60879 8.08578 9.58985C8.07444 9.57082 8.05226 9.56107 8.03056 9.56566L7.65223 9.64587L7.57859 9.60556C7.65214 9.5366 7.70928 9.45973 7.73112 9.4287C7.92308 9.32754 8.08629 9.31634 8.43411 9.28835C8.63351 9.27438 8.87928 9.25573 9.22428 9.21481C9.79835 9.14688 10.237 8.95099 10.5281 8.63281C10.5467 8.65596 10.5726 8.69215 10.5967 8.73199C10.5838 9.04085 10.7606 10.469 10.7672 10.5303C10.7676 10.5335 10.7641 10.6846 10.7641 10.6846C10.3391 10.9626 9.71768 11.6904 9.52142 12.0364C9.41979 12.2189 9.2891 12.3516 9.16259 12.4802C9.04648 12.6005 8.9345 12.7125 8.84946 12.8576C8.65864 13.1812 8.98428 13.7328 9.08797 13.8531C9.16259 13.9382 9.25803 13.9568 9.36795 13.9776C9.4115 13.9859 9.45921 13.9962 9.51523 14.0107C9.60645 14.0356 9.66251 14.1061 9.75167 14.2202C9.82217 14.3094 9.91132 14.4213 10.0503 14.5562C10.378 14.8714 11.166 15.4313 11.3734 15.5309C11.5788 15.6284 11.6099 15.9042 11.6099 16.0597C11.6099 16.2796 11.39 17.0531 11.3195 17.2688C11.2719 17.4181 11.2822 17.5549 11.3465 17.6275C11.3734 17.6587 11.4108 17.6752 11.4481 17.6752C11.4585 17.6752 11.4668 17.6752 11.4751 17.6732C11.5995 17.6503 11.9852 17.3268 12.0745 16.995C12.1698 16.6362 12.3876 16.1966 12.5369 16.1406C12.7328 16.0714 12.8214 15.9229 12.8025 15.717L12.8898 15.6865L13.1 15.9203C13.1101 15.9314 13.1242 15.9374 13.1386 15.9374C13.1459 15.9374 13.1532 15.9359 13.1602 15.9326C13.1808 15.9231 13.1929 15.9013 13.19 15.8787L13.1424 15.5152L13.375 15.3582C13.391 15.3474 13.3998 15.3284 13.3975 15.3092C13.3953 15.2899 13.3824 15.2735 13.3643 15.2667L13.0239 15.139L12.8894 14.76C12.8821 14.7396 12.863 14.7258 12.8413 14.7255C12.8254 14.7284 12.8001 14.7384 12.7922 14.7585L12.6725 15.0662L12.3732 14.9928C12.351 14.9875 12.329 14.9965 12.3172 15.0152C12.3052 15.0339 12.3064 15.0581 12.3202 15.0755L12.5611 15.3781L12.558 15.462C12.4634 15.427 12.3691 15.4102 12.3316 15.4046C12.1553 15.2781 12.0723 15.1371 11.8919 14.8384C11.7903 14.6663 11.6638 14.4548 11.473 14.1644C11.1557 13.6812 10.7845 13.3764 10.3697 13.2581C10.3821 13.2311 10.4029 13.1917 10.4277 13.1523C10.7098 13.0258 11.9085 12.2294 11.9603 12.1962C11.961 12.1958 11.9609 12.1946 11.9616 12.1941L12.1238 12.1004C12.5733 12.337 13.5129 12.5268 13.9106 12.5305C14.1195 12.5308 14.299 12.5806 14.4727 12.6288C14.6343 12.672 14.7865 12.7156 14.9547 12.7195C15.3302 12.7293 15.6545 12.1768 15.7094 12.0278C15.7475 11.9213 15.7175 11.8288 15.6823 11.7227C15.6684 11.6806 15.6543 11.6338 15.6398 11.5778C15.6173 11.4859 15.6518 11.4027 15.7082 11.2694C15.752 11.1645 15.8066 11.0321 15.857 10.8453C15.9736 10.4058 16.0807 9.44496 16.0671 9.21532C16.0527 8.98849 16.2788 8.82743 16.4147 8.75196C16.6069 8.64528 17.39 8.46204 17.6128 8.41901C17.7665 8.38821 17.8811 8.31279 17.9134 8.22134C17.9274 8.18257 17.9238 8.14189 17.9056 8.10921ZM15.4226 8.10134L15.2927 8.16734C15.2816 8.17296 15.273 8.18234 15.2682 8.19378L15.1713 8.42848L15.1181 8.23385C15.1113 8.20821 15.0869 8.19256 15.0612 8.19607L14.8272 8.22804L15.0171 8.01298C15.0273 8.00145 15.0318 7.98607 15.0295 7.97103L14.9872 7.68701L15.1764 7.78315C15.1938 7.79211 15.2149 7.79037 15.2307 7.7787L15.417 7.64079L15.3579 7.81273C15.3512 7.83228 15.357 7.85412 15.3723 7.86828L15.46 7.94665C15.434 7.99067 15.4237 8.04485 15.4226 8.10134ZM15.2973 9.14909C15.485 8.82907 15.5697 8.68249 15.5953 8.43814C15.5959 8.43068 15.5955 8.42145 15.5915 8.41414C15.5551 8.32287 15.4726 8.04607 15.5733 7.97117C15.711 7.86865 15.8354 7.87076 15.9597 7.97496C15.9742 8.0096 16.0402 8.16274 15.9531 8.33914C15.8842 8.31331 15.8258 8.31495 15.789 8.32114C15.6065 8.35128 15.5793 8.86212 15.5812 9.16465C15.5817 9.30668 15.5112 9.45729 15.4175 9.60898C15.4143 9.5989 15.4103 9.59163 15.4052 9.58259C15.3408 9.46657 15.235 9.40423 15.1662 9.37845C15.2145 9.29468 15.2594 9.21757 15.2973 9.14909ZM14.9149 9.84049C14.9895 9.6971 15.0558 9.57729 15.1153 9.4707C15.1689 9.48602 15.3103 9.55699 15.3469 9.71698C15.3173 9.76188 15.2866 9.80501 15.257 9.84991C15.1616 9.98585 15.0715 10.1141 15.0121 10.242C14.9754 10.3169 14.952 10.3987 14.936 10.4811C14.82 10.4387 14.7369 10.4683 14.6695 10.501C14.7133 10.2892 14.793 10.0695 14.9149 9.84049ZM14.6498 10.6234C14.6653 10.6172 14.6826 10.6098 14.6989 10.6008C14.7625 10.5702 14.8254 10.5424 14.92 10.5848C14.8958 10.7974 14.9191 11.0147 14.9537 11.1923C14.8447 11.1627 14.7488 11.1566 14.6678 11.1731C14.6678 11.1731 14.6678 11.1731 14.6668 11.1713C14.626 10.9994 14.6209 10.8149 14.6498 10.6234ZM14.4245 11.2986C14.4366 11.2991 14.4459 11.2986 14.458 11.2991C14.4394 11.3212 14.4247 11.346 14.411 11.3726C14.3785 11.438 14.3797 11.5085 14.3948 11.5784C14.3453 11.5704 14.2939 11.5633 14.2379 11.5564C13.9859 11.5255 13.7011 11.4867 13.426 11.4141C12.9536 11.2896 12.5311 11.0071 12.396 10.9089C12.5259 10.7851 12.7139 10.6393 12.8677 10.4383C13.1147 10.5669 14.2116 11.1416 14.3943 11.2869C14.403 11.294 14.4143 11.2972 14.4245 11.2986ZM12.0593 12.0179L11.9447 12.0841C11.7461 11.7981 11.757 11.0988 11.757 11.0908C11.759 11.0701 11.7466 11.0514 11.728 11.0431L10.8689 10.6671L10.8738 10.579C11.3218 10.6306 11.8397 10.839 11.8469 10.8426C11.8645 10.8537 11.8868 10.8509 11.9025 10.8379L12.6154 10.2436L12.7688 10.3807C12.5465 10.6537 12.0057 11.0308 11.9988 11.0347C11.9796 11.043 11.9693 11.0628 11.9711 11.0832L12.0593 12.0179ZM11.6527 7.90353C11.6564 7.91464 11.6611 7.92396 11.6648 7.93503C11.7251 8.11123 11.7882 8.29582 11.9126 8.47845C12.1279 8.79462 12.5001 9.67835 12.5541 10.1597L11.8634 10.735C11.8189 10.7127 11.7307 10.671 11.6213 10.6256C11.6268 10.5078 11.6387 9.94113 11.4511 9.41623C11.3527 9.13985 11.2162 8.87004 11.104 8.65395C11.0715 8.58903 11.0399 8.52692 11.0111 8.46846C11.0352 8.42951 11.0593 8.39051 11.0807 8.35249C11.1391 8.25415 11.1928 8.16045 11.2596 8.13354C11.5044 8.03346 11.5924 7.97309 11.6527 7.90353ZM11.4773 7.50757C11.5357 7.59472 11.5738 7.69025 11.6109 7.78761C11.5581 7.86556 11.5108 7.91843 11.2196 8.03721C11.1204 8.07809 11.0546 8.19125 10.9925 8.30164C10.9814 8.31926 10.9693 8.33876 10.9582 8.35634C10.9164 8.26362 10.8895 8.18754 10.8932 8.14301C10.8987 8.06693 10.9664 7.97792 11.0387 7.88417C11.1203 7.77659 11.2121 7.65317 11.2352 7.51868C11.2501 7.43801 11.2342 7.38139 11.2119 7.34248C11.3241 7.37314 11.4225 7.42231 11.4773 7.50757ZM10.4144 7.47739C10.4765 7.39484 10.5191 7.34192 10.5942 7.32148C10.6378 7.3085 10.7482 7.2964 10.8799 7.29729C10.8725 7.30287 10.865 7.3084 10.8595 7.31492C10.8196 7.36226 10.8058 7.45034 10.7919 7.56162C10.7725 7.69798 10.7494 7.86495 10.6678 7.9865C10.5946 8.09595 10.5324 8.10434 10.4619 8.1155C10.4313 8.12107 10.3989 8.12567 10.3664 8.13964C10.3385 8.00515 10.3208 7.82712 10.3235 7.58965C10.3569 7.55065 10.3884 7.51081 10.4144 7.47739ZM9.96462 7.75114C10.0676 7.7307 10.1492 7.71115 10.2197 7.6722C10.2216 7.88178 10.2402 8.05803 10.2727 8.20174C10.2718 8.20362 10.2718 8.20362 10.2709 8.20545C10.154 8.32793 9.99921 8.47081 9.82118 8.57196C9.82212 8.56085 9.82024 8.55059 9.82212 8.53765C9.85263 8.2631 9.78017 8.01364 9.62342 7.84025C9.75963 7.79482 9.87378 7.77064 9.96462 7.75114ZM8.11001 8.59582C8.28153 8.46129 9.08182 8.03801 9.51204 7.87742C9.6716 8.03131 9.74773 8.26404 9.71909 8.5256C9.71637 8.56362 9.71356 8.59704 9.71449 8.6276C9.63659 8.6629 9.55592 8.68981 9.47243 8.70373C9.34165 8.72417 9.18954 8.72238 9.02815 8.7206C8.73228 8.71882 8.42529 8.7162 8.21947 8.85907C7.83744 9.1226 7.57503 9.2164 7.54067 9.17838C7.4915 9.12832 7.40056 8.97626 7.59153 8.64973C7.79937 8.71653 7.97933 8.69974 8.11001 8.59582ZM6.40245 8.31082C6.2308 8.08367 6.16391 7.74425 6.18336 7.67745C6.18706 7.6654 6.19541 7.658 6.20933 7.65336C6.2548 7.64131 6.34663 7.67093 6.44127 7.76454C6.45055 7.77382 6.46349 7.78493 6.47741 7.79886L6.40245 8.31082ZM6.59731 8.51014C6.56019 8.47306 6.52217 8.43781 6.49339 8.41184L6.56928 7.88412C6.60359 7.9175 6.64166 7.9527 6.68338 7.98978L6.59731 8.51014ZM6.68731 8.60374L6.77619 8.07321C6.81978 8.11123 6.86431 8.15206 6.90978 8.19092L6.80145 8.73724C6.76245 8.68999 6.72444 8.64551 6.68731 8.60374ZM6.93964 8.91996C6.92202 8.89493 6.90434 8.8699 6.88494 8.84393L7.00063 8.26887C7.0767 8.33473 7.15278 8.39585 7.21958 8.44779L6.93964 8.91996ZM7.00002 9.02196L7.30498 8.50896C7.34951 8.54046 7.38941 8.56737 7.42095 8.58312C7.44505 8.59517 7.4683 8.60445 7.49333 8.61462C7.48128 8.63407 7.47017 8.65634 7.46089 8.67495C7.39419 8.80854 7.37098 8.91523 7.37197 9.00143C7.22262 9.02187 7.12344 9.09523 7.06133 9.15921C7.0483 9.11562 7.02692 9.07015 7.00002 9.02196ZM7.61928 9.74623C7.63016 9.75213 7.64281 9.75406 7.6549 9.75143L7.90334 9.69874L7.77284 9.85259C7.75555 9.87269 7.75644 9.90166 7.77392 9.92093L7.93255 10.0958L7.64783 10.0608C7.63255 10.0589 7.61741 10.0639 7.60625 10.0743L7.39587 10.2698L7.36822 10.0594C7.36573 10.0399 7.35237 10.0235 7.33376 10.017L7.11472 9.94137L7.29003 9.89295C7.30991 9.88737 7.32467 9.8703 7.32762 9.84959L7.34267 9.73296C7.39367 9.72959 7.4442 9.70746 7.49136 9.67638L7.61928 9.74623ZM8.72314 8.85345C8.66379 8.97213 8.67223 9.09457 8.68986 9.16601C8.59339 9.17346 8.50437 9.17998 8.42647 9.18743C8.05644 9.21354 7.88759 9.22657 7.67155 9.34352C7.66503 9.34718 7.65762 9.35281 7.65397 9.36021C7.59931 9.44182 7.41758 9.66635 7.29884 9.62562C7.13647 9.57002 7.06784 9.46615 7.08355 9.30476C7.10394 9.27321 7.19291 9.13221 7.38767 9.10432C7.4053 9.17576 7.43966 9.22301 7.46562 9.24992C7.59364 9.38341 8.03042 9.11707 8.2789 8.94448C8.39576 8.86376 8.55987 8.83681 8.73795 8.82837C8.73153 8.83671 8.72782 8.84412 8.72314 8.85345ZM9.21298 9.11201C9.05253 9.13156 8.91617 9.14459 8.79467 9.15579C8.77704 9.10292 8.75567 8.94621 8.86686 8.8256C8.92067 8.82462 8.9735 8.82556 9.02731 8.82462C9.19334 8.82645 9.35009 8.82823 9.48921 8.80498C9.57176 8.79293 9.65243 8.76598 9.7294 8.73256C9.76006 8.85218 9.83149 8.90407 9.89642 8.94115C9.69706 9.02463 9.47079 9.08313 9.21298 9.11201ZM10.4509 8.56437C10.3323 8.6952 10.183 8.80376 10.0086 8.88823C9.99471 8.87895 9.97896 8.86878 9.96223 8.86038C9.90101 8.82518 9.84256 8.78899 9.82395 8.68699C10.0131 8.58678 10.1791 8.44484 10.3061 8.31584C10.3432 8.42248 10.3924 8.50498 10.4517 8.56249C10.4519 8.56249 10.4519 8.56249 10.4509 8.56437ZM10.5344 8.4994C10.4843 8.45581 10.4323 8.37889 10.3915 8.24253C10.4174 8.22767 10.4453 8.22303 10.4777 8.21839C10.5556 8.20629 10.6539 8.19049 10.7521 8.04485C10.8476 7.90479 10.8735 7.72296 10.8938 7.5755C10.9049 7.49295 10.916 7.40572 10.9383 7.37979C10.9614 7.35195 11.0319 7.33615 11.0829 7.35931C11.1414 7.38622 11.1414 7.45114 11.133 7.50026C11.1145 7.61159 11.0339 7.71734 10.956 7.82215C10.8754 7.92795 10.7994 8.02906 10.7901 8.1357C10.7837 8.20901 10.8245 8.31748 10.8913 8.45754C10.8487 8.51042 10.8033 8.55035 10.7458 8.5587C10.6633 8.57074 10.5928 8.54946 10.5344 8.4994ZM10.7005 8.72374C10.7014 8.71263 10.6976 8.70153 10.693 8.6922C10.6865 8.68203 10.681 8.67462 10.6744 8.66435C10.7032 8.66717 10.732 8.66529 10.7616 8.66154C10.834 8.65132 10.8914 8.61049 10.9406 8.55851C10.9619 8.60398 10.9851 8.65034 11.0111 8.7004C11.1281 8.92577 11.2571 9.18256 11.3527 9.45059C11.517 9.91057 11.5227 10.4188 11.5182 10.5858C11.3171 10.5421 11.113 10.4967 10.8634 10.4627C10.83 10.1863 10.6839 8.95657 10.7005 8.72374ZM9.23712 12.5529C9.36776 12.4202 9.50464 12.2813 9.61249 12.0884C9.7991 11.7545 10.4234 11.0265 10.8299 10.7632L11.6532 11.1241C11.6532 11.1738 11.6553 11.2713 11.6636 11.3895C11.5557 11.4372 11.0435 11.6799 10.6578 12.0822C10.4546 12.2937 10.2741 12.5364 10.131 12.7334C10.0874 12.7915 10.0459 12.8474 10.0065 12.8993C9.96092 12.8952 9.91531 12.891 9.87171 12.889C9.75767 12.8807 9.64981 12.8744 9.59585 12.8268C9.39678 12.6526 9.3034 12.6007 9.21425 12.5779C9.22259 12.5695 9.22882 12.5612 9.23712 12.5529ZM8.90947 13.2228C8.88664 13.1088 8.88664 12.9988 8.93848 12.9117C8.99032 12.8205 9.05876 12.7437 9.12931 12.667C9.22264 12.6795 9.29103 12.6982 9.52746 12.9055C9.60837 12.976 9.73901 12.9844 9.86553 12.9906C9.88624 12.9926 9.90907 12.9947 9.92984 12.9968C9.86553 13.0756 9.80951 13.1336 9.76812 13.1502C9.69762 13.1793 9.5877 13.1585 9.47154 13.1357C9.33884 13.1108 9.18743 13.0839 9.05675 13.1232C8.9779 13.146 8.93436 13.1854 8.90947 13.2228ZM9.08576 13.2228C9.19362 13.1897 9.32426 13.2145 9.45284 13.2373C9.58348 13.2622 9.70793 13.285 9.80745 13.2456C9.87589 13.2187 9.95473 13.1336 10.0501 13.0113C10.1164 13.0257 10.1724 13.0486 10.2056 13.0963C10.2533 13.1647 10.2657 13.2373 10.2471 13.312C10.2305 13.3763 10.1849 13.4571 10.0812 13.5546C10.0563 13.538 10.0397 13.5152 10.021 13.4882C9.9754 13.4239 9.91732 13.343 9.74309 13.3202C9.57509 13.2974 9.4009 13.3555 9.2599 13.4032C9.18106 13.4301 9.09809 13.4592 9.06495 13.4508C9.02965 13.4425 8.98404 13.3865 8.98198 13.3305C8.97996 13.2663 9.03804 13.2373 9.08576 13.2228ZM9.52746 13.9071C9.47768 13.8947 9.42795 13.8843 9.38646 13.876C9.28484 13.8574 9.21846 13.8429 9.16662 13.7848C9.1355 13.7516 9.07536 13.6583 9.01728 13.5401C9.02562 13.5442 9.03387 13.5484 9.04217 13.5505C9.10231 13.565 9.18729 13.538 9.29309 13.5007C9.42373 13.4571 9.58343 13.4032 9.7286 13.4218C9.85924 13.4384 9.89454 13.4903 9.93598 13.5483C9.95463 13.5732 9.97334 13.6002 10.0003 13.623C9.89248 13.708 9.74107 13.8034 9.52746 13.9071ZM9.83234 14.156C9.76803 14.0731 9.71417 14.0088 9.64775 13.9631C9.83435 13.8678 9.9837 13.7723 10.0978 13.679C10.0999 13.679 10.0999 13.679 10.1019 13.679C10.2636 13.7288 10.4607 13.8035 10.6308 13.9175C10.6204 13.9217 10.6121 13.9279 10.5996 13.932C10.3404 14.0274 10.1496 14.2037 10.0646 14.4215C9.96298 14.3199 9.89042 14.2286 9.83234 14.156ZM11.4168 15.4376C11.2198 15.3443 10.4835 14.8176 10.1476 14.5044C10.214 14.2928 10.3882 14.1207 10.635 14.0294C10.6703 14.0149 10.7014 14.0025 10.7283 13.9879C10.7947 14.0419 10.8548 14.102 10.9046 14.1704C10.9814 14.2783 11.0477 14.4151 11.1182 14.5603C11.2489 14.8258 11.3837 15.1016 11.6035 15.2219C12.01 15.4458 12.2111 15.6387 12.1925 15.6864C12.1697 15.7528 12.0743 15.9021 11.6968 15.8772C11.6636 15.6617 11.5682 15.5082 11.4168 15.4376ZM11.4561 17.5717C11.4437 17.5737 11.4333 17.5696 11.423 17.5592C11.3919 17.5239 11.3774 17.4286 11.4189 17.302C11.423 17.2896 11.4272 17.273 11.4334 17.2544L11.9249 17.0926C11.7984 17.3477 11.5246 17.5593 11.4561 17.5717ZM11.9746 16.9661L11.4686 17.1341C11.4831 17.0885 11.4976 17.0387 11.5121 16.9847L12.0161 16.8292C11.9995 16.879 11.985 16.9288 11.9746 16.9661ZM12.0596 16.7069L11.5453 16.8645C11.5598 16.8085 11.5764 16.7504 11.5909 16.6923L12.128 16.5451C12.1032 16.6011 12.0804 16.655 12.0596 16.7069ZM12.1862 16.4227L11.6201 16.5762C11.6449 16.4787 11.6657 16.3833 11.6823 16.3004L12.2298 16.3398C12.2152 16.3668 12.2007 16.3937 12.1862 16.4227ZM12.294 16.2402L11.6989 16.1967C11.7071 16.1427 11.7133 16.0951 11.7133 16.0598C11.7133 16.0329 11.7113 16.008 11.7092 15.981C11.732 15.983 11.7569 15.983 11.7776 15.983C11.927 15.983 12.0327 15.9561 12.1095 15.9167C12.1945 16.0411 12.3044 16.0971 12.3895 16.124C12.3563 16.1552 12.3251 16.1946 12.294 16.2402ZM12.4959 15.1297L12.6918 15.1777C12.7175 15.1841 12.7431 15.1704 12.7525 15.1462L12.838 14.9261L12.9339 15.1965C12.9391 15.211 12.9503 15.2223 12.9646 15.2277L13.2334 15.3286L13.0575 15.4473C13.0412 15.4583 13.0325 15.4775 13.035 15.497L13.0652 15.7268L12.9436 15.5916C12.9297 15.5763 12.9078 15.5708 12.888 15.5773L12.7769 15.6159C12.7511 15.5718 12.7087 15.5365 12.6598 15.5082L12.6652 15.3626C12.6656 15.3502 12.6617 15.3381 12.654 15.3284L12.4959 15.1297ZM11.8046 14.8901C11.9933 15.2095 12.0804 15.3547 12.2816 15.4957C12.2877 15.4998 12.296 15.504 12.3044 15.504C12.4018 15.5165 12.6839 15.5786 12.7005 15.7031C12.7233 15.8732 12.6611 15.981 12.5096 16.039C12.4723 16.0349 12.3064 16.0183 12.1944 15.8566C12.2504 15.8089 12.2774 15.757 12.2898 15.7217C12.352 15.5476 11.9186 15.2759 11.6531 15.1307C11.5287 15.0623 11.4312 14.9275 11.3441 14.7719C11.3545 14.774 11.3628 14.774 11.3732 14.774C11.5059 14.774 11.6117 14.7118 11.6676 14.6641C11.7175 14.7471 11.7631 14.8238 11.8046 14.8901ZM11.3856 14.2203C11.4748 14.3552 11.5474 14.4713 11.6117 14.575C11.5722 14.6144 11.4416 14.7035 11.284 14.6579C11.2591 14.6102 11.2363 14.5625 11.2114 14.5149C11.1389 14.3655 11.0704 14.2245 10.9875 14.1104C10.9398 14.042 10.8796 13.9818 10.8154 13.9279C10.9087 13.847 10.9232 13.7599 10.9273 13.6853C11.0912 13.8263 11.2446 14.0026 11.3856 14.2203ZM10.8299 13.6085C10.8278 13.6251 10.8258 13.6438 10.8258 13.6625C10.8216 13.733 10.8154 13.8015 10.7324 13.8636C10.5582 13.7392 10.3571 13.6541 10.1849 13.5982C10.2638 13.5173 10.3156 13.4364 10.3405 13.3576C10.3405 13.3576 10.3405 13.3576 10.3425 13.3576C10.5125 13.4052 10.6764 13.4903 10.8299 13.6085ZM10.3736 13.0631C10.3632 13.0672 10.3549 13.0756 10.3487 13.0838C10.3425 13.0942 10.3384 13.1025 10.3321 13.1128C10.3218 13.0859 10.3072 13.061 10.2906 13.0361C10.2492 12.976 10.1869 12.9428 10.1185 12.9221C10.1496 12.8827 10.1807 12.8412 10.2139 12.7956C10.3632 12.5903 10.5354 12.3601 10.7324 12.1548C11.0704 11.8022 11.5225 11.5699 11.6739 11.4994C11.6967 11.7192 11.7465 11.9785 11.8564 12.1402C11.6241 12.2936 10.5893 12.9739 10.3736 13.0631ZM14.565 12.0817C14.5093 12.3403 14.5092 12.4471 14.5326 12.5361C14.5213 12.5329 14.5111 12.5314 14.4998 12.5282C14.3203 12.4784 14.1324 12.4262 13.9114 12.4254C13.5289 12.4243 12.5895 12.2318 12.1619 12.0042L12.0778 11.1092C12.1213 11.0851 12.2055 11.0359 12.3049 10.9713C12.3989 11.0424 12.8597 11.3726 13.3987 11.5146C13.6823 11.5896 13.982 11.6296 14.2237 11.6591C14.2956 11.669 14.3647 11.6781 14.4291 11.6874C14.4476 11.7293 14.4662 11.7712 14.4855 11.8103C14.5337 11.9141 14.5805 12.0114 14.565 12.0817ZM14.9584 12.6152C14.8535 12.6142 14.7532 12.5916 14.6519 12.5672C14.6175 12.4795 14.6005 12.4106 14.6672 12.1032C14.6896 11.9983 14.6334 11.8801 14.5775 11.7664C14.5692 11.7473 14.56 11.7263 14.5518 11.7072C14.6518 11.7252 14.7298 11.7459 14.7644 11.7742C14.824 11.8217 14.8593 11.9279 14.8956 12.0405C14.9383 12.1686 14.9882 12.3141 15.0861 12.4092C15.1443 12.467 15.1999 12.486 15.2446 12.4896C15.1559 12.565 15.0597 12.6183 14.9584 12.6152ZM15.3035 12.3738C15.2484 12.4068 15.1947 12.3702 15.1589 12.3355C15.0775 12.2573 15.0359 12.131 14.9935 12.0075C14.9518 11.8812 14.9114 11.7613 14.8286 11.6935C14.7718 11.6467 14.6592 11.6191 14.506 11.595C14.4864 11.53 14.4792 11.4699 14.5048 11.4177C14.5415 11.3428 14.5989 11.2967 14.6733 11.2768C14.7375 11.2601 14.8304 11.2608 14.9659 11.3041C14.9635 11.3339 14.9516 11.3595 14.9371 11.3889C14.903 11.46 14.8605 11.55 14.9251 11.7134C14.9867 11.8714 15.122 11.9955 15.2321 12.0956C15.294 12.1515 15.3596 12.2099 15.3685 12.243C15.3783 12.2778 15.3515 12.3449 15.3035 12.3738ZM15.6111 11.992C15.5972 12.0353 15.5447 12.1332 15.4696 12.2414C15.4692 12.2321 15.4688 12.2228 15.4666 12.2146C15.4501 12.1549 15.3853 12.0937 15.3013 12.0193C15.1998 11.9262 15.0752 11.8128 15.021 11.6768C14.9721 11.5545 15.0003 11.4985 15.0309 11.4341C15.0436 11.4056 15.0581 11.3762 15.065 11.3416C15.1916 11.3946 15.3485 11.4807 15.5429 11.6171C15.5562 11.6667 15.5712 11.7153 15.5842 11.7556C15.6172 11.8534 15.6367 11.9185 15.6111 11.992ZM15.6126 11.2298C15.5712 11.3263 15.5412 11.4047 15.5335 11.4848C15.3595 11.3679 15.2036 11.2837 15.0667 11.2293C15.0657 11.2274 15.0657 11.2274 15.0647 11.2256C15.0297 11.0601 14.9993 10.8516 15.0166 10.6475C15.0252 10.6546 15.0347 10.6588 15.0444 10.6677C15.2536 10.8481 15.5003 10.9293 15.732 10.898C15.6924 11.036 15.6479 11.1438 15.6126 11.2298ZM15.9642 9.22249C15.9782 9.44004 15.875 10.3394 15.7642 10.7851C15.5471 10.8297 15.312 10.761 15.1124 10.5895C15.0826 10.5657 15.0566 10.5446 15.0309 10.5281C15.0458 10.4439 15.0692 10.3621 15.1049 10.2854C15.1619 10.1659 15.2494 10.0415 15.3421 9.9094C15.5107 9.66635 15.6865 9.41459 15.685 9.16399C15.6835 8.69988 15.7546 8.4304 15.8053 8.42356C15.8744 8.41128 16.0513 8.4222 16.2127 8.76434C16.0403 8.89798 15.9524 9.0559 15.9642 9.22249ZM16.3643 8.66121C16.3407 8.67429 16.32 8.68817 16.2974 8.70307C16.2881 8.68212 16.2761 8.66037 16.266 8.64223C16.1935 8.51168 16.1186 8.43228 16.047 8.38432C16.1145 8.2496 16.1101 8.12632 16.0924 8.0389C16.1357 8.05282 16.1853 8.06089 16.2403 8.06595L16.4911 8.60749C16.4398 8.62638 16.3951 8.6441 16.3643 8.66121ZM16.5897 8.57163L16.3585 8.07378C16.3891 8.07335 16.4197 8.07298 16.4521 8.07162L16.861 8.49214C16.7638 8.51773 16.6703 8.54595 16.5897 8.57163ZM16.9767 8.4612L16.5873 8.06304C16.6483 8.0576 16.7066 8.05142 16.7619 8.04439L17.1493 8.41756C17.0934 8.43204 17.0345 8.44573 16.9767 8.4612ZM17.2706 8.38821L16.89 8.0231C16.9416 8.0135 16.9922 8.00201 17.0298 7.99296L17.4223 8.3539C17.3754 8.36323 17.3248 8.37471 17.2706 8.38821ZM17.5933 8.31584C17.5804 8.31823 17.5639 8.32268 17.5446 8.32629L17.1647 7.97501C17.4491 7.96184 17.7669 8.09853 17.811 8.15234C17.8189 8.16223 17.8203 8.17329 17.8162 8.1874C17.8005 8.2317 17.7241 8.29067 17.5933 8.31584Z" fill="#464655"/>
</svg>
