<svg width="24" height="24" viewBox="0 0 24 24" fill="none" xmlns="http://www.w3.org/2000/svg">
<path d="M23.5861 4.13794H0.413812C0.185297 4.13794 0 4.32319 0 4.5517V19.4482C0 19.6767 0.185297 19.862 0.413812 19.862H23.5862C23.8147 19.862 24 19.6767 24 19.4482V4.5517C24 4.32319 23.8147 4.13794 23.5861 4.13794Z" fill="#73AF00"/>
<path d="M24 4.55169C24 4.32317 23.8147 4.13788 23.5861 4.13788H21.7345L12 10.5158L2.26542 4.13793H0.413812C0.185297 4.13793 0 4.32317 0 4.55169V5.62213L9.73456 12L0 18.3778V19.4483C0 19.6768 0.185297 19.8621 0.413812 19.8621H2.26542L12 13.4842L21.7345 19.862H23.5861C23.8147 19.862 24 19.6767 24 19.4482V18.3778L14.2654 12L24 5.62213V4.55169Z" fill="#FFE15A"/>
<path d="M23.9999 5.62213V18.3778L14.2654 12L23.9999 5.62213Z" fill="#464655"/>
<path d="M0 18.3778V5.62213L9.73456 12L0 18.3778Z" fill="#464655"/>
</svg>
