<svg width="24" height="24" viewBox="0 0 24 24" fill="none" xmlns="http://www.w3.org/2000/svg">
<g clip-path="url(#clip0_2058_8462)">
<path d="M9.93105 19.8621H0.413813C0.185297 19.8621 0 19.6768 0 19.4483V4.55175C0 4.32324 0.185297 4.13794 0.413813 4.13794H9.93105V19.8621Z" fill="#F5F5F5"/>
<path d="M6.62073 4.13799L9.93109 5.12072L6.62073 6.10346L9.93109 7.0862L6.62073 8.06893L9.93109 9.05167L6.62073 10.0344L9.93109 11.0171L6.62073 11.9999L9.93109 12.9826L6.62073 13.9653L9.93109 14.9481L6.62073 15.9308L9.93109 16.9136L6.62073 17.8963L9.93109 18.879L6.62073 19.8618H23.5862C23.8147 19.8618 24 19.6765 24 19.448V4.55175C24 4.32324 23.8147 4.13794 23.5862 4.13794L6.62073 4.13799Z" fill="#FF4B55"/>
</g>
<defs>
<clipPath id="clip0_2058_8462">
<rect width="24" height="24" fill="white"/>
</clipPath>
</defs>
</svg>
