<svg width="24" height="24" viewBox="0 0 24 24" fill="none" xmlns="http://www.w3.org/2000/svg">
<path d="M23.5875 19.8609H0.4125C0.182813 19.8609 0 19.6734 0 19.4484V4.55154C0 4.32185 0.1875 4.13904 0.4125 4.13904H23.5828C23.8125 4.13904 23.9953 4.32654 23.9953 4.55154V19.4484C24 19.6781 23.8125 19.8609 23.5875 19.8609Z" fill="#F5F5F5"/>
<path d="M23.5875 19.8609H0.4125C0.182813 19.8609 0 19.6734 0 19.4484V17.3812H24V19.4484C24 19.6781 23.8125 19.8609 23.5875 19.8609Z" fill="#FF4B55"/>
<path d="M0.4125 4.13904H23.5828C23.8125 4.13904 23.9953 4.32654 23.9953 4.55154V6.61873H0V4.55154C0 4.32185 0.1875 4.13904 0.4125 4.13904Z" fill="#FF4B55"/>
<path d="M24 9.10315H0V14.8969H24V9.10315Z" fill="#41479B"/>
</svg>
