<svg width="24" height="24" viewBox="0 0 24 24" fill="none" xmlns="http://www.w3.org/2000/svg">
<path d="M0 5.88505H24V4.55174C24 4.32322 23.8147 4.13792 23.5861 4.13792H0.413812C0.185297 4.13792 0 4.32322 0 4.55174V5.88505Z" fill="#FFE15A"/>
<path d="M24 5.88515H0V7.63218H24V5.88515Z" fill="#FF4B55"/>
<path d="M24 7.63217H0V9.3792H24V7.63217Z" fill="#FFE15A"/>
<path d="M24 9.3792H0V11.1262H24V9.3792Z" fill="#FF4B55"/>
<path d="M24 11.1262H0V12.8732H24V11.1262Z" fill="#FFE15A"/>
<path d="M0.413812 19.862H23.5862C23.8147 19.862 24 19.6767 24 19.4482V18.1149H0V19.4482C0 19.6768 0.185297 19.862 0.413812 19.862Z" fill="#FFE15A"/>
<path d="M24 12.8738H0V14.6208H24V12.8738Z" fill="#FF4B55"/>
<path d="M24 14.6208H0V16.3678H24V14.6208Z" fill="#FFE15A"/>
<path d="M24 16.3678H0V18.1148H24V16.3678Z" fill="#FF4B55"/>
<path d="M11.5862 12H0.413812C0.185297 12 0 11.8147 0 11.5862V4.55174C0 4.32322 0.185297 4.13792 0.413812 4.13792H11.5862C11.8147 4.13792 12 4.32322 12 4.55174V11.5862C11.9999 11.8148 11.8147 12 11.5862 12Z" fill="#64466E"/>
<path d="M11.0363 7.62252H10.0835V6.53357H10.2196V6.26137H10.0835H8.99456H8.85843V6.53357H8.99456V7.62252H8.45011V6.53357H8.58618V6.26137H8.45006H7.36111H7.22498V6.53357H7.36111V7.62252H6.54445V6.26137H6.68058V5.98917H5.31943V6.26137H5.45555V7.62252H4.63885V6.53357H4.77497V6.26137H4.63885H3.54994H3.41382V6.53357H3.54994V7.62252H3.00549V6.53357H3.14162V6.26137H3.00549H1.91659H1.78046V6.53357H1.91659V7.62252H0.963761H0.827637V7.89473H0.963761V10.3448H1.91659H2.86941V9.52813C2.86941 9.37775 2.99129 9.25593 3.14162 9.25593C3.29199 9.25593 3.41382 9.37785 3.41382 9.52813V10.3448H3.54994H4.6389H4.77502V9.52813C4.77502 9.37775 4.89689 9.25593 5.04722 9.25593C5.1976 9.25593 5.31943 9.37785 5.31943 9.52813V10.3448H5.45555H5.59167V9.39196C5.59167 9.16644 5.77453 8.98358 6.00005 8.98358C6.22556 8.98358 6.40842 9.16644 6.40842 9.39196V10.3448H6.54455H6.68067V9.52813C6.68067 9.37775 6.80255 9.25593 6.95287 9.25593C7.1032 9.25593 7.22508 9.37785 7.22508 9.52813V10.3448H7.3612H8.45015H8.58609V9.52813C8.58609 9.37775 8.70797 9.25593 8.85829 9.25593C9.00867 9.25593 9.1305 9.37785 9.1305 9.52813V10.3448H10.0833H11.0361V7.89473H11.1723V7.62252H11.0363ZM2.73324 8.71143H2.18879V7.89477C2.18879 7.7444 2.31067 7.62257 2.46099 7.62257C2.61132 7.62257 2.7332 7.74449 2.7332 7.89477L2.73324 8.71143ZM4.36665 8.71143H3.82219V7.89477C3.82219 7.7444 3.94407 7.62257 4.0944 7.62257C4.24477 7.62257 4.3666 7.74449 4.3666 7.89477L4.36665 8.71143ZM6.27225 7.89477H5.7278V7.35032C5.7278 7.19995 5.84967 7.07812 6 7.07812C6.15033 7.07812 6.2722 7.20004 6.2722 7.35032L6.27225 7.89477ZM8.17786 8.71143H7.63341V7.89477C7.63341 7.7444 7.75528 7.62257 7.90561 7.62257C8.05598 7.62257 8.17781 7.74449 8.17781 7.89477L8.17786 8.71143ZM9.81126 8.71143H9.26681V7.89477C9.26681 7.7444 9.38868 7.62257 9.53901 7.62257C9.68934 7.62257 9.81121 7.74449 9.81121 7.89477L9.81126 8.71143Z" fill="#F5F5F5"/>
</svg>
