<svg width="24" height="24" viewBox="0 0 24 24" fill="none" xmlns="http://www.w3.org/2000/svg">
<path d="M8.00002 19.8619H0.413813C0.185297 19.8619 0 19.6766 0 19.4481V4.5516C0 4.32308 0.185297 4.13779 0.413813 4.13779H8.00002V19.8619Z" fill="#73AF00"/>
<path d="M16.0003 4.13797H8.00012V19.8622H16.0003V4.13797Z" fill="#FF4B55"/>
<path d="M23.5861 19.8619H15.9999V4.13779H23.5861C23.8146 4.13779 23.9999 4.32308 23.9999 4.5516V19.4481C23.9999 19.6767 23.8146 19.8619 23.5861 19.8619Z" fill="#FFE15A"/>
<path d="M12.0859 10.4832L12.4414 11.5492L13.565 11.5578C13.6521 11.5585 13.6881 11.6696 13.6181 11.7213L12.7142 12.3888L13.0531 13.4602C13.0794 13.5432 12.9849 13.6118 12.9141 13.5612L11.9999 12.9078L11.0857 13.5613C11.0149 13.6119 10.9204 13.5432 10.9467 13.4602L11.2856 12.3889L10.3817 11.7214C10.3116 11.6697 10.3477 11.5585 10.4348 11.5579L11.5584 11.5492L11.9139 10.4832C11.9415 10.4006 12.0583 10.4006 12.0859 10.4832Z" fill="#FFE15A"/>
</svg>
