<svg width="24" height="24" viewBox="0 0 24 24" fill="none" xmlns="http://www.w3.org/2000/svg">
<path d="M23.5861 19.862H0.413812C0.185297 19.862 0 19.6767 0 19.4482V4.55175C0 4.32324 0.185297 4.13794 0.413812 4.13794H23.5862C23.8147 4.13794 24 4.32324 24 4.55175V19.4482C24 19.6768 23.8147 19.862 23.5861 19.862Z" fill="#F5F5F5"/>
<path d="M12 12V4.13794H0.41385C0.313257 4.13794 0.224429 4.17825 0.15271 4.23797L12 12Z" fill="#464655"/>
<path d="M23.8472 4.23798L11.9999 12H23.9998V4.55176C23.9999 4.42383 23.9384 4.31382 23.8472 4.23798Z" fill="#464655"/>
<path d="M0.152625 19.7621L11.9999 12H0V19.4482C0 19.5762 0.061453 19.6862 0.152625 19.7621Z" fill="#464655"/>
<path d="M11.9999 12V19.862H23.586C23.6866 19.862 23.7755 19.8217 23.8472 19.762L11.9999 12Z" fill="#464655"/>
<path d="M12.9931 11.4206V12.7448C12.9931 13.2924 12.5476 13.7379 12 13.7379C11.4524 13.7379 11.0069 13.2924 11.0069 12.7448V11.4206H12.9931ZM13.3241 10.7586H10.6759C10.493 10.7586 10.3448 10.9067 10.3448 11.0896V12.7448C10.3448 13.6589 11.0859 14.3999 12 14.3999C12.9141 14.3999 13.6552 13.6589 13.6552 12.7448V11.0896C13.6552 10.9068 13.5069 10.7586 13.3241 10.7586Z" fill="#FF4B55"/>
<path d="M12.993 11.4207V12.7448C12.993 13.2924 12.5475 13.7379 11.9999 13.7379C11.4523 13.7379 11.0068 13.2924 11.0068 12.7448V11.4207H12.993Z" fill="#F5F5F5"/>
<path d="M10.6734 11.2552C10.7649 11.2552 10.839 11.1811 10.839 11.0897C10.839 10.9983 10.7649 10.9242 10.6734 10.9242C10.582 10.9242 10.5079 10.9983 10.5079 11.0897C10.5079 11.1811 10.582 11.2552 10.6734 11.2552Z" fill="#FFE15A"/>
<path d="M13.3214 11.2552C13.4128 11.2552 13.4869 11.1811 13.4869 11.0897C13.4869 10.9983 13.4128 10.9242 13.3214 10.9242C13.23 10.9242 13.1559 10.9983 13.1559 11.0897C13.1559 11.1811 13.23 11.2552 13.3214 11.2552Z" fill="#FFE15A"/>
<path d="M10.6734 12.5794C10.7649 12.5794 10.839 12.5053 10.839 12.4139C10.839 12.3225 10.7649 12.2484 10.6734 12.2484C10.582 12.2484 10.5079 12.3225 10.5079 12.4139C10.5079 12.5053 10.582 12.5794 10.6734 12.5794Z" fill="#FFE15A"/>
<path d="M13.3214 12.5794C13.4128 12.5794 13.4869 12.5053 13.4869 12.4139C13.4869 12.3225 13.4128 12.2484 13.3214 12.2484C13.23 12.2484 13.1559 12.3225 13.1559 12.4139C13.1559 12.5053 13.23 12.5794 13.3214 12.5794Z" fill="#FFE15A"/>
<path d="M11.9972 11.2552C12.0886 11.2552 12.1627 11.1811 12.1627 11.0897C12.1627 10.9983 12.0886 10.9242 11.9972 10.9242C11.9058 10.9242 11.8317 10.9983 11.8317 11.0897C11.8317 11.1811 11.9058 11.2552 11.9972 11.2552Z" fill="#FFE15A"/>
<path d="M11.9972 14.2472C12.0886 14.2472 12.1627 14.1731 12.1627 14.0817C12.1627 13.9903 12.0886 13.9162 11.9972 13.9162C11.9058 13.9162 11.8317 13.9903 11.8317 14.0817C11.8317 14.1731 11.9058 14.2472 11.9972 14.2472Z" fill="#FFE15A"/>
<path d="M12.991 13.8C13.0824 13.8 13.1565 13.7259 13.1565 13.6345C13.1565 13.5431 13.0824 13.469 12.991 13.469C12.8995 13.469 12.8254 13.5431 12.8254 13.6345C12.8254 13.7259 12.8995 13.8 12.991 13.8Z" fill="#FFE15A"/>
<path d="M11.0232 13.8C11.1146 13.8 11.1887 13.7259 11.1887 13.6345C11.1887 13.5431 11.1146 13.469 11.0232 13.469C10.9318 13.469 10.8577 13.5431 10.8577 13.6345C10.8577 13.7259 10.9318 13.8 11.0232 13.8Z" fill="#FFE15A"/>
<path d="M12.2138 12.3299V12.6149C12.2138 12.7328 12.1179 12.8287 12.0001 12.8287C11.8822 12.8287 11.7863 12.7328 11.7863 12.6149V12.3299H12.2138Z" fill="#41479B"/>
<path d="M12.2138 11.654V11.939C12.2138 12.0569 12.1179 12.1528 12.0001 12.1528C11.8822 12.1528 11.7863 12.0569 11.7863 11.939V11.654H12.2138Z" fill="#41479B"/>
<path d="M12.2138 13.0126V13.2976C12.2138 13.4155 12.1179 13.5114 12.0001 13.5114C11.8822 13.5114 11.7863 13.4155 11.7863 13.2976V13.0126H12.2138Z" fill="#41479B"/>
<path d="M12.7897 12.3299V12.6149C12.7897 12.7328 12.6938 12.8287 12.5759 12.8287C12.458 12.8287 12.3621 12.7328 12.3621 12.6149V12.3299H12.7897Z" fill="#41479B"/>
<path d="M11.6379 12.3299V12.6149C11.6379 12.7328 11.542 12.8287 11.4241 12.8287C11.3062 12.8287 11.2103 12.7328 11.2103 12.6149V12.3299H11.6379Z" fill="#41479B"/>
<path d="M13.6025 10.7586H10.4138C10.3063 10.7586 10.2191 10.6714 10.2191 10.5639V10.4422C10.2191 10.3347 10.3063 10.2475 10.4138 10.2475H13.6025C13.71 10.2475 13.7972 10.3347 13.7972 10.4422V10.5639C13.7972 10.6715 13.71 10.7586 13.6025 10.7586Z" fill="#FFE15A"/>
<path d="M12.0081 10.3752L11.7526 10.503L12.0081 10.6309L12.2637 10.503L12.0081 10.3752Z" fill="#FF4B55"/>
<path d="M12.839 10.6311C12.9449 10.6311 13.0307 10.5739 13.0307 10.5033C13.0307 10.4327 12.9449 10.3754 12.839 10.3754C12.7332 10.3754 12.6473 10.4327 12.6473 10.5033C12.6473 10.5739 12.7332 10.6311 12.839 10.6311Z" fill="#4173CD"/>
<path d="M11.1778 10.6311C11.2836 10.6311 11.3694 10.5739 11.3694 10.5033C11.3694 10.4327 11.2836 10.3754 11.1778 10.3754C11.0719 10.3754 10.9861 10.4327 10.9861 10.5033C10.9861 10.5739 11.0719 10.6311 11.1778 10.6311Z" fill="#4173CD"/>
<path d="M12.4556 10.5671C12.4909 10.5671 12.5195 10.5385 12.5195 10.5033C12.5195 10.468 12.4909 10.4394 12.4556 10.4394C12.4203 10.4394 12.3917 10.468 12.3917 10.5033C12.3917 10.5385 12.4203 10.5671 12.4556 10.5671Z" fill="#F5F5F5"/>
<path d="M13.222 10.5671C13.2573 10.5671 13.2859 10.5385 13.2859 10.5033C13.2859 10.468 13.2573 10.4394 13.222 10.4394C13.1867 10.4394 13.1581 10.468 13.1581 10.5033C13.1581 10.5385 13.1867 10.5671 13.222 10.5671Z" fill="#F5F5F5"/>
<path d="M11.5607 10.5671C11.596 10.5671 11.6246 10.5385 11.6246 10.5033C11.6246 10.468 11.596 10.4394 11.5607 10.4394C11.5254 10.4394 11.4968 10.468 11.4968 10.5033C11.4968 10.5385 11.5254 10.5671 11.5607 10.5671Z" fill="#F5F5F5"/>
<path d="M10.7944 10.5671C10.8296 10.5671 10.8582 10.5385 10.8582 10.5033C10.8582 10.468 10.8296 10.4394 10.7944 10.4394C10.7591 10.4394 10.7305 10.468 10.7305 10.5033C10.7305 10.5385 10.7591 10.5671 10.7944 10.5671Z" fill="#F5F5F5"/>
<path d="M10.2191 10.4391V10.5669L10.3469 10.6309L10.6025 10.503L10.3469 10.3752L10.2191 10.4391Z" fill="#FF4B55"/>
<path d="M13.7972 10.5669V10.4391L13.6694 10.3752L13.4138 10.503L13.6694 10.6309L13.7972 10.5669Z" fill="#FF4B55"/>
<path d="M11.1577 9.41622C11.1169 9.39616 11.0685 9.40853 11.0277 9.44008C11.0486 9.40909 11.0606 9.36775 11.0584 9.3228C11.0537 9.23139 10.9928 9.16019 10.9223 9.1638C10.8518 9.16736 10.7985 9.24438 10.8031 9.33578C10.8056 9.38434 10.8245 9.42616 10.8518 9.45513C10.7967 9.42827 10.7366 9.43084 10.6998 9.46769C10.6498 9.51756 10.6618 9.61052 10.7266 9.6752C10.7913 9.73998 10.8843 9.75194 10.9342 9.70206C10.9481 9.68814 10.9561 9.67052 10.9606 9.65139C10.9707 9.67811 10.9864 9.70131 11.0113 9.71355C11.0746 9.74472 11.1587 9.70347 11.1992 9.62139C11.2396 9.53927 11.2211 9.44739 11.1577 9.41622ZM10.9699 9.50837C10.9605 9.52741 10.955 9.54691 10.9518 9.56608C10.9422 9.54091 10.9288 9.51606 10.9073 9.49445C10.9036 9.49075 10.8991 9.48897 10.8951 9.48555C10.9091 9.49136 10.9237 9.49548 10.9391 9.49469C10.9598 9.49361 10.9782 9.4848 10.9949 9.47266C10.9861 9.48395 10.9766 9.49464 10.9699 9.50837Z" fill="#F5F5F5"/>
<path d="M12.8008 9.62136C12.8413 9.70343 12.9254 9.74473 12.9887 9.71351C13.0136 9.70123 13.0293 9.67803 13.0394 9.65136C13.0439 9.67043 13.0519 9.68806 13.0658 9.70203C13.1157 9.75195 13.2087 9.73995 13.2734 9.67517C13.3381 9.61048 13.3501 9.51753 13.3002 9.46765C13.2634 9.43081 13.2033 9.42823 13.1482 9.45509C13.1755 9.42612 13.1944 9.38431 13.1969 9.33575C13.2015 9.24434 13.1482 9.16733 13.0777 9.16376C13.0072 9.1602 12.9463 9.23136 12.9417 9.32276C12.9394 9.36776 12.9514 9.40906 12.9723 9.44004C12.9315 9.4085 12.883 9.39612 12.8423 9.41618C12.7789 9.4474 12.7604 9.53928 12.8008 9.62136ZM13.005 9.47272C13.0217 9.4849 13.0401 9.49372 13.0608 9.49475C13.0762 9.49554 13.0908 9.49137 13.1048 9.48561C13.1009 9.48898 13.0964 9.49076 13.0927 9.49451C13.0711 9.51608 13.0577 9.54097 13.0482 9.56614C13.045 9.54697 13.0395 9.52742 13.0301 9.50843C13.0234 9.49465 13.0139 9.48397 13.005 9.47272Z" fill="#F5F5F5"/>
<path d="M14.3322 9.04085C14.1481 8.97532 13.7608 8.94026 13.6135 9.27485C13.585 9.33949 13.6143 9.41487 13.6789 9.44332C13.7413 9.47088 13.813 9.4436 13.8435 9.38327L13.8917 9.44032C13.8514 9.55352 13.8352 9.65491 13.8306 9.68979C13.7649 9.96232 13.5118 9.9919 13.4055 9.9919C13.234 9.9919 13.137 9.80805 13.1361 9.80623C13.1186 9.77238 13.0867 9.74782 13.0494 9.73971C13.012 9.7316 12.973 9.74023 12.9431 9.76366C12.873 9.81869 12.6552 9.96733 12.4909 9.99354C12.4117 10.0062 12.347 9.99302 12.3034 9.95562C12.268 9.92543 12.2555 9.88751 12.2555 9.86416C12.2555 9.80688 12.3259 9.73633 12.3833 9.73633C12.4267 9.73633 12.4434 9.76418 12.4434 9.76418C12.4737 9.8283 12.5499 9.8554 12.6137 9.8253C12.6775 9.79498 12.7047 9.71885 12.6745 9.6551C12.6497 9.60269 12.5814 9.52188 12.4692 9.49259C12.5374 9.3844 12.6 9.25291 12.6389 9.09743L12.2555 8.9696C12.2555 8.9696 12.3833 8.58621 11.9999 8.58621C11.6165 8.58621 11.7444 8.9696 11.7444 8.9696L11.361 9.09743C11.3999 9.25291 11.4625 9.38444 11.5307 9.49259C11.4185 9.52188 11.3502 9.60269 11.3254 9.6551C11.2952 9.7189 11.3224 9.79502 11.3862 9.8253C11.4499 9.85535 11.5262 9.8283 11.5564 9.76441C11.5564 9.76441 11.5732 9.73633 11.6165 9.73633C11.6739 9.73633 11.7444 9.80683 11.7444 9.86416C11.7444 9.88751 11.7319 9.92547 11.6965 9.95562C11.6528 9.99307 11.5881 10.0063 11.5089 9.99354C11.3445 9.96733 11.1267 9.81869 11.0568 9.76366C11.0268 9.74018 10.9878 9.7316 10.9504 9.73971C10.9132 9.74782 10.8812 9.77238 10.8637 9.80623C10.8628 9.8081 10.7658 9.9919 10.5943 9.9919C10.4879 9.9919 10.235 9.96232 10.1692 9.68979C10.1647 9.65491 10.1485 9.55362 10.1082 9.44032L10.1563 9.38327C10.1869 9.44365 10.2586 9.47088 10.321 9.44332C10.3856 9.41487 10.4149 9.33949 10.3864 9.27485C10.239 8.9403 9.8518 8.97537 9.66772 9.04085C9.61503 9.05955 9.58058 9.11037 9.58274 9.16629C9.58485 9.22221 9.62319 9.27012 9.67719 9.28474C9.83375 9.32679 9.90402 9.62609 9.91625 9.72748C9.91682 9.73184 9.91766 9.73648 9.9186 9.74083C9.99003 10.0533 10.249 10.2475 10.5943 10.2475C10.7922 10.2475 10.929 10.1354 11.0084 10.0426C11.1204 10.1163 11.3005 10.2191 11.4687 10.2459C11.501 10.251 11.5325 10.2536 11.5633 10.2536C11.6787 10.2536 11.7826 10.2181 11.8623 10.1501C11.9485 10.0766 11.9999 9.96958 11.9999 9.86416C11.9999 9.96963 12.0513 10.0766 12.1375 10.1501C12.2171 10.2181 12.321 10.2536 12.4365 10.2536C12.4673 10.2536 12.4989 10.251 12.5311 10.2459C12.6993 10.2192 12.8794 10.1163 12.9913 10.0426C13.0708 10.1354 13.2076 10.2475 13.4055 10.2475C13.7509 10.2475 14.0097 10.0533 14.0812 9.74083C14.0822 9.73648 14.083 9.73184 14.0836 9.72748C14.0958 9.62599 14.1661 9.32679 14.3226 9.28474C14.3766 9.27016 14.4149 9.22221 14.417 9.16629C14.4193 9.11032 14.3848 9.05955 14.3322 9.04085Z" fill="#FFE15A"/>
<path d="M9.78048 9.30337C9.71527 9.33041 9.69528 9.4316 9.73583 9.52938C9.77638 9.62717 9.86212 9.68451 9.92734 9.65746C9.99255 9.63042 10.0125 9.52922 9.97198 9.43144C9.93143 9.33366 9.84569 9.27632 9.78048 9.30337Z" fill="#4173CD"/>
<path d="M14.0724 9.65819C14.1376 9.68524 14.2234 9.6279 14.2639 9.53012C14.3045 9.43234 14.2845 9.33114 14.2193 9.3041C14.1541 9.27705 14.0683 9.33439 14.0278 9.43217C13.9872 9.52995 14.0072 9.63115 14.0724 9.65819Z" fill="#4173CD"/>
<path d="M12 9.60851C12.1059 9.60851 12.1917 9.49409 12.1917 9.35294C12.1917 9.2118 12.1059 9.09738 12 9.09738C11.8942 9.09738 11.8083 9.2118 11.8083 9.35294C11.8083 9.49409 11.8942 9.60851 12 9.60851Z" fill="#4173CD"/>
</svg>
