<svg width="24" height="24" viewBox="0 0 24 24" fill="none" xmlns="http://www.w3.org/2000/svg">
<path d="M24 6.1035H0V4.55175C0 4.32324 0.185297 4.13794 0.413812 4.13794H23.5862C23.8147 4.13794 24 4.32324 24 4.55175L24 6.1035Z" fill="#F5F5F5"/>
<path d="M24 6.10364H0V8.06915H24V6.10364Z" fill="#FF4B55"/>
<path d="M24 8.06909H0V10.0346H24V8.06909Z" fill="#41479B"/>
<path d="M24 10.0345H0V12.0001H24V10.0345Z" fill="#F5F5F5"/>
<path d="M24 13.9655H0V11.5862H0.517218V12H24V13.9655Z" fill="#FF4B55"/>
<path d="M24 15.931H0V17.8965H24V15.931Z" fill="#F5F5F5"/>
<path d="M23.5861 19.8621H0.413812C0.185297 19.8621 0 19.6768 0 19.4482V17.8965H24V19.4482C24 19.6768 23.8147 19.8621 23.5861 19.8621Z" fill="#FF4B55"/>
<path d="M24 13.9655H0V15.931H24V13.9655Z" fill="#41479B"/>
<path d="M11.5862 12H0.413812C0.185297 12 0 11.8147 0 11.5862V4.55175C0 4.32324 0.185297 4.13794 0.413812 4.13794H11.5862C11.8147 4.13794 12 4.32324 12 4.55175V11.5862C12 11.8147 11.8147 12 11.5862 12Z" fill="#41479B"/>
<path d="M11.5862 4.13797H10.8674L7.03442 6.64925V4.13797H4.96546V6.64925L1.1325 4.13797H0.413812C0.185297 4.13797 0 4.32322 0 4.55173V4.87995L3.28851 7.03446H0V9.10343H3.28851L0 11.258V11.5862C0 11.8147 0.185297 12 0.413812 12H1.13259L4.96555 9.48874V12H7.03452V9.48874L10.8674 12H11.5862C11.8147 12 12 11.8147 12 11.5862V11.258L8.71151 9.10348H12V7.03451H8.71147L12 4.88V4.55178C12 4.32322 11.8147 4.13797 11.5862 4.13797Z" fill="#F5F5F5"/>
<path d="M12 7.44832H6.62066V4.13797H5.37932V7.44832H0V8.68966H5.37932V12H6.62066V8.68966H12V7.44832Z" fill="#FF4B55"/>
<path d="M4.55169 7.03452L0.197203 4.20792C0.081328 4.28123 0 4.40446 0 4.55174V4.57321L3.79166 7.03452H4.55169Z" fill="#FF4B55"/>
<path d="M7.79445 7.03451L11.937 4.34549C11.865 4.22366 11.7379 4.13797 11.5861 4.13797H11.4966L7.03442 7.03451H7.79445Z" fill="#FF4B55"/>
<path d="M4.19405 9.10349L0.0594482 11.7874C0.130745 11.9121 0.259745 12 0.413776 12H0.491822L4.95413 9.10349H4.19405Z" fill="#FF4B55"/>
<path d="M11.9934 11.6187L8.11843 9.10349H7.3584L11.7587 11.9598C11.8905 11.8986 11.981 11.7704 11.9934 11.6187Z" fill="#FF4B55"/>
</svg>
