<svg width="24" height="24" viewBox="0 0 24 24" fill="none" xmlns="http://www.w3.org/2000/svg">
<path d="M23.5861 19.8621H0.413812C0.185297 19.8621 0 19.6768 0 19.4483V4.55175C0 4.32324 0.185297 4.13794 0.413812 4.13794H23.5862C23.8147 4.13794 24 4.32324 24 4.55175V19.4483C24 19.6768 23.8147 19.8621 23.5861 19.8621Z" fill="#FF4B55"/>
<path d="M13.9664 13.0295L17.1273 10.7102H13.2128L11.9999 6.97717L10.787 10.7102H6.87256L10.0335 13.0295L8.82996 16.7336L11.9968 14.4701L11.9999 14.4723L12.003 14.4701L15.1699 16.7336L13.9664 13.0295ZM14.6004 11.5378L13.697 12.2006L13.4816 11.5378H14.6004ZM11.0054 12.7162L11.3883 11.5377H12.6115L12.9944 12.7162L11.9999 13.4459L11.0054 12.7162ZM11.9999 9.65551L12.3426 10.7102H11.6572L11.9999 9.65551ZM9.3994 11.5378H10.5182L10.3028 12.2006L9.3994 11.5378ZM10.3938 14.5984L10.7361 13.545L11.2945 13.9546L10.3938 14.5984ZM13.2638 13.545L13.606 14.5984L12.7055 13.9547L13.2638 13.545Z" fill="#5A8250"/>
</svg>
