<svg width="24" height="24" viewBox="0 0 24 24" fill="none" xmlns="http://www.w3.org/2000/svg">
<path d="M23.5861 19.862H0.413812C0.185297 19.862 0 19.6767 0 19.4482V4.55175C0 4.32324 0.185297 4.13794 0.413812 4.13794H23.5862C23.8147 4.13794 24 4.32324 24 4.55175V19.4482C24 19.6768 23.8147 19.862 23.5861 19.862Z" fill="#4173CD"/>
<path d="M12 18C8.6917 18 6 15.3083 6 12C6 8.69165 8.69165 6 12 6C15.3083 6 18 8.69165 18 12C18 15.3083 15.3083 18 12 18ZM12 7.24139C9.37598 7.24139 7.24139 9.37602 7.24139 12C7.24139 14.624 9.37602 16.7586 12 16.7586C14.624 16.7586 16.7586 14.624 16.7586 12C16.7586 9.37602 14.624 7.24139 12 7.24139Z" fill="#F5F5F5"/>
<path d="M11.9999 17.5861C8.91968 17.5861 6.4137 15.0801 6.4137 11.9999C6.4137 8.91974 8.91968 6.41376 11.9999 6.41376C15.0801 6.41376 17.5861 8.91974 17.5861 11.9999C17.5861 15.0801 15.0801 17.5861 11.9999 17.5861ZM11.9999 6.82752C9.14777 6.82752 6.82746 9.14778 6.82746 11.9999C6.82746 14.8521 9.14772 17.1723 11.9999 17.1723C14.852 17.1723 17.1723 14.852 17.1723 11.9999C17.1723 9.14783 14.852 6.82752 11.9999 6.82752Z" fill="#FFDC00"/>
<path d="M6.6206 12.4138C6.84914 12.4138 7.03441 12.2285 7.03441 12C7.03441 11.7715 6.84914 11.5862 6.6206 11.5862C6.39206 11.5862 6.20679 11.7715 6.20679 12C6.20679 12.2285 6.39206 12.4138 6.6206 12.4138Z" fill="#FFDC00"/>
<path d="M17.3794 12.4138C17.6079 12.4138 17.7932 12.2285 17.7932 12C17.7932 11.7715 17.6079 11.5862 17.3794 11.5862C17.1508 11.5862 16.9656 11.7715 16.9656 12C16.9656 12.2285 17.1508 12.4138 17.3794 12.4138Z" fill="#FFDC00"/>
<path d="M12 7.03441C12.2285 7.03441 12.4138 6.84914 12.4138 6.6206C12.4138 6.39206 12.2285 6.20679 12 6.20679C11.7715 6.20679 11.5862 6.39206 11.5862 6.6206C11.5862 6.84914 11.7715 7.03441 12 7.03441Z" fill="#FFDC00"/>
<path d="M8.19604 8.60985C8.42458 8.60985 8.60985 8.42458 8.60985 8.19604C8.60985 7.9675 8.42458 7.78223 8.19604 7.78223C7.9675 7.78223 7.78223 7.9675 7.78223 8.19604C7.78223 8.42458 7.9675 8.60985 8.19604 8.60985Z" fill="#FFDC00"/>
<path d="M15.8038 8.60985C16.0324 8.60985 16.2176 8.42458 16.2176 8.19604C16.2176 7.9675 16.0324 7.78223 15.8038 7.78223C15.5753 7.78223 15.39 7.9675 15.39 8.19604C15.39 8.42458 15.5753 8.60985 15.8038 8.60985Z" fill="#FFDC00"/>
<path d="M16.9696 10.355C17.1981 10.355 17.3834 10.1698 17.3834 9.94122C17.3834 9.71267 17.1981 9.5274 16.9696 9.5274C16.7411 9.5274 16.5558 9.71267 16.5558 9.94122C16.5558 10.1698 16.7411 10.355 16.9696 10.355Z" fill="#FFDC00"/>
<path d="M9.94128 7.44408C10.1698 7.44408 10.3551 7.25881 10.3551 7.03027C10.3551 6.80173 10.1698 6.61646 9.94128 6.61646C9.71274 6.61646 9.52747 6.80173 9.52747 7.03027C9.52747 7.25881 9.71274 7.44408 9.94128 7.44408Z" fill="#FFDC00"/>
<path d="M7.03027 10.355C7.25881 10.355 7.44408 10.1698 7.44408 9.94122C7.44408 9.71267 7.25881 9.5274 7.03027 9.5274C6.80173 9.5274 6.61646 9.71267 6.61646 9.94122C6.61646 10.1698 6.80173 10.355 7.03027 10.355Z" fill="#FFDC00"/>
<path d="M14.0587 7.44408C14.2873 7.44408 14.4725 7.25881 14.4725 7.03027C14.4725 6.80173 14.2873 6.61646 14.0587 6.61646C13.8302 6.61646 13.6449 6.80173 13.6449 7.03027C13.6449 7.25881 13.8302 7.44408 14.0587 7.44408Z" fill="#FFDC00"/>
<path d="M17.2758 11.3642C17.5043 11.3642 17.6896 11.179 17.6896 10.9504C17.6896 10.7219 17.5043 10.5366 17.2758 10.5366C17.0472 10.5366 16.8619 10.7219 16.8619 10.9504C16.8619 11.179 17.0472 11.3642 17.2758 11.3642Z" fill="#FFDC00"/>
<path d="M10.9504 7.13799C11.179 7.13799 11.3642 6.95272 11.3642 6.72418C11.3642 6.49563 11.179 6.31036 10.9504 6.31036C10.7219 6.31036 10.5366 6.49563 10.5366 6.72418C10.5366 6.95272 10.7219 7.13799 10.9504 7.13799Z" fill="#FFDC00"/>
<path d="M7.52722 9.42504C7.75576 9.42504 7.94103 9.23977 7.94103 9.01122C7.94103 8.78268 7.75576 8.59741 7.52722 8.59741C7.29867 8.59741 7.1134 8.78268 7.1134 9.01122C7.1134 9.23977 7.29867 9.42504 7.52722 9.42504Z" fill="#FFDC00"/>
<path d="M14.9888 7.94145C15.2173 7.94145 15.4026 7.75618 15.4026 7.52764C15.4026 7.2991 15.2173 7.11383 14.9888 7.11383C14.7602 7.11383 14.575 7.2991 14.575 7.52764C14.575 7.75618 14.7602 7.94145 14.9888 7.94145Z" fill="#FFDC00"/>
<path d="M16.4723 9.42504C16.7008 9.42504 16.8861 9.23977 16.8861 9.01122C16.8861 8.78268 16.7008 8.59741 16.4723 8.59741C16.2437 8.59741 16.0585 8.78268 16.0585 9.01122C16.0585 9.23977 16.2437 9.42504 16.4723 9.42504Z" fill="#FFDC00"/>
<path d="M9.01122 7.94145C9.23977 7.94145 9.42504 7.75618 9.42504 7.52764C9.42504 7.2991 9.23977 7.11383 9.01122 7.11383C8.78268 7.11383 8.59741 7.2991 8.59741 7.52764C8.59741 7.75618 8.78268 7.94145 9.01122 7.94145Z" fill="#FFDC00"/>
<path d="M6.72424 11.3642C6.95278 11.3642 7.13805 11.179 7.13805 10.9504C7.13805 10.7219 6.95278 10.5366 6.72424 10.5366C6.49569 10.5366 6.31042 10.7219 6.31042 10.9504C6.31042 11.179 6.49569 11.3642 6.72424 11.3642Z" fill="#FFDC00"/>
<path d="M13.0496 7.13799C13.2781 7.13799 13.4634 6.95272 13.4634 6.72418C13.4634 6.49563 13.2781 6.31036 13.0496 6.31036C12.821 6.31036 12.6357 6.49563 12.6357 6.72418C12.6357 6.95272 12.821 7.13799 13.0496 7.13799Z" fill="#FFDC00"/>
<path d="M17.3792 12.2069C17.2648 12.2069 17.1723 12.1144 17.1723 12C17.1723 9.14789 14.852 6.82758 11.9999 6.82758C9.14772 6.82758 6.82751 9.14794 6.82751 12C6.82751 12.1144 6.73498 12.2069 6.6206 12.2069C6.50623 12.2069 6.4137 12.1144 6.4137 12C6.4137 8.9198 8.91968 6.41382 11.9999 6.41382C15.0801 6.41382 17.5861 8.9198 17.5861 12C17.5861 12.1144 17.4936 12.2069 17.3792 12.2069Z" fill="#FFA000"/>
<path d="M13.1497 18.2068H10.8503C10.3589 18.2068 9.97576 17.7813 10.0272 17.2926L10.7586 10.3448H13.2413L13.9726 17.2926C14.0241 17.7813 13.641 18.2068 13.1497 18.2068Z" fill="#B4B4B4"/>
<path d="M13.2296 10.3448H10.7606C10.6519 10.3448 10.5605 10.2629 10.5488 10.1548L10.3946 8.73436C10.368 8.48963 10.5597 8.27588 10.8059 8.27588H13.194C13.4402 8.27588 13.6319 8.48953 13.6053 8.73436L13.4522 10.1452C13.4398 10.2588 13.3439 10.3448 13.2296 10.3448Z" fill="#AAAAAA"/>
<path d="M12.0958 8.7578L12.8628 10.9646L15.1986 11.0122C15.2948 11.0142 15.3345 11.1363 15.2578 11.1945L13.3961 12.606L14.0727 14.8421C14.1005 14.9342 13.9966 15.0097 13.9176 14.9548L11.9999 13.6203L10.0822 14.9548C10.0033 15.0097 9.89934 14.9342 9.92718 14.8421L10.6037 12.606L8.742 11.1945C8.66536 11.1364 8.70506 11.0142 8.8012 11.0122L11.137 10.9646L11.9041 8.7578C11.9357 8.66691 12.0642 8.66691 12.0958 8.7578Z" fill="#F5F5F5"/>
</svg>
