<svg width="24" height="24" viewBox="0 0 24 24" fill="none" xmlns="http://www.w3.org/2000/svg">
<path d="M23.5861 19.862H0.413812C0.185297 19.862 0 19.6767 0 19.4482V4.55175C0 4.32324 0.185297 4.13794 0.413812 4.13794H23.5862C23.8147 4.13794 24 4.32324 24 4.55175V19.4482C24 19.6768 23.8147 19.862 23.5861 19.862Z" fill="#41479B"/>
<path d="M24 11.1724H12.8276V4.13794H11.1724V11.1724H0V12.8276H11.1724V19.862H12.8276V12.8276H24V11.1724Z" fill="#F5F5F5"/>
<path d="M8.0817 9.52122C8.06984 9.45081 8.04312 9.36742 8.00937 9.31375C7.94229 9.22103 7.86467 9.15611 7.78948 9.1157C7.19703 8.84355 6.70104 8.89689 6.22775 8.89501C5.76026 8.90706 5.32292 8.98769 4.96789 9.0654C4.87152 9.08481 4.78803 9.0993 4.69874 9.11608C4.74289 9.02486 4.90475 8.91072 5.12272 8.84153C5.65409 8.66003 6.26065 8.58714 6.85681 8.47098C7.00737 8.4415 7.16 8.40695 7.31628 8.36252C7.40042 8.33369 7.47125 8.31119 7.57034 8.26516C7.6339 8.2292 7.69648 8.18397 7.75001 8.13564C7.80701 8.08436 7.80265 8.07002 7.832 8.03542C7.96737 7.77775 7.83921 7.59428 7.73178 7.49847C7.62823 7.41349 7.541 7.3803 7.45798 7.34613C7.29682 7.2896 7.14753 7.25416 7.00343 7.22411C6.72579 7.16857 6.45284 7.11396 6.18561 7.06047C6.05867 7.03108 5.93591 6.99846 5.82819 6.95889C5.73308 6.93353 5.59869 6.83955 5.61866 6.86519C5.37308 6.844 5.95498 6.57011 6.37456 6.41711C6.48608 6.36789 6.59694 6.31821 6.71051 6.24808C6.82194 6.17444 6.93673 6.11196 7.06053 5.90571C7.08486 5.86291 7.08382 5.8525 7.09657 5.82452L7.11073 5.78894C7.14143 5.6793 7.12456 5.70888 7.13168 5.66135C7.14617 5.54632 7.10103 5.42336 7.02959 5.32094C6.88376 5.16335 6.73873 5.11826 6.63101 5.08807C6.18551 4.98251 5.86498 5.01138 5.5865 5.01246C5.05841 5.0373 4.75658 5.05146 4.75658 5.05146L4.73619 5.0524C4.73558 5.05244 4.73502 5.05244 4.73436 5.05249C4.56556 5.06238 4.4368 5.20718 4.44669 5.37593C4.44763 5.39243 4.45536 5.40626 4.45878 5.42186C4.21963 5.48777 3.84121 5.55518 3.46682 5.46691C3.40982 5.45379 3.35718 5.48805 3.344 5.54261C3.33088 5.59765 3.36514 5.65263 3.41971 5.66543C3.5668 5.70011 3.71272 5.71371 3.85185 5.71371C4.14739 5.71371 4.39986 5.65357 4.57227 5.60074C4.62786 5.64204 4.69545 5.66805 4.76999 5.66369C4.76999 5.66369 5.07495 5.64583 5.60867 5.61461C5.85856 5.60561 6.19437 5.59244 6.4715 5.65755C6.49442 5.66111 6.5067 5.66824 6.52189 5.67466C6.52404 5.6501 6.47717 5.71929 6.4039 5.75486C6.3328 5.80075 6.24026 5.84472 6.14398 5.88841C5.94711 5.97761 5.72183 6.0543 5.47208 6.18869C5.35152 6.25985 5.20245 6.33213 5.07861 6.54358C5.02072 6.64155 4.99325 6.79994 5.02367 6.9116L5.03267 6.95711L5.03778 6.97961L5.0405 6.99077C5.02133 6.95097 5.06966 7.05799 5.06586 7.04833L5.09084 7.08996C5.11302 7.12164 5.10955 7.13477 5.1628 7.19008C5.2055 7.2363 5.25373 7.28055 5.30347 7.31917C5.34706 7.34917 5.37959 7.36333 5.41883 7.38555C5.49612 7.43111 5.5663 7.4522 5.63952 7.48094C5.78389 7.5318 5.92447 7.56635 6.06486 7.59738C6.33584 7.64838 6.61273 7.70045 6.89431 7.75347C7.01239 7.7763 7.12287 7.80508 7.22501 7.83653C7.09418 7.88369 6.91109 7.93122 6.75317 7.96164C6.17872 8.08286 5.56958 8.15617 4.95003 8.37377C4.79497 8.43278 4.63611 8.50333 4.48035 8.62262C4.33367 8.73376 4.1795 8.95544 4.19924 9.19895C4.14669 9.20631 4.08632 9.21705 4.03775 9.22244C3.51219 9.292 3.29132 9.19947 3.30557 9.1968C3.23694 9.1563 3.14849 9.17898 3.10799 9.24765C3.06744 9.31623 3.09018 9.40473 3.1588 9.44523C3.1588 9.44523 3.24889 9.5064 3.40972 9.54165C3.56975 9.57784 3.79489 9.59443 4.06911 9.57283C4.14463 9.56767 4.23308 9.55637 4.31614 9.54761C4.37356 9.63039 4.44045 9.7217 4.50275 9.76595C4.64755 9.8874 4.80088 9.96507 4.95369 10.0331C5.56883 10.271 6.18364 10.321 6.78308 10.2974C7.08401 10.2748 7.38017 10.2397 7.68429 10.104C7.82609 10.0379 8.02071 9.93372 8.08081 9.63245C8.081 9.59387 8.0876 9.57629 8.0817 9.52122ZM7.63929 9.61609C7.63146 9.57156 7.60695 9.67258 7.49211 9.70042C7.29443 9.78728 7.02462 9.82703 6.7594 9.841C6.22456 9.85858 5.6405 9.79614 5.13969 9.59303C5.06099 9.55665 4.99677 9.51086 4.92922 9.46708C4.96634 9.4614 4.99855 9.45747 5.03661 9.45147C5.40875 9.39217 5.79664 9.32237 6.24219 9.31501C6.66654 9.30723 7.20692 9.31309 7.56575 9.49159C7.60742 9.51404 7.62565 9.53744 7.63943 9.55154C7.63943 9.55154 7.62753 9.53725 7.64079 9.52815C7.6467 9.53725 7.63929 9.58806 7.63929 9.61609Z" fill="#F5F5F5"/>
<path d="M20.9093 9.52122C20.8974 9.45081 20.8707 9.36742 20.837 9.31375C20.7699 9.22103 20.6923 9.15611 20.6171 9.1157C20.0246 8.84355 19.5286 8.89689 19.0553 8.89501C18.5879 8.90706 18.1505 8.98769 17.7955 9.0654C17.6991 9.08481 17.6156 9.0993 17.5263 9.11608C17.5705 9.02486 17.7323 8.91072 17.9503 8.84153C18.4817 8.66003 19.0882 8.58714 19.6844 8.47098C19.835 8.4415 19.9876 8.40695 20.1439 8.36252C20.228 8.33369 20.2988 8.31119 20.3979 8.26516C20.4615 8.2292 20.5241 8.18397 20.5776 8.13564C20.6346 8.08436 20.6302 8.07002 20.6596 8.03542C20.795 7.77775 20.6669 7.59428 20.5594 7.49847C20.4558 7.41349 20.3686 7.3803 20.2856 7.34613C20.1244 7.2896 19.9751 7.25416 19.831 7.22411C19.5534 7.16857 19.2804 7.11396 19.0132 7.06047C18.8863 7.03108 18.7635 6.99846 18.6558 6.95889C18.5607 6.93353 18.4263 6.83955 18.4462 6.86519C18.2007 6.844 18.7826 6.57011 19.2022 6.41711C19.3137 6.36789 19.4245 6.31821 19.5381 6.24808C19.6495 6.17444 19.7643 6.11196 19.8881 5.90571C19.9124 5.86291 19.9114 5.8525 19.9242 5.82452L19.9383 5.78894C19.969 5.6793 19.9521 5.70888 19.9593 5.66135C19.9738 5.54632 19.9286 5.42336 19.8572 5.32094C19.7114 5.16335 19.5663 5.11826 19.4586 5.08807C19.0131 4.98251 18.6926 5.01138 18.4141 5.01246C17.886 5.0373 17.5842 5.05146 17.5842 5.05146L17.5638 5.0524C17.5632 5.05244 17.5626 5.05244 17.562 5.05249C17.3932 5.06238 17.2644 5.20718 17.2743 5.37593C17.2752 5.39243 17.283 5.40626 17.2864 5.42186C17.0472 5.48777 16.6688 5.55518 16.2944 5.46691C16.2374 5.45379 16.1848 5.48805 16.1716 5.54261C16.1585 5.59765 16.1927 5.65263 16.2473 5.66543C16.3944 5.70011 16.5403 5.71371 16.6794 5.71371C16.975 5.71371 17.2275 5.65357 17.3999 5.60074C17.4555 5.64204 17.523 5.66805 17.5976 5.66369C17.5976 5.66369 17.9025 5.64583 18.4363 5.61461C18.6862 5.60561 19.022 5.59244 19.2991 5.65755C19.322 5.66111 19.3343 5.66824 19.3495 5.67466C19.3516 5.6501 19.3048 5.71929 19.2315 5.75486C19.1604 5.80075 19.0679 5.84472 18.9716 5.88841C18.7747 5.97761 18.5494 6.0543 18.2997 6.18869C18.1791 6.25985 18.03 6.33213 17.9062 6.54358C17.8483 6.64155 17.8208 6.79994 17.8513 6.9116L17.8603 6.95711L17.8654 6.97961L17.8681 6.99077C17.849 6.95097 17.8973 7.05799 17.8935 7.04833L17.9185 7.08996C17.9407 7.12164 17.9372 7.13477 17.9904 7.19008C18.0331 7.2363 18.0814 7.28055 18.1311 7.31917C18.1747 7.34917 18.2072 7.36333 18.2465 7.38555C18.3238 7.43111 18.3939 7.4522 18.4672 7.48094C18.6115 7.5318 18.7521 7.56635 18.8925 7.59738C19.1635 7.64838 19.4404 7.70045 19.7219 7.75347C19.84 7.7763 19.9505 7.80508 20.0526 7.83653C19.9218 7.88369 19.7387 7.93122 19.5808 7.96164C19.0064 8.08286 18.3972 8.15617 17.7777 8.37377C17.6226 8.43278 17.4637 8.50333 17.308 8.62262C17.1613 8.73376 17.0071 8.95544 17.0269 9.19895C16.9743 9.20631 16.914 9.21705 16.8654 9.22244C16.3398 9.292 16.119 9.19947 16.1332 9.1968C16.0646 9.1563 15.9761 9.17898 15.9356 9.24765C15.8951 9.31623 15.9178 9.40473 15.9864 9.44523C15.9864 9.44523 16.0765 9.5064 16.2374 9.54165C16.3974 9.57784 16.6225 9.59443 16.8967 9.57283C16.9723 9.56767 17.0607 9.55637 17.1438 9.54761C17.2012 9.63039 17.2681 9.7217 17.3304 9.76595C17.4752 9.8874 17.6285 9.96507 17.7813 10.0331C18.3965 10.271 19.0113 10.321 19.6107 10.2974C19.9116 10.2748 20.2078 10.2397 20.5119 10.104C20.6537 10.0379 20.8484 9.93372 20.9084 9.63245C20.9085 9.59387 20.9151 9.57629 20.9093 9.52122ZM20.4668 9.61609C20.459 9.57156 20.4345 9.67258 20.3196 9.70042C20.122 9.78728 19.8522 9.82703 19.5869 9.841C19.0521 9.85858 18.468 9.79614 17.9672 9.59303C17.8885 9.55665 17.8243 9.51086 17.7568 9.46708C17.7939 9.4614 17.8261 9.45747 17.8642 9.45147C18.2363 9.39217 18.6242 9.32237 19.0697 9.31501C19.4941 9.30723 20.0345 9.31309 20.3933 9.49159C20.435 9.51404 20.4532 9.53744 20.467 9.55154C20.467 9.55154 20.4551 9.53725 20.4683 9.52815C20.4742 9.53725 20.4669 9.58806 20.4668 9.61609Z" fill="#F5F5F5"/>
<path d="M8.0817 18.2108C8.06984 18.1404 8.04312 18.057 8.00937 18.0033C7.94229 17.9106 7.86467 17.8457 7.78948 17.8053C7.19703 17.5331 6.70104 17.5865 6.22775 17.5846C5.76026 17.5966 5.32292 17.6773 4.96789 17.755C4.87152 17.7744 4.78803 17.7889 4.69874 17.8057C4.74289 17.7144 4.90475 17.6003 5.12272 17.5311C5.65409 17.3496 6.26065 17.2767 6.85681 17.1606C7.00737 17.1311 7.16 17.0965 7.31628 17.0521C7.40042 17.0233 7.47125 17.0008 7.57034 16.9547C7.6339 16.9188 7.69648 16.8735 7.75001 16.8252C7.80701 16.7739 7.80265 16.7596 7.832 16.725C7.96737 16.4673 7.83921 16.2839 7.73178 16.188C7.62823 16.1031 7.541 16.0699 7.45798 16.0357C7.29682 15.9792 7.14753 15.9437 7.00343 15.9137C6.72579 15.8581 6.45284 15.8035 6.18561 15.75C6.05867 15.7207 5.93591 15.688 5.82819 15.6485C5.73308 15.6231 5.59869 15.5291 5.61866 15.5548C5.37308 15.5336 5.95498 15.2597 6.37456 15.1067C6.48608 15.0575 6.59694 15.0077 6.71051 14.9377C6.82194 14.864 6.93673 14.8015 7.06053 14.5953C7.08486 14.5525 7.08382 14.5421 7.09657 14.5141L7.11073 14.4785C7.14143 14.3689 7.12456 14.3985 7.13168 14.3509C7.14617 14.2359 7.10103 14.1129 7.02959 14.0105C6.88376 13.8529 6.73873 13.8078 6.63101 13.7776C6.18551 13.6721 5.86498 13.701 5.5865 13.702C5.05841 13.7269 4.75658 13.741 4.75658 13.741L4.73619 13.742C4.73558 13.742 4.73502 13.742 4.73436 13.7421C4.56556 13.752 4.4368 13.8968 4.44669 14.0655C4.44763 14.082 4.45536 14.0958 4.45878 14.1114C4.21963 14.1773 3.84121 14.2448 3.46682 14.1565C3.40982 14.1434 3.35718 14.1776 3.344 14.2322C3.33088 14.2872 3.36514 14.3422 3.41971 14.355C3.5668 14.3897 3.71272 14.4033 3.85185 14.4033C4.14739 14.4033 4.39986 14.3431 4.57227 14.2903C4.62786 14.3316 4.69545 14.3576 4.76999 14.3533C4.76999 14.3533 5.07495 14.3354 5.60867 14.3042C5.85856 14.2952 6.19437 14.282 6.4715 14.3471C6.49442 14.3507 6.5067 14.3578 6.52189 14.3642C6.52404 14.3397 6.47717 14.4089 6.4039 14.4444C6.3328 14.4903 6.24026 14.5343 6.14398 14.578C5.94711 14.6672 5.72183 14.7439 5.47208 14.8782C5.35152 14.9494 5.20245 15.0217 5.07861 15.2331C5.02072 15.3311 4.99325 15.4895 5.02367 15.6011L5.03267 15.6466L5.03778 15.6691L5.0405 15.6803C5.02133 15.6405 5.06966 15.7475 5.06586 15.7379L5.09084 15.7795C5.11302 15.8112 5.10955 15.8243 5.1628 15.8796C5.2055 15.9259 5.25373 15.9701 5.30347 16.0087C5.34706 16.0387 5.37959 16.0529 5.41883 16.0751C5.49612 16.1206 5.5663 16.1417 5.63952 16.1705C5.78389 16.2213 5.92447 16.2559 6.06486 16.2869C6.33584 16.3379 6.61273 16.39 6.89431 16.443C7.01239 16.4658 7.12287 16.4946 7.22501 16.5261C7.09418 16.5732 6.91109 16.6207 6.75317 16.6512C6.17872 16.7724 5.56958 16.8457 4.95003 17.0633C4.79497 17.1223 4.63611 17.1929 4.48035 17.3122C4.33367 17.4233 4.1795 17.645 4.19924 17.8885C4.14669 17.8958 4.08632 17.9066 4.03775 17.912C3.51219 17.9815 3.29132 17.889 3.30557 17.8863C3.23694 17.8458 3.14849 17.8685 3.10799 17.9372C3.06744 18.0058 3.09018 18.0943 3.1588 18.1348C3.1588 18.1348 3.24889 18.1959 3.40972 18.2312C3.56975 18.2674 3.79489 18.2839 4.06911 18.2624C4.14463 18.2572 4.23308 18.2459 4.31614 18.2371C4.37356 18.3199 4.44045 18.4112 4.50275 18.4555C4.64755 18.5769 4.80088 18.6546 4.95369 18.7226C5.56883 18.9606 6.18364 19.0105 6.78308 18.9869C7.08401 18.9644 7.38017 18.9292 7.68429 18.7935C7.82609 18.7274 8.02071 18.6232 8.08081 18.322C8.081 18.2835 8.0876 18.2659 8.0817 18.2108ZM7.63929 18.3057C7.63146 18.2612 7.60695 18.3622 7.49211 18.39C7.29443 18.4769 7.02462 18.5167 6.7594 18.5306C6.22456 18.5482 5.6405 18.4858 5.13969 18.2827C5.06099 18.2463 4.99677 18.2005 4.92922 18.1567C4.96634 18.151 4.99855 18.1471 5.03661 18.1411C5.40875 18.0818 5.79664 18.012 6.24219 18.0046C6.66654 17.9969 7.20692 18.0027 7.56575 18.1812C7.60742 18.2037 7.62565 18.2271 7.63943 18.2412C7.63943 18.2412 7.62753 18.2269 7.64079 18.2178C7.6467 18.2269 7.63929 18.2777 7.63929 18.3057Z" fill="#F5F5F5"/>
<path d="M20.9093 18.2108C20.8974 18.1404 20.8707 18.057 20.837 18.0033C20.7699 17.9106 20.6923 17.8457 20.6171 17.8053C20.0246 17.5331 19.5286 17.5865 19.0553 17.5846C18.5879 17.5966 18.1505 17.6773 17.7955 17.755C17.6991 17.7744 17.6156 17.7889 17.5263 17.8057C17.5705 17.7144 17.7323 17.6003 17.9503 17.5311C18.4817 17.3496 19.0882 17.2767 19.6844 17.1606C19.835 17.1311 19.9876 17.0965 20.1439 17.0521C20.228 17.0233 20.2988 17.0008 20.3979 16.9547C20.4615 16.9188 20.5241 16.8735 20.5776 16.8252C20.6346 16.7739 20.6302 16.7596 20.6596 16.725C20.795 16.4673 20.6669 16.2839 20.5594 16.188C20.4558 16.1031 20.3686 16.0699 20.2856 16.0357C20.1244 15.9792 19.9751 15.9437 19.831 15.9137C19.5534 15.8581 19.2804 15.8035 19.0132 15.75C18.8863 15.7207 18.7635 15.688 18.6558 15.6485C18.5607 15.6231 18.4263 15.5291 18.4462 15.5548C18.2007 15.5336 18.7826 15.2597 19.2022 15.1067C19.3137 15.0575 19.4245 15.0077 19.5381 14.9377C19.6495 14.864 19.7643 14.8015 19.8881 14.5953C19.9124 14.5525 19.9114 14.5421 19.9242 14.5141L19.9383 14.4785C19.969 14.3689 19.9521 14.3985 19.9593 14.3509C19.9738 14.2359 19.9286 14.1129 19.8572 14.0105C19.7114 13.8529 19.5663 13.8078 19.4586 13.7776C19.0131 13.6721 18.6926 13.701 18.4141 13.702C17.886 13.7269 17.5842 13.741 17.5842 13.741L17.5638 13.742C17.5632 13.742 17.5626 13.742 17.562 13.7421C17.3932 13.752 17.2644 13.8968 17.2743 14.0655C17.2752 14.082 17.283 14.0958 17.2864 14.1114C17.0472 14.1773 16.6688 14.2448 16.2944 14.1565C16.2374 14.1434 16.1848 14.1776 16.1716 14.2322C16.1585 14.2872 16.1927 14.3422 16.2473 14.355C16.3944 14.3897 16.5403 14.4033 16.6794 14.4033C16.975 14.4033 17.2275 14.3431 17.3999 14.2903C17.4555 14.3316 17.523 14.3576 17.5976 14.3533C17.5976 14.3533 17.9025 14.3354 18.4363 14.3042C18.6862 14.2952 19.022 14.282 19.2991 14.3471C19.322 14.3507 19.3343 14.3578 19.3495 14.3642C19.3516 14.3397 19.3048 14.4089 19.2315 14.4444C19.1604 14.4903 19.0679 14.5343 18.9716 14.578C18.7747 14.6672 18.5494 14.7439 18.2997 14.8782C18.1791 14.9494 18.03 15.0217 17.9062 15.2331C17.8483 15.3311 17.8208 15.4895 17.8513 15.6011L17.8603 15.6466L17.8654 15.6691L17.8681 15.6803C17.849 15.6405 17.8973 15.7475 17.8935 15.7379L17.9185 15.7795C17.9407 15.8112 17.9372 15.8243 17.9904 15.8796C18.0331 15.9259 18.0814 15.9701 18.1311 16.0087C18.1747 16.0387 18.2072 16.0529 18.2465 16.0751C18.3238 16.1206 18.3939 16.1417 18.4672 16.1705C18.6115 16.2213 18.7521 16.2559 18.8925 16.2869C19.1635 16.3379 19.4404 16.39 19.7219 16.443C19.84 16.4658 19.9505 16.4946 20.0526 16.5261C19.9218 16.5732 19.7387 16.6207 19.5808 16.6512C19.0064 16.7724 18.3972 16.8457 17.7777 17.0633C17.6226 17.1223 17.4637 17.1929 17.308 17.3122C17.1613 17.4233 17.0071 17.645 17.0269 17.8885C16.9743 17.8958 16.914 17.9066 16.8654 17.912C16.3398 17.9815 16.119 17.889 16.1332 17.8863C16.0646 17.8458 15.9761 17.8685 15.9356 17.9372C15.8951 18.0058 15.9178 18.0943 15.9864 18.1348C15.9864 18.1348 16.0765 18.1959 16.2374 18.2312C16.3974 18.2674 16.6225 18.2839 16.8967 18.2624C16.9723 18.2572 17.0607 18.2459 17.1438 18.2371C17.2012 18.3199 17.2681 18.4112 17.3304 18.4555C17.4752 18.5769 17.6285 18.6546 17.7813 18.7226C18.3965 18.9606 19.0113 19.0105 19.6107 18.9869C19.9116 18.9644 20.2078 18.9292 20.5119 18.7935C20.6537 18.7274 20.8484 18.6232 20.9084 18.322C20.9085 18.2835 20.9151 18.2659 20.9093 18.2108ZM20.4668 18.3057C20.459 18.2612 20.4345 18.3622 20.3196 18.39C20.122 18.4769 19.8522 18.5167 19.5869 18.5306C19.0521 18.5482 18.468 18.4858 17.9672 18.2827C17.8885 18.2463 17.8243 18.2005 17.7568 18.1567C17.7939 18.151 17.8261 18.1471 17.8642 18.1411C18.2363 18.0818 18.6242 18.012 19.0697 18.0046C19.4941 17.9969 20.0345 18.0027 20.3933 18.1812C20.435 18.2037 20.4532 18.2271 20.467 18.2412C20.467 18.2412 20.4551 18.2269 20.4683 18.2178C20.4742 18.2269 20.4669 18.2777 20.4668 18.3057Z" fill="#F5F5F5"/>
</svg>
