<svg width="24" height="24" viewBox="0 0 24 24" fill="none" xmlns="http://www.w3.org/2000/svg">
<path d="M24 9.37935H0V4.55175C0 4.32324 0.185297 4.13794 0.413812 4.13794H23.5862C23.8147 4.13794 24 4.32324 24 4.55175L24 9.37935Z" fill="#5AA587"/>
<path d="M23.5861 19.8621H0.413812C0.185297 19.8621 0 19.6768 0 19.4483V14.6207H24V19.4483C24 19.6768 23.8147 19.8621 23.5861 19.8621Z" fill="#FFE15A"/>
<path d="M24 9.37927H0V14.6204H24V9.37927Z" fill="#464655"/>
<path d="M24 8.91376H0V9.56729H24V8.91376Z" fill="#F5F5F5"/>
<path d="M24 14.4323H0V15.0858H24V14.4323Z" fill="#F5F5F5"/>
<path d="M0.152625 19.7621L9.66078 12.2145C9.79887 12.1049 9.79887 11.8952 9.66078 11.7856L0.152625 4.23804C0.061453 4.31393 0 4.4239 0 4.55177V19.4483C0 19.5762 0.061453 19.6862 0.152625 19.7621Z" fill="#FF4B55"/>
<path d="M3.83497 9.30832L4.43989 11.1221L6.35187 11.137C6.45879 11.1378 6.50309 11.2743 6.41707 11.3378L4.87897 12.4736L5.45567 14.2967C5.48787 14.3986 5.37186 14.4829 5.28486 14.4207L3.72931 13.3089L2.17377 14.4207C2.08677 14.4829 1.97071 14.3986 2.00296 14.2967L2.57966 12.4736L1.0416 11.3378C0.955584 11.2743 0.999928 11.1378 1.1068 11.137L3.01878 11.1221L3.6237 9.30832C3.65764 9.20688 3.80113 9.20688 3.83497 9.30832Z" fill="#FFE15A"/>
<path d="M3.61857 12.6771L3.46903 12.8276H2.21851L2.5598 11.5753L2.69925 11.5056L2.47538 12.6221C2.47351 12.6359 2.47632 12.6496 2.48546 12.6606C2.49376 12.6717 2.50655 12.6771 2.52033 12.6771H3.61857Z" fill="#F5F5F5"/>
<path d="M3.91853 12.8855C3.86439 12.9258 3.79834 12.9488 3.72953 12.9488C3.66071 12.9488 3.59467 12.9259 3.54053 12.8855L3.72953 12.6965L3.91853 12.8855Z" fill="#F5F5F5"/>
<path d="M5.24064 12.8277H3.99011L3.84058 12.6772H4.93876C4.95254 12.6772 4.96534 12.6717 4.97364 12.6607C4.98278 12.6497 4.98559 12.6359 4.98371 12.6222L4.75984 11.5056L4.89929 11.5753L5.24064 12.8277Z" fill="#F5F5F5"/>
<path d="M4.88293 12.5855H3.77551V11.4432C3.96086 11.2863 4.44986 11.3936 4.65718 11.4579L4.88293 12.5855Z" fill="#F5F5F5"/>
<path d="M3.68367 11.4432V12.5855H2.57629L2.802 11.4579C3.00937 11.3936 3.49837 11.2863 3.68367 11.4432Z" fill="#F5F5F5"/>
<path d="M5.34527 12.8616L4.98283 11.5313C4.97917 11.5193 4.97092 11.5083 4.95897 11.5028L4.71677 11.3817C4.71583 11.3808 4.71489 11.3808 4.71311 11.3808C4.71217 11.3808 4.71217 11.3799 4.71128 11.3789C4.68189 11.3688 4.01125 11.1504 3.72958 11.3642C3.44791 11.1504 2.77722 11.3688 2.74788 11.3789C2.74694 11.3799 2.74694 11.3799 2.74605 11.3808C2.74418 11.3808 2.74333 11.3808 2.7424 11.3817L2.50019 11.5028C2.48824 11.5083 2.48004 11.5193 2.47633 11.5313L2.1139 12.8616C2.11024 12.8754 2.11296 12.8901 2.12126 12.9011C2.1304 12.9121 2.14418 12.9195 2.15796 12.9195H3.44243C3.51855 12.9956 3.62135 13.0405 3.72958 13.0405C3.83786 13.0405 3.94061 12.9956 4.01674 12.9195H5.3012C5.31498 12.9195 5.32872 12.9121 5.33791 12.9011C5.34616 12.8901 5.34892 12.8754 5.34527 12.8616ZM3.77542 11.4432C3.96077 11.2863 4.44977 11.3936 4.65709 11.4579L4.8828 12.5854H3.77542C3.77542 12.5855 3.77542 11.4432 3.77542 11.4432ZM2.80197 11.4579C3.00935 11.3937 3.49835 11.2863 3.68364 11.4432V12.5855H2.57627L2.80197 11.4579ZM2.21847 12.8277L2.55977 11.5753L2.69922 11.5056L2.47535 12.6222C2.47347 12.636 2.47629 12.6497 2.48543 12.6607C2.49372 12.6717 2.50652 12.6772 2.5203 12.6772H3.61849L3.46896 12.8277H2.21847ZM3.72953 12.9488C3.66072 12.9488 3.59468 12.9259 3.54053 12.8855L3.72953 12.6965L3.91853 12.8855C3.86444 12.9258 3.79839 12.9488 3.72953 12.9488ZM3.99011 12.8277L3.84058 12.6772H4.93877C4.95255 12.6772 4.96534 12.6717 4.97364 12.6607C4.98278 12.6497 4.98559 12.6359 4.98372 12.6222L4.75984 11.5056L4.8993 11.5753L5.24059 12.8277H3.99011Z" fill="#464655"/>
<path d="M4.87662 10.2449C4.82984 10.2775 4.76646 10.2719 4.7261 10.2316L4.66507 10.1705V10.3199L4.29162 10.6934H4.14223L3.54476 11.2909H3.39537L2.24656 12.4397C2.21825 12.468 2.20841 12.5098 2.22106 12.5478L2.27511 12.7099L2.05105 12.934H1.90166L1.44495 13.3907C1.40849 13.4272 1.40849 13.4863 1.44495 13.5228L1.74636 13.8242C1.78986 13.8677 1.8612 13.865 1.90123 13.8183L2.57389 13.0087L2.64856 12.7846L2.79795 12.6352L3.09673 13.0833L3.32079 12.8593L3.08178 12.5008L3.14131 12.4412C3.1992 12.3834 3.1992 12.2896 3.14131 12.2317L3.09673 12.1871L3.13869 12.1451C3.45748 12.4183 3.84026 12.489 4.20471 12.3327L4.07989 12.0415C3.77876 12.1705 3.53286 12.0625 3.36181 11.922L3.99293 11.2908L3.96804 11.1663L4.14232 10.9921H4.29171L5.41207 9.8717L4.87662 10.2449Z" fill="#464655"/>
<path d="M2.64854 10.0959L2.49915 10.2453C2.45795 10.2865 2.45795 10.3534 2.49915 10.3947L2.52404 10.4195L2.27509 10.4694L1.60291 11.1416L1.97636 11.515L2.64854 10.8428L2.69833 10.5938L2.79793 10.6934L2.87261 10.6188L5.35698 13.1031L5.50637 12.9537L3.022 10.4694L3.09667 10.3947L2.79789 10.0959C2.75668 10.0546 2.68984 10.0546 2.64854 10.0959Z" fill="#464655"/>
</svg>
