<svg width="24" height="24" viewBox="0 0 24 24" fill="none" xmlns="http://www.w3.org/2000/svg">
<path d="M23.5861 19.8621H0.413812C0.185297 19.8621 0 19.6768 0 19.4483V4.55175C0 4.32324 0.185297 4.13794 0.413812 4.13794H23.5862C23.8147 4.13794 24 4.32324 24 4.55175V19.4483C24 19.6768 23.8147 19.8621 23.5861 19.8621Z" fill="#5AA587"/>
<path d="M12.9901 14.1379C13.454 14.2488 13.9492 14.2575 14.4445 14.1345C15.3169 13.9179 16.007 13.3491 16.408 12.6187C15.7119 12.1607 14.8359 11.9808 13.9635 12.1974C13.4944 12.3139 13.083 12.5372 12.7361 12.8279C12.7394 12.8235 12.7421 12.8192 12.7454 12.8149C14.0301 11.6564 15.4644 12.0304 15.4644 12.0304L15.8037 11.7405C15.8037 11.7405 14.357 11.2406 13.0612 12.3125C13.8632 10.7598 12.9978 9.42793 12.9978 9.42793L12.7982 9.82707C12.7982 9.82707 13.5179 11.1468 12.6759 12.6866C12.6749 12.6877 12.6739 12.6889 12.673 12.69C12.8781 12.2779 12.9978 11.8159 12.9978 11.324C12.9978 10.4251 12.6121 9.6182 11.9998 9.05298C11.3877 9.6182 11.0019 10.4251 11.0019 11.324C11.0019 11.816 11.1215 12.2779 11.3267 12.69C11.3257 12.6889 11.3247 12.6877 11.3238 12.6866C10.4818 11.1468 11.2015 9.82707 11.2015 9.82707L11.0019 9.42793C11.0019 9.42793 10.1365 10.7598 10.9384 12.3125C9.64264 11.2407 8.19599 11.7405 8.19599 11.7405L8.53531 12.0304C8.53531 12.0304 9.9695 11.6563 11.2542 12.8149C11.2575 12.8192 11.2602 12.8235 11.2635 12.8279C10.9167 12.5372 10.5052 12.3139 10.0362 12.1974C9.16377 11.9808 8.28777 12.1607 7.59167 12.6187C7.99269 13.3491 8.68278 13.9178 9.55526 14.1345C10.0505 14.2575 10.5457 14.2488 11.0096 14.1379C9.28109 14.6212 8.15056 13.5801 8.15056 13.5801L7.71505 13.6776C7.71505 13.6776 9.46203 15.5509 11.9998 13.7132C14.5376 15.5508 16.2846 13.6776 16.2846 13.6776L15.8491 13.5801C15.8492 13.5801 14.7186 14.6212 12.9901 14.1379Z" fill="#F5F5F5"/>
<path d="M9.47778 16.2942C9.65816 16.4062 9.84674 16.506 10.042 16.5936H13.9579C14.1532 16.506 14.3417 16.4062 14.522 16.2942H9.47778Z" fill="#F5F5F5"/>
<path d="M10.3928 16.7351C10.8953 16.9141 11.436 17.0122 11.9999 17.0122C12.5638 17.0122 13.1046 16.914 13.607 16.7351H10.3928Z" fill="#F5F5F5"/>
<path d="M8.41602 15.3989C8.47648 15.467 8.53831 15.5339 8.60248 15.5985H15.3975C15.4616 15.5339 15.5235 15.467 15.5839 15.3989H8.41602Z" fill="#F5F5F5"/>
<path d="M8.854 15.8327C8.95399 15.9199 9.05716 16.0034 9.16422 16.0822H14.8357C14.9427 16.0034 15.046 15.9198 15.1459 15.8327H8.854Z" fill="#F5F5F5"/>
<path d="M13.9958 14.8667C12.878 14.8667 12.1132 14.1196 12.1056 14.112L11.9996 14.0067L11.8941 14.1122C11.8865 14.1198 11.1266 14.8667 10.004 14.8667H8.00635C8.0745 14.9695 8.14697 15.0691 8.22272 15.1661H10.0041C11.0083 15.1661 11.7373 14.6408 12 14.4194C12.2626 14.6408 12.9917 15.1661 13.9959 15.1661H15.7773C15.853 15.0691 15.9254 14.9695 15.9936 14.8667H13.9958Z" fill="#F5F5F5"/>
<path d="M11.9476 7.02559L11.7725 7.55073L11.219 7.55504C11.1659 7.55546 11.1439 7.62319 11.1866 7.65469L11.6319 7.98357L11.465 8.51138C11.4489 8.56201 11.5066 8.60386 11.5498 8.57297L12.0002 8.25108L12.4506 8.57297C12.4937 8.60386 12.5514 8.56196 12.5354 8.51138L12.3684 7.98357L12.8138 7.65469C12.8565 7.62315 12.8345 7.55541 12.7814 7.55504L12.2279 7.55073L12.0527 7.02559C12.0357 6.9752 11.9644 6.9752 11.9476 7.02559Z" fill="#FFE15A"/>
<path d="M9.32789 8.10049L9.42928 8.46865L9.11376 8.68376C9.08348 8.70438 9.09689 8.75168 9.13354 8.75332L9.51506 8.77071L9.62212 9.13727C9.63243 9.17243 9.68151 9.17426 9.6944 9.13999L9.82879 8.78252L10.2105 8.79396C10.2471 8.79504 10.264 8.74891 10.2354 8.72609L9.93698 8.48777L10.0658 8.12829C10.0782 8.09379 10.0395 8.06346 10.009 8.08362L9.69014 8.29381L9.38807 8.06018C9.35897 8.03777 9.31814 8.0652 9.32789 8.10049Z" fill="#FFE15A"/>
<path d="M7.80048 9.95487L8.07662 10.2187L7.91645 10.5653C7.90108 10.5986 7.93689 10.6323 7.96909 10.6149L8.30528 10.4338L8.58545 10.6933C8.61231 10.7182 8.65539 10.6945 8.64887 10.6585L8.58053 10.2828L8.9139 10.0965C8.94587 10.0786 8.93673 10.0303 8.9004 10.0255L8.52193 9.97437L8.44778 9.59975C8.4407 9.5638 8.3919 9.55766 8.37606 9.59066L8.2105 9.93476L7.83133 9.88948C7.79495 9.88512 7.774 9.92956 7.80048 9.95487Z" fill="#FFE15A"/>
<path d="M14.759 8.10049L14.6576 8.46865L14.9731 8.68376C15.0034 8.70438 14.99 8.75168 14.9533 8.75332L14.5718 8.77071L14.4648 9.13727C14.4544 9.17243 14.4054 9.17426 14.3925 9.13999L14.2581 8.78252L13.8764 8.79396C13.8398 8.79504 13.8228 8.74891 13.8514 8.72609L14.1499 8.48777L14.021 8.12829C14.0087 8.09379 14.0473 8.06346 14.0779 8.08362L14.3967 8.29381L14.6988 8.06018C14.7279 8.03777 14.7687 8.0652 14.759 8.10049Z" fill="#FFE15A"/>
<path d="M16.2864 9.95487L16.0103 10.2187L16.1705 10.5653C16.1858 10.5986 16.15 10.6323 16.1178 10.6149L15.7816 10.4338L15.5015 10.6933C15.4746 10.7182 15.4315 10.6945 15.438 10.6585L15.5064 10.2828L15.173 10.0965C15.141 10.0786 15.1502 10.0303 15.1865 10.0255L15.565 9.97437L15.6391 9.59975C15.6462 9.5638 15.695 9.55766 15.7108 9.59066L15.8764 9.93476L16.2556 9.88948C16.292 9.88512 16.3129 9.92956 16.2864 9.95487Z" fill="#FFE15A"/>
</svg>
