<svg width="24" height="24" viewBox="0 0 24 24" fill="none" xmlns="http://www.w3.org/2000/svg">
<path d="M0 15.7241H24V19.4482C24 19.6768 23.8147 19.8621 23.5861 19.8621H0.413812C0.185297 19.8621 0 19.6768 0 19.4482V15.7241Z" fill="#73AF00"/>
<path d="M0.413812 4.13794H23.5862C23.8147 4.13794 24 4.32324 24 4.55175V8.27587H0V4.5517C0 4.32319 0.185297 4.13794 0.413812 4.13794Z" fill="#FF4B55"/>
<path d="M24 8.27576H0V15.7242H24V8.27576Z" fill="#464655"/>
<path d="M14.3465 10.6608L14.9693 11.4755L15.9417 11.15C15.9961 11.1318 16.0423 11.1933 16.0098 11.2404L15.4274 12.0845L16.0375 12.9087C16.0715 12.9547 16.0274 13.0177 15.9724 13.0013L14.9898 12.7083L14.3944 13.5432C14.3611 13.5899 14.2876 13.5673 14.2862 13.51L14.2612 12.4849L13.2832 12.1767C13.2285 12.1595 13.2272 12.0826 13.2813 12.0635L14.2485 11.723L14.2395 10.6976C14.239 10.6402 14.3117 10.6153 14.3465 10.6608Z" fill="#F5F5F5"/>
<path d="M12.6563 14.0108C11.5467 14.0108 10.6465 13.1106 10.6465 11.9999C10.6465 10.8914 11.5466 9.98915 12.6563 9.98915C13.0692 9.98915 13.4499 10.1161 13.7672 10.3311C13.8158 10.364 13.8713 10.3001 13.8306 10.2578C13.3564 9.76486 12.6852 9.46406 11.9411 9.48947C10.6626 9.53306 9.60429 10.5581 9.52263 11.8347C9.42907 13.2969 10.5868 14.5121 12.0283 14.5121C12.7384 14.5121 13.3765 14.2152 13.8323 13.7406C13.8725 13.6986 13.817 13.6357 13.7688 13.6684C13.4512 13.8836 13.0699 14.0108 12.6563 14.0108Z" fill="#F5F5F5"/>
</svg>
