<svg width="24" height="24" viewBox="0 0 24 24" fill="none" xmlns="http://www.w3.org/2000/svg">
<path d="M24 9.37935H0V4.55175C0 4.32324 0.185297 4.13794 0.413812 4.13794H23.5862C23.8147 4.13794 24 4.32324 24 4.55175L24 9.37935Z" fill="#41479B"/>
<path d="M23.5861 19.8621H0.413812C0.185297 19.8621 0 19.6768 0 19.4483V14.6207H24V19.4483C24 19.6768 23.8147 19.8621 23.5861 19.8621Z" fill="#41479B"/>
<path d="M24 9.37927H0V14.6204H24V9.37927Z" fill="#F5F5F5"/>
<path d="M12 10.4849L10.7378 12.3411H13.2622L12 10.4849Z" fill="#AFEBFF"/>
<path d="M10.7378 12.3411L9.92102 13.5291H14.0789L13.2622 12.3411H10.7378Z" fill="#557DE6"/>
<path d="M12.323 12.2374C12.328 12.227 12.3333 12.2168 12.3379 12.2062C12.3334 12.2167 12.328 12.227 12.323 12.2374Z" fill="#73AF00"/>
<path d="M12.3578 12.1518C12.3609 12.1425 12.3646 12.1334 12.3673 12.124C12.3646 12.1334 12.3608 12.1424 12.3578 12.1518Z" fill="#73AF00"/>
<path d="M12.28 12.3152C12.2864 12.305 12.2927 12.2949 12.2986 12.2845C12.2927 12.2949 12.2864 12.3051 12.28 12.3152Z" fill="#73AF00"/>
<path d="M12.4139 11.989C12.3982 12.0013 12.3874 12.0184 12.385 12.0379C12.3875 12.0184 12.3982 12.0012 12.4139 11.989Z" fill="#73AF00"/>
<path d="M12.3756 12.543C12.3933 12.5598 12.4108 12.5758 12.4284 12.591C12.5227 12.5095 12.621 12.4058 12.69 12.2846C12.685 12.2932 12.6797 12.3017 12.6744 12.3102C12.61 12.1917 12.576 12.0892 12.5595 12.0284C12.55 11.9937 12.5141 11.9695 12.4731 11.9695C12.4889 12.108 12.5228 12.3624 12.3756 12.543Z" fill="#73AF00"/>
<path d="M12.749 12.1518C12.7521 12.1425 12.7559 12.1334 12.7585 12.124C12.7559 12.1334 12.7521 12.1424 12.749 12.1518Z" fill="#73AF00"/>
<path d="M12.8052 11.989C12.7895 12.0013 12.7787 12.0184 12.7762 12.0379C12.7787 12.0184 12.7894 12.0012 12.8052 11.989Z" fill="#73AF00"/>
<path d="M12.7144 12.2374C12.7194 12.227 12.7247 12.2168 12.7292 12.2062C12.7246 12.2167 12.7194 12.227 12.7144 12.2374Z" fill="#73AF00"/>
<path d="M13.5159 12.6381C13.3728 12.6381 13.2374 12.5694 13.1547 12.4526C13.0301 12.2767 12.9736 12.1126 12.9508 12.0285C12.9414 11.9937 12.9054 11.9695 12.8643 11.9695L12.8645 11.9695C12.8833 12.1348 12.9281 12.4652 12.6596 12.6382H12.4847C12.4776 12.6325 12.4706 12.627 12.4632 12.621C12.4634 12.6212 12.4635 12.6213 12.4637 12.6215C12.4147 12.6854 12.3169 12.7033 12.241 12.6641C11.9233 12.5004 11.9726 12.1434 11.9924 11.9695C11.9514 11.9696 11.9155 11.9937 11.9061 12.0285C11.8896 12.0892 11.8555 12.1918 11.7911 12.3103C11.7859 12.3017 11.7805 12.2933 11.7755 12.2846C11.8531 12.421 11.9683 12.5362 12.0724 12.6215C12.0234 12.6854 11.9256 12.7033 11.8497 12.6641C11.532 12.5004 11.5813 12.1433 11.6011 11.9695C11.5601 11.9696 11.5242 11.9937 11.5147 12.0285C11.4982 12.0892 11.4642 12.1918 11.3998 12.3103C11.3946 12.3017 11.3892 12.2933 11.3842 12.2846C11.4618 12.421 11.577 12.5362 11.6811 12.6215C11.6321 12.6854 11.5342 12.7033 11.4584 12.6641C11.1406 12.5004 11.19 12.1434 11.2098 11.9695L11.2099 11.9695C11.1689 11.9695 11.1329 11.9936 11.1234 12.0285C11.1006 12.1126 11.0441 12.2767 10.9196 12.4526C10.8369 12.5695 10.7015 12.6381 10.5584 12.6381H10.4408V12.7866H13.485H13.5592V12.6381H13.5159Z" fill="#73AF00"/>
<path d="M12.1277 12.2062C12.1322 12.2168 12.1375 12.227 12.1425 12.2373C12.1375 12.227 12.1322 12.2167 12.1277 12.2062Z" fill="#73AF00"/>
<path d="M12.0984 12.1239C12.101 12.1334 12.1048 12.1424 12.1079 12.1517C12.1048 12.1424 12.101 12.1334 12.0984 12.1239Z" fill="#73AF00"/>
<path d="M12.0806 12.038C12.0781 12.0185 12.0674 12.0014 12.0516 11.9891C12.0673 12.0014 12.0781 12.0185 12.0806 12.038Z" fill="#73AF00"/>
<path d="M12.1669 12.2845C12.1728 12.295 12.1792 12.3051 12.1855 12.3152C12.1792 12.3051 12.1728 12.295 12.1669 12.2845Z" fill="#73AF00"/>
<path d="M12.2351 12.3875C12.2343 12.3865 12.2336 12.3855 12.2329 12.3845C12.2392 12.376 12.2453 12.3674 12.2515 12.3588C12.2454 12.3674 12.2391 12.3759 12.2328 12.3844C12.2264 12.3759 12.2202 12.3674 12.2141 12.3588C12.221 12.3685 12.2279 12.378 12.2351 12.3875Z" fill="#73AF00"/>
<path d="M12.3471 12.5156C12.3401 12.5087 12.3334 12.5014 12.3265 12.4943C12.3334 12.5015 12.3401 12.5087 12.3471 12.5156Z" fill="#73AF00"/>
<path d="M12.8645 11.9695L12.8643 11.9694C12.8418 11.9694 12.821 11.9768 12.8052 11.989C12.7895 12.0013 12.7787 12.0184 12.7763 12.0379V12.038C12.7726 12.0673 12.7664 12.0958 12.7586 12.1239C12.7559 12.1334 12.7522 12.1424 12.7491 12.1518C12.743 12.1701 12.7368 12.1884 12.7292 12.2062C12.7246 12.2168 12.7193 12.227 12.7143 12.2373C12.7066 12.2532 12.6988 12.2691 12.69 12.2845C12.621 12.4057 12.5227 12.5094 12.4284 12.591C12.4109 12.5758 12.3933 12.5598 12.3756 12.543C12.5228 12.3624 12.4889 12.1079 12.4732 11.9694L12.473 11.9694C12.4617 11.9694 12.4509 11.9712 12.4409 11.9746C12.4309 11.9779 12.4218 11.9829 12.4139 11.989C12.3982 12.0012 12.3874 12.0183 12.385 12.0378V12.0379C12.3813 12.0672 12.3751 12.0958 12.3672 12.1239C12.3646 12.1333 12.3608 12.1424 12.3577 12.1517C12.3517 12.1701 12.3454 12.1884 12.3378 12.2061C12.3333 12.2167 12.328 12.2269 12.323 12.2373C12.3153 12.2532 12.3074 12.2691 12.2986 12.2845C12.2927 12.2949 12.2864 12.305 12.28 12.3152C12.2708 12.3299 12.2614 12.3445 12.2514 12.3586C12.2453 12.3673 12.2392 12.3759 12.2328 12.3843C12.2264 12.3758 12.2202 12.3673 12.214 12.3586C12.204 12.3445 12.1946 12.3299 12.1854 12.3152C12.1791 12.305 12.1728 12.2949 12.1668 12.2845C12.158 12.269 12.1502 12.2531 12.1425 12.2373C12.1375 12.2269 12.1322 12.2167 12.1276 12.2061C12.12 12.1884 12.1138 12.1701 12.1078 12.1517C12.1047 12.1424 12.1009 12.1333 12.0982 12.1239C12.0904 12.0958 12.0842 12.0672 12.0805 12.0379V12.0378C12.0781 12.0183 12.0674 12.0012 12.0516 11.989C12.0359 11.9767 12.0151 11.9694 11.9925 11.9694L11.9924 11.9694C11.9726 12.1433 11.9233 12.5003 12.241 12.664C12.2946 12.6916 12.3589 12.6905 12.4093 12.6651C12.4415 12.6489 12.4761 12.638 12.5122 12.638H12.6596C12.9281 12.4652 12.8833 12.1347 12.8645 11.9695Z" fill="#FFE15A"/>
<path d="M11.6892 12.038C11.6868 12.0185 11.6761 12.0014 11.6603 11.9891C11.676 12.0014 11.6868 12.0185 11.6892 12.038Z" fill="#73AF00"/>
<path d="M11.7365 12.2062C11.741 12.2168 11.7463 12.227 11.7513 12.2373C11.7462 12.227 11.741 12.2167 11.7365 12.2062Z" fill="#73AF00"/>
<path d="M11.6013 11.9694C11.6126 11.9694 11.6234 11.9713 11.6334 11.9746C11.6234 11.9712 11.6126 11.9694 11.6013 11.9694Z" fill="#73AF00"/>
<path d="M11.8496 12.6641C11.9256 12.7032 12.0235 12.6853 12.0723 12.6214C11.9683 12.5361 11.8532 12.421 11.7755 12.2846C11.7667 12.2692 11.7589 12.2533 11.7512 12.2374C11.7461 12.227 11.7408 12.2168 11.7363 12.2062C11.7287 12.1885 11.7225 12.1702 11.7164 12.1518C11.7133 12.1425 11.7096 12.1335 11.7069 12.124C11.699 12.096 11.6928 12.0674 11.6892 12.0381V12.038C11.6867 12.0185 11.6761 12.0014 11.6603 11.9891C11.6524 11.983 11.6432 11.9781 11.6333 11.9747C11.6233 11.9713 11.6125 11.9695 11.6012 11.9695L11.601 11.9695C11.5813 12.1433 11.5319 12.5003 11.8496 12.6641Z" fill="#FFE15A"/>
<path d="M11.3451 12.2062C11.3496 12.2168 11.3549 12.227 11.36 12.2373C11.3549 12.227 11.3496 12.2167 11.3451 12.2062Z" fill="#73AF00"/>
<path d="M11.298 12.038C11.2955 12.0185 11.2848 12.0014 11.269 11.9891C11.2847 12.0014 11.2955 12.0185 11.298 12.038Z" fill="#73AF00"/>
<path d="M11.4584 12.6641C11.5344 12.7032 11.6323 12.6853 11.6811 12.6214C11.5771 12.5361 11.462 12.421 11.3843 12.2846C11.3755 12.2692 11.3677 12.2533 11.36 12.2374C11.3549 12.227 11.3496 12.2168 11.3451 12.2062C11.3375 12.1885 11.3313 12.1702 11.3252 12.1518C11.3221 12.1425 11.3184 12.1335 11.3157 12.124C11.3078 12.096 11.3016 12.0674 11.298 12.0381V12.038C11.2956 12.0185 11.2849 12.0014 11.2691 11.9891C11.2534 11.9768 11.2326 11.9695 11.21 11.9695L11.2098 11.9695C11.19 12.1433 11.1406 12.5003 11.4584 12.6641Z" fill="#FFE15A"/>
<path d="M11.3745 11.379C11.3683 11.4027 11.3621 11.4264 11.356 11.4501C11.5586 11.3893 11.7823 11.3528 12.025 11.3528C12.2678 11.3529 12.4915 11.3891 12.6941 11.4501C12.688 11.4264 12.6818 11.4027 12.6756 11.379C12.474 11.327 12.257 11.2971 12.025 11.2972C11.7931 11.2971 11.5761 11.327 11.3745 11.379Z" fill="#41479B"/>
<path d="M11.3825 11.3481C11.3764 11.3718 11.3702 11.3955 11.364 11.4192C11.5645 11.3582 11.7854 11.3217 12.025 11.3216C12.2647 11.3217 12.4856 11.3582 12.6861 11.4192C12.6799 11.3955 12.6737 11.3718 12.6676 11.3481C12.4682 11.2957 12.254 11.266 12.025 11.266C11.7961 11.266 11.5819 11.2959 11.3825 11.3481Z" fill="#5AA0E6"/>
<path d="M11.39 11.3196C11.3838 11.3432 11.3776 11.367 11.3715 11.3906C11.5699 11.3295 11.7883 11.2927 12.025 11.2928C12.2619 11.2928 12.4802 11.3295 12.6786 11.3906C12.6725 11.367 12.6662 11.3432 12.6601 11.3196C12.4629 11.2672 12.2512 11.2371 12.025 11.2371C11.7989 11.2371 11.5872 11.2672 11.39 11.3196Z" fill="#9BC800"/>
<path d="M11.3984 11.2869C11.3923 11.3106 11.386 11.3343 11.3799 11.358C11.576 11.2966 11.7914 11.2598 12.025 11.2598C12.2585 11.2599 12.4739 11.2966 12.6701 11.358C12.6639 11.3343 12.6577 11.3106 12.6516 11.2869C12.4566 11.2344 12.248 11.2043 12.025 11.2042C11.8019 11.2042 11.5933 11.2344 11.3984 11.2869Z" fill="#FFE14E"/>
<path d="M11.4068 11.2549C11.4007 11.2785 11.3944 11.3023 11.3883 11.3259C11.5822 11.2644 11.7946 11.2275 12.025 11.2274C12.2554 11.2275 12.4679 11.2643 12.6617 11.3259C12.6556 11.3023 12.6493 11.2785 12.6432 11.2549C12.4507 11.2022 12.2449 11.1718 12.025 11.1718C11.8051 11.1719 11.5993 11.202 11.4068 11.2549Z" fill="#FFB14E"/>
<path d="M11.4103 11.2412C11.406 11.2578 11.4017 11.2744 11.3973 11.291C11.5887 11.2294 11.7981 11.1921 12.0249 11.1921C12.2519 11.192 12.4613 11.2293 12.6526 11.291C12.6482 11.2744 12.6439 11.2579 12.6396 11.2412C12.4481 11.1884 12.2435 11.1581 12.0249 11.158C11.8064 11.1579 11.6019 11.1883 11.4103 11.2412Z" fill="#FF4B55"/>
<path d="M14.079 13.6011H9.92105C9.89363 13.6011 9.86851 13.586 9.85557 13.562C9.84263 13.5378 9.84413 13.5085 9.85927 13.4857L11.9383 10.3672C11.9658 10.3261 12.0343 10.3261 12.0618 10.3672L14.1408 13.4857C14.156 13.5085 14.1574 13.5378 14.1445 13.562C14.1315 13.5861 14.1064 13.6011 14.079 13.6011ZM10.0597 13.4526H13.9402L12 10.5423L10.0597 13.4526Z" fill="#FFE15A"/>
<path d="M12.142 11.6687C12.142 11.6034 12.0758 11.5041 11.9698 11.5041C11.9079 11.5041 11.8577 11.542 11.8577 11.5886C11.8577 11.6119 11.8702 11.633 11.8904 11.6483C11.8903 11.6491 11.8902 11.6501 11.8902 11.6509C11.8649 11.6664 11.8484 11.6897 11.8484 11.7162C11.8484 11.7607 11.8943 11.7968 11.9523 11.8001L12 11.8955L12.0431 11.8094C12.0996 11.795 12.142 11.7376 12.142 11.6687Z" fill="#FF4B55"/>
</svg>
