<svg width="24" height="24" viewBox="0 0 24 24" fill="none" xmlns="http://www.w3.org/2000/svg">
<path d="M23.5861 4.13794H0.413812C0.185297 4.13794 0 4.32319 0 4.5517V19.4482C0 19.6767 0.185297 19.862 0.413812 19.862H23.5862C23.8147 19.862 24 19.6767 24 19.4482V4.5517C24 4.32319 23.8147 4.13794 23.5861 4.13794Z" fill="#FF4B55"/>
<path d="M0.163828 19.7695L13.4701 12.257C13.6702 12.144 13.6702 11.8559 13.4701 11.743L0.163828 4.23041C0.0665624 4.30611 0 4.41894 0 4.55169V19.4482C0 19.581 0.0666092 19.6938 0.163828 19.7695Z" fill="#FFE15A"/>
<path d="M0.128484 19.7458L9.17215 12.2846C9.35108 12.137 9.35108 11.863 9.17215 11.7153L0.128484 4.25418C0.0499218 4.32956 0 4.43427 0 4.5517V19.4482C0 19.5657 0.0499218 19.6704 0.128484 19.7458Z" fill="#464655"/>
<path d="M2.58429 10.0568L2.62371 11.5461L1.22736 12.0655C1.09344 12.1154 1.1 12.3069 1.23701 12.3475L2.66562 12.7702L2.72815 14.2587C2.73415 14.4015 2.91837 14.4544 2.99928 14.3367L3.84279 13.1086L5.27777 13.5091C5.41535 13.5475 5.52269 13.3886 5.43569 13.2753L4.52834 12.0936L5.35268 10.8526C5.43171 10.7336 5.31382 10.5825 5.17915 10.6302L3.77496 11.1279L2.84946 9.96047C2.76064 9.84848 2.5805 9.91397 2.58429 10.0568Z" fill="#F5F5F5"/>
</svg>
