<svg width="24" height="24" viewBox="0 0 24 24" fill="none" xmlns="http://www.w3.org/2000/svg">
<path d="M23.5861 19.8621H0.413812C0.185297 19.8621 0 19.6768 0 19.4483V4.55175C0 4.32324 0.185297 4.13794 0.413812 4.13794H23.5862C23.8147 4.13794 24 4.32324 24 4.55175V19.4483C24 19.6768 23.8147 19.8621 23.5861 19.8621Z" fill="#FF4B55"/>
<path d="M10.5223 12.6057C10.0007 12.6111 9.41497 12.4441 8.90174 11.8783C8.86635 11.8393 8.87132 11.7779 8.91154 11.7438L8.91168 11.7437C8.95068 11.7106 9.00833 11.7157 9.04278 11.7536C9.82513 12.6126 10.7948 12.4622 11.3741 12.2546C11.1601 12.2642 10.8912 12.2481 10.7182 12.1344C9.99561 11.6594 10.3229 11.1541 9.84299 10.5433C9.36613 9.93635 8.93704 9.95121 8.26138 10.0536C7.59248 10.155 7.37938 9.66434 7.31305 9.39204C7.30119 9.34325 7.23313 9.3402 7.21569 9.38721C6.38198 11.6397 8.88885 14.4269 11.4626 12.4229C11.2086 12.5164 10.8815 12.6021 10.5223 12.6057ZM8.64421 11.8413C8.62958 11.8816 8.57216 11.88 8.55974 11.839L8.46374 11.5226L8.13332 11.5111C8.09052 11.5096 8.0743 11.4545 8.10941 11.43L8.38063 11.241L8.28955 10.9231C8.27774 10.882 8.32513 10.8495 8.35925 10.8753L8.62288 11.0748L8.897 10.8899C8.93249 10.866 8.97805 10.901 8.96399 10.9414L8.85571 11.2538L9.11624 11.4574C9.14994 11.4838 9.13072 11.5379 9.08793 11.537L8.75736 11.5306L8.64421 11.8413Z" fill="#F5F5F5"/>
<path d="M12.3689 11.1092C12.7831 10.792 13.352 10.5745 14.102 10.7193C14.1537 10.7293 14.1866 10.7814 14.1748 10.8328L14.1748 10.833C14.1634 10.8828 14.1142 10.9133 14.0639 10.9037C12.9227 10.6854 12.2369 11.3873 11.8979 11.9008C12.0635 11.7648 12.2883 11.6164 12.4949 11.6037C13.358 11.5504 13.3991 12.1511 14.1495 12.352C14.895 12.5517 15.2295 12.2825 15.7088 11.7954C16.1833 11.3131 16.6481 11.5779 16.8644 11.756C16.9032 11.788 16.9595 11.7496 16.9452 11.7015C16.2615 9.39902 12.5839 8.67213 11.7262 11.8193C11.8732 11.5923 12.0837 11.3275 12.3689 11.1092ZM14.3302 10.5945C14.3178 10.5535 14.3647 10.5204 14.3992 10.5457L14.6658 10.7412L14.9371 10.5523C14.9722 10.5279 15.0183 10.5622 15.0049 10.6029L14.9013 10.9168L15.1648 11.1165C15.1989 11.1424 15.1804 11.1968 15.1377 11.1966L14.807 11.195L14.6986 11.5074C14.6845 11.5478 14.6271 11.5471 14.6141 11.5063L14.5134 11.1914L14.1828 11.1848C14.14 11.1839 14.123 11.1291 14.1577 11.1041L14.4261 10.911L14.3302 10.5945Z" fill="#F5F5F5"/>
<path d="M10.9874 11.3262C10.784 10.8459 10.7156 10.2407 11.0434 9.55077C11.066 9.50319 11.1248 9.48439 11.1716 9.50863L11.1717 9.50872C11.2172 9.5322 11.2343 9.58752 11.2125 9.63374C10.7157 10.6841 11.2238 11.5236 11.6362 11.9803C11.5459 11.786 11.4585 11.5312 11.4978 11.328C11.6621 10.479 12.2539 10.5894 12.6362 9.91311C13.016 9.24116 12.839 8.85003 12.4872 8.26414C12.139 7.68411 12.5117 7.30035 12.7383 7.13544C12.7788 7.10591 12.7558 7.04183 12.7057 7.04362C10.3054 7.12972 8.6817 10.5086 11.5143 12.1262C11.3313 11.9269 11.1275 11.657 10.9874 11.3262ZM10.9797 9.29853C10.9369 9.30031 10.9166 9.2466 10.9497 9.21955L11.2057 9.01039L11.0907 8.70041C11.0758 8.66028 11.1206 8.62428 11.1566 8.64744L11.4346 8.82631L11.6938 8.62114C11.7274 8.59457 11.7754 8.62602 11.7645 8.66746L11.6803 8.98714L11.9555 9.17028C11.9912 9.194 11.9761 9.24941 11.9334 9.25185L11.6033 9.27055L11.5142 9.58892C11.5027 9.63013 11.4453 9.63294 11.4298 9.59305L11.31 9.28494L10.9797 9.29853Z" fill="#F5F5F5"/>
<path d="M12.8576 12.4162C13.2888 12.7098 13.6741 13.1816 13.772 13.9391C13.7788 13.9914 13.7396 14.039 13.6871 14.044H13.6869C13.636 14.0489 13.5916 14.0117 13.5849 13.961C13.4337 12.8089 12.5519 12.3783 11.9579 12.2177C12.139 12.3322 12.3505 12.499 12.4275 12.6912C12.7491 13.4938 12.1918 13.7216 12.2367 14.4971C12.2812 15.2677 12.6419 15.5006 13.255 15.8027C13.8619 16.1017 13.7564 16.6261 13.6552 16.8875C13.6371 16.9343 13.6911 16.9757 13.7323 16.9471C15.7035 15.5747 15.2386 11.855 11.9813 12.0292C12.2434 12.0975 12.5607 12.214 12.8576 12.4162ZM13.9623 14.1167C13.9973 14.092 14.0435 14.1261 14.0303 14.1668L13.9284 14.4813L14.1929 14.6796C14.2271 14.7053 14.2091 14.7598 14.1663 14.7598L13.8356 14.76L13.7288 15.0729C13.715 15.1134 13.6575 15.113 13.6443 15.0723L13.5419 14.7579L13.2114 14.753C13.1685 14.7524 13.1512 14.6976 13.1858 14.6724L13.4532 14.4779L13.3557 14.1619C13.3431 14.121 13.3898 14.0876 13.4244 14.1128L13.692 14.3069L13.9623 14.1167Z" fill="#F5F5F5"/>
<path d="M11.7793 13.3511C11.6308 13.8511 11.2987 14.3617 10.6068 14.6855C10.5591 14.7079 10.5019 14.685 10.4812 14.6366L10.4811 14.6364C10.461 14.5894 10.4829 14.5358 10.5291 14.514C11.5805 14.0195 11.7224 13.0485 11.6947 12.4337C11.6407 12.6411 11.5461 12.8933 11.3866 13.0251C10.7199 13.5758 10.3333 13.1142 9.60817 13.3929C8.8877 13.6699 8.77553 14.0843 8.67432 14.7602C8.5742 15.4293 8.0425 15.4884 7.76275 15.4716C7.71268 15.4686 7.68967 15.5327 7.72947 15.5632C9.63652 17.0233 13.0384 15.4486 11.8814 12.3988C11.8961 12.6689 11.8816 13.0067 11.7793 13.3511ZM10.4956 14.9207C10.5297 14.9466 10.5113 15.0009 10.4685 15.0008L10.1379 14.9993L10.0296 15.3117C10.0156 15.3522 9.95809 15.3514 9.94505 15.3107L9.84423 14.9958L9.51366 14.9892C9.47087 14.9884 9.45376 14.9335 9.48854 14.9085L9.75685 14.7154L9.66095 14.399C9.64852 14.358 9.6954 14.3248 9.7299 14.3501L9.99652 14.5456L10.2678 14.3566C10.3029 14.3321 10.349 14.3665 10.3356 14.4071L10.2321 14.7211L10.4956 14.9207Z" fill="#F5F5F5"/>
</svg>
