<svg width="24" height="24" viewBox="0 0 24 24" fill="none" xmlns="http://www.w3.org/2000/svg">
<path d="M23.5861 19.8621H0.413812C0.185297 19.8621 0 19.6768 0 19.4483V4.55175C0 4.32324 0.185297 4.13794 0.413812 4.13794H23.5862C23.8147 4.13794 24 4.32324 24 4.55175V19.4483C24 19.6768 23.8147 19.8621 23.5861 19.8621Z" fill="#FF4B55"/>
<path d="M11.8815 10.5821L12.5301 11.4306L13.5429 11.0916C13.5995 11.0727 13.6477 11.1367 13.6138 11.1858L13.0073 12.0649L13.6427 12.9234C13.6782 12.9714 13.6322 13.0369 13.575 13.0199L12.5515 12.7147L11.9315 13.5842C11.8968 13.6328 11.8201 13.6093 11.8187 13.5497L11.7927 12.482L10.7741 12.1609C10.7171 12.143 10.7158 12.0629 10.7721 12.0431L11.7795 11.6884L11.77 10.6204C11.7695 10.5607 11.8453 10.5347 11.8815 10.5821Z" fill="#F5F5F5"/>
<path d="M8.29475 15.3122C6.46687 15.3122 4.98412 13.8294 4.98412 11.9999C4.98412 10.1738 6.46691 8.68764 8.29475 8.68764C8.97481 8.68764 9.60195 8.8968 10.1246 9.2508C10.2046 9.30499 10.296 9.19985 10.229 9.13019C9.44788 8.31808 8.34238 7.82266 7.1166 7.86452C5.0107 7.93638 3.26732 9.62481 3.13275 11.7276C2.97867 14.1362 4.88582 16.1379 7.26032 16.1379C8.42999 16.1379 9.4812 15.6489 10.2319 14.867C10.2982 14.798 10.2066 14.6944 10.1274 14.7481C9.60416 15.1029 8.97599 15.3122 8.29475 15.3122Z" fill="#F5F5F5"/>
</svg>
