<svg width="24" height="24" viewBox="0 0 24 24" fill="none" xmlns="http://www.w3.org/2000/svg">
<path d="M23.5861 19.862H0.413812C0.185297 19.862 0 19.6767 0 19.4482V4.55174C0 4.32323 0.185297 4.13793 0.413812 4.13793H23.5862C23.8147 4.13793 24 4.32323 24 4.55174V19.4482C24 19.6768 23.8147 19.862 23.5861 19.862Z" fill="#FF4B55"/>
<path d="M16.5258 13.959C16.2995 13.8168 16.1637 14.0431 16.1637 14.0431L15.5043 14.1206L15.834 13.8426C16.0732 13.862 16.1055 13.7909 16.1702 13.6939C16.2348 13.597 16.5063 13.6422 16.5063 13.6422C16.4675 13.3448 16.0925 13.5129 16.0925 13.5129C15.7886 13.4806 15.7369 13.7263 15.7369 13.7263L15.265 14.0883L14.2263 13.7806C14.334 13.6619 14.4186 13.5449 14.4309 13.4741C14.4516 13.3552 13.6637 13.1551 13.4223 12.9051C13.1809 12.6551 13.0947 12.2586 13.2068 12.1551C13.3189 12.0517 13.4137 12.3447 13.5344 12.5861C13.655 12.8276 13.8792 13.0172 14.0258 12.8965C14.1723 12.7759 13.8706 12.5948 13.7327 12.3362C13.5948 12.0776 13.8361 11.9827 13.9482 12.0086C14.0603 12.0344 14.1292 12.5689 14.3965 12.8448C14.6637 13.1206 14.9051 13.0689 14.931 12.8965C14.9569 12.7241 14.4899 12.5116 14.3951 12.365C14.3002 12.2185 14.2758 11.9309 14.431 11.9224C14.5861 11.9137 15.1551 12.7617 15.6379 13.0862C16.1637 13.4396 16.5861 13.0258 16.5172 12.8534C16.4483 12.6809 16.1293 12.7499 15.7586 12.6551C15.3879 12.5602 15.0086 12.0602 14.8965 11.7844C14.7844 11.5085 14.8771 11.5085 14.9418 11.5344C15.0064 11.5603 15.2522 11.9224 15.7241 12.2004C16.1961 12.4784 16.5258 12.2133 16.5647 12.1487C16.6035 12.084 16.7526 11.7938 16.2672 11.862C15.7156 11.9396 15.4008 11.612 15.1746 11.4375C14.9483 11.2629 14.8578 11.0237 14.9612 10.9267C15.0647 10.8297 15.4052 11.2672 15.9224 11.4051C16.3975 11.5318 16.5905 11.3276 16.5775 11.1401C16.5646 10.9526 16.4546 11.0301 15.918 10.9784C15.3814 10.9267 15.0064 10.4224 14.987 10.3901C14.9676 10.3577 14.9741 10.1767 15.2456 10.3512C15.5171 10.5258 16.0021 10.6293 16.2865 10.6163C16.571 10.6034 16.6292 10.2219 16.4935 10.1573C16.3577 10.0926 16.3254 10.1896 16.015 10.2543C15.7046 10.3189 15.1228 10.0021 14.9805 9.85339C14.8383 9.70465 14.9935 9.60772 15.0646 9.62061C15.1357 9.6335 15.6012 9.90509 16.015 9.89215C16.4288 9.87922 16.6034 9.49775 16.5904 9.38136C16.5775 9.26497 16.4611 9.16798 16.2865 9.28437C16.112 9.40076 15.8792 9.53651 15.4913 9.47187C15.1034 9.40723 14.9223 9.14858 14.9741 9.05164C15.0258 8.95466 15.4008 9.12275 15.9956 9.05811C16.5905 8.99347 16.6163 8.46973 16.5581 8.36628C16.5 8.26283 16.3577 8.29517 16.1573 8.48267C15.9568 8.67017 15.5689 8.70898 15.2651 8.70898C14.9612 8.70898 14.9547 8.5603 15 8.45684C15.0453 8.35339 15.3685 8.37927 15.8211 8.237C16.2737 8.09478 16.5323 7.73267 16.6034 7.50641C16.6746 7.28014 16.5 7.10553 16.4289 7.10553C16.3578 7.10553 16.403 7.00208 16.0927 7.44819C15.7823 7.8943 14.9677 8.06886 14.9677 8.06886C14.9095 7.95894 14.819 7.92017 14.819 7.92017C14.2694 8.03009 13.6065 8.50461 13.6065 8.50461C13.6065 8.50461 13.7234 8.87942 13.5774 9.17155C13.3894 9.54758 12.7449 9.31269 12.9202 8.71883C13.0661 8.2243 13.6309 7.92533 14.108 7.87175C14.5851 7.81822 14.6095 7.63808 14.6095 7.63808C14.6095 7.63808 14.1085 7.8012 14.0995 7.57728C14.203 7.59828 14.3554 7.60742 14.6143 7.5845C14.9989 7.55047 15.2132 7.2778 15.0428 7.21939C14.8724 7.16099 14.9454 7.33625 14.6533 7.47256C14.4449 7.56978 14.2263 7.526 14.1168 7.49277C14.2179 7.27199 14.6435 7.38491 14.6435 7.38491C14.6484 7.0003 14.1381 7.13788 14.1381 7.13788C13.914 6.65507 12.6036 7.21546 12.6036 7.21546L12.9139 7.46544C12.1553 7.88783 12.0001 8.68953 12.0001 8.68953C12.0001 8.68953 11.845 7.88783 11.0863 7.46539L11.3967 7.21541C11.3967 7.21541 10.0863 6.65502 9.86216 7.13783C9.86216 7.13783 9.35178 7.0003 9.3567 7.38486C9.3567 7.38486 9.78233 7.27194 9.88349 7.49272C9.77403 7.526 9.55536 7.56974 9.347 7.47252C9.05492 7.33616 9.12795 7.16099 8.95752 7.21935C8.78713 7.27775 9.00135 7.55038 9.38595 7.58445C9.64484 7.60738 9.79733 7.59828 9.90078 7.57724C9.89183 7.80116 9.39083 7.63803 9.39083 7.63803C9.39083 7.63803 9.4152 7.81813 9.89225 7.8717C10.3693 7.92528 10.9342 8.22425 11.0801 8.71878C11.2553 9.31269 10.6109 9.54748 10.4229 9.1715C10.2769 8.87942 10.3938 8.50456 10.3938 8.50456C10.3938 8.50456 9.73086 8.03005 9.1813 7.92013C9.1813 7.92013 9.09078 7.95894 9.03261 8.06881C9.03261 8.06881 8.21797 7.89425 7.90761 7.44814C7.59726 7.00203 7.64254 7.10549 7.57143 7.10549C7.50032 7.10549 7.32576 7.28005 7.39687 7.50636C7.46797 7.73267 7.72658 8.09474 8.17921 8.23695C8.63183 8.37917 8.95508 8.35334 9.00032 8.4568C9.0456 8.56025 9.03913 8.70894 8.73524 8.70894C8.43135 8.70894 8.04341 8.67012 7.84302 8.48262C7.64258 8.29513 7.50037 8.26278 7.44215 8.36623C7.38397 8.46969 7.4098 8.99337 8.00465 9.05806C8.59949 9.1227 8.97449 8.95461 9.02619 9.05159C9.07789 9.14858 8.89686 9.40719 8.50897 9.47183C8.12104 9.53647 7.8883 9.40072 7.71374 9.28433C7.53918 9.16794 7.42279 9.26492 7.40985 9.38131C7.39691 9.4977 7.57147 9.87917 7.98529 9.89211C8.3991 9.90504 8.86461 9.6335 8.93572 9.62056C9.00683 9.60762 9.16203 9.70461 9.01977 9.85329C8.87755 10.002 8.29564 10.3188 7.98529 10.2542C7.67493 10.1895 7.64263 10.0925 7.50683 10.1572C7.37104 10.2218 7.42926 10.6033 7.71374 10.6162C7.99822 10.6292 8.48314 10.5257 8.75469 10.3512C9.02624 10.1766 9.03271 10.3576 9.0133 10.39C8.99389 10.4223 8.61889 10.9266 8.08227 10.9783C7.54565 11.03 7.43572 10.9525 7.42279 11.14C7.40985 11.3275 7.60283 11.5317 8.07796 11.405C8.59518 11.2671 8.93577 10.8296 9.03917 10.9266C9.14263 11.0236 9.05211 11.2628 8.8258 11.4374C8.59949 11.6119 8.28482 11.9395 7.73315 11.8619C7.2478 11.7937 7.39696 12.0839 7.43572 12.1486C7.47449 12.2132 7.80425 12.4783 8.27624 12.2003C8.74822 11.9223 8.99389 11.5602 9.05858 11.5343C9.12322 11.5084 9.21594 11.5084 9.10386 11.7843C8.99178 12.0602 8.61247 12.5602 8.24178 12.655C7.8711 12.7498 7.55211 12.6808 7.48316 12.8533C7.41421 13.0257 7.8366 13.4395 8.36249 13.086C8.8453 12.7616 9.41422 11.9136 9.56942 11.9222C9.72458 11.9308 9.70011 12.2184 9.60533 12.3649C9.51045 12.5115 9.04353 12.7239 9.06941 12.8963C9.09528 13.0687 9.3366 13.1204 9.60388 12.8446C9.87111 12.5688 9.94006 12.0342 10.0522 12.0084C10.1642 11.9825 10.4056 12.0774 10.2677 12.336C10.1298 12.5946 9.82803 12.7757 9.97461 12.8964C10.1211 13.017 10.3453 12.8274 10.466 12.586C10.5867 12.3446 10.6815 12.0515 10.7936 12.155C10.9056 12.2584 10.8194 12.655 10.578 12.905C10.3367 13.155 9.5487 13.355 9.56942 13.474C9.58175 13.5448 9.66631 13.6617 9.77408 13.7804L8.73538 14.0882L8.26339 13.7261C8.26339 13.7261 8.21169 13.4804 7.9078 13.5127C7.9078 13.5127 7.5328 13.3446 7.49399 13.6421C7.49399 13.6421 7.76554 13.5968 7.83018 13.6938C7.89482 13.7907 7.92716 13.8618 8.16636 13.8424L8.49603 14.1205L7.83655 14.0429C7.83655 14.0429 7.70075 13.8166 7.47449 13.9589C7.47449 13.9589 7.19001 13.8684 7.1189 14.1399C7.1189 14.1399 7.36457 14.0946 7.42926 14.127C7.42926 14.127 7.52624 14.3468 7.8366 14.2175L8.48961 14.2498L8.12108 14.4309C8.12108 14.4309 7.65557 14.2822 7.67497 14.6701C7.67497 14.6701 7.53918 14.8252 7.66204 14.9804C7.66204 14.9804 7.68791 14.8123 7.81072 14.7412C7.81072 14.7412 8.04993 14.8382 8.20513 14.5537L8.67711 14.2692L9.14263 14.4956C9.14263 14.4956 9.12969 14.7477 9.47234 14.6442C9.47234 14.6442 9.58874 14.7218 9.62103 14.8253C9.62103 14.8253 9.76972 14.6636 9.53052 14.4761C9.53052 14.4761 9.47234 14.2563 9.18786 14.3403L8.92278 14.2046L9.90364 13.9135C10.0735 14.0752 10.2567 14.2078 10.3208 14.1856C10.4474 14.1418 10.5448 14.0104 10.6324 13.8254C10.72 13.6404 11.1143 12.9978 11.309 13.0027C11.5038 13.0076 11.5914 13.1633 11.5427 13.4409C11.4941 13.7183 11.1146 14.2499 10.8688 14.3598C10.6232 14.4697 10.5844 14.5214 10.358 14.502C10.1317 14.4826 10.0542 14.5796 10.1059 14.7089C10.1576 14.8383 10.4122 14.9205 10.6619 14.8253C10.9335 14.7219 11.0369 14.5796 11.1404 14.6637C11.2438 14.7477 11.0305 15.0516 10.7395 15.1421C10.4486 15.2327 10.2287 15.1745 10.274 15.3555C10.3193 15.5365 10.6296 15.5495 10.83 15.4331C11.0305 15.3167 11.2567 14.9935 11.315 15.0969C11.3731 15.2004 11.3344 15.4654 11.1404 15.6077C10.9464 15.7499 10.7258 15.6663 10.6813 15.7952C10.6167 15.9827 10.843 16.1056 11.0175 16.0344C11.1921 15.9633 11.3925 15.7435 11.483 15.5495C11.5736 15.3555 11.7417 15.5236 11.6899 15.7046C11.6382 15.8857 11.6813 16.0344 11.3106 16.3188L12.0003 17.3792L12.6899 16.3188C12.3192 16.0343 12.3624 15.8856 12.3106 15.7046C12.2589 15.5236 12.427 15.3555 12.5175 15.5494C12.608 15.7434 12.8084 15.9633 12.983 16.0344C13.1576 16.1055 13.3839 15.9827 13.3192 15.7952C13.2747 15.6662 13.0541 15.7499 12.8601 15.6077C12.6662 15.4654 12.6274 15.2003 12.6856 15.0969C12.7437 14.9934 12.9701 15.3167 13.1705 15.4331C13.3709 15.5494 13.6813 15.5365 13.7265 15.3555C13.7718 15.1744 13.552 15.2326 13.261 15.1421C12.9701 15.0516 12.7567 14.7477 12.8601 14.6636C12.9636 14.5796 13.067 14.7218 13.3386 14.8253C13.5884 14.9204 13.8429 14.8382 13.8946 14.7089C13.9463 14.5796 13.8687 14.4826 13.6425 14.502C13.4162 14.5214 13.3774 14.4696 13.1317 14.3598C12.886 14.2499 12.5065 13.7183 12.4578 13.4408C12.4091 13.1633 12.4968 13.0075 12.6915 13.0027C12.8862 12.9978 13.2805 13.6403 13.3682 13.8253C13.4558 14.0103 13.5531 14.1418 13.6797 14.1856C13.7439 14.2078 13.9271 14.0752 14.0969 13.9135L15.0777 14.2046L14.8127 14.3403C14.5282 14.2563 14.47 14.4761 14.47 14.4761C14.2308 14.6636 14.3795 14.8253 14.3795 14.8253C14.4118 14.7218 14.5282 14.6442 14.5282 14.6442C14.8708 14.7477 14.8579 14.4956 14.8579 14.4956L15.3234 14.2692L15.7954 14.5537C15.9506 14.8382 16.1898 14.7412 16.1898 14.7412C16.3127 14.8123 16.3385 14.9804 16.3385 14.9804C16.4613 14.8253 16.3256 14.6701 16.3256 14.6701C16.345 14.2822 15.8794 14.4309 15.8794 14.4309L15.5107 14.25L16.1637 14.2176C16.4741 14.347 16.5711 14.1271 16.5711 14.1271C16.6357 14.0948 16.8814 14.1401 16.8814 14.1401C16.8103 13.8685 16.5258 13.959 16.5258 13.959Z" fill="#464655"/>
</svg>
