<svg width="24" height="24" viewBox="0 0 24 24" fill="none" xmlns="http://www.w3.org/2000/svg">
<g clip-path="url(#clip0_2058_8252)">
<path d="M12 19.8621H0.413813C0.185297 19.8621 0 19.6768 0 19.4482V4.55171C0 4.3232 0.185297 4.1379 0.413813 4.1379H12V19.8621H12Z" fill="#73AF00"/>
<path d="M12 4.13795H23.5862C23.8147 4.13795 24 4.32324 24 4.55176V19.4483C24 19.6768 23.8147 19.8621 23.5862 19.8621H12V4.13795Z" fill="#F5F5F5"/>
<path d="M13.9973 10.4956L13.2798 11.4341L12.1597 11.0591C12.097 11.0382 12.0437 11.109 12.0812 11.1634L12.7521 12.1357L12.0493 13.0852C12.01 13.1382 12.0609 13.2108 12.1242 13.1919L13.2563 12.8543L13.9421 13.8162C13.9805 13.87 14.0652 13.844 14.0668 13.778L14.0956 12.597L15.2222 12.2419C15.2852 12.222 15.2867 12.1334 15.2244 12.1115L14.1101 11.7192L14.1206 10.5379C14.1212 10.4719 14.0373 10.4432 13.9973 10.4956Z" fill="#FF4B55"/>
<path d="M12.7438 14.842C11.1754 14.842 9.90313 13.5698 9.90313 12C9.90313 10.433 11.1754 9.15794 12.7438 9.15794C13.3273 9.15794 13.8654 9.33742 14.3138 9.64113C14.3825 9.68763 14.4609 9.59744 14.4034 9.53763C13.7331 8.84078 12.7845 8.41572 11.7328 8.45163C9.92591 8.51327 8.43008 9.96204 8.31462 11.7663C8.18234 13.833 9.8188 15.5504 11.8562 15.5504C12.8598 15.5504 13.7618 15.1309 14.4059 14.46C14.4628 14.4007 14.3842 14.3119 14.3163 14.358C13.8673 14.6623 13.3283 14.842 12.7438 14.842Z" fill="#FF4B55"/>
</g>
<defs>
<clipPath id="clip0_2058_8252">
<rect width="24" height="24" fill="white"/>
</clipPath>
</defs>
</svg>
