<svg width="24" height="24" viewBox="0 0 24 24" fill="none" xmlns="http://www.w3.org/2000/svg">
<path d="M24 6.38433H0V4.55175C0 4.32324 0.185297 4.13794 0.413812 4.13794H23.5862C23.8147 4.13794 24 4.32324 24 4.55175L24 6.38433Z" fill="#73AF00"/>
<path d="M24 6.3844H0V8.63079H24V6.3844Z" fill="#FFE15A"/>
<path d="M24 8.63062H0V10.877H24V8.63062Z" fill="#FF4B55"/>
<path d="M0 17.6157H24V19.4483C24 19.6768 23.8147 19.8621 23.5861 19.8621H0.413812C0.185297 19.8621 0 19.6768 0 19.4483V17.6157Z" fill="#73AF00"/>
<path d="M24 15.3694H0V17.6158H24V15.3694Z" fill="#FFE15A"/>
<path d="M24 13.1232H0V15.3696H24V13.1232Z" fill="#FF4B55"/>
<path d="M24 10.8769H9.17896L0.666661 4.13794H0.413818C0.307037 4.13794 0.211834 4.18106 0.138428 4.24753V19.7525C0.211834 19.8189 0.307037 19.862 0.413818 19.862H0.666708L9.17896 13.1231H24V10.8769Z" fill="#464655"/>
<path d="M0.138422 19.7525L9.93101 12L0.138422 4.24756C0.054703 4.32331 0 4.43 0 4.55173V19.4482C0 19.57 0.054703 19.6767 0.138422 19.7525Z" fill="#F5F5F5"/>
<path d="M4.03435 8.97412L4.90636 10.741L6.85617 11.0243L5.44524 12.3996L5.77833 14.3415L4.03435 13.4247L2.29037 14.3415L2.62346 12.3996L1.21252 11.0243L3.16238 10.741L4.03435 8.97412Z" fill="#FF4B55"/>
<path d="M6.29662 12.2251L3.97932 10.4312C3.70819 9.79589 3.32283 9.38611 2.99569 9.38611C2.71777 9.38611 2.58188 9.64369 2.54297 9.79847C2.34282 9.89114 2.29585 10.0756 2.29388 10.0836C2.2906 10.0968 2.29374 10.1109 2.30208 10.1216C2.31052 10.1323 2.32337 10.1385 2.33701 10.1385L2.37849 10.1377C2.56468 10.1334 2.8749 10.1253 2.95421 10.7167C3.00371 11.0861 2.93021 11.7476 2.69654 12.2462C2.53322 12.5946 2.58718 12.8763 2.58957 12.8881C2.59402 12.9104 2.61469 12.925 2.63776 12.9236C2.64132 12.9232 2.64994 12.9229 2.66091 12.9225L2.84841 13.9825C2.85221 14.0037 2.87054 14.0192 2.8921 14.0192H5.68973C5.71022 14.0192 5.72803 14.0052 5.73286 13.9853L6.04537 12.7017C6.04547 12.7013 6.04589 12.7011 6.04598 12.7007C6.04617 12.7 6.04594 12.6993 6.04608 12.6986L6.14536 12.2909C6.21881 12.2996 6.2625 12.3041 6.26494 12.3044C6.28612 12.3072 6.30337 12.2951 6.31064 12.2767C6.3179 12.2584 6.31233 12.2373 6.29662 12.2251Z" fill="#FFE15A"/>
<path d="M6.29662 12.2251L3.97932 10.4312C3.70819 9.79589 3.32283 9.38611 2.99569 9.38611C2.71777 9.38611 2.58188 9.64369 2.54297 9.79847C2.34282 9.89114 2.29585 10.0756 2.29388 10.0836C2.2906 10.0968 2.29374 10.1109 2.30208 10.1216C2.31052 10.1323 2.32337 10.1385 2.33701 10.1385L2.37849 10.1377C2.56468 10.1334 2.8749 10.1253 2.95421 10.7167C3.00371 11.0861 2.93021 11.7476 2.69654 12.2462C2.53322 12.5946 2.58718 12.8763 2.58957 12.8881C2.59402 12.9104 2.61469 12.925 2.63776 12.9236C2.64132 12.9232 2.64994 12.9229 2.66091 12.9225L2.84841 13.9825C2.85221 14.0037 2.87054 14.0192 2.8921 14.0192H5.68973C5.71022 14.0192 5.72803 14.0052 5.73286 13.9853L6.04537 12.7017C6.04547 12.7013 6.04589 12.7011 6.04598 12.7007C6.04617 12.7 6.04594 12.6993 6.04608 12.6986L6.14536 12.2909C6.21881 12.2996 6.2625 12.3041 6.26494 12.3044C6.28612 12.3072 6.30337 12.2951 6.31064 12.2767C6.3179 12.2584 6.31233 12.2373 6.29662 12.2251ZM2.77683 12.284C2.98833 11.8329 3.10238 11.154 3.04219 10.705C2.95632 10.0646 2.59688 10.0445 2.40277 10.0484C2.43029 9.99492 2.48747 9.91636 2.59796 9.87131C2.61165 9.86578 2.62163 9.85364 2.62463 9.83911C2.62772 9.82425 2.70329 9.47498 2.9956 9.47498C3.2843 9.47498 3.64857 9.87754 3.90207 10.4766C3.90502 10.4836 3.90975 10.4898 3.91575 10.4944L6.11653 12.1981C5.72864 12.151 4.71506 12.0114 4.11469 11.7748C3.80086 11.6512 3.72933 11.4631 3.66624 11.2971C3.65757 11.2741 3.63178 11.2628 3.60891 11.2714C3.58599 11.2801 3.57446 11.3058 3.58322 11.3287C3.64594 11.4937 3.73186 11.7196 4.08216 11.8576C4.15355 11.8857 4.23061 11.9125 4.31166 11.9379C4.29755 11.9807 4.20774 12.1988 3.80953 12.3419C3.48685 12.4578 3.25721 12.6533 3.22585 12.8299C3.10791 12.8294 3.00268 12.8296 2.91427 12.8301V12.7019C2.91427 12.6045 3.00811 12.4635 3.10744 12.3141C3.24586 12.106 3.40275 11.8701 3.40275 11.6287C3.40275 11.6042 3.38283 11.5843 3.35832 11.5843C3.3338 11.5843 3.31388 11.6042 3.31388 11.6287C3.31388 11.8432 3.16486 12.0673 3.03343 12.2649C2.92177 12.4327 2.8254 12.5777 2.8254 12.7019V12.8309C2.75836 12.8316 2.70582 12.8324 2.67155 12.8334C2.66363 12.7499 2.65908 12.5352 2.77683 12.284ZM4.53797 12.0027C4.4866 12.1455 4.33453 12.1938 4.2218 12.2093C4.344 12.1007 4.38525 12.0002 4.39683 11.9635C4.44286 11.9771 4.49011 11.9901 4.53797 12.0027ZM4.62356 12.0248C4.67245 12.0371 4.72177 12.0489 4.7716 12.0603C4.72627 12.1525 4.60514 12.1978 4.47277 12.2167C4.53839 12.1751 4.59399 12.1137 4.62356 12.0248ZM5.87901 13.0096C5.42883 12.8709 4.12964 12.8354 3.31543 12.8302C3.34299 12.7294 3.47077 12.5969 3.68714 12.4907C3.68935 12.4911 3.69136 12.4921 3.69366 12.4921C4.90913 12.4964 5.75517 12.6767 5.949 12.7221L5.87901 13.0096ZM5.82169 13.245L5.64412 13.0469C5.72878 13.0616 5.80092 13.078 5.85797 13.0963L5.82169 13.245ZM3.52463 13.2763L3.61097 13.3576C3.58439 13.3574 3.55819 13.3571 3.531 13.357C3.52866 13.3309 3.52669 13.3033 3.52463 13.2763ZM5.76858 13.4631L5.54297 13.2159C5.52811 13.1996 5.50355 13.1966 5.4855 13.2089L5.22056 13.3863L5.0212 13.1678C5.00578 13.1509 4.97963 13.1486 4.96139 13.1625L4.72191 13.3461L4.5046 13.1316C4.48828 13.1155 4.46222 13.1144 4.44478 13.1292L4.21083 13.326L3.99164 13.1226C3.97505 13.1072 3.94932 13.1069 3.93216 13.1218L3.7035 13.3227L3.51549 13.1458C3.51221 13.093 3.5093 13.0386 3.50677 12.9827L3.6751 13.148C3.6915 13.1642 3.71761 13.1649 3.73514 13.15L3.9706 12.9473L4.18571 13.1591C4.20192 13.1751 4.22775 13.1761 4.24533 13.1616L4.48153 12.9648L4.70817 13.1783C4.72416 13.1933 4.74853 13.1945 4.76564 13.1812L5.00269 12.9994L5.20102 13.2269C5.21602 13.2441 5.24166 13.2471 5.26031 13.2339L5.52398 13.046L5.78611 13.3384C5.78925 13.3419 5.79319 13.344 5.79703 13.3463L5.76858 13.4631ZM5.63531 13.4488C5.56462 13.4398 5.46591 13.4293 5.33222 13.4185L5.50322 13.304L5.63531 13.4488ZM5.11561 13.403C5.02645 13.3974 4.92647 13.3919 4.81481 13.3868L4.98309 13.2578L5.11561 13.403ZM4.62886 13.3791C4.52724 13.3752 4.41675 13.3717 4.29806 13.3687L4.47103 13.2232L4.62886 13.3791ZM4.122 13.3646C4.01963 13.3625 3.91083 13.3608 3.79641 13.3594L3.9608 13.215L4.122 13.3646ZM3.57164 12.922C3.6638 12.9232 3.7598 12.9249 3.858 12.9269L3.7081 13.056L3.57164 12.922ZM4.08207 12.9323C4.1775 12.935 4.27392 12.9382 4.37016 12.9418L4.21931 13.0675L4.08207 12.9323ZM4.59713 12.9516C4.69903 12.9565 4.79963 12.962 4.89717 12.9683L4.7416 13.0876L4.59713 12.9516ZM5.10698 12.9837C5.21658 12.9926 5.32027 13.0027 5.4157 13.0141L5.24156 13.1382L5.10698 12.9837ZM2.75068 12.9207C2.88413 12.9187 3.12333 12.9176 3.41513 12.9202C3.43177 13.3423 3.46866 13.6814 3.52468 13.9304H2.92932L2.75068 12.9207ZM5.65486 13.9304H3.61557C3.58439 13.7969 3.55913 13.6347 3.53977 13.4459C5.02524 13.4556 5.58956 13.5294 5.73061 13.5524C5.73478 13.5565 5.73942 13.5598 5.74458 13.5619L5.65486 13.9304ZM5.97 12.6359C5.78222 12.5919 5.00709 12.4274 3.88899 12.406C3.96778 12.3746 4.03496 12.3406 4.09153 12.3054C4.11797 12.3088 4.19583 12.3173 4.29342 12.3173C4.49606 12.3173 4.78074 12.279 4.85934 12.08C5.32088 12.181 5.79394 12.2473 6.05662 12.2801L5.97 12.6359Z" fill="#464655"/>
<path d="M3.1215 9.7784C3.1215 9.69679 3.05513 9.63037 2.97347 9.63037C2.89186 9.63037 2.82544 9.69675 2.82544 9.7784C2.82544 9.86001 2.89181 9.92643 2.97347 9.92643C3.05508 9.92643 3.1215 9.86001 3.1215 9.7784ZM2.97347 9.8376C2.9408 9.8376 2.91427 9.81107 2.91427 9.7784C2.91427 9.74573 2.9408 9.7192 2.97347 9.7192C3.00614 9.7192 3.03267 9.74573 3.03267 9.7784C3.03267 9.81107 3.00614 9.8376 2.97347 9.8376Z" fill="#464655"/>
<path d="M4.21439 12.5306C4.1341 12.5306 4.06885 12.5959 4.06885 12.6762C4.06885 12.7564 4.13414 12.8217 4.21439 12.8217C4.29464 12.8217 4.35999 12.7564 4.35999 12.6762C4.35999 12.5959 4.29464 12.5306 4.21439 12.5306ZM4.21439 12.733C4.18308 12.733 4.15768 12.7075 4.15768 12.6762C4.15768 12.645 4.18313 12.6195 4.21439 12.6195C4.24571 12.6195 4.27121 12.645 4.27121 12.6762C4.27121 12.7075 4.24566 12.733 4.21439 12.733Z" fill="#464655"/>
<path d="M4.6495 12.5555C4.5692 12.5555 4.50391 12.6209 4.50391 12.7011C4.50391 12.7814 4.56925 12.8467 4.6495 12.8467C4.7298 12.8467 4.79505 12.7814 4.79505 12.7011C4.79505 12.6209 4.7298 12.5555 4.6495 12.5555ZM4.6495 12.7579C4.61819 12.7579 4.59269 12.7324 4.59269 12.7011C4.59269 12.6698 4.61819 12.6443 4.6495 12.6443C4.68081 12.6443 4.70622 12.6698 4.70622 12.7011C4.70627 12.7324 4.68081 12.7579 4.6495 12.7579Z" fill="#464655"/>
</svg>
