<svg width="24" height="24" viewBox="0 0 24 24" fill="none" xmlns="http://www.w3.org/2000/svg">
<path d="M0 15.7241H24V19.4482C24 19.6767 23.8147 19.862 23.5861 19.862H0.413812C0.185297 19.862 0 19.6767 0 19.4482V15.7241Z" fill="#FF4B55"/>
<path d="M0.413812 4.13794H23.5862C23.8147 4.13794 24 4.32324 24 4.55175V8.27587H0V4.5517C0 4.32319 0.185297 4.13794 0.413812 4.13794Z" fill="#FF4B55"/>
<path d="M24 8.27576H0V15.7242H24V8.27576Z" fill="#F5F5F5"/>
<path d="M14.7279 10.9433L12.1012 12.0155C12.1002 12.0128 12.0989 12.0104 12.0977 12.0079L14.6345 10.7375C14.5341 10.5373 14.4123 10.3498 14.2709 10.1788L12.0839 11.9874C12.0817 11.9847 12.0805 11.9812 12.078 11.9787L14.0828 9.97185C13.9398 9.82879 13.7817 9.70096 13.6118 9.58968L12.0597 11.9656C12.0562 11.9632 12.053 11.9605 12.0492 11.9585L13.3174 9.42018C13.1137 9.31814 12.8966 9.2392 12.6693 9.18637L12.0248 11.9504C12.0167 11.9484 12.0089 11.9454 12 11.9454C11.9911 11.9454 11.9834 11.9484 11.9752 11.9504L11.3307 9.18637C11.1034 9.2392 10.8863 9.31809 10.6826 9.42018L11.9508 11.9585C11.947 11.9605 11.9438 11.9632 11.9403 11.9656L10.3882 9.58968C10.2182 9.70101 10.0602 9.82884 9.91716 9.97185L11.922 11.9787C11.9196 11.9812 11.9183 11.9847 11.9161 11.9874L9.72905 10.1788C9.58767 10.3497 9.46585 10.5373 9.36553 10.7375L11.9023 12.0079C11.9011 12.0105 11.8998 12.0129 11.8988 12.0155L9.27211 10.9433C9.19294 11.1375 9.13407 11.342 9.09769 11.5544L11.8942 12.0385C11.8938 12.041 11.8929 12.0432 11.8927 12.0456L9.06999 11.7516C9.05982 11.8512 9.05457 11.9522 9.05457 12.0546C9.05457 12.2315 9.07102 12.4044 9.10093 12.5726L12 12.2727L14.899 12.5726C14.9289 12.4043 14.9454 12.2314 14.9454 12.0546C14.9454 11.9522 14.9401 11.8512 14.93 11.7516L12.1072 12.0456C12.107 12.0432 12.1061 12.041 12.1057 12.0385L14.9022 11.5544C14.8659 11.3421 14.807 11.1375 14.7279 10.9433Z" fill="#FFB955"/>
<path d="M9.15332 12.8116C9.17352 12.8878 9.19687 12.9627 9.22288 13.0363H14.7773C14.8033 12.9627 14.8266 12.8878 14.8468 12.8116C14.5747 12.7765 14.5409 12.6 14.2094 12.6C13.8414 12.6 13.8414 12.8181 13.4734 12.8181C13.1053 12.8181 13.1053 12.6 12.7373 12.6C12.3692 12.6 12.3692 12.8181 12.001 12.8181C11.633 12.8181 11.633 12.6 11.2651 12.6C10.8968 12.6 10.8968 12.8181 10.5286 12.8181C10.1601 12.8181 10.1601 12.6 9.79157 12.6C9.45965 12.6 9.4259 12.7765 9.15332 12.8116Z" fill="#4173CD"/>
<path d="M14.1226 13.3636C13.7684 13.3635 13.7683 13.1454 13.414 13.1454C13.0596 13.1454 13.0596 13.3636 12.7051 13.3636C12.3507 13.3636 12.3507 13.1454 11.9963 13.1454C11.6418 13.1454 11.6418 13.3636 11.2873 13.3636C10.933 13.3636 10.933 13.1454 10.5787 13.1454C10.2241 13.1454 10.2241 13.3636 9.86949 13.3636C9.55487 13.3636 9.51868 13.1924 9.26733 13.1535C9.32733 13.3025 9.39844 13.4459 9.48099 13.5818H14.1225H14.1228H14.5192C14.6018 13.4456 14.6731 13.3019 14.7332 13.1524C14.4743 13.1888 14.4405 13.3636 14.1226 13.3636Z" fill="#4173CD"/>
<path d="M14.4043 13.755C14.3358 13.719 14.2545 13.6909 14.1276 13.6909C13.7732 13.6909 13.7732 13.909 13.4188 13.909C13.0644 13.909 13.0644 13.6909 12.7099 13.6909C12.3554 13.6909 12.3554 13.909 12.001 13.909C11.6466 13.909 11.6466 13.6909 11.2924 13.6909C10.9377 13.6909 10.9377 13.909 10.5831 13.909C10.2282 13.909 10.2282 13.6909 9.87345 13.6909C9.74609 13.6909 9.66467 13.7191 9.59595 13.7552C9.68984 13.8876 9.79385 14.0123 9.90781 14.1273H14.0924C14.2063 14.0122 14.3104 13.8875 14.4043 13.755Z" fill="#4173CD"/>
<path d="M13.8151 14.3734C13.708 14.3113 13.6219 14.2363 13.414 14.2363C13.0596 14.2363 13.0596 14.4545 12.7051 14.4545C12.3507 14.4545 12.3507 14.2363 11.9963 14.2363C11.6418 14.2363 11.6418 14.4545 11.2873 14.4545C10.933 14.4545 10.933 14.2363 10.5787 14.2363C10.3735 14.2363 10.2869 14.3093 10.1818 14.3709C10.3278 14.4857 10.4848 14.5868 10.6512 14.6727H13.3489C13.5141 14.5874 13.67 14.4871 13.8151 14.3734Z" fill="#4173CD"/>
<path d="M11.2923 14.7818C11.1762 14.7818 11.0983 14.8054 11.0333 14.8369C11.3362 14.942 11.6613 15 12 15H12.0005C11.6466 14.9998 11.6465 14.7818 11.2923 14.7818Z" fill="#4173CD"/>
<path d="M12.0027 14.9999C12.341 14.9996 12.6655 14.9417 12.968 14.8364C12.9032 14.8052 12.8256 14.7818 12.71 14.7818C12.3561 14.7818 12.3554 14.9991 12.0027 14.9999Z" fill="#4173CD"/>
<path d="M12.3874 11.6815L11.454 11.4118C11.4016 11.3967 11.3654 11.3494 11.3646 11.2949C11.3603 10.9493 11.3453 9.7323 11.3453 9.54541C11.3453 9.32725 11.5635 8.99997 11.9999 8.99997H12.344C12.3765 8.99997 12.3864 9.04431 12.3564 9.05711C12.1988 9.12466 11.9999 9.26542 11.9999 9.54541C11.9999 9.87784 12.3165 10.0203 12.4673 10.0694C12.5139 10.0845 12.5454 10.1273 12.5454 10.1763V11.5628C12.5453 11.6451 12.4664 11.7044 12.3874 11.6815Z" fill="#FF4B55"/>
<path d="M11.5641 12.9026C11.5983 12.8818 11.6389 12.9164 11.6235 12.9534C11.5321 13.1727 11.3082 13.5818 10.909 13.5818C10.3635 13.5818 10.2544 13.1455 10.2544 12.8182V10.5042C10.2544 10.4567 10.2929 10.4182 10.3404 10.4182H10.4956C10.5431 10.4182 10.5816 10.4567 10.5816 10.5042V12.7091C10.5818 13.0041 11.202 13.1218 11.5641 12.9026Z" fill="#FF4B55"/>
<path d="M12.3899 12.9026C12.3557 12.8818 12.3151 12.9164 12.3305 12.9534C12.4219 13.1727 12.6458 13.5818 13.045 13.5818C13.5905 13.5818 13.6996 13.1455 13.6996 12.8182V10.5042C13.6996 10.4567 13.6611 10.4182 13.6136 10.4182H13.4584C13.4108 10.4182 13.3724 10.4567 13.3724 10.5042V12.7091C13.3723 13.0041 12.752 13.1218 12.3899 12.9026Z" fill="#FF4B55"/>
<path d="M13.1474 12.5454H10.8527C10.8236 12.5454 10.8 12.5218 10.8 12.4927V12.489C10.8 12.4599 10.8236 12.4363 10.8527 12.4363H13.1474C13.1764 12.4363 13.2 12.4599 13.2 12.489V12.4927C13.2 12.5219 13.1764 12.5454 13.1474 12.5454Z" fill="#AA4650"/>
<path d="M11.0318 12.1337L11.1499 11.9762C11.168 11.9521 11.1631 11.9178 11.139 11.8997C11.115 11.8817 11.0807 11.8868 11.0627 11.9107L11.0167 11.972V11.9297C11.0167 11.8995 10.9923 11.8751 10.9621 11.8751C10.932 11.8751 10.9076 11.8995 10.9076 11.9297V11.968L10.8646 11.9107C10.8465 11.8867 10.8123 11.8817 10.7882 11.8997C10.7641 11.9178 10.7592 11.9521 10.7773 11.9762L10.8954 12.1337L10.7773 12.2912C10.7592 12.3152 10.7641 12.3495 10.7882 12.3676C10.798 12.3749 10.8095 12.3784 10.8208 12.3784C10.8374 12.3784 10.8538 12.3709 10.8645 12.3566L10.9635 12.2245L11.0625 12.3566C11.0732 12.3709 11.0895 12.3784 11.1061 12.3784C11.1175 12.3784 11.129 12.3749 11.1387 12.3676C11.1629 12.3495 11.1678 12.3152 11.1497 12.2912L11.0318 12.1337Z" fill="#AA4650"/>
<path d="M12.05 12.1337L12.1681 11.9762C12.1862 11.9521 12.1813 11.9178 12.1572 11.8997C12.1332 11.8817 12.0989 11.8868 12.0808 11.9107L12.0349 11.972V11.9297C12.0349 11.8995 12.0104 11.8751 11.9803 11.8751C11.9502 11.8751 11.9257 11.8995 11.9257 11.9297V11.968L11.8828 11.9107C11.8647 11.8867 11.8305 11.8817 11.8064 11.8997C11.7823 11.9178 11.7774 11.9521 11.7955 11.9762L11.9136 12.1337L11.7955 12.2912C11.7774 12.3152 11.7823 12.3495 11.8064 12.3676C11.8162 12.3749 11.8277 12.3784 11.839 12.3784C11.8556 12.3784 11.872 12.3709 11.8827 12.3566L11.9817 12.2245L12.0807 12.3566C12.0913 12.3709 12.1077 12.3784 12.1243 12.3784C12.1357 12.3784 12.1472 12.3749 12.1569 12.3676C12.1811 12.3495 12.1859 12.3152 12.1678 12.2912L12.05 12.1337Z" fill="#AA4650"/>
<path d="M11.541 12.1337L11.6591 11.9762C11.6772 11.9521 11.6723 11.9178 11.6482 11.8997C11.6241 11.8817 11.5899 11.8868 11.5718 11.9107L11.5258 11.972V11.9297C11.5258 11.8995 11.5014 11.8751 11.4713 11.8751C11.4411 11.8751 11.4167 11.8995 11.4167 11.9297V11.968L11.3737 11.9107C11.3557 11.8867 11.3215 11.8817 11.2974 11.8997C11.2732 11.9178 11.2683 11.9521 11.2864 11.9762L11.4046 12.1337L11.2864 12.2912C11.2683 12.3152 11.2733 12.3495 11.2974 12.3676C11.3072 12.3749 11.3186 12.3784 11.33 12.3784C11.3466 12.3784 11.3629 12.3709 11.3736 12.3566L11.4726 12.2245L11.5716 12.3566C11.5823 12.3709 11.5987 12.3784 11.6153 12.3784C11.6267 12.3784 11.6381 12.3749 11.6479 12.3676C11.672 12.3495 11.6769 12.3152 11.6588 12.2912L11.541 12.1337Z" fill="#AA4650"/>
<path d="M12.559 12.1337L12.6772 11.9762C12.6953 11.9521 12.6903 11.9178 12.6662 11.8997C12.6422 11.8817 12.6079 11.8868 12.5899 11.9107L12.5439 11.972V11.9297C12.5439 11.8995 12.5195 11.8751 12.4893 11.8751C12.4592 11.8751 12.4348 11.8995 12.4348 11.9297V11.968L12.3918 11.9107C12.3737 11.8867 12.3396 11.8817 12.3154 11.8997C12.2913 11.9178 12.2864 11.9521 12.3045 11.9762L12.4226 12.1337L12.3045 12.2912C12.2864 12.3152 12.2913 12.3495 12.3154 12.3676C12.3252 12.3749 12.3367 12.3784 12.3481 12.3784C12.3646 12.3784 12.381 12.3709 12.3917 12.3566L12.4907 12.2245L12.5897 12.3566C12.6004 12.3709 12.6167 12.3784 12.6333 12.3784C12.6447 12.3784 12.6562 12.3749 12.666 12.3676C12.6901 12.3495 12.695 12.3152 12.6769 12.2912L12.559 12.1337Z" fill="#AA4650"/>
<path d="M13.0682 12.1337L13.1863 11.9762C13.2044 11.9521 13.1995 11.9178 13.1754 11.8997C13.1513 11.8817 13.1171 11.8868 13.099 11.9107L13.0531 11.972V11.9297C13.0531 11.8995 13.0286 11.8751 12.9985 11.8751C12.9683 11.8751 12.9439 11.8995 12.9439 11.9297V11.968L12.9009 11.9107C12.8829 11.8867 12.8487 11.8817 12.8246 11.8997C12.8004 11.9178 12.7956 11.9521 12.8137 11.9762L12.9318 12.1337L12.8137 12.2912C12.7956 12.3152 12.8005 12.3495 12.8246 12.3676C12.8344 12.3749 12.8459 12.3784 12.8572 12.3784C12.8738 12.3784 12.8902 12.3709 12.9009 12.3566L12.9999 12.2245L13.0988 12.3566C13.1095 12.3709 13.1259 12.3784 13.1425 12.3784C13.1539 12.3784 13.1654 12.3749 13.1751 12.3676C13.1993 12.3495 13.2041 12.3152 13.186 12.2912L13.0682 12.1337Z" fill="#AA4650"/>
<path d="M10.931 12.8823C11.0117 12.9176 11.4857 12.9227 11.6066 12.7966C11.7276 12.6706 11.7025 12.6151 11.7025 12.6151L11.1276 12.6202L10.931 12.8823Z" fill="#AA4650"/>
<path d="M13.0459 12.8823C12.9653 12.9176 12.4913 12.9227 12.3703 12.7966C12.2493 12.6706 12.2745 12.6151 12.2745 12.6151L12.8493 12.6202L13.0459 12.8823Z" fill="#AA4650"/>
</svg>
