<svg width="24" height="24" viewBox="0 0 24 24" fill="none" xmlns="http://www.w3.org/2000/svg">
<path d="M24 9.517H0V14.4825H24V9.517Z" fill="#FF4B55"/>
<path d="M0.413812 4.13794H23.5862C23.8147 4.13794 24 4.32324 24 4.55175V6.82762H0V4.55175C0 4.32324 0.185297 4.13794 0.413812 4.13794Z" fill="#41479B"/>
<path d="M24 6.82779H0V9.51747H24V6.82779Z" fill="#F5F5F5"/>
<path d="M23.5861 19.862H0.413812C0.185297 19.862 0 19.6767 0 19.4482V17.1723H24V19.4482C24 19.6768 23.8147 19.862 23.5861 19.862Z" fill="#41479B"/>
<path d="M24 14.4825H0V17.1721H24V14.4825Z" fill="#F5F5F5"/>
<path d="M6.48698 14.069C7.55591 14.069 8.42244 13.1427 8.42244 12C8.42244 10.8573 7.55591 9.93091 6.48698 9.93091C5.41805 9.93091 4.55151 10.8573 4.55151 12C4.55151 13.1427 5.41805 14.069 6.48698 14.069Z" fill="#F5F5F5"/>
<path d="M7.48793 11.1993H5.48572V12.2004H7.48793V11.1993Z" fill="#3CC8FF"/>
<path d="M5.75305 11.7684L5.77592 11.9892L5.86583 11.7863L5.81933 12.0034L5.96764 11.8381L5.85627 12.0302L6.04841 11.9189L5.88317 12.0672L6.10025 12.0207L5.89728 12.1106L6.11816 12.1335L5.89728 12.1564L6.10025 12.2463L5.88317 12.1998L6.04841 12.3481L5.85627 12.2367L5.96764 12.4288L5.81933 12.2636L5.86583 12.4807L5.77592 12.2778L5.75305 12.4985L5.73017 12.2778L5.64022 12.4807L5.68672 12.2636L5.53845 12.4288L5.64974 12.2367L5.45764 12.3481L5.62292 12.1998L5.4058 12.2463L5.60877 12.1564L5.38794 12.1335L5.60877 12.1106L5.4058 12.0207L5.62292 12.0672L5.45764 11.9189L5.64974 12.0302L5.53845 11.8381L5.68672 12.0034L5.64022 11.7863L5.73017 11.9892L5.75305 11.7684Z" fill="#FFE15A"/>
<path d="M6.88755 13.6018H6.08669L5.35254 13.0011V12.1335H7.68846V13.0011L6.88755 13.6018Z" fill="#41479B"/>
<path d="M7.28808 11.8665H7.28803C7.28784 11.8482 7.27303 11.8335 7.2547 11.8335C7.23637 11.8335 7.22165 11.8482 7.22137 11.8665H7.22128C7.22128 11.9823 7.15415 12.1426 7.07184 12.2573C6.9569 12.1122 6.91369 11.9439 6.89737 11.8379C6.88959 11.7874 6.83498 11.7594 6.78923 11.7822C6.7672 11.7933 6.75234 11.8148 6.74859 11.8391C6.6975 12.1664 6.54319 12.3055 6.44325 12.3627C6.29367 12.2181 6.24436 11.984 6.22814 11.8457C6.22181 11.7918 6.16425 11.761 6.11578 11.7852C6.09712 11.7945 6.0833 11.8113 6.07678 11.8312C5.86744 12.4693 5.28577 12.534 5.28577 12.534V12.7342H7.62168V12.6675V12.6008V12.5341V12.4674V12.4007C7.35482 12.3337 7.28808 11.8665 7.28808 11.8665Z" fill="#73AF00"/>
<path d="M7.6218 11.2659C7.35484 11.1324 7.35484 10.9989 7.35484 10.9989C7.35484 10.9989 7.02114 10.8654 6.75419 10.8654C6.75419 10.8654 6.82089 10.7319 6.68748 10.7319C6.55398 10.7319 6.48728 10.7319 6.48728 10.7319C6.48728 10.7319 6.42058 10.7319 6.28708 10.7319C6.15358 10.7319 6.22038 10.8654 6.22038 10.8654C5.95342 10.8654 5.61972 10.9989 5.61972 10.9989C5.61972 10.9989 5.61972 11.1324 5.35277 11.2659C5.08582 11.3994 5.08582 11.6997 5.08582 11.6997C5.08582 11.755 5.13067 11.7998 5.18589 11.7998C5.24121 11.7998 5.28597 11.7549 5.28597 11.6997C5.28597 11.6882 5.28363 11.6775 5.28011 11.6673L5.28597 11.6663L5.95338 11.1992H6.48733H7.02128L7.68869 11.6663L7.69454 11.6673C7.69103 11.6775 7.68869 11.6883 7.68869 11.6997C7.68869 11.755 7.73354 11.7998 7.78876 11.7998C7.84398 11.7998 7.88884 11.7549 7.88884 11.6997C7.88875 11.6996 7.88875 11.3993 7.6218 11.2659Z" fill="#F0AA00"/>
<path d="M7.82205 12.0668C7.75534 12.0668 7.5551 12.0668 7.5551 11.8666C7.5551 11.6664 7.82205 11.6664 7.82205 11.6664L7.4216 11.5329C7.2881 12 7.5551 12 7.5551 12.6007C7.5551 13.1388 6.95444 13.4683 6.75419 13.4683C6.55399 13.4683 6.48724 13.6018 6.48724 13.6018C6.48724 13.6018 6.42054 13.4683 6.22029 13.4683C6.02008 13.4683 5.41938 13.1388 5.41938 12.6007C5.41938 12.0001 5.68633 12.0001 5.55288 11.5329L5.15243 11.6664C5.15243 11.6664 5.41938 11.6664 5.41938 11.8666C5.41938 12.0668 5.21918 12.0668 5.15243 12.0668C5.08568 12.0668 4.81873 12.0668 4.81873 12.4005C4.81873 12.7342 5.15243 13.1346 5.61963 13.4016C6.08679 13.6685 5.88658 13.9355 6.48724 13.9355C7.08789 13.9355 6.88769 13.6686 7.35485 13.4016C7.822 13.1346 8.15575 12.7342 8.15575 12.4005C8.15575 12.0668 7.88875 12.0668 7.82205 12.0668Z" fill="#F0AA00"/>
<path d="M6.35376 11.0221L6.19232 10.9495C6.16551 10.9375 6.13579 10.9346 6.1072 10.9413C6.00314 10.9653 5.745 11.0444 5.55286 11.2658L5.75306 11.3325L6.35376 11.0221Z" fill="#73AF00"/>
<path d="M6.62073 11.0221L6.78216 10.9495C6.80898 10.9375 6.8387 10.9346 6.86729 10.9413C6.97135 10.9653 7.22949 11.0444 7.42163 11.2658L7.22143 11.3325L6.62073 11.0221Z" fill="#73AF00"/>
<path d="M6.51089 11.0656L6.63258 10.9439C6.63909 10.9374 6.63909 10.9269 6.63258 10.9204C6.62606 10.9138 6.61551 10.9138 6.609 10.9204L6.48731 11.042L6.36562 10.9204C6.35911 10.9138 6.34856 10.9138 6.34204 10.9204C6.33553 10.9269 6.33553 10.9374 6.34204 10.9439L6.46373 11.0656L6.34204 11.1873C6.33553 11.1938 6.33553 11.2044 6.34204 11.2109C6.34533 11.2142 6.34959 11.2158 6.35386 11.2158C6.35808 11.2158 6.36239 11.2142 6.36567 11.2109L6.48736 11.0892L6.60904 11.2109C6.61233 11.2142 6.61659 11.2158 6.62086 11.2158C6.62517 11.2158 6.62939 11.2142 6.63267 11.2109C6.63918 11.2044 6.63918 11.1938 6.63267 11.1873L6.51089 11.0656Z" fill="#73AF00"/>
<path d="M7.82204 11.6663C7.82204 11.5528 7.71474 11.5037 7.62184 11.4824V11.4295C7.49621 11.4177 7.42604 11.3705 7.30426 11.2875C7.25734 11.2555 7.20413 11.2193 7.13987 11.1802C6.90521 11.0377 6.72484 11.0171 6.62073 11.0221V11.1324H6.35378V11.0221C6.24967 11.0171 6.06929 11.0377 5.83464 11.1802C5.77042 11.2193 5.71717 11.2555 5.67025 11.2875C5.54842 11.3705 5.47834 11.4177 5.35267 11.4295V11.4824C5.25972 11.5037 5.15247 11.5527 5.15247 11.6663L5.35267 11.5996V11.63C5.54209 11.6161 5.65037 11.5434 5.78298 11.4531C5.82793 11.4225 5.87884 11.3877 5.93856 11.3515C6.091 11.2589 6.20945 11.2302 6.28703 11.2235V11.3327H6.68748V11.2235C6.76506 11.2302 6.88351 11.2589 7.03595 11.3515C7.09576 11.3878 7.14662 11.4225 7.19152 11.4531C7.32409 11.5434 7.43241 11.6161 7.62184 11.63V11.5996L7.82204 11.6663Z" fill="#F5F5F5"/>
<path d="M7.28802 10.6143V10.5317H7.10212C7.1346 10.5038 7.15457 10.471 7.15457 10.4316C7.15457 10.2472 6.73504 10.1981 6.48717 10.1981C6.23929 10.1981 5.81976 10.2472 5.81976 10.4316C5.81976 10.471 5.83973 10.5038 5.87221 10.5317H5.68631V10.6143C5.5229 10.6508 5.38936 10.7384 5.38232 10.7432L5.45634 10.8542C5.45817 10.853 5.64182 10.7319 5.81976 10.7319V10.6652H7.15457V10.7319C7.33256 10.7319 7.51616 10.8529 7.51799 10.8542L7.59201 10.7432C7.58502 10.7384 7.45143 10.6508 7.28802 10.6143ZM6.75412 10.5132V10.4626C6.75412 10.4299 6.72342 10.4059 6.69173 10.4139L6.48717 10.465L6.2826 10.4139C6.25092 10.4059 6.22021 10.4299 6.22021 10.4626V10.5132C6.07026 10.4912 5.98162 10.4546 5.95743 10.4316C5.99353 10.3973 6.17039 10.3316 6.48712 10.3316C6.80385 10.3316 6.98071 10.3974 7.01681 10.4316C6.99271 10.4545 6.90402 10.4912 6.75412 10.5132Z" fill="#3CC8FF"/>
<path d="M6.49562 11.3578L6.51254 11.4085L6.56598 11.4089C6.57292 11.4089 6.57578 11.4178 6.5702 11.4219L6.52721 11.4537L6.54334 11.5046C6.5454 11.5112 6.5379 11.5167 6.53228 11.5126L6.48878 11.4816L6.44528 11.5126C6.43965 11.5167 6.43215 11.5112 6.43421 11.5046L6.45034 11.4537L6.40735 11.4219C6.40178 11.4178 6.40468 11.4089 6.41157 11.4089L6.46501 11.4085L6.48193 11.3578C6.48414 11.3512 6.49337 11.3512 6.49562 11.3578Z" fill="#F5F5F5"/>
<path d="M6.23397 11.3749L6.25609 11.4236L6.30929 11.4184C6.31618 11.4177 6.31993 11.4262 6.31487 11.4309L6.27545 11.467L6.29682 11.5159C6.29964 11.5223 6.2927 11.5285 6.2867 11.5251L6.2402 11.4987L6.20022 11.5342C6.19506 11.5388 6.187 11.5342 6.18836 11.5274L6.19904 11.475L6.15297 11.4479C6.14701 11.4444 6.14893 11.4354 6.15582 11.4346L6.20893 11.4286L6.22042 11.3764C6.22183 11.3696 6.23111 11.3686 6.23397 11.3749Z" fill="#F5F5F5"/>
<path d="M5.96522 11.4464L5.99738 11.4891L6.04819 11.4726C6.05475 11.4704 6.06029 11.4779 6.0563 11.4835L6.02564 11.5273L6.05714 11.5705C6.06122 11.5761 6.05583 11.5836 6.04922 11.5816L5.99813 11.5659L5.96677 11.6092C5.96274 11.6148 5.95383 11.6121 5.95374 11.6052L5.9528 11.5517L5.90194 11.5353C5.89538 11.5332 5.89529 11.5238 5.90185 11.5216L5.95238 11.5042L5.95229 11.4508C5.95224 11.4439 5.9611 11.4409 5.96522 11.4464Z" fill="#F5F5F5"/>
<path d="M5.69601 11.56L5.73351 11.598L5.78165 11.5749C5.78793 11.5719 5.79435 11.5785 5.79116 11.5847L5.76655 11.6322L5.80349 11.6708C5.80827 11.6758 5.80396 11.684 5.79711 11.6829L5.74433 11.6742L5.71897 11.7212C5.71569 11.7273 5.70655 11.7257 5.70552 11.7189L5.69755 11.666L5.64496 11.6564C5.63811 11.6552 5.63685 11.646 5.64304 11.6429L5.69085 11.619L5.68372 11.566C5.68279 11.5591 5.69113 11.555 5.69601 11.56Z" fill="#F5F5F5"/>
<path d="M6.74352 11.3749L6.7214 11.4236L6.6682 11.4184C6.6613 11.4177 6.65755 11.4262 6.66262 11.4309L6.70204 11.467L6.68066 11.5159C6.67785 11.5223 6.68479 11.5285 6.69079 11.5251L6.73729 11.4987L6.77727 11.5342C6.78243 11.5388 6.79049 11.5342 6.78913 11.5274L6.77844 11.475L6.82452 11.4479C6.83048 11.4444 6.82855 11.4354 6.82166 11.4346L6.76855 11.4286L6.75707 11.3764C6.75562 11.3696 6.74634 11.3686 6.74352 11.3749Z" fill="#F5F5F5"/>
<path d="M7.01216 11.4464L6.98 11.4891L6.92919 11.4726C6.92263 11.4704 6.9171 11.4779 6.92108 11.4835L6.95174 11.5273L6.92024 11.5705C6.91616 11.5761 6.92155 11.5836 6.92816 11.5816L6.97925 11.5659L7.01061 11.6092C7.01464 11.6148 7.02355 11.6121 7.02364 11.6052L7.02458 11.5517L7.07544 11.5353C7.082 11.5332 7.0821 11.5238 7.07553 11.5216L7.025 11.5042L7.0251 11.4508C7.02514 11.4439 7.01628 11.4409 7.01216 11.4464Z" fill="#F5F5F5"/>
<path d="M7.28151 11.56L7.24401 11.598L7.19587 11.5749C7.18959 11.5719 7.18316 11.5785 7.18635 11.5847L7.21096 11.6322L7.17402 11.6708C7.16924 11.6758 7.17355 11.684 7.1804 11.6829L7.23318 11.6742L7.25854 11.7212C7.26182 11.7273 7.27096 11.7257 7.27199 11.7189L7.27996 11.666L7.33255 11.6564C7.3394 11.6552 7.34066 11.646 7.33448 11.6429L7.28666 11.619L7.29379 11.566C7.29468 11.5591 7.28634 11.555 7.28151 11.56Z" fill="#F5F5F5"/>
<path d="M6.02625 12.9594L6.36623 13.1867H6.77709L6.96693 13.0241L6.82092 13.0825H6.33703L6.02625 12.9594Z" fill="#8C5A28"/>
<path d="M6.25772 12.6661L6.2249 12.997L6.07556 12.94C6.07556 12.9399 6.14428 12.7805 6.25772 12.6661Z" fill="#F5F5F5"/>
<path d="M6.57432 12.5348H6.55225V13.0983H6.57432V12.5348Z" fill="#8C5A28"/>
<path d="M6.77867 12.5826H6.75659V13.0987H6.77867V12.5826Z" fill="#8C5A28"/>
<path d="M6.37132 12.5826H6.34924V13.0987H6.37132V12.5826Z" fill="#8C5A28"/>
<path d="M6.63097 13.0449H6.49611C6.48209 13.0449 6.4707 13.0335 6.4707 13.0195V12.9514C6.4707 12.9374 6.48209 12.926 6.49611 12.926H6.63097C6.64498 12.926 6.65637 12.9374 6.65637 12.9514V13.0195C6.65637 13.0335 6.64498 13.0449 6.63097 13.0449Z" fill="#F5F5F5"/>
<path d="M6.63097 12.8864H6.49611C6.48209 12.8864 6.4707 12.875 6.4707 12.861V12.7929C6.4707 12.7788 6.48209 12.7675 6.49611 12.7675H6.63097C6.64498 12.7675 6.65637 12.7788 6.65637 12.7929V12.861C6.65637 12.875 6.64498 12.8864 6.63097 12.8864Z" fill="#F5F5F5"/>
<path d="M6.63097 12.7404H6.49611C6.48209 12.7404 6.4707 12.729 6.4707 12.715V12.6469C6.4707 12.6329 6.48209 12.6215 6.49611 12.6215H6.63097C6.64498 12.6215 6.65637 12.6329 6.65637 12.6469V12.715C6.65637 12.729 6.64498 12.7404 6.63097 12.7404Z" fill="#F5F5F5"/>
<path d="M6.82261 13.0449H6.71278C6.69877 13.0449 6.68738 13.0335 6.68738 13.0195V12.9514C6.68738 12.9374 6.69877 12.926 6.71278 12.926H6.82261C6.83663 12.926 6.84802 12.9374 6.84802 12.9514V13.0195C6.84802 13.0335 6.83663 13.0449 6.82261 13.0449Z" fill="#F5F5F5"/>
<path d="M6.82261 12.899H6.71278C6.69877 12.899 6.68738 12.8876 6.68738 12.8736V12.8241C6.68738 12.8101 6.69877 12.7987 6.71278 12.7987H6.82261C6.83663 12.7987 6.84802 12.8101 6.84802 12.8241V12.8736C6.84802 12.8876 6.83663 12.899 6.82261 12.899Z" fill="#F5F5F5"/>
<path d="M6.82261 12.7543H6.71278C6.69877 12.7543 6.68738 12.7429 6.68738 12.7289V12.6955C6.68738 12.6815 6.69877 12.6701 6.71278 12.6701H6.82261C6.83663 12.6701 6.84802 12.6815 6.84802 12.6955V12.7289C6.84802 12.7429 6.83663 12.7543 6.82261 12.7543Z" fill="#F5F5F5"/>
<path d="M6.4149 13.0449H6.30507C6.29105 13.0449 6.27966 13.0335 6.27966 13.0195V12.9514C6.27966 12.9374 6.29105 12.926 6.30507 12.926H6.4149C6.42891 12.926 6.4403 12.9374 6.4403 12.9514V13.0195C6.44026 13.0335 6.42891 13.0449 6.4149 13.0449Z" fill="#F5F5F5"/>
<path d="M6.4149 12.899H6.30507C6.29105 12.899 6.27966 12.8876 6.27966 12.8736V12.8241C6.27966 12.8101 6.29105 12.7987 6.30507 12.7987H6.4149C6.42891 12.7987 6.4403 12.8101 6.4403 12.8241V12.8736C6.44026 12.8876 6.42891 12.899 6.4149 12.899Z" fill="#F5F5F5"/>
<path d="M6.4149 12.7543H6.30507C6.29105 12.7543 6.27966 12.7429 6.27966 12.7289V12.6955C6.27966 12.6815 6.29105 12.6701 6.30507 12.6701H6.4149C6.42891 12.6701 6.4403 12.6815 6.4403 12.6955V12.7289C6.44026 12.7429 6.42891 12.7543 6.4149 12.7543Z" fill="#F5F5F5"/>
<path d="M6.37097 12.5826V12.6493L6.46908 12.6153L6.37097 12.5826Z" fill="#F5F5F5"/>
<path d="M6.77856 12.5826V12.6493L6.87667 12.6153L6.77856 12.5826Z" fill="#F5F5F5"/>
<path d="M6.57434 12.5348V12.6014L6.6725 12.5674L6.57434 12.5348Z" fill="#F5F5F5"/>
<path d="M6.31372 12.0844L6.4318 12.1634H6.57458L6.64053 12.1069L6.58977 12.1271H6.42167L6.31372 12.0844Z" fill="#8C5A28"/>
<path d="M6.39421 11.9825L6.38282 12.0974L6.33093 12.0776C6.33093 12.0776 6.35479 12.0222 6.39421 11.9825Z" fill="#F5F5F5"/>
<path d="M6.5041 11.9367H6.49646V12.1325H6.5041V11.9367Z" fill="#8C5A28"/>
<path d="M6.5749 11.9536H6.56726V12.1328H6.5749V11.9536Z" fill="#8C5A28"/>
<path d="M6.4333 11.9536H6.42566V12.1328H6.4333V11.9536Z" fill="#8C5A28"/>
<path d="M6.52375 12.1141H6.47688C6.472 12.1141 6.46802 12.1101 6.46802 12.1052V12.0816C6.46802 12.0767 6.47195 12.0727 6.47688 12.0727H6.52375C6.52863 12.0727 6.53261 12.0767 6.53261 12.0816V12.1052C6.53261 12.1101 6.52867 12.1141 6.52375 12.1141Z" fill="#F5F5F5"/>
<path d="M6.52375 12.059H6.47688C6.472 12.059 6.46802 12.0551 6.46802 12.0502V12.0265C6.46802 12.0217 6.47195 12.0177 6.47688 12.0177H6.52375C6.52863 12.0177 6.53261 12.0216 6.53261 12.0265V12.0502C6.53261 12.055 6.52867 12.059 6.52375 12.059Z" fill="#F5F5F5"/>
<path d="M6.52375 12.0083H6.47688C6.472 12.0083 6.46802 12.0044 6.46802 11.9994V11.9758C6.46802 11.9709 6.47195 11.9669 6.47688 11.9669H6.52375C6.52863 11.9669 6.53261 11.9709 6.53261 11.9758V11.9994C6.53261 12.0044 6.52867 12.0083 6.52375 12.0083Z" fill="#F5F5F5"/>
<path d="M6.59035 12.1141H6.55219C6.54732 12.1141 6.54333 12.1101 6.54333 12.1052V12.0816C6.54333 12.0767 6.54727 12.0727 6.55219 12.0727H6.59035C6.59523 12.0727 6.59921 12.0767 6.59921 12.0816V12.1052C6.59916 12.1101 6.59518 12.1141 6.59035 12.1141Z" fill="#F5F5F5"/>
<path d="M6.59035 12.0634H6.55219C6.54732 12.0634 6.54333 12.0594 6.54333 12.0545V12.0374C6.54333 12.0325 6.54727 12.0285 6.55219 12.0285H6.59035C6.59523 12.0285 6.59921 12.0324 6.59921 12.0374V12.0545C6.59916 12.0595 6.59518 12.0634 6.59035 12.0634Z" fill="#F5F5F5"/>
<path d="M6.59035 12.0131H6.55219C6.54732 12.0131 6.54333 12.0092 6.54333 12.0042V11.9927C6.54333 11.9878 6.54727 11.9838 6.55219 11.9838H6.59035C6.59523 11.9838 6.59921 11.9877 6.59921 11.9927V12.0042C6.59916 12.0092 6.59518 12.0131 6.59035 12.0131Z" fill="#F5F5F5"/>
<path d="M6.44863 12.1141H6.41047C6.4056 12.1141 6.40161 12.1101 6.40161 12.1052V12.0816C6.40161 12.0767 6.40555 12.0727 6.41047 12.0727H6.44863C6.4535 12.0727 6.45749 12.0767 6.45749 12.0816V12.1052C6.45744 12.1101 6.4535 12.1141 6.44863 12.1141Z" fill="#F5F5F5"/>
<path d="M6.44863 12.0634H6.41047C6.4056 12.0634 6.40161 12.0594 6.40161 12.0545V12.0374C6.40161 12.0325 6.40555 12.0285 6.41047 12.0285H6.44863C6.4535 12.0285 6.45749 12.0324 6.45749 12.0374V12.0545C6.45744 12.0595 6.4535 12.0634 6.44863 12.0634Z" fill="#F5F5F5"/>
<path d="M6.44863 12.0131H6.41047C6.4056 12.0131 6.40161 12.0092 6.40161 12.0042V11.9927C6.40161 11.9878 6.40555 11.9838 6.41047 11.9838H6.44863C6.4535 11.9838 6.45749 11.9877 6.45749 11.9927V12.0042C6.45744 12.0092 6.4535 12.0131 6.44863 12.0131Z" fill="#F5F5F5"/>
<path d="M6.43347 11.9535V11.9766L6.46755 11.9649L6.43347 11.9535Z" fill="#F5F5F5"/>
<path d="M6.57507 11.9535V11.9766L6.60915 11.9649L6.57507 11.9535Z" fill="#F5F5F5"/>
<path d="M6.50415 11.9369V11.96L6.53823 11.9482L6.50415 11.9369Z" fill="#F5F5F5"/>
<path d="M6.23011 11.733H6.14348C6.11226 11.733 6.08667 11.7075 6.08667 11.6762C6.08667 11.645 6.11222 11.6194 6.14348 11.6194H6.23011C6.26133 11.6194 6.28692 11.6449 6.28692 11.6762C6.28697 11.7075 6.26137 11.733 6.23011 11.733Z" fill="#F5F5F5"/>
<path d="M6.88898 11.733H6.83184C6.80048 11.733 6.77502 11.7076 6.77502 11.6762C6.77502 11.6448 6.80048 11.6194 6.83184 11.6194H6.88898C6.92034 11.6194 6.94579 11.6448 6.94579 11.6762C6.94574 11.7076 6.92029 11.733 6.88898 11.733Z" fill="#F5F5F5"/>
<path d="M7.29474 11.8185H7.2444C7.22644 11.8185 7.21191 11.804 7.21191 11.786V11.7806C7.21191 11.7627 7.22644 11.7481 7.2444 11.7481H7.29474C7.3127 11.7481 7.32723 11.7627 7.32723 11.7806V11.786C7.32723 11.804 7.3127 11.8185 7.29474 11.8185Z" fill="#F5F5F5"/>
</svg>
