<svg width="24" height="24" viewBox="0 0 24 24" fill="none" xmlns="http://www.w3.org/2000/svg">
<path d="M23.5861 4.13553H0.413812C0.185297 4.13553 0 4.32083 0 4.54934V19.4458C0 19.6743 0.185297 19.8596 0.413812 19.8596H23.5862C23.8147 19.8596 24 19.6743 24 19.4458V4.54934C24 4.32083 23.8147 4.13553 23.5861 4.13553Z" fill="#73AF00"/>
<path d="M1.88745 4.13553L11.9999 10.761L22.1124 4.13553H1.88745Z" fill="#FF4B55"/>
<path d="M22.1124 19.8644L11.9999 13.239L1.88745 19.8644H22.1124Z" fill="#FF4B55"/>
<path d="M24 4.54934C24 4.32083 23.8147 4.13553 23.5861 4.13553H22.1125L14.4232 9.17332C13.7717 8.61377 12.9262 8.27351 12 8.27351C11.0737 8.27351 10.2283 8.61372 9.57673 9.17332L1.88747 4.13553H0.413812C0.185297 4.13553 0 4.32083 0 4.54934V5.37218L8.4402 10.9019C8.3337 11.2484 8.27581 11.6162 8.27581 11.9976C8.27581 12.379 8.3337 12.7467 8.4402 13.0932L0 18.623V19.4459C0 19.6744 0.185297 19.8597 0.413812 19.8597H1.88747L9.57668 14.8219C10.2282 15.3815 11.0737 15.7218 11.9999 15.7218C12.9262 15.7218 13.7716 15.3816 14.4232 14.8219L22.1124 19.8597H23.5861C23.8146 19.8597 23.9999 19.6744 23.9999 19.4459V18.623L15.5597 13.0933C15.6662 12.7468 15.7241 12.379 15.7241 11.9976C15.7241 11.6162 15.6662 11.2485 15.5597 10.902L23.9999 5.37223L24 4.54934Z" fill="#F5F5F5"/>
<path d="M11.7319 10.8068L11.1708 10.8213L11.4637 10.3424L11.1708 9.86359L11.7319 9.87812L11.9999 9.38477L12.2681 9.87812L12.8292 9.86359L12.5362 10.3424L12.8292 10.8213L12.2681 10.8068L11.9999 11.3001L11.7319 10.8068Z" fill="#FF4B55"/>
<path d="M11.9999 9.51485L12.2316 9.94104L12.7165 9.92861L12.4633 10.3424L12.7165 10.7562L12.2316 10.7438L11.9999 11.17L11.7682 10.7438L11.2832 10.7562L11.5364 10.3424L11.2832 9.92861L11.7682 9.94104L11.9999 9.51485ZM11.9999 9.25497L11.8908 9.45555L11.6954 9.81504L11.2863 9.80454L11.0581 9.79868L11.1773 9.99349L11.3909 10.3425L11.1773 10.6915L11.0581 10.8863L11.2863 10.8804L11.6954 10.8699L11.8908 11.2294L11.9999 11.43L12.1089 11.2294L12.3044 10.8699L12.7134 10.8804L12.9417 10.8863L12.8225 10.6915L12.6089 10.3425L12.8225 9.99349L12.9417 9.79868L12.7134 9.80454L12.3044 9.81504L12.1089 9.45555L11.9999 9.25497Z" fill="#73AF00"/>
<path d="M10.1909 13.5494L9.62976 13.564L9.92273 13.0851L9.62976 12.6063L10.1909 12.6208L10.459 12.1274L10.7271 12.6208L11.2881 12.6063L10.9952 13.0851L11.2881 13.564L10.7271 13.5494L10.459 14.0427L10.1909 13.5494Z" fill="#FF4B55"/>
<path d="M10.459 12.2575L10.6907 12.6837L11.1757 12.6713L10.9225 13.0851L11.1757 13.4989L10.6907 13.4865L10.459 13.9127L10.2273 13.4865L9.74235 13.4989L9.99557 13.0851L9.74235 12.6713L10.2273 12.6837L10.459 12.2575ZM10.459 11.9976L10.3499 12.1982L10.1545 12.5577L9.74549 12.5472L9.51721 12.5413L9.63637 12.7361L9.84998 13.0851L9.63637 13.4341L9.51721 13.6289L9.74549 13.623L10.1545 13.6125L10.3499 13.972L10.459 14.1726L10.5681 13.972L10.7635 13.6125L11.1726 13.623L11.4008 13.6289L11.2817 13.4341L11.0681 13.0851L11.2817 12.7361L11.4008 12.5413L11.1726 12.5472L10.7635 12.5577L10.5681 12.1982L10.459 11.9976Z" fill="#73AF00"/>
<path d="M13.2728 13.5494L12.7117 13.564L13.0046 13.0851L12.7117 12.6063L13.2728 12.6208L13.5408 12.1274L13.809 12.6208L14.3701 12.6063L14.0771 13.0851L14.3701 13.564L13.809 13.5494L13.5408 14.0427L13.2728 13.5494Z" fill="#FF4B55"/>
<path d="M13.5409 12.2575L13.7726 12.6837L14.2576 12.6713L14.0044 13.0851L14.2576 13.4989L13.7726 13.4865L13.5409 13.9127L13.3092 13.4865L12.8243 13.4989L13.0775 13.0851L12.8243 12.6713L13.3092 12.6837L13.5409 12.2575ZM13.5409 11.9976L13.4319 12.1982L13.2364 12.5577L12.8274 12.5472L12.5991 12.5413L12.7183 12.7361L12.9319 13.0851L12.7183 13.4341L12.5991 13.6289L12.8274 13.623L13.2364 13.6125L13.4319 13.972L13.5409 14.1726L13.65 13.972L13.8454 13.6125L14.2545 13.623L14.4827 13.6289L14.3636 13.4341L14.15 13.0851L14.3636 12.7361L14.4827 12.5413L14.2545 12.5472L13.8454 12.5577L13.65 12.1982L13.5409 11.9976Z" fill="#73AF00"/>
</svg>
