<svg width="24" height="24" viewBox="0 0 24 24" fill="none" xmlns="http://www.w3.org/2000/svg">
<path d="M23.5861 19.862H0.413812C0.185297 19.862 0 19.6767 0 19.4482V4.55175C0 4.32324 0.185297 4.13794 0.413812 4.13794H23.5862C23.8147 4.13794 24 4.32324 24 4.55175V19.4482C24 19.6768 23.8147 19.862 23.5861 19.862Z" fill="#3CC8FF"/>
<path d="M11.5862 12H0.413812C0.185297 12 0 11.8147 0 11.5862V4.55175C0 4.32324 0.185297 4.13794 0.413812 4.13794H11.5862C11.8147 4.13794 12 4.32324 12 4.55175V11.5862C11.9999 11.8148 11.8147 12 11.5862 12Z" fill="#41479B"/>
<path d="M11.5862 4.13794H10.8674L7.03447 6.64917V4.13794H4.96551V6.64917L1.13254 4.13794H0.413812C0.185297 4.13794 0 4.32324 0 4.55175V4.87997L3.28851 7.03448H0V9.10345H3.28851L0 11.258V11.5862C0 11.8147 0.185297 12 0.413812 12H1.13254L4.96551 9.48876V12H7.03447V9.48876L10.8674 12H11.5861C11.8146 12 11.9999 11.8147 11.9999 11.5862V11.258L8.71147 9.10345H11.9999V7.03448H8.71142L11.9999 4.87997V4.55175C11.9999 4.32324 11.8147 4.13794 11.5862 4.13794Z" fill="#F5F5F5"/>
<path d="M11.9999 7.44829H6.62066V4.13794H5.37927V7.44829H0V8.68963H5.37927V12H6.62066V8.68963H11.9999V7.44829Z" fill="#FF4B55"/>
<path d="M4.55169 7.03449L0.197203 4.20789C0.081328 4.28124 0 4.40443 0 4.55176V4.57323L3.79166 7.03449H4.55169Z" fill="#FF4B55"/>
<path d="M7.79445 7.03448L11.937 4.34545C11.865 4.22363 11.7379 4.13794 11.5861 4.13794H11.4966L7.03442 7.03448H7.79445Z" fill="#FF4B55"/>
<path d="M4.19405 9.10345L0.0594482 11.7873C0.130745 11.9121 0.259745 12 0.413776 12H0.491822L4.95408 9.10345H4.19405Z" fill="#FF4B55"/>
<path d="M11.9933 11.6188L8.11838 9.10352H7.3584L11.7587 11.9598C11.8905 11.8986 11.9809 11.7704 11.9933 11.6188Z" fill="#FF4B55"/>
<path d="M13.328 17.0054L13.5295 17.6094L14.1661 17.6143C14.2485 17.6149 14.2826 17.7201 14.2164 17.7691L13.7043 18.1472L13.8963 18.7542C13.9212 18.8327 13.8317 18.8978 13.7646 18.8498L13.2467 18.4796L12.7288 18.8498C12.6618 18.8978 12.5723 18.8327 12.5971 18.7542L12.7892 18.1472L12.2771 17.7691C12.2107 17.7201 12.2449 17.6149 12.3274 17.6143L12.964 17.6094L13.1654 17.0054C13.1913 16.9272 13.3019 16.9272 13.328 17.0054Z" fill="#FFE15A"/>
<path d="M19.1873 12.4487L19.3887 13.0527L20.0253 13.0576C20.1077 13.0582 20.1419 13.1634 20.0756 13.2124L19.5635 13.5905L19.7556 14.1975C19.7804 14.276 19.691 14.3411 19.6239 14.2931L19.106 13.9229L18.588 14.2931C18.521 14.3411 18.4315 14.276 18.4564 14.1975L18.6484 13.5905L18.1363 13.2124C18.07 13.1634 18.1042 13.0582 18.1866 13.0576L18.8232 13.0527L19.0246 12.4487C19.0506 12.3705 19.1612 12.3705 19.1873 12.4487Z" fill="#FFE15A"/>
<path d="M21.9501 10.7553L22.1515 11.3593L22.7881 11.3642C22.8705 11.3648 22.9047 11.47 22.8384 11.519L22.3263 11.8971L22.5184 12.5041C22.5433 12.5827 22.4538 12.6477 22.3867 12.5997L21.8688 12.2295L21.3509 12.5997C21.2838 12.6477 21.1943 12.5827 21.2192 12.5041L21.4112 11.8971L20.8991 11.519C20.8328 11.47 20.867 11.3648 20.9494 11.3642L21.586 11.3593L21.7875 10.7553C21.8134 10.6771 21.924 10.6771 21.9501 10.7553Z" fill="#FFE15A"/>
<path d="M21.2911 4.94524L21.4925 5.54917L22.1291 5.5541C22.2115 5.5547 22.2457 5.65994 22.1794 5.70888L21.6673 6.08702L21.8593 6.694C21.8842 6.77256 21.7947 6.83758 21.7276 6.78962L21.2097 6.41945L20.6918 6.78962C20.6248 6.83758 20.5353 6.77256 20.5601 6.694L20.7522 6.08702L20.2401 5.70888C20.1737 5.65989 20.208 5.55475 20.2904 5.5541L20.927 5.54917L21.1284 4.94524C21.1544 4.86705 21.2649 4.86705 21.2911 4.94524Z" fill="#FFE15A"/>
<path d="M15.7773 18.5146L15.5759 17.9107L14.9393 17.9058C14.8569 17.9052 14.8227 17.7999 14.889 17.751L15.4011 17.3729L15.209 16.7659C15.1841 16.6873 15.2736 16.6223 15.3407 16.6703L15.8586 17.0404L16.3765 16.6703C16.4436 16.6223 16.5331 16.6873 16.5082 16.7659L16.3162 17.3729L16.8283 17.751C16.8946 17.8 16.8604 17.9051 16.778 17.9058L16.1414 17.9107L15.94 18.5146C15.9139 18.5928 15.8034 18.5928 15.7773 18.5146Z" fill="#FFE15A"/>
<path d="M17.6815 16.8058L17.4801 16.2018L16.8434 16.1969C16.761 16.1963 16.7269 16.0911 16.7931 16.0421L17.3053 15.664L17.1132 15.057C17.0883 14.9785 17.1778 14.9134 17.2449 14.9614L17.7628 15.3316L18.2807 14.9614C18.3478 14.9134 18.4372 14.9785 18.4124 15.057L18.2203 15.664L18.7325 16.0421C18.7988 16.0911 18.7646 16.1963 18.6822 16.1969L18.0456 16.2018L17.8441 16.8058C17.8182 16.884 17.7075 16.884 17.6815 16.8058Z" fill="#FFE15A"/>
<path d="M19.395 9.35277L19.1936 8.74884L18.5569 8.74392C18.4745 8.74331 18.4404 8.63807 18.5066 8.58913L19.0188 8.211L18.8267 7.60401C18.8018 7.52545 18.8913 7.46043 18.9584 7.50839L19.4763 7.87856L19.9942 7.50839C20.0613 7.46043 20.1507 7.52545 20.1259 7.60401L19.9338 8.211L20.446 8.58913C20.5123 8.63812 20.4781 8.74326 20.3957 8.74392L19.7591 8.74884L19.5576 9.35277C19.5317 9.43091 19.4211 9.43091 19.395 9.35277Z" fill="#FFE15A"/>
<path d="M17.4177 9.98742L17.2163 9.38348L16.5797 9.37856C16.4972 9.37795 16.4631 9.27272 16.5294 9.22378L17.0415 8.84564L16.8494 8.23865C16.8245 8.16009 16.914 8.09508 16.9811 8.14303L17.499 8.5132L18.0169 8.14303C18.084 8.09508 18.1734 8.16009 18.1486 8.23865L17.9566 8.84564L18.4687 9.22378C18.535 9.27276 18.5008 9.3779 18.4184 9.37856L17.7818 9.38348L17.5803 9.98742C17.5543 10.0656 17.4437 10.0656 17.4177 9.98742Z" fill="#FFE15A"/>
<path d="M16.1517 14.9179L15.9503 14.314L15.3137 14.309C15.2313 14.3084 15.1971 14.2032 15.2634 14.1543L15.7755 13.7761L15.5834 13.1691C15.5585 13.0906 15.648 13.0256 15.7151 13.0735L16.233 13.4437L16.7509 13.0735C16.818 13.0256 16.9075 13.0906 16.8826 13.1691L16.6906 13.7761L17.2027 14.1543C17.269 14.2032 17.2348 14.3084 17.1524 14.309L16.5158 14.314L16.3143 14.9179C16.2884 14.9961 16.1778 14.9961 16.1517 14.9179Z" fill="#FFE15A"/>
</svg>
