<svg width="24" height="24" viewBox="0 0 24 24" fill="none" xmlns="http://www.w3.org/2000/svg">
<path d="M23.5861 19.862H0.413812C0.185297 19.862 0 19.6767 0 19.4482V4.55174C0 4.32323 0.185297 4.13793 0.413812 4.13793H23.5862C23.8147 4.13793 24 4.32323 24 4.55174V19.4482C24 19.6768 23.8147 19.862 23.5861 19.862Z" fill="#4173CD"/>
<path d="M24 9.93101H10.7586V4.13793H6.62066V9.93101H0V14.0689H6.62066V19.862H10.7586V14.0689H24V9.93101Z" fill="#FFE15A"/>
<path d="M24 11.1724H9.5172V4.13793H7.86205V11.1724H0V12.8276H7.86205V19.862H9.5172V12.8276H24V11.1724Z" fill="#FF4B55"/>
</svg>
