<svg width="24" height="24" viewBox="0 0 24 24" fill="none" xmlns="http://www.w3.org/2000/svg">
<g clip-path="url(#clip0_2058_11413)">
<path d="M23.5861 19.862H0.413812C0.185297 19.862 0 19.6767 0 19.4482V4.55175C0 4.32324 0.185297 4.13794 0.413812 4.13794H23.5862C23.8147 4.13794 24 4.32324 24 4.55175V19.4482C24 19.6768 23.8147 19.862 23.5861 19.862Z" fill="#73AF00"/>
<path d="M17.5821 4.13794L0 15.6572V16.894L19.4697 4.13794H17.5821Z" fill="#FFE15A"/>
<path d="M23.9999 8.34275V7.10596L4.53015 19.862H6.41776L23.9999 8.34275Z" fill="#FFE15A"/>
<path d="M24 7.10596V4.55175C24 4.32324 23.8147 4.13794 23.5861 4.13794H19.4697L0 16.894V19.4482C0 19.6767 0.185297 19.862 0.413812 19.862H4.53023L24 7.10596Z" fill="#464655"/>
<path d="M7.31339 12.9328L8.16271 13.6167L9.08474 13.0345C9.20414 12.9591 9.35076 13.0791 9.30046 13.211L8.91248 14.2301L9.75107 14.9271C9.85963 15.0174 9.79087 15.1938 9.64987 15.1869L8.56078 15.1328L8.15704 16.1457C8.10473 16.2768 7.91564 16.2661 7.8787 16.1297L7.59361 15.0772L6.5055 15.0062C6.36459 14.9971 6.3165 14.8138 6.43467 14.7366L7.34756 14.1402L7.07878 13.0833C7.04409 12.9466 7.20347 12.8442 7.31339 12.9328Z" fill="#F5F5F5"/>
<path d="M15.141 7.79481L15.9904 8.47872L16.9124 7.89653C17.0318 7.82116 17.1784 7.94111 17.1281 8.07306L16.7401 9.09212L17.5787 9.7891C17.6873 9.87939 17.6185 10.0558 17.4775 10.0489L16.3884 9.99479L15.9847 11.0078C15.9324 11.1389 15.7433 11.128 15.7063 10.9918L15.4212 9.93924L14.3331 9.86828C14.1922 9.85909 14.1441 9.67585 14.2623 9.59865L15.1752 9.00222L14.9064 7.94537C14.8717 7.80869 15.0311 7.70626 15.141 7.79481Z" fill="#F5F5F5"/>
<path d="M23.9999 19.4482V8.34277L6.41772 19.862H23.586C23.8146 19.862 23.9999 19.6768 23.9999 19.4482Z" fill="#FF4B55"/>
</g>
<defs>
<clipPath id="clip0_2058_11413">
<rect width="24" height="24" fill="white"/>
</clipPath>
</defs>
</svg>
