<svg width="24" height="24" viewBox="0 0 24 24" fill="none" xmlns="http://www.w3.org/2000/svg">
<path d="M24 9.37935H0V4.55175C0 4.32324 0.185297 4.13794 0.413812 4.13794H23.5862C23.8147 4.13794 24 4.32324 24 4.55175L24 9.37935Z" fill="#F5F5F5"/>
<path d="M23.5861 19.8621H0.413812C0.185297 19.8621 0 19.6768 0 19.4483V14.6207H24V19.4483C24 19.6768 23.8147 19.8621 23.5861 19.8621Z" fill="#FF4B55"/>
<path d="M24 9.37927H0V14.6204H24V9.37927Z" fill="#41479B"/>
<path d="M8.06315 7.37677C8.06315 7.37677 7.97981 10.0312 7.60734 10.7766C7.14628 11.6928 6.68273 11.9601 5.99306 12.207C5.30349 11.9601 4.83994 11.693 4.37879 10.7766C4.00636 10.0312 3.92293 7.37705 3.92297 7.37677C5.23908 6.78253 6.74705 6.78253 8.06315 7.37677Z" fill="#41479B"/>
<path d="M6.59237 11.0577C6.54194 11.0254 6.50556 11.0022 6.42278 11.0022C6.34023 11.0022 6.30386 11.0253 6.25366 11.0577C6.19614 11.0943 6.12461 11.1401 5.99162 11.1401C5.85855 11.1401 5.78702 11.0943 5.7295 11.0575C5.6793 11.0254 5.64302 11.0023 5.56047 11.0023C5.47792 11.0023 5.44164 11.0254 5.39144 11.0575C5.33711 11.0923 5.26844 11.1338 5.14905 11.1385C5.40039 11.4449 5.66388 11.5903 5.9927 11.7166C6.32139 11.5903 6.58483 11.445 6.83617 11.1386C6.71594 11.1342 6.64689 11.0924 6.59237 11.0577Z" fill="#F5F5F5"/>
<path d="M4.96081 10.5674C5.01101 10.5995 5.0472 10.6226 5.12946 10.6226C5.21201 10.6226 5.24829 10.5995 5.29849 10.5674C5.35601 10.5305 5.42754 10.4847 5.56052 10.4847C5.69351 10.4847 5.76504 10.5306 5.82255 10.5672C5.87276 10.5995 5.90913 10.6227 5.99168 10.6227C6.07423 10.6227 6.11051 10.5996 6.16071 10.5675C6.21823 10.5306 6.28976 10.4848 6.42283 10.4848C6.55601 10.4848 6.62768 10.5307 6.68519 10.5673C6.73563 10.5996 6.77187 10.6228 6.85469 10.6228C6.93752 10.6228 6.97385 10.5997 7.02429 10.5673C7.07233 10.5367 7.13266 10.5012 7.22819 10.4899C7.25322 10.4247 7.27755 10.3504 7.30019 10.2602L6.68285 9.23128L6.45283 9.69132L5.9928 8.7713L5.53277 9.69132L5.30276 9.23128L4.68579 10.2596C4.70834 10.3498 4.73262 10.4244 4.7577 10.49C4.85285 10.5012 4.9129 10.5366 4.96081 10.5674Z" fill="#F5F5F5"/>
<path d="M7.11706 10.7127C7.05955 10.7493 6.98792 10.7951 6.8547 10.7951C6.72162 10.7951 6.65 10.7493 6.59248 10.7127C6.54205 10.6803 6.50567 10.6572 6.42289 10.6572C6.34034 10.6572 6.30397 10.6803 6.25377 10.7127C6.19625 10.7493 6.12472 10.7951 5.99173 10.7951C5.85866 10.7951 5.78713 10.7493 5.72961 10.7125C5.67941 10.6804 5.64313 10.6573 5.56058 10.6573C5.47803 10.6573 5.44175 10.6804 5.39155 10.7125C5.33403 10.7493 5.2625 10.7951 5.12952 10.7951C4.99663 10.7951 4.92519 10.7493 4.86786 10.7125C4.86758 10.7123 4.86735 10.7121 4.86707 10.712C4.91216 10.7938 4.95721 10.8689 5.00211 10.9371C5.03567 10.9555 5.07078 10.9676 5.12952 10.9676C5.21206 10.9676 5.24835 10.9445 5.29855 10.9124C5.35606 10.8756 5.4276 10.8298 5.56058 10.8298C5.69356 10.8298 5.76509 10.8756 5.82261 10.9122C5.87281 10.9446 5.90919 10.9677 5.99173 10.9677C6.07428 10.9677 6.11056 10.9446 6.16077 10.9125C6.21828 10.8756 6.28981 10.8299 6.42289 10.8299C6.55606 10.8299 6.62773 10.8757 6.68525 10.9123C6.73569 10.9446 6.77192 10.9678 6.85475 10.9678C6.91437 10.9678 6.94976 10.9555 6.98384 10.9367C7.0287 10.8687 7.07375 10.7935 7.1188 10.7118C7.11819 10.712 7.11767 10.7123 7.11706 10.7127Z" fill="#F5F5F5"/>
<path d="M6.00218 7.97919L6.04254 8.11109L6.17693 8.08011C6.18602 8.078 6.19239 8.08902 6.18602 8.09581L6.09199 8.19673L6.18602 8.29766C6.19239 8.3045 6.18607 8.31552 6.17693 8.31336L6.04254 8.28237L6.00218 8.41428C5.99946 8.42323 5.98675 8.42323 5.98404 8.41428L5.94368 8.28237L5.80929 8.31336C5.80019 8.31547 5.79382 8.30445 5.80019 8.29766L5.89422 8.19673L5.80019 8.09581C5.79382 8.08897 5.80014 8.07795 5.80929 8.08011L5.94368 8.11109L5.98404 7.97919C5.9868 7.97023 5.99946 7.97023 6.00218 7.97919Z" fill="#FFE15A"/>
<path d="M5.34092 7.34546L5.38128 7.47737L5.51567 7.44638C5.52476 7.44427 5.53114 7.45529 5.52476 7.46208L5.43073 7.56301L5.52476 7.66393C5.53114 7.67077 5.52481 7.68179 5.51567 7.67963L5.38128 7.64865L5.34092 7.78055C5.3382 7.78951 5.3255 7.78951 5.32278 7.78055L5.28242 7.64865L5.14803 7.67963C5.13894 7.68174 5.13256 7.67072 5.13894 7.66393L5.23297 7.56301L5.13894 7.46208C5.13256 7.45524 5.13889 7.44423 5.14803 7.44638L5.28242 7.47737L5.32278 7.34546C5.3255 7.33651 5.33816 7.33651 5.34092 7.34546Z" fill="#FFE15A"/>
<path d="M6.66819 7.34546L6.70855 7.47737L6.84294 7.44638C6.85203 7.44427 6.85841 7.45529 6.85204 7.46208L6.758 7.56301L6.85204 7.66393C6.85841 7.67077 6.85208 7.68179 6.84294 7.67963L6.70855 7.64865L6.66819 7.78055C6.66547 7.78951 6.65277 7.78951 6.65005 7.78055L6.60969 7.64865L6.4753 7.67963C6.46621 7.68174 6.45983 7.67072 6.46621 7.66393L6.56024 7.56301L6.46621 7.46208C6.45983 7.45524 6.46616 7.44423 6.4753 7.44638L6.60969 7.47737L6.65005 7.34546C6.65282 7.33651 6.66547 7.33651 6.66819 7.34546Z" fill="#FFE15A"/>
<path d="M7.82496 7.27679C7.82637 7.35015 7.82754 7.42417 7.82754 7.50409C7.79435 8.33396 7.67089 10.1412 7.40182 10.6855C7.00512 11.4822 6.63884 11.7455 5.993 11.9882C5.34716 11.7456 4.98092 11.4823 4.5845 10.6861C4.31446 10.1397 4.1901 8.30176 4.15836 7.50414C4.15836 7.42412 4.15967 7.35095 4.1608 7.27698C4.08121 7.30815 4.00208 7.34111 3.92371 7.3765C3.92924 7.53765 3.96936 8.59487 4.08988 9.52445C4.15785 10.0434 4.25141 10.5217 4.37877 10.7766C4.83988 11.693 5.30342 11.9601 5.99305 12.207C6.68272 11.96 7.14622 11.6928 7.60737 10.7766C7.73478 10.5217 7.82829 10.0434 7.89631 9.52445C8.01678 8.59487 8.05685 7.53765 8.06243 7.3765C7.98392 7.34101 7.90475 7.30797 7.82496 7.27679Z" fill="#FF1722"/>
</svg>
