<svg width="24" height="24" viewBox="0 0 24 24" fill="none" xmlns="http://www.w3.org/2000/svg">
<path d="M23.5861 19.8621H0.413812C0.185297 19.8621 0 19.6768 0 19.4483V4.55175C0 4.32324 0.185297 4.13794 0.413812 4.13794H23.5862C23.8147 4.13794 24 4.32324 24 4.55175V19.4483C24 19.6768 23.8147 19.8621 23.5861 19.8621Z" fill="#F5F5F5"/>
<path d="M12 12H23.5862C23.8147 12 24 11.8147 24 11.5862V4.55175C24 4.32324 23.8147 4.13794 23.5862 4.13794H12.4138C12.1853 4.13794 12 4.32324 12 4.55175V12Z" fill="#FF4B55"/>
<path d="M0.413812 19.8621H11.5862C11.8147 19.8621 12 19.6768 12 19.4483V12.0001H0.413812C0.185297 12.0001 0 12.1854 0 12.4139V19.4483C0 19.6769 0.185297 19.8621 0.413812 19.8621Z" fill="#4173CD"/>
<path d="M6.15942 6.30412L6.55392 7.48696L7.80079 7.49662C7.96223 7.49784 8.02916 7.7039 7.89927 7.79976L6.89624 8.54043L7.27232 9.72927C7.32098 9.88321 7.14576 10.0105 7.01442 9.91663L6.00004 9.19161L4.98562 9.91667C4.85428 10.0106 4.67906 9.88321 4.72772 9.72932L5.10379 8.54047L4.10077 7.7998C3.97088 7.7039 4.03781 7.49788 4.19925 7.49666L5.44612 7.48701L5.84062 6.30417C5.89172 6.15098 6.10837 6.15098 6.15942 6.30412Z" fill="#4173CD"/>
<path d="M18.1593 14.1662L18.5538 15.349L19.8007 15.3587C19.9621 15.3599 20.029 15.566 19.8992 15.6618L18.8961 16.4025L19.2722 17.5913C19.3209 17.7453 19.1456 17.8725 19.0143 17.7787L17.9999 17.0537L16.9855 17.7787C16.8542 17.8726 16.6789 17.7453 16.7276 17.5914L17.1037 16.4025L16.1006 15.6619C15.9708 15.566 16.0377 15.3599 16.1991 15.3587L17.446 15.3491L17.8405 14.1662C17.8916 14.013 18.1082 14.013 18.1593 14.1662Z" fill="#FF4B55"/>
</svg>
