<svg width="24" height="24" viewBox="0 0 24 24" fill="none" xmlns="http://www.w3.org/2000/svg">
<path d="M23.5861 19.8621H0.413812C0.185297 19.8621 0 19.6768 0 19.4483V4.55175C0 4.32324 0.185297 4.13794 0.413812 4.13794H23.5862C23.8147 4.13794 24 4.32324 24 4.55175V19.4483C24 19.6768 23.8147 19.8621 23.5861 19.8621Z" fill="#FF4B55"/>
<path d="M12.1931 7.31102L13.2998 10.6293L16.7976 10.6564C16.9932 10.6579 17.0743 10.9075 16.917 11.0237L14.1031 13.1016L15.1582 16.4366C15.2172 16.6231 15.0049 16.7774 14.8457 16.6636L12 14.6296L9.15423 16.6636C8.99514 16.7774 8.7828 16.6231 8.84177 16.4366L9.89687 13.1016L7.08302 11.0237C6.92566 10.9075 7.0068 10.6579 7.20236 10.6564L10.7002 10.6293L11.8069 7.31102C11.8688 7.12549 12.1312 7.12549 12.1931 7.31102Z" fill="#FFE15A"/>
</svg>
