<svg width="24" height="24" viewBox="0 0 24 24" fill="none" xmlns="http://www.w3.org/2000/svg">
<path d="M23.5861 19.8621H0.413812C0.185297 19.8621 0 19.6768 0 19.4483V4.55175C0 4.32324 0.185297 4.13794 0.413812 4.13794H23.5862C23.8147 4.13794 24 4.32324 24 4.55175V19.4483C24 19.6768 23.8147 19.8621 23.5861 19.8621Z" fill="#73AF00"/>
<path d="M4.96593 9.48183C5.00671 9.74325 5.16473 9.82528 5.30212 9.81455C5.46412 9.80199 5.6062 9.65386 5.6062 9.49739V8.6003C5.6062 8.5554 5.64276 8.51874 5.68776 8.51874C5.73276 8.51874 5.76932 8.55535 5.76932 8.6003V9.50124C5.76932 9.60957 5.82285 9.71058 5.91262 9.77124C5.96742 9.80836 6.03121 9.82744 6.09548 9.82744C6.1364 9.82744 6.17751 9.81961 6.2167 9.804L6.29821 9.77143C6.30571 10.5245 6.25992 11.1863 6.25907 11.1984C6.2527 11.2883 6.32029 11.3663 6.41015 11.3727C6.41413 11.373 6.41802 11.3732 6.42196 11.3732C6.50681 11.3732 6.57838 11.3076 6.58452 11.2217C6.58832 11.1687 6.63857 10.4438 6.62352 9.6413L6.67284 9.62161C6.71606 9.60441 6.76462 9.60647 6.8062 9.62719C6.98587 9.71672 7.20205 9.6818 7.34404 9.53986L7.37343 9.51052C7.50524 9.37847 7.55057 9.18666 7.49155 9.00971L7.35266 8.59304C7.42776 8.61563 7.51026 8.5824 7.54654 8.51007C7.58685 8.42949 7.55418 8.33152 7.4736 8.29121L7.1474 8.12808C7.08838 8.09846 7.01755 8.10755 6.96754 8.15068C6.91766 8.19404 6.89882 8.26299 6.91968 8.32557L7.18213 9.11297C7.20177 9.1719 7.18668 9.23593 7.14276 9.27989L7.11341 9.30924C7.0709 9.35175 7.00612 9.36211 6.95198 9.33535C6.84627 9.28252 6.7259 9.27263 6.61298 9.30141C6.59006 8.77786 6.53366 8.25652 6.41357 7.8961C6.38512 7.81069 6.29292 7.76438 6.20718 7.79302C6.12173 7.82138 6.07556 7.91373 6.10406 7.99932C6.22157 8.35177 6.27276 8.88891 6.29095 9.423L6.09567 9.5011V8.60016C6.09567 8.37526 5.91271 8.19235 5.68785 8.19235C5.463 8.19235 5.28004 8.37521 5.28004 8.60016V9.38977L5.11364 8.56782C5.09592 8.47941 5.00995 8.42176 4.92145 8.44022C4.83309 8.45822 4.776 8.54424 4.79395 8.63251L4.96593 9.48183Z" fill="#F5F5F5"/>
<path d="M5.28007 8.11096C5.37016 8.11096 5.44319 8.03802 5.44319 7.94783V7.78471C5.44319 7.69457 5.37016 7.62158 5.28007 7.62158C5.18997 7.62158 5.11694 7.69452 5.11694 7.78471V7.94783C5.11694 8.03797 5.18997 8.11096 5.28007 8.11096Z" fill="#F5F5F5"/>
<path d="M6.91117 7.94783H7.0743C7.16439 7.94783 7.23742 7.87489 7.23742 7.78471C7.23742 7.69457 7.16439 7.62158 7.0743 7.62158H6.91117C6.82108 7.62158 6.74805 7.69452 6.74805 7.78471C6.74805 7.87489 6.82108 7.94783 6.91117 7.94783Z" fill="#F5F5F5"/>
<path d="M5.84853 10.0916L5.03295 10.581C4.95565 10.6273 4.93067 10.7275 4.97703 10.8048C5.00759 10.8557 5.06159 10.884 5.11704 10.884C5.14564 10.884 5.17456 10.8765 5.20086 10.8607L6.01643 10.3713C6.09373 10.3249 6.11871 10.2248 6.07235 10.1475C6.02599 10.0702 5.92587 10.0452 5.84853 10.0916Z" fill="#F5F5F5"/>
<path d="M8.04764 10.3801L8.05148 10.3775C8.06517 10.4326 8.08865 10.486 8.12676 10.5308C8.19304 10.6088 8.29242 10.6481 8.40473 10.6388C8.56406 10.6272 8.67234 10.5544 8.74406 10.4604C8.75498 10.4679 8.76647 10.4747 8.77847 10.4808C8.86664 10.5252 8.96859 10.5219 9.06567 10.4715C9.31218 10.3446 9.36529 10.0508 9.35779 9.89727C9.35339 9.80774 9.27726 9.74455 9.18796 9.74277C9.09839 9.74662 9.02864 9.8226 9.03187 9.91213C9.03196 9.9142 9.03557 10.1077 8.91726 10.1796C8.89795 10.1527 8.87507 10.0921 8.86645 10.0421C8.85267 9.95816 8.77556 9.89971 8.69259 9.90641C8.60803 9.91307 8.54268 9.98413 8.5424 10.069C8.54231 10.0927 8.53706 10.302 8.37548 10.3196C8.35668 10.2939 8.35636 10.1859 8.37487 10.1061C8.39048 10.0406 8.36423 9.97227 8.30883 9.93407C8.25333 9.89568 8.18015 9.89568 8.12442 9.93346L8.03339 9.99538C7.99017 9.04945 7.89056 7.94718 7.88934 7.93307C7.88123 7.84354 7.80239 7.77679 7.71215 7.78542C7.62244 7.79353 7.5563 7.87289 7.56445 7.96275C7.56586 7.97784 7.68103 9.25317 7.71656 10.2271C7.70822 10.235 7.69964 10.2437 7.69148 10.2513C7.62698 10.0887 7.49911 9.98624 7.33444 9.97063C7.10203 9.9501 6.85022 10.1083 6.75994 10.3341C6.68213 10.5285 6.73111 10.7195 6.88463 10.8206C6.99502 10.8934 7.16161 10.9163 7.37109 10.8429C7.31995 11.0226 7.22681 11.2048 7.10578 11.3458C6.99736 11.4721 6.81633 11.6179 6.58467 11.6113C6.44981 11.6061 6.34622 11.5619 6.26789 11.4763C6.07903 11.27 6.0953 10.8966 6.09544 10.8926C6.10013 10.8028 6.03131 10.7262 5.94155 10.7212C5.85113 10.7116 5.77463 10.7851 5.76966 10.8751C5.76853 10.8958 5.74486 11.3864 6.02578 11.695C6.16406 11.8471 6.34777 11.9285 6.57183 11.9373C6.58275 11.9377 6.59367 11.9379 6.60464 11.9379C6.8775 11.9379 7.14225 11.8041 7.35314 11.5583C7.55151 11.3273 7.68623 11.0135 7.72664 10.7222C7.72612 11.2802 7.38984 11.9096 6.94402 12.1868C6.75469 12.3044 6.45952 12.4105 6.12703 12.2466C5.71716 12.0442 5.766 11.5758 5.76816 11.5566C5.77936 11.4673 5.71594 11.3857 5.62655 11.3746C5.53758 11.3638 5.45555 11.4267 5.44449 11.5162C5.44083 11.5453 5.36246 12.233 5.9827 12.539C6.14203 12.6177 6.30863 12.6567 6.47653 12.6567C6.6922 12.6567 6.90989 12.5922 7.11623 12.4638C7.65905 12.1264 8.05303 11.3934 8.05303 10.7209C8.05298 10.6157 8.05097 10.5009 8.04764 10.3801ZM7.06406 10.5482C7.03491 10.5289 7.05769 10.4673 7.06261 10.455C7.09697 10.369 7.20441 10.2946 7.29023 10.2946C7.29464 10.2946 7.29909 10.2948 7.30336 10.2952C7.32422 10.2972 7.37958 10.3024 7.40339 10.4256C7.40592 10.4386 7.40808 10.452 7.40976 10.4657C7.22798 10.5725 7.10611 10.5758 7.06406 10.5482Z" fill="#F5F5F5"/>
<path d="M5.3624 12.0485C5.28511 12.0031 5.18526 12.029 5.13942 12.1063C5.13192 12.1189 5.12198 12.1326 5.11186 12.145C5.11007 12.1409 5.10834 12.1364 5.10656 12.1316C5.03854 11.9501 5.08696 11.6706 5.11143 11.5782C5.13445 11.4912 5.08265 11.402 4.99575 11.3787C4.90893 11.3564 4.81964 11.4071 4.79629 11.4941C4.78443 11.5382 4.68417 11.9342 4.80107 12.2461C4.87593 12.4456 4.99087 12.4959 5.07417 12.5027C5.08157 12.5033 5.08889 12.5036 5.09615 12.5036C5.27175 12.5036 5.3886 12.3267 5.42109 12.2706C5.46614 12.1929 5.43975 12.094 5.3624 12.0485Z" fill="#F5F5F5"/>
<path d="M8.37247 9.08962C8.40776 9.08962 8.4433 9.07828 8.47311 9.05475L9.29548 8.40914C9.30683 8.40024 9.31409 8.38856 9.32239 8.37759C9.44084 8.30616 9.52095 8.17753 9.52095 8.02945C9.52095 7.80455 9.338 7.62164 9.11314 7.62164C8.88828 7.62164 8.70533 7.8045 8.70533 8.02945C8.70533 8.15531 8.76383 8.26655 8.85364 8.34141L8.27159 8.79834C8.20077 8.85394 8.18844 8.9565 8.24403 9.02723C8.27623 9.06825 8.32414 9.08962 8.37247 9.08962ZM9.11319 7.94785C9.15819 7.94785 9.19475 7.98446 9.19475 8.02941C9.19475 8.07436 9.15819 8.11097 9.11319 8.11097C9.06819 8.11097 9.03162 8.07436 9.03162 8.02941C9.03162 7.98446 9.06819 7.94785 9.11319 7.94785Z" fill="#F5F5F5"/>
<path d="M8.92006 8.93499C8.83414 8.90635 8.74212 8.95266 8.71367 9.03807C8.69623 9.09029 8.61734 9.3594 8.77723 9.5191C8.8393 9.58121 8.92081 9.61229 9.02094 9.6121C9.08783 9.6121 9.16301 9.59841 9.24626 9.57052C9.33172 9.54216 9.37789 9.44982 9.34939 9.36422C9.32089 9.27882 9.22869 9.23232 9.143 9.26115C9.05187 9.29143 9.01334 9.28651 9.00983 9.28965C9.00022 9.26546 9.00655 9.19261 9.02328 9.14054C9.0515 9.05541 9.00533 8.96335 8.92006 8.93499Z" fill="#F5F5F5"/>
<path d="M10.787 8.26061C10.8023 8.26506 10.8177 8.26712 10.8328 8.26712C10.9034 8.26712 10.9685 8.22095 10.9893 8.1497L11.0845 7.8235C11.1097 7.73702 11.06 7.64636 10.9736 7.62119C10.8869 7.59616 10.7966 7.64556 10.7713 7.73205L10.6761 8.05825C10.6509 8.14487 10.7006 8.23548 10.787 8.26061Z" fill="#F5F5F5"/>
<path d="M9.83613 8.24156C9.86201 8.2567 9.89041 8.26387 9.9183 8.26387C9.97437 8.26387 10.0289 8.23504 10.0593 8.18315C10.1047 8.10543 10.0786 8.00536 10.0008 7.95998C9.96799 7.94086 9.97244 7.88686 9.97366 7.87617C9.97854 7.83332 10.0041 7.78106 10.0485 7.76723C10.1345 7.74051 10.1826 7.64906 10.1558 7.56304C10.1289 7.47689 10.0376 7.42922 9.95149 7.45565C9.78888 7.50628 9.67034 7.65684 9.64948 7.83909C9.63016 8.00868 9.70169 8.1629 9.83613 8.24156Z" fill="#F5F5F5"/>
<path d="M8.54227 10.8839C8.45218 10.8839 8.37915 10.9568 8.37915 11.047C8.37915 11.1267 8.4362 11.193 8.51167 11.2073C8.52024 11.2198 8.54223 11.263 8.54223 11.3732C8.54223 11.4634 8.61526 11.5364 8.70535 11.5364C8.79545 11.5364 8.86848 11.4634 8.86848 11.3732C8.86852 10.8895 8.55559 10.8839 8.54227 10.8839Z" fill="#F5F5F5"/>
<path d="M11.3096 10.2085C11.3301 10.2119 11.3505 10.2134 11.3709 10.2134C11.4991 10.2134 11.6286 10.1488 11.7568 10.0205C11.8205 9.95681 11.8205 9.85359 11.7568 9.78988C11.6931 9.72618 11.5899 9.72618 11.5262 9.78988C11.4286 9.88752 11.3761 9.88959 11.3627 9.88654C11.3316 9.88209 11.3034 9.84145 11.2971 9.83034C11.2561 9.75098 11.1591 9.71934 11.0792 9.75927C10.9987 9.79959 10.9659 9.89756 11.0063 9.97813C11.0164 9.99838 11.1106 10.1761 11.3096 10.2085Z" fill="#F5F5F5"/>
<path d="M14.0822 9.06218C14.0811 9.05965 14.0802 9.05726 14.0794 9.05501C14.0504 8.97031 13.958 8.92423 13.8735 8.95306C13.7879 8.98142 13.7418 9.07376 13.7703 9.15935C13.783 9.19756 13.8557 9.38937 14.0357 9.41356C14.0477 9.41515 14.0597 9.41595 14.0715 9.41595C14.1845 9.41595 14.2905 9.34282 14.387 9.19817C14.4369 9.12331 14.4167 9.02201 14.3417 8.972C14.2667 8.92212 14.1654 8.94218 14.1155 9.01728C14.1027 9.03654 14.0915 9.05121 14.0822 9.06218Z" fill="#F5F5F5"/>
<path d="M13.762 12.0257C13.762 11.3301 13.7314 10.6776 13.6889 10.1058C13.9205 10.5074 14.1289 10.9133 14.2617 11.2674C14.2863 11.3329 14.3484 11.3732 14.4144 11.3732C14.4334 11.3732 14.4528 11.3698 14.4716 11.3629C14.556 11.3312 14.5987 11.2372 14.5671 11.1528C14.3606 10.6024 13.9895 9.94687 13.6238 9.36496C13.5346 8.48629 13.4348 7.92858 13.433 7.91864C13.417 7.82995 13.3322 7.77004 13.2434 7.78734C13.1548 7.80342 13.096 7.88831 13.1121 7.9769C13.1134 7.98398 13.1648 8.27128 13.2262 8.75479C13.1009 8.56884 12.9845 8.40107 12.8868 8.26298L12.8947 8.26551C12.9807 8.29415 13.0726 8.24784 13.1011 8.16243C13.1296 8.07689 13.0835 7.9845 12.998 7.95614L12.5086 7.79301C12.4408 7.77009 12.3663 7.79433 12.3247 7.85231C12.3136 7.86778 12.306 7.88475 12.3009 7.90228C12.2032 7.83009 12.078 7.7714 11.9604 7.82062C11.8893 7.85011 11.8046 7.92431 11.8046 8.11082C11.8046 8.25403 11.8592 8.40886 11.9171 8.57292C12.0132 8.84498 12.0733 9.04504 11.9716 9.14048C11.9154 9.19317 11.8592 9.21309 11.8044 9.19926C11.7038 9.17376 11.6043 9.03979 11.5379 8.84085C11.535 8.83223 11.529 8.82595 11.5249 8.81821C11.5592 8.56556 11.5443 8.26115 11.4751 7.91573C11.4575 7.82733 11.3718 7.76981 11.2832 7.78781C11.1948 7.80548 11.1376 7.89136 11.1553 7.97976C11.2618 8.5124 11.2298 8.94693 11.0698 9.14212C11.0079 9.21764 10.9304 9.25265 10.8259 9.25265C10.7928 9.25265 10.7703 9.24215 10.7478 9.21632C10.6191 9.06801 10.6197 8.58951 10.6612 8.29687C10.6678 8.25023 10.6538 8.20275 10.6228 8.16703C10.5918 8.13136 10.5469 8.11082 10.4997 8.11082C10.219 8.11082 10.1126 8.43004 10.0187 8.71167C9.97752 8.83546 9.90074 9.06562 9.84721 9.08953C9.74849 9.08953 9.68465 8.7996 9.68408 8.60001C9.6838 8.51001 9.61091 8.43721 9.52096 8.43721C9.52096 8.43721 9.52082 8.43721 9.52068 8.43721C9.43068 8.43721 9.35779 8.51015 9.35779 8.60015C9.35779 8.97637 9.48594 9.41573 9.84716 9.41573C10.1161 9.41573 10.2251 9.12262 10.3163 8.85023C10.3321 9.06684 10.3811 9.29128 10.5013 9.42988C10.5858 9.52738 10.698 9.57881 10.8259 9.57881C11.0272 9.57881 11.1988 9.49931 11.322 9.34893C11.3444 9.32174 11.3636 9.29048 11.3826 9.25893C11.4773 9.39356 11.5935 9.48238 11.7244 9.51543C11.7628 9.52513 11.8014 9.53006 11.8396 9.53006C11.9655 9.53006 12.0886 9.47812 12.1948 9.37823C12.2169 9.35742 12.2325 9.33478 12.2493 9.31242C12.2892 9.32381 12.3297 9.33056 12.3698 9.33056C12.502 9.33056 12.6292 9.27735 12.7081 9.22668C12.7836 9.17826 12.8055 9.07823 12.7575 9.00239C12.7095 8.92673 12.609 8.90409 12.533 8.95157C12.5315 8.95223 12.4226 9.01485 12.3483 9.00014C12.3485 8.82131 12.2838 8.63142 12.2248 8.46412C12.1911 8.36882 12.1566 8.27123 12.1404 8.19145C12.1538 8.20279 12.167 8.21456 12.1787 8.226C12.2423 8.2897 12.3456 8.2897 12.4093 8.226C12.4198 8.21545 12.4259 8.20265 12.433 8.19032C12.602 8.42325 12.9498 8.91271 13.3075 9.47695C13.3758 10.1705 13.4357 11.0551 13.4357 12.0254C13.4357 12.1156 13.5087 12.1886 13.5988 12.1886C13.6889 12.1888 13.762 12.1159 13.762 12.0257Z" fill="#F5F5F5"/>
<path d="M13.925 8.43714C13.925 8.52728 13.998 8.60026 14.0881 8.60026C14.1782 8.60026 14.2513 8.52733 14.2513 8.43714C14.2513 8.24519 14.1011 7.93506 14.0709 7.87483C14.0306 7.79439 13.9327 7.76191 13.8521 7.80189C13.7715 7.8422 13.7388 7.94017 13.7791 8.02075C13.838 8.13845 13.925 8.35206 13.925 8.43714Z" fill="#F5F5F5"/>
<path d="M13.1828 12.0435C13.1029 12.0027 13.0046 12.0351 12.9639 12.1153C12.9464 12.1496 12.9192 12.1877 12.8963 12.2122C12.8891 12.1474 12.9063 12.0178 12.9392 11.9105C12.9611 11.8388 12.9314 11.7614 12.8672 11.7229C12.8033 11.6842 12.7208 11.6942 12.6679 11.7472L12.3417 12.0734C12.278 12.1371 12.278 12.2404 12.3417 12.3041C12.4054 12.3678 12.5086 12.3678 12.5723 12.3041L12.5806 12.2958C12.5948 12.3613 12.6218 12.421 12.668 12.4672C12.7291 12.5284 12.8031 12.5607 12.8799 12.5607C12.8948 12.5607 12.9098 12.5594 12.9248 12.5571C13.1095 12.5271 13.2246 12.3234 13.2554 12.2617C13.2955 12.1813 13.263 12.084 13.1828 12.0435Z" fill="#F5F5F5"/>
<path d="M13.1197 10.731H11.9701C11.9803 10.6904 11.9908 10.6516 12.0015 10.6149C12.4599 10.5196 12.7324 10.3716 12.8125 10.1741C12.8402 10.1057 12.8692 9.96724 12.7512 9.8081C12.6448 9.66471 12.4947 9.60039 12.3388 9.63222C12.107 9.67919 11.9005 9.92894 11.7523 10.3288C11.2919 10.4076 10.9971 10.5729 10.8105 10.736C10.7443 10.0675 10.4849 9.67047 10.4722 9.65158C10.4222 9.57653 10.3208 9.55629 10.246 9.6063C10.1711 9.65632 10.1509 9.75747 10.2007 9.83247C10.2037 9.83692 10.4996 10.2895 10.4996 11.0469C10.4996 11.7914 9.90591 12.3518 9.52092 12.3518C9.33778 12.3518 9.25758 12.1341 9.22238 11.95C9.59934 11.6858 9.93197 11.3801 10.0054 11.0864C10.1048 10.6889 9.97973 10.396 9.89695 10.2022C9.89306 10.1933 9.88898 10.1837 9.88486 10.1738C9.88837 10.177 9.8917 10.1803 9.89503 10.1835C9.95859 10.2472 10.0619 10.2472 10.1256 10.1835C10.1893 10.1198 10.1893 10.0166 10.1256 9.95289C10.0303 9.85746 9.84511 9.70755 9.67678 9.778C9.60567 9.80749 9.52092 9.88169 9.52092 10.0682C9.52092 10.1525 9.55612 10.2348 9.59691 10.3304C9.67036 10.5023 9.76172 10.7162 9.68887 11.0073C9.6458 11.1797 9.4342 11.3887 9.15497 11.5962C9.12502 11.5604 9.0818 11.5364 9.03155 11.5364H9.03127C8.94127 11.5365 8.86838 11.6093 8.86838 11.6993C8.86838 11.7287 8.86969 11.76 8.87156 11.7922C8.52249 12.0183 8.12747 12.2275 7.82213 12.3664C7.74019 12.4037 7.70396 12.5004 7.74122 12.5824C7.76855 12.6424 7.8278 12.678 7.88977 12.678C7.91236 12.678 7.93533 12.6734 7.95718 12.6633C8.04886 12.6217 8.48419 12.4188 8.93138 12.1417C9.01374 12.4213 9.18825 12.6781 9.52088 12.6781C9.91219 12.6781 10.3561 12.3581 10.6123 11.8804C10.6432 11.935 10.6787 11.9873 10.7212 12.0361C11.1317 12.5095 11.9337 12.5149 11.9676 12.5149C12.0554 12.5149 12.1274 12.4455 12.1306 12.3577C12.1337 12.2699 12.0668 12.1954 11.9793 12.1892C11.978 12.1891 11.848 12.1747 11.7757 12.0903C11.7321 12.0393 11.7146 11.9692 11.7223 11.8761C11.739 11.6751 12.3874 11.5248 12.9589 11.5159C13.027 11.5148 13.0873 11.4716 13.1101 11.4075L13.2732 10.9488C13.2909 10.8989 13.2833 10.8433 13.2527 10.8002C13.2225 10.7568 13.1727 10.731 13.1197 10.731ZM12.4037 9.95205C12.4068 9.95144 12.4109 9.95046 12.4162 9.95046C12.4318 9.95046 12.4564 9.9581 12.4892 10.0024C12.4954 10.0107 12.5152 10.039 12.5102 10.0515C12.4915 10.0976 12.3789 10.174 12.1443 10.2431C12.2474 10.0417 12.3484 9.96321 12.4037 9.95205ZM11.4187 12.0962C11.2529 12.0424 11.0841 11.957 10.9672 11.8218C10.8387 11.6732 10.7912 11.4852 10.8224 11.2474C10.827 11.2349 10.8377 11.2103 10.8564 11.1783C11.0861 11.1572 11.6997 11.2477 11.7422 11.4235C11.5529 11.5201 11.4135 11.6559 11.3974 11.849C11.3893 11.9459 11.3992 12.028 11.4187 12.0962Z" fill="#F5F5F5"/>
<path d="M14.8954 8.38554L14.7322 7.89617C14.7059 7.81751 14.6243 7.7705 14.5434 7.78831C14.462 7.8057 14.4069 7.88131 14.4152 7.96399C14.5277 9.08956 14.7406 11.2846 14.7406 11.5363C14.7406 11.7623 14.3386 12.2073 13.689 12.5322C13.6084 12.5725 13.5757 12.6704 13.616 12.751C13.6446 12.8082 13.7022 12.8412 13.7621 12.8412C13.7866 12.8412 13.8115 12.8356 13.8349 12.824C14.4283 12.5273 15.0669 11.9978 15.0669 11.5363C15.0669 11.2953 14.9002 9.56126 14.8047 8.5872C14.882 8.5542 14.9224 8.46682 14.8954 8.38554Z" fill="#F5F5F5"/>
<path d="M16.2564 9.8574C16.2878 9.88881 16.3295 9.90522 16.3718 9.90522C16.3994 9.90522 16.4272 9.89823 16.4524 9.88384C16.5162 9.84751 16.5479 9.77298 16.5298 9.70178C16.5006 9.58712 16.4909 9.44373 16.5064 9.38514C16.5881 9.38767 16.6639 9.32955 16.6759 9.24527C16.6886 9.15606 16.6267 9.07337 16.5375 9.06067C16.4297 9.04605 16.335 9.07773 16.2688 9.15128C16.226 9.19909 16.2005 9.26041 16.1867 9.32636L15.9978 9.13745C15.9341 9.07375 15.8308 9.07375 15.7671 9.13745C15.7034 9.20116 15.7034 9.30437 15.7671 9.36808L16.2564 9.8574Z" fill="#F5F5F5"/>
<path d="M16.6234 10.0276L16.0117 10.4659C15.9386 10.5183 15.9216 10.6203 15.9741 10.6936C16.006 10.738 16.0561 10.7616 16.1069 10.7616C16.1398 10.7616 16.173 10.7517 16.2018 10.731L16.8135 10.2926C16.8866 10.2402 16.9036 10.1383 16.8511 10.065C16.7985 9.99171 16.6964 9.97464 16.6234 10.0276Z" fill="#F5F5F5"/>
<path d="M16.5691 10.641C16.5178 10.707 16.5252 10.8001 16.5834 10.8573C16.5904 10.8691 16.6222 10.9315 16.6165 11.0921C16.6133 11.1822 16.6837 11.2577 16.7737 11.2609C16.7757 11.2611 16.7777 11.2611 16.7796 11.2611C16.8671 11.2611 16.9394 11.1917 16.9425 11.1038C16.9544 10.7709 16.8455 10.6493 16.7981 10.6124C16.7271 10.5569 16.6245 10.5699 16.5691 10.641Z" fill="#F5F5F5"/>
<path d="M17.9927 11.8422C18.0828 11.8422 18.1558 11.7692 18.1558 11.679C18.1558 11.4384 18.1434 11.1697 18.1232 10.8902C18.285 11.1552 18.4193 11.3996 18.5055 11.6005C18.5319 11.6625 18.5921 11.6994 18.6555 11.6994C18.6769 11.6994 18.6987 11.6953 18.7196 11.6862C18.8024 11.6507 18.8407 11.5548 18.8052 11.4721C18.6559 11.1236 18.3768 10.662 18.0589 10.1854C17.9949 9.58673 17.9114 9.00009 17.8464 8.57929C17.8809 8.58281 17.9168 8.57437 17.9483 8.55393C17.9998 8.52093 18.0239 8.4636 18.0204 8.40656C18.0246 8.42259 18.0291 8.43867 18.0385 8.45343C18.0396 8.45503 18.1444 8.62814 18.0979 8.85281C18.0796 8.94088 18.1364 9.02723 18.2246 9.04551C18.2358 9.04771 18.2469 9.04888 18.2578 9.04888C18.3335 9.04888 18.4014 8.99582 18.4174 8.91876C18.4911 8.56242 18.321 8.28975 18.3137 8.27826C18.2653 8.20242 18.1644 8.18015 18.0885 8.22825C18.0368 8.2612 18.0123 8.31857 18.0156 8.37576C18.0114 8.35964 18.0068 8.34342 17.9972 8.32865L17.7219 7.9005C17.6799 7.83515 17.5976 7.80872 17.5254 7.83679C17.453 7.86515 17.4106 7.94048 17.424 8.01693C17.4263 8.02978 17.551 8.74556 17.6615 9.60829C17.5364 9.43171 17.4114 9.25907 17.2901 9.09426C17.2704 8.84746 17.2507 8.61932 17.2336 8.43065C17.2426 8.42798 17.2514 8.42446 17.2601 8.42015C17.3407 8.37984 17.3734 8.28187 17.333 8.20129L17.1699 7.87509C17.1347 7.80468 17.0543 7.76962 16.9787 7.79128C16.9031 7.81326 16.8539 7.88587 16.8617 7.96425C16.8811 8.15892 16.9014 8.3744 16.9213 8.60076C16.8181 8.46478 16.7227 8.34028 16.641 8.23486C16.6569 8.22117 16.6705 8.20415 16.6805 8.18404C16.7208 8.10346 16.6882 8.0055 16.6076 7.96518L16.2814 7.80206C16.2129 7.76798 16.1299 7.78584 16.0816 7.84542C16.0335 7.905 16.0332 7.99003 16.0811 8.04993C16.0899 8.0609 16.4915 8.56434 16.9719 9.21412C17.0553 10.2918 17.1108 11.4129 17.0324 11.648C17.0181 11.6909 16.993 11.7416 16.9696 11.7434C16.871 11.7571 16.6357 11.5367 16.5175 11.3004C16.4494 11.1644 16.3514 11.1502 16.299 11.1526C16.1237 11.1634 16.0553 11.3563 15.931 11.7065C15.8419 11.9573 15.7312 12.2692 15.6069 12.3968C15.5395 12.3145 15.4524 12.0384 15.404 11.7546C15.4267 11.8174 15.4854 11.8627 15.556 11.8627C15.6461 11.8627 15.7192 11.7898 15.7192 11.6996C15.7192 11.4563 15.5491 9.60379 15.454 8.58853C15.5334 8.55665 15.5751 8.46796 15.5477 8.38575L15.3846 7.89637C15.3584 7.81771 15.2779 7.77131 15.196 7.78837C15.1149 7.80557 15.0595 7.8809 15.0674 7.96345C15.1783 9.12707 15.3861 11.3746 15.3926 11.6848C15.3922 11.682 15.3916 11.6793 15.3912 11.6765C15.3786 11.5873 15.2953 11.5261 15.2067 11.5381C15.1175 11.551 15.0556 11.6335 15.0683 11.7227C15.1159 12.0561 15.2377 12.6293 15.518 12.7227C15.5401 12.7302 15.5699 12.7369 15.6049 12.7369C15.6692 12.7369 15.7508 12.7141 15.8344 12.6305C16.0121 12.4528 16.1323 12.1142 16.2384 11.8155C16.2623 11.748 16.2908 11.668 16.3175 11.5995C16.4671 11.8181 16.7282 12.0901 16.9927 12.0688C17.0857 12.0622 17.2549 12.0122 17.3419 11.7512C17.4286 11.491 17.3943 10.5836 17.3359 9.71479C17.4733 9.9074 17.6108 10.1046 17.7421 10.2994C17.793 10.7879 17.8294 11.2773 17.8294 11.6792C17.8296 11.7692 17.9026 11.8422 17.9927 11.8422Z" fill="#F5F5F5"/>
<path d="M19.2305 10.9842C19.115 10.1234 18.954 9.12623 18.852 8.51423C18.8981 8.52557 18.9482 8.51629 18.9887 8.48521C19.0603 8.43061 19.0741 8.32814 19.0194 8.25665L18.7237 7.86923C18.6781 7.80965 18.5976 7.78865 18.5288 7.81875C18.4599 7.84884 18.4205 7.92215 18.4333 7.99621C18.4363 8.0129 18.7272 9.68737 18.9071 11.0275C18.9758 11.5396 18.8755 11.9973 18.6385 12.2515C18.4862 12.4148 18.2844 12.4887 18.0402 12.4745C17.9505 12.4697 17.8728 12.5372 17.8671 12.6271C17.8615 12.7169 17.9297 12.7944 18.0197 12.8C18.0472 12.8018 18.0744 12.8026 18.1013 12.8026C18.4089 12.8026 18.6758 12.6898 18.8771 12.4738C19.1846 12.1442 19.3134 11.6011 19.2305 10.9842Z" fill="#F5F5F5"/>
<path d="M17.4361 12.0594C17.3762 12.1246 17.3807 12.2271 17.4442 12.2887C17.453 12.2972 17.4636 12.3142 17.4637 12.3225C17.4638 12.3271 17.4572 12.3408 17.439 12.3589C17.3753 12.4226 17.3753 12.5259 17.439 12.5896C17.4709 12.6214 17.5126 12.6374 17.5544 12.6374C17.5961 12.6374 17.6379 12.6214 17.6697 12.5896C17.7732 12.4862 17.7922 12.3812 17.7898 12.3113C17.7848 12.1607 17.6823 12.0636 17.6619 12.0456C17.5952 11.9876 17.496 11.9946 17.4361 12.0594Z" fill="#F5F5F5"/>
<path d="M16.8611 15.6366H16.698H15.7193V15.4735C15.7193 15.3833 15.6463 15.3104 15.5562 15.3104C15.4661 15.3104 15.3931 15.3833 15.3931 15.4735V15.6366H6.74805C7.07425 15.9628 7.7267 16.126 8.21608 16.126C8.56703 16.126 12.9448 16.126 15.3931 16.126V16.4522C15.3931 16.5423 15.4661 16.6153 15.5562 16.6153H16.8611C17.131 16.6153 17.3505 16.3958 17.3505 16.1259C17.3505 15.8561 17.131 15.6366 16.8611 15.6366ZM16.8611 16.2891H15.7193V16.1259C16.5054 16.1259 17.0242 16.1259 17.0242 16.1259L16.9949 16.0381C17.0119 16.0638 17.0242 16.0928 17.0242 16.1259C17.0242 16.216 16.951 16.2891 16.8611 16.2891Z" fill="#F5F5F5"/>
</svg>
