<svg width="24" height="24" viewBox="0 0 24 24" fill="none" xmlns="http://www.w3.org/2000/svg">
<path d="M23.5861 19.862H0.413812C0.185297 19.862 0 19.6767 0 19.4482V4.55175C0 4.32324 0.185297 4.13794 0.413812 4.13794H23.5862C23.8147 4.13794 24 4.32324 24 4.55175V19.4482C24 19.6768 23.8147 19.862 23.5861 19.862Z" fill="#41479B"/>
<path d="M24 11.1722H0V12.8273H24V11.1722Z" fill="#FFE15A"/>
<path d="M5.58618 14.4827L5.82716 15.4455L6.51721 14.7322L6.24454 15.6865L7.19877 15.4138L6.48552 16.1039L7.44824 16.3448L6.48552 16.5858L7.19877 17.2758L6.24454 17.0031L6.51721 17.9574L5.82716 17.2441L5.58618 18.2069L5.3452 17.2441L4.65515 17.9574L4.92787 17.0031L3.97359 17.2758L4.68688 16.5858L3.72412 16.3448L4.68688 16.1039L3.97359 15.4138L4.92787 15.6865L4.65515 14.7322L5.3452 15.4455L5.58618 14.4827Z" fill="#F5F5F5"/>
</svg>
