<svg width="24" height="24" viewBox="0 0 24 24" fill="none" xmlns="http://www.w3.org/2000/svg">
<path d="M23.5861 19.8621H0.413812C0.185297 19.8621 0 19.6768 0 19.4483V4.55175C0 4.32324 0.185297 4.13794 0.413812 4.13794H23.5862C23.8147 4.13794 24 4.32324 24 4.55175V19.4483C24 19.6768 23.8147 19.8621 23.5861 19.8621Z" fill="#82AFFF"/>
<path d="M23.5861 4.13797H22.4L0 15.7241V16.5517L23.8297 4.22605C23.7606 4.17434 23.6791 4.13797 23.5861 4.13797Z" fill="#FFE15A"/>
<path d="M0.413803 19.8621H1.59997L23.9999 8.27591V7.44833L0.170288 19.774C0.239382 19.8257 0.32085 19.8621 0.413803 19.8621Z" fill="#FFE15A"/>
<path d="M23.8297 4.22604L0 16.5517V19.4482C0 19.5839 0.0695155 19.6985 0.170297 19.7739L24 7.44832V4.55173C24 4.41612 23.9304 4.30151 23.8297 4.22604Z" fill="#FF4B55"/>
<path d="M4.34147 5.76462L4.93763 7.55219L6.82195 7.56677C6.92733 7.56762 6.97102 7.70205 6.88627 7.76468L5.37038 8.8841L5.93878 10.6807C5.97056 10.7812 5.85619 10.8643 5.77046 10.803L4.23741 9.70722L2.70437 10.803C2.61868 10.8643 2.50426 10.7812 2.53604 10.6807L3.10445 8.8841L1.58856 7.76468C1.50376 7.7021 1.5475 7.56762 1.65287 7.56677L3.53719 7.55219L4.13335 5.76462C4.16677 5.66468 4.3081 5.66468 4.34147 5.76462Z" fill="#FFE15A"/>
</svg>
