<svg width="24" height="24" viewBox="0 0 24 24" fill="none" xmlns="http://www.w3.org/2000/svg">
<path d="M23.5861 19.8621H0.413812C0.185297 19.8621 0 19.6768 0 19.4483V4.55175C0 4.32324 0.185297 4.13794 0.413812 4.13794H23.5862C23.8147 4.13794 24 4.32324 24 4.55175V19.4483C24 19.6768 23.8147 19.8621 23.5861 19.8621Z" fill="#F5F5F5"/>
<path d="M24 4.55175C24 4.32324 23.8147 4.13794 23.5861 4.13794H22.4898L12 11.0106L1.51012 4.13799H0.413812C0.185297 4.13799 0 4.32324 0 4.55175V5.12733L10.4899 12L0 18.8727V19.4483C0 19.6768 0.185297 19.8621 0.413812 19.8621H1.51017L12 12.9894L22.4898 19.8621H23.5862C23.8147 19.8621 24 19.6768 24 19.4483V18.8727L13.5101 12L24 5.12738V4.55175Z" fill="#FF4B55"/>
<path d="M13.2448 5.94661C13.2448 5.94661 13.1138 5.75007 12.9173 5.88108C12.9173 5.88108 13.1446 6.04491 12.9909 6.21689C12.8284 6.39891 12.605 6.22088 12.591 6.09042C12.6506 6.08588 12.6977 6.03661 12.6977 5.97586C12.6977 5.91207 12.646 5.86041 12.5822 5.86041C12.5184 5.86041 12.4668 5.91207 12.4668 5.97586C12.4668 6.02564 12.4985 6.06769 12.5426 6.08391C12.5145 6.19556 12.2216 6.28102 12.1372 6.0961C12.0421 5.88793 12.1925 5.71116 12.3952 5.73572C12.3952 5.73572 12.3563 5.47777 12.0819 5.58624C12.0819 5.58624 12.1966 5.2914 12.0001 5.09485C11.8035 5.2914 11.9182 5.58624 11.9182 5.58624C11.6438 5.47772 11.605 5.73572 11.605 5.73572C11.8076 5.71116 11.958 5.88783 11.863 6.0961C11.7785 6.28102 11.4857 6.19556 11.4575 6.08391C11.5016 6.06774 11.5333 6.02569 11.5333 5.97586C11.5333 5.91207 11.4817 5.86041 11.4179 5.86041C11.3541 5.86041 11.3024 5.91207 11.3024 5.97586C11.3024 6.03666 11.3495 6.08588 11.4091 6.09042C11.3951 6.22088 11.1716 6.39891 11.0092 6.21689C10.8556 6.04491 11.0829 5.88108 11.0829 5.88108C10.8863 5.75007 10.7553 5.94661 10.7553 5.94661C10.6898 5.68453 10.4277 5.75007 10.4277 5.75007C10.6898 6.07763 10.8825 6.75338 10.8825 6.75338H13.1178C13.1178 6.75338 13.3105 6.07767 13.5726 5.75007C13.5724 5.75007 13.3103 5.68453 13.2448 5.94661Z" fill="#FFE15A"/>
<path d="M13.1176 6.75335C12.756 6.6259 12.3779 6.56219 11.9999 6.56219C11.6219 6.56219 11.2439 6.6259 10.8823 6.75335C10.296 9.32205 11.9999 10.0086 11.9999 10.0086C11.9999 10.0086 13.7038 9.32205 13.1176 6.75335Z" fill="#FF4B55"/>
<path d="M11.1824 7.66723C11.1824 7.66723 11.1287 7.6571 11.082 7.69451C11.082 7.69451 11.0656 7.62992 11.1497 7.61436C11.2338 7.5987 11.1824 7.66723 11.1824 7.66723Z" fill="#82AFFF"/>
<path d="M11.1177 7.58554C11.1177 7.58554 11.0752 7.55123 11.0164 7.5621C11.0164 7.5621 11.0325 7.49746 11.114 7.52348C11.1954 7.54944 11.1177 7.58554 11.1177 7.58554Z" fill="#82AFFF"/>
<path d="M11.1529 7.619C11.1529 7.619 11.0942 7.60888 11.0431 7.64628C11.0431 7.64628 11.0253 7.58169 11.1172 7.56613C11.209 7.55052 11.1529 7.619 11.1529 7.619Z" fill="#82AFFF"/>
<path d="M12.1698 7.79061C12.1698 7.79061 12.1152 7.79319 12.0784 7.8404C12.0784 7.8404 12.0475 7.78133 12.1257 7.74674C12.2039 7.7121 12.1698 7.79061 12.1698 7.79061Z" fill="#82AFFF"/>
<path d="M12.0897 7.72019C12.0897 7.72019 12.0403 7.69666 11.9856 7.72085C11.9856 7.72085 11.9863 7.65419 12.0716 7.66066C12.1568 7.66713 12.0897 7.72019 12.0897 7.72019Z" fill="#82AFFF"/>
<path d="M12.1299 7.75048C12.1299 7.75048 12.0704 7.75418 12.0294 7.80237C12.0294 7.80237 11.9971 7.74368 12.0829 7.70726C12.1687 7.67084 12.1299 7.75048 12.1299 7.75048Z" fill="#82AFFF"/>
<path d="M12.7935 7.82435C12.7935 7.82435 12.7731 7.82435 12.7365 7.85881C12.7365 7.85881 12.7103 7.80021 12.7874 7.77143C12.8647 7.74265 12.7935 7.82435 12.7935 7.82435Z" fill="#82AFFF"/>
<path d="M12.7544 7.74389C12.7544 7.74389 12.7083 7.71839 12.6543 7.73845C12.6543 7.73845 12.6588 7.67442 12.7405 7.68553C12.8221 7.69673 12.7544 7.74389 12.7544 7.74389Z" fill="#82AFFF"/>
<path d="M12.7913 7.77532C12.7913 7.77532 12.7339 7.77546 12.6917 7.81938C12.6917 7.81938 12.664 7.76103 12.7487 7.73098C12.8333 7.70098 12.7913 7.77532 12.7913 7.77532Z" fill="#82AFFF"/>
<path d="M11.0926 7.26187C11.0926 7.26187 11.0432 7.22906 10.9807 7.24645C10.9807 7.24645 10.9919 7.17524 11.0824 7.19531C11.173 7.21537 11.0926 7.26187 11.0926 7.26187Z" fill="#82AFFF"/>
<path d="M11.0885 7.13896C11.0885 7.13896 11.0567 7.08885 10.9886 7.08444C10.9886 7.08444 11.0327 7.01689 11.11 7.06874C11.1873 7.12049 11.0885 7.13896 11.0885 7.13896Z" fill="#82AFFF"/>
<path d="M11.0888 7.2042C11.0888 7.2042 11.0368 7.16576 10.968 7.17991C10.968 7.17991 10.9835 7.10477 11.0809 7.13252C11.1783 7.16037 11.0888 7.2042 11.0888 7.2042Z" fill="#82AFFF"/>
<path d="M12.6359 7.429C12.7224 7.43135 12.8251 7.39708 12.8414 7.30755C12.8602 7.20466 12.7721 7.15263 12.6538 7.15727C12.5675 7.16069 12.3488 7.21028 12.1922 7.20475C12.0373 7.19932 12.0331 7.04603 12.2677 7.0623C12.6157 7.08644 12.671 7.0413 12.671 7.0413C12.4841 7.07632 12.4094 7.01093 12.2109 7.01093C12.0124 7.01093 11.9743 7.14841 12.0544 7.22346C12.1443 7.30755 12.4701 7.25149 12.5566 7.23513C12.643 7.21877 12.7526 7.21792 12.7613 7.27872C12.769 7.33324 12.6243 7.33028 12.5217 7.32635C12.3585 7.32007 12.1209 7.36436 11.9096 7.37528C11.7335 7.38438 11.709 7.33474 11.6689 7.28388C11.6783 7.26696 11.6837 7.24807 11.6837 7.2281C11.6837 7.21802 11.6821 7.20827 11.6795 7.1988C11.6928 7.18422 11.7068 7.16088 11.7132 7.12296C11.7132 7.12296 11.6681 7.11503 11.6341 7.13224C11.6068 7.11072 11.5707 7.09727 11.5307 7.09727C11.4907 7.09727 11.4546 7.11072 11.4273 7.13224C11.3933 7.11508 11.3482 7.12296 11.3482 7.12296C11.3546 7.16092 11.3686 7.18417 11.3819 7.1988C11.3793 7.20822 11.3778 7.21792 11.3778 7.2281C11.3778 7.26475 11.3954 7.29789 11.4238 7.32166C11.4375 7.33314 11.4477 7.34824 11.4512 7.36577L11.4561 7.39066C11.4583 7.40158 11.4653 7.41011 11.4745 7.41532C11.3293 7.40036 11.2606 7.30914 11.2254 7.25842C11.1856 7.20124 11.1608 7.07472 11.1 7.06071L11.0642 7.25149C11.0642 7.25149 11.1409 7.42896 11.2837 7.50138C11.4449 7.58308 11.4753 7.58547 11.5282 7.60882C11.5344 7.63685 11.4285 7.65396 11.3211 7.63221C11.2461 7.61702 11.145 7.50808 11.0875 7.51586L11.1545 7.66488C11.3367 7.7801 11.4959 7.78253 11.6325 7.7583C11.729 7.74119 11.7657 7.66258 11.7721 7.62892C11.8115 7.62161 11.8545 7.61346 11.9875 7.58078C12.0432 7.5671 12.1074 7.55988 12.1712 7.55688C12.1892 7.59794 12.2304 7.65053 12.3721 7.6555C12.3721 7.6555 12.4063 7.71002 12.2896 7.6991C12.1728 7.68817 12.1428 7.6518 12.0743 7.65958L12.1354 7.80499C12.1354 7.80499 12.2849 7.75361 12.4686 7.77231C12.4686 7.77231 12.5028 7.78169 12.5231 7.75211C12.5433 7.72253 12.534 7.70542 12.5153 7.67894C12.5048 7.66403 12.4987 7.61575 12.4954 7.57624C12.5627 7.59316 12.7692 7.55125 12.8438 7.55753C12.9185 7.56372 12.9295 7.65096 12.9123 7.68053C12.8952 7.71011 12.7387 7.68485 12.7387 7.68485L12.7913 7.82847C12.7913 7.82847 12.8071 7.82088 12.8469 7.78333C12.8793 7.75281 13.012 7.76313 13.012 7.73974V7.47367C13.012 7.46106 13.001 7.45122 12.9884 7.4523C12.6958 7.4778 12.6359 7.429 12.6359 7.429Z" fill="#FFE15A"/>
<path d="M11.4694 7.33447C11.4738 7.34305 11.477 7.35238 11.4788 7.36227L11.4832 7.38716C11.4847 7.39588 11.4916 7.40221 11.4996 7.40221H11.5675C11.5754 7.40221 11.5823 7.39588 11.5839 7.38716L11.5883 7.36227C11.5901 7.35238 11.5933 7.3431 11.5977 7.33447H11.4694Z" fill="#FF4B55"/>
<path d="M11.5334 7.38364C11.5178 7.38364 11.5055 7.38556 11.5072 7.40731L11.5136 7.50035C11.5146 7.51456 11.5232 7.52539 11.5334 7.52539C11.5436 7.52539 11.5523 7.51456 11.5533 7.50035L11.5596 7.40731C11.5613 7.38556 11.549 7.38364 11.5334 7.38364Z" fill="#82AFFF"/>
<path d="M11.3314 8.58618C11.3314 8.58618 11.2876 8.57788 11.2495 8.6084C11.2495 8.6084 11.2361 8.55571 11.3047 8.54296C11.3734 8.53035 11.3314 8.58618 11.3314 8.58618Z" fill="#82AFFF"/>
<path d="M11.2786 8.51955C11.2786 8.51955 11.2439 8.49156 11.1959 8.50042C11.1959 8.50042 11.209 8.44764 11.2755 8.46887C11.342 8.49006 11.2786 8.51955 11.2786 8.51955Z" fill="#82AFFF"/>
<path d="M11.3073 8.54682C11.3073 8.54682 11.2594 8.53853 11.2178 8.56904C11.2178 8.56904 11.2032 8.51636 11.2782 8.50361C11.3531 8.49095 11.3073 8.54682 11.3073 8.54682Z" fill="#82AFFF"/>
<path d="M12.1367 8.68685C12.1367 8.68685 12.0921 8.68896 12.0621 8.7274C12.0621 8.7274 12.037 8.67921 12.1008 8.65099C12.1646 8.62282 12.1367 8.68685 12.1367 8.68685Z" fill="#82AFFF"/>
<path d="M12.0713 8.62943C12.0713 8.62943 12.0311 8.61026 11.9865 8.62995C11.9865 8.62995 11.987 8.57557 12.0566 8.58087C12.1261 8.58612 12.0713 8.62943 12.0713 8.62943Z" fill="#82AFFF"/>
<path d="M12.1042 8.65409C12.1042 8.65409 12.0557 8.65713 12.0222 8.69641C12.0222 8.69641 11.9958 8.64851 12.0658 8.61884C12.1359 8.58912 12.1042 8.65409 12.1042 8.65409Z" fill="#82AFFF"/>
<path d="M12.6455 8.71431C12.6455 8.71431 12.6289 8.71431 12.599 8.74239C12.599 8.74239 12.5775 8.69457 12.6405 8.67118C12.7035 8.6477 12.6455 8.71431 12.6455 8.71431Z" fill="#82AFFF"/>
<path d="M12.6136 8.64869C12.6136 8.64869 12.576 8.62788 12.532 8.64429C12.532 8.64429 12.5357 8.59207 12.6023 8.60116C12.6689 8.61021 12.6136 8.64869 12.6136 8.64869Z" fill="#82AFFF"/>
<path d="M12.6437 8.67433C12.6437 8.67433 12.5968 8.67443 12.5624 8.71028C12.5624 8.71028 12.5398 8.66271 12.6088 8.63819C12.6779 8.61367 12.6437 8.67433 12.6437 8.67433Z" fill="#82AFFF"/>
<path d="M11.258 8.2555C11.258 8.2555 11.2178 8.22878 11.1667 8.24294C11.1667 8.24294 11.1758 8.18482 11.2498 8.20122C11.3236 8.21763 11.258 8.2555 11.258 8.2555Z" fill="#82AFFF"/>
<path d="M11.2548 8.15523C11.2548 8.15523 11.2288 8.11431 11.1733 8.11075C11.1733 8.11075 11.2092 8.05567 11.2723 8.09791C11.3353 8.14019 11.2548 8.15523 11.2548 8.15523Z" fill="#82AFFF"/>
<path d="M11.255 8.20849C11.255 8.20849 11.2126 8.17713 11.1565 8.18871C11.1565 8.18871 11.1691 8.1274 11.2486 8.15009C11.3281 8.17273 11.255 8.20849 11.255 8.20849Z" fill="#82AFFF"/>
<path d="M12.5169 8.39193C12.5874 8.39385 12.6712 8.36592 12.6845 8.29289C12.6998 8.20898 12.628 8.16651 12.5315 8.17035C12.461 8.17317 12.2826 8.21357 12.1549 8.20907C12.0285 8.20462 12.0251 8.0796 12.2165 8.09287C12.5004 8.11256 12.5454 8.07576 12.5454 8.07576C12.393 8.10431 12.3321 8.05096 12.1701 8.05096C12.0081 8.05096 11.9771 8.16309 12.0425 8.22435C12.1157 8.29293 12.3816 8.24723 12.4521 8.23387C12.5226 8.22051 12.612 8.21981 12.6191 8.26945C12.6254 8.31389 12.5073 8.3115 12.4236 8.30831C12.2905 8.3032 12.0967 8.33934 11.9243 8.3482C11.7807 8.3556 11.7607 8.3151 11.728 8.27367C11.7357 8.25984 11.74 8.24451 11.74 8.2282C11.74 8.22 11.7387 8.21207 11.7366 8.20434C11.7475 8.19243 11.7588 8.1734 11.7641 8.14246C11.7641 8.14246 11.7273 8.136 11.6996 8.15001C11.6774 8.13248 11.6479 8.12151 11.6152 8.12151C11.5825 8.12151 11.5531 8.13248 11.5308 8.15001C11.5031 8.136 11.4663 8.14246 11.4663 8.14246C11.4715 8.1734 11.4829 8.19243 11.4938 8.20434C11.4917 8.21203 11.4904 8.21995 11.4904 8.2282C11.4904 8.2581 11.5048 8.28515 11.528 8.30451C11.5391 8.31389 11.5475 8.32617 11.5503 8.34051L11.5543 8.36085C11.5561 8.36976 11.5618 8.3767 11.5693 8.38096C11.4509 8.36878 11.3948 8.29439 11.3661 8.253C11.3337 8.20635 11.3134 8.10314 11.2638 8.0917L11.2346 8.24728C11.2346 8.24728 11.2972 8.39207 11.4137 8.45114C11.5451 8.51779 11.5699 8.51971 11.6131 8.53874C11.6181 8.56162 11.5318 8.57559 11.4442 8.55778C11.383 8.54535 11.3006 8.45657 11.2536 8.46285L11.3083 8.5844C11.4569 8.67839 11.5867 8.68035 11.6982 8.66057C11.7769 8.6466 11.8068 8.58253 11.812 8.55506C11.8441 8.5491 11.8791 8.54245 11.9877 8.51578C12.0332 8.50462 12.0855 8.49871 12.1376 8.49628C12.1523 8.52979 12.1859 8.57273 12.3014 8.57671C12.3014 8.57671 12.3294 8.62115 12.2341 8.61224C12.1388 8.60334 12.1145 8.57367 12.0585 8.58004L12.1084 8.69864C12.1084 8.69864 12.2303 8.65673 12.3802 8.67196C12.3802 8.67196 12.4082 8.67956 12.4247 8.65546C12.4412 8.63132 12.4336 8.61735 12.4183 8.59579C12.4097 8.58365 12.4048 8.54423 12.4021 8.51198C12.457 8.52581 12.6254 8.49159 12.6862 8.49665C12.7472 8.50171 12.7561 8.57282 12.7421 8.59701C12.7281 8.62115 12.6005 8.60053 12.6005 8.60053L12.6434 8.71767C12.6434 8.71767 12.6563 8.71148 12.6888 8.68082C12.7153 8.65593 12.8234 8.66432 12.8234 8.64529V8.42826C12.8234 8.41795 12.8145 8.40993 12.8043 8.41082C12.5658 8.43168 12.5169 8.39193 12.5169 8.39193Z" fill="#FFE15A"/>
<path d="M11.5653 8.31473C11.5689 8.32176 11.5716 8.32935 11.5729 8.33737L11.5765 8.35771C11.5777 8.36484 11.5834 8.36999 11.5899 8.36999H11.6452C11.6517 8.36999 11.6573 8.36484 11.6586 8.35771L11.6622 8.33737C11.6636 8.32935 11.6662 8.32171 11.6698 8.31473H11.5653Z" fill="#FF4B55"/>
<path d="M11.6176 8.35489C11.6048 8.35489 11.5949 8.35644 11.5962 8.37425L11.6013 8.45014C11.6022 8.46176 11.6092 8.47058 11.6176 8.47058C11.626 8.47058 11.6329 8.46176 11.6338 8.45014L11.6389 8.37425C11.6403 8.35644 11.6304 8.35489 11.6176 8.35489Z" fill="#82AFFF"/>
<path d="M11.4968 9.31659C11.4968 9.31659 11.464 9.3104 11.4355 9.33323C11.4355 9.33323 11.4255 9.29376 11.4769 9.28424C11.5282 9.27473 11.4968 9.31659 11.4968 9.31659Z" fill="#82AFFF"/>
<path d="M11.4573 9.26665C11.4573 9.26665 11.4313 9.2457 11.3954 9.25231C11.3954 9.25231 11.4052 9.21279 11.455 9.22868C11.5047 9.24462 11.4573 9.26665 11.4573 9.26665Z" fill="#82AFFF"/>
<path d="M11.4789 9.28708C11.4789 9.28708 11.443 9.28089 11.4119 9.30372C11.4119 9.30372 11.4009 9.26425 11.4571 9.25473C11.5132 9.24522 11.4789 9.28708 11.4789 9.28708Z" fill="#82AFFF"/>
<path d="M12.0998 9.39194C12.0998 9.39194 12.0664 9.39348 12.0439 9.42231C12.0439 9.42231 12.0251 9.38622 12.0729 9.36512C12.1206 9.34398 12.0998 9.39194 12.0998 9.39194Z" fill="#82AFFF"/>
<path d="M12.0509 9.34895C12.0509 9.34895 12.0207 9.33456 11.9873 9.34938C11.9873 9.34938 11.9878 9.30869 12.0398 9.31258C12.0919 9.31652 12.0509 9.34895 12.0509 9.34895Z" fill="#82AFFF"/>
<path d="M12.0755 9.36744C12.0755 9.36744 12.0392 9.36974 12.0142 9.39913C12.0142 9.39913 11.9944 9.36327 12.0468 9.34105C12.0992 9.31883 12.0755 9.36744 12.0755 9.36744Z" fill="#82AFFF"/>
<path d="M12.4809 9.41251C12.4809 9.41251 12.4684 9.41251 12.446 9.43356C12.446 9.43356 12.43 9.39775 12.4771 9.38022C12.5243 9.36264 12.4809 9.41251 12.4809 9.41251Z" fill="#82AFFF"/>
<path d="M12.4569 9.36339C12.4569 9.36339 12.4288 9.34783 12.3958 9.36006C12.3958 9.36006 12.3986 9.32097 12.4484 9.32772C12.4983 9.33451 12.4569 9.36339 12.4569 9.36339Z" fill="#82AFFF"/>
<path d="M12.4794 9.38256C12.4794 9.38256 12.4444 9.38265 12.4185 9.40951C12.4185 9.40951 12.4016 9.37389 12.4533 9.35551C12.505 9.33714 12.4794 9.38256 12.4794 9.38256Z" fill="#82AFFF"/>
<path d="M11.442 9.06904C11.442 9.06904 11.4119 9.04902 11.3737 9.05962C11.3737 9.05962 11.3805 9.01612 11.4358 9.0284C11.4911 9.04063 11.442 9.06904 11.442 9.06904Z" fill="#82AFFF"/>
<path d="M11.4395 8.99394C11.4395 8.99394 11.4201 8.96334 11.3785 8.96062C11.3785 8.96062 11.4054 8.91941 11.4526 8.95101C11.4999 8.98265 11.4395 8.99394 11.4395 8.99394Z" fill="#82AFFF"/>
<path d="M11.4396 9.03383C11.4396 9.03383 11.4078 9.01034 11.3658 9.01902C11.3658 9.01902 11.3753 8.97312 11.4348 8.99009C11.4943 9.00701 11.4396 9.03383 11.4396 9.03383Z" fill="#82AFFF"/>
<path d="M12.3845 9.17107C12.4373 9.17252 12.5 9.15157 12.51 9.09691C12.5215 9.03405 12.4677 9.00232 12.3955 9.00513C12.3427 9.00719 12.2092 9.03752 12.1135 9.03415C12.0189 9.03082 12.0163 8.93721 12.1596 8.94715C12.3722 8.96187 12.406 8.9343 12.406 8.9343C12.2919 8.95573 12.2462 8.91574 12.1249 8.91574C12.0037 8.91574 11.9804 8.99969 12.0294 9.04558C12.0842 9.09696 12.2833 9.06269 12.336 9.05271C12.3888 9.04272 12.4557 9.04221 12.4611 9.07933C12.4659 9.11262 12.3774 9.11083 12.3147 9.1084C12.215 9.10455 12.07 9.1316 11.9409 9.1383C11.8333 9.14383 11.8183 9.11351 11.7939 9.08247C11.7996 9.07212 11.8029 9.06063 11.8029 9.04844C11.8029 9.0423 11.8019 9.03635 11.8003 9.03058C11.8084 9.02163 11.817 9.00743 11.8209 8.98423C11.8209 8.98423 11.7934 8.9794 11.7726 8.98985C11.7559 8.97672 11.7339 8.96848 11.7094 8.96848C11.685 8.96848 11.6629 8.97668 11.6463 8.98985C11.6255 8.97935 11.598 8.98423 11.598 8.98423C11.6019 9.00738 11.6104 9.02163 11.6185 9.03058C11.617 9.0363 11.616 9.04226 11.616 9.04844C11.616 9.07085 11.6268 9.09105 11.6441 9.10558C11.6525 9.11257 11.6587 9.1218 11.6608 9.13254L11.6638 9.14772C11.6651 9.15438 11.6695 9.15958 11.675 9.16277C11.5863 9.15363 11.5444 9.0979 11.5229 9.06696C11.4985 9.03204 11.4834 8.95479 11.4463 8.94616L11.4244 9.06265C11.4244 9.06265 11.4714 9.17107 11.5585 9.21527C11.6569 9.26519 11.6755 9.26665 11.7078 9.2809C11.7116 9.29801 11.6469 9.30846 11.5813 9.29519C11.5355 9.28587 11.4738 9.21935 11.4386 9.22413L11.4796 9.31516C11.5909 9.38552 11.6881 9.38702 11.7715 9.37221C11.8305 9.36176 11.8529 9.31376 11.8568 9.29322C11.8808 9.28877 11.9071 9.28376 11.9883 9.26379C12.0223 9.2554 12.0615 9.25099 12.1005 9.24921C12.1115 9.27429 12.1367 9.3064 12.2231 9.3094C12.2231 9.3094 12.244 9.34268 12.1727 9.33602C12.1014 9.32937 12.0831 9.30715 12.0413 9.31188L12.0786 9.40071C12.0786 9.40071 12.1699 9.3693 12.2821 9.38074C12.2821 9.38074 12.303 9.38641 12.3154 9.36836C12.3278 9.35032 12.322 9.33982 12.3106 9.32369C12.3042 9.3146 12.3005 9.28507 12.2985 9.26097C12.3396 9.27133 12.4657 9.24569 12.5113 9.24954C12.5569 9.25338 12.5636 9.30658 12.5531 9.32463C12.5427 9.34268 12.4471 9.32726 12.4471 9.32726L12.4792 9.41496C12.4792 9.41496 12.4888 9.41032 12.5132 9.3874C12.533 9.36879 12.614 9.37502 12.614 9.36077V9.19826C12.614 9.19057 12.6073 9.18457 12.5996 9.18522C12.421 9.20093 12.3845 9.17107 12.3845 9.17107Z" fill="#FFE15A"/>
<path d="M11.672 9.11337C11.6747 9.11867 11.6766 9.12434 11.6777 9.13034L11.6804 9.14553C11.6813 9.15087 11.6855 9.15472 11.6904 9.15472H11.7318C11.7367 9.15472 11.7409 9.15083 11.7418 9.14553L11.7445 9.13034C11.7455 9.12434 11.7475 9.11862 11.7502 9.11337H11.672Z" fill="#FF4B55"/>
<path d="M11.7112 9.14343C11.7016 9.14343 11.6942 9.14456 11.6952 9.15792L11.699 9.21473C11.6997 9.2234 11.705 9.23006 11.7112 9.23006C11.7175 9.23006 11.7227 9.22345 11.7233 9.21473L11.7272 9.15792C11.7282 9.14456 11.7207 9.14343 11.7112 9.14343Z" fill="#82AFFF"/>
</svg>
