<svg width="24" height="24" viewBox="0 0 24 24" fill="none" xmlns="http://www.w3.org/2000/svg">
<path d="M23.5861 19.8621H0.413812C0.185297 19.8621 0 19.6768 0 19.4483V4.55175C0 4.32324 0.185297 4.13794 0.413812 4.13794H23.5862C23.8147 4.13794 24 4.32324 24 4.55175V19.4483C24 19.6768 23.8147 19.8621 23.5861 19.8621Z" fill="#41479B"/>
<path d="M11.5862 4.138H10.8674L7.03442 6.64928V4.138H4.96546V6.64928L1.1325 4.138H0.413812C0.185297 4.138 0 4.32325 0 4.55177V4.87998L3.28851 7.03449H0V9.10346H3.28851L0 11.258V11.5862C0 11.8148 0.185297 12 0.413812 12H1.13259L4.96555 9.48877V12H7.03452V9.48877L10.8674 12H11.5862C11.8147 12 12 11.8148 12 11.5862V11.258L8.71151 9.10351H12V7.03454H8.71147L12 4.88003V4.55181C12 4.32325 11.8147 4.138 11.5862 4.138Z" fill="#F5F5F5"/>
<path d="M12 7.44835H6.62066V4.138H5.37932V7.44835H0V8.6897H5.37932V12H6.62066V8.6897H12V7.44835Z" fill="#FF4B55"/>
<path d="M4.55169 7.03455L0.197203 4.20795C0.081328 4.28126 0 4.40449 0 4.55177V4.57324L3.79166 7.03455H4.55169Z" fill="#FF4B55"/>
<path d="M7.79445 7.03454L11.937 4.34552C11.865 4.22369 11.7379 4.138 11.5861 4.138H11.4966L7.03442 7.03454H7.79445Z" fill="#FF4B55"/>
<path d="M4.19405 9.10352L0.0594482 11.7874C0.130745 11.9122 0.259745 12.0001 0.413776 12.0001H0.491822L4.95413 9.10352H4.19405Z" fill="#FF4B55"/>
<path d="M11.9934 11.6187L8.11843 9.10352H7.3584L11.7587 11.9598C11.8905 11.8987 11.981 11.7705 11.9934 11.6187Z" fill="#FF4B55"/>
<path d="M18.5378 17.2553C18.521 17.2553 18.5041 17.25 18.4897 17.2399L18 16.89L17.5102 17.2399C17.4958 17.25 17.4789 17.2553 17.4621 17.2553C17.4449 17.2553 17.428 17.25 17.4134 17.2395C17.3848 17.2185 17.3724 17.1813 17.3831 17.1474L17.5648 16.5736L17.0807 16.2164C17.052 16.1949 17.0401 16.1582 17.051 16.1243C17.0621 16.0903 17.0934 16.0673 17.1292 16.0669L17.7311 16.062L17.9215 15.491C17.9328 15.4575 17.9645 15.4344 18.0001 15.4344C18.0357 15.4344 18.0674 15.4575 18.0787 15.491L18.269 16.062L18.871 16.0669C18.9067 16.0673 18.938 16.0903 18.9492 16.1243C18.9601 16.1582 18.9481 16.1949 18.9195 16.2164L18.4354 16.5736L18.617 17.1474C18.6277 17.1813 18.6155 17.2185 18.5867 17.2395C18.572 17.25 18.5548 17.2553 18.5378 17.2553Z" fill="#FF4B55"/>
<path d="M17.9999 15.5173L18.209 16.1444L18.8701 16.1495L18.3383 16.5421L18.5377 17.1724L17.9999 16.788L17.4621 17.1725L17.6616 16.5422L17.1298 16.1496L17.7908 16.1444L17.9999 15.5173ZM17.9999 15.3517C17.9287 15.3517 17.8655 15.3973 17.8429 15.4649L17.6712 15.9798L17.1285 15.984C17.0573 15.9845 16.9944 16.0306 16.9723 16.0984C16.9503 16.1662 16.9742 16.2404 17.0314 16.2827L17.468 16.6051L17.3043 17.1225C17.2828 17.1905 17.3072 17.2645 17.3648 17.3064C17.3938 17.3274 17.428 17.338 17.4621 17.338C17.4958 17.338 17.5296 17.3277 17.5584 17.3071L18 16.9915L18.4415 17.3071C18.4704 17.3276 18.5041 17.338 18.5378 17.338C18.5719 17.338 18.6061 17.3274 18.6351 17.3064C18.6927 17.2645 18.7171 17.1905 18.6956 17.1225L18.5319 16.6051L18.9685 16.2827C19.0258 16.2404 19.0496 16.1662 19.0276 16.0984C19.0055 16.0306 18.9427 15.9845 18.8714 15.984L18.3287 15.9798L18.157 15.4649C18.1344 15.3974 18.0711 15.3517 17.9999 15.3517Z" fill="#F5F5F5"/>
<path d="M18.5378 10.5841C18.5209 10.5841 18.5041 10.5788 18.4897 10.5687L18 10.2184L17.5102 10.5687C17.4958 10.5788 17.4789 10.5841 17.4621 10.5841C17.4451 10.5841 17.428 10.5788 17.4134 10.5683C17.3848 10.5473 17.3724 10.5101 17.3831 10.4762L17.5648 9.90235L17.0807 9.54474C17.052 9.52332 17.0401 9.48615 17.051 9.45263C17.0621 9.4187 17.0936 9.39563 17.1292 9.39526L17.7311 9.39081L17.9215 8.81982C17.9328 8.78631 17.9645 8.76324 18.0001 8.76324C18.0357 8.76324 18.0674 8.78626 18.0787 8.81982L18.269 9.39081L18.871 9.39526C18.9065 9.39568 18.938 9.4187 18.9492 9.45263C18.9601 9.48615 18.9481 9.52332 18.9195 9.54474L18.4354 9.90235L18.617 10.4762C18.6277 10.5101 18.6155 10.5473 18.5867 10.5683C18.572 10.5788 18.5548 10.5841 18.5378 10.5841Z" fill="#FF4B55"/>
<path d="M17.9999 8.84594L18.209 9.47303L18.8701 9.47814L18.3383 9.87081L18.5377 10.5011L17.9999 10.1167L17.4621 10.5011L17.6616 9.87081L17.1298 9.47814L17.7908 9.47303L17.9999 8.84594ZM17.9999 8.68042C17.9287 8.68042 17.8655 8.72598 17.8429 8.79358L17.6712 9.30845L17.1285 9.31267C17.0573 9.31318 16.9944 9.35926 16.9723 9.42704C16.9503 9.49482 16.9742 9.56903 17.0314 9.61136L17.468 9.93376L17.3043 10.4512C17.2828 10.5191 17.3072 10.5932 17.3648 10.6351C17.3938 10.6561 17.428 10.6667 17.4621 10.6667C17.4958 10.6667 17.5296 10.6563 17.5584 10.6358L18 10.3202L18.4415 10.6358C18.4704 10.6563 18.5041 10.6667 18.5378 10.6667C18.5719 10.6667 18.6061 10.6561 18.6351 10.6351C18.6927 10.5932 18.7171 10.5191 18.6956 10.4512L18.5319 9.93376L18.9685 9.61136C19.0258 9.56903 19.0496 9.49482 19.0276 9.42704C19.0055 9.35926 18.9427 9.31318 18.8714 9.31267L18.3287 9.30845L18.157 8.79358C18.1344 8.72598 18.0711 8.68042 17.9999 8.68042Z" fill="#F5F5F5"/>
<path d="M21.4344 12.653C21.4174 12.653 21.4007 12.6477 21.3863 12.6376L20.8966 12.2873L20.4068 12.6376C20.3925 12.6477 20.3755 12.653 20.3587 12.653C20.3417 12.653 20.3246 12.6477 20.31 12.6372C20.2814 12.6162 20.269 12.579 20.2797 12.5451L20.4614 11.9713L19.9773 11.6137C19.9486 11.5922 19.9367 11.5551 19.9476 11.5215C19.9587 11.4876 19.9902 11.4645 20.0258 11.4642L20.6277 11.4597L20.8181 10.8887C20.8294 10.8552 20.8611 10.8322 20.8967 10.8322C20.9323 10.8322 20.964 10.8552 20.9753 10.8887L21.1657 11.4597L21.7676 11.4642C21.8032 11.4646 21.8347 11.4876 21.8458 11.5215C21.8567 11.5551 21.8447 11.5922 21.8161 11.6137L21.332 11.9713L21.5137 12.5451C21.5243 12.579 21.5121 12.6162 21.4833 12.6372C21.4686 12.6477 21.4514 12.653 21.4344 12.653Z" fill="#FF4B55"/>
<path d="M20.8965 10.9149L21.1057 11.542L21.7667 11.5471L21.2349 11.9398L21.4343 12.5701L20.8965 12.1856L20.3587 12.5701L20.5581 11.9398L20.0263 11.5472L20.6873 11.542L20.8965 10.9149ZM20.8965 10.7494C20.8253 10.7494 20.7621 10.795 20.7395 10.8625L20.5678 11.3774L20.0251 11.3816C19.9539 11.3822 19.891 11.4282 19.869 11.496C19.8469 11.5638 19.8708 11.638 19.928 11.6803L20.3646 12.0027L20.2009 12.5202C20.1795 12.5881 20.2038 12.6622 20.2614 12.704C20.2905 12.7251 20.3246 12.7356 20.3588 12.7356C20.3925 12.7356 20.4262 12.7253 20.455 12.7047L20.8965 12.3891L21.3381 12.7047C21.3669 12.7253 21.4006 12.7356 21.4344 12.7356C21.4685 12.7356 21.5027 12.7251 21.5317 12.704C21.5893 12.6621 21.6137 12.5881 21.5922 12.5202L21.4285 12.0027L21.8651 11.6803C21.9225 11.638 21.9462 11.5638 21.9242 11.496C21.9022 11.4282 21.8393 11.3822 21.768 11.3816L21.2253 11.3774L21.0536 10.8625C21.031 10.795 20.9678 10.7494 20.8965 10.7494Z" fill="#F5F5F5"/>
<path d="M15.6413 13.4806C15.6243 13.4806 15.6076 13.4753 15.5932 13.4653L15.1035 13.1149L14.6137 13.4653C14.5994 13.4753 14.5824 13.4806 14.5656 13.4806C14.5486 13.4806 14.5315 13.4753 14.517 13.4648C14.4883 13.4438 14.4759 13.4067 14.4866 13.3727L14.6683 12.7989L14.1842 12.4413C14.1555 12.4199 14.1436 12.3827 14.1545 12.3492C14.1656 12.3152 14.1971 12.2922 14.2327 12.2918L14.8346 12.2874L15.025 11.7164C15.0363 11.6829 15.068 11.6598 15.1036 11.6598C15.1392 11.6598 15.1709 11.6828 15.1822 11.7164L15.3726 12.2874L15.9745 12.2918C16.0101 12.2922 16.0416 12.3152 16.0527 12.3492C16.0636 12.3827 16.0516 12.4199 16.023 12.4413L15.5389 12.7989L15.7206 13.3727C15.7313 13.4067 15.719 13.4438 15.6902 13.4648C15.6755 13.4754 15.6583 13.4806 15.6413 13.4806Z" fill="#FF4B55"/>
<path d="M15.1035 11.7425L15.3126 12.3696L15.9736 12.3747L15.4418 12.7674L15.6412 13.3976L15.1034 13.0132L14.5656 13.3976L14.765 12.7674L14.2332 12.3747L14.8943 12.3696L15.1035 11.7425ZM15.1035 11.577C15.0323 11.577 14.969 11.6225 14.9464 11.6901L14.7747 12.205L14.232 12.2092C14.1608 12.2097 14.0979 12.2558 14.0759 12.3236C14.0538 12.3914 14.0777 12.4656 14.1349 12.5079L14.5715 12.8303L14.4078 13.3478C14.3864 13.4157 14.4107 13.4897 14.4683 13.5316C14.4974 13.5526 14.5315 13.5632 14.5657 13.5632C14.5994 13.5632 14.6331 13.5529 14.6619 13.5323L15.1035 13.2167L15.545 13.5323C15.5738 13.5528 15.6075 13.5632 15.6413 13.5632C15.6754 13.5632 15.7095 13.5526 15.7386 13.5316C15.7962 13.4897 15.8205 13.4157 15.7991 13.3478L15.6354 12.8303L16.072 12.5079C16.1293 12.4656 16.1531 12.3914 16.131 12.3236C16.109 12.2558 16.0462 12.2097 15.9749 12.2092L15.4322 12.205L15.2605 11.6901C15.2379 11.6225 15.1747 11.577 15.1035 11.577Z" fill="#F5F5F5"/>
</svg>
