<svg width="24" height="24" viewBox="0 0 24 24" fill="none" xmlns="http://www.w3.org/2000/svg">
<path d="M23.5861 19.8621H0.413812C0.185297 19.8621 0 19.6768 0 19.4483V4.55175C0 4.32324 0.185297 4.13794 0.413812 4.13794H23.5862C23.8147 4.13794 24 4.32324 24 4.55175V19.4483C24 19.6768 23.8147 19.8621 23.5861 19.8621Z" fill="#F5F5F5"/>
<path d="M14.2972 8.55619C12.3959 7.28865 9.82772 7.80685 8.56098 9.70491C7.92559 10.6523 8.18387 11.9396 9.13449 12.5734C10.0844 13.2072 11.3676 12.9498 12.0014 11.9991C12.6352 11.0484 13.9192 10.7942 14.8691 11.4247C15.8206 12.0585 16.0765 13.3458 15.4418 14.2932C16.7094 12.392 16.197 9.82378 14.2972 8.55619Z" fill="#FF4B55"/>
<path d="M8.56091 9.70496C7.92553 10.6523 8.18381 11.9397 9.13443 12.5735C10.0843 13.2073 11.3675 12.9499 12.0013 11.9992C12.6351 11.0485 13.9192 10.7943 14.8691 11.4248C15.8205 12.0585 16.0764 13.3459 15.4417 14.2933C14.1758 16.1979 11.6085 16.7096 9.70715 15.442C7.80749 14.1745 7.29337 11.6063 8.56091 9.70496Z" fill="#41479B"/>
<path d="M16.4025 6.99332L17.1541 8.1231C17.2173 8.21802 17.1917 8.34617 17.097 8.4096L16.9064 8.53724C16.8113 8.60089 16.6826 8.5753 16.6191 8.48005L15.8665 7.35055C15.8032 7.25554 15.8289 7.12714 15.9239 7.06372L16.1154 6.93585C16.2105 6.87233 16.3391 6.89807 16.4025 6.99332Z" fill="#464655"/>
<path d="M17.5622 8.73526L18.3162 9.86433C18.3799 9.95968 18.3539 10.0887 18.2583 10.1519L18.0668 10.2784C17.9718 10.3412 17.844 10.3154 17.7807 10.2207L17.0271 9.09282C16.9636 8.99785 16.9891 8.86937 17.0841 8.80585L17.2751 8.67816C17.3701 8.61465 17.4986 8.6402 17.5622 8.73526Z" fill="#464655"/>
<path d="M17.2073 6.45625L19.1212 9.32842C19.1845 9.42348 19.1588 9.55192 19.0637 9.61529L18.8715 9.74345C18.7764 9.80687 18.6479 9.78113 18.5845 9.68607L16.67 6.81409C16.6066 6.71898 16.6324 6.59045 16.7275 6.52713L16.9204 6.39873C17.0155 6.3355 17.1439 6.36119 17.2073 6.45625Z" fill="#464655"/>
<path d="M18.0098 5.91998L18.7631 7.05196C18.8266 7.1473 18.8005 7.27602 18.7049 7.33916L18.5134 7.46572C18.4183 7.52854 18.2904 7.50271 18.2272 7.40788L17.4734 6.2774C17.41 6.18233 17.4357 6.05385 17.5308 5.99048L17.7229 5.86241C17.8179 5.79899 17.9464 5.82473 18.0098 5.91998Z" fill="#464655"/>
<path d="M19.1703 7.66558L19.9224 8.79521C19.9857 8.89018 19.9601 9.01843 19.8652 9.08185L19.6742 9.20954C19.5791 9.27315 19.4504 9.24746 19.387 9.15221L18.6349 8.02257C18.5717 7.92761 18.5973 7.79936 18.6921 7.73593L18.8831 7.60825C18.9782 7.54464 19.1069 7.57028 19.1703 7.66558Z" fill="#464655"/>
<path d="M6.22123 13.7804L8.13485 16.6495C8.19822 16.7445 8.17263 16.8729 8.07757 16.9364L7.88594 17.0643C7.79088 17.1278 7.6624 17.1022 7.59893 17.007L5.68531 14.138C5.62193 14.043 5.64753 13.9145 5.74259 13.8511L5.93421 13.7231C6.02928 13.6597 6.15781 13.6853 6.22123 13.7804Z" fill="#464655"/>
<path d="M5.41784 14.3171L6.16915 15.444C6.23248 15.539 6.20693 15.6672 6.11211 15.7307L5.92151 15.8583C5.8265 15.9219 5.69787 15.8964 5.63436 15.8013L4.88216 14.6746C4.81869 14.5796 4.84428 14.4511 4.93934 14.3877L5.13087 14.2598C5.22589 14.1964 5.35442 14.222 5.41784 14.3171Z" fill="#464655"/>
<path d="M6.57898 16.0596L7.33113 17.1894C7.39441 17.2844 7.36877 17.4127 7.27385 17.476L7.0827 17.6038C6.98759 17.6674 6.85901 17.6417 6.79554 17.5466L6.04292 16.417C5.97959 16.322 6.00528 16.1936 6.1002 16.1302L6.29182 16.0022C6.38698 15.9387 6.51556 15.9644 6.57898 16.0596Z" fill="#464655"/>
<path d="M4.61448 14.8536L6.52689 17.7228C6.59021 17.8178 6.56457 17.9461 6.46974 18.0096L6.27864 18.1374C6.18357 18.201 6.055 18.1754 5.99153 18.0802L4.078 15.2114C4.01458 15.1163 4.04031 14.9878 4.13537 14.9244L4.32765 14.7962C4.42262 14.7329 4.55111 14.7586 4.61448 14.8536Z" fill="#464655"/>
<path d="M5.6856 9.8645L7.59894 6.99309C7.66237 6.89793 7.7909 6.87224 7.88601 6.93571L8.07758 7.06363C8.1726 7.12705 8.19819 7.25549 8.13486 7.35051L6.22077 10.2203C6.15749 10.3152 6.02948 10.3409 5.93446 10.278L5.74364 10.1517C5.6481 10.0885 5.62214 9.95975 5.6856 9.8645Z" fill="#464655"/>
<path d="M4.88192 9.3286L6.79559 6.45662C6.85901 6.36147 6.98763 6.33578 7.08274 6.39934L7.27385 6.52712C7.36873 6.59055 7.39432 6.7188 7.33104 6.81381L5.41789 9.68593C5.35446 9.78109 5.22593 9.80682 5.13082 9.7433L4.9392 9.61538C4.84423 9.55201 4.81859 9.42362 4.88192 9.3286Z" fill="#464655"/>
<path d="M4.07763 8.79498L5.99149 5.92014C6.05491 5.82494 6.18358 5.7992 6.27869 5.86277L6.4698 5.99055C6.56467 6.05397 6.59027 6.18212 6.52708 6.27714L4.6144 9.1524C4.55107 9.2476 4.42249 9.27338 4.32738 9.20996L4.1351 9.08181C4.04008 9.01843 4.0144 8.89004 4.07763 8.79498Z" fill="#464655"/>
<path d="M15.8668 16.6495L16.619 15.5229C16.6825 15.4278 16.8111 15.4022 16.9061 15.4658L17.0967 15.5935C17.1916 15.6569 17.2171 15.7852 17.1538 15.8802L16.4025 17.007C16.339 17.1021 16.2105 17.1278 16.1154 17.0644L15.9239 16.9365C15.8289 16.873 15.8033 16.7446 15.8668 16.6495Z" fill="#464655"/>
<path d="M17.027 14.9129L17.7804 13.7806C17.8438 13.6855 17.9723 13.6597 18.0674 13.7231L18.2594 13.8511C18.3545 13.9145 18.3802 14.0431 18.3167 14.1382L17.5617 15.2686C17.4984 15.3634 17.3704 15.3891 17.2754 15.3261L17.085 15.1999C16.9896 15.1367 16.9636 15.0081 17.027 14.9129Z" fill="#464655"/>
<path d="M16.6699 17.189L17.4225 16.0594C17.4859 15.9643 17.6144 15.9385 17.7095 16.0019L17.9019 16.1302C17.9969 16.1936 18.0226 16.322 17.9593 16.4171L17.2071 17.5468C17.1438 17.6419 17.0154 17.6676 16.9202 17.6043L16.7273 17.4759C16.6323 17.4126 16.6065 17.2841 16.6699 17.189Z" fill="#464655"/>
<path d="M17.8313 15.4436L18.5844 14.3166C18.6479 14.2217 18.7762 14.1961 18.8712 14.2594L19.0635 14.3876C19.1586 14.451 19.1843 14.5796 19.1207 14.6747L18.3677 15.8016C18.3043 15.8965 18.1759 15.9221 18.0809 15.8588L17.8886 15.7307C17.7934 15.6673 17.7677 15.5387 17.8313 15.4436Z" fill="#464655"/>
<path d="M17.4736 17.7226L18.2272 16.5949C18.2904 16.5003 18.4183 16.4745 18.5132 16.5373L18.7048 16.6639C18.8003 16.727 18.8264 16.8559 18.7628 16.9512L18.0099 18.0804C17.9465 18.1754 17.818 18.2011 17.723 18.1377L17.5308 18.0097C17.4357 17.9462 17.4101 17.8176 17.4736 17.7226Z" fill="#464655"/>
<path d="M18.6353 15.9829L19.3869 14.854C19.4504 14.7588 19.579 14.733 19.6741 14.7966L19.865 14.9242C19.9599 14.9877 19.9855 15.1161 19.9221 15.2111L19.1698 16.3385C19.1066 16.4334 18.9784 16.4592 18.8834 16.3962L18.6931 16.2701C18.5978 16.2069 18.5719 16.0782 18.6353 15.9829Z" fill="#464655"/>
</svg>
