<svg width="24" height="24" viewBox="0 0 24 24" fill="none" xmlns="http://www.w3.org/2000/svg">
<path d="M24 12H0V4.55175C0 4.32324 0.185297 4.13794 0.413812 4.13794H23.5862C23.8147 4.13794 24 4.32324 24 4.55175L24 12Z" fill="#F5F5F5"/>
<path d="M0 12H24V19.4483C24 19.6768 23.8147 19.8621 23.5861 19.8621H0.413812C0.185297 19.8621 0 19.6768 0 19.4483V12Z" fill="#73AF00"/>
<path d="M18.2574 8.73918C18.2574 8.73918 18.5435 9.52372 18.568 9.5646L18.6006 9.49921L18.7968 8.47766L19.3034 7.52966L19.1563 7.54602L18.004 8.10172C18.004 8.10172 17.3175 8.8536 17.3094 8.87811C17.3012 8.90263 18.2574 8.73918 18.2574 8.73918Z" fill="#FF4B55"/>
<path d="M18.6633 16.2415C18.6252 16.2361 18.0586 16.2633 18.0586 16.2633L17.8734 15.6423L17.7671 14.4682L17.9673 14.4151L18.2166 14.5336L18.3065 14.0636C18.3065 14.0636 18.09 13.8266 18.0491 13.8103C18.0082 13.7939 17.5179 13.6836 17.5179 13.6836L16.86 12.8133L17.6446 12.3761L18.2575 11.5343L18.4046 10.7743L18.282 10.145L18.0033 9.67831C17.9991 9.665 17.9959 9.65469 17.9959 9.65469C17.994 9.6522 17.9871 9.64751 17.9827 9.64386L17.9306 9.55658L17.9298 9.60748C17.8089 9.53197 17.5614 9.40062 17.4974 9.36861C17.4157 9.32773 16.9826 9.25419 16.8926 9.31958C16.8027 9.38497 16.386 9.58109 16.3124 9.72003C16.2389 9.85897 16.1898 10.3575 16.1898 10.3575C16.1898 10.3575 16.3124 10.6354 16.4677 10.7007C16.623 10.7661 16.9254 10.8396 16.9744 10.8233C17.0167 10.8092 17.4964 10.6674 17.6273 10.6078L17.6854 10.7252L17.6609 11.0603L17.3912 11.2482L16.8927 11.4444C16.8927 11.4444 16.1327 11.2319 16.1 11.24C16.0673 11.2482 15.1275 10.9622 15.1275 10.9622L14.2449 10.7578L14.5391 10.6107L15.34 10.5536C15.34 10.5536 15.4953 9.64644 15.5198 9.63008C15.5443 9.61372 16.0673 9.19695 16.0673 9.19695L16.5004 9.09073L16.2389 7.98196L16.6312 6.77244L15.6069 7.06663L13.9834 7.4698L12.9482 7.40441L12.0329 7.6986L11.4445 8.23255L11.1066 8.69019L10.9868 9.42026L10.9105 10.3901L10.6272 10.9241L10.3062 11.1757C10.2702 11.0807 10.1015 10.7171 10.1015 10.7171L10.5101 10.619L10.4038 10.3493L10.1178 10.1368L10.2077 9.80994L10.5346 9.98975L10.6245 10.0551L10.6817 9.72008L10.3221 9.21341L10.3793 8.96005L10.8125 9.18889L10.7634 8.60047L10.3793 8.36347L10.4038 8.03656L10.8234 8.16186L10.7798 7.85131L10.3221 7.51892L10.7689 6.79977L10.224 6.82705L10.1804 6.59272L10.0388 6.53821C10.0388 6.53821 9.28147 6.85968 9.227 6.84875C9.17253 6.83788 8.5678 6.75618 8.49693 6.77254C8.4261 6.78889 8.17546 6.85424 8.17546 6.85424L8.10458 7.13211L7.64151 7.05589L6.95502 6.99871L6.74798 7.25207L7.07488 7.38285C7.07488 7.38285 6.99866 7.96035 7.02041 8.00394C7.04221 8.04749 7.23833 8.33084 7.23833 8.33084L6.79162 8.94102L7.24926 9.00641L7.88127 8.90834L7.85943 9.06092L8.69849 8.97373L8.51319 9.0718L8.27352 9.79095L7.57612 11.2075L7.33096 12.4661L6.93866 12.0574L6.67715 10.9787L6.28485 9.91625C6.28485 9.91625 6.20315 9.58934 6.15407 9.58119C6.10504 9.57303 5.89256 9.53216 5.89256 9.53216L5.62288 9.7528L5.27967 9.70376L5.08354 9.97344L5.30418 10.3167C5.30418 10.3167 4.9364 10.4637 4.9364 10.5046C4.9364 10.5455 4.96092 10.7825 4.98543 10.7907C5.00995 10.7988 5.56565 10.7825 5.56565 10.7825L5.90071 11.3791L5.6392 12.0656L5.76998 12.3271L5.99882 12.3597L6.21131 12.1146L6.94682 14.313C6.94682 14.313 6.88963 14.599 6.84876 14.6235C6.80788 14.648 6.61176 14.8687 6.66079 14.8687C6.70982 14.8687 7.01221 14.9096 7.04488 14.8932C7.07755 14.8768 7.50252 14.55 7.50252 14.55C7.50252 14.55 8.17264 14.0351 8.21352 14.076C8.25439 14.1168 8.89185 14.5091 8.89185 14.5091L8.59766 15.5225L7.90302 16.5359L7.4699 16.2744L7.15935 15.833L6.93051 15.9066L6.8488 16.0455L6.88148 16.3397C6.88148 16.3397 6.64448 16.5277 6.64448 16.5685C6.64448 16.6094 6.66899 16.9036 6.66899 16.9036C6.66899 16.9036 6.82429 16.9772 6.83244 17.018C6.8406 17.0589 6.92235 17.3531 6.92235 17.3531L7.0858 17.4103L7.39635 17.2223H7.91122L8.22993 17.2713L8.90825 17.0589L9.89713 17.1079L9.80722 16.9199C9.80722 16.9199 9.40677 16.7156 9.26783 16.6748C9.12889 16.6339 8.98996 16.6012 8.98996 16.6012L8.93277 16.3152L9.90528 15.1629L10.2649 15.0893L10.3874 15.3917C10.3874 15.3917 10.7906 15.2936 10.7906 15.2609C10.7906 15.2283 10.7906 14.8795 10.7906 14.8468C10.7906 14.8142 10.7034 14.5418 10.7034 14.5418C10.7034 14.5418 10.7022 14.5317 10.7005 14.5168L11.0085 14.4655L12.0764 13.9533L12.4523 14.4056L12.9209 14.6289L12.3379 15.675L11.8367 16.0128L11.4771 15.8493L10.9758 15.4788L10.7797 15.5988L10.8233 15.9693L10.5291 15.9475L10.3983 16.209L10.6162 16.525L10.5399 16.7756C10.5399 16.7756 10.5944 17.0044 10.6489 17.0044C10.7034 17.0044 11.0303 16.8845 11.0303 16.8845L11.9892 16.8083L12.6866 16.5795L13.4167 16.634C13.4167 16.634 13.5583 16.1436 13.5257 16.1436C13.493 16.1436 13.4821 16.1327 13.3949 16.1327C13.3077 16.1327 13.0026 16.1436 13.0026 16.1436L12.9916 16.0345L13.2313 15.5986L14.1575 14.8249L14.43 14.8795L14.528 15.0211L14.8005 14.8141L14.7896 14.4654L14.5499 14.2148L14.3101 13.9314L14.3864 13.5064L14.8005 13.7026C14.8005 13.7026 15.4543 14.1602 15.5087 14.1821C15.5632 14.2038 16.8272 14.5307 16.8272 14.5307L17.0887 15.1518L16.9579 16.1325L16.5548 16.0126L16.1734 15.5223C16.1734 15.5223 16.0644 15.4677 16.0099 15.4787C15.9555 15.4896 15.8247 15.7075 15.8247 15.7075L15.9555 16.0126L15.7811 16.0671L15.6177 16.1761L15.585 16.4049L15.7376 16.5465C15.7376 16.5465 15.7376 16.808 15.7376 16.8407C15.7376 16.8734 15.8247 16.9933 15.8575 17.0042C15.8901 17.015 16.1408 17.0477 16.2007 17.0423C16.2606 17.0368 16.7073 16.8516 16.7073 16.8516C16.7073 16.8516 17.5464 16.868 17.5682 16.8625C17.59 16.8571 18.3146 16.6991 18.3146 16.6991L18.7232 16.7645C18.7232 16.7645 18.9957 16.5574 18.9848 16.5302C18.9739 16.5031 18.7015 16.247 18.6633 16.2415ZM17.0969 10.341C16.8763 10.3655 16.7619 10.4309 16.7455 10.3084C16.7291 10.1858 16.7291 9.94058 16.7537 9.93242C16.7782 9.92426 17.0315 9.77712 17.0397 9.80164C17.0478 9.82615 17.3012 9.94873 17.3012 9.94873L17.4555 10.2606C17.3741 10.3039 17.2485 10.3242 17.0969 10.341Z" fill="#FF4B55"/>
<path d="M5.95784 8.33877C5.95784 8.33877 6.04775 7.87292 6.07227 7.87292C6.09678 7.87292 6.43184 7.75034 6.43184 7.75034L5.43481 7.10474C5.43481 7.10474 5.60642 7.89744 5.62278 7.96283C5.6391 8.02817 5.95784 8.33877 5.95784 8.33877Z" fill="#FF4B55"/>
<path d="M8.49388 7.38008C8.49735 7.38088 8.51722 7.38528 8.5476 7.39128L8.5401 7.42395C8.52782 7.47655 8.56077 7.52942 8.61364 7.54142C8.62105 7.54325 8.62846 7.54395 8.63572 7.54395C8.6803 7.54395 8.72075 7.5133 8.73111 7.46787L8.74161 7.42222C8.81225 7.43094 8.89002 7.43773 8.96516 7.43773C9.02863 7.43773 9.08994 7.43314 9.14267 7.42086C9.19541 7.40858 9.22836 7.35598 9.21613 7.30339C9.20385 7.25052 9.15163 7.21681 9.09852 7.22984C8.94336 7.26636 8.64088 7.21245 8.53766 7.18897C8.48596 7.17669 8.43247 7.20964 8.42019 7.26252C8.40819 7.31544 8.44114 7.36808 8.49388 7.38008Z" fill="#464655"/>
<path d="M18.2031 8.96331L18.4502 9.7179C18.4635 9.75826 18.5011 9.78535 18.5434 9.78535C18.5448 9.78535 18.5462 9.78535 18.5477 9.78535C18.5917 9.78329 18.6289 9.7524 18.6389 9.70951C18.8198 8.93467 19.1816 7.70903 19.4374 7.50883C19.473 7.48098 19.4849 7.43275 19.4663 7.39136C19.448 7.35048 19.4042 7.327 19.3592 7.3352C19.3069 7.3449 18.0663 7.58654 17.2032 8.88109C17.1811 8.91428 17.1812 8.95745 17.2035 8.9904C17.2259 9.02335 17.2657 9.03868 17.3048 9.03151L18.0235 8.88292C17.9229 9.12554 17.8587 9.33901 17.8365 9.41743C17.5092 9.21826 17.1401 9.18282 16.8841 9.2491C16.5919 9.3257 16.3464 9.51193 16.2102 9.76013C16.1059 9.95035 16.0783 10.1593 16.1345 10.3332C16.1998 10.5353 16.374 10.7866 16.6673 10.8854C16.8616 10.9514 17.1757 10.966 17.5897 10.7098C17.5897 10.7117 17.59 10.7136 17.5899 10.7155C17.5871 10.8789 17.5033 11.0122 17.3403 11.1121C17.0165 11.3105 16.4487 11.3238 16.0749 11.141C15.582 10.9004 14.841 10.7634 14.427 10.7013C14.6837 10.6194 14.994 10.5964 15.3669 10.6818C15.372 10.6831 15.3769 10.6811 15.382 10.6815C15.3845 10.6817 15.3864 10.6844 15.3889 10.6844C15.3917 10.6844 15.3938 10.6815 15.3965 10.6813C15.419 10.6795 15.4409 10.6726 15.4574 10.6566C15.4577 10.6563 15.4577 10.656 15.4579 10.6557C15.458 10.6556 15.4582 10.6557 15.4582 10.6557C15.4587 10.6552 15.4585 10.6546 15.4589 10.6542C15.4747 10.6377 15.4817 10.6166 15.4837 10.5945C15.4841 10.5892 15.4847 10.5851 15.4844 10.5798C15.484 10.5754 15.4859 10.5712 15.485 10.5668C15.4839 10.5611 15.3752 10.0044 15.6744 9.62077C15.8542 9.39015 16.1483 9.26424 16.5484 9.24615C16.5548 9.24582 16.56 9.24226 16.566 9.24076C16.5746 9.2387 16.5833 9.23743 16.5911 9.23312C16.5982 9.22914 16.6032 9.22295 16.6092 9.21728C16.6142 9.21263 16.6203 9.20982 16.6243 9.20396C16.6252 9.20279 16.6253 9.20129 16.626 9.19998C16.6267 9.1989 16.628 9.19843 16.6286 9.19731C16.6304 9.19426 16.63 9.1907 16.6314 9.18751C16.6359 9.17771 16.6389 9.16787 16.64 9.15751C16.6405 9.15254 16.6405 9.14799 16.6402 9.14303C16.6396 9.13196 16.6371 9.12156 16.6329 9.11134C16.6318 9.10876 16.6323 9.10585 16.631 9.10337C16.6231 9.08781 15.8536 7.54904 17.1073 6.52159C17.1481 6.48812 17.155 6.42841 17.1233 6.3865C17.0914 6.34487 17.0323 6.33517 16.9888 6.36555C15.7509 7.23461 14.0401 7.32836 13.362 7.32836C12.1526 7.32836 11.3885 7.78375 11.0259 8.72026C10.9882 8.81762 10.9615 8.93298 10.9391 9.05654C10.9512 8.88324 10.9196 8.73137 10.8414 8.60434C10.7298 8.42321 10.559 8.34737 10.4823 8.32103C10.4823 8.27659 10.482 8.23257 10.4807 8.1894C10.6132 8.16901 10.7704 8.27186 10.8222 8.3155C10.8404 8.33082 10.863 8.33898 10.8858 8.33898C10.9008 8.33898 10.9161 8.33542 10.93 8.32829C10.9652 8.31039 10.9864 8.27336 10.9836 8.23407C10.9515 7.77803 10.6421 7.5564 10.4299 7.4814C10.617 7.33272 10.8165 7.08939 10.9387 6.69255C10.9504 6.6542 10.9378 6.61262 10.9066 6.58759C10.8755 6.56228 10.832 6.55848 10.7973 6.57789C10.794 6.57976 10.5943 6.68786 10.2942 6.77697L10.3217 6.42058C10.3243 6.38458 10.3071 6.3498 10.2765 6.33044C10.246 6.3108 10.2069 6.31 10.1756 6.32791C10.1705 6.33072 9.66841 6.61253 9.1563 6.76131C8.76977 6.66414 8.26671 6.58848 8.07598 6.78714C8.02999 6.83486 7.9872 6.91253 7.99784 7.03281C7.66878 6.96414 6.91334 6.85173 6.45476 7.14826C6.41862 7.17147 6.40198 7.21567 6.41365 7.25706C6.42537 7.29845 6.46268 7.32756 6.50572 7.32859C6.65126 7.33215 6.87626 7.36562 6.97015 7.42769C6.92876 7.53929 6.86033 7.77578 6.92009 8.00382C6.72106 8.06148 6.51223 8.07039 6.25826 7.933L6.47965 7.87867C6.51936 7.86897 6.54884 7.83554 6.55372 7.79486C6.5584 7.75426 6.5375 7.71493 6.50122 7.69628C6.49559 7.69323 5.93731 7.40284 5.47302 6.91478C5.44667 6.88745 5.40673 6.87747 5.37008 6.88975C5.3338 6.90226 5.30816 6.9347 5.30445 6.97276C5.30047 7.01209 5.21727 7.93989 5.92184 8.49006C5.93947 8.5036 5.9608 8.51073 5.98226 8.51073C5.99567 8.51073 6.00908 8.50792 6.02183 8.50229C6.05478 8.48776 6.07723 8.45631 6.08005 8.42031L6.10737 8.06982C6.45889 8.28029 6.74993 8.26018 6.99959 8.18429C7.0309 8.23201 7.0707 8.27748 7.1209 8.31915C7.12897 8.32586 7.14003 8.33312 7.15123 8.34048C6.99078 8.71609 6.67217 8.81293 6.65853 8.81668C6.61883 8.82817 6.59037 8.86318 6.58751 8.90429C6.58456 8.9454 6.60758 8.98393 6.64522 9.00081C6.66894 9.01126 7.18217 9.23321 7.75742 9.02837L7.74837 9.09399C7.74453 9.12156 7.75273 9.14964 7.77096 9.17087C7.7891 9.19234 7.81554 9.20485 7.84348 9.20537C7.84592 9.20537 7.85243 9.20565 7.8626 9.20565C7.92865 9.20565 8.14774 9.20063 8.39613 9.14359C8.35859 9.49449 8.14479 9.91266 7.91735 10.3539C7.60948 10.9516 7.26636 11.6257 7.27184 12.3064C7.15437 12.1544 7.00812 11.9173 6.93579 11.6025C6.91076 11.4932 6.89417 11.3951 6.87912 11.3055C6.84247 11.0887 6.81078 10.9012 6.68262 10.725C6.53768 10.5258 6.33275 10.0811 6.34165 9.83832C6.35009 9.61384 6.203 9.48179 6.05356 9.45038C6.04278 9.44818 6.03261 9.45095 6.02192 9.44968C5.98653 9.37838 5.89072 9.24184 5.6705 9.22614C5.61748 9.21901 5.56948 9.26293 5.56564 9.31707C5.5618 9.37098 5.60244 9.41795 5.65644 9.42174C5.73326 9.42718 5.78089 9.45653 5.81014 9.48578C5.73819 9.52276 5.67997 9.58445 5.63942 9.66343C5.50812 9.58777 5.37547 9.56884 5.27398 9.59204C5.24769 9.59799 5.22786 9.6122 5.20512 9.62293C5.1387 9.58829 4.9618 9.52234 4.74861 9.6579C4.70291 9.68677 4.68931 9.74752 4.71847 9.79327C4.73708 9.82267 4.76891 9.83874 4.80134 9.83874C4.81925 9.83874 4.83748 9.83387 4.85384 9.82341C4.92997 9.77509 4.99498 9.76876 5.0427 9.77485C5.00773 9.83963 4.98791 9.91098 4.99128 9.97745C4.99808 10.1095 5.07439 10.2119 5.19237 10.2553C5.05166 10.2821 4.93241 10.3475 4.8687 10.4359C4.85839 10.4502 4.85628 10.4665 4.84888 10.4817C4.75925 10.491 4.62139 10.5512 4.53425 10.7355C4.51105 10.7843 4.53195 10.8428 4.58084 10.866C4.59449 10.8724 4.60869 10.8755 4.62275 10.8755C4.65955 10.8755 4.69475 10.8548 4.71153 10.8193C4.75039 10.7373 4.79605 10.7048 4.83017 10.6899C4.92331 10.9972 5.22617 10.9272 5.40884 10.8844L5.48201 10.8678C5.58444 10.8474 5.765 11.1465 5.81351 11.3405C5.84722 11.4754 5.78951 11.6404 5.60764 11.9289C5.4972 12.1046 5.52898 12.2318 5.5752 12.3076C5.57614 12.3092 5.57764 12.31 5.57858 12.3115C5.54923 12.3203 5.51309 12.3266 5.46425 12.3202C5.41147 12.3095 5.36108 12.3503 5.35381 12.404C5.3465 12.4576 5.38409 12.5071 5.43772 12.5143C5.46275 12.5179 5.48637 12.5194 5.50873 12.5194C5.62278 12.5194 5.69876 12.4805 5.74442 12.4486C5.80822 12.4759 5.87384 12.4861 5.92236 12.4824C6.05755 12.4712 6.14919 12.3527 6.21106 12.2056C6.39148 13.2003 6.80609 14.124 6.87814 14.2799C6.86361 14.6323 6.48317 14.715 6.46672 14.7187C6.42443 14.7273 6.39279 14.7626 6.38881 14.8057C6.38483 14.8486 6.40925 14.889 6.44909 14.9054C6.61461 14.973 6.7594 15.0001 6.88517 15.0001C7.27311 15.0001 7.47818 14.7443 7.54278 14.6457C7.82928 14.5459 8.16513 14.3123 8.29624 14.2167C8.51487 14.3805 8.6966 14.4713 8.75731 14.4997C8.6517 15.5396 8.04199 16.242 7.86364 16.4262C7.74284 16.357 7.47607 16.1862 7.388 15.9826C7.30465 15.7902 7.15011 15.736 7.02406 15.7473C6.98173 15.6926 6.88672 15.5906 6.7535 15.576C6.68801 15.5691 6.58864 15.5811 6.48762 15.6822C6.44928 15.7205 6.44928 15.7825 6.48762 15.8208C6.52578 15.8592 6.58784 15.8594 6.62628 15.8211C6.68168 15.7657 6.71937 15.769 6.73165 15.7708C6.76943 15.7748 6.80595 15.8021 6.83478 15.8302C6.76329 15.8912 6.719 15.9764 6.72617 16.0695C6.73123 16.1349 6.75575 16.1964 6.79029 16.2536C6.71886 16.2908 6.63279 16.3518 6.57612 16.4482C6.57411 16.4517 6.57176 16.4572 6.56965 16.461C6.45256 16.4685 6.24181 16.5511 6.209 16.8239C6.20262 16.8779 6.24092 16.9266 6.29469 16.933C6.29876 16.9335 6.30261 16.9338 6.30659 16.9338C6.35553 16.9338 6.3979 16.8973 6.4039 16.8474C6.41562 16.7497 6.46292 16.7027 6.50731 16.6792C6.50619 16.7195 6.50951 16.7613 6.52395 16.8051C6.55784 16.908 6.63781 16.9915 6.75725 17.0564C6.74464 17.0966 6.73639 17.1395 6.73531 17.1858C6.67226 17.2177 6.57926 17.2769 6.53164 17.3779C6.49601 17.4533 6.49381 17.5375 6.52512 17.6218C6.53979 17.6614 6.5772 17.6857 6.61709 17.6857C6.62848 17.6857 6.64006 17.6836 6.65131 17.6796C6.70217 17.6607 6.7279 17.6042 6.70901 17.5534C6.6919 17.5077 6.70072 17.4794 6.70892 17.462C6.7234 17.4311 6.75223 17.4051 6.78162 17.3849C6.818 17.4502 6.87293 17.5 6.94643 17.5243C6.98 17.5352 7.01487 17.5406 7.04989 17.5406C7.16656 17.5406 7.28487 17.4816 7.36071 17.379C7.45151 17.2559 7.62912 17.3264 7.64065 17.3313C8.01199 17.4661 8.5137 17.3645 8.81735 17.1939C8.98577 17.0991 9.57921 17.1502 9.91385 17.2051C9.94001 17.2087 9.96785 17.2023 9.98946 17.1862C10.0109 17.1696 10.0246 17.1451 10.0273 17.118C10.0611 16.7794 9.62299 16.6895 9.27096 16.6172C9.17505 16.5976 9.08379 16.5789 8.99768 16.5421C8.96332 16.3435 9.4796 15.6202 9.97151 15.2586C10.0921 15.17 10.1891 15.1344 10.2377 15.1605C10.3072 15.1986 10.3293 15.3758 10.3222 15.4836C10.322 15.4864 10.3237 15.4889 10.3237 15.4917C10.3238 15.5024 10.3258 15.5127 10.3296 15.523C10.3312 15.5274 10.3324 15.5315 10.3346 15.5356C10.3359 15.5382 10.3361 15.5411 10.3376 15.5436C10.3433 15.5522 10.3509 15.5585 10.3585 15.5647C10.36 15.5659 10.3605 15.5679 10.3621 15.5691C10.3624 15.5694 10.3629 15.5693 10.3629 15.5693C10.3756 15.5783 10.3896 15.5837 10.4043 15.5861C10.4081 15.5867 10.4117 15.5862 10.4155 15.5863C10.4265 15.5869 10.4371 15.5857 10.4478 15.5825C10.4504 15.5818 10.4531 15.5825 10.4555 15.5816C10.4635 15.5785 10.4721 15.5741 10.4802 15.5707C10.5326 15.5439 10.6212 15.5738 10.6832 15.6056C10.6717 15.6414 10.6647 15.6787 10.668 15.7192C10.6721 15.7698 10.6878 15.8201 10.7124 15.8684C10.6152 15.8574 10.5243 15.8684 10.4585 15.9189C10.435 15.9369 10.4165 15.9596 10.3978 15.982C10.2597 15.9957 10.0871 16.0827 10.0461 16.2882C10.0355 16.3413 10.0698 16.3929 10.123 16.4037C10.1295 16.405 10.136 16.4055 10.1424 16.4055C10.1881 16.4055 10.229 16.3733 10.2384 16.3266C10.2483 16.2775 10.2734 16.2478 10.301 16.2254C10.3002 16.2612 10.304 16.2967 10.3146 16.3301C10.3338 16.3908 10.3856 16.4812 10.5175 16.5318C10.5056 16.552 10.4954 16.5735 10.4863 16.5954C10.3882 16.6269 10.2403 16.7287 10.2403 16.9448C10.2403 16.9989 10.2843 17.0429 10.3384 17.0429C10.3925 17.0429 10.4365 16.9989 10.4365 16.9448C10.4365 16.9066 10.4459 16.8789 10.4584 16.856C10.4615 16.8702 10.4638 16.8847 10.4689 16.898C10.4926 16.9601 10.564 17.0765 10.764 17.0765C10.8299 17.0765 10.9095 17.064 11.0061 17.0326C11.2401 16.9567 11.406 16.9488 11.5664 16.9409C11.7582 16.9317 11.9394 16.9228 12.1939 16.8048C12.5606 16.6344 13.0149 16.6922 13.2529 16.7419C13.3818 16.7685 13.508 16.7051 13.56 16.5869C13.5778 16.5466 13.5895 16.5113 13.6018 16.4754C13.7128 16.4887 13.7357 16.5966 13.7387 16.6203C13.7442 16.6704 13.7867 16.7077 13.8361 16.7077C13.8394 16.7077 13.8429 16.7074 13.8462 16.7072C13.9001 16.7016 13.9393 16.6533 13.9337 16.5994C13.9231 16.4969 13.8472 16.3131 13.644 16.2811C13.6465 16.2115 13.633 16.1542 13.5989 16.1121C13.5616 16.0661 13.4875 16.0178 13.3421 16.0477C13.1917 16.0788 13.1225 16.085 13.0913 16.0822C13.096 16.0631 13.1071 16.0291 13.133 15.9711C13.2206 15.774 13.8023 15.254 14.1831 14.9427C14.275 14.922 14.3914 14.9207 14.4183 14.9513C14.4278 14.9618 14.4278 14.9978 14.4063 15.0548C14.391 15.0952 14.4039 15.1406 14.4378 15.1669C14.4717 15.1933 14.5189 15.1945 14.5542 15.17C14.5694 15.1593 14.9252 14.9066 14.918 14.5989C14.9143 14.4434 14.8237 14.3083 14.6485 14.1975C14.5 14.1038 14.4146 13.9951 14.3948 13.8751C14.374 13.7496 14.4275 13.6382 14.4632 13.5788C14.6037 13.6462 14.7447 13.7333 14.8851 13.8493C15.7133 14.5341 16.418 14.6431 16.7987 14.6414C16.8786 14.8178 17.113 15.4197 16.9129 16.038C16.8064 16.0191 16.5972 15.9511 16.4537 15.7119C16.3141 15.4795 16.1467 15.4213 16.0307 15.4136C15.8502 15.3995 15.6588 15.5022 15.5084 15.6901C15.4762 15.7305 15.4807 15.7887 15.5184 15.8235C15.5564 15.8584 15.615 15.8582 15.6521 15.8229C15.6772 15.7992 15.7238 15.7703 15.7438 15.7859L15.7642 15.8426C15.775 15.874 15.7862 15.9057 15.7994 15.9363C15.7214 15.9478 15.6463 15.9797 15.5877 16.0461C15.5491 16.0899 15.5247 16.1404 15.5072 16.1925C15.3275 16.2246 15.2297 16.3608 15.2255 16.3671C15.1956 16.4118 15.2078 16.4718 15.2522 16.502C15.2689 16.5134 15.2881 16.5191 15.307 16.5191C15.3383 16.5191 15.3691 16.5043 15.3882 16.4767C15.3901 16.4741 15.4263 16.425 15.4911 16.3975C15.4992 16.4344 15.5125 16.4701 15.5326 16.5027C15.5664 16.5572 15.6145 16.5937 15.669 16.6132C15.6617 16.6416 15.6554 16.6725 15.6513 16.7058C15.6492 16.7065 15.6471 16.7062 15.645 16.707C15.4101 16.8058 15.458 17.0977 15.5161 17.2381C15.5318 17.276 15.5682 17.2987 15.6066 17.2987C15.6191 17.2987 15.6317 17.2961 15.6439 17.2912C15.694 17.2706 15.7179 17.2133 15.6974 17.1633C15.6967 17.1614 15.6416 17.0173 15.677 16.9352C15.678 16.9374 15.6782 16.9397 15.6791 16.9419C15.7197 17.0336 15.798 17.099 15.9054 17.1312C15.9583 17.147 16.0089 17.1537 16.0573 17.1537C16.2178 17.1537 16.354 17.0793 16.4687 17.0166C16.558 16.9678 16.6424 16.9231 16.7089 16.9277C16.7573 16.9323 16.8127 16.941 16.8735 16.9504C17.1028 16.9861 17.4172 17.0347 17.7291 16.9343C17.7872 16.9157 17.8398 16.8975 17.888 16.8809C18.1415 16.794 18.2362 16.7616 18.3911 16.8498C18.5787 16.9571 18.8205 16.885 18.9451 16.7535C18.9842 16.7123 19.0067 16.6664 19.0188 16.6199C19.0828 16.6454 19.1346 16.6729 19.1429 16.6882C19.1246 16.7393 19.1512 16.7952 19.2023 16.8136C19.2132 16.8174 19.2243 16.8192 19.2353 16.8192C19.2755 16.8192 19.3133 16.7942 19.3276 16.7541C19.346 16.7028 19.3415 16.6499 19.315 16.6014C19.2502 16.4834 19.0604 16.42 18.9654 16.3948C18.8085 16.1816 18.5692 16.1152 18.1739 16.1777C18.1582 16.18 18.1459 16.1772 18.1324 16.166C17.9881 16.0493 17.9564 15.443 17.9374 15.081C17.9222 14.7915 17.9119 14.6234 17.8674 14.5427C17.8901 14.5241 18.0143 14.5217 18.0916 14.5782C18.129 14.6057 18.1326 14.6305 18.1237 14.6586C18.1222 14.6627 18.1208 14.6665 18.1193 14.6703C18.1002 14.7204 18.125 14.7768 18.1749 14.7965C18.2248 14.8156 18.2814 14.7921 18.3017 14.7423C18.3046 14.7354 18.3072 14.7283 18.3095 14.7214C18.3445 14.622 18.4877 14.172 18.319 13.887C18.2431 13.759 18.1196 13.6827 17.9518 13.66C17.524 13.6023 17.198 13.329 16.9788 12.8527C17.3109 12.736 18.2887 12.2928 18.4715 11.0695C18.5929 10.2564 18.3015 9.80101 18.0355 9.56223C18.0228 9.55079 18.0091 9.54212 17.9961 9.53134C18.0038 9.52135 18.0136 9.51315 18.017 9.50021C18.0182 9.49585 18.0854 9.24849 18.2031 8.96331ZM17.5106 8.78851C18.0696 8.06115 18.755 7.73734 19.1257 7.60656C18.8826 8.04456 18.6509 8.86384 18.5302 9.3317L18.3261 8.70854C18.3253 8.7061 18.3228 8.70507 18.3219 8.70273C18.3817 8.5847 18.449 8.47042 18.5231 8.37395C18.5561 8.33106 18.548 8.26951 18.5051 8.23656C18.4621 8.20337 18.4007 8.21153 18.3676 8.25446C18.275 8.37484 18.1935 8.51757 18.1231 8.66181L17.5106 8.78851ZM5.90014 8.2052C5.59803 7.88518 5.51933 7.46992 5.50133 7.21764C5.7598 7.45717 6.02051 7.63651 6.19634 7.74578L6.04006 7.78417C6.0102 7.76022 5.9809 7.73809 5.94969 7.71006C5.9097 7.67406 5.84778 7.67762 5.81126 7.71747C5.77498 7.75783 5.77831 7.81989 5.81867 7.85612C5.85369 7.88757 5.88697 7.91176 5.92081 7.93871L5.90014 8.2052ZM13.2976 11.4402C13.1143 10.9511 12.5611 9.7802 11.206 8.80051C11.207 8.79765 11.2077 8.7939 11.2088 8.79109C11.2262 8.74618 11.2489 8.70751 11.2683 8.66504C13.3202 9.18939 14.569 10.0424 15.0678 10.4395C14.0486 10.3644 13.5094 11.0664 13.2976 11.4402ZM15.5187 9.50106C15.3021 9.77949 15.2643 10.1186 15.2686 10.3476C14.8187 9.97098 13.554 9.0542 11.3546 8.48542C11.383 8.43606 11.4171 8.39312 11.4489 8.34761C11.456 8.34925 11.4628 8.35178 11.4703 8.35225C14.1764 8.23595 15.6862 8.81706 16.2392 9.0909C15.9289 9.15381 15.6844 9.28801 15.5187 9.50106ZM13.3621 7.52434C13.9602 7.52434 15.3411 7.45262 16.5321 6.86237C16.0209 7.63239 16.2047 8.49671 16.3491 8.92374C15.8006 8.64282 14.3153 8.05932 11.606 8.15275C11.9969 7.73415 12.5747 7.52434 13.3621 7.52434ZM11.062 9.61393C11.0864 9.39226 11.1108 9.18142 11.1492 9.00381C12.4516 9.96924 12.9761 11.1362 13.1313 11.5594C12.8114 11.4877 12.5217 11.5109 12.2719 11.6397C12.0676 11.7452 11.925 11.9003 11.8272 12.0422C11.7837 11.5487 11.6208 10.6681 11.0257 9.97477C11.0238 9.97257 11.0211 9.97159 11.019 9.96957C11.035 9.85032 11.0491 9.73079 11.062 9.61393ZM10.9381 12.6079C10.4823 12.5017 10.2909 12.0424 10.2821 12.0208C10.2701 11.9911 10.2445 11.9689 10.2132 11.9618C10.2058 11.9602 10.1984 11.9592 10.191 11.9592C10.1671 11.9592 10.1438 11.9682 10.1255 11.9845C9.79812 12.279 9.39757 12.3566 9.19756 12.3771C9.35562 11.8806 9.80013 11.6227 10.3981 11.2756L10.4257 11.2595C10.5747 11.1729 10.6823 11.0416 10.7664 10.8871C10.7663 11.1339 10.7795 11.4088 10.8248 11.6402C10.834 11.687 10.875 11.7194 10.921 11.7194C10.9272 11.7194 10.9336 11.7189 10.94 11.7176C10.9931 11.7071 11.0277 11.6555 11.0174 11.6024C10.9193 11.1019 10.9814 10.3491 10.9904 10.2477C11.5608 11.0176 11.6363 11.9893 11.6448 12.3061C11.3103 12.2483 11.1238 11.9882 11.1218 11.9856C11.1035 11.959 11.0735 11.9431 11.0415 11.9431H11.0411C11.0092 11.9431 10.9793 11.9585 10.9609 11.9845C10.816 12.1898 10.8726 12.4429 10.9381 12.6079ZM10.5907 9.92471C10.5147 9.83124 10.4126 9.72835 10.3113 9.68317C10.3342 9.59181 10.3556 9.49459 10.3751 9.39245C10.4801 9.47865 10.6389 9.65617 10.5907 9.92471ZM10.149 10.2753C10.1784 10.2796 10.3571 10.3141 10.4313 10.5436C10.3481 10.5293 10.2503 10.5368 10.1515 10.59C10.1357 10.498 10.1326 10.3931 10.149 10.2753ZM10.4992 10.7782C10.5275 10.8001 10.5652 10.8027 10.5975 10.7888C10.5406 10.8944 10.4691 10.9817 10.3811 11.0473C10.3331 10.9988 10.2623 10.912 10.209 10.7863C10.3543 10.6804 10.4846 10.7677 10.4992 10.7782ZM10.8372 9.33249C10.8714 9.32368 10.8979 9.29654 10.9068 9.26228C10.8925 9.36896 10.8794 9.47874 10.8669 9.59246C10.8258 9.96535 10.781 10.3692 10.654 10.6757C10.6179 10.2636 10.3489 10.1119 10.1914 10.0846C10.1998 10.0561 10.2074 10.0281 10.2181 9.9984C10.232 9.95968 10.2458 9.91801 10.2592 9.87404C10.3488 9.93057 10.4727 10.0836 10.5421 10.1902C10.5604 10.2182 10.5912 10.2348 10.6243 10.2348C10.6266 10.2348 10.6289 10.2348 10.6312 10.2346C10.6668 10.232 10.6983 10.2103 10.7132 10.1781C10.9479 9.67327 10.6319 9.31328 10.412 9.17748C10.4176 9.14153 10.4231 9.10562 10.4281 9.0691C10.5556 9.12901 10.6916 9.25238 10.7407 9.3047C10.7595 9.32485 10.7855 9.33582 10.8123 9.33582C10.8206 9.33582 10.8289 9.33479 10.8372 9.33249ZM10.6744 8.70704C10.7303 8.79798 10.7538 8.90982 10.7449 9.04107C10.6653 8.97498 10.5601 8.90354 10.4524 8.86548C10.464 8.75401 10.4727 8.64212 10.4777 8.53168C10.5372 8.5614 10.6175 8.6147 10.6744 8.70704ZM10.7452 8.04072C10.6647 8.00556 10.5678 7.9817 10.4684 7.99257C10.4584 7.88345 10.4425 7.78197 10.4203 7.69009C10.5234 7.73856 10.6715 7.83986 10.7452 8.04072ZM10.1124 6.583L10.0935 6.82853C9.94137 6.86242 9.77402 6.88787 9.59665 6.892C9.57007 6.88281 9.53304 6.87039 9.48996 6.85651C9.74243 6.76314 9.96916 6.65584 10.1124 6.583ZM7.24657 8.16817C7.22642 8.15129 7.20865 8.13339 7.19318 8.11478C7.2125 8.10714 7.23162 8.09945 7.25037 8.09209C7.3865 8.03743 7.51493 7.98587 7.63854 7.97898C7.91632 7.96187 7.99737 8.07165 8.01551 8.1054C8.03403 8.1399 8.03107 8.17028 8.0201 8.18532C7.97389 8.24818 7.89978 8.28592 7.79979 8.2982C7.57142 8.32421 7.29954 8.21237 7.24657 8.16817ZM7.93559 8.79034C7.90596 8.76887 7.86692 8.76554 7.83457 8.78242C7.4981 8.95046 7.16328 8.92928 6.95065 8.88685C7.07829 8.79985 7.22801 8.65393 7.32809 8.42354C7.44275 8.46512 7.5852 8.49864 7.7261 8.49864C7.75878 8.49864 7.7914 8.49662 7.82342 8.49273C7.97689 8.47412 8.09946 8.40793 8.17803 8.30171C8.23713 8.22128 8.24098 8.11018 8.18801 8.01212C8.1469 7.93604 8.01012 7.76059 7.62785 7.78328C7.47195 7.79172 7.32228 7.85172 7.17748 7.90993C7.15428 7.91912 7.13098 7.92854 7.10792 7.9375C7.05532 7.70537 7.17279 7.44944 7.17443 7.44611C7.18897 7.41498 7.18634 7.37847 7.16731 7.34983C7.11279 7.26784 7.00423 7.21679 6.89009 7.18483C7.41875 7.07425 8.09745 7.25683 8.10574 7.25917C8.14203 7.26864 8.18009 7.25814 8.20484 7.23006C8.22963 7.2025 8.23667 7.16312 8.22298 7.12844C8.18351 7.02906 8.18178 6.95987 8.21759 6.92256C8.37007 6.7637 9.08787 6.92073 9.54841 7.08269C9.55938 7.08653 9.57162 7.0855 9.58249 7.08831C10.0363 7.08119 10.4329 6.95139 10.6678 6.85436C10.4027 7.42998 9.95182 7.51093 9.93063 7.51454C9.87743 7.52298 9.84101 7.57276 9.84916 7.62615C9.85732 7.67978 9.90752 7.71733 9.96105 7.70837C9.97141 7.70673 10.0672 7.69004 10.1977 7.62728C10.3919 8.16456 10.2398 9.35893 10.0336 9.93179C9.80276 10.5731 10.0588 10.9803 10.2155 11.1551C9.59613 11.5155 9.11191 11.8217 8.97635 12.4508C8.97616 12.4513 8.9757 12.4517 8.97551 12.4523C8.97223 12.4625 8.93909 12.5727 8.90084 12.7693C8.66079 12.6098 8.21346 11.955 8.45426 11.1875C8.51988 10.9781 8.59704 10.7732 8.67162 10.5751C8.89324 9.98673 9.10202 9.43051 8.94659 8.90959C9.00724 8.86609 9.06405 8.81729 9.11318 8.76006C9.28418 8.56089 9.3439 8.30621 9.29079 8.00307C9.2816 7.94945 9.23088 7.91317 9.17726 7.92343C9.12406 7.93262 9.08824 7.98343 9.09771 8.03682C9.14074 8.28278 9.0972 8.47735 8.96454 8.63214C8.70813 8.93148 8.18674 8.99326 7.95884 9.00578L7.97571 8.8832C7.98054 8.84729 7.96507 8.81148 7.93559 8.79034ZM8.81595 13.2619C8.64706 13.4684 8.30426 13.743 8.17113 13.8468C8.04823 13.7296 7.92514 13.5905 7.81667 13.4275C8.31846 13.3424 8.61963 13.0309 8.73256 12.8865C8.77015 12.9185 8.80596 12.9442 8.83756 12.9611C8.8467 12.966 8.85654 12.9665 8.8662 12.9682C8.85302 13.0522 8.84051 13.1474 8.82865 13.2516C8.82448 13.2551 8.81956 13.2575 8.81595 13.2619ZM7.62242 11.4745C7.7014 11.4967 7.90624 11.549 8.09524 11.549C8.12984 11.549 8.16082 11.5426 8.19331 11.5386C8.18632 11.6593 8.19228 11.7756 8.2092 11.8861C8.05282 11.988 7.68842 11.9965 7.49164 11.9881C7.51793 11.8164 7.56307 11.6448 7.62242 11.4745ZM7.8679 10.8892C7.94018 10.9065 8.08189 10.9353 8.22499 10.9353C8.26212 10.9353 8.29906 10.9331 8.33501 10.9284C8.31195 10.9949 8.28837 11.0609 8.26699 11.1288C8.24449 11.2006 8.22893 11.2711 8.21642 11.3408C8.21571 11.3408 8.21496 11.3407 8.21426 11.3408C8.06871 11.3768 7.81892 11.3248 7.69137 11.2901C7.74551 11.1548 7.80457 11.0208 7.8679 10.8892ZM8.09201 10.4434C8.11737 10.3942 8.14235 10.3455 8.1672 10.2969C8.25256 10.3174 8.42084 10.356 8.53868 10.3706C8.52185 10.4156 8.50526 10.4603 8.48801 10.5063C8.46195 10.5754 8.43579 10.6466 8.40959 10.7174C8.39745 10.7164 8.38488 10.7174 8.37256 10.7213C8.25635 10.7572 8.07476 10.7327 7.95715 10.7082C8.00215 10.6186 8.04743 10.53 8.09201 10.4434ZM8.40312 9.80349C8.47371 9.83021 8.58673 9.86579 8.70082 9.86579C8.70438 9.86579 8.70766 9.86424 8.71127 9.8642C8.68174 9.96676 8.64626 10.0725 8.60787 10.1803C8.55326 10.1797 8.39309 10.1478 8.25785 10.1165C8.3104 10.0104 8.35901 9.90606 8.40312 9.80349ZM8.53863 9.42868C8.59409 9.43257 8.64546 9.43515 8.68882 9.43515C8.73162 9.43515 8.7657 9.43234 8.79668 9.42854C8.78984 9.50471 8.77896 9.58201 8.76218 9.66099C8.68774 9.68302 8.5661 9.65448 8.47601 9.62115C8.50001 9.55604 8.52096 9.49187 8.53863 9.42868ZM7.6175 12.187C7.80532 12.187 8.06806 12.1656 8.24951 12.0813C8.27496 12.1741 8.30702 12.2616 8.34363 12.343C8.0067 12.5771 7.63029 12.6309 7.49712 12.642C7.4825 12.5609 7.4719 12.477 7.46684 12.3896C7.4629 12.3211 7.46553 12.2524 7.46951 12.1836C7.50767 12.1853 7.55787 12.187 7.6175 12.187ZM8.43485 12.5178C8.48548 12.6038 8.53938 12.6808 8.59352 12.7453C8.51013 12.8558 8.21613 13.1937 7.7096 13.2486C7.64206 13.1227 7.5851 12.9848 7.54264 12.8352C7.71354 12.8184 8.08657 12.7523 8.43485 12.5178ZM8.76935 9.01468C8.78688 9.08565 8.79696 9.15784 8.80066 9.2311C8.77577 9.23907 8.68273 9.23982 8.58227 9.23457C8.59034 9.18423 8.59493 9.13478 8.59699 9.08603C8.65512 9.06601 8.71296 9.04206 8.76935 9.01468ZM7.4487 14.4697C7.42329 14.4778 7.40211 14.4957 7.3902 14.5195C7.38214 14.5356 7.21606 14.8584 6.77778 14.7953C6.93279 14.6932 7.07478 14.5213 7.07478 14.2585C7.07478 14.244 7.07159 14.2296 7.06531 14.2166C7.05893 14.203 6.42097 12.8423 6.33345 11.6251C6.32975 11.5741 6.28737 11.5345 6.23614 11.5342H6.23562C6.18467 11.5342 6.14215 11.5733 6.13794 11.6241C6.11253 11.9303 6.01114 12.2776 5.90605 12.2863C5.86737 12.2904 5.77686 12.2613 5.74287 12.2054C5.71756 12.1637 5.72806 12.1058 5.77376 12.0332C5.95217 11.7497 6.05956 11.5156 6.00387 11.2926C5.95728 11.106 5.73931 10.6151 5.44166 10.6753L5.36403 10.6929C5.11105 10.7529 5.04594 10.7401 5.01453 10.6258C5.0067 10.5972 5.01097 10.5739 5.02808 10.5502C5.07102 10.4904 5.1808 10.4457 5.3015 10.4388C5.52791 10.4265 5.61819 10.5231 5.62058 10.5259C5.65048 10.5622 5.70144 10.5719 5.74255 10.5502C5.78366 10.5282 5.80372 10.4802 5.79026 10.4355C5.78642 10.423 5.69375 10.1283 5.29958 10.0803C5.21108 10.0696 5.18975 10.0126 5.18736 9.96718C5.18352 9.89181 5.23119 9.80246 5.31758 9.78277C5.47259 9.74827 5.76186 9.87981 5.8872 10.3812C5.90033 10.4341 5.95475 10.4645 6.00608 10.4527C6.05867 10.4394 6.09059 10.3863 6.07747 10.3337C6.0133 10.0771 5.90933 9.90118 5.79308 9.78263C5.79509 9.77902 5.79814 9.77631 5.79973 9.77232C5.84675 9.65279 5.94355 9.62799 6.01353 9.6421C6.08033 9.65617 6.15031 9.71312 6.14595 9.83082C6.13381 10.1557 6.39059 10.6565 6.52414 10.8401C6.62525 10.9791 6.6507 11.1295 6.68576 11.3378C6.70147 11.4308 6.71872 11.5324 6.74478 11.6461C6.87481 12.2121 7.21657 12.555 7.29696 12.6295C7.40309 13.3102 7.78653 13.7855 8.13809 14.088C7.98668 14.1954 7.6857 14.3957 7.4487 14.4697ZM8.32006 13.9794C8.43326 13.8903 8.63276 13.7273 8.79996 13.5644C8.7859 13.7554 8.77559 13.9652 8.77465 14.2035C8.77456 14.2313 8.77221 14.2579 8.77137 14.2853C8.67448 14.2334 8.50648 14.1334 8.32006 13.9794ZM14.3777 13.3258L14.5485 12.82C14.7155 12.8793 14.8729 12.9472 15.0209 13.0214L14.6947 13.4768C14.591 13.4161 14.4853 13.3658 14.3777 13.3258ZM14.1902 13.2678C14.0986 13.2443 14.0058 13.227 13.912 13.2179L13.9754 12.6645C13.9982 12.6688 14.0216 12.6712 14.0442 12.676C14.1538 12.6997 14.2589 12.7283 14.3618 12.7594L14.1902 13.2678ZM13.7155 13.2096C13.6187 13.2105 13.5209 13.2192 13.4222 13.2349L13.3683 12.6152C13.5069 12.6134 13.6452 12.6192 13.7814 12.6346L13.7155 13.2096ZM13.1722 12.6233L13.2288 13.2743C13.1275 13.3 13.0254 13.3346 12.9226 13.3755L12.7495 12.6694C12.8883 12.6481 13.0295 12.6322 13.1722 12.6233ZM12.8704 14.5073C12.7917 14.4796 12.718 14.442 12.6483 14.4004L12.9989 13.7349C13.0071 13.7443 13.016 13.7523 13.0228 13.7638C13.0577 13.8225 13.0629 13.8999 13.0384 13.9939C13.0058 14.1188 12.9474 14.3029 12.8704 14.5073ZM12.4358 13.8552C12.5572 13.7742 12.6907 13.6966 12.833 13.6291L12.4849 14.2899C12.3509 14.1863 12.2471 14.078 12.1884 14.0105C12.2701 13.9617 12.3527 13.9105 12.4358 13.8552ZM12.5557 12.7024L12.7404 13.4558C12.6458 13.5013 12.5506 13.5533 12.4549 13.6116L12.1709 12.7877C12.2936 12.7563 12.423 12.7277 12.5557 12.7024ZM11.9812 12.839L12.2805 13.7073C12.2819 13.7112 12.2857 13.713 12.2875 13.7165C12.1679 13.7948 12.0496 13.8647 11.9334 13.9291L11.6434 12.9448C11.7467 12.9098 11.8594 12.874 11.9812 12.839ZM11.458 13.01L11.7561 14.022C11.7563 14.0227 11.7571 14.023 11.7573 14.0236C11.627 14.0903 11.5022 14.1492 11.3874 14.199L11.0631 13.1868C11.0672 13.1798 11.0718 13.1707 11.0758 13.1641C11.1296 13.1399 11.2654 13.0809 11.458 13.01ZM10.9383 13.4395L11.2058 14.2744C11.0016 14.3554 10.8422 14.407 10.7628 14.4307C10.7118 14.1061 10.8184 13.722 10.9383 13.4395ZM10.8805 15.2335C10.9469 15.0739 10.9273 14.8772 10.8205 14.6331C10.8186 14.6288 10.8167 14.6244 10.8149 14.6198C10.9795 14.5717 11.4609 14.4146 12.0147 14.1089C12.1136 14.2287 12.4064 14.5488 12.7988 14.6893C12.576 15.2344 12.2433 15.8453 11.9081 15.8995C11.6272 15.944 11.4751 15.7764 11.3283 15.6132C11.2002 15.4712 11.0547 15.3103 10.8483 15.4191C10.8323 15.4276 10.8202 15.4385 10.8062 15.4482C10.7902 15.4388 10.7681 15.4274 10.7421 15.4155C10.7984 15.3663 10.8491 15.3091 10.8805 15.2335ZM14.2009 13.9045C14.2296 14.083 14.345 14.2373 14.5438 14.3632C14.6599 14.4365 14.7198 14.5171 14.722 14.603C14.7242 14.6947 14.6644 14.7901 14.5966 14.8675C14.5872 14.8484 14.5759 14.8326 14.5642 14.8198C14.4391 14.6809 14.167 14.7435 14.1136 14.7575C14.1001 14.7608 14.0875 14.7675 14.0766 14.7761C13.9761 14.8578 13.0901 15.5844 12.9537 15.8911C12.9026 16.006 12.8586 16.1253 12.9276 16.2109C12.9995 16.3003 13.137 16.2903 13.3822 16.2395C13.4032 16.2351 13.4184 16.2338 13.4287 16.2338C13.4404 16.2338 13.4462 16.2338 13.4462 16.2352C13.4545 16.2492 13.46 16.3281 13.3805 16.5074C13.3661 16.5398 13.3296 16.5569 13.2929 16.5495C13.0313 16.4954 12.5294 16.433 12.1113 16.6266C11.8915 16.7285 11.7364 16.7359 11.5569 16.7446C11.3916 16.7525 11.2045 16.7617 10.9455 16.8457C10.8859 16.8648 10.6881 16.9213 10.6519 16.8273C10.6218 16.7483 10.6806 16.6102 10.743 16.5696C11.129 16.5846 11.2863 16.5847 11.2863 16.5847C11.3404 16.5847 11.3844 16.5408 11.3844 16.4867C11.3844 16.4325 11.3404 16.3886 11.2863 16.3886C11.2847 16.3886 11.122 16.3886 10.7182 16.3723C10.6485 16.3694 10.5275 16.3526 10.5015 16.2704C10.4821 16.2093 10.5163 16.1212 10.5779 16.0742C10.6313 16.0328 10.8112 16.0783 10.987 16.1542C11.0428 16.1894 11.1009 16.2177 11.1572 16.2364C11.2049 16.2535 11.2577 16.2292 11.278 16.1827C11.2984 16.1362 11.2801 16.0822 11.2356 16.0576C11.2007 16.0382 11.1438 16.0083 11.0751 15.9777C10.9609 15.9003 10.8705 15.7895 10.8635 15.7029C10.861 15.6718 10.8672 15.6309 10.9397 15.5928C11.0027 15.5599 11.0478 15.5956 11.1824 15.7448C11.3388 15.9182 11.5525 16.1537 11.9394 16.0932C12.6928 15.9711 13.2231 14.0626 13.2281 14.0434C13.2663 13.897 13.254 13.7693 13.1914 13.6639C13.1553 13.6029 13.1088 13.5633 13.0644 13.533C13.4343 13.3999 13.8514 13.3544 14.2795 13.5027C14.2307 13.5926 14.1742 13.7385 14.2009 13.9045ZM14.86 13.5829L15.1952 13.1148C15.3174 13.1834 15.4321 13.2554 15.5399 13.3298L15.1097 13.7743C15.0763 13.7483 15.0439 13.7259 15.01 13.6979C14.9605 13.6569 14.9105 13.6186 14.86 13.5829ZM15.7006 14.1566L16.1313 13.8134C16.2143 13.8936 16.29 13.9719 16.3568 14.0458L16.0085 14.2934C15.9107 14.2568 15.8079 14.2115 15.7006 14.1566ZM15.5133 14.0551C15.433 14.0074 15.3507 13.954 15.2664 13.8945L15.7007 13.4457C15.8028 13.5229 15.8985 13.601 15.9858 13.6786L15.5133 14.0551ZM16.2419 14.3681L16.4854 14.195C16.5653 14.2912 16.6299 14.3767 16.6765 14.4424C16.5554 14.4352 16.4076 14.4125 16.2419 14.3681ZM18.2775 11.0403C18.1042 12.2005 17.1744 12.5851 16.8976 12.6748C16.6649 12.1513 16.2791 11.7109 16.0223 11.5778C15.9746 11.5533 15.9152 11.5719 15.8902 11.6198C15.8653 11.668 15.8841 11.7271 15.9322 11.7521C16.1278 11.8535 16.5239 12.2659 16.7526 12.8296C16.9995 13.4376 17.3941 13.7824 17.9255 13.8544C18.0324 13.8688 18.1058 13.9121 18.1502 13.9868C18.2153 14.0966 18.2121 14.2616 18.1882 14.4066C18.0631 14.3272 17.8593 14.3017 17.7484 14.3867C17.6792 14.4396 17.6594 14.5236 17.6953 14.6114C17.7196 14.6709 17.7308 14.8844 17.7416 15.091C17.7729 15.6889 17.8126 16.1591 18.0091 16.3182C18.0657 16.3642 18.1341 16.383 18.2047 16.371C18.5923 16.3097 18.7338 16.392 18.8261 16.5347C18.8318 16.5434 18.8488 16.5697 18.8029 16.6185C18.7332 16.6921 18.587 16.7352 18.4885 16.6796C18.2565 16.5467 18.0937 16.6027 17.8244 16.6954C17.7773 16.7115 17.7257 16.7291 17.6689 16.7478C17.4015 16.8341 17.1257 16.7912 16.9037 16.7564C16.8386 16.7465 16.7793 16.7373 16.7277 16.7325C16.6013 16.7205 16.4861 16.7833 16.3746 16.8443C16.2397 16.9182 16.1122 16.9889 15.962 16.9432C15.8923 16.9222 15.8697 16.8873 15.8586 16.8625C15.8256 16.7888 15.85 16.6819 15.8735 16.6139C15.9576 16.599 16.0332 16.6018 16.1164 16.6105C16.2365 16.6225 16.3731 16.6368 16.5452 16.5734C16.5961 16.5548 16.622 16.4984 16.6033 16.4475C16.5845 16.3967 16.5285 16.3715 16.4773 16.3896C16.3479 16.4368 16.2496 16.4274 16.1366 16.4154C16.0336 16.4049 15.9173 16.3932 15.7776 16.4302C15.7563 16.4358 15.7241 16.4392 15.6995 16.3993C15.667 16.3472 15.6684 16.2509 15.7349 16.1759C15.786 16.1179 15.8849 16.1197 15.9763 16.1391C16.0275 16.1677 16.0927 16.1911 16.1768 16.2072C16.2248 16.2174 16.2724 16.1886 16.2882 16.1423C16.3039 16.0958 16.283 16.045 16.2392 16.023C16.2317 16.0195 16.1546 15.9817 16.0518 15.9556C15.9977 15.9163 15.9783 15.8609 15.9494 15.7778L15.9275 15.7168C15.9145 15.682 15.8978 15.6558 15.8795 15.6359C15.9266 15.6154 15.9727 15.6062 16.0176 15.609C16.1184 15.6159 16.2086 15.6844 16.2855 15.8129C16.5399 16.2368 16.962 16.2417 16.9799 16.2417C17.0206 16.2417 17.0572 16.2164 17.0716 16.1783C17.3887 15.3401 16.9647 14.5298 16.9464 14.4956C16.9461 14.4951 16.9456 14.4947 16.9453 14.4942C16.945 14.4937 16.9452 14.4932 16.9449 14.4927C16.9073 14.4276 16.0021 12.8976 14.0857 12.4846C12.7052 12.1861 11.037 12.965 10.9667 12.9984C10.9501 13.0061 10.9361 13.0184 10.9262 13.0336C10.7277 13.3403 10.3968 14.1543 10.6407 14.7118C10.7238 14.9018 10.7437 15.052 10.6995 15.1585C10.6699 15.2298 10.6121 15.287 10.514 15.3398C10.5009 15.2173 10.4586 15.0577 10.3324 14.9882C10.209 14.9208 10.0486 14.9583 9.85535 15.1003C9.3978 15.4367 8.74502 16.2312 8.80456 16.5752C8.81909 16.6597 8.8721 16.7197 8.95357 16.7443C9.03237 16.7677 9.1294 16.7879 9.23154 16.8089C9.43357 16.8505 9.67184 16.8993 9.77754 16.9868C9.49226 16.9503 8.9396 16.8997 8.72112 17.0223C8.46345 17.1674 8.02048 17.2598 7.71209 17.1482C7.59996 17.1015 7.34895 17.0644 7.20298 17.2621C7.14856 17.336 7.06315 17.3561 7.00798 17.3375C6.9439 17.3166 6.93045 17.2499 6.93045 17.1978C6.93045 16.9703 7.14945 16.9527 7.21648 16.9527C7.27062 16.9527 7.31454 16.9087 7.31454 16.8546C7.31454 16.8005 7.27062 16.7565 7.21648 16.7565C7.06629 16.7565 6.94268 16.8055 6.85789 16.8887C6.77947 16.8478 6.72884 16.7993 6.71047 16.7435C6.68534 16.6671 6.72143 16.5879 6.74534 16.5476C6.79076 16.4704 6.87115 16.4295 6.92037 16.4096C7.0317 16.5142 7.16126 16.589 7.22628 16.6175C7.27531 16.6387 7.33339 16.6165 7.35546 16.5669C7.37717 16.5174 7.35443 16.4594 7.30489 16.4377C7.17359 16.3803 6.9334 16.203 6.92206 16.0544C6.91789 16 6.96804 15.9586 7.01989 15.9456C7.05729 15.9361 7.15151 15.9287 7.20823 16.0597C7.35162 16.3915 7.81793 16.6249 7.83776 16.6346C7.85159 16.6415 7.86635 16.6449 7.88117 16.6449C7.90507 16.6449 7.92856 16.6362 7.94707 16.6196C7.98856 16.5817 8.96529 15.6797 8.97096 14.2041C8.97434 13.3121 9.09837 12.7556 9.14445 12.5786C9.31779 12.5703 9.7609 12.5169 10.1588 12.2118C10.274 12.4158 10.5663 12.8119 11.1043 12.8255C11.1051 12.8255 11.1059 12.8255 11.1067 12.8255C11.1419 12.8255 11.1746 12.8063 11.192 12.7756C11.2099 12.744 11.2089 12.7051 11.1895 12.6748C11.1876 12.6717 11.0369 12.4306 11.0713 12.2228C11.1949 12.3421 11.42 12.5034 11.7408 12.5149H11.7409C11.742 12.5149 11.7432 12.5149 11.7444 12.5149C11.7613 12.5149 11.7766 12.5094 11.7906 12.5016C11.797 12.4981 11.8026 12.4953 11.8079 12.4903C11.8205 12.4794 11.8296 12.4655 11.8354 12.4494C11.836 12.4479 11.8375 12.4472 11.838 12.4456C11.8393 12.4413 11.975 12.0141 12.3623 11.8141C12.6097 11.6861 12.9079 11.6782 13.25 11.7908C13.2585 11.7936 13.267 11.7935 13.2754 11.7939C13.2773 11.794 13.2788 11.7957 13.2807 11.7957C13.2822 11.7957 13.2837 11.7952 13.2852 11.7951C13.2878 11.795 13.2902 11.7945 13.2927 11.7941C13.297 11.7936 13.3014 11.7936 13.3057 11.7924C13.3087 11.7916 13.3109 11.7895 13.3138 11.7885C13.3203 11.7861 13.3261 11.7832 13.3319 11.7795C13.337 11.7763 13.3418 11.773 13.3461 11.769C13.3508 11.7648 13.3546 11.7601 13.3584 11.755C13.3622 11.7499 13.3655 11.7448 13.3682 11.739C13.3696 11.7364 13.3717 11.7345 13.3728 11.7316C13.3858 11.6959 13.5887 11.1663 14.0944 10.8537C14.0963 10.8541 14.0977 10.8552 14.0995 10.8553C14.1117 10.8566 15.3202 10.9904 15.989 11.317C16.193 11.4166 16.4418 11.466 16.6882 11.466C16.9663 11.466 17.241 11.4031 17.4431 11.2793C17.6637 11.1442 17.7824 10.9501 17.7863 10.7187C17.7944 10.2442 17.5023 9.87901 17.2234 9.77659C17.0485 9.71251 16.88 9.75104 16.7736 9.88102C16.641 10.0425 16.6488 10.2516 16.7922 10.3785C16.941 10.5103 17.2157 10.5312 17.4907 10.2881C17.5228 10.3505 17.5486 10.4195 17.5659 10.4931C17.2558 10.7075 16.9665 10.7789 16.7303 10.6993C16.5059 10.6237 16.3721 10.4293 16.3216 10.2728C16.2819 10.1499 16.3042 9.99718 16.3826 9.85416C16.4929 9.65288 16.6939 9.50148 16.934 9.43895C17.1843 9.37332 17.5948 9.42976 17.9049 9.7081C18.1347 9.91482 18.3861 10.3134 18.2775 11.0403ZM17.3795 10.1239C17.1869 10.3053 17.0095 10.3094 16.922 10.2317C16.8576 10.1748 16.8588 10.0859 16.9249 10.0057C16.9641 9.95799 17.0126 9.94187 17.0598 9.94187C17.0938 9.94187 17.1271 9.95031 17.1557 9.96076C17.2333 9.98935 17.3113 10.0461 17.3795 10.1239Z" fill="#464655"/>
</svg>
