<svg width="24" height="24" viewBox="0 0 24 24" fill="none" xmlns="http://www.w3.org/2000/svg">
<path d="M21.1159 3.35501C19.976 2.21416 17.9827 2.21583 16.8461 3.35501L3.34245 16.8784C2.47665 17.7463 2 18.8988 2 20.1248V22.0827C2 22.3131 2.18666 22.5 2.41665 22.5H4.37157C5.59653 22.5 6.74731 22.0226 7.61228 21.1555L21.0493 7.69811C21.5317 7.21322 21.8434 6.64488 21.9492 6.05234C22.1292 5.04919 21.8259 4.06523 21.1159 3.35501ZM7.02314 20.5646C6.31483 21.2749 5.37403 21.6646 4.37157 21.6646H2.8333V20.124C2.8333 19.1208 3.22329 18.1778 3.93159 17.4676L14.7428 6.64154L17.8335 9.73695L7.02314 20.5646ZM21.1293 5.90462C21.0334 6.44041 20.7126 6.85436 20.4601 7.10723L18.4235 9.14692L15.3328 6.0515L17.4369 3.94422C18.2585 3.11967 19.7018 3.118 20.5276 3.94422C21.0418 4.45915 21.2609 5.17354 21.1301 5.90462H21.1293Z" fill="black"/>
</svg>
