<svg width="24" height="24" viewBox="0 0 24 24" fill="none" xmlns="http://www.w3.org/2000/svg">
<g clip-path="url(#clip0_2058_8178)">
<path d="M12 0C5.383 0 0 5.383 0 12C0 18.617 5.383 24 12 24C18.617 24 24 18.617 24 12C24 5.383 18.617 0 12 0ZM12 1C14.853 1 17.447 2.101 19.404 3.889L3.889 19.404C2.101 17.447 1 14.853 1 12C1 5.935 5.935 1 12 1ZM12 23C9.147 23 6.553 21.899 4.596 20.111L20.111 4.596C21.899 6.553 23 9.147 23 12C23 18.065 18.065 23 12 23Z" fill="#475569"/>
</g>
<defs>
<clipPath id="clip0_2058_8178">
<rect width="24" height="24" fill="white"/>
</clipPath>
</defs>
</svg>
