<svg width="24" height="24" viewBox="0 0 24 24" fill="none" xmlns="http://www.w3.org/2000/svg">
<g clip-path="url(#clip0_2048_8043)">
<path d="M21.5 4H17.949C17.697 1.756 15.81 0 13.5 0H10.5C8.19 0 6.303 1.756 6.051 4H2.5C2.224 4 2 4.224 2 4.5C2 4.776 2.224 5 2.5 5H4V19.5C4 21.981 6.019 24 8.5 24H15.5C17.981 24 20 21.981 20 19.5V5H21.5C21.776 5 22 4.776 22 4.5C22 4.224 21.776 4 21.5 4ZM10.5 1H13.5C15.258 1 16.704 2.308 16.949 4H7.051C7.296 2.308 8.742 1 10.5 1ZM19 19.5C19 21.43 17.43 23 15.5 23H8.5C6.57 23 5 21.43 5 19.5V5H19V19.5ZM10 10.5V17.5C10 17.776 9.776 18 9.5 18C9.224 18 9 17.776 9 17.5V10.5C9 10.224 9.224 10 9.5 10C9.776 10 10 10.224 10 10.5ZM15 10.5V17.5C15 17.776 14.776 18 14.5 18C14.224 18 14 17.776 14 17.5V10.5C14 10.224 14.224 10 14.5 10C14.776 10 15 10.224 15 10.5Z" fill="black"/>
</g>
<defs>
<clipPath id="clip0_2048_8043">
<rect width="24" height="24" fill="white"/>
</clipPath>
</defs>
</svg>
