<svg width="24" height="24" viewBox="0 0 24 24" fill="none" xmlns="http://www.w3.org/2000/svg">
<g clip-path="url(#clip0_2068_4349)">
<path d="M23.312 9.733C21.628 7.218 17.918 3 12 3C6.08201 3 2.37301 7.219 0.688006 9.733C-0.233994 11.11 -0.233994 12.889 0.688006 14.266C2.37201 16.781 6.08201 20.999 12 20.999C17.918 20.999 21.627 16.78 23.312 14.266C24.234 12.889 24.234 11.11 23.312 9.733ZM22.481 13.71C20.908 16.059 17.454 20 12.001 20C6.54801 20 3.09301 16.059 1.52001 13.71C0.824006 12.671 0.824006 11.329 1.52001 10.29C3.09301 7.941 6.54701 4 12 4C17.453 4 20.907 7.941 22.48 10.29C23.176 11.329 23.176 12.671 22.48 13.71H22.481ZM12 7C9.24301 7 7.00001 9.243 7.00001 12C7.00001 14.757 9.24301 17 12 17C14.757 17 17 14.757 17 12C17 9.243 14.757 7 12 7ZM12 16C9.79401 16 8.00001 14.206 8.00001 12C8.00001 9.794 9.79401 8 12 8C14.206 8 16 9.794 16 12C16 14.206 14.206 16 12 16Z" fill="#475569"/>
</g>
<defs>
<clipPath id="clip0_2068_4349">
<rect width="24" height="24" fill="white"/>
</clipPath>
</defs>
</svg>
