<svg width="24" height="24" viewBox="0 0 24 24" fill="none" xmlns="http://www.w3.org/2000/svg">
<g clip-path="url(#clip0_2022_4646)">
<path fill-rule="evenodd" clip-rule="evenodd" d="M12.4996 0.334961C14.4296 0.334961 15.9996 1.90496 15.9996 3.83496V5.33496H16.4996C18.4296 5.33496 19.9996 6.90496 19.9996 8.83496V9.87305C19.6743 9.77312 19.3402 9.69443 18.9996 9.63379V8.83594C18.9996 7.45695 17.8786 6.33594 16.4996 6.33594H7.4996C6.1207 6.33604 4.99962 7.45701 4.9996 8.83594V11.4893L11.1773 9.46875C11.7073 9.29076 12.2938 9.29276 12.8258 9.46973L14.5367 10.0312C14.0797 10.2013 13.6421 10.4108 13.2262 10.6533L12.5113 10.4189C12.5073 10.4179 12.5006 10.416 12.5006 10.416V11.127C12.1458 11.3855 11.8108 11.6694 11.5006 11.9785V10.416L11.4918 10.4189L4.08359 12.8408C3.32377 13.0928 2.87055 13.8669 3.00937 14.6787C3.35337 16.6987 4.35586 18.63 5.98886 20.417C6.36375 20.8279 6.5987 21.3058 6.78866 21.7217C7.08566 22.3727 8.02712 23.3359 9.10312 23.3359C9.63503 23.3359 10.1244 23.1372 10.5221 22.8516C10.7149 23.1284 10.9235 23.3931 11.1471 23.6445C10.5793 24.0611 9.87275 24.3359 9.10409 24.3359C7.85309 24.3359 6.71381 23.4845 6.11581 22.5635C5.54281 23.5115 4.40069 24.3359 3.16269 24.3359C1.68284 24.3359 0.406065 23.1441 0.0259694 21.9922C-0.0609745 21.7304 0.0806774 21.4475 0.343352 21.3613C0.603317 21.2713 0.888146 21.4158 0.975188 21.6787C1.23818 22.4747 2.14873 23.3349 3.16269 23.335C4.3656 23.335 5.42654 22.1711 5.49667 21.4121C5.42067 21.2961 5.34058 21.1878 5.25058 21.0898C3.48667 19.1589 2.40103 17.0576 2.02304 14.8457C1.80215 13.5428 2.53715 12.2996 3.77109 11.8896L3.9996 11.8154V8.83496C3.9996 6.90503 5.56969 5.33506 7.4996 5.33496H7.9996V3.83496C7.9996 1.90502 9.56969 0.335065 11.4996 0.334961H12.4996ZM11.4996 1.33594C10.1207 1.33604 8.99961 2.45701 8.9996 3.83594V5.33594H14.9996V3.83594C14.9996 2.45695 13.8786 1.33594 12.4996 1.33594H11.4996Z" fill="#475569"/>
<path d="M21.5 13H21V12.5C21 12.3674 20.9473 12.2402 20.8536 12.1464C20.7598 12.0527 20.6326 12 20.5 12C20.3674 12 20.2402 12.0527 20.1464 12.1464C20.0527 12.2402 20 12.3674 20 12.5V13H16V12.5C16 12.3674 15.9473 12.2402 15.8536 12.1464C15.7598 12.0527 15.6326 12 15.5 12C15.3674 12 15.2402 12.0527 15.1464 12.1464C15.0527 12.2402 15 12.3674 15 12.5V13H14.5C13.8372 13.0008 13.2018 13.2644 12.7331 13.7331C12.2644 14.2018 12.0008 14.8372 12 15.5V21.5C12.0008 22.1628 12.2644 22.7982 12.7331 23.2669C13.2018 23.7356 13.8372 23.9992 14.5 24H21.5C22.1628 23.9992 22.7982 23.7356 23.2669 23.2669C23.7356 22.7982 23.9992 22.1628 24 21.5V15.5C23.9992 14.8372 23.7356 14.2018 23.2669 13.7331C22.7982 13.2644 22.1628 13.0008 21.5 13ZM13 15.5C13 15.1022 13.158 14.7206 13.4393 14.4393C13.7206 14.158 14.1022 14 14.5 14H21.5C21.8978 14 22.2794 14.158 22.5607 14.4393C22.842 14.7206 23 15.1022 23 15.5V16H13V15.5ZM21.5 23H14.5C14.1022 23 13.7206 22.842 13.4393 22.5607C13.158 22.2794 13 21.8978 13 21.5V17H23V21.5C23 21.8978 22.842 22.2794 22.5607 22.5607C22.2794 22.842 21.8978 23 21.5 23Z" fill="#475569"/>
<path d="M18 20.25C18.4142 20.25 18.75 19.9142 18.75 19.5C18.75 19.0858 18.4142 18.75 18 18.75C17.5858 18.75 17.25 19.0858 17.25 19.5C17.25 19.9142 17.5858 20.25 18 20.25Z" fill="#475569"/>
<path d="M15.5 20.25C15.9142 20.25 16.25 19.9142 16.25 19.5C16.25 19.0858 15.9142 18.75 15.5 18.75C15.0858 18.75 14.75 19.0858 14.75 19.5C14.75 19.9142 15.0858 20.25 15.5 20.25Z" fill="#475569"/>
<path d="M20.5 20.25C20.9142 20.25 21.25 19.9142 21.25 19.5C21.25 19.0858 20.9142 18.75 20.5 18.75C20.0858 18.75 19.75 19.0858 19.75 19.5C19.75 19.9142 20.0858 20.25 20.5 20.25Z" fill="#475569"/>
</g>
<defs>
<clipPath id="clip0_2022_4646">
<rect width="24" height="24" fill="white"/>
</clipPath>
</defs>
</svg>
