<svg width="24" height="24" viewBox="0 0 24 24" fill="none" xmlns="http://www.w3.org/2000/svg">
<g clip-path="url(#clip0_2022_4663)">
<path fill-rule="evenodd" clip-rule="evenodd" d="M10.0078 -0.000976562C11.6588 0.00102344 13.2943 0.41243 14.7373 1.19043C14.9812 1.32137 15.0712 1.62425 14.9404 1.86719C14.8095 2.11011 14.5076 2.20212 14.2637 2.07031C14.2298 2.05206 14.1943 2.03633 14.1602 2.01855C14.0547 1.96348 13.9487 1.90937 13.8408 1.8584C13.8218 1.8495 13.8023 1.84177 13.7832 1.83301C12.6328 1.29915 11.3517 0.999023 10 0.999023C5.33234 0.999023 1.49533 4.55239 1.04492 9.10156C1.01551 9.39676 1.00002 9.69614 1 9.99902C1 10.2361 1.01228 10.4707 1.03027 10.7031C1.03472 10.7599 1.03746 10.8166 1.04297 10.873C1.42792 14.8671 4.42268 18.096 8.30176 18.8369C8.32444 18.8413 8.34737 18.8444 8.37012 18.8486C8.48309 18.8693 8.59653 18.8889 8.71094 18.9053C8.76122 18.9126 8.81176 18.9183 8.8623 18.9248C8.94504 18.9352 9.02791 18.9459 9.11133 18.9541C9.21885 18.9648 9.32694 18.9727 9.43555 18.9795C9.47328 18.9818 9.51097 18.9854 9.54883 18.9873C9.69829 18.9948 9.84868 19 10 19C10.1428 19 10.2851 18.994 10.4268 18.9873C10.4502 18.9862 10.4737 18.9856 10.4971 18.9844C10.7722 18.9693 11.0448 18.942 11.3145 18.9023C11.3582 18.8959 11.4018 18.8889 11.4453 18.8818C11.5333 18.8676 11.6208 18.8518 11.708 18.835C11.7803 18.8211 11.8522 18.8066 11.9238 18.791C12.0069 18.7729 12.0896 18.7538 12.1719 18.7334C12.2297 18.7191 12.2873 18.7039 12.3447 18.6885C12.42 18.6682 12.4947 18.6462 12.5693 18.624C12.6148 18.6105 12.6609 18.5992 12.7061 18.585C12.8131 18.5513 12.9189 18.5142 13.0244 18.4766C13.0778 18.4575 13.1306 18.437 13.1836 18.417C13.2671 18.3855 13.3502 18.3533 13.4326 18.3193C13.4633 18.3067 13.4939 18.2942 13.5244 18.2812C13.6416 18.2314 13.7573 18.1787 13.8721 18.124C13.8986 18.1113 13.9248 18.0979 13.9512 18.085C14.0517 18.0359 14.1514 17.9854 14.25 17.9326C14.2691 17.9224 14.2886 17.9127 14.3076 17.9023C14.4251 17.8383 14.5408 17.7713 14.6553 17.7021C14.665 17.6962 14.6749 17.6905 14.6846 17.6846C15.8921 16.9487 16.926 15.9276 17.6855 14.6826C17.6938 14.6691 17.7028 14.6561 17.7109 14.6426C17.7861 14.5179 17.8601 14.3918 17.9297 14.2627C18.0607 14.0187 18.3625 13.9276 18.6064 14.0596C18.8502 14.1906 18.9403 14.4934 18.8096 14.7363C18.4206 15.4573 17.9412 16.1063 17.4062 16.6973L23.8545 23.1455C24.0493 23.3405 24.0484 23.6576 23.8535 23.8525C23.6586 24.0475 23.3415 24.0474 23.1465 23.8525L16.6943 17.4004C14.8843 19.0374 12.522 20 10 20C4.48627 19.9999 0.000264813 15.5137 0 10C0 4.48608 4.48611 -0.000844155 10 -0.000976562H10.0078Z" fill="#475569"/>
<path d="M20.9985 4.00024C22.1015 4.00024 22.9985 3.10324 22.9985 2.00024C22.9985 0.897244 22.1015 0.000244141 20.9985 0.000244141C19.8955 0.000244141 18.9985 0.897244 18.9985 2.00024C18.9985 3.10324 19.8955 4.00024 20.9985 4.00024ZM20.9985 1.00024C21.5495 1.00024 21.9985 1.44924 21.9985 2.00024C21.9985 2.55124 21.5495 3.00024 20.9985 3.00024C20.4475 3.00024 19.9985 2.55124 19.9985 2.00024C19.9985 1.44924 20.4475 1.00024 20.9985 1.00024ZM13.9985 6.00024C13.9985 7.10324 14.8955 8.00024 15.9985 8.00024C17.1015 8.00024 17.9985 7.10324 17.9985 6.00024C17.9985 4.89724 17.1015 4.00024 15.9985 4.00024C14.8955 4.00024 13.9985 4.89724 13.9985 6.00024ZM15.9985 5.00024C16.5495 5.00024 16.9985 5.44924 16.9985 6.00024C16.9985 6.55124 16.5495 7.00024 15.9985 7.00024C15.4475 7.00024 14.9985 6.55124 14.9985 6.00024C14.9985 5.44924 15.4475 5.00024 15.9985 5.00024ZM15.9985 9.00024C17.4425 9.00024 18.7005 10.0092 18.9885 11.3982C19.0445 11.6692 18.8705 11.9332 18.6005 11.9892C18.3365 12.0452 18.0645 11.8732 18.0095 11.6012C17.8175 10.6732 16.9715 9.99924 15.9995 9.99924C15.0275 9.99924 14.1815 10.6722 13.9895 11.6012C13.9335 11.8712 13.6675 12.0432 13.3985 11.9892C13.1285 11.9332 12.9545 11.6682 13.0105 11.3982C13.2985 10.0082 14.5555 9.00024 16.0005 9.00024H15.9985ZM20.9985 5.00024C22.4425 5.00024 23.7005 6.00924 23.9885 7.39824C24.0445 7.66924 23.8705 7.93324 23.6005 7.98924C23.3365 8.04524 23.0645 7.87324 23.0095 7.60124C22.8175 6.67324 21.9725 5.99924 20.9995 5.99924C20.8605 5.99924 20.7255 6.01324 20.5945 6.03824C20.3235 6.09124 20.0605 5.91324 20.0095 5.64224C19.9565 5.37124 20.1345 5.10924 20.4055 5.05724C20.5975 5.01924 20.7965 5.00024 21.0005 5.00024H20.9985Z" fill="#475569"/>
<path d="M5.49798 7.00016C5.49798 8.65475 6.84371 10.0003 8.4985 10.0003C10.1533 10.0003 11.499 8.65475 11.499 7.00016C11.499 5.34557 10.1533 4 8.4985 4C6.84371 4 5.49798 5.34557 5.49798 7.00016ZM8.4985 5.50008C9.32514 5.50008 9.99876 6.17362 9.99876 7.00016C9.99876 7.82671 9.32514 8.50024 8.4985 8.50024C7.67186 8.50024 6.99824 7.82671 6.99824 7.00016C6.99824 6.17362 7.67186 5.50008 8.4985 5.50008ZM8.4985 11.5004C10.6649 11.5004 12.5522 13.014 12.9843 15.0976C13.0683 15.5041 12.8072 15.9001 12.4022 15.9841C12.0061 16.0682 11.598 15.8101 11.5155 15.4021C11.2275 14.01 9.95825 12.999 8.5 12.999C7.04175 12.999 5.77253 14.0085 5.48448 15.4021C5.40046 15.8071 5.00139 16.0652 4.59783 15.9841C4.19276 15.9001 3.93171 15.5026 4.01573 15.0976C4.4478 13.0125 6.33363 11.5004 8.5015 11.5004H8.4985Z" fill="#475569"/>
</g>
<defs>
<clipPath id="clip0_2022_4663">
<rect width="24" height="24" fill="white"/>
</clipPath>
</defs>
</svg>
