<svg width="24" height="24" viewBox="0 0 24 24" fill="none" xmlns="http://www.w3.org/2000/svg">
<g clip-path="url(#clip0_2022_4675)">
<path fill-rule="evenodd" clip-rule="evenodd" d="M11.6768 -0.000976562C13.603 0.00135682 15.5108 0.481015 17.1943 1.38867C17.4789 1.54144 17.5842 1.89526 17.4316 2.17871C17.2789 2.46212 16.9262 2.56977 16.6416 2.41602C16.5223 2.35176 16.401 2.29064 16.2793 2.23145C16.243 2.21365 16.2065 2.1961 16.1699 2.17871C16.0664 2.12995 15.9625 2.08226 15.8574 2.03711C14.5736 1.47768 13.1568 1.16602 11.667 1.16602C6.39751 1.16616 2.03524 5.04747 1.28223 10.1074C1.275 10.1557 1.27024 10.2044 1.26367 10.2529C1.24689 10.3777 1.23014 10.5028 1.21777 10.6289C1.18408 10.9703 1.16699 11.3168 1.16699 11.667C1.167 11.8422 1.17109 12.0164 1.17969 12.1895C1.18095 12.2152 1.1841 12.2409 1.18555 12.2666C1.19356 12.407 1.20228 12.5467 1.21582 12.6855C1.22705 12.8021 1.2428 12.9178 1.25781 13.0332C1.26403 13.0805 1.26951 13.1277 1.27637 13.1748C1.91361 17.6029 5.31224 21.1357 9.67188 21.9746C9.71827 21.9837 9.76491 21.9916 9.81152 22C9.92201 22.0197 10.0329 22.0385 10.1445 22.0547C10.2262 22.0667 10.3084 22.0758 10.3906 22.0859C10.4715 22.0957 10.5523 22.1073 10.6338 22.1152C10.7417 22.1259 10.8502 22.1323 10.959 22.1396C11.0217 22.1438 11.0844 22.1502 11.1475 22.1533C11.3196 22.1618 11.4928 22.167 11.667 22.167V22.166L11.668 22.167C11.8307 22.167 11.9928 22.1617 12.1543 22.1543C12.1908 22.1526 12.2273 22.1505 12.2637 22.1484C12.5765 22.1308 12.8866 22.0996 13.1934 22.0547C13.2417 22.0477 13.2898 22.0399 13.3379 22.0322C13.4697 22.0111 13.601 21.988 13.7314 21.9619C13.7532 21.9576 13.7751 21.9537 13.7969 21.9492C13.9401 21.9196 14.0822 21.886 14.2236 21.8506C14.2756 21.8376 14.3273 21.8243 14.3789 21.8105C14.4951 21.7795 14.6107 21.7468 14.7256 21.7119C14.7519 21.7039 14.7784 21.6967 14.8047 21.6885C14.9468 21.644 15.0877 21.5962 15.2275 21.5459C15.2685 21.5311 15.3089 21.5152 15.3496 21.5C15.4535 21.4611 15.5567 21.421 15.6592 21.3789C15.7031 21.3608 15.7474 21.3438 15.791 21.3252C15.926 21.2676 16.0591 21.2057 16.1914 21.1426C16.2156 21.131 16.2396 21.1192 16.2637 21.1074C16.3867 21.0476 16.5084 20.9855 16.6289 20.9209C16.6503 20.9094 16.672 20.8984 16.6934 20.8867C18.4511 19.9288 19.9319 18.4718 20.9189 16.6406C21.0717 16.3562 21.4235 16.2497 21.708 16.4033C21.9926 16.5561 22.098 16.9099 21.9453 17.1934C21.4915 18.0345 20.9327 18.792 20.3086 19.4814L27.8311 27.0049C28.0585 27.2324 28.0575 27.6016 27.8301 27.8291C27.6026 28.0566 27.2324 28.0566 27.0049 27.8291L19.4775 20.3018C17.3659 22.2116 14.6103 23.3339 11.668 23.334C5.23469 23.334 0.00010474 18.1002 0 11.667C0 5.23365 5.23463 -0.000976562 11.668 -0.000976562H11.6768Z" fill="#475569"/>
<path d="M10.7614 10.9536H9.42818V12.1841H10.7614V10.9536Z" fill="#475569"/>
<path d="M13.3454 10.9536H12.0122V12.1841H13.3454V10.9536Z" fill="#475569"/>
<path d="M15.9294 10.9536H14.5961V12.1841H15.9294V10.9536Z" fill="#475569"/>
<path d="M24 3.90739V2.67688H23.7409H22.7204H20.2321L19.1837 4.66269H13.2282C12.0524 4.66269 11.0626 5.47312 10.7873 6.56467H9.94559C8.76975 6.56467 7.77996 7.3751 7.5047 8.46665H3V9.08188C3 12.6166 5.87569 15.4923 9.41041 15.4923H23.9995V11.3643H23.0953V7.79518H24V6.56467H23.0953H22.1927H21.6884L23.0913 3.90735L24 3.90739ZM13.2282 5.8932H18.5341L18.38 6.18495L18.1796 6.56471H12.0983C12.3168 6.16493 12.7414 5.8932 13.2282 5.8932ZM22.769 12.5948V14.2619H9.41041C6.76232 14.2619 4.57201 12.2645 4.26685 9.6972H7.42833H15.1261C16.9695 9.6972 18.6889 10.6898 19.6132 12.2876L19.7909 12.5947H22.769V12.5948ZM21.8648 7.79518V11.3643H20.4889C19.3094 9.56824 17.2867 8.46665 15.1261 8.46665H8.81565C9.03418 8.06691 9.45873 7.79518 9.94555 7.79518H10.7109H17.5299H18.9214H21.0388H21.8648ZM20.297 6.56467H19.5711L20.1515 5.46508L20.5752 4.66269L20.9739 3.90739H21.6999L20.297 6.56467Z" fill="#475569"/>
</g>
<defs>
<clipPath id="clip0_2022_4675">
<rect width="24" height="24" fill="white"/>
</clipPath>
</defs>
</svg>
