<svg width="24" height="24" viewBox="0 0 24 24" fill="none" xmlns="http://www.w3.org/2000/svg">
<g clip-path="url(#clip0_2022_4559)">
<path fill-rule="evenodd" clip-rule="evenodd" d="M14.1846 25.6875C14.3898 25.9153 14.6074 26.1315 14.8359 26.3359H4.18652C4.00743 26.3359 3.86241 26.1907 3.8623 26.0117C3.8623 25.8327 4.00737 25.6875 4.18652 25.6875H14.1846ZM12.7354 23.457C12.8341 23.6785 12.9409 23.8954 13.0576 24.1064H2.89941C2.72041 24.1064 2.57544 23.9611 2.5752 23.7822C2.5752 23.6032 2.72026 23.457 2.89941 23.457H12.7354ZM12.0889 21.2275C12.1206 21.4466 12.1619 21.6626 12.21 21.876H1.61133C1.43234 21.8758 1.28711 21.7307 1.28711 21.5518C1.28728 21.373 1.43245 21.2277 1.61133 21.2275H12.0889ZM14.5352 2.33594C15.0708 2.33617 15.5066 2.7721 15.5068 3.30762V5.52539H17.6074C18.3001 5.52539 18.8633 6.08867 18.8633 6.78125V11.6582C18.305 11.7671 17.7663 11.9302 17.2529 12.1426L12 10.4375L2.9541 13.375C3.07981 13.992 3.23837 14.585 3.42285 15.1572L11.8994 12.4043C11.9645 12.3832 12.0356 12.3832 12.1006 12.4043L15.1514 13.3945C14.9565 13.5525 14.769 13.7192 14.5889 13.8936L12 13.0537L3.63184 15.7715C4.07053 16.9573 4.64333 18.0352 5.3418 18.998H12.0605C12.0354 19.2119 12.0177 19.4281 12.0088 19.6465H0.324219C0.145113 19.6464 0 19.5013 0 19.3223C0.000157336 19.1434 0.14521 18.998 0.324219 18.998H4.55273C3.44595 17.3528 2.67325 15.4131 2.26172 13.2158C2.23163 13.0556 2.3255 12.8972 2.48047 12.8467L5.13672 11.9844V6.78125C5.13672 6.08869 5.69993 5.52542 6.39258 5.52539H8.49316V3.30762C8.49342 2.77209 8.92916 2.33615 9.46484 2.33594H14.5352ZM6.39258 6.17383C6.05761 6.17383 5.78516 6.44637 5.78516 6.78125V11.7734L11.8994 9.78809C11.9645 9.76699 12.0356 9.76699 12.1006 9.78809L18.2148 11.7734V6.78125C18.2148 6.44639 17.9424 6.17385 17.6074 6.17383H6.39258ZM8.51367 7.06836C8.69279 7.06841 8.83789 7.21355 8.83789 7.39258V9.01367C8.83789 9.1927 8.69279 9.33882 8.51367 9.33887H6.8916C6.71256 9.33874 6.56738 9.19265 6.56738 9.01367V7.39258C6.56738 7.2136 6.71256 7.06849 6.8916 7.06836H8.51367ZM12.8105 7.06836C12.9897 7.06836 13.1348 7.21352 13.1348 7.39258V9.01367C13.1348 9.19273 12.9897 9.33887 12.8105 9.33887H11.1895C11.0103 9.33887 10.8652 9.19273 10.8652 9.01367V7.39258C10.8652 7.21352 11.0103 7.06836 11.1895 7.06836H12.8105ZM17.1084 7.06836C17.2874 7.06857 17.4326 7.21364 17.4326 7.39258V9.01367C17.4326 9.19261 17.2874 9.33866 17.1084 9.33887H15.4863C15.3072 9.33882 15.1621 9.1927 15.1621 9.01367V7.39258C15.1621 7.21355 15.3072 7.06841 15.4863 7.06836H17.1084ZM7.21582 7.7168V8.68945H8.18945V7.7168H7.21582ZM11.5137 7.7168V8.68945H12.4863V7.7168H11.5137ZM15.8105 7.7168V8.68945H16.7842V7.7168H15.8105ZM9.46484 2.98438C9.28687 2.98459 9.14186 3.12974 9.1416 3.30762V5.52539H14.8584V3.30762C14.8581 3.12982 14.7131 2.98464 14.5352 2.98438H9.46484Z" fill="#475569"/>
<path d="M23.4073 17.8943L20.215 14.7338C19.6691 14.1861 18.8856 13.9218 18.1163 14.0202L15.9767 14.3028C15.009 14.4312 14.2505 15.2307 14.173 16.2036L14.008 18.2702C13.9496 19.0005 14.213 19.7158 14.7315 20.2368L17.9387 23.4123C18.3196 23.7916 18.8239 24 19.3615 24H19.3707C19.9108 23.9975 20.4167 23.7841 20.7968 23.3998L23.4206 20.742C24.1982 19.9542 24.1924 18.6762 23.4073 17.8943ZM22.8272 20.1551L20.2033 22.8129C19.9808 23.0388 19.6832 23.1638 19.3673 23.1655C19.0681 23.173 18.7522 23.0438 18.5263 22.8195L15.3199 19.6458C14.9757 19.2998 14.7998 18.8221 14.839 18.3361L15.004 16.2694C15.0507 15.685 15.5058 15.2057 16.0859 15.129C16.0859 15.129 18.368 14.8322 18.4388 14.8322C18.8797 14.8322 19.3107 15.0089 19.6265 15.3249L22.8205 18.4862C23.2806 18.9447 23.2839 19.6925 22.8272 20.1551ZM18.1671 17.3332C18.1671 17.7934 17.7937 18.1669 17.3336 18.1669C16.8735 18.1669 16.5001 17.7934 16.5001 17.3332C16.5001 16.873 16.8735 16.4995 17.3336 16.4995C17.7937 16.4995 18.1671 16.873 18.1671 17.3332Z" fill="#475569"/>
</g>
<defs>
<clipPath id="clip0_2022_4559">
<rect width="24" height="24" fill="white"/>
</clipPath>
</defs>
</svg>
