<svg width="24" height="24" viewBox="0 0 24 24" fill="none" xmlns="http://www.w3.org/2000/svg">
<g clip-path="url(#clip0_2022_4725)">
<path d="M18.5 24H5.5C3.019 24 1 21.981 1 19.5V4.5C1 2.019 3.019 0 5.5 0H18.5C20.981 0 23 2.019 23 4.5V19.5C23 21.981 20.981 24 18.5 24ZM5.5 1C3.57 1 2 2.57 2 4.5V19.5C2 21.43 3.57 23 5.5 23H18.5C20.43 23 22 21.43 22 19.5V4.5C22 2.57 20.43 1 18.5 1H5.5ZM17 8H7C5.897 8 5 7.103 5 6C5 4.897 5.897 4 7 4H17C18.103 4 19 4.897 19 6C19 7.103 18.103 8 17 8ZM7 5C6.449 5 6 5.448 6 6C6 6.552 6.449 7 7 7H17C17.551 7 18 6.552 18 6C18 5.448 17.551 5 17 5H7ZM19 19.5C19 19.224 18.776 19 18.5 19H13.5C13.224 19 13 19.224 13 19.5C13 19.776 13.224 20 13.5 20H18.5C18.776 20 19 19.776 19 19.5ZM7 15.5C7 15.224 6.776 15 6.5 15H5.5C5.224 15 5 15.224 5 15.5C5 15.776 5.224 16 5.5 16H6.5C6.776 16 7 15.776 7 15.5ZM11 15.5C11 15.224 10.776 15 10.5 15H9.5C9.224 15 9 15.224 9 15.5C9 15.776 9.224 16 9.5 16H10.5C10.776 16 11 15.776 11 15.5ZM7 19.5C7 19.224 6.776 19 6.5 19H5.5C5.224 19 5 19.224 5 19.5C5 19.776 5.224 20 5.5 20H6.5C6.776 20 7 19.776 7 19.5ZM11 19.5C11 19.224 10.776 19 10.5 19H9.5C9.224 19 9 19.224 9 19.5C9 19.776 9.224 20 9.5 20H10.5C10.776 20 11 19.776 11 19.5ZM15 15.5C15 15.224 14.776 15 14.5 15H13.5C13.224 15 13 15.224 13 15.5C13 15.776 13.224 16 13.5 16H14.5C14.776 16 15 15.776 15 15.5ZM19 15.5C19 15.224 18.776 15 18.5 15H17.5C17.224 15 17 15.224 17 15.5C17 15.776 17.224 16 17.5 16H18.5C18.776 16 19 15.776 19 15.5ZM7 11.5C7 11.224 6.776 11 6.5 11H5.5C5.224 11 5 11.224 5 11.5C5 11.776 5.224 12 5.5 12H6.5C6.776 12 7 11.776 7 11.5ZM11 11.5C11 11.224 10.776 11 10.5 11H9.5C9.224 11 9 11.224 9 11.5C9 11.776 9.224 12 9.5 12H10.5C10.776 12 11 11.776 11 11.5ZM15 11.5C15 11.224 14.776 11 14.5 11H13.5C13.224 11 13 11.224 13 11.5C13 11.776 13.224 12 13.5 12H14.5C14.776 12 15 11.776 15 11.5ZM19 11.5C19 11.224 18.776 11 18.5 11H17.5C17.224 11 17 11.224 17 11.5C17 11.776 17.224 12 17.5 12H18.5C18.776 12 19 11.776 19 11.5Z" fill="#475569"/>
</g>
<defs>
<clipPath id="clip0_2022_4725">
<rect width="24" height="24" fill="white"/>
</clipPath>
</defs>
</svg>
