<svg width="24" height="24" viewBox="0 0 24 24" fill="none" xmlns="http://www.w3.org/2000/svg">
<g clip-path="url(#clip0_2022_4611)">
<path fill-rule="evenodd" clip-rule="evenodd" d="M14.2568 25.6875C14.5583 25.9242 14.8757 26.1411 15.208 26.3359H4.18652C4.00743 26.3359 3.86241 26.1907 3.8623 26.0117C3.8623 25.8327 4.00737 25.6875 4.18652 25.6875H14.2568ZM12.2627 23.457C12.4006 23.6804 12.5477 23.8974 12.7051 24.1064H2.89941C2.72041 24.1064 2.57544 23.9611 2.5752 23.7822C2.5752 23.6032 2.72026 23.457 2.89941 23.457H12.2627ZM11.2969 21.2275C11.3564 21.4473 11.4237 21.6637 11.5 21.876H1.61133C1.43234 21.8758 1.28711 21.7307 1.28711 21.5518C1.28728 21.373 1.43245 21.2277 1.61133 21.2275H11.2969ZM14.5352 2.33594C15.0708 2.33617 15.5066 2.7721 15.5068 3.30762V5.52539H17.6074C18.3001 5.52539 18.8633 6.08867 18.8633 6.78125V10.5254C18.6448 10.5416 18.4284 10.5633 18.2148 10.5957V6.78125C18.2148 6.44639 17.9424 6.17385 17.6074 6.17383H6.39258C6.05761 6.17383 5.78516 6.44637 5.78516 6.78125V11.7734L11.8994 9.78809C11.9645 9.76699 12.0356 9.76699 12.1006 9.78809L16.2627 11.1396C15.9711 11.2599 15.6874 11.3952 15.4131 11.5459L12 10.4375L2.9541 13.375C3.07981 13.992 3.23837 14.585 3.42285 15.1572L11.8994 12.4043C11.9645 12.3832 12.0356 12.3832 12.1006 12.4043L13.5938 12.8887C13.4213 13.0553 13.2565 13.2295 13.0986 13.4102L12 13.0537L3.63184 15.7715C4.07053 16.9573 4.64333 18.0352 5.3418 18.998H11V19C11 19.2176 11.0103 19.433 11.0264 19.6465H0.324219C0.145113 19.6464 0 19.5013 0 19.3223C0.000157336 19.1434 0.14521 18.998 0.324219 18.998H4.55273C3.44595 17.3528 2.67325 15.4131 2.26172 13.2158C2.23163 13.0556 2.3255 12.8972 2.48047 12.8467L5.13672 11.9844V6.78125C5.13672 6.08869 5.69993 5.52542 6.39258 5.52539H8.49316V3.30762C8.49342 2.77209 8.92916 2.33615 9.46484 2.33594H14.5352ZM8.51367 7.06836C8.69279 7.06841 8.83789 7.21355 8.83789 7.39258V9.01367C8.83789 9.1927 8.69279 9.33882 8.51367 9.33887H6.8916C6.71256 9.33874 6.56738 9.19265 6.56738 9.01367V7.39258C6.56738 7.2136 6.71256 7.06849 6.8916 7.06836H8.51367ZM12.8105 7.06836C12.9897 7.06836 13.1348 7.21352 13.1348 7.39258V9.01367C13.1348 9.19273 12.9897 9.33887 12.8105 9.33887H11.1895C11.0103 9.33887 10.8652 9.19273 10.8652 9.01367V7.39258C10.8652 7.21352 11.0103 7.06836 11.1895 7.06836H12.8105ZM17.1084 7.06836C17.2874 7.06857 17.4326 7.21364 17.4326 7.39258V9.01367C17.4326 9.19261 17.2874 9.33866 17.1084 9.33887H15.4863C15.3072 9.33882 15.1621 9.1927 15.1621 9.01367V7.39258C15.1621 7.21355 15.3072 7.06841 15.4863 7.06836H17.1084ZM7.21582 7.7168V8.68945H8.18945V7.7168H7.21582ZM11.5137 7.7168V8.68945H12.4863V7.7168H11.5137ZM15.8105 7.7168V8.68945H16.7842V7.7168H15.8105ZM9.46484 2.98438C9.28687 2.98459 9.14186 3.12974 9.1416 3.30762V5.52539H14.8584V3.30762C14.8581 3.12982 14.7131 2.98464 14.5352 2.98438H9.46484Z" fill="#475569"/>
<path d="M24 18.5C24 21.5332 21.5332 24 18.5 24C15.4668 24 13 21.5332 13 18.5C13 15.4668 15.4668 13 18.5 13C21.5332 13 24 15.4668 24 18.5ZM23.0833 18.5C23.0833 15.9728 21.0273 13.9167 18.5 13.9167C15.9728 13.9167 13.9167 15.9728 13.9167 18.5C13.9167 21.0273 15.9728 23.0833 18.5 23.0833C21.0273 23.0833 23.0833 21.0273 23.0833 18.5ZM17.6952 16.6667H19.3177C19.4112 16.6667 19.875 16.6887 19.875 17.125C19.875 17.378 20.0803 17.5833 20.3333 17.5833C20.5863 17.5833 20.7917 17.378 20.7917 17.125C20.7917 16.3284 20.1711 15.75 19.3177 15.75H18.9583V15.2917C18.9583 15.0387 18.753 14.8333 18.5 14.8333C18.247 14.8333 18.0417 15.0387 18.0417 15.2917V15.75H17.6952C16.8747 15.75 16.2083 16.4173 16.2083 17.2368C16.2083 17.9051 16.6584 18.4945 17.3267 18.676L19.4222 19.1334C19.6889 19.204 19.875 19.4469 19.875 19.7228C19.875 20.0592 19.6009 20.3333 19.2645 20.3333H17.7355C17.5925 20.3333 17.125 20.3003 17.125 19.875C17.125 19.622 16.9197 19.4167 16.6667 19.4167C16.4137 19.4167 16.2083 19.622 16.2083 19.875C16.2083 20.6844 16.8372 21.25 17.7355 21.25H18.0417V21.7083C18.0417 21.9613 18.247 22.1667 18.5 22.1667C18.753 22.1667 18.9583 21.9613 18.9583 21.7083V21.25H19.2645C20.1069 21.25 20.7917 20.5652 20.7917 19.7228C20.7917 19.0335 20.326 18.4267 19.6385 18.2433L17.5448 17.7868C17.2973 17.719 17.125 17.4935 17.125 17.2368C17.125 16.9224 17.3807 16.6667 17.6952 16.6667Z" fill="#475569"/>
</g>
<defs>
<clipPath id="clip0_2022_4611">
<rect width="24" height="24" fill="white"/>
</clipPath>
</defs>
</svg>
