<svg width="248" height="48" viewBox="0 0 248 48" fill="none" xmlns="http://www.w3.org/2000/svg">
<path d="M4.57846 25.7857C4.57846 28.8552 4.66247 30.2018 5.04047 30.5698C5.37648 30.9043 5.92249 31.0549 7.56052 31.0549C8.66934 31.0549 9.59336 31.0382 10.0974 30.4276C10.3746 30.093 10.5846 29.5745 10.6434 29.173C10.6602 29.0058 10.7106 28.897 10.8366 28.897C10.9458 28.897 10.9626 28.9807 10.9626 29.2149C10.9626 29.449 10.8198 30.7036 10.6434 31.3058C10.5006 31.7909 10.4334 31.8745 9.32455 31.8745C6.3005 31.8745 4.91447 31.7491 3.69645 31.7491C3.50325 31.7491 2.26842 31.816 1.63841 31.816C1.41161 31.816 1.30241 31.7742 1.30241 31.6487C1.30241 31.5818 1.34441 31.5233 1.47041 31.5233C1.66361 31.5233 1.90722 31.4814 2.10042 31.4396C2.52043 31.356 2.62963 30.896 2.71363 30.2854C2.82283 29.4072 2.82283 27.7512 2.82283 25.7522V22.0721C2.82283 18.8102 2.82283 18.2248 2.78083 17.5557C2.73883 16.8447 2.57083 16.5102 1.88202 16.368C1.71401 16.3262 1.35281 16.3011 1.168 16.3011C1.084 16.3011 1 16.2593 1 16.1756C1 16.0502 1.1092 16.0084 1.33601 16.0084C2.28522 16.0084 3.60405 16.0669 3.71325 16.0669C3.82245 16.0669 5.35128 16.0084 5.98129 16C6.20809 16 6.3173 16.0418 6.3173 16.1673C6.3173 16.2509 6.23329 16.2927 6.14929 16.2927C6.00649 16.2927 5.71249 16.3095 5.46048 16.3596C4.84727 16.4684 4.67927 16.8197 4.63727 17.5473C4.59527 18.2164 4.59526 18.8019 4.59526 22.0638V25.7857H4.57846ZM12.8022 24.7737C12.8022 22.4234 12.8022 22.0052 12.7686 21.5201C12.735 21.0099 12.6174 20.7674 12.1218 20.6587C12.0042 20.6252 11.7438 20.6168 11.6094 20.6168C11.5506 20.6168 11.4918 20.5834 11.4918 20.5248C11.4918 20.4328 11.5674 20.4077 11.7354 20.4077C12.4158 20.4077 13.3398 20.4496 13.4742 20.4496C13.6086 20.4496 14.5158 20.4077 14.9695 20.4077C15.1375 20.4077 15.2131 20.4412 15.2131 20.5248C15.2131 20.5834 15.1543 20.6168 15.0955 20.6168C14.9863 20.6168 14.9023 20.6336 14.7175 20.6587C14.3058 20.7172 14.1882 20.9932 14.1546 21.5201C14.121 22.0052 14.121 22.4234 14.121 24.7737V26.8813C14.121 29.0476 14.6082 29.9843 15.2551 30.6032C15.9943 31.2974 16.6747 31.4313 17.5399 31.4313C18.4639 31.4313 19.3711 30.9963 19.9171 30.344C20.6144 29.4825 20.7908 28.2028 20.7908 26.6555V24.7737C20.7908 22.4234 20.7908 22.0052 20.7572 21.5201C20.7236 21.0099 20.606 20.7674 20.1103 20.6587C19.9927 20.6252 19.7323 20.6168 19.5979 20.6168C19.5391 20.6168 19.4803 20.5834 19.4803 20.5248C19.4803 20.4328 19.5559 20.4077 19.7239 20.4077C20.4044 20.4077 21.236 20.4496 21.3284 20.4496C21.4376 20.4496 22.1432 20.4077 22.5968 20.4077C22.7648 20.4077 22.8404 20.4412 22.8404 20.5248C22.8404 20.5834 22.7816 20.6168 22.7228 20.6168C22.6136 20.6168 22.5296 20.6168 22.3448 20.6587C21.9332 20.7339 21.8156 20.9932 21.782 21.5201C21.74 21.9969 21.74 22.4234 21.74 24.7737V26.3879C21.74 28.0105 21.5552 29.817 20.3456 30.8876C19.2535 31.8495 18.1195 32 17.2291 32C16.7167 32 15.1879 31.9415 14.1126 30.9294C13.3734 30.2185 12.7938 29.1647 12.7938 26.9733V24.7737H12.8022ZM28.1493 25.978L25.7301 21.93C25.3856 21.3445 25.0664 20.9096 24.554 20.7256C24.3104 20.6503 24.008 20.6168 23.9156 20.6168C23.8232 20.6168 23.7812 20.575 23.7812 20.5081C23.7812 20.4328 23.84 20.3994 24.0416 20.3994C24.4616 20.3994 25.688 20.4412 25.8141 20.4412C25.9485 20.4412 26.7213 20.3994 27.2337 20.3994C27.4437 20.3994 27.4941 20.4328 27.4941 20.5081C27.4941 20.5834 27.4521 20.6168 27.3597 20.6168C27.2673 20.6168 27.0741 20.6168 26.9481 20.6587C26.8137 20.7005 26.7633 20.8092 26.7633 20.9179C26.7633 21.0685 26.8221 21.2525 26.9145 21.4114C27.5529 22.5991 28.1661 23.7114 28.9557 25.0078C29.4093 24.3638 31.0305 21.7878 31.1818 21.4699C31.291 21.2441 31.333 21.1103 31.333 20.9263C31.333 20.8176 31.2238 20.7005 31.0725 20.6587C30.9213 20.6168 30.7113 20.6168 30.6189 20.6168C30.5265 20.6168 30.4845 20.5834 30.4845 20.5081C30.4845 20.4496 30.5601 20.3994 30.7449 20.3994C31.3162 20.3994 31.9546 20.4412 32.089 20.4412C32.2234 20.4412 32.845 20.3994 33.3574 20.3994C33.5254 20.3994 33.601 20.4412 33.601 20.5081C33.601 20.5666 33.5422 20.6168 33.433 20.6168C33.3238 20.6168 33.097 20.6336 32.9374 20.6921C32.5006 20.8259 32.215 21.2608 31.7698 21.9132L29.3337 25.5599C29.6193 26.0282 32.2066 30.4109 32.5258 30.8123C32.7694 31.1302 32.9794 31.356 33.4162 31.4898C33.6262 31.5484 33.853 31.5818 33.9454 31.5818C34.021 31.5818 34.063 31.6153 34.063 31.6738C34.063 31.7491 33.9874 31.7909 33.853 31.7909C32.929 31.7909 32.2066 31.7742 31.4338 31.7575C31.0389 31.724 30.9633 31.7156 30.9633 31.6404C30.9633 31.5818 30.9969 31.5316 31.0557 31.5233C31.1314 31.4898 31.2658 31.3393 31.1313 31.1051C30.3165 29.633 29.4345 28.1359 28.5273 26.6221L26.1669 30.6116C26.0325 30.8542 25.9737 31.1218 25.9737 31.2724C25.9737 31.4229 26.0829 31.5316 26.2173 31.5567C26.3097 31.5735 26.4273 31.5902 26.5029 31.5902C26.5785 31.5902 26.6205 31.632 26.6205 31.6989C26.6205 31.7742 26.5449 31.8076 26.4357 31.8076C26.0745 31.8076 25.1168 31.7658 24.9824 31.7658C24.848 31.7658 24.1088 31.8076 23.6048 31.8076C23.4872 31.8076 23.4536 31.7658 23.4536 31.6989C23.4536 31.6404 23.4956 31.5902 23.5712 31.5902C23.6888 31.5902 23.9156 31.5735 24.1424 31.5149C24.596 31.3978 24.8984 31.0632 25.394 30.2938L28.1493 25.978ZM35.8438 24.7737C35.8438 22.4234 35.8438 22.0052 35.8102 21.5201C35.7766 21.0099 35.659 20.7674 35.1634 20.6587C35.0458 20.6252 34.7854 20.6168 34.651 20.6168C34.5922 20.6168 34.5334 20.5834 34.5334 20.5248C34.5334 20.4328 34.609 20.4077 34.777 20.4077C35.4574 20.4077 36.3814 20.4496 36.5158 20.4496C36.6502 20.4496 37.5575 20.4077 38.0111 20.4077C38.1791 20.4077 38.2547 20.4412 38.2547 20.5248C38.2547 20.5834 38.1959 20.6168 38.1371 20.6168C38.0279 20.6168 37.9439 20.6336 37.7591 20.6587C37.3475 20.7172 37.2299 20.9932 37.1963 21.5201C37.1627 22.0052 37.1627 22.4234 37.1627 24.7737V26.8813C37.1627 29.0476 37.6499 29.9843 38.2967 30.6032C39.0359 31.2974 39.7163 31.4313 40.5815 31.4313C41.5055 31.4313 42.4128 30.9963 42.9588 30.344C43.6476 29.4825 43.8324 28.2028 43.8324 26.6555V24.7737C43.8324 22.4234 43.8324 22.0052 43.7988 21.5201C43.7652 21.0099 43.6476 20.7674 43.152 20.6587C43.0344 20.6252 42.774 20.6168 42.6396 20.6168C42.5808 20.6168 42.522 20.5834 42.522 20.5248C42.522 20.4328 42.5976 20.4077 42.7656 20.4077C43.446 20.4077 44.2776 20.4496 44.37 20.4496C44.4792 20.4496 45.1848 20.4077 45.6384 20.4077C45.8064 20.4077 45.882 20.4412 45.882 20.5248C45.882 20.5834 45.8232 20.6168 45.7644 20.6168C45.6552 20.6168 45.5712 20.6168 45.3864 20.6587C44.9748 20.7339 44.8572 20.9932 44.8236 21.5201C44.79 22.0052 44.79 22.4234 44.79 24.7737V26.3879C44.79 28.0105 44.6052 29.817 43.3956 30.8876C42.3036 31.8495 41.1695 32 40.2791 32C39.7667 32 38.2379 31.9415 37.1627 30.9294C36.4234 30.2185 35.8438 29.1647 35.8438 26.9733V24.7737ZM48.1417 24.7737C48.1417 22.4234 48.1417 22.0052 48.1081 21.5201C48.0745 21.0099 47.9569 20.7674 47.4612 20.6587C47.3436 20.6252 47.0832 20.6168 46.9488 20.6168C46.89 20.6168 46.8312 20.5834 46.8312 20.5248C46.8312 20.4328 46.9068 20.4077 47.0748 20.4077C47.7553 20.4077 48.7045 20.4496 48.7801 20.4496C48.9481 20.4496 50.0989 20.4077 50.5609 20.4077C51.5101 20.4077 52.5265 20.4997 53.3246 21.0685C53.7026 21.3361 54.3662 22.0805 54.3662 23.1176C54.3662 24.23 53.8958 25.3424 52.5349 26.597C53.7782 28.1777 54.803 29.5159 55.6766 30.4527C56.4914 31.3142 57.1466 31.4731 57.5246 31.54C57.8102 31.5818 58.0202 31.5818 58.1126 31.5818C58.1882 31.5818 58.247 31.6236 58.247 31.6738C58.247 31.7658 58.1546 31.7909 57.8858 31.7909H56.8106C55.9622 31.7909 55.5842 31.7156 55.1894 31.5065C54.5426 31.1636 54.0134 30.4192 53.1481 29.2901C52.5097 28.4621 51.8041 27.4501 51.5017 27.0653C51.4429 27.0068 51.3925 26.9733 51.3085 26.9733L49.4521 26.9399C49.3765 26.9399 49.3429 26.9817 49.3429 27.057V27.4166C49.3429 28.8636 49.3429 30.0512 49.4185 30.6869C49.4605 31.1218 49.5529 31.4564 50.0065 31.5149C50.2165 31.5484 50.5525 31.5734 50.6869 31.5734C50.7793 31.5734 50.8045 31.6153 50.8045 31.6655C50.8045 31.7407 50.7289 31.7825 50.5609 31.7825C49.7293 31.7825 48.7801 31.7407 48.7045 31.7407C48.6877 31.7407 47.7385 31.7825 47.2848 31.7825C47.1168 31.7825 47.0412 31.7491 47.0412 31.6655C47.0412 31.6236 47.0748 31.5734 47.1588 31.5734C47.2932 31.5734 47.478 31.54 47.6124 31.5149C47.9149 31.4564 47.9905 31.1218 48.0493 30.6869C48.1249 30.0512 48.1249 28.8636 48.1249 27.4166V24.7737H48.1417ZM49.3513 26.0784C49.3513 26.1537 49.3849 26.2122 49.4605 26.2624C49.6873 26.3962 50.3845 26.505 51.0481 26.505C51.4093 26.505 51.8377 26.4632 52.1821 26.2206C52.7113 25.861 53.1061 25.0497 53.1061 23.9038C53.1061 22.022 52.1065 20.8928 50.4937 20.8928C50.0401 20.8928 49.6285 20.9347 49.4773 20.9848C49.4017 21.0183 49.3597 21.0768 49.3597 21.1688V26.0784H49.3513ZM60.9183 27.885C60.9183 27.0737 60.7671 26.7392 60.5739 26.3042C60.4647 26.0617 58.4402 22.7496 57.911 21.9718C57.533 21.4114 57.155 21.035 56.8862 20.8594C56.6594 20.7088 56.3738 20.6168 56.2394 20.6168C56.1638 20.6168 56.0882 20.5834 56.0882 20.5081C56.0882 20.4496 56.147 20.3994 56.2814 20.3994C56.567 20.3994 57.701 20.4412 57.7766 20.4412C57.8858 20.4412 58.457 20.3994 59.0451 20.3994C59.2131 20.3994 59.2383 20.4412 59.2383 20.5081C59.2383 20.5666 59.1459 20.5834 59.0115 20.6419C58.8938 20.7005 58.8182 20.7925 58.8182 20.9096C58.8182 21.0936 58.8938 21.2692 59.0115 21.495C59.2551 21.93 61.5231 25.8191 61.7919 26.2541C62.0775 25.6184 64.0011 22.3231 64.3036 21.8296C64.4968 21.5118 64.5639 21.2608 64.5639 21.0601C64.5639 20.851 64.5051 20.6837 64.3203 20.6419C64.1859 20.6001 64.0935 20.5667 64.0935 20.4914C64.0935 20.4328 64.186 20.3994 64.3372 20.3994C64.732 20.3994 65.2108 20.4412 65.3368 20.4412C65.4292 20.4412 66.5128 20.3994 66.8068 20.3994C66.916 20.3994 67 20.4328 67 20.4914C67 20.5667 66.9244 20.6085 66.8068 20.6085C66.6388 20.6085 66.3532 20.667 66.1096 20.8176C65.8072 21.0016 65.6392 21.1772 65.3116 21.587C64.816 22.1892 62.6991 25.7271 62.4219 26.3711C62.1951 26.9148 62.1951 27.3832 62.1951 27.8766V29.173C62.1951 29.4156 62.1951 30.0429 62.2371 30.6785C62.2707 31.1134 62.4051 31.448 62.8587 31.5065C63.0687 31.54 63.4047 31.5651 63.5391 31.5651C63.6315 31.5651 63.6567 31.6069 63.6567 31.6571C63.6567 31.7324 63.5811 31.7742 63.4131 31.7742C62.5815 31.7742 61.6323 31.7324 61.5567 31.7324C61.4811 31.7324 60.5319 31.7742 60.0783 31.7742C59.9103 31.7742 59.8347 31.7407 59.8347 31.6571C59.8347 31.6153 59.8683 31.5651 59.9523 31.5651C60.0867 31.5651 60.2715 31.5316 60.4059 31.5065C60.7083 31.448 60.8427 31.1134 60.8763 30.6785C60.9183 30.0429 60.9183 29.4156 60.9183 29.173V27.885Z" fill="#346875"/>
<path d="M21.74 26.3879V24.7737C21.74 23.0115 21.7401 22.3307 21.7578 21.8994L21.782 21.5201C21.8156 20.9932 21.9332 20.7339 22.3448 20.6587C22.4561 20.6335 22.531 20.6241 22.5967 20.6201L22.7228 20.6168C22.767 20.6168 22.8109 20.5977 22.8301 20.5635L22.8404 20.5248C22.8402 20.4624 22.7978 20.4274 22.7061 20.4141L22.5968 20.4077C22.1432 20.4077 21.4376 20.4496 21.3284 20.4496L21.3281 20.1494C21.3743 20.1494 21.5638 20.1398 21.8203 20.1289C22.0671 20.1185 22.3629 20.1074 22.5967 20.1074C22.6881 20.1074 22.8058 20.1153 22.9092 20.1641C22.9672 20.1914 23.0305 20.236 23.0771 20.3076C23.1243 20.3799 23.1406 20.457 23.1406 20.5244C23.1406 20.6674 23.064 20.7753 22.9775 20.8369C22.8971 20.8942 22.8043 20.917 22.7227 20.917C22.6266 20.917 22.5666 20.916 22.4111 20.9512L22.3984 20.9541C22.2558 20.9803 22.2081 21.0261 22.1777 21.0762C22.133 21.1501 22.0974 21.2834 22.0811 21.5391V21.5469C22.0406 22.0065 22.04 22.415 22.04 24.7734V26.3877C22.04 27.9526 21.8756 29.8221 20.665 31L20.5439 31.1123C19.3764 32.1407 18.1591 32.2998 17.2295 32.2998C16.7108 32.2998 15.0739 32.2456 13.9072 31.1475L13.9043 31.1455C13.0944 30.3665 12.4942 29.2278 12.4941 26.9736V24.4736H12.501C12.5009 22.381 12.501 21.992 12.4697 21.541C12.4534 21.2935 12.418 21.1757 12.3721 21.1094C12.3363 21.0578 12.2658 20.9979 12.0576 20.9521L12.0488 20.9502L12.04 20.9473C12.0152 20.9402 11.9493 20.9311 11.8525 20.9248C11.7637 20.919 11.6716 20.917 11.6094 20.917C11.5278 20.917 11.435 20.8941 11.3545 20.8369C11.2681 20.7753 11.1914 20.6673 11.1914 20.5244C11.1915 20.4603 11.2053 20.3817 11.2529 20.3066C11.3012 20.2308 11.368 20.1852 11.4287 20.1582C11.5328 20.1119 11.652 20.1074 11.7354 20.1074C12.0805 20.1074 12.486 20.1184 12.8193 20.1289C13.1602 20.1396 13.4136 20.1494 13.4746 20.1494L13.4742 20.4496L12.8096 20.4287C12.6432 20.4235 12.4598 20.418 12.2754 20.4141L11.7354 20.4077C11.5674 20.4077 11.4918 20.4328 11.4918 20.5248C11.4918 20.5834 11.5506 20.6168 11.6094 20.6168C11.7438 20.6168 12.0042 20.6252 12.1218 20.6587C12.6174 20.7674 12.735 21.0099 12.7686 21.5201C12.8022 22.0052 12.8022 22.4234 12.8022 24.7737H12.7938V26.9733L12.8008 27.3711C12.8672 29.295 13.4197 30.2629 14.1126 30.9294C15.0535 31.815 16.3416 31.9701 16.9922 31.9951L17.2291 32C18.0638 32 19.1131 31.8677 20.1406 31.0586L20.3456 30.8876C21.404 29.9508 21.6776 28.4504 21.7295 27.0029L21.74 26.3879ZM44.79 26.3879V24.7737C44.79 22.4234 44.79 22.0052 44.8236 21.5201C44.8572 20.9932 44.9748 20.7339 45.3864 20.6587C45.4978 20.6335 45.5729 20.6241 45.6387 20.6201L45.7644 20.6168C45.8232 20.6168 45.882 20.5834 45.882 20.5248C45.8818 20.4623 45.8392 20.4273 45.7471 20.4141L45.6384 20.4077C45.1848 20.4077 44.4792 20.4496 44.37 20.4496L44.3701 20.1494C44.4165 20.1494 44.6058 20.1398 44.8623 20.1289C45.1092 20.1184 45.4049 20.1074 45.6387 20.1074C45.7301 20.1074 45.8478 20.1153 45.9512 20.1641C46.0091 20.1914 46.0725 20.2361 46.1191 20.3076C46.1662 20.3799 46.1816 20.4571 46.1816 20.5244C46.1816 20.6672 46.1059 20.7753 46.0195 20.8369C45.9391 20.8941 45.8462 20.917 45.7646 20.917C45.6685 20.917 45.6078 20.916 45.4521 20.9512L45.4404 20.9541C45.2975 20.9802 45.2501 21.0261 45.2197 21.0762C45.175 21.1501 45.1394 21.2832 45.123 21.5391V21.541C45.0904 22.0127 45.0898 22.4166 45.0898 24.7734V26.3877C45.0898 28.0032 44.9151 29.9435 43.5947 31.1123C42.4271 32.1408 41.2089 32.2998 40.2793 32.2998C39.7606 32.2998 38.1237 32.2456 36.957 31.1475L36.9551 31.1455C36.1451 30.3665 35.544 29.228 35.5439 26.9736V24.7734C35.5439 22.4166 35.5434 22.0127 35.5107 21.541C35.4944 21.2935 35.459 21.1757 35.4131 21.1094C35.3773 21.0579 35.3072 20.9978 35.0996 20.9521L35.0898 20.9502L35.0811 20.9473C35.0561 20.9402 34.9908 20.9311 34.8945 20.9248C34.8059 20.919 34.7136 20.917 34.6514 20.917C34.5697 20.917 34.477 20.8942 34.3965 20.8369C34.31 20.7754 34.2334 20.6674 34.2334 20.5244C34.2335 20.4603 34.2473 20.3817 34.2949 20.3066C34.343 20.2311 34.4092 20.1853 34.4697 20.1582C34.5738 20.1118 34.6939 20.1074 34.7773 20.1074C35.1224 20.1074 35.5271 20.1184 35.8604 20.1289C36.201 20.1396 36.4542 20.1494 36.5156 20.1494L36.5158 20.4496C36.4144 20.4495 35.8694 20.4258 35.3164 20.4141L34.777 20.4077C34.609 20.4077 34.5334 20.4328 34.5334 20.5248C34.5334 20.5834 34.5922 20.6168 34.651 20.6168C34.7854 20.6168 35.0458 20.6252 35.1634 20.6587C35.659 20.7674 35.7766 21.0099 35.8102 21.5201C35.8438 22.0052 35.8438 22.4234 35.8438 24.7737V26.9733L35.8506 27.3711C35.917 29.2951 36.4697 30.2629 37.1627 30.9294C38.1033 31.8146 39.3914 31.9701 40.042 31.9951L40.2791 32C41.1139 32 42.1628 31.8676 43.1904 31.0586L43.3956 30.8876C44.454 29.9508 44.7274 28.4504 44.7793 27.0029L44.79 26.3879ZM2.52246 25.752V22.0723C2.52246 18.804 2.52269 18.2312 2.48145 17.5742C2.46094 17.2272 2.41041 17.0383 2.32812 16.9209C2.25595 16.8179 2.12661 16.7251 1.82129 16.6621L1.80957 16.6592C1.67745 16.6263 1.3453 16.6016 1.16797 16.6016C1.08172 16.6016 0.978382 16.5804 0.886719 16.5195C0.798775 16.4612 0.721984 16.3633 0.704102 16.2334L0.700195 16.1758L0.703125 16.1172C0.710284 16.0575 0.729441 15.9942 0.767578 15.9346C0.818239 15.8554 0.888122 15.8049 0.955078 15.7734C1.07514 15.7171 1.21757 15.708 1.33594 15.708C1.8155 15.708 2.38695 15.7226 2.84961 15.7373C3.31996 15.7522 3.66312 15.7665 3.71289 15.7666L3.71325 16.0669L2.83984 16.0381C2.37779 16.0234 1.81069 16.0084 1.33601 16.0084C1.1092 16.0084 1 16.0502 1 16.1756C1 16.2593 1.084 16.3011 1.168 16.3011C1.35281 16.3011 1.71401 16.3262 1.88202 16.368C2.57083 16.5102 2.73883 16.8447 2.78083 17.5557C2.82283 18.2248 2.82283 18.8102 2.82283 22.0721V25.7522L2.82129 27.1807C2.81617 28.5306 2.7955 29.6268 2.71363 30.2854C2.62963 30.896 2.52043 31.356 2.10042 31.4396C1.90722 31.4814 1.66361 31.5233 1.47041 31.5233C1.34441 31.5233 1.30241 31.5818 1.30241 31.6487C1.30241 31.7428 1.36382 31.79 1.49023 31.8076L1.63841 31.816C2.26842 31.816 3.50325 31.7491 3.69645 31.7491C4.76225 31.7491 5.95669 31.8451 8.26465 31.8691L9.32455 31.8745C10.2945 31.8745 10.4671 31.8105 10.5908 31.4697L10.6434 31.3058C10.7757 30.8541 10.8891 30.0355 10.9375 29.5557L10.9626 29.2149C10.9626 28.9807 10.9458 28.897 10.8366 28.897C10.7106 28.897 10.6602 29.0058 10.6434 29.173C10.5846 29.5745 10.3746 30.093 10.0974 30.4276C9.59336 31.0382 8.66934 31.0549 7.56052 31.0549L7.56055 30.7549C8.12062 30.7549 8.60043 30.7493 9.00098 30.6748C9.39569 30.6013 9.67587 30.4669 9.86621 30.2363L9.95312 30.1211C10.1498 29.8347 10.3013 29.4394 10.3467 29.1299C10.3572 29.0346 10.3799 28.9149 10.4453 28.8115C10.5282 28.6807 10.6664 28.5967 10.8369 28.5967L10.9463 28.6104C10.9865 28.6204 11.0297 28.6378 11.0713 28.666C11.1557 28.7236 11.2004 28.8021 11.2236 28.8672C11.262 28.9752 11.2627 29.1098 11.2627 29.2148C11.2627 29.3555 11.2235 29.747 11.166 30.1631C11.108 30.5828 11.0265 31.0667 10.9316 31.3906C10.8639 31.6209 10.7828 31.8984 10.4736 32.0439C10.3403 32.1066 10.1823 32.1358 10.0059 32.1523C9.82665 32.1691 9.60257 32.1748 9.32422 32.1748C7.80782 32.1748 6.70143 32.1428 5.82227 32.1113C4.94005 32.0798 4.29813 32.0488 3.69629 32.0488C3.60758 32.0488 3.2634 32.065 2.84375 32.082C2.43313 32.0987 1.96074 32.1162 1.63867 32.1162C1.52029 32.1162 1.3779 32.1072 1.25781 32.0508C1.1908 32.0193 1.12103 31.9689 1.07031 31.8896C1.01946 31.8101 1.00195 31.7243 1.00195 31.6484C1.00202 31.5509 1.03538 31.428 1.1416 31.335C1.24204 31.2471 1.36606 31.2236 1.4707 31.2236L1.59961 31.2168C1.73719 31.2048 1.89538 31.1772 2.03711 31.1465L2.04199 31.1455C2.1292 31.1281 2.19526 31.0794 2.25879 30.9375C2.3294 30.7797 2.37369 30.5517 2.41602 30.2441C2.52177 29.3884 2.52246 27.7593 2.52246 25.752ZM25.0469 20.1201C25.4273 20.1307 25.757 20.1416 25.8145 20.1416L25.8141 20.4412L25.0381 20.4199L24.0416 20.3994C23.84 20.3994 23.7812 20.4328 23.7812 20.5081C23.7812 20.575 23.8232 20.6168 23.9156 20.6168C24.008 20.6168 24.3104 20.6503 24.554 20.7256C25.0664 20.9096 25.3856 21.3445 25.7301 21.93L28.1493 25.978L25.394 30.2938L25.2168 30.5625C24.8208 31.1435 24.5392 31.4124 24.1424 31.5149C23.9156 31.5735 23.6888 31.5902 23.5712 31.5902C23.4956 31.5902 23.4536 31.6404 23.4536 31.6989C23.4536 31.7658 23.4872 31.8076 23.6048 31.8076C24.1088 31.8076 24.848 31.7658 24.9824 31.7658C25.1168 31.7658 26.0745 31.8076 26.4357 31.8076C26.5175 31.8076 26.581 31.7892 26.6074 31.748L26.6205 31.6989C26.6205 31.6486 26.5967 31.6125 26.5527 31.5977L26.5029 31.5902C26.4273 31.5902 26.3097 31.5735 26.2173 31.5567C26.1 31.5347 26.0013 31.4488 25.9785 31.3271L25.9737 31.2724C25.9737 31.1218 26.0325 30.8542 26.1669 30.6116L28.5273 26.6221C29.4345 28.1359 30.3165 29.633 31.1313 31.1051C31.2658 31.3393 31.1314 31.4898 31.0557 31.5233L31.0166 31.5371C30.9824 31.5575 30.9633 31.5965 30.9633 31.6404C30.9633 31.7156 31.0389 31.724 31.4338 31.7575C31.8202 31.7658 32.1941 31.774 32.5869 31.7803L33.853 31.7909C33.9708 31.7909 34.0434 31.7588 34.0596 31.7002L34.063 31.6738C34.063 31.63 34.0396 31.6001 33.9961 31.5879L33.9454 31.5818C33.853 31.5818 33.6262 31.5484 33.4162 31.4898C32.9794 31.356 32.7694 31.1302 32.5258 30.8123C32.2066 30.4109 29.6193 26.0282 29.3337 25.5599L31.7698 21.9132C32.215 21.2608 32.5006 20.8259 32.9374 20.6921C33.0659 20.645 33.2382 20.6281 33.3574 20.6221L33.433 20.6168C33.5422 20.6168 33.601 20.5666 33.601 20.5081C33.6008 20.4523 33.5478 20.4154 33.4326 20.4043L33.3574 20.3994C32.845 20.3994 32.2234 20.4412 32.089 20.4412L32.0889 20.1416C32.1473 20.1416 32.3218 20.131 32.5684 20.1201C32.8055 20.1096 33.0944 20.0996 33.3574 20.0996C33.4577 20.0996 33.5708 20.1105 33.6699 20.1572C33.7857 20.2118 33.9012 20.3294 33.9014 20.5078C33.9014 20.6476 33.8278 20.7618 33.7305 20.8301C33.638 20.8948 33.5298 20.917 33.4326 20.917C33.3907 20.917 33.3196 20.9198 33.2422 20.9297C33.1625 20.9398 33.0908 20.9554 33.041 20.9736L33.0332 20.9766L33.0254 20.9785C32.8812 21.0227 32.7447 21.1203 32.582 21.3057C32.4158 21.4951 32.245 21.7472 32.0186 22.0791L29.6885 25.5684C29.9451 25.997 30.5607 27.0328 31.1748 28.0566C31.5359 28.6586 31.8975 29.2582 32.1885 29.7314C32.3372 29.9733 32.4638 30.1763 32.5615 30.3291L32.7607 30.626L32.7637 30.6299C32.9914 30.927 33.154 31.0942 33.5 31.2012C33.6949 31.2552 33.8906 31.2822 33.9453 31.2822C34.0218 31.2822 34.1262 31.2982 34.2178 31.3701C34.32 31.4505 34.3633 31.5659 34.3633 31.6738C34.3633 31.8352 34.2713 31.9573 34.1543 32.0225C34.0548 32.0778 33.943 32.0908 33.8525 32.0908C32.9252 32.0908 32.1999 32.0743 31.4277 32.0576H31.418L31.4082 32.0566C31.2233 32.041 31.0779 32.0285 30.9834 32.0068C30.9383 31.9965 30.8536 31.9739 30.7812 31.9092C30.7106 31.8458 30.68 31.7696 30.6689 31.7031L30.6631 31.6406L30.6689 31.5752C30.6872 31.4585 30.754 31.3363 30.877 31.2705C30.8749 31.2661 30.8742 31.2603 30.8711 31.2549L30.8691 31.25C30.1343 29.9224 29.3426 28.5743 28.5273 27.209L26.4287 30.7559L26.4297 30.7568C26.3215 30.9521 26.2765 31.162 26.2734 31.2617C26.3635 31.2779 26.4568 31.29 26.5029 31.29C26.5946 31.2901 26.7057 31.3163 26.7959 31.4014C26.8881 31.4884 26.9209 31.6017 26.9209 31.6992C26.9208 31.862 26.8272 31.9825 26.7129 32.0449C26.6171 32.0972 26.5127 32.1074 26.4355 32.1074C26.2486 32.1074 25.9128 32.0973 25.6133 32.0869C25.3054 32.0762 25.0427 32.0654 24.9824 32.0654C24.9231 32.0654 24.7177 32.0761 24.4443 32.0869C24.1795 32.0974 23.863 32.1074 23.6045 32.1074C23.5222 32.1074 23.3994 32.095 23.2959 32.0107C23.2061 31.9375 23.171 31.8451 23.1592 31.7686L23.1533 31.6992L23.1611 31.6221C23.1755 31.5457 23.2114 31.471 23.2725 31.4102C23.3556 31.3273 23.4646 31.29 23.5713 31.29L23.7812 31.2764C23.8684 31.2663 23.9683 31.2502 24.0674 31.2246C24.3952 31.14 24.6421 30.9064 25.1416 30.1309L27.7959 25.9727L25.4727 22.084L25.4717 22.082C25.128 21.4978 24.8557 21.1537 24.4561 21.0088C24.2431 20.9446 23.9782 20.9171 23.916 20.917C23.83 20.917 23.7155 20.8976 23.6191 20.8154C23.5409 20.7486 23.5026 20.6646 23.4883 20.585L23.4814 20.5078L23.4932 20.4102C23.5019 20.3745 23.5164 20.3362 23.54 20.2988C23.5876 20.2236 23.6539 20.1781 23.7139 20.1514C23.817 20.1055 23.9396 20.0996 24.042 20.0996C24.2572 20.0996 24.6738 20.1097 25.0469 20.1201ZM47.8252 27.417V24.4736H47.8408C47.8407 22.381 47.8398 21.992 47.8086 21.541C47.7923 21.2935 47.7568 21.1757 47.7109 21.1094C47.6751 21.0578 47.6045 20.9978 47.3965 20.9521L47.3877 20.9502L47.3789 20.9473C47.354 20.9402 47.2886 20.9311 47.1924 20.9248C47.1038 20.919 47.0114 20.917 46.9492 20.917C46.8676 20.917 46.7748 20.8942 46.6943 20.8369C46.6294 20.7907 46.5704 20.7187 46.5449 20.625L46.5312 20.5244L46.5439 20.4199C46.5533 20.3829 46.5689 20.3442 46.5928 20.3066C46.6409 20.2311 46.7071 20.1853 46.7676 20.1582C46.8717 20.1118 46.9918 20.1074 47.0752 20.1074C47.4203 20.1074 47.8317 20.1184 48.1641 20.1289C48.3304 20.1341 48.4777 20.1396 48.5879 20.1436C48.643 20.1455 48.6886 20.1463 48.7227 20.1475C48.7395 20.148 48.7533 20.1491 48.7637 20.1494H48.7803L48.7801 20.4496L48.1543 20.4287C47.9885 20.4235 47.8039 20.418 47.6182 20.4141L47.0748 20.4077C46.9068 20.4077 46.8312 20.4328 46.8312 20.5248C46.8312 20.5834 46.89 20.6168 46.9488 20.6168C47.0832 20.6168 47.3436 20.6252 47.4612 20.6587C47.9569 20.7674 48.0745 21.0099 48.1081 21.5201C48.1417 22.0052 48.1417 22.4234 48.1417 24.7737H48.1249L48.124 28.4482C48.1205 29.4225 48.1059 30.21 48.0493 30.6869C47.9905 31.1218 47.9149 31.4564 47.6124 31.5149C47.478 31.54 47.2932 31.5734 47.1588 31.5734C47.0748 31.5734 47.0412 31.6236 47.0412 31.6655C47.0412 31.7282 47.0837 31.763 47.1758 31.7764L47.2848 31.7825C47.736 31.7825 48.6773 31.7412 48.7045 31.7407L49.3496 31.7617C49.7001 31.7722 50.1454 31.7825 50.5609 31.7825C50.7076 31.7825 50.7838 31.7506 50.8008 31.6924L50.8045 31.6655C50.8045 31.6153 50.7793 31.5734 50.6869 31.5734C50.5525 31.5734 50.2165 31.5484 50.0065 31.5149C49.6095 31.4637 49.4895 31.201 49.4375 30.8447L49.4185 30.6869C49.3618 30.21 49.3473 29.4225 49.3438 28.4482L49.3429 27.057C49.3429 26.9817 49.3765 26.9399 49.4521 26.9399L51.3085 26.9733C51.3925 26.9733 51.4429 27.0068 51.5017 27.0653C51.8041 27.4501 52.5097 28.4621 53.1481 29.2901C54.0134 30.4192 54.5426 31.1636 55.1894 31.5065C55.5348 31.6894 55.8676 31.7699 56.5137 31.7871L56.8106 31.7909H57.8858C58.1211 31.7909 58.2209 31.7716 58.2422 31.7051L58.247 31.6738C58.247 31.6363 58.2142 31.603 58.166 31.5889L58.1126 31.5818C58.0202 31.5818 57.8102 31.5818 57.5246 31.54C57.1702 31.4772 56.5718 31.3339 55.8271 30.6064L55.6766 30.4527C54.803 29.5159 53.7782 28.1777 52.5349 26.597C53.8105 25.4209 54.3037 24.3695 54.3604 23.3262L54.3662 23.1176C54.3662 22.0805 53.7026 21.3361 53.3246 21.0685C52.6265 20.5711 51.761 20.4385 50.9199 20.4131L50.5609 20.4077C50.0989 20.4077 48.9481 20.4496 48.7801 20.4496L48.7803 20.1494C48.8589 20.1494 49.1801 20.1395 49.5518 20.1289C49.9167 20.1185 50.3243 20.1074 50.5605 20.1074C51.5159 20.1074 52.6167 20.1966 53.4971 20.8232C53.9267 21.1274 54.6658 21.9533 54.666 23.1172C54.666 24.2745 54.1921 25.4036 52.9385 26.625C54.1101 28.1172 55.0705 29.3632 55.8936 30.2461C56.6553 31.0514 57.2485 31.186 57.5771 31.2441C57.837 31.2816 58.0259 31.2822 58.1123 31.2822C58.2028 31.2822 58.2981 31.3064 58.3789 31.3623C58.4583 31.4173 58.5469 31.5228 58.5469 31.6738C58.5469 31.7501 58.5263 31.8426 58.458 31.9238C58.3948 31.999 58.3153 32.0344 58.2568 32.0527C58.1502 32.0862 58.0155 32.0908 57.8857 32.0908H56.8105C55.9438 32.0908 55.5076 32.0145 55.0488 31.7715C54.6772 31.5745 54.3547 31.2701 54.0244 30.8896C53.6953 30.5105 53.338 30.0309 52.9102 29.4727C52.5882 29.055 52.2499 28.5918 51.9561 28.1875C51.6703 27.7942 51.4295 27.463 51.2812 27.2725L49.6426 27.2432V27.417C49.6426 28.6928 49.6434 29.7432 49.6924 30.3965L49.7168 30.6514V30.6582C49.7376 30.8737 49.7685 31.0073 49.8174 31.0908C49.8427 31.134 49.8772 31.1736 49.9531 31.1982L50.0449 31.2178L50.0537 31.2188C50.2492 31.2499 50.5689 31.2734 50.6865 31.2734C50.7715 31.2734 50.8896 31.2921 50.9854 31.3818C51.0853 31.4755 51.1044 31.5925 51.1045 31.665C51.1045 31.7366 51.0854 31.8137 51.0391 31.8828C50.9942 31.9496 50.9351 31.993 50.8799 32.0205C50.7775 32.0715 50.6598 32.083 50.5605 32.083C50.1405 32.083 49.6916 32.072 49.3398 32.0615C49.1641 32.0563 49.012 32.0508 48.8994 32.0469C48.8429 32.0449 48.7962 32.0431 48.7617 32.042C48.7447 32.0414 48.7311 32.0413 48.7207 32.041H48.7041C48.6983 32.0414 48.6481 32.043 48.5518 32.0469C48.4531 32.0508 48.3176 32.0563 48.1689 32.0615C47.8734 32.072 47.5179 32.083 47.2852 32.083C47.1937 32.083 47.0751 32.0752 46.9717 32.0264C46.9138 31.999 46.8513 31.9542 46.8047 31.8828C46.7574 31.8103 46.7412 31.7326 46.7412 31.665C46.7413 31.5655 46.7813 31.4618 46.8633 31.3848C46.9478 31.3055 47.056 31.2734 47.1592 31.2734L47.3428 31.2568C47.4121 31.2468 47.4867 31.233 47.5576 31.2197C47.583 31.2146 47.6107 31.2043 47.6475 31.1211C47.6919 31.0203 47.7214 30.8693 47.751 30.6514C47.8239 30.0383 47.8252 28.8748 47.8252 27.417ZM60.6182 29.1729V27.8848C60.6181 27.4986 60.5826 27.2379 60.5283 27.0283C60.4736 26.8171 60.3981 26.6468 60.3008 26.4277L60.293 26.4121C60.2873 26.4014 60.2793 26.3877 60.2695 26.3701C60.2499 26.3347 60.2234 26.2873 60.1904 26.2305C60.1246 26.1169 60.0351 25.9659 59.9287 25.7881C59.716 25.4326 59.4371 24.9722 59.1445 24.4951C58.5576 23.538 57.9229 22.5225 57.6631 22.1406L57.6621 22.1396C57.2972 21.5988 56.9455 21.2566 56.7217 21.1104L56.7207 21.1094C56.6305 21.0495 56.5243 20.9988 56.4268 20.9639C56.3785 20.9466 56.3351 20.9346 56.2998 20.9268C56.2823 20.9229 56.2679 20.9204 56.2568 20.9189C56.2514 20.9182 56.2473 20.9172 56.2441 20.917C56.241 20.9168 56.2393 20.917 56.2393 20.917C56.1636 20.917 56.066 20.9007 55.9766 20.8447C55.8755 20.7814 55.7881 20.6651 55.7881 20.5078C55.7882 20.3633 55.867 20.2456 55.9746 20.1777C56.0714 20.1168 56.1826 20.0996 56.2812 20.0996C56.43 20.0996 56.7911 20.1097 57.1172 20.1201C57.2813 20.1253 57.4396 20.1309 57.5605 20.1348C57.6211 20.1367 57.6726 20.1385 57.7109 20.1396C57.7301 20.1402 57.746 20.1403 57.7578 20.1406C57.7635 20.1408 57.768 20.1415 57.7715 20.1416C57.774 20.1416 57.7758 20.1416 57.7764 20.1416L57.7766 20.4412L57.1074 20.4199L56.2814 20.3994C56.147 20.3994 56.0882 20.4496 56.0882 20.5081C56.0882 20.5834 56.1638 20.6168 56.2394 20.6168C56.3738 20.6168 56.6594 20.7088 56.8862 20.8594C57.155 21.035 57.533 21.4114 57.911 21.9718C58.4402 22.7496 60.4647 26.0617 60.5739 26.3042C60.7671 26.7392 60.9183 27.0737 60.9183 27.885V29.173C60.9183 29.4156 60.9183 30.0429 60.8763 30.6785C60.8427 31.1134 60.7083 31.448 60.4059 31.5065C60.2715 31.5316 60.0867 31.5651 59.9523 31.5651C59.8683 31.5651 59.8347 31.6153 59.8347 31.6571C59.8347 31.7198 59.8774 31.7543 59.9697 31.7676L60.0783 31.7742C60.5319 31.7742 61.4811 31.7324 61.5567 31.7324L62.2012 31.7529C62.3767 31.7582 62.5759 31.7637 62.7832 31.7676L63.4131 31.7742C63.5603 31.7742 63.6367 31.7421 63.6533 31.6836L63.6567 31.6571C63.6567 31.6195 63.6426 31.5864 63.5967 31.5723L63.5391 31.5651C63.4047 31.5651 63.0687 31.54 62.8587 31.5065C62.4051 31.448 62.2707 31.1134 62.2371 30.6785C62.2161 30.3607 62.2054 30.0449 62.2002 29.7783L62.1951 29.173V27.8766C62.1951 27.3832 62.1951 26.9148 62.4219 26.3711C62.6991 25.7271 64.816 22.1892 65.3116 21.587C65.6392 21.1772 65.8072 21.0016 66.1096 20.8176C66.3532 20.667 66.6388 20.6085 66.8068 20.6085C66.9244 20.6085 67 20.5667 67 20.4914C66.9999 20.4475 66.9526 20.4174 66.8828 20.4053L66.8068 20.3994C66.5128 20.3994 65.4292 20.4412 65.3368 20.4412L65.3369 20.1416C65.3771 20.1416 65.6609 20.1308 65.9863 20.1201C66.303 20.1097 66.6534 20.0996 66.8066 20.0996C66.8861 20.0996 66.9814 20.111 67.0684 20.1504C67.1499 20.1874 67.2997 20.29 67.2998 20.4912C67.2998 20.6495 67.2117 20.77 67.1006 20.8359C67.0033 20.8935 66.8943 20.9082 66.8066 20.9082C66.6897 20.9082 66.4599 20.9544 66.2676 21.0732L66.2656 21.0742C66.0088 21.2305 65.867 21.3727 65.5459 21.7744L65.543 21.7773C65.3126 22.0572 64.6729 23.0695 64.042 24.1182C63.4116 25.166 62.8259 26.1914 62.6973 26.4902C62.4976 26.971 62.4951 27.3834 62.4951 27.877V29.1729C62.4951 29.4148 62.4951 30.0316 62.5361 30.6553C62.5516 30.8561 62.5883 30.9883 62.6416 31.0703C62.6732 31.119 62.7181 31.1619 62.8008 31.1885L62.8975 31.209L62.9062 31.21C63.1019 31.2411 63.4217 31.2646 63.5391 31.2646C63.624 31.2646 63.7421 31.2833 63.8379 31.373C63.9381 31.4669 63.957 31.5848 63.957 31.6572C63.957 31.7288 63.9379 31.8049 63.8916 31.874C63.8466 31.9412 63.7869 31.9851 63.7314 32.0127C63.6291 32.0636 63.5122 32.0742 63.4131 32.0742C62.9929 32.0742 62.5442 32.0632 62.1924 32.0527C62.0163 32.0475 61.8637 32.043 61.751 32.0391C61.6946 32.0371 61.6486 32.0353 61.6143 32.0342C61.597 32.0336 61.5827 32.0335 61.5723 32.0332C61.5673 32.0331 61.5635 32.0323 61.5605 32.0322H61.5527C61.5498 32.0323 61.5459 32.0331 61.541 32.0332C61.5307 32.0335 61.5168 32.0336 61.5 32.0342C61.4665 32.0353 61.4215 32.0371 61.3682 32.0391C61.2618 32.043 61.1216 32.0475 60.9697 32.0527C60.6669 32.0632 60.3109 32.0742 60.0781 32.0742C59.9867 32.0742 59.869 32.0672 59.7656 32.0186C59.7076 31.9912 59.6443 31.9457 59.5977 31.874C59.5741 31.8379 59.5587 31.8004 59.5488 31.7637L59.5352 31.6572L59.542 31.582C59.557 31.5074 59.5948 31.4348 59.6562 31.377C59.7408 31.2974 59.8488 31.2647 59.9521 31.2646C60.0528 31.2646 60.2074 31.2383 60.3486 31.2119C60.3878 31.2043 60.4307 31.1818 60.4756 31.0957C60.5248 31.0012 60.5618 30.8536 60.5771 30.6553C60.6182 30.0316 60.6182 29.4148 60.6182 29.1729ZM14.121 26.8813V24.7737C14.121 23.0108 14.1206 22.3347 14.1348 21.9023L14.1546 21.5201C14.1882 20.9932 14.3058 20.7172 14.7175 20.6587C14.8288 20.6435 14.904 20.6322 14.9697 20.625L15.0955 20.6168C15.1543 20.6168 15.2131 20.5834 15.2131 20.5248C15.2129 20.4623 15.1703 20.4273 15.0781 20.4141L14.9695 20.4077C14.5163 20.4077 13.61 20.4495 13.4742 20.4496L13.4746 20.1494C13.5355 20.1494 13.7848 20.1396 14.0918 20.1289C14.3913 20.1185 14.7369 20.1074 14.9697 20.1074C15.0612 20.1074 15.1789 20.1153 15.2822 20.1641C15.3402 20.1914 15.4035 20.2361 15.4502 20.3076C15.4972 20.3799 15.5126 20.4571 15.5127 20.5244C15.5127 20.6672 15.4369 20.7753 15.3506 20.8369C15.2702 20.8941 15.1773 20.9169 15.0957 20.917C15.0134 20.917 14.9627 20.9274 14.7588 20.9551C14.6257 20.9741 14.5818 21.0173 14.5518 21.0674C14.506 21.1438 14.4705 21.2824 14.4541 21.5391V21.541C14.4214 22.0127 14.4209 22.4166 14.4209 24.7734V26.8809C14.4209 28.9976 14.8951 29.8434 15.4629 30.3867C15.8032 30.7059 16.1192 30.8873 16.4424 30.9922C16.7701 31.0985 17.1213 31.1309 17.54 31.1309L17.5399 31.4313L17.2236 31.4238C16.5549 31.3912 15.9882 31.2353 15.3926 30.7266L15.2551 30.6032C14.6487 30.023 14.1829 29.1635 14.127 27.2734L14.121 26.8813ZM20.4912 26.6553V24.7734C20.4912 22.4167 20.4907 22.0127 20.458 21.541C20.4417 21.2935 20.4063 21.1757 20.3604 21.1094C20.3246 21.0578 20.2541 20.9978 20.0459 20.9521L20.0371 20.9502L20.0283 20.9473C20.0035 20.9402 19.9376 20.9311 19.8408 20.9248C19.7521 20.919 19.6598 20.917 19.5977 20.917C19.5161 20.9169 19.4232 20.8941 19.3428 20.8369C19.278 20.7907 19.2188 20.7185 19.1934 20.625L19.1807 20.5244L19.1934 20.4199C19.2027 20.3829 19.2174 20.3442 19.2412 20.3066C19.2894 20.2308 19.3563 20.1853 19.417 20.1582C19.5209 20.1119 19.6402 20.1074 19.7236 20.1074C20.069 20.1074 20.4513 20.1184 20.7568 20.1289C21.0712 20.1397 21.2879 20.1494 21.3281 20.1494L21.3284 20.4496C21.2582 20.4495 20.7736 20.4258 20.249 20.4141L19.7239 20.4077C19.5559 20.4077 19.4803 20.4328 19.4803 20.5248C19.4803 20.5834 19.5391 20.6168 19.5979 20.6168C19.7323 20.6168 19.9927 20.6252 20.1103 20.6587C20.606 20.7674 20.7236 21.0099 20.7572 21.5201C20.7908 22.0052 20.7908 22.4234 20.7908 24.7737V26.6555L20.7822 27.2227C20.739 28.516 20.5272 29.5901 19.9171 30.344C19.3711 30.9963 18.4639 31.4313 17.5399 31.4313L17.54 31.1309C18.3746 31.1308 19.195 30.7363 19.6836 30.1553C20.309 29.3825 20.4912 28.2001 20.4912 26.6553ZM37.1627 26.8813V24.7737C37.1627 22.4234 37.1627 22.0052 37.1963 21.5201C37.2299 20.9932 37.3475 20.7172 37.7591 20.6587C37.8703 20.6436 37.9451 20.6322 38.0107 20.625L38.1371 20.6168C38.1812 20.6168 38.2249 20.5977 38.2441 20.5635L38.2547 20.5248C38.2545 20.4624 38.212 20.4274 38.1201 20.4141L38.0111 20.4077C37.5575 20.4077 36.6502 20.4496 36.5158 20.4496L36.5156 20.1494C36.5759 20.1494 36.8261 20.1396 37.1338 20.1289C37.4331 20.1185 37.778 20.1074 38.0107 20.1074C38.1022 20.1074 38.2208 20.1153 38.3242 20.1641C38.3821 20.1914 38.4446 20.2362 38.4912 20.3076C38.5384 20.38 38.5546 20.457 38.5547 20.5244C38.5547 20.6674 38.4781 20.7754 38.3916 20.8369C38.3111 20.8942 38.2183 20.917 38.1367 20.917C38.0547 20.917 38.004 20.9275 37.8008 20.9551C37.6676 20.9741 37.6238 21.0173 37.5938 21.0674C37.548 21.1438 37.5125 21.2824 37.4961 21.5391L37.4951 21.541C37.4625 22.0127 37.4629 22.4167 37.4629 24.7734V26.8809C37.4629 28.9951 37.935 29.8414 38.502 30.3848L38.6289 30.498C38.9226 30.7491 39.2009 30.9002 39.4844 30.9922C39.8119 31.0984 40.1625 31.1308 40.5811 31.1309L40.5815 31.4313L40.2656 31.4238C39.5968 31.3913 39.0302 31.2353 38.4346 30.7266L38.2967 30.6032C37.6903 30.023 37.2239 29.1635 37.168 27.2734L37.1627 26.8813ZM43.5322 26.6553V24.7734C43.5322 22.4166 43.5317 22.0127 43.499 21.541C43.4827 21.2935 43.4482 21.1757 43.4023 21.1094C43.3666 21.0578 43.2961 20.9979 43.0879 20.9521L43.0791 20.9502L43.0703 20.9473C43.0455 20.9402 42.9795 20.9311 42.8828 20.9248C42.794 20.919 42.7018 20.917 42.6396 20.917C42.558 20.917 42.4652 20.8941 42.3848 20.8369C42.2983 20.7753 42.2217 20.6674 42.2217 20.5244C42.2217 20.4603 42.2356 20.3817 42.2832 20.3066C42.3315 20.2308 42.3983 20.1852 42.459 20.1582C42.563 20.1119 42.6822 20.1074 42.7656 20.1074C43.111 20.1074 43.4933 20.1184 43.7988 20.1289C44.1137 20.1397 44.3306 20.1494 44.3701 20.1494L44.37 20.4496L43.7881 20.4287C43.6358 20.4235 43.4652 20.418 43.29 20.4141L42.7656 20.4077C42.5976 20.4077 42.522 20.4328 42.522 20.5248C42.522 20.5834 42.5808 20.6168 42.6396 20.6168C42.774 20.6168 43.0344 20.6252 43.152 20.6587C43.6476 20.7674 43.7652 21.0099 43.7988 21.5201C43.8324 22.0052 43.8324 22.4234 43.8324 24.7737V26.6555C43.8324 28.2028 43.6476 29.4825 42.9588 30.344C42.4128 30.9963 41.5055 31.4313 40.5815 31.4313L40.5811 31.1309C41.4175 31.1309 42.2403 30.7346 42.7285 30.1514C43.344 29.3774 43.5322 28.1947 43.5322 26.6553ZM4.59526 25.7857V22.0638C4.59526 19.617 4.59555 18.676 4.61328 18.0762L4.63727 17.5473C4.67668 16.8654 4.82685 16.5136 5.35059 16.3828L5.46048 16.3596C5.58629 16.3346 5.72305 16.3181 5.8457 16.3076L6.14929 16.2927C6.22289 16.2927 6.29643 16.2605 6.31348 16.1963L6.3173 16.1673C6.3173 16.0418 6.20809 16 5.98129 16C5.35128 16.0084 3.82245 16.0669 3.71325 16.0669L3.71289 15.7666C3.76087 15.7666 4.16035 15.7522 4.6416 15.7363C5.11546 15.7207 5.65899 15.7044 5.97754 15.7002H5.98145C6.0998 15.7002 6.24227 15.7083 6.3623 15.7646C6.42935 15.7962 6.49911 15.8474 6.5498 15.9268C6.60048 16.0062 6.61715 16.0913 6.61719 16.167C6.61719 16.3258 6.53121 16.445 6.43066 16.5117C6.33908 16.5724 6.23559 16.5928 6.14941 16.5928C6.02061 16.5928 5.74725 16.609 5.51953 16.6543L5.5127 16.6553C5.26044 16.7 5.15219 16.7825 5.08691 16.8838C5.00782 17.0066 4.95708 17.2085 4.93652 17.5645V17.5664C4.8953 18.2233 4.89551 18.796 4.89551 22.0635V26.0859H4.87988C4.88261 27.4648 4.90434 28.4627 4.9668 29.1641C5.00027 29.54 5.04422 29.8191 5.09863 30.0205C5.14064 30.176 5.18409 30.2659 5.21875 30.3164L5.25 30.3545L5.25195 30.3574C5.3687 30.4737 5.53154 30.5727 5.87305 30.6436C6.22488 30.7165 6.74559 30.7549 7.56055 30.7549L7.56052 31.0549L6.99609 31.0479C5.78936 31.0145 5.33451 30.8626 5.04047 30.5698C4.66287 30.2012 4.57847 28.8537 4.57846 25.7857H4.59526ZM52.8057 23.9043C52.8057 23.014 52.5699 22.338 52.1787 21.8896C51.7919 21.4464 51.226 21.1925 50.4941 21.1924C50.2761 21.1924 50.0688 21.203 49.9004 21.2188C49.7979 21.2284 49.7174 21.2398 49.6602 21.25V26.0244C49.6901 26.0362 49.7321 26.052 49.7891 26.0674C49.8831 26.0927 50.0008 26.1169 50.1357 26.1377C50.4059 26.1792 50.7311 26.2051 51.0479 26.2051L51.0481 26.505C50.3845 26.505 49.6873 26.3962 49.4605 26.2624C49.3849 26.2122 49.3513 26.1537 49.3513 26.0784H49.3597V21.1688C49.3597 21.0768 49.4017 21.0183 49.4773 20.9848C49.6285 20.9347 50.0401 20.8928 50.4937 20.8928L50.7891 20.9062C52.2277 21.0373 53.1061 22.1397 53.1061 23.9038L53.1016 24.1143C53.0564 25.1489 52.6782 25.8833 52.1821 26.2206L52.0498 26.3027C51.7321 26.4733 51.3643 26.505 51.0481 26.505L51.0479 26.2051C51.3963 26.2051 51.745 26.1621 52.0098 25.9756L52.0137 25.9727C52.4305 25.6894 52.8056 24.9935 52.8057 23.9043ZM59.2383 20.5081C59.2382 20.4582 59.2239 20.4221 59.1465 20.4072L59.0451 20.3994C58.457 20.3994 57.8858 20.4412 57.7766 20.4412L57.7764 20.1416C57.8221 20.1416 57.9748 20.1312 58.2178 20.1201C58.4496 20.1096 58.7445 20.0996 59.0449 20.0996C59.1339 20.0996 59.2658 20.1064 59.375 20.1816C59.5243 20.2846 59.538 20.4389 59.5381 20.5078C59.5381 20.6148 59.4911 20.7005 59.4336 20.7578C59.3858 20.8054 59.3325 20.8331 59.3037 20.8467C59.2723 20.8615 59.2366 20.8742 59.2119 20.8838C59.1875 20.8933 59.165 20.9022 59.1416 20.9121C59.1316 20.9173 59.1242 20.922 59.1191 20.9258C59.1232 21.024 59.1646 21.1388 59.2734 21.3486L60.6514 23.7236C61.0741 24.4477 61.501 25.1699 61.7744 25.6328C62.0265 25.1648 62.4062 24.4917 62.7812 23.8389C63.3356 22.874 63.8942 21.9236 64.0479 21.6729C64.2205 21.3886 64.2636 21.1916 64.2637 21.0605C64.2637 21.0218 64.2612 20.9905 64.2568 20.9668C64.2538 20.9502 64.2497 20.9393 64.2471 20.9326L64.2422 20.9316L64.2314 20.9287C64.1712 20.91 64.0809 20.8815 64.0068 20.8389C63.9364 20.7983 63.8264 20.7114 63.7998 20.5605L63.7939 20.4912L63.8018 20.4131C63.838 20.2441 63.9868 20.1676 64.0537 20.1426C64.1439 20.1089 64.2457 20.0996 64.3369 20.0996C64.5433 20.0996 64.7693 20.1106 64.9551 20.1211C65.1513 20.1322 65.2852 20.1416 65.3369 20.1416L65.3368 20.4412L64.9375 20.4199C64.8453 20.4147 64.7447 20.4102 64.6426 20.4062L64.3372 20.3994C64.186 20.3994 64.0935 20.4328 64.0935 20.4914C64.0935 20.5667 64.1859 20.6001 64.3203 20.6419C64.5051 20.6837 64.5639 20.851 64.5639 21.0601L64.5508 21.2207C64.5228 21.3907 64.4482 21.5915 64.3036 21.8296L63.8232 22.6396C63.1413 23.8043 62.0063 25.7771 61.7919 26.2541C61.6574 26.0365 61.0235 24.9557 60.3926 23.875L59.0115 21.495C58.9232 21.3257 58.8588 21.1845 58.832 21.0469L58.8182 20.9096C58.8182 20.7925 58.8938 20.7005 59.0115 20.6419C59.129 20.5908 59.2149 20.5716 59.2344 20.5283L59.2383 20.5081ZM30.7451 20.0996C31.0371 20.0996 31.3448 20.1096 31.5938 20.1201C31.8517 20.131 32.03 20.1416 32.0889 20.1416L32.089 20.4412L31.5811 20.4199C31.457 20.4147 31.3192 20.4102 31.1768 20.4062L30.7449 20.3994C30.5601 20.3994 30.4845 20.4496 30.4845 20.5081C30.4845 20.5834 30.5265 20.6168 30.6189 20.6168C30.7113 20.6168 30.9213 20.6168 31.0725 20.6587C31.2238 20.7005 31.333 20.8176 31.333 20.9263L31.3242 21.0566C31.3073 21.1826 31.2637 21.3005 31.1818 21.4699C31.0305 21.7878 29.4093 24.3638 28.9557 25.0078C28.1661 23.7114 27.5529 22.5991 26.9145 21.4114C26.8453 21.2923 26.7943 21.1588 26.7734 21.0361L26.7633 20.9179C26.7633 20.8092 26.8137 20.7005 26.9481 20.6587C27.0301 20.6315 27.1409 20.6234 27.2334 20.6201L27.3597 20.6168C27.4291 20.6168 27.4703 20.598 27.4863 20.5566L27.4941 20.5081C27.494 20.4512 27.4649 20.4179 27.3594 20.4053L27.2337 20.3994C26.7218 20.3994 25.9496 20.4411 25.8141 20.4412L25.8145 20.1416C25.8746 20.1416 26.089 20.1309 26.3711 20.1201C26.6451 20.1097 26.9711 20.0996 27.2334 20.0996C27.3374 20.0996 27.463 20.1047 27.5674 20.1523C27.6301 20.181 27.6965 20.2303 27.7422 20.3086C27.7857 20.3834 27.7939 20.4573 27.7939 20.5078C27.7939 20.6017 27.7652 20.7309 27.6494 20.8242C27.5482 20.9057 27.4311 20.917 27.3594 20.917C27.313 20.917 27.2513 20.9165 27.1875 20.9209C27.1355 20.9245 27.0939 20.931 27.0654 20.9375C27.0691 20.9984 27.0877 21.0798 27.125 21.165L27.1738 21.2607L27.1787 21.2695C27.7481 22.3288 28.2982 23.3241 28.9688 24.4443C29.2269 24.053 29.5873 23.498 29.9277 22.957C30.1677 22.5757 30.3988 22.2048 30.5781 21.9102C30.7623 21.6076 30.8816 21.4028 30.9111 21.3408L30.9121 21.3389C31.0006 21.1559 31.0253 21.0669 31.0303 20.9658C31.0284 20.9646 31.0266 20.9622 31.0244 20.9609C31.0154 20.9557 31.0042 20.9516 30.9922 20.9482C30.9461 20.9355 30.8799 20.9266 30.8047 20.9219C30.7322 20.9173 30.6652 20.917 30.6191 20.917C30.5474 20.917 30.4303 20.9057 30.3291 20.8242C30.2422 20.7542 30.2039 20.6642 30.1904 20.584L30.1846 20.5078L30.1904 20.4414C30.2165 20.2951 30.3256 20.2034 30.417 20.1602C30.5163 20.1132 30.6324 20.0996 30.7451 20.0996Z" fill="#346875"/>
<path d="M156.442 4.58623C154.565 2.41819 151.451 1.82691 148.837 1.68288C143.155 1.43272 137.579 4.34365 133.233 7.73973C127.946 11.8332 120.79 20.4523 119.453 22.0821C114.264 28.2375 109.531 34.0063 104.783 37.8497C97.8169 43.4668 89.9162 48 80.1922 48C72.0408 48 68.0904 44.4978 69.1768 38.7366C69.4731 37.2584 70.7114 34.4005 72.6865 32.8768C72.489 31.8913 72.4359 30.8528 72.4359 29.7688C72.4359 24.4927 75.4442 16.7075 82.1142 10.9918C88.7311 5.32154 99.1464 0.788377 110.017 0.788377C113.474 0.788377 116.536 1.28111 118.807 1.87239C119.156 1.18256 119.346 0.545799 119.4 0C119.893 0.644346 120.144 1.43272 120.144 2.2211C121.132 2.61529 121.922 2.91093 122.416 3.20657C122.963 3.54769 123.304 4.04043 123.061 4.2451C122.864 4.38913 122.621 4.09349 122.271 3.8964C121.831 3.60076 121.086 3.25205 120.099 2.96399C119.901 4.09349 119.407 5.47315 118.913 6.26153C116.642 9.80922 112.737 14.4409 107.305 19.8155C107.359 20.4068 107.404 20.9526 107.404 21.5894C107.404 23.4163 107.108 25.2356 106.569 26.9109C108.642 25.3342 110.815 23.6058 113.33 21.6349C117.576 18.2843 125.234 11.7802 132.838 6.60265C138.019 3.05496 143.899 0 149.035 0C152.241 0 155.257 1.18256 156.791 4.23752C156.89 4.43462 156.989 4.63171 156.791 4.77574C156.639 4.87429 156.541 4.68478 156.442 4.58623ZM115.7 21.0436C113.375 22.8705 109.873 25.6753 106.022 28.3891C102.618 36.2198 93.7222 41.5414 84.1958 41.5414C78.0727 41.5414 74.1224 38.638 72.8385 33.4605C71.3039 34.9387 70.3695 37.2508 70.0732 38.6835C69.0401 43.9065 72.4966 47.06 80.2986 47.06C88.3968 47.06 96.9433 41.6399 103.112 36.4169C106.075 33.9002 110.77 29.2761 115.259 24.5913C117.926 21.7865 124.102 15.0322 127.802 11.439C122.864 15.0322 118.465 18.8756 115.7 21.0436ZM109.828 1.82691C99.7541 1.92546 89.7263 6.79975 83.4057 12.326C76.9864 17.9431 73.3323 24.8414 73.3323 29.7688C73.3323 37.0158 77.6321 40.8061 84.1958 40.8061C92.7422 40.8061 101.038 36.1744 104.639 29.2761C101.03 31.7397 97.1332 34.0063 93.5779 35.2874C92.2408 35.7802 89.7719 36.5685 89.0806 35.0903C88.5336 33.9533 90.5619 32.0354 91.9901 30.7012C97.0724 26.024 99.6478 24.0455 104.236 19.4668C104.73 18.9741 105.269 18.4359 105.816 17.837C104.138 13.8951 99.9896 11.7726 96.5786 11.7726C93.4715 11.7726 90.2581 12.8111 87.8878 15.2748C87.0522 16.1617 86.3533 17.0941 85.9127 18.4283C85.8595 18.6254 85.8139 19.0196 85.5632 18.9665C85.3657 18.9135 85.3657 18.5193 85.4189 18.4283C85.7683 16.9501 86.5584 15.7675 87.4472 14.7821C89.7643 12.2653 92.9777 11.0373 96.4875 11.0373C100.635 11.0373 104.684 13.3039 106.462 17.1472C109.425 13.9937 113.178 9.80164 115.449 6.94378C116.688 5.46557 117.721 3.94188 118.465 2.56222C116.391 2.12255 113.482 1.77385 109.828 1.82691ZM106.569 20.4978C105.824 21.1876 105.087 21.8774 104.343 22.6128C100.096 26.6532 97.0345 29.0638 93.7222 31.9292C92.7878 32.7176 91.6483 33.9002 91.747 34.3399C91.8458 35.0297 92.9853 34.8857 94.4667 34.2413C98.7134 32.3159 101.972 30.2539 105.33 27.7903C106.12 25.8648 106.569 23.8484 106.569 21.6273C106.569 21.2862 106.569 20.892 106.569 20.4978ZM127.847 29.5111C126.313 31.3835 125.28 32.7631 126.016 33.1118C126.753 33.4605 129.427 31.5881 130.802 30.5041C132.383 29.2685 134.312 27.5477 135.497 26.5092C135.642 26.3651 135.938 26.2135 136.09 26.4637C136.242 26.7593 136.044 26.9034 135.847 27.1004C134.411 28.3361 132.436 30.0038 131.251 30.9893C129.769 32.1718 127.255 33.9457 125.963 33.9457C124.284 33.9457 123.35 32.4675 125.173 29.7536C122.309 32.1718 119.643 33.9457 118.063 33.9457C114.705 33.9457 116.824 28.8667 120.235 25.4176C124.14 21.4226 130.757 18.0265 132.876 19.2546C133.515 19.6488 133.712 20.7783 131.79 22.6052C133.765 20.9754 135.095 19.9975 135.938 19.7018C136.576 19.5047 137.222 19.4517 137.868 19.5047C133.628 23.3102 129.579 27.4946 127.847 29.5111ZM122.514 26.6077C119.506 29.5111 117.136 32.7176 118.268 33.2104C119.156 33.6045 123.502 30.5951 127.695 26.3121C129.625 24.3411 133.522 20.6949 132.481 19.9065C131.555 19.1712 127.749 21.6349 122.514 26.6077ZM145.229 24.5837C144.781 24.9779 143.793 25.6222 143.299 25.031C142.752 24.3411 144.036 23.4087 144.826 22.916C146.9 21.6349 147.394 20.2552 146.703 19.8155C145.768 19.1788 141.127 23.2647 138.559 25.7284C134.259 29.8219 133.18 32.5281 134.259 33.1725C135.444 33.8092 138.506 32.1339 139.736 31.3001C141.567 30.0644 144.279 27.7978 145.662 26.5698C145.859 26.4182 146.103 26.3196 146.254 26.4713C146.406 26.5698 146.353 26.82 146.156 26.964C144.826 28.2906 142.699 30.019 140.967 31.3001C139.243 32.5357 137.214 33.7637 135.042 34.0063C133.112 34.2034 131.98 33.1725 132.033 31.6412C132.033 29.4201 133.758 26.8579 136.234 24.5913C140.086 21.0436 145.419 18.3373 147.098 19.3228C148.138 19.9141 147.493 21.4454 147.196 22.0821C146.763 23.0069 146.118 23.9015 145.229 24.5837ZM181.397 8.82375C181.101 8.87682 180.661 8.33102 180.41 8.08086C179.422 7.14845 177.941 6.16298 175.32 6.16298C171.522 6.16298 168.065 8.08086 164.654 10.5445C160.856 13.4555 156.062 18.1327 150.63 24.0985C153.054 22.2262 159.42 18.5268 161.448 19.1712C164.608 20.1567 160.362 24.2956 157.992 26.4106C156.457 27.8358 155.029 29.1244 154.041 30.2539C152.461 32.0278 151.967 32.8162 152.461 33.2104C153 33.6045 155.082 32.566 157.004 31.1939C158.736 29.9583 160.711 28.283 161.942 27.199C162.139 27.0474 162.39 26.8048 162.588 27.0474C162.732 27.2975 162.588 27.5401 162.39 27.7372C160.856 29.0638 158.88 30.7391 157.156 31.9747C155.082 33.4075 153.008 34.2413 151.823 33.9987C150.585 33.7031 149.992 31.8838 151.625 29.5641C152.864 27.8358 153.851 26.9488 155.872 25.0764C157.551 23.5527 161.744 20.2931 160.757 19.8989C159.617 19.4062 153 22.9008 149.939 25.5161C146.581 28.3285 144.165 31.7246 142.486 34.2337C141.894 34.2337 141.696 32.9526 141.993 32.3083C143.672 28.8136 146.634 25.3114 148.169 23.6361C153.403 17.8219 158.934 12.8414 163.135 9.98357C166.439 7.61845 172.023 5.35186 175.533 5.35186C178.739 5.35186 180.911 6.28427 181.656 7.66393C181.846 8.13392 181.747 8.67214 181.397 8.82375ZM186.601 9.11939C185.515 9.11939 183.783 9.65761 182.4 10.5445C179.438 12.5155 175.783 15.7675 171.339 20.3992C171.977 20.3992 174.051 20.3462 175.138 20.4523C175.236 20.4523 175.533 20.6494 175.388 20.892C175.29 21.1346 175.039 21.0891 174.841 21.0891C173.953 21.036 171.734 21.036 170.595 21.1346C169.706 22.0215 168.817 22.9084 167.928 23.8484C162.793 29.1244 160.028 32.422 161.357 33.2104C162.2 33.7031 164.419 32.3689 166.052 31.1409C167.184 30.254 169.759 28.139 171.339 26.6608C171.537 26.5092 171.833 26.3121 172.031 26.5092C172.228 26.8048 171.886 27.0474 171.681 27.2975C170.443 28.4346 168.027 30.5041 166.204 31.8762C164.031 33.506 162.056 34.4915 160.628 33.9912C159.048 33.3999 159.101 31.482 160.233 29.6096C161.319 27.8358 163.742 25.0764 167.64 21.1346C166.796 21.1346 165.467 21.2862 164.776 21.3316C164.624 21.3316 164.183 21.3771 164.183 21.0815C164.236 20.8844 164.631 20.7859 164.829 20.7328C165.421 20.6342 167.146 20.5888 168.331 20.4902C171.59 17.1927 175.935 13.4403 179.248 11.2268C182.21 9.20278 184.778 8.4144 186.556 8.4144C188.09 8.4144 188.136 9.24826 187.885 9.34681C187.589 9.55906 187.931 9.11939 186.601 9.11939Z" fill="#346875"/>
<path d="M200.149 26.5171C200.149 24.8608 200.042 24.6405 199.218 24.412C199.053 24.3712 198.699 24.3468 198.517 24.3468C198.435 24.3468 198.353 24.306 198.353 24.2244C198.353 24.102 198.46 24.0612 198.682 24.0612C199.614 24.0612 200.908 24.1265 201.007 24.1265C201.106 24.1265 202.408 24.0612 203.026 24.0612C203.257 24.0612 203.356 24.102 203.356 24.2244C203.356 24.306 203.273 24.3468 203.191 24.3468C203.051 24.3468 202.919 24.3712 202.672 24.412C202.119 24.5181 201.946 24.8608 201.913 25.5706C201.872 26.2234 201.872 26.8353 201.872 27.692V29.9765C201.872 30.8985 201.847 30.9312 201.6 31.078C200.281 31.7715 198.427 32 197.232 32C195.666 32 192.739 31.796 190.448 29.8215C189.195 28.7364 188 26.5579 188 24.0041C188 20.7404 189.607 18.4314 191.437 17.2891C193.292 16.1469 195.328 16 196.918 16C198.213 16 199.68 16.2693 200.075 16.3508C200.504 16.4569 201.229 16.5385 201.74 16.5548C201.946 16.5711 201.988 16.6609 201.988 16.7425C201.988 17.028 201.847 17.5992 201.847 19.639C201.847 19.9653 201.806 20.0632 201.666 20.0632C201.559 20.0632 201.542 19.9408 201.526 19.7532C201.501 19.4676 201.402 18.8965 201.089 18.4069C200.57 17.6318 198.905 16.7588 196.243 16.7588C194.94 16.7588 193.399 16.8812 191.833 18.105C190.638 19.0433 189.797 20.9036 189.797 23.2861C189.797 26.1662 191.264 28.2468 191.981 28.9322C193.605 30.4987 195.484 31.1107 197.38 31.1107C198.122 31.1107 199.193 30.9883 199.729 30.6864C200.001 30.5477 200.141 30.3192 200.141 29.9684V26.5171H200.149ZM205.037 24.8608C205.037 22.5681 205.037 22.1601 205.004 21.6869C204.971 21.1892 204.856 20.9526 204.37 20.8465C204.254 20.8139 203.999 20.8057 203.867 20.8057C203.809 20.8057 203.751 20.7731 203.751 20.716C203.751 20.6262 203.826 20.6017 203.991 20.6017C204.658 20.6017 205.59 20.6425 205.664 20.6425C205.829 20.6425 206.958 20.6017 207.411 20.6017C208.343 20.6017 209.34 20.6915 210.123 21.2463C210.494 21.5074 211.145 22.2336 211.145 23.2453C211.145 24.3304 210.683 25.4156 209.348 26.6395C210.568 28.1815 211.574 29.487 212.431 30.4008C213.23 31.2412 213.873 31.3962 214.244 31.4615C214.524 31.5023 214.731 31.5023 214.821 31.5023C214.895 31.5023 214.953 31.5431 214.953 31.592C214.953 31.6818 214.862 31.7063 214.599 31.7063H213.544C212.711 31.7063 212.34 31.6328 211.953 31.4289C211.318 31.0943 210.799 30.3682 209.95 29.2667C209.323 28.459 208.631 27.4717 208.334 27.0964C208.277 27.0393 208.227 27.0066 208.145 27.0066L206.323 26.974C206.249 26.974 206.216 27.0148 206.216 27.0882V27.4391C206.216 28.8506 206.216 30.0092 206.29 30.6293C206.331 31.0535 206.422 31.3799 206.867 31.437C207.073 31.4697 207.403 31.4941 207.535 31.4941C207.625 31.4941 207.65 31.5349 207.65 31.5839C207.65 31.6573 207.576 31.6981 207.411 31.6981C206.595 31.6981 205.664 31.6573 205.59 31.6573C205.573 31.6573 204.642 31.6981 204.197 31.6981C204.032 31.6981 203.958 31.6655 203.958 31.5839C203.958 31.5431 203.99 31.4941 204.073 31.4941C204.205 31.4941 204.386 31.4615 204.518 31.437C204.815 31.3799 204.889 31.0535 204.947 30.6293C205.021 30.0092 205.021 28.8506 205.021 27.4391V24.8608H205.037ZM206.224 26.1336C206.224 26.207 206.257 26.2642 206.331 26.3131C206.554 26.4437 207.238 26.5497 207.889 26.5497C208.244 26.5497 208.664 26.5089 209.002 26.2723C209.521 25.9215 209.909 25.13 209.909 24.0122C209.909 22.1764 208.928 21.075 207.345 21.075C206.9 21.075 206.496 21.1158 206.348 21.1647C206.274 21.1973 206.232 21.2545 206.232 21.3442V26.1336H206.224ZM220.006 20.3896C223.344 20.3896 225.833 22.4783 225.833 25.897C225.833 29.1851 223.492 31.9021 219.915 31.9021C215.851 31.9021 214.162 28.7772 214.162 26.1336C214.162 23.7593 215.909 20.3896 220.006 20.3896ZM220.319 31.3473C221.654 31.3473 224.415 30.5803 224.415 26.3131C224.415 22.7884 222.248 20.8955 219.907 20.8955C217.426 20.8955 215.571 22.511 215.571 25.7257C215.571 29.1443 217.648 31.3473 220.319 31.3473ZM228.199 24.8608C228.199 22.5681 228.199 22.1601 228.166 21.6869C228.133 21.1892 228.017 20.9526 227.531 20.8465C227.416 20.8139 227.16 20.8057 227.028 20.8057C226.971 20.8057 226.913 20.7731 226.913 20.716C226.913 20.6262 226.987 20.6017 227.152 20.6017C227.82 20.6017 228.726 20.6425 228.858 20.6425C228.99 20.6425 229.88 20.6017 230.325 20.6017C230.49 20.6017 230.564 20.6344 230.564 20.716C230.564 20.7731 230.507 20.8057 230.449 20.8057C230.342 20.8057 230.259 20.822 230.078 20.8465C229.674 20.9036 229.559 21.1729 229.526 21.6869C229.493 22.1601 229.493 22.5681 229.493 24.8608V26.9169C229.493 29.0301 229.971 29.9439 230.606 30.5477C231.331 31.2249 231.999 31.3554 232.848 31.3554C233.754 31.3554 234.644 30.9312 235.18 30.2947C235.864 29.4544 236.037 28.206 236.037 26.6966V24.8608C236.037 22.5681 236.037 22.1601 236.004 21.6869C235.972 21.1892 235.856 20.9526 235.37 20.8465C235.254 20.8139 234.999 20.8057 234.867 20.8057C234.809 20.8057 234.752 20.7731 234.752 20.716C234.752 20.6262 234.826 20.6017 234.991 20.6017C235.658 20.6017 236.474 20.6425 236.565 20.6425C236.672 20.6425 237.364 20.6017 237.81 20.6017C237.974 20.6017 238.049 20.6344 238.049 20.716C238.049 20.7731 237.991 20.8057 237.933 20.8057C237.826 20.8057 237.744 20.8057 237.562 20.8465C237.158 20.9199 237.043 21.1729 237.01 21.6869C236.977 22.1601 236.977 22.5681 236.977 24.8608V26.4355C236.977 28.0184 236.796 29.7807 235.609 30.8251C234.537 31.7634 233.425 31.9102 232.551 31.9102C232.048 31.9102 230.548 31.8531 229.493 30.8659C228.768 30.1724 228.199 29.1443 228.199 27.0066V24.8608ZM240.999 24.8608C240.999 22.5681 240.999 22.1601 240.966 21.6869C240.934 21.1892 240.818 20.9526 240.332 20.8465C240.216 20.8139 239.961 20.8057 239.829 20.8057C239.771 20.8057 239.714 20.7731 239.714 20.716C239.714 20.6262 239.788 20.6017 239.953 20.6017C240.62 20.6017 241.51 20.6425 241.626 20.6425C241.956 20.6425 242.813 20.6017 243.497 20.6017C245.352 20.6017 246.019 21.2218 246.258 21.4421C246.588 21.7522 247 22.4131 247 23.1882C247 25.2769 245.459 26.6803 243.349 26.6803C243.274 26.6803 243.11 26.6803 243.035 26.6639C242.961 26.6639 242.87 26.6313 242.87 26.5579C242.87 26.4437 242.961 26.4273 243.274 26.4273C244.717 26.4273 245.838 25.383 245.838 24.0367C245.838 23.5553 245.797 22.5681 245.005 21.7766C244.222 20.9852 243.316 21.0423 242.969 21.0423C242.714 21.0423 242.467 21.075 242.335 21.1321C242.244 21.1647 242.219 21.2626 242.219 21.4095V27.4472C242.219 28.8587 242.219 30.0173 242.294 30.6374C242.335 31.0617 242.425 31.3881 242.87 31.4452C243.077 31.4778 243.406 31.5023 243.538 31.5023C243.629 31.5023 243.654 31.5431 243.654 31.592C243.654 31.6655 243.579 31.7063 243.414 31.7063C242.598 31.7063 241.667 31.6655 241.593 31.6655C241.552 31.6655 240.612 31.7063 240.167 31.7063C240.002 31.7063 239.928 31.6736 239.928 31.592C239.928 31.5512 239.961 31.5023 240.043 31.5023C240.175 31.5023 240.357 31.4697 240.488 31.4452C240.785 31.3881 240.859 31.0617 240.917 30.6374C240.991 30.0173 240.991 28.8587 240.991 27.4472V24.8608H240.999Z" fill="#346875"/>
<path d="M236.977 26.4355V24.8608C236.977 22.5681 236.977 22.1601 237.01 21.6869C237.043 21.1729 237.158 20.9199 237.562 20.8465C237.672 20.8219 237.745 20.8125 237.81 20.8086L237.933 20.8057C237.977 20.8056 238.02 20.7873 238.039 20.7539L238.049 20.716C238.049 20.6344 237.974 20.6017 237.81 20.6017C237.365 20.6017 236.674 20.6424 236.565 20.6425L236.565 20.3428C236.611 20.3427 236.797 20.3328 237.048 20.3223C237.29 20.3121 237.58 20.3018 237.81 20.3018C237.899 20.3018 238.016 20.3085 238.118 20.3564C238.176 20.3834 238.238 20.4279 238.285 20.499C238.332 20.5712 238.349 20.6485 238.349 20.7158C238.349 20.8588 238.272 20.9665 238.186 21.0273C238.106 21.0837 238.014 21.1054 237.934 21.1055C237.839 21.1055 237.78 21.1054 237.628 21.1396L237.616 21.1416C237.477 21.167 237.432 21.2112 237.403 21.2578C237.36 21.3281 237.326 21.4563 237.31 21.7061V21.708C237.278 22.1677 237.277 22.5614 237.277 24.8604V26.4355C237.277 27.9624 237.116 29.79 235.926 30.9414L235.807 31.0508C234.659 32.0554 233.463 32.21 232.551 32.21C232.042 32.21 230.434 32.1576 229.288 31.085L229.285 31.083C228.489 30.3215 227.898 29.2081 227.898 27.0068V24.8604C227.898 22.5614 227.898 22.1677 227.866 21.708C227.85 21.4668 227.816 21.3538 227.772 21.291C227.739 21.2426 227.671 21.1841 227.467 21.1396L227.458 21.1377L227.449 21.1348C227.425 21.128 227.361 21.1194 227.267 21.1133C227.18 21.1077 227.089 21.1055 227.028 21.1055C226.948 21.1055 226.855 21.0839 226.775 21.0273C226.711 20.9817 226.652 20.9097 226.626 20.8164L226.613 20.7158L226.626 20.6113C226.635 20.5746 226.65 20.5363 226.674 20.499C226.722 20.4234 226.789 20.3772 226.85 20.3506C226.953 20.3051 227.071 20.3018 227.152 20.3018C227.491 20.3018 227.889 20.3121 228.216 20.3223C228.55 20.3327 228.799 20.3428 228.858 20.3428L228.858 20.6425L228.206 20.6221C228.043 20.617 227.863 20.6122 227.682 20.6084L227.152 20.6017C226.987 20.6017 226.913 20.6262 226.913 20.716C226.913 20.7731 226.971 20.8057 227.028 20.8057C227.16 20.8057 227.416 20.8139 227.531 20.8465C228.017 20.9526 228.133 21.1892 228.166 21.6869C228.199 22.1601 228.199 22.5681 228.199 24.8608V27.0066L228.205 27.3945C228.27 29.2715 228.813 30.2157 229.493 30.8659C230.548 31.8531 232.048 31.9102 232.551 31.9102C233.37 31.9102 234.399 31.7812 235.407 30.9922L235.609 30.8251C236.647 29.9114 236.916 28.448 236.967 27.0361L236.977 26.4355ZM225.833 25.897C225.833 22.5852 223.497 20.5214 220.316 20.3955L220.006 20.3896C215.909 20.3896 214.162 23.7593 214.162 26.1336L214.167 26.3828C214.267 28.886 215.87 31.7128 219.541 31.8926L219.915 31.9021C223.381 31.9021 225.686 29.3521 225.826 26.2031L225.833 25.897ZM204.721 27.4395V24.5605H204.736C204.736 22.5258 204.736 22.1469 204.705 21.708C204.689 21.4668 204.654 21.3538 204.61 21.291C204.577 21.2427 204.509 21.1841 204.306 21.1396L204.297 21.1377L204.288 21.1348C204.264 21.128 204.2 21.1194 204.105 21.1133C204.019 21.1077 203.928 21.1055 203.867 21.1055C203.786 21.1055 203.694 21.0839 203.614 21.0273C203.528 20.9665 203.451 20.8589 203.451 20.7158C203.451 20.652 203.465 20.5738 203.513 20.499C203.561 20.4235 203.627 20.3772 203.688 20.3506C203.79 20.305 203.908 20.3018 203.99 20.3018C204.329 20.3018 204.732 20.3121 205.059 20.3223C205.222 20.3274 205.367 20.3321 205.476 20.3359C205.53 20.3378 205.574 20.3397 205.607 20.3408C205.624 20.3414 205.638 20.3415 205.648 20.3418C205.653 20.3419 205.657 20.3427 205.66 20.3428C205.663 20.3428 205.664 20.3428 205.664 20.3428L205.664 20.6425L205.05 20.6221C204.724 20.6119 204.324 20.6017 203.991 20.6017C203.826 20.6017 203.751 20.6262 203.751 20.716C203.751 20.7731 203.809 20.8057 203.867 20.8057C203.999 20.8057 204.254 20.8139 204.37 20.8465C204.856 20.9526 204.971 21.1892 205.004 21.6869C205.037 22.1601 205.037 22.5681 205.037 24.8608H205.021L205.02 28.4463C205.016 29.3963 205.002 30.1642 204.947 30.6293C204.889 31.0535 204.815 31.3799 204.518 31.437C204.386 31.4615 204.205 31.4941 204.073 31.4941C203.99 31.4941 203.958 31.5431 203.958 31.5839C203.958 31.645 203.999 31.6784 204.09 31.6914L204.197 31.6981C204.642 31.6981 205.573 31.6573 205.59 31.6573L206.222 31.6777C206.394 31.6828 206.589 31.6876 206.793 31.6914L207.411 31.6981C207.555 31.6981 207.63 31.667 207.646 31.6104L207.65 31.5839C207.65 31.5471 207.636 31.5147 207.591 31.501L207.535 31.4941C207.403 31.4941 207.073 31.4697 206.867 31.437C206.422 31.3799 206.331 31.0535 206.29 30.6293C206.235 30.1642 206.22 29.3962 206.217 28.4463L206.216 27.0882C206.216 27.0148 206.249 26.974 206.323 26.974L208.145 27.0066L208.201 27.0127C208.252 27.0246 208.291 27.0536 208.334 27.0964C208.631 27.4717 209.323 28.459 209.95 29.2667C210.799 30.3682 211.318 31.0943 211.953 31.4289C212.292 31.6072 212.618 31.6863 213.252 31.7031L213.544 31.7063H214.599C214.829 31.7063 214.927 31.6875 214.948 31.623L214.953 31.592C214.953 31.5554 214.92 31.5235 214.873 31.5098L214.821 31.5023C214.731 31.5023 214.524 31.5023 214.244 31.4615C213.873 31.3962 213.23 31.2412 212.431 30.4008C211.574 29.487 210.568 28.1815 209.348 26.6395C210.683 25.4156 211.145 24.3304 211.145 23.2453C211.145 22.36 210.647 21.6929 210.273 21.3652L210.123 21.2463C209.34 20.6915 208.343 20.6017 207.411 20.6017C206.958 20.6017 205.83 20.6425 205.664 20.6425L205.664 20.3428C205.741 20.3427 206.056 20.3326 206.421 20.3223C206.779 20.3121 207.179 20.3018 207.411 20.3018C208.349 20.3018 209.43 20.3885 210.295 21.001C210.717 21.2983 211.445 22.1057 211.445 23.2451C211.445 24.3756 210.98 25.4775 209.753 26.668C210.901 28.1215 211.842 29.3345 212.648 30.1943L212.786 30.334C213.466 30.9946 213.994 31.1129 214.296 31.166C214.551 31.2026 214.737 31.2021 214.821 31.2021C214.911 31.2022 215.005 31.227 215.085 31.2822C215.164 31.3365 215.253 31.4408 215.253 31.5918C215.253 31.668 215.233 31.7609 215.164 31.8418C215.101 31.9164 215.022 31.9508 214.964 31.9688C214.859 32.0016 214.726 32.0059 214.599 32.0059H213.544C212.693 32.0059 212.264 31.9319 211.812 31.6943C211.447 31.5017 211.13 31.2043 210.806 30.833C210.482 30.4629 210.132 29.9947 209.712 29.4502C209.396 29.0429 209.065 28.5905 208.776 28.1963C208.497 27.814 208.262 27.4918 208.116 27.3057L206.516 27.2773V27.4395C206.516 28.684 206.516 29.708 206.564 30.3447L206.588 30.5938L206.589 30.6006C206.609 30.8104 206.639 30.9388 206.686 31.0186C206.709 31.0592 206.742 31.0973 206.816 31.1211L206.905 31.1396L206.914 31.1406L207.253 31.1787C207.37 31.1883 207.478 31.1943 207.535 31.1943C207.619 31.1944 207.736 31.2121 207.831 31.3008C207.931 31.3942 207.95 31.5118 207.95 31.584C207.95 31.6553 207.931 31.731 207.885 31.7998C207.84 31.8667 207.781 31.9103 207.726 31.9375C207.624 31.9877 207.509 31.998 207.411 31.998C206.999 31.998 206.558 31.9878 206.213 31.9775C206.04 31.9724 205.891 31.9677 205.78 31.9639C205.725 31.9619 205.679 31.9601 205.646 31.959C205.629 31.9584 205.616 31.9583 205.605 31.958C205.6 31.9579 205.596 31.9571 205.593 31.957C205.591 31.957 205.59 31.957 205.59 31.957C205.59 31.9572 205.541 31.9599 205.439 31.9639C205.343 31.9677 205.21 31.9724 205.064 31.9775C204.774 31.9877 204.425 31.998 204.196 31.998C204.107 31.998 203.99 31.9914 203.888 31.9434C203.83 31.9164 203.767 31.872 203.721 31.8008C203.697 31.7647 203.682 31.7272 203.672 31.6904L203.657 31.584L203.665 31.5088C203.68 31.4343 203.718 31.3621 203.779 31.3047C203.864 31.2259 203.971 31.1943 204.073 31.1943L204.253 31.1777C204.321 31.168 204.393 31.1545 204.463 31.1416C204.486 31.137 204.512 31.1287 204.548 31.0488C204.591 30.9515 204.619 30.805 204.648 30.5918C204.72 29.994 204.721 28.8605 204.721 27.4395ZM229.493 26.9169V24.8608C229.493 22.5681 229.493 22.1601 229.526 21.6869C229.559 21.1729 229.674 20.9036 230.078 20.8465C230.187 20.8318 230.261 20.8215 230.325 20.8145L230.449 20.8057C230.492 20.8057 230.536 20.7873 230.555 20.7539L230.564 20.716C230.564 20.6344 230.49 20.6017 230.325 20.6017C229.88 20.6017 228.99 20.6425 228.858 20.6425L228.858 20.3428C228.918 20.3428 229.162 20.3327 229.464 20.3223C229.758 20.3121 230.097 20.3018 230.325 20.3018C230.415 20.3018 230.531 20.3085 230.634 20.3564C230.691 20.3834 230.754 20.4279 230.801 20.499C230.848 20.5712 230.864 20.6485 230.864 20.7158C230.864 20.8589 230.787 20.9665 230.701 21.0273C230.621 21.0837 230.53 21.1054 230.449 21.1055C230.369 21.1055 230.319 21.1155 230.119 21.1426C229.989 21.1611 229.948 21.2033 229.92 21.25C229.876 21.3228 229.841 21.4559 229.825 21.7061V21.708C229.793 22.1677 229.793 22.5614 229.793 24.8604V26.917C229.793 28.9775 230.256 29.7998 230.811 30.3281L230.935 30.4395C231.222 30.6837 231.495 30.8304 231.772 30.9199C232.093 31.0234 232.437 31.0557 232.848 31.0557L232.848 31.3554L232.537 31.3486C231.881 31.3168 231.325 31.164 230.741 30.668L230.606 30.5477C230.011 29.9816 229.553 29.143 229.498 27.2988L229.493 26.9169ZM235.737 26.6963V24.8604C235.737 22.5614 235.737 22.1677 235.705 21.708C235.689 21.4668 235.655 21.3538 235.611 21.291C235.578 21.2426 235.51 21.1842 235.306 21.1396L235.297 21.1377L235.288 21.1348C235.264 21.128 235.2 21.1194 235.105 21.1133C235.019 21.1077 234.928 21.1055 234.867 21.1055C234.786 21.1055 234.694 21.0839 234.614 21.0273C234.528 20.9665 234.451 20.8589 234.451 20.7158C234.451 20.652 234.465 20.5738 234.513 20.499C234.561 20.4235 234.627 20.3772 234.688 20.3506C234.79 20.305 234.908 20.3018 234.99 20.3018C235.329 20.3018 235.705 20.312 236.005 20.3223C236.314 20.3328 236.527 20.3428 236.565 20.3428L236.565 20.6425L235.994 20.6221C235.695 20.6119 235.324 20.6017 234.991 20.6017C234.826 20.6017 234.752 20.6262 234.752 20.716C234.752 20.7731 234.809 20.8057 234.867 20.8057C234.999 20.8057 235.254 20.8139 235.37 20.8465C235.856 20.9526 235.972 21.1892 236.004 21.6869C236.037 22.1601 236.037 22.5681 236.037 24.8608V26.6966C236.037 28.206 235.864 29.4544 235.18 30.2947C234.644 30.9312 233.754 31.3554 232.848 31.3554L232.848 31.0557C233.666 31.0556 234.469 30.6707 234.947 30.1055C235.559 29.3539 235.737 28.2031 235.737 26.6963ZM215.571 25.7257C215.571 22.511 217.426 20.8955 219.907 20.8955L220.126 20.9014C222.381 21.0159 224.415 22.8987 224.415 26.3131L224.407 26.7031C224.244 30.6271 221.613 31.3471 220.319 31.3473L220.319 31.0469C220.939 31.0468 221.886 30.8674 222.674 30.2012C223.451 29.5439 224.115 28.3769 224.115 26.3135C224.115 24.6136 223.594 23.3344 222.817 22.4844C222.041 21.6342 220.995 21.1954 219.907 21.1953C218.733 21.1953 217.733 21.5763 217.025 22.3125C216.318 23.0494 215.871 24.1758 215.871 25.7256C215.871 29.0184 217.852 31.0469 220.319 31.0469L220.319 31.3473L220.07 31.3408C217.603 31.2126 215.698 29.1756 215.577 26.043L215.571 25.7257ZM189.797 23.2861C189.797 20.9036 190.638 19.0433 191.833 18.105C193.399 16.8812 194.94 16.7588 196.243 16.7588C198.905 16.7588 200.57 17.6318 201.089 18.4069C201.402 18.8965 201.501 19.4676 201.526 19.7532C201.54 19.9173 201.555 20.0316 201.63 20.0576L201.666 20.0632C201.771 20.0632 201.821 20.0081 201.839 19.8428L201.847 19.639C201.847 17.5992 201.988 17.028 201.988 16.7425C201.988 16.6609 201.946 16.5711 201.74 16.5548C201.229 16.5385 200.504 16.4569 200.075 16.3508C199.68 16.2693 198.213 16 196.918 16C195.328 16 193.292 16.1469 191.437 17.2891C189.607 18.4314 188 20.7404 188 24.0041C188 26.5579 189.195 28.7364 190.448 29.8215C192.453 31.5494 194.944 31.9213 196.585 31.9873L197.232 32C198.352 32 200.052 31.7995 201.347 31.2031L201.6 31.078C201.785 30.968 201.846 30.9218 201.864 30.5166L201.872 29.9765V27.692C201.872 26.8353 201.872 26.2234 201.913 25.5706C201.946 24.8608 202.119 24.5181 202.672 24.412C202.857 24.3814 202.978 24.3603 203.086 24.3516L203.191 24.3468C203.263 24.3466 203.336 24.3154 203.353 24.2529L203.356 24.2244C203.356 24.102 203.257 24.0612 203.026 24.0612C202.408 24.0612 201.106 24.1265 201.007 24.1265L201.007 23.8262H201.029C201.043 23.8257 201.062 23.8251 201.085 23.8242C201.131 23.8225 201.192 23.8195 201.265 23.8164C201.41 23.8103 201.602 23.8021 201.81 23.7939C202.224 23.7777 202.71 23.7607 203.026 23.7607C203.145 23.7608 203.287 23.7694 203.406 23.8262C203.474 23.8585 203.544 23.91 203.593 23.9902C203.641 24.0696 203.656 24.1535 203.656 24.2246C203.656 24.3829 203.569 24.5005 203.47 24.5664C203.379 24.6264 203.276 24.6464 203.191 24.6465C203.083 24.6465 202.983 24.6639 202.728 24.7061C202.511 24.7477 202.414 24.8242 202.353 24.9229C202.278 25.0424 202.229 25.2411 202.213 25.585V25.5898C202.172 26.2313 202.172 26.8338 202.172 27.6924V29.9766C202.172 30.2066 202.171 30.3877 202.164 30.5303C202.158 30.6701 202.146 30.7912 202.119 30.8936C202.09 31.0051 202.041 31.1009 201.962 31.1826C201.893 31.2538 201.809 31.3024 201.753 31.3359L201.747 31.3398L201.74 31.3438C200.359 32.0699 198.448 32.2998 197.231 32.2998C195.65 32.2998 192.629 32.0972 190.252 30.0488C188.933 28.9064 187.7 26.6443 187.7 24.0039C187.7 20.6353 189.362 18.2304 191.278 17.0342H191.28C193.208 15.8469 195.314 15.7002 196.918 15.7002C198.243 15.7002 199.734 15.9738 200.136 16.0566L200.147 16.0596L200.497 16.1299C200.757 16.1733 201.061 16.2089 201.346 16.2314L201.75 16.2549L201.764 16.2559C201.902 16.2668 202.043 16.3063 202.149 16.4082C202.263 16.5172 202.287 16.6499 202.287 16.7422C202.287 16.8324 202.276 16.9387 202.264 17.0596C202.25 17.1856 202.234 17.3442 202.217 17.5566C202.182 17.9811 202.147 18.6261 202.147 19.6387C202.147 19.7963 202.14 19.9617 202.085 20.0908C202.053 20.1667 201.999 20.2456 201.909 20.2998C201.823 20.3519 201.734 20.3633 201.666 20.3633C201.577 20.3633 201.484 20.3358 201.406 20.2695C201.336 20.2092 201.3 20.1351 201.28 20.0811C201.262 20.0318 201.251 19.9766 201.243 19.9238L201.228 19.7793C201.205 19.5179 201.113 19.0047 200.84 18.5742L200.747 18.4521C200.501 18.1625 200.046 17.8373 199.361 17.5723C198.586 17.2722 197.541 17.0586 196.242 17.0586C194.964 17.0586 193.505 17.1796 192.018 18.3418L192.017 18.3408C190.915 19.2059 190.097 20.9656 190.097 23.2861C190.097 25.8948 191.346 27.8207 192.055 28.5791L192.188 28.7148L192.189 28.7158C193.752 30.2232 195.554 30.8105 197.38 30.8105L197.38 31.1107C195.484 31.1107 193.605 30.4987 191.981 28.9322C191.286 28.2682 189.888 26.2949 189.801 23.5537L189.797 23.2861ZM199.841 29.9688V26.2168H199.847C199.844 25.9471 199.837 25.728 199.821 25.5479C199.799 25.3033 199.764 25.1523 199.719 25.0518C199.648 24.8945 199.54 24.812 199.141 24.7012C199.008 24.6699 198.689 24.6465 198.518 24.6465C198.432 24.6465 198.33 24.6264 198.239 24.5664C198.152 24.5088 198.075 24.4117 198.057 24.2822L198.053 24.2246L198.056 24.166C198.063 24.1069 198.082 24.0445 198.12 23.9854C198.171 23.9066 198.24 23.8562 198.307 23.8252C198.425 23.7697 198.566 23.7607 198.683 23.7607C199.154 23.7607 199.715 23.7776 200.168 23.7939C200.395 23.8021 200.595 23.8103 200.745 23.8164C200.82 23.8195 200.882 23.8225 200.928 23.8242C200.951 23.8251 200.97 23.8257 200.984 23.8262H201.007L201.007 24.1265L200.156 24.0938C199.704 24.0774 199.148 24.0612 198.682 24.0612C198.46 24.0612 198.353 24.102 198.353 24.2244C198.353 24.306 198.435 24.3468 198.517 24.3468C198.699 24.3468 199.053 24.3712 199.218 24.412C200.042 24.6405 200.149 24.8608 200.149 26.5171H200.141V29.9684L200.135 30.0947C200.104 30.3751 199.967 30.5651 199.729 30.6864C199.193 30.9883 198.122 31.1107 197.38 31.1107L197.38 30.8105C197.736 30.8105 198.174 30.7814 198.585 30.7158C199.003 30.649 199.362 30.5489 199.582 30.4248L199.593 30.4189L199.656 30.3818C199.713 30.3435 199.752 30.3015 199.778 30.2559C199.815 30.1937 199.841 30.104 199.841 29.9688ZM247 23.1882C247 22.4131 246.588 21.7522 246.258 21.4421C246.034 21.2355 245.433 20.6773 243.831 20.6084L243.497 20.6017C242.813 20.6017 241.956 20.6425 241.626 20.6425L241.626 20.3428C241.785 20.3428 242.075 20.3326 242.42 20.3223C242.761 20.3121 243.15 20.3018 243.497 20.3018C244.458 20.3018 245.129 20.4624 245.601 20.6631C245.956 20.8147 246.19 20.9859 246.339 21.1123L246.462 21.2217L246.464 21.2236C246.841 21.5783 247.3 22.3145 247.3 23.1885C247.3 24.31 246.884 25.2634 246.171 25.9355C245.46 26.6061 244.47 26.9805 243.349 26.9805C243.312 26.9805 243.247 26.9808 243.182 26.9785C243.124 26.9765 243.038 26.9718 242.971 26.957C242.911 26.9501 242.844 26.9361 242.782 26.9023C242.692 26.8536 242.57 26.7424 242.57 26.5576C242.57 26.4911 242.583 26.3956 242.65 26.3076C242.716 26.221 242.804 26.1815 242.869 26.1621C242.981 26.1288 243.131 26.127 243.274 26.127C244.571 26.1269 245.538 25.198 245.538 24.0371C245.538 23.5704 245.495 22.69 244.793 21.9883L244.792 21.9873C244.106 21.2946 243.324 21.3427 242.97 21.3428C242.779 21.3428 242.617 21.3628 242.521 21.3867C242.52 21.3936 242.52 21.401 242.52 21.4092V27.4473C242.52 28.6924 242.519 29.7167 242.567 30.3535L242.592 30.6016V30.6084C242.612 30.8184 242.643 30.9465 242.689 31.0264C242.721 31.0805 242.769 31.1295 242.908 31.1475L242.917 31.1484C243.109 31.1788 243.423 31.2021 243.538 31.2021C243.622 31.2021 243.739 31.2207 243.834 31.3096C243.934 31.4028 243.953 31.5194 243.953 31.5918C243.953 31.6633 243.934 31.7397 243.888 31.8086C243.843 31.8753 243.783 31.9182 243.729 31.9453C243.627 31.9954 243.512 32.0059 243.414 32.0059C243.002 32.0059 242.562 31.9956 242.217 31.9854C242.044 31.9802 241.895 31.9755 241.784 31.9717C241.729 31.9698 241.683 31.9679 241.649 31.9668C241.633 31.9662 241.619 31.9661 241.608 31.9658H241.593C241.591 31.9659 241.578 31.9657 241.549 31.9668C241.519 31.9679 241.477 31.9698 241.427 31.9717C241.326 31.9755 241.19 31.9802 241.042 31.9854C240.747 31.9955 240.395 32.0059 240.167 32.0059C240.077 32.0059 239.961 31.9992 239.858 31.9512C239.801 31.9242 239.738 31.8798 239.691 31.8086C239.668 31.7724 239.651 31.7351 239.642 31.6982L239.628 31.5918L239.636 31.5166C239.651 31.4421 239.689 31.3698 239.75 31.3125C239.834 31.2339 239.941 31.2022 240.043 31.2021C240.141 31.2021 240.293 31.1761 240.432 31.1504C240.455 31.1458 240.482 31.1394 240.519 31.0576C240.562 30.9603 240.59 30.8133 240.619 30.5996C240.69 30.0017 240.691 28.8682 240.691 27.4473V24.5605H240.698C240.698 22.5257 240.698 22.147 240.667 21.708C240.651 21.4668 240.617 21.3538 240.573 21.291C240.54 21.2426 240.472 21.1842 240.268 21.1396L240.259 21.1377L240.25 21.1348C240.226 21.128 240.162 21.1194 240.067 21.1133C239.98 21.1077 239.89 21.1055 239.829 21.1055C239.748 21.1055 239.656 21.0839 239.576 21.0273C239.512 20.9817 239.452 20.9098 239.427 20.8164L239.414 20.7158L239.427 20.6113C239.436 20.5746 239.451 20.5363 239.475 20.499C239.523 20.4235 239.589 20.3773 239.649 20.3506C239.752 20.305 239.87 20.3018 239.952 20.3018C240.291 20.3018 240.685 20.312 241.006 20.3223C241.335 20.3327 241.575 20.3428 241.626 20.3428L241.626 20.6425L240.996 20.6221C240.676 20.6119 240.286 20.6017 239.953 20.6017C239.788 20.6017 239.714 20.6262 239.714 20.716C239.714 20.7731 239.771 20.8057 239.829 20.8057C239.961 20.8057 240.216 20.8139 240.332 20.8465C240.818 20.9526 240.934 21.1892 240.966 21.6869C240.999 22.1601 240.999 22.5681 240.999 24.8608H240.991L240.99 28.4541C240.987 29.4045 240.973 30.1724 240.917 30.6374C240.859 31.0617 240.785 31.3881 240.488 31.4452C240.357 31.4697 240.175 31.5023 240.043 31.5023C239.961 31.5023 239.928 31.5512 239.928 31.592C239.928 31.6531 239.969 31.6871 240.06 31.7002L240.167 31.7063C240.612 31.7063 241.55 31.6656 241.593 31.6655C241.667 31.6655 242.598 31.7063 243.414 31.7063C243.579 31.7063 243.654 31.6655 243.654 31.592C243.654 31.5431 243.629 31.5023 243.538 31.5023C243.406 31.5023 243.077 31.4778 242.87 31.4452C242.481 31.3951 242.363 31.1392 242.312 30.792L242.294 30.6374C242.238 30.1724 242.224 29.4045 242.221 28.4541L242.219 21.4095C242.219 21.2812 242.238 21.1901 242.304 21.1475L242.335 21.1321C242.467 21.075 242.714 21.0423 242.969 21.0423L243.323 21.0459C243.761 21.0669 244.418 21.1833 245.005 21.7766C245.797 22.5681 245.838 23.5553 245.838 24.0367L245.825 24.2852C245.697 25.5093 244.627 26.4273 243.274 26.4273C242.961 26.4273 242.87 26.4437 242.87 26.5579C242.87 26.6313 242.961 26.6639 243.035 26.6639C243.11 26.6803 243.274 26.6803 243.349 26.6803C245.393 26.6802 246.903 25.3632 246.995 23.3818L247 23.1882ZM209.608 24.0127C209.608 23.1459 209.377 22.4885 208.995 22.0527C208.617 21.6218 208.062 21.375 207.345 21.375C207.131 21.375 206.928 21.385 206.763 21.4004C206.665 21.4095 206.588 21.42 206.532 21.4297V26.0762C206.561 26.0873 206.601 26.101 206.654 26.1152C206.746 26.1399 206.863 26.1633 206.995 26.1836C207.26 26.2241 207.579 26.25 207.89 26.25L207.889 26.5497L207.645 26.5449C207.074 26.5228 206.526 26.4273 206.331 26.3131C206.257 26.2642 206.224 26.207 206.224 26.1336H206.232V21.3442C206.232 21.2545 206.274 21.1973 206.348 21.1647C206.496 21.1158 206.9 21.075 207.345 21.075L207.635 21.0879C209.047 21.2156 209.909 22.2912 209.909 24.0122L209.904 24.2178C209.86 25.2272 209.489 25.9434 209.002 26.2723C208.664 26.5089 208.244 26.5497 207.889 26.5497L207.89 26.25C208.231 26.25 208.572 26.2073 208.83 26.0264L208.834 26.0234C209.241 25.7486 209.608 25.0732 209.608 24.0127ZM226.133 25.8975C226.133 29.3354 223.673 32.2021 219.915 32.2021C217.798 32.2021 216.274 31.3844 215.284 30.2021C214.302 29.0283 213.861 27.5143 213.861 26.1338C213.861 24.8808 214.321 23.376 215.317 22.1797C216.321 20.9744 217.865 20.0898 220.006 20.0898C221.737 20.0899 223.27 20.6315 224.374 21.6396C225.481 22.6506 226.133 24.111 226.133 25.8975Z" fill="#346875"/>
</svg>
