<svg width="24" height="24" viewBox="0 0 24 24" fill="none" xmlns="http://www.w3.org/2000/svg">
<g clip-path="url(#clip0_2054_8055)">
<path d="M23.854 23.146C24.049 23.341 24.049 23.658 23.854 23.853C23.756 23.951 23.628 23.999 23.5 23.999C23.372 23.999 23.244 23.95 23.146 23.853L12 12.707L0.853998 23.854C0.755998 23.952 0.627998 24 0.499998 24C0.371998 24 0.243998 23.951 0.145998 23.854C-0.0490018 23.659 -0.0490018 23.342 0.145998 23.147L11.293 12L0.145998 0.854015C-0.0490018 0.658015 -0.0490018 0.342015 0.145998 0.146015C0.340998 -0.0499851 0.657998 -0.0489851 0.853998 0.146015L12 11.293L23.146 0.146015C23.341 -0.0489851 23.658 -0.0489851 23.853 0.146015C24.048 0.341015 24.048 0.658015 23.853 0.853015L12.707 12L23.854 23.146Z" fill="#475569"/>
</g>
<defs>
<clipPath id="clip0_2054_8055">
<rect width="24" height="24" fill="white"/>
</clipPath>
</defs>
</svg>
