<svg width="24" height="24" viewBox="0 0 24 24" fill="none" xmlns="http://www.w3.org/2000/svg">
<path d="M17.854 17.146C18.049 17.341 18.049 17.658 17.854 17.853C17.756 17.951 17.628 17.999 17.5 17.999C17.372 17.999 17.244 17.95 17.146 17.853L12 12.707L6.854 17.853C6.756 17.951 6.628 17.999 6.5 17.999C6.372 17.999 6.244 17.95 6.146 17.853C5.951 17.658 5.951 17.341 6.146 17.146L11.292 12L6.146 6.85398C5.951 6.65898 5.951 6.34198 6.146 6.14698C6.341 5.95198 6.658 5.95198 6.853 6.14698L11.999 11.293L17.145 6.14698C17.34 5.95198 17.657 5.95198 17.852 6.14698C18.047 6.34198 18.047 6.65898 17.852 6.85398L12.706 12L17.852 17.146H17.854Z" fill="#475569"/>
</svg>
